<svg xmlns="http://www.w3.org/2000/svg" width="19.99" height="20" viewBox="0 0 19.99 20">
  <g id="hashtag" transform="translate(-2 -2)">
    <path id="Path_126393" data-name="Path 126393" d="M10.42,13.418h2.84l.32-2.84H10.74Z" fill="#005D45"/>
    <path id="Path_126394" data-name="Path 126394" d="M16.19,2H7.81C4.17,2,2,4.17,2,7.81v8.37C2,19.83,4.17,22,7.81,22h8.37c3.64,0,5.81-2.17,5.81-5.81V7.81C22,4.17,19.83,2,16.19,2Zm2.63,8.58H15.05l-.32,2.85H18.1a.73.73,0,0,1,0,1.46H14.57l-.41,3.66a.735.735,0,0,1-.73.65h-.08a.739.739,0,0,1-.65-.81l.39-3.5H10.25l-.41,3.66a.735.735,0,0,1-.73.65H9.03a.739.739,0,0,1-.65-.81l.39-3.5H5.18a.73.73,0,1,1,0-1.46H8.95l.32-2.85H5.9a.73.73,0,1,1,0-1.46H9.43l.41-3.66a.734.734,0,0,1,1.46.16l-.39,3.5h2.84l.41-3.66a.734.734,0,1,1,1.46.16l-.39,3.5h3.61a.734.734,0,0,1,.73.73A.752.752,0,0,1,18.82,10.58Z" fill="#005D45"/>
  </g>
</svg>
