<svg xmlns="http://www.w3.org/2000/svg" width="110" height="110" viewBox="0 0 110 110">
  <g id="icon4" transform="translate(-1453 -6238)">
    <g id="Ellipse_180" data-name="Ellipse 180" transform="translate(1453 6238)" fill="none" stroke="#63be6a" stroke-width="3">
      <circle cx="55" cy="55" r="55" stroke="none"/>
      <circle cx="55" cy="55" r="53.5" fill="none"/>
    </g>
    <g id="airplane-square" transform="translate(1477.945 6262.225)">
      <path id="Path_129854" data-name="Path 129854" d="M19.464,50.14l5.4-4.562a2.458,2.458,0,0,1,2.988,0l5.365,4.562a2.32,2.32,0,0,0,3.245-1.349l1.028-3.084a2.556,2.556,0,0,0-.546-2.378l-5.269-5.3A2.657,2.657,0,0,1,31,36.389V30.446a1.5,1.5,0,0,1,2.249-1.478L44.01,33.594a2.158,2.158,0,0,0,3.245-2.12V28.486a4.662,4.662,0,0,0-2.6-3.952L31.994,19.072a1.717,1.717,0,0,1-.964-1.478V10.944A7.131,7.131,0,0,0,27.5,5.193a2.45,2.45,0,0,0-2.217,0,7.011,7.011,0,0,0-3.534,5.751v6.651a1.781,1.781,0,0,1-.964,1.478L8.122,24.534a4.725,4.725,0,0,0-2.6,3.952v2.988a2.152,2.152,0,0,0,3.245,2.12l10.763-4.626a1.493,1.493,0,0,1,2.249,1.478v5.944a2.69,2.69,0,0,1-.675,1.639L15.737,43.3a2.556,2.556,0,0,0-.546,2.377l1.028,3.084A2.3,2.3,0,0,0,19.464,50.14Z" transform="translate(3.424 2.847)" fill="none" stroke="#63be6a" stroke-linecap="round" stroke-linejoin="round" stroke-width="3"/>
    </g>
  </g>
</svg>
