<svg xmlns="http://www.w3.org/2000/svg" width="110" height="110" viewBox="0 0 110 110">
  <g id="icon3" transform="translate(-1453 -6238)">
    <g id="Ellipse_180" data-name="Ellipse 180" transform="translate(1453 6238)" fill="none" stroke="#63be6a" stroke-width="3">
      <circle cx="55" cy="55" r="55" stroke="none"/>
      <circle cx="55" cy="55" r="53.5" fill="none"/>
    </g>
    <g id="bank" transform="translate(1485.01 6271.009)">
      <path id="Path_129843" data-name="Path 129843" d="M22.73,2.21l17.991,7.2a2.165,2.165,0,0,1,1.259,1.859V17.9a2,2,0,0,1-2,2H4a2,2,0,0,1-2-2V11.266A2.165,2.165,0,0,1,3.259,9.407l17.991-7.2A2.341,2.341,0,0,1,22.73,2.21Z" transform="translate(0.999 0)" fill="none" stroke="#63be6a" stroke-linecap="round" stroke-linejoin="round" stroke-width="3"/>
      <path id="Path_129844" data-name="Path 129844" d="M41.981,26H2V20a2,2,0,0,1,2-2H39.982a2,2,0,0,1,2,2Z" transform="translate(0.999 15.895)" fill="none" stroke="#63be6a" stroke-linecap="round" stroke-linejoin="round" stroke-width="3"/>
      <path id="Path_129845" data-name="Path 129845" d="M4,24.993V11" transform="translate(2.997 8.901)" fill="none" stroke="#63be6a" stroke-linecap="round" stroke-linejoin="round" stroke-width="3"/>
      <path id="Path_129846" data-name="Path 129846" d="M8,24.993V11" transform="translate(6.993 8.901)" fill="none" stroke="#63be6a" stroke-linecap="round" stroke-linejoin="round" stroke-width="3"/>
      <path id="Path_129847" data-name="Path 129847" d="M12,24.993V11" transform="translate(10.99 8.901)" fill="none" stroke="#63be6a" stroke-linecap="round" stroke-linejoin="round" stroke-width="3"/>
      <path id="Path_129848" data-name="Path 129848" d="M16,24.993V11" transform="translate(14.986 8.901)" fill="none" stroke="#63be6a" stroke-linecap="round" stroke-linejoin="round" stroke-width="3"/>
      <path id="Path_129849" data-name="Path 129849" d="M20,24.993V11" transform="translate(18.982 8.901)" fill="none" stroke="#63be6a" stroke-linecap="round" stroke-linejoin="round" stroke-width="3"/>
      <path id="Path_129850" data-name="Path 129850" d="M1,22H44.979" transform="translate(0 19.891)" fill="none" stroke="#63be6a" stroke-linecap="round" stroke-linejoin="round" stroke-width="3"/>
      <path id="Path_129851" data-name="Path 129851" d="M13.5,11.5a3,3,0,1,0-3-3A3,3,0,0,0,13.5,11.5Z" transform="translate(9.491 3.407)" fill="none" stroke="#63be6a" stroke-linecap="round" stroke-linejoin="round" stroke-width="3"/>
      <g id="flag" transform="translate(17.84 -9.304)">
        <path id="Path_129852" data-name="Path 129852" d="M5.15,2v9.394" fill="none" stroke="#63be6a" stroke-linecap="round" stroke-linejoin="round" stroke-width="3"/>
        <path id="Path_129853" data-name="Path 129853" d="M5.15,4h5.261c1.268,0,1.55.517.658,1.173l-.564.414a.554.554,0,0,0,0,.966l.564.414c.892.655.564,1.173-.658,1.173H5.15" transform="translate(0 -1.061)" fill="none" stroke="#63be6a" stroke-linecap="round" stroke-linejoin="round" stroke-width="3"/>
      </g>
    </g>
  </g>
</svg>
