<svg xmlns="http://www.w3.org/2000/svg" width="110" height="110" viewBox="0 0 110 110">
  <g id="icon8" transform="translate(-1453 -6238)">
    <g id="Ellipse_180" data-name="Ellipse 180" transform="translate(1453 6238)" fill="none" stroke="#63be6a" stroke-width="3">
      <circle cx="55" cy="55" r="55" stroke="none"/>
      <circle cx="55" cy="55" r="53.5" fill="none"/>
    </g>
    <g id="convertshape" transform="translate(1486.72 6271.72)">
      <path id="Path_129867" data-name="Path 129867" d="M30.352,8.073v7.134c0,4.338-1.735,6.073-6.073,6.073H19.073C14.735,21.28,13,19.545,13,15.207V8.073C13,3.735,14.735,2,19.073,2h5.206C28.617,2,30.352,3.735,30.352,8.073Z" transform="translate(10.208 0)" fill="none" stroke="#63be6a" stroke-linecap="round" stroke-linejoin="round" stroke-width="3"/>
      <path id="Path_129868" data-name="Path 129868" d="M19.352,18.073v7.134c0,4.338-1.735,6.073-6.073,6.073H8.073C3.735,31.28,2,29.545,2,25.207V18.073C2,13.735,3.735,12,8.073,12h5.206C17.617,12,19.352,13.735,19.352,18.073Z" transform="translate(0 9.28)" fill="none" stroke="#63be6a" stroke-linecap="round" stroke-linejoin="round" stroke-width="3"/>
      <path id="Path_129869" data-name="Path 129869" d="M28.5,15A13.486,13.486,0,0,1,15,28.5l2.024-3.374" transform="translate(12.064 12.064)" fill="none" stroke="#63be6a" stroke-linecap="round" stroke-linejoin="round" stroke-width="3"/>
      <path id="Path_129870" data-name="Path 129870" d="M2,15.5A13.486,13.486,0,0,1,15.5,2L13.471,5.374" fill="none" stroke="#63be6a" stroke-linecap="round" stroke-linejoin="round" stroke-width="3"/>
    </g>
  </g>
</svg>
