<svg xmlns="http://www.w3.org/2000/svg" width="110" height="110" viewBox="0 0 110 110">
  <g id="icon11" transform="translate(-1453 -6238)">
    <g id="Ellipse_180" data-name="Ellipse 180" transform="translate(1453 6238)" fill="none" stroke="#63be6a" stroke-width="3">
      <circle cx="55" cy="55" r="55" stroke="none"/>
      <circle cx="55" cy="55" r="53.5" fill="none"/>
    </g>
    <g id="Group_125130" data-name="Group 125130" transform="translate(-7.758 -8.991)">
      <rect id="Rectangle_15550" data-name="Rectangle 15550" width="47.501" height="31.215" rx="3" transform="translate(1491.794 6282.992)" fill="none" stroke="#63be6a" stroke-linecap="round" stroke-linejoin="round" stroke-width="3"/>
      <line id="Line_8624" data-name="Line 8624" x1="51.573" transform="translate(1489.758 6320.755)" fill="none" stroke="#63be6a" stroke-linecap="round" stroke-linejoin="round" stroke-width="3"/>
      <path id="gear-16" d="M9.152,1.909a8.255,8.255,0,0,1,1.43,0,.219.219,0,0,1,.172.183l.362,1.384a2.351,2.351,0,0,0,1.248,1.489,5.559,5.559,0,0,1,.627.363,2.346,2.346,0,0,0,1.916.338l1.38-.379a.217.217,0,0,1,.244.058,8.093,8.093,0,0,1,.717,1.238.22.22,0,0,1-.074.238L16.154,7.83a2.34,2.34,0,0,0-.664,1.823,5.745,5.745,0,0,1,0,.729,2.34,2.34,0,0,0,.664,1.823l1.02,1.009a.223.223,0,0,1,.074.238,8.132,8.132,0,0,1-.717,1.24.222.222,0,0,1-.244.056l-1.381-.379a2.344,2.344,0,0,0-1.915.338,5.654,5.654,0,0,1-.626.363,2.342,2.342,0,0,0-1.25,1.489l-.362,1.384a.219.219,0,0,1-.172.183,8.28,8.28,0,0,1-1.43,0,.22.22,0,0,1-.172-.183l-.362-1.384A2.351,2.351,0,0,0,7.37,15.069a5.637,5.637,0,0,1-.627-.363,2.346,2.346,0,0,0-1.916-.338l-1.38.379A.217.217,0,0,1,3.2,14.69a8.129,8.129,0,0,1-.717-1.238.22.22,0,0,1,.074-.238L3.58,12.2a2.34,2.34,0,0,0,.664-1.823,5.744,5.744,0,0,1,0-.729A2.34,2.34,0,0,0,3.58,7.83L2.56,6.82a.223.223,0,0,1-.074-.238A8.064,8.064,0,0,1,3.2,5.343a.22.22,0,0,1,.244-.056l1.381.379a2.344,2.344,0,0,0,1.915-.338,5.654,5.654,0,0,1,.626-.363,2.342,2.342,0,0,0,1.25-1.489l.362-1.384a.219.219,0,0,1,.172-.183ZM9.867,0q-.443,0-.878.038A2.092,2.092,0,0,0,7.164,1.616L6.8,3a.472.472,0,0,1-.264.28,7.505,7.505,0,0,0-.836.483.469.469,0,0,1-.376.089l-1.38-.378a2.092,2.092,0,0,0-2.279.789A9.988,9.988,0,0,0,.784,5.789a2.092,2.092,0,0,0,.455,2.368l1.02,1.009a.463.463,0,0,1,.11.368,7.618,7.618,0,0,0,0,.967.463.463,0,0,1-.11.368l-1.02,1.009a2.092,2.092,0,0,0-.455,2.368,10.168,10.168,0,0,0,.881,1.525,2.1,2.1,0,0,0,2.279.789l1.381-.379a.468.468,0,0,1,.374.089,7.185,7.185,0,0,0,.836.483.479.479,0,0,1,.265.28l.362,1.385A2.091,2.091,0,0,0,8.989,20a10.135,10.135,0,0,0,1.755,0,2.09,2.09,0,0,0,1.826-1.578l.363-1.385a.472.472,0,0,1,.264-.28,7.487,7.487,0,0,0,.836-.483.469.469,0,0,1,.376-.089l1.38.378a2.092,2.092,0,0,0,2.279-.789,9.988,9.988,0,0,0,.882-1.524,2.09,2.09,0,0,0-.456-2.368l-1.019-1.009a.463.463,0,0,1-.11-.368,7.638,7.638,0,0,0,0-.967.468.468,0,0,1,.11-.368l1.019-1.009a2.09,2.09,0,0,0,.456-2.368,10.007,10.007,0,0,0-.882-1.525,2.1,2.1,0,0,0-2.279-.789l-1.381.379a.468.468,0,0,1-.374-.089,7.5,7.5,0,0,0-.836-.483A.479.479,0,0,1,12.932,3l-.361-1.386A2.094,2.094,0,0,0,10.745.039Q10.307,0,9.867,0Zm1.878,10.017A1.878,1.878,0,1,1,9.867,8.139,1.878,1.878,0,0,1,11.745,10.017Zm1.878,0A3.756,3.756,0,1,1,9.867,6.261,3.756,3.756,0,0,1,13.623,10.017Z" transform="translate(1505.677 6288.931)" fill="#63be6a" stroke="#63be6a" stroke-width="1" fill-rule="evenodd"/>
    </g>
  </g>
</svg>
