<svg xmlns="http://www.w3.org/2000/svg" width="19.808" height="11.616" viewBox="0 0 19.808 11.616">
  <path id="Aa" d="M8.112,24H5.632L9.744,12.576h3.2L17.04,24H14.528L13.5,21.216H9.1Zm1.536-4.672H12.96L11.312,14.4ZM23.04,18.48a1.251,1.251,0,0,0-.464-1.04,2.244,2.244,0,0,0-1.408-.368,5.826,5.826,0,0,0-1.008.1,7.165,7.165,0,0,0-1.168.32l-.416-1.632A7.619,7.619,0,0,1,19.9,15.5a7.946,7.946,0,0,1,1.424-.144,4.553,4.553,0,0,1,3.048.848,2.915,2.915,0,0,1,.936,2.384V22.08q0,.464.024,1a5.867,5.867,0,0,0,.1.92H23.424a3.741,3.741,0,0,1-.112-.52q-.048-.312-.064-.52h-.032a2.3,2.3,0,0,1-.96.9,3.156,3.156,0,0,1-1.488.336,4.535,4.535,0,0,1-1.1-.136,2.9,2.9,0,0,1-.992-.456,2.21,2.21,0,0,1-.7-.808,2.828,2.828,0,0,1-.264-1.224,2.481,2.481,0,0,1,.416-1.488,2.609,2.609,0,0,1,1.152-.88,6.416,6.416,0,0,1,1.728-.416,15.916,15.916,0,0,1,2.032-.1Zm-.3,1.616a10.021,10.021,0,0,0-1.088.056,3.577,3.577,0,0,0-.9.208,1.4,1.4,0,0,0-.608.424,1.072,1.072,0,0,0-.216.688,1.085,1.085,0,0,0,.336.848,1.308,1.308,0,0,0,.912.3,2.053,2.053,0,0,0,.84-.16,1.559,1.559,0,0,0,.592-.448,1.871,1.871,0,0,0,.336-.624,2.367,2.367,0,0,0,.1-.7V20.1Z" transform="translate(-5.632 -12.576)" fill="#239157"/>
</svg>
