<svg xmlns="http://www.w3.org/2000/svg" width="16.825" height="16.825" viewBox="0 0 16.825 16.825">
  <path id="calendar-dates" d="M17.143,7.048V4.524H15.46v.841H13.778V4.524H7.048v.841H5.365V4.524H3.683V7.048Zm0,1.683H3.683v8.413h13.46ZM15.46,2.841h1.683a1.683,1.683,0,0,1,1.683,1.683V17.143a1.682,1.682,0,0,1-1.683,1.683H3.683A1.683,1.683,0,0,1,2,17.143V4.524A1.683,1.683,0,0,1,3.683,2.841H5.365V2H7.048v.841h6.73V2H15.46ZM7.889,12.1H6.206V10.413H7.889Zm3.365,0H9.571V10.413h1.683Zm3.365,0H12.936V10.413h1.683ZM7.889,15.46H6.206V13.778H7.889Zm3.365,0H9.571V13.778h1.683Z" transform="translate(-2 -2)" fill="#727f7c" fill-rule="evenodd"/>
</svg>
