<svg width="18" height="18" viewBox="0 0 18 18" fill="none" xmlns="http://www.w3.org/2000/svg">
<g id="elements">
<path id="Icon" fill-rule="evenodd" clip-rule="evenodd" d="M3.4304 0.0719769C3.90264 0.169581 4.27872 0.486863 4.51238 0.906056L5.25672 2.24142C5.53089 2.73326 5.76162 3.14717 5.9123 3.50698C6.07214 3.88866 6.16707 4.26504 6.12367 4.68117C6.08028 5.09731 5.90973 5.44601 5.67459 5.7865C5.45291 6.10748 5.14175 6.46487 4.772 6.88956L2.91545 9.02208C4.38782 11.4354 6.56193 13.6105 8.97773 15.0844L11.1103 13.2278C11.5349 12.8581 11.8923 12.5469 12.2133 12.3252C12.5538 12.0901 12.9025 11.9195 13.3186 11.8761C13.7348 11.8327 14.1112 11.9277 14.4928 12.0875C14.8526 12.2382 15.2666 12.4689 15.7584 12.7431L17.0938 13.4874C17.513 13.7211 17.8302 14.0972 17.9278 14.5694C18.0265 15.0466 17.881 15.5262 17.5597 15.9204C16.3939 17.3507 14.5262 18.2614 12.5669 17.8661C11.3625 17.6232 10.1741 17.2184 8.73689 16.3942C5.8491 14.738 3.25987 12.1474 1.60564 9.26292C0.781377 7.82566 0.376615 6.63734 0.133663 5.43295C-0.261584 3.4736 0.649111 1.60587 2.07941 0.440115C2.47361 0.11883 2.95323 -0.0266457 3.4304 0.0719769ZM10.142 15.7281C11.114 16.207 11.9594 16.4684 12.814 16.6408C14.2274 16.9259 15.6543 16.2797 16.5908 15.1307C16.7137 14.9798 16.7145 14.8745 16.7037 14.8224C16.6919 14.7654 16.6442 14.6679 16.4852 14.5793L15.1797 13.8516C14.65 13.5564 14.2974 13.3608 14.01 13.2405C13.7372 13.1263 13.5807 13.1056 13.4483 13.1194C13.3159 13.1332 13.167 13.1857 12.9236 13.3538C12.6673 13.5308 12.3626 13.7949 11.9052 14.1931L10.142 15.7281ZM2.27173 7.8578L3.80671 6.09464C4.20491 5.63726 4.46897 5.33254 4.64603 5.07616C4.8141 4.8328 4.86661 4.68389 4.88042 4.55152C4.89422 4.41916 4.87356 4.26261 4.75932 3.98981C4.63897 3.70242 4.44345 3.34978 4.14819 2.82008L3.42054 1.51465C3.33189 1.35561 3.23441 1.30789 3.17739 1.2961C3.12531 1.28534 3.02 1.28609 2.86914 1.40905C1.72015 2.34552 1.07387 3.7724 1.35898 5.18578C1.53138 6.04043 1.79279 6.88583 2.27173 7.8578Z" fill="#1B8354"/>
</g>
</svg>
