<svg xmlns="http://www.w3.org/2000/svg" xmlns:xlink="http://www.w3.org/1999/xlink" width="151" height="151" viewBox="0 0 151 151">
  <defs>
    <filter id="Union_12" x="0" y="0" width="151" height="151" filterUnits="userSpaceOnUse">
      <feOffset input="SourceAlpha"/>
      <feGaussianBlur stdDeviation="12.5" result="blur"/>
      <feFlood flood-color="#003462" flood-opacity="0.302"/>
      <feComposite operator="in" in2="blur"/>
      <feComposite in="SourceGraphic"/>
    </filter>
  </defs>
  <g id="ChatImg" transform="translate(-1637.696 -809.56)">
    <g transform="matrix(1, 0, 0, 1, 1637.7, 809.56)" filter="url(#Union_12)">
      <g id="Union_12-2" data-name="Union 12" transform="translate(37.5 37.5)" fill="#fff">
        <path d="M 37.99979782104492 74.00050354003906 C 33.13889694213867 74.00050354003906 28.42448425292969 73.04892730712891 23.98751831054688 71.17221069335938 C 19.70091819763184 69.35908508300781 15.85075187683105 66.76301574707031 12.54397392272949 63.45613098144531 C 9.23719596862793 60.14924240112305 6.641229629516602 56.29897308349609 4.828174114227295 52.01226425170898 C 2.951529502868652 47.5752067565918 1.999996185302734 42.86074066162109 1.999996185302734 37.99979782104492 C 1.999996185302734 33.13886260986328 2.951529502868652 28.42444038391113 4.828174114227295 23.98748588562012 C 6.641218662261963 19.70088577270508 9.237174034118652 15.85071849822998 12.54395198822021 12.54395198822021 C 15.85071849822998 9.237174034118652 19.70088577270508 6.641218662261963 23.98748588562012 4.828174114227295 C 28.42444038391113 2.951529502868652 33.13886260986328 1.999996185302734 37.99979782104492 1.999996185302734 C 42.86074066162109 1.999996185302734 47.5752067565918 2.951529502868652 52.01226425170898 4.828174114227295 C 56.29897308349609 6.641229629516602 60.14924240112305 9.23719596862793 63.45613098144531 12.54397392272949 C 66.76301574707031 15.85075187683105 69.35908508300781 19.70091819763184 71.17221069335938 23.98751831054688 C 73.04892730712891 28.42448425292969 74.00050354003906 33.13889694213867 74.00050354003906 37.99979782104492 C 74.00050354003906 41.8879280090332 73.38455963134766 45.71197509765625 72.16978454589844 49.36569595336914 C 70.99508666992188 52.89890670776367 69.27983856201172 56.22038650512695 67.07169342041016 59.23786163330078 L 66.55281066894531 59.94694137573242 L 66.72405242919922 60.80874252319336 L 68.89806365966797 71.74987030029297 C 68.97426605224609 72.13367462158203 68.82997131347656 72.40955352783203 68.69551086425781 72.57334899902344 C 68.50289916992188 72.80797576904297 68.21598815917969 72.94805145263672 67.92800903320312 72.94805908203125 C 67.82789611816406 72.94805908203125 67.72470855712891 72.93179321289062 67.62131500244141 72.89969635009766 L 56.69537353515625 69.50950622558594 L 55.88977432250977 69.25954437255859 L 55.14847564697266 69.66196441650391 C 52.57119750976562 71.06108856201172 49.82725143432617 72.14000701904297 46.99287414550781 72.8687744140625 C 44.07210922241211 73.61974334716797 41.04640579223633 74.00050354003906 37.99979782104492 74.00050354003906 Z" stroke="none"/>
        <path d="M 37.99979782104492 4 C 33.40798568725586 4 28.95569229125977 4.898384094238281 24.76658630371094 6.670188903808594 C 20.7183837890625 8.382400512695312 17.08190536499023 10.83442687988281 13.95817184448242 13.95817184448242 C 10.83442687988281 17.08190536499023 8.382400512695312 20.7183837890625 6.670188903808594 24.76658630371094 C 4.898384094238281 28.95569229125977 4 33.40798568725586 4 37.99979782104492 C 4 42.59163665771484 4.898384094238281 47.04398345947266 6.670196533203125 51.23318481445312 C 8.382423400878906 55.281494140625 10.83446502685547 58.9180908203125 13.95820999145508 62.04193115234375 C 17.08197021484375 65.16580200195312 20.71845245361328 67.617919921875 24.76663970947266 69.3302001953125 C 28.95574569702148 71.10208892822266 33.40802383422852 72.00050354003906 37.99979782104492 72.00050354003906 C 40.87851715087891 72.00050354003906 43.73666381835938 71.64093017578125 46.49483871459961 70.93177032470703 C 49.1705322265625 70.24381256103516 51.7609977722168 69.22521209716797 54.19429016113281 67.90426635742188 L 55.6768913269043 67.09941101074219 L 66.60892486572266 70.49150848388672 L 64.41990661621094 59.47490692138672 L 65.45769500732422 58.05675888061523 C 67.54306793212891 55.20703887939453 69.16281127929688 52.07065200805664 70.27193450927734 48.73470306396484 C 71.41893005371094 45.28483581542969 72.00050354003906 41.67309188842773 72.00050354003906 37.99979782104492 C 72.00050354003906 33.40802383422852 71.10208892822266 28.95574569702148 69.3302001953125 24.76663970947266 C 67.617919921875 20.71845245361328 65.16580200195312 17.08197021484375 62.04193115234375 13.95820999145508 C 58.9180908203125 10.83446502685547 55.281494140625 8.382423400878906 51.23318481445312 6.670196533203125 C 47.04398345947266 4.898384094238281 42.59163665771484 4 37.99979782104492 4 M 37.99979782104492 0 C 58.98690795898438 0 76.00050354003906 17.0127067565918 76.00050354003906 37.99979782104492 C 76.00050354003906 46.38362503051758 73.28447723388672 54.13461303710938 68.68569183349609 60.41896057128906 L 70.85970306396484 71.36009216308594 C 71.30250549316406 73.59030151367188 69.20010375976562 75.48390197753906 67.02839660644531 74.80979919433594 L 56.10267639160156 71.41966247558594 C 50.72046661376953 74.34147644042969 44.55442428588867 76.00050354003906 37.99979782104492 76.00050354003906 C 17.0127067565918 76.00050354003906 0 58.98690795898438 0 37.99979782104492 C 0 17.0127067565918 17.0127067565918 0 37.99979782104492 0 Z" stroke="none" fill="#4789c8"/>
      </g>
    </g>
    <g id="Layer_1" data-name="Layer 1" transform="translate(1687.038 885.088)">
      <path id="Path_125086" data-name="Path 125086" d="M16.962,90.3H16.29V86.85h.757l1.382,2.418V86.85h.67V90.3h-.716l-1.422-2.485Z" transform="translate(-13.076 -69.724)" fill="#a7adae"/>
      <path id="Path_125087" data-name="Path 125087" d="M46.947,87.615,46.487,89h.919ZM45.32,90.3l1.221-3.447h.834L48.593,90.3h-.761l-.233-.7H46.29l-.229.7Z" transform="translate(-36.382 -69.724)" fill="#a7adae"/>
      <path id="Path_125088" data-name="Path 125088" d="M106,90.3h-.674V86.85h1.057l.627,2.735.619-2.735h1.039V90.3H108V87.4l-.647,2.9h-.706L106,87.333Z" transform="translate(-84.559 -69.724)" fill="#a7adae"/>
      <path id="Path_125089" data-name="Path 125089" d="M75.629,87.615,75.171,89h.917ZM74,90.3l1.223-3.447h.834L77.275,90.3h-.759l-.235-.7H74.972l-.229.7Z" transform="translate(-59.407 -69.724)" fill="#a7adae"/>
      <path id="Path_125090" data-name="Path 125090" d="M140.3,87.615,139.837,89h.919ZM138.67,90.3l1.221-3.447h.834l1.219,3.447h-.761l-.233-.7H139.64l-.229.7Z" transform="translate(-111.324 -69.724)" fill="#a7adae"/>
      <path id="Path_125091" data-name="Path 125091" d="M145.714,18.688h1.254a.359.359,0,0,0,.264-.1.339.339,0,0,0,.1-.25V17.081a.357.357,0,0,0-.1-.266.339.339,0,0,0-.248-.1h-1.27a.394.394,0,0,0-.272.1.349.349,0,0,0-.112.266v1.252a.339.339,0,0,0,.1.25.379.379,0,0,0,.28.1" transform="translate(-116.671 -13.415)" fill="#193661"/>
      <path id="Path_125092" data-name="Path 125092" d="M30.7,15.292c0-.262-.014-.564-.024-.907a.394.394,0,0,0-.1-.217.335.335,0,0,0-.258-.089H28.98a.317.317,0,0,0-.235.089.294.294,0,0,0-.087.217c.02.771.032,1.489.032,2.153v1.913c0,.258-.043.41-.128.457a1.183,1.183,0,0,1-.515.073H23.315a1.854,1.854,0,0,1-.258-.024,1.422,1.422,0,0,1-.306-.081,1.069,1.069,0,0,1-.264-.152.426.426,0,0,1-.154-.258,1.65,1.65,0,0,0,.034-.329V16.86a3.522,3.522,0,0,0-.948-2.676,3.569,3.569,0,0,0-2.587-.891,3.728,3.728,0,0,0-2.636.907,3.486,3.486,0,0,0-.986,2.676v1.351a1.28,1.28,0,0,1-.049.394.394.394,0,0,1-.128.209.57.57,0,0,1-.233.112,1.658,1.658,0,0,1-.29.039H2.983a1.327,1.327,0,0,1-.674-.136c-.15-.091-.225-.319-.225-.684V9.13A.347.347,0,0,0,2,8.9a.3.3,0,0,0-.235-.095H.331A.329.329,0,0,0,.09,8.9a.31.31,0,0,0-.1.227v9.642a3.334,3.334,0,0,0,.168,1.15,1.591,1.591,0,0,0,.483.69,1.723,1.723,0,0,0,.755.339,5.06,5.06,0,0,0,.986.087H14.191a4.888,4.888,0,0,0,1.045-.112,1.645,1.645,0,0,0,.836-.434,2.266,2.266,0,0,0,1.148.692,5.578,5.578,0,0,0,1.578.225,4.492,4.492,0,0,0,1.471-.225,2.492,2.492,0,0,0,1.069-.692,2.79,2.79,0,0,0,.948.418,4.492,4.492,0,0,0,1.077.128h5.03c.256,0,.507-.016.747-.032s.461-.035.659-.055a3.283,3.283,0,0,0,.475-.081.552.552,0,0,0,.264-.2.765.765,0,0,0,.1-.274c.034-.288.051-.666.057-1.132s0-1.043,0-1.729V15.292M20.342,17.719a2.094,2.094,0,0,1-.371,1.38,1.473,1.473,0,0,1-1.183.426,1.81,1.81,0,0,1-.986-.248,1.252,1.252,0,0,1-.515-.828,5.208,5.208,0,0,1-.047-.73v-.69a2.212,2.212,0,0,1,.369-1.424,1.458,1.458,0,0,1,1.183-.442,1.459,1.459,0,0,1,1.183.442,2.235,2.235,0,0,1,.363,1.424Z" transform="translate(0.008 -7.071)" fill="#193661"/>
      <path id="Path_125093" data-name="Path 125093" d="M189.271,26.759V20.41l-3.013,2.21a4.111,4.111,0,0,0-1.678,3.313V36.988l3.013-2.21a4.106,4.106,0,0,0,1.678-3.313V28.747l-1.972-.016Z" transform="translate(-148.182 -16.385)" fill="#0a8944"/>
      <path id="Path_125094" data-name="Path 125094" d="M248.258,33.28a4.109,4.109,0,0,0-1.678,3.313v.592l1.909,1.907H246.58v6.46l3.013-2.21a4.106,4.106,0,0,0,1.678-3.313V31.07Z" transform="translate(-197.956 -24.943)" fill="#4789c8"/>
      <path id="Path_125095" data-name="Path 125095" d="M219.991,12.214V0L216.98,2.21a4.107,4.107,0,0,0-1.68,3.311v4.851l1.972,1.972H215.3V23.071l3.013-2.21a4.105,4.105,0,0,0,1.678-3.313V14.142h-1.928Z" transform="translate(-172.844)" fill="#63be6c"/>
    </g>
    <text id="تحدث_إلى" data-name="تحدث إلى" transform="translate(1686.038 878.961)" fill="#727f7c" font-size="14" font-family="SSTArabic-Medium, SST Arabic" font-weight="500"><tspan x="0" y="0">تحدث إلى</tspan></text>
  </g>
</svg>
