<svg width="22" height="20" viewBox="0 0 22 20" fill="none" xmlns="http://www.w3.org/2000/svg">
<path fill-rule="evenodd" clip-rule="evenodd" d="M18.5417 13.6238L17.2245 12.3066C17.8151 11.7096 18.358 11.0797 18.8436 10.45C18.9651 10.2923 19.0775 10.1418 19.1803 10C19.0775 9.8583 18.9651 9.7078 18.8436 9.55013C18.2804 8.81979 17.6402 8.08917 16.9378 7.40991C14.9881 5.52449 12.9603 4.41214 10.9997 4.41214C10.5133 4.41214 10.0227 4.48062 9.53022 4.61239L8.05692 3.13906C9.01846 2.75568 10.0005 2.5495 10.9997 2.5495C13.5399 2.5495 15.969 3.88187 18.2326 6.07096C19.0049 6.81778 19.7036 7.61509 20.3186 8.41271C20.6897 8.89402 20.9532 9.27269 21.0975 9.49825L21.4184 10L21.0975 10.5018C20.9532 10.7274 20.6897 11.1061 20.3186 11.5874C19.7866 12.2772 19.1922 12.9669 18.5417 13.6238ZM15.6615 15.9789C14.1609 16.9202 12.6025 17.4506 10.9997 17.4506C8.45953 17.4506 6.03053 16.1183 3.76686 13.9292C2.99459 13.1824 2.29593 12.385 1.68089 11.5874C1.30976 11.1061 1.04625 10.7274 0.901982 10.5018L0.581055 10L0.901982 9.49825C1.04625 9.27269 1.30976 8.89402 1.68089 8.41271C2.29593 7.61509 2.99459 6.81778 3.76686 6.07096C4.11201 5.73717 4.46102 5.42331 4.81366 5.13105L1.02802 1.34541L2.34511 0.0283203L20.9715 18.6547L19.6544 19.9718L15.6615 15.9789ZM6.138 6.45539C5.77721 6.74634 5.41815 7.0652 5.0617 7.40991C4.3593 8.08917 3.71906 8.81979 3.15595 9.55013C3.03433 9.7078 2.92195 9.8583 2.8192 10C2.92195 10.1418 3.03433 10.2923 3.15595 10.45C3.71906 11.1803 4.3593 11.9109 5.0617 12.5901C7.01137 14.4756 9.03925 15.588 10.9997 15.588C12.0877 15.588 13.1964 15.2454 14.3009 14.6183L12.8922 13.2096C12.3376 13.5373 11.6906 13.7253 10.9997 13.7253C8.94233 13.7253 7.27447 12.0574 7.27447 10C7.27447 9.3092 7.46253 8.66221 7.79026 8.10764L6.138 6.45539ZM9.20016 9.51763C9.15909 9.67148 9.13711 9.83316 9.13711 10C9.13711 11.0288 9.97101 11.8627 10.9997 11.8627C11.1666 11.8627 11.3283 11.8407 11.4822 11.7996L9.20016 9.51763Z" fill="white"/>
</svg>
