<svg width="22" height="18" viewBox="0 0 22 18" fill="none" xmlns="http://www.w3.org/2000/svg">
<path d="M20.1075 10.2498C20.1075 9.89594 19.7662 9.80787 19.5236 9.80787H7.53409C6.95013 9.80787 6.17857 10.2248 5.80407 10.7419L2.56409 15.3246C2.46465 15.4757 2.36591 15.6406 2.36591 15.8296C2.36591 16.1835 2.70726 16.2716 2.94987 16.2716H14.9394C15.5233 16.2716 16.2949 15.8547 16.6694 15.3246L19.9094 10.7419C20.0088 10.6029 20.1075 10.4389 20.1075 10.2498ZM7.53409 8.19194H15.9973V6.17203C15.9973 5.50304 15.5233 4.96009 14.9394 4.96009H8.59198C8.00802 4.96009 7.53409 4.41714 7.53409 3.74814V2.94018C7.53409 2.27118 7.06015 1.72823 6.47619 1.72823H2.94987C2.36591 1.72823 1.89197 2.27118 1.89197 2.94018V13.7087L4.71303 9.73192C5.352 8.83589 6.5312 8.19194 7.53409 8.19194ZM21.5181 10.2498C21.5181 10.8057 21.3086 11.3357 21.011 11.7648L17.7604 16.3475C17.132 17.2314 15.931 17.8875 14.9394 17.8875H2.94987C1.59435 17.8875 0.481445 16.6125 0.481445 15.0596V2.94018C0.481445 1.38727 1.59435 0.112305 2.94987 0.112305H6.47619C7.83171 0.112305 8.94462 1.38727 8.94462 2.94018V3.34416H14.9394C16.2949 3.34416 17.4078 4.61913 17.4078 6.17203V8.19195H19.5236C20.2726 8.19195 21.0223 8.583 21.353 9.39096C21.4631 9.65598 21.5181 9.94765 21.5181 10.2498Z" fill="white"/>
</svg>
