<svg width="18" height="14" viewBox="0 0 18 14" fill="none" xmlns="http://www.w3.org/2000/svg">
<g id="elements">
<g id="Icon">
<path fill-rule="evenodd" clip-rule="evenodd" d="M5.66667 0.541748C5.22981 0.541748 4.87324 0.742372 4.59194 1.02604C4.32343 1.29681 4.09767 1.66705 3.8902 2.08784C3.4798 2.92023 3.05014 4.14581 2.5044 5.70248L0.076871 12.6266C-0.0373293 12.9524 0.134157 13.309 0.459896 13.4232C0.785635 13.5374 1.14228 13.3659 1.25648 13.0402L3.15495 7.62508H8.17839L10.0769 13.0402C10.1911 13.3659 10.5477 13.5374 10.8735 13.4232C11.1992 13.309 11.3707 12.9524 11.2565 12.6266L8.82896 5.70252C8.28322 4.14584 7.85355 2.92024 7.44314 2.08784C7.23567 1.66705 7.00992 1.29681 6.7414 1.02604C6.46011 0.742372 6.10354 0.541748 5.66667 0.541748ZM7.74015 6.37508H3.59319L3.66739 6.16344C4.23326 4.54937 4.63869 3.39644 5.01134 2.64061C5.19748 2.26309 5.35222 2.03458 5.47953 1.9062C5.59306 1.79171 5.64768 1.79174 5.66619 1.79175H5.66715C5.68567 1.79174 5.74029 1.79171 5.85382 1.9062C5.98113 2.03458 6.13587 2.26309 6.32201 2.64061C6.69466 3.39644 7.10008 4.54937 7.66595 6.16344L7.74015 6.37508Z" fill="#1B8354"/>
<path fill-rule="evenodd" clip-rule="evenodd" d="M15.0806 4.62625C14.5202 4.55832 13.9561 4.58995 13.403 4.84513C12.8543 5.09834 12.3824 5.54119 11.9463 6.1766C11.751 6.4612 11.8234 6.85025 12.108 7.04558C12.3926 7.2409 12.7816 7.16853 12.9769 6.88394C13.3308 6.36833 13.6444 6.11043 13.9268 5.98013C14.2049 5.8518 14.5176 5.81716 14.9301 5.86717C15.8279 5.976 16.5341 6.48449 16.6528 7.09963C16.698 7.33329 16.7143 7.61818 16.7078 7.99109L14.9384 7.99109C14.5611 7.99109 14.1243 8.00794 13.689 8.12896C10.9184 8.89914 11.09 12.8335 13.9136 13.3201C14.1928 13.3682 14.4817 13.3896 14.7722 13.3766C15.5187 13.3433 16.1626 12.9871 16.6595 12.6028C16.6775 12.5889 16.6956 12.5747 16.7138 12.5602C16.7955 12.8104 17.0307 12.9911 17.3081 12.9911C17.6532 12.9911 17.9331 12.7113 17.9331 12.3661V8.63389C17.9717 7.95212 17.9777 7.36753 17.8802 6.86262C17.6107 5.46704 16.2158 4.76386 15.0806 4.62625ZM14.9384 9.24109L16.6831 9.24109V10.2828C16.6831 10.8502 16.3599 11.2543 15.8947 11.6141C15.4973 11.9214 15.0992 12.1108 14.7164 12.1279C14.5233 12.1365 14.3245 12.1225 14.1259 12.0883C12.6493 11.8338 12.5065 9.75507 14.0238 9.33329C14.2899 9.2593 14.5875 9.24109 14.9384 9.24109Z" fill="#1B8354"/>
</g>
</g>
</svg>
