<svg xmlns="http://www.w3.org/2000/svg" width="19.537" height="19.537" viewBox="0 0 19.537 19.537">
  <path id="logo-whatsapp" d="M48.69,34.838A9.709,9.709,0,0,0,33.38,46.521L32,51.536l5.157-1.346a9.752,9.752,0,0,0,4.649,1.177h0a9.719,9.719,0,0,0,9.727-9.681,9.6,9.6,0,0,0-2.846-6.848ZM41.809,49.733h0a8.1,8.1,0,0,1-4.115-1.122l-.3-.174-3.06.8.817-2.969-.192-.305a8.092,8.092,0,1,1,6.849,3.772Zm4.435-6.026C46,43.585,44.8,43,44.583,42.919s-.385-.121-.547.121-.628.785-.77.948-.283.181-.526.06a6.649,6.649,0,0,1-1.955-1.2,7.294,7.294,0,0,1-1.352-1.675c-.142-.242-.015-.373.106-.494s.243-.283.365-.424a1.637,1.637,0,0,0,.243-.4.444.444,0,0,0-.02-.423c-.061-.121-.547-1.312-.749-1.8s-.4-.408-.547-.415-.305-.009-.466-.009a.9.9,0,0,0-.648.3,2.711,2.711,0,0,0-.851,2.018,4.707,4.707,0,0,0,.993,2.5,10.806,10.806,0,0,0,4.152,3.653,14.092,14.092,0,0,0,1.386.509,3.346,3.346,0,0,0,1.531.1,2.5,2.5,0,0,0,1.641-1.15,2.019,2.019,0,0,0,.142-1.15C46.649,43.888,46.487,43.827,46.244,43.707Z" transform="translate(-32 -31.999)" fill="#239157" fill-rule="evenodd"/>
</svg>
