<svg width="18" height="16" viewBox="0 0 18 16" fill="none" xmlns="http://www.w3.org/2000/svg">
<g id="elements">
<path id="Icon" fill-rule="evenodd" clip-rule="evenodd" d="M11.4332 0.322175C9.80565 0.281282 8.19403 0.28128 6.56649 0.32217L6.51802 0.323387C5.24733 0.355292 4.22485 0.380964 3.40542 0.523672C2.5475 0.673081 1.85024 0.959646 1.26118 1.55094C0.674599 2.13976 0.389537 2.827 0.24297 3.67101C0.103412 4.47465 0.0821566 5.47217 0.0558263 6.70788L0.054783 6.75683C0.0370772 7.58712 0.0370775 8.41256 0.0547842 9.24285L0.0558275 9.2918C0.0821588 10.5275 0.103415 11.525 0.242973 12.3287C0.389541 13.1727 0.674603 13.8599 1.26119 14.4487C1.85024 15.04 2.54751 15.3266 3.40542 15.476C4.22485 15.6187 5.24731 15.6444 6.51798 15.6763L6.5665 15.6775C8.19403 15.7184 9.80565 15.7184 11.4332 15.6775L11.4817 15.6763C12.7524 15.6444 13.7748 15.6187 14.5943 15.476C15.4522 15.3266 16.1494 15.04 16.7385 14.4487C17.3251 13.8599 17.6101 13.1727 17.7567 12.3287C17.8963 11.525 17.9175 10.5275 17.9439 9.29179L17.9449 9.24285C17.9626 8.41256 17.9626 7.58712 17.9449 6.75684L17.9439 6.7079C17.9175 5.47219 17.8963 4.47466 17.7567 3.67102C17.6101 2.82701 17.3251 2.13977 16.7385 1.55095C16.1494 0.95966 15.4522 0.673094 14.5943 0.523684C13.7748 0.380975 12.7523 0.3553 11.4817 0.323392L11.4332 0.322175ZM6.59789 1.57178C8.20449 1.53141 9.79518 1.53141 11.4018 1.57178C12.7323 1.60521 13.6621 1.63016 14.3798 1.75515C15.0694 1.87525 15.4994 2.07826 15.8529 2.43316C15.9979 2.57866 16.117 2.73529 16.215 2.91508L11.2643 5.72021C10.2182 6.31292 9.58342 6.54151 8.99992 6.54151C8.41642 6.54151 7.78163 6.31292 6.73555 5.72021L1.78468 2.91501C1.88275 2.73524 2.00181 2.57863 2.14674 2.43315C2.5003 2.07825 2.93027 1.87523 3.61988 1.75514C4.33758 1.63015 5.26733 1.6052 6.59789 1.57178ZM1.43402 4.15303C1.34779 4.81287 1.32874 5.64689 1.3045 6.78348C1.28717 7.596 1.28717 8.40367 1.3045 9.2162C1.33214 10.5125 1.35305 11.4152 1.47454 12.1148C1.59086 12.7846 1.79073 13.2092 2.14675 13.5665C2.5003 13.9214 2.93028 14.1244 3.61989 14.2445C4.33758 14.3695 5.26734 14.3945 6.59789 14.4279C8.2045 14.4683 9.79518 14.4683 11.4018 14.4279C12.7323 14.3945 13.6621 14.3695 14.3798 14.2445C15.0694 14.1244 15.4994 13.9214 15.8529 13.5665C16.209 13.2092 16.4088 12.7846 16.5251 12.1148C16.6466 11.4152 16.6675 10.5125 16.6952 9.2162C16.7125 8.40368 16.7125 7.59601 16.6952 6.78349C16.6709 5.64695 16.6519 4.81295 16.5657 4.15312L11.8805 6.80776C10.8028 7.41841 9.927 7.79151 8.99992 7.79151C8.07285 7.79151 7.19707 7.41841 6.11933 6.80776L1.43402 4.15303Z" fill="#1B8354"/>
</g>
</svg>
