<svg xmlns="http://www.w3.org/2000/svg" width="19.5" height="21.5" viewBox="0 0 19.5 21.5">
  <g id="printer" transform="translate(-2.25 -1.25)">
    <path id="Path_129818" data-name="Path 129818" d="M7.25,7h9.5V5c0-2-.75-3-3-3h-3.5c-2.25,0-3,1-3,3Z" fill="none" stroke="#239157" stroke-linecap="round" stroke-linejoin="round" stroke-miterlimit="10" stroke-width="1.5"/>
    <path id="Path_129819" data-name="Path 129819" d="M16,15v4a2.652,2.652,0,0,1-3,3H11a2.652,2.652,0,0,1-3-3V15Z" fill="none" stroke="#239157" stroke-linecap="round" stroke-linejoin="round" stroke-miterlimit="10" stroke-width="1.5"/>
    <path id="Path_129820" data-name="Path 129820" d="M21,10v5a2.652,2.652,0,0,1-3,3H16V15H8v3H6a2.652,2.652,0,0,1-3-3V10A2.652,2.652,0,0,1,6,7H18A2.652,2.652,0,0,1,21,10Z" fill="none" stroke="#239157" stroke-linecap="round" stroke-linejoin="round" stroke-miterlimit="10" stroke-width="1.5"/>
    <path id="Path_129821" data-name="Path 129821" d="M17,15H7" fill="none" stroke="#239157" stroke-linecap="round" stroke-linejoin="round" stroke-miterlimit="10" stroke-width="1.5"/>
    <path id="Path_129822" data-name="Path 129822" d="M7,11h3" fill="none" stroke="#239157" stroke-linecap="round" stroke-linejoin="round" stroke-miterlimit="10" stroke-width="1.5"/>
  </g>
</svg>
