<svg width="18" height="18" viewBox="0 0 18 18" fill="none" xmlns="http://www.w3.org/2000/svg">
<g id="elements">
<g id="Icon">
<path d="M13.9998 8.16675C13.5396 8.16675 13.1665 8.53984 13.1665 9.00008C13.1665 9.46032 13.5396 9.83342 13.9998 9.83342H14.0073C14.4676 9.83342 14.8407 9.46032 14.8407 9.00008C14.8407 8.53984 14.4676 8.16675 14.0073 8.16675H13.9998Z" fill="#1B8354"/>
<path fill-rule="evenodd" clip-rule="evenodd" d="M9.87651 0.0417489H8.12317C7.37445 0.0417254 6.75008 0.0417057 6.25444 0.108344C5.73128 0.178681 5.25894 0.333406 4.87939 0.712964C4.49983 1.09252 4.3451 1.56486 4.27477 2.08802C4.20813 2.58367 4.20815 3.20801 4.20817 3.95674L4.20817 5.04542C3.88415 5.04982 3.59741 5.05949 3.34294 5.08075C2.86184 5.12093 2.44276 5.20563 2.054 5.40554C1.58859 5.64486 1.18904 5.99225 0.892362 6.41899C0.642809 6.77796 0.511311 7.17889 0.420857 7.64144C0.333535 8.08797 0.276005 8.64216 0.205075 9.32543L0.19872 9.38664C0.113539 10.207 0.0448949 10.8681 0.041629 11.4028C0.038267 11.9532 0.101854 12.4401 0.330518 12.8878C0.598921 13.4134 1.01305 13.8527 1.52301 14.1585C1.95388 14.4168 2.43987 14.5243 3.00259 14.5753C3.38849 14.6103 3.8423 14.6207 4.37588 14.6238C4.32547 14.8518 4.28417 15.0537 4.25569 15.2325C4.20616 15.5434 4.1854 15.8389 4.24276 16.1324C4.37445 16.8061 4.7891 17.3974 5.39283 17.717C5.66145 17.8592 5.95057 17.9114 6.24887 17.9353C6.53697 17.9584 6.89269 17.9584 7.31741 17.9584H10.6823C11.107 17.9584 11.4627 17.9584 11.7508 17.9353C12.0491 17.9114 12.3382 17.8592 12.6068 17.717C13.2105 17.3974 13.6252 16.8061 13.7569 16.1324C13.8142 15.8389 13.7935 15.5434 13.7439 15.2325C13.7155 15.0537 13.6742 14.8518 13.6238 14.6238C14.1574 14.6207 14.6112 14.6103 14.9971 14.5753C15.5598 14.5243 16.0458 14.4168 16.4767 14.1585C16.9866 13.8527 17.4008 13.4134 17.6692 12.8878C17.8978 12.4401 17.9614 11.9532 17.958 11.4028C17.9548 10.8681 17.8861 10.207 17.8009 9.38655L17.7946 9.32544C17.7237 8.64216 17.6661 8.08797 17.5788 7.64143C17.4884 7.17889 17.3569 6.77796 17.1073 6.41899C16.8106 5.99225 16.4111 5.64486 15.9457 5.40554C15.5569 5.20563 15.1378 5.12093 14.6567 5.08075C14.4023 5.05949 14.1155 5.04982 13.7915 5.04542L13.7915 3.95676C13.7915 3.20806 13.7916 2.58365 13.7249 2.08802C13.6546 1.56486 13.4998 1.09252 13.1203 0.712965C12.7407 0.333406 12.2684 0.178681 11.7452 0.108344C11.2496 0.0417057 10.6252 0.0417254 9.87651 0.0417489ZM4.91886 12.7704C4.81293 12.9472 4.73797 13.1461 4.67233 13.3748C4.01117 13.3735 3.51473 13.3666 3.11538 13.3304C2.636 13.287 2.36477 13.2057 2.16583 13.0864C1.85251 12.8985 1.60339 12.6319 1.44375 12.3193C1.34494 12.1258 1.28881 11.8682 1.29161 11.4104C1.29445 10.944 1.35608 10.3437 1.4454 9.48336C1.52004 8.76438 1.57235 8.26624 1.64762 7.88134C1.72099 7.50617 1.80691 7.29334 1.91871 7.13251C2.09653 6.87673 2.33873 6.66471 2.62563 6.51718C2.80979 6.42248 3.04641 6.35987 3.447 6.32641C3.85581 6.29226 4.37917 6.29175 5.12813 6.29175H12.8715C13.6205 6.29175 14.1439 6.29226 14.5527 6.32641C14.9533 6.35987 15.1899 6.42248 15.374 6.51718C15.6609 6.66471 15.9031 6.87673 16.081 7.13251C16.1928 7.29334 16.2787 7.50617 16.3521 7.88134C16.4273 8.26624 16.4796 8.76438 16.5543 9.48336C16.6436 10.3437 16.7052 10.944 16.7081 11.4104C16.7109 11.8682 16.6547 12.1258 16.5559 12.3193C16.3963 12.6319 16.1472 12.8985 15.8338 13.0864C15.6349 13.2057 15.3637 13.287 14.8843 13.3304C14.4849 13.3666 13.9885 13.3735 13.3273 13.3748C13.2617 13.1461 13.1867 12.9472 13.0808 12.7704C12.8252 12.3439 12.439 12.0118 11.9753 11.8386C11.6237 11.7073 11.2286 11.7078 10.7512 11.7083H7.24844C6.77107 11.7078 6.37594 11.7073 6.02438 11.8386C5.56066 12.0118 5.17442 12.3439 4.91886 12.7704ZM12.5415 5.04175V4.00008C12.5415 3.19674 12.5402 2.65711 12.4861 2.25458C12.4344 1.87003 12.345 1.70545 12.2364 1.59685C12.1278 1.48825 11.9632 1.3989 11.5787 1.3472C11.1761 1.29308 10.6365 1.29175 9.83317 1.29175H8.16651C7.36316 1.29175 6.82353 1.29308 6.421 1.3472C6.03645 1.3989 5.87187 1.48825 5.76327 1.59685C5.65467 1.70545 5.56532 1.87003 5.51362 2.25458C5.4595 2.65711 5.45817 3.19674 5.45817 4.00008V5.04175H12.5415ZM7.34259 12.9584C6.72038 12.9584 6.57314 12.968 6.46164 13.0096C6.2775 13.0784 6.10899 13.2162 5.99112 13.4129C5.91435 13.541 5.8651 13.7213 5.71623 14.3674C5.60604 14.8456 5.53087 15.1734 5.49013 15.4291C5.44984 15.682 5.4533 15.8095 5.46954 15.8926C5.53411 16.2229 5.73115 16.4817 5.97767 16.6122C6.02789 16.6388 6.12128 16.671 6.34885 16.6893C6.58095 16.7079 6.88612 16.7084 7.34259 16.7084H10.6571C11.1135 16.7084 11.4187 16.7079 11.6508 16.6893C11.8784 16.671 11.9717 16.6388 12.022 16.6122C12.2685 16.4817 12.4655 16.2229 12.5301 15.8926C12.5463 15.8095 12.5498 15.682 12.5095 15.4291C12.4688 15.1734 12.3936 14.8456 12.2834 14.3674C12.1345 13.7213 12.0853 13.541 12.0085 13.4129C11.8907 13.2162 11.7221 13.0784 11.538 13.0096C11.4265 12.968 11.2793 12.9584 10.6571 12.9584H7.34259Z" fill="#1B8354"/>
</g>
</g>
</svg>
