<svg xmlns="http://www.w3.org/2000/svg" width="80" height="80" viewBox="0 0 80 80">
  <g id="saudi-logo" transform="translate(-821 -313)">
    <rect id="Rectangle_16205" data-name="Rectangle 16205" width="80" height="80" rx="8" transform="translate(821 313)" fill="#003462"/>
    <g id="Group_125128" data-name="Group 125128" transform="translate(-372.508 -112)">
      <path id="Path_129837" data-name="Path 129837" d="M295.813,2.033A21.449,21.449,0,0,1,317.4,23.288a21.592,21.592,0,0,1-43.179,0A21.448,21.448,0,0,1,295.813,2.033m0-2.033a23.5,23.5,0,0,0-23.655,23.288,23.657,23.657,0,0,0,47.309,0A23.5,23.5,0,0,0,295.813,0" transform="translate(937.35 442)" fill="#fff"/>
      <path id="Path_129838" data-name="Path 129838" d="M312.488,44.655a6.617,6.617,0,0,0-2.744-.487c-2.21,0-5.6.679-9.836,3.746l-.018.014-.086-.066c-4.239-3.068-7.573-3.693-9.783-3.693a6.617,6.617,0,0,0-2.744.487c-.053.03-.152.087-.127.18.015.058.068.087.155.087a.535.535,0,0,0,.081-.006,6.565,6.565,0,0,1,1.594-.19c2.866,0,6.571,2.134,9.537,4.257-.6.485-1.212,1.01-1.842,1.59-.088-.076-.118-.1-.2-.165a2.658,2.658,0,0,0-.767-.456.823.823,0,0,0-.449-.036.585.585,0,0,0-.442.658.516.516,0,0,0,.452.5.491.491,0,0,0,.442-.244c.113.091.221.18.319.271.046.043.09.089.135.133l-.184.159c-.144.125-.286.247-.428.364a4.118,4.118,0,0,1-.928.612.83.83,0,0,1-.381.09,1.309,1.309,0,0,1-.211-.045l-.051-.014-.021-.009a.525.525,0,0,0-.135-.049.348.348,0,0,0-.064-.006.282.282,0,0,0-.253.146.529.529,0,0,0-.043.373.565.565,0,0,0,.136.234,1.233,1.233,0,0,0,.8.423,1.5,1.5,0,0,0,.172.009,1.639,1.639,0,0,0,.177-.009,2.437,2.437,0,0,0,.756-.221,6.269,6.269,0,0,0,1.27-.8l.375-.3c.122.117.251.235.381.35a1.733,1.733,0,0,0,.585.368.653.653,0,0,0,.209.034.627.627,0,0,0,.082-.005c.033,0,.064-.008.1-.014a.543.543,0,0,0,.407-.461.618.618,0,0,0-.236-.614.449.449,0,0,0-.562.063.46.46,0,0,0-.062.068c-.1-.1-.192-.2-.289-.3.621-.552,1.373-1.121,2.088-1.684.723.562,1.519,1.131,2.14,1.684-.1.1-.191.206-.289.3a.5.5,0,0,0-.061-.068.45.45,0,0,0-.562-.063.619.619,0,0,0-.236.614.543.543,0,0,0,.407.461c.032.006.064.011.1.014a.631.631,0,0,0,.081.005.651.651,0,0,0,.21-.034,1.726,1.726,0,0,0,.585-.368c.13-.115.258-.233.381-.35l.375.3a6.291,6.291,0,0,0,1.27.8,2.443,2.443,0,0,0,.756.221,1.635,1.635,0,0,0,.176.009,1.548,1.548,0,0,0,.174-.009,1.233,1.233,0,0,0,.8-.423.565.565,0,0,0,.136-.234.532.532,0,0,0-.043-.373.283.283,0,0,0-.253-.146.348.348,0,0,0-.064.006.536.536,0,0,0-.135.049l-.02.009-.053.014a1.286,1.286,0,0,1-.21.045.832.832,0,0,1-.381-.09,4.1,4.1,0,0,1-.928-.612c-.143-.118-.284-.239-.428-.364l-.184-.159c.046-.044.089-.089.135-.133.1-.092.206-.18.319-.271a.491.491,0,0,0,.442.244.516.516,0,0,0,.452-.5.586.586,0,0,0-.442-.658.823.823,0,0,0-.449.036,2.67,2.67,0,0,0-.768.456c-.084.07-.114.089-.2.165-.611-.561-1.245-1.112-1.837-1.594,2.966-2.123,6.667-4.254,9.532-4.254a6.57,6.57,0,0,1,1.594.19.515.515,0,0,0,.081.006c.086,0,.138-.03.155-.087.026-.093-.074-.149-.127-.18" transform="translate(933.34 429.681)" fill="#fff"/>
      <path id="Path_129839" data-name="Path 129839" d="M305.794,41.675a9.7,9.7,0,0,0-.61,1.589,6.588,6.588,0,0,1,1.984-.627,4.721,4.721,0,0,0,3.771-4.429c-.091.172-.335.536-2.446.632a4.179,4.179,0,0,0-3.893,1.972,5.065,5.065,0,0,1,.394,1.1c1.185-2.791,4.108-2.409,4.606-2.513-.494.213-2.613.315-3.8,2.274" transform="translate(928.67 431.344)" fill="#fff"/>
      <path id="Path_129840" data-name="Path 129840" d="M302.077,44.945l.52-.253c-.127-5.476-3.13-5.787-4.582-5.852-2.112-.1-2.355-.459-2.447-.632a4.722,4.722,0,0,0,3.771,4.429,3.889,3.889,0,0,1,1.575.513c-.4-3.578-3.4-3.49-4.006-3.75.57.119,4.844-.774,4.645,5.292Z" transform="translate(931.085 431.344)" fill="#fff"/>
      <path id="Path_129841" data-name="Path 129841" d="M302.062,24a1.9,1.9,0,0,0,1.722,1.958A1.861,1.861,0,0,0,305.506,24c.019-1.5-1.722-4.351-1.722-4.351s-1.816,2.784-1.722,4.351m2.47,1.284a1.216,1.216,0,0,1-.76.272,1.43,1.43,0,0,1-1.331-1.514,3.817,3.817,0,0,1,.3-1.141,2.256,2.256,0,0,0-.092.552,1.754,1.754,0,0,0,1.632,1.854,1.38,1.38,0,0,0,.245-.023" transform="translate(929.35 436.521)" fill="#fff"/>
      <path id="Path_129842" data-name="Path 129842" d="M297.949,33.332c0,3.122,4.493,4.118,4.493,4.118v-.969c0-3.239-4.493-4.117-4.493-4.117Z" transform="translate(930.449 432.973)" fill="#fff"/>
      <path id="Path_129843" data-name="Path 129843" d="M304.719,36.481v.968s4.494-1,4.494-4.117v-.969s-4.494.878-4.494,4.118" transform="translate(928.638 432.973)" fill="#fff"/>
      <path id="Path_129844" data-name="Path 129844" d="M299.495,28.532c0,2.538,3.416,3.348,3.416,3.348v-.787c0-2.633-3.416-3.348-3.416-3.348Z" transform="translate(930.036 434.262)" fill="#fff"/>
      <path id="Path_129845" data-name="Path 129845" d="M304.643,31.092v.787s3.416-.81,3.416-3.348v-.787s-3.416.715-3.416,3.348" transform="translate(928.659 434.262)" fill="#fff"/>
      <path id="Path_129846" data-name="Path 129846" d="M288.09,17.508c2.969-2.943,4.874-3.467,7.248-3.833-2.431,1.524-4.7,5.066-3.995,7.559,1.284-2.645,3.525-5.231,5.591-6.173a4.6,4.6,0,0,0-.08,5.353c.26-2.232,1.844-4.378,3.168-5.816,1.324,1.438,2.909,3.583,3.169,5.816a4.593,4.593,0,0,0-.081-5.353c2.065.942,4.307,3.528,5.591,6.173.708-2.493-1.562-6.036-3.994-7.559,2.373.366,4.28.89,7.249,3.833-.98-3.938-4.428-5.3-7.186-5.789,3.034-.257,3.636.048,6.316,1.143-2.909-2.823-4.949-3.333-7.863-3.057a3.878,3.878,0,0,1,1.712-.854,4.364,4.364,0,0,0-3.879.477,2.677,2.677,0,0,0-1.024-1.815V7.6l-.01.006-.01-.006v.012a2.675,2.675,0,0,0-1.023,1.815,4.366,4.366,0,0,0-3.88-.477,3.893,3.893,0,0,1,1.713.854c-2.915-.275-4.955.234-7.864,3.057,2.679-1.095,3.282-1.4,6.315-1.143-2.757.486-6.206,1.851-7.184,5.789" transform="translate(933.086 439.88)" fill="#fff"/>
    </g>
  </g>
</svg>
