<svg width="18" height="18" viewBox="0 0 18 18" fill="none" xmlns="http://www.w3.org/2000/svg">
<g id="elements">
<g id="Icon">
<path d="M2.15812 15.8433C3.43895 17.125 5.2981 17.125 9.00147 17.125L9.00065 17.1242C12.704 17.1242 14.5623 17.1242 15.844 15.8433C17.0573 14.6308 17.1198 12.83 17.1257 9.75081C17.1257 9.40581 16.8465 9.125 16.5015 9.125C16.1565 9.125 15.8757 9.40419 15.8757 9.74919C15.8698 12.7417 15.7814 14.1391 14.9606 14.96C14.0448 15.875 12.3598 15.875 9.00065 15.875C5.64148 15.875 3.95565 15.875 3.04065 14.96C2.12565 14.0441 2.12565 12.3592 2.12565 9.00002C2.12565 5.64101 2.12565 3.95585 3.04146 3.04004C3.8623 2.21921 5.25895 2.13083 8.25228 2.125C8.59811 2.125 8.87647 1.84419 8.87647 1.49919C8.87563 1.15419 8.59647 0.875 8.25147 0.875C5.1723 0.880833 3.37062 0.943324 2.15812 2.15666C0.876465 3.43748 0.876465 5.29664 0.876465 8.99991C0.876465 12.7032 0.876465 14.5617 2.15812 15.8433Z" fill="#1B8354"/>
<path d="M7.54313 11.5C7.54313 11.845 7.82313 12.125 8.16813 12.125C8.51313 12.125 8.79313 11.8459 8.79313 11.5009C8.79313 8.52516 8.79313 7.0317 9.46395 6.10339C9.68728 5.79339 9.95815 5.52422 10.2681 5.30172C11.1498 4.66672 12.5381 4.63752 15.2214 4.64335C14.566 5.2641 13.7662 5.93181 13.6708 6.01145C13.6653 6.01606 13.6621 6.0187 13.6615 6.01925C13.3956 6.23925 13.3589 6.63338 13.5789 6.89921C13.7989 7.16504 14.1932 7.20173 14.459 6.98173L14.462 6.97926C14.5654 6.8933 16.1749 5.55601 16.834 4.77502C17.0123 4.56336 17.1132 4.31334 17.1248 4.05334V4.04423C17.1365 3.7534 17.0332 3.46256 16.8332 3.22506C16.1751 2.44507 14.5661 1.10828 14.462 1.02178L14.459 1.01925C14.1932 0.798412 13.7989 0.835851 13.5789 1.10168C13.3589 1.36752 13.3956 1.76173 13.6615 1.98173C13.674 1.99173 14.5606 2.72668 15.2598 3.39335C12.2873 3.38752 10.7423 3.42001 9.53898 4.28585C9.11981 4.58668 8.75394 4.95172 8.4506 5.37089C7.54313 6.62668 7.54313 8.25608 7.54313 11.5Z" fill="#1B8354"/>
</g>
</g>
</svg>
