<svg xmlns="http://www.w3.org/2000/svg" width="20.115" height="18.511" viewBox="0 0 20.115 18.511">
  <g id="Sound-level" transform="translate(-1.25 -11.241)">
    <g id="Group_125051" data-name="Group 125051" transform="translate(2 12)">
      <path id="Layer-1" d="M3.365,5.16,9.233.211c.476-.4.863-.218.863.4V16.381c0,.618-.386.8-.863.4L3.365,11.891H.673A.674.674,0,0,1,0,11.218V5.833A.673.673,0,0,1,.673,5.16Z" transform="translate(0 0)" fill="none" stroke="#239157" stroke-linecap="round" stroke-linejoin="round" stroke-width="1.5" fill-rule="evenodd"/>
      <path id="Layer-2" d="M65,25.424A5.386,5.386,0,0,0,65.008,15" transform="translate(-50.417 -11.635)" fill="none" stroke="#239157" stroke-linecap="round" stroke-linejoin="round" stroke-width="1.5" fill-rule="evenodd"/>
      <path id="Layer-3" d="M58,32.487h0A2.244,2.244,0,1,0,58,28" transform="translate(-44.988 -21.718)" fill="none" stroke="#239157" stroke-linecap="round" stroke-linejoin="round" stroke-width="1.5" fill-rule="evenodd"/>
    </g>
  </g>
</svg>
