<svg width="18" height="16" viewBox="0 0 18 16" fill="none" xmlns="http://www.w3.org/2000/svg">
<g id="elements">
<g id="Icon">
<path fill-rule="evenodd" clip-rule="evenodd" d="M8.15947 1.31169C8.73187 0.872038 9.41294 0.51501 10.139 0.8221C10.8583 1.12635 11.0895 1.85926 11.1893 2.58024C11.2917 3.31919 11.2917 4.33668 11.2916 5.60174V10.3982C11.2917 11.6633 11.2917 12.6808 11.1893 13.4197C11.0895 14.1407 10.8583 14.8736 10.139 15.1779C9.41294 15.485 8.73187 15.1279 8.15947 14.6883C7.57414 14.2387 6.86874 13.5184 5.99379 12.6249L5.95537 12.5857C5.50581 12.1267 5.20752 11.9048 4.90536 11.7799C4.60168 11.6544 4.23245 11.6011 3.58833 11.6011H3.55582C2.99873 11.6011 2.53286 11.6011 2.1555 11.5619C1.7597 11.5208 1.39224 11.4313 1.06168 11.2058C0.431837 10.776 0.190808 10.1468 0.0994804 9.56849C0.0313803 9.13727 0.0391959 8.66381 0.0454916 8.28242C0.0471673 8.18091 0.0487354 8.08592 0.0487354 7.99998C0.0487354 7.91405 0.0471673 7.81906 0.0454916 7.71754C0.039196 7.33616 0.0313803 6.86269 0.0994805 6.43147C0.190808 5.85317 0.431837 5.22394 1.06168 4.79421C1.39224 4.56868 1.7597 4.47917 2.1555 4.43806C2.53286 4.39886 2.99873 4.39887 3.55583 4.39889L3.58833 4.39889C4.23245 4.39889 4.60168 4.3456 4.90536 4.22006C5.20752 4.09515 5.50581 3.87331 5.95536 3.41428L5.99376 3.37507C6.86872 2.48162 7.57414 1.76129 8.15947 1.31169ZM8.92091 2.30302C8.41449 2.69199 7.7707 3.34715 6.84843 4.28888C6.35804 4.78962 5.91822 5.15394 5.38292 5.37524C4.84913 5.59591 4.28155 5.64889 3.58833 5.64889C2.99028 5.64889 2.58976 5.64968 2.28465 5.68137C1.99065 5.71191 1.85569 5.7657 1.76617 5.82678C1.52401 5.992 1.39495 6.24168 1.33418 6.62646C1.28469 6.93986 1.28956 7.26256 1.29504 7.62547C1.29686 7.74553 1.29874 7.87 1.29874 7.99998C1.29874 8.12996 1.29686 8.25443 1.29504 8.37448C1.28956 8.7374 1.28469 9.0601 1.33418 9.3735C1.39495 9.75829 1.52401 10.008 1.76617 10.1732C1.85569 10.2343 1.99065 10.2881 2.28465 10.3186C2.58976 10.3503 2.99028 10.3511 3.58833 10.3511C4.28155 10.3511 4.84913 10.4041 5.38292 10.6247C5.91822 10.846 6.35804 11.2103 6.84843 11.7111C7.7707 12.6528 8.41449 13.308 8.92091 13.6969C9.4488 14.1024 9.60703 14.0457 9.65207 14.0266C9.70382 14.0047 9.85822 13.9193 9.95115 13.2483C10.0402 12.6056 10.0416 11.6756 10.0416 10.3446V5.65537C10.0416 4.32433 10.0402 3.39438 9.95115 2.75171C9.85822 2.08066 9.70382 1.99525 9.65207 1.97336C9.60703 1.95431 9.4488 1.89755 8.92091 2.30302Z" fill="#1B8354"/>
<path d="M12.7874 5.00312C13.0618 4.79374 13.454 4.84646 13.6634 5.12089C14.2667 5.91161 14.6249 6.9143 14.6249 8C14.6249 9.08571 14.2667 10.0884 13.6634 10.8791C13.454 11.1535 13.0618 11.2063 12.7874 10.9969C12.513 10.7875 12.4603 10.3953 12.6697 10.1209C13.1087 9.54548 13.3749 8.80856 13.3749 8C13.3749 7.19145 13.1087 6.45453 12.6697 5.87912C12.4603 5.6047 12.513 5.2125 12.7874 5.00312Z" fill="#1B8354"/>
<path d="M16.1277 3.41125C15.8946 3.15666 15.4992 3.13924 15.2447 3.37234C14.9901 3.60543 14.9726 4.00078 15.2057 4.25536C16.1528 5.28977 16.7084 6.59222 16.7084 7.99997C16.7084 9.40773 16.1528 10.7102 15.2057 11.7446C14.9726 11.9992 14.9901 12.3945 15.2447 12.6276C15.4992 12.8607 15.8946 12.8433 16.1277 12.5887C17.2653 11.3462 17.9584 9.74932 17.9584 7.99997C17.9584 6.25063 17.2653 4.65372 16.1277 3.41125Z" fill="#1B8354"/>
</g>
</g>
</svg>
