<svg xmlns="http://www.w3.org/2000/svg" width="18.71" height="17.908" viewBox="0 0 18.71 17.908">
  <g id="star-fill" transform="translate(-1537.13 -2570.08)">
    <path id="star" d="M38.251,5.985l-5.109-.745L30.858.61a1.12,1.12,0,0,0-2.007,0l-2.284,4.63-5.109.745a1.12,1.12,0,0,0-.619,1.909l3.7,3.6-.874,5.088a1.118,1.118,0,0,0,1.623,1.179l4.571-2.4,4.571,2.4a1.119,1.119,0,0,0,1.623-1.179L35.174,11.5l3.7-3.6a1.12,1.12,0,0,0-.619-1.909ZM33.373,10.91l.829,4.84-4.347-2.284L25.508,15.75l.829-4.84L22.818,7.482l4.861-.706,2.175-4.406L32.03,6.776l4.861.706L33.373,10.91Z" transform="translate(1516.631 2570.093)" fill="#63be6a"/>
    <path id="bg1" d="M-11725.049,3536.388l3.267,5.017,5,.536-3.567,3.8.365,5.309-5.065-1.964-4.906,2.386.623-5.731-3.221-3.8,5.179-.536Z" transform="translate(13271.152 -964.895)" fill="#63be6a"/>
  </g>
</svg>
