<svg xmlns="http://www.w3.org/2000/svg" width="21.6" height="18" viewBox="0 0 21.6 18">
  <path id="tw" d="M321.6,166.131a8.65,8.65,0,0,1-2.545.715A4.534,4.534,0,0,0,321,164.333a8.738,8.738,0,0,1-2.816,1.1A4.369,4.369,0,0,0,314.954,164a4.489,4.489,0,0,0-4.43,4.544,4.634,4.634,0,0,0,.114,1.035,12.476,12.476,0,0,1-9.135-4.749,4.627,4.627,0,0,0-.6,2.287,4.574,4.574,0,0,0,1.971,3.782,4.352,4.352,0,0,1-2.008-.567v.056a4.518,4.518,0,0,0,3.556,4.455,4.225,4.225,0,0,1-1.168.16,4.321,4.321,0,0,1-.834-.081,4.449,4.449,0,0,0,4.14,3.154,8.75,8.75,0,0,1-5.5,1.946A8.911,8.911,0,0,1,300,179.96a12.34,12.34,0,0,0,6.793,2.04c8.152,0,12.609-6.923,12.609-12.928,0-.2,0-.4-.012-.589a9.092,9.092,0,0,0,2.21-2.352" transform="translate(-300 -164)" fill="#239157" fill-rule="evenodd"/>
</svg>
