<svg xmlns="http://www.w3.org/2000/svg" width="310.653" height="281.859" viewBox="0 0 310.653 281.859">
  <g id="_404" data-name="404" transform="translate(-816.697 -439.343)">
    <path id="Path_130089" data-name="Path 130089" d="M-120.182-748.827C-126.125-812.55-152.529-879.245-231.12-880.9s-79.2,25.239-136.091,63.844-88.851,101.229-34.1,167.625,138.857,54.364,205.847,35.309S-114.239-685.1-120.182-748.827Z" transform="translate(1246.308 1320.311)" fill="#e6eff7"/>
    <g id="Group_56609" data-name="Group 56609" transform="translate(52.311 -459.408)">
      <path id="Path_108627" data-name="Path 108627" d="M-190.806-11.682a1.043,1.043,0,0,1-.885-.3,1.043,1.043,0,0,1-.295-.885V-24.9a3.287,3.287,0,0,1,.236-1.416L-167.678-79.3a1.69,1.69,0,0,1,1.652-.944h14.986q1.18,0,.826,1.18l-24.072,52.746v.354h14.75a.626.626,0,0,0,.531-.177.626.626,0,0,0,.177-.531V-44.014a1.043,1.043,0,0,1,.3-.885,1.043,1.043,0,0,1,.885-.3h13.688a1.043,1.043,0,0,1,.885.3,1.043,1.043,0,0,1,.3.885v17.346a.626.626,0,0,0,.177.531.626.626,0,0,0,.531.177h5.31a1.043,1.043,0,0,1,.885.3,1.043,1.043,0,0,1,.295.885v11.918a1.043,1.043,0,0,1-.295.885,1.043,1.043,0,0,1-.885.3h-5.31a.626.626,0,0,0-.531.177.626.626,0,0,0-.177.531V-1.18a1.043,1.043,0,0,1-.295.885,1.043,1.043,0,0,1-.885.3h-13.688a1.043,1.043,0,0,1-.885-.3,1.043,1.043,0,0,1-.295-.885v-9.794a.626.626,0,0,0-.177-.531.626.626,0,0,0-.531-.177Zm68.2-3.422a18.069,18.069,0,0,1-.766-2.9q-.294-1.593-.529-4.248t-.353-6.9q-.118-4.248-.118-10.974t.118-10.974q.118-4.248.353-6.9t.529-4.248a18.071,18.071,0,0,1,.766-2.891,22.78,22.78,0,0,1,8.536-12.1q6.063-4.307,15.6-4.307t15.6,4.307a22.78,22.78,0,0,1,8.536,12.1,18.07,18.07,0,0,1,.766,2.891q.294,1.593.529,4.248t.353,6.9q.118,4.248.118,10.974t-.118,10.974q-.118,4.248-.353,6.9T-73.57-18a18.069,18.069,0,0,1-.766,2.891,22.78,22.78,0,0,1-8.536,12.1Q-88.935,1.3-98.471,1.3t-15.6-4.307A22.78,22.78,0,0,1-122.606-15.1Zm15.939-2.95q1.783,5.428,8.2,5.428t8.2-5.428a17.061,17.061,0,0,0,.416-1.888,32.88,32.88,0,0,0,.3-3.363q.119-2.3.178-6.254t.059-10.561q0-6.608-.059-10.561t-.178-6.254a32.871,32.871,0,0,0-.3-3.363,17.063,17.063,0,0,0-.416-1.888q-1.783-5.428-8.2-5.428t-8.2,5.428a17.064,17.064,0,0,0-.416,1.888,32.876,32.876,0,0,0-.3,3.363q-.119,2.3-.178,6.254t-.059,10.561q0,6.608.059,10.561t.178,6.254a32.873,32.873,0,0,0,.3,3.363,17.057,17.057,0,0,0,.417,1.888Zm47.076,6.372a1.043,1.043,0,0,1-.885-.3,1.043,1.043,0,0,1-.3-.885V-24.9a3.287,3.287,0,0,1,.236-1.416L-36.462-79.3a1.69,1.69,0,0,1,1.652-.944h14.986q1.18,0,.826,1.18L-43.07-26.314v.354h14.75a.626.626,0,0,0,.531-.177.626.626,0,0,0,.177-.531V-44.014a1.043,1.043,0,0,1,.3-.885,1.043,1.043,0,0,1,.885-.3h13.688a1.043,1.043,0,0,1,.885.3,1.043,1.043,0,0,1,.3.885v17.346a.626.626,0,0,0,.177.531.626.626,0,0,0,.531.177h5.31a1.043,1.043,0,0,1,.885.3,1.043,1.043,0,0,1,.3.885v11.918a1.043,1.043,0,0,1-.3.885,1.043,1.043,0,0,1-.885.3h-5.31a.626.626,0,0,0-.531.177.626.626,0,0,0-.177.531V-1.18a1.043,1.043,0,0,1-.3.885,1.043,1.043,0,0,1-.885.3H-26.432a1.043,1.043,0,0,1-.885-.3,1.043,1.043,0,0,1-.3-.885v-9.794a.626.626,0,0,0-.177-.531.626.626,0,0,0-.531-.177Z" transform="translate(1004.687 1087.602)" fill="#003462"/>
      <path id="Rectangle_16258" data-name="Rectangle 16258" d="M16,0h0a0,0,0,0,1,0,0V54A16,16,0,0,1,0,70H0a0,0,0,0,1,0,0V16A16,16,0,0,1,16,0Z" transform="translate(1024.689 1002.776)" fill="#4789c8"/>
      <circle id="Ellipse_11769" data-name="Ellipse 11769" cx="8" cy="8" r="8" transform="translate(1024.689 1081.776)" fill="#4789c8"/>
    </g>
  </g>
</svg>
