<svg xmlns="http://www.w3.org/2000/svg" xmlns:xlink="http://www.w3.org/1999/xlink" width="166" height="146" viewBox="0 0 166 146">
  <defs>
    <clipPath id="clip-path">
      <rect id="Rectangle_6" data-name="Rectangle 6" width="100" height="100" fill="none"/>
    </clipPath>
  </defs>
  <g id="mewa-default-logo" transform="translate(12828 19062)">
    <rect id="Rectangle_16259" data-name="Rectangle 16259" width="166" height="146" transform="translate(-12828 -19062)" fill="#fff"/>
    <g id="logo-use" transform="translate(-14571.663 -19062)">
      <g id="Logo" transform="translate(1776.663 23)">
        <g id="Group_2" data-name="Group 2">
          <g id="Group_1" data-name="Group 1" clip-path="url(#clip-path)">
            <path id="Path_69" data-name="Path 69" d="M140.164,23.614a3.624,3.624,0,0,0,.951,1.937,3.5,3.5,0,0,0,.546.468,3.5,3.5,0,0,1-.546-.468,3.624,3.624,0,0,1-.951-1.937" transform="translate(-344.51 12.945)" fill="#002850"/>
            <path id="Path_70" data-name="Path 70" d="M322.157,4.366A45.634,45.634,0,1,1,276.524,50,45.634,45.634,0,0,1,322.157,4.366m0-4.366a50,50,0,1,0,50,50,50,50,0,0,0-50-50" transform="translate(-272.157)" fill="#003462"/>
            <path id="Path_71" data-name="Path 71" d="M340.712,45.213a13.8,13.8,0,0,0-5.8-1.045c-4.671,0-11.833,1.458-20.79,8.043l-.039.029-.183-.14c-8.959-6.586-16.008-7.93-20.679-7.93a13.8,13.8,0,0,0-5.8,1.045c-.112.065-.32.186-.268.386.033.124.144.187.327.187a1.116,1.116,0,0,0,.172-.014,13.672,13.672,0,0,1,3.369-.407c6.058,0,13.89,4.581,20.159,9.14-1.268,1.04-2.562,2.169-3.894,3.414-.186-.164-.249-.2-.429-.355a5.6,5.6,0,0,0-1.621-.98,1.714,1.714,0,0,0-.949-.077,1.255,1.255,0,0,0-.934,1.412A1.1,1.1,0,0,0,304.31,59a1.035,1.035,0,0,0,.934-.525c.238.2.468.385.673.582.1.093.19.19.286.285l-.389.341c-.3.268-.6.529-.906.782a8.694,8.694,0,0,1-1.962,1.314,1.732,1.732,0,0,1-.805.194,2.734,2.734,0,0,1-.446-.1l-.108-.031a.364.364,0,0,1-.043-.019,1.1,1.1,0,0,0-.286-.105.725.725,0,0,0-.135-.012.6.6,0,0,0-.534.313,1.151,1.151,0,0,0-.091.8,1.218,1.218,0,0,0,.288.5,2.593,2.593,0,0,0,1.7.909,3.131,3.131,0,0,0,.364.02,3.411,3.411,0,0,0,.373-.02,5.09,5.09,0,0,0,1.6-.475,13.221,13.221,0,0,0,2.685-1.712l.793-.636c.259.251.53.5.8.751a3.655,3.655,0,0,0,1.237.79,1.362,1.362,0,0,0,.443.073,1.3,1.3,0,0,0,.173-.011c.07-.006.136-.017.206-.029a1.159,1.159,0,0,0,.861-.989,1.336,1.336,0,0,0-.5-1.319.937.937,0,0,0-1.187.135.985.985,0,0,0-.13.146c-.207-.207-.406-.426-.61-.65,1.313-1.186,2.9-2.407,4.414-3.615,1.528,1.208,3.211,2.429,4.524,3.615-.2.224-.4.443-.61.65a1.064,1.064,0,0,0-.128-.146.94.94,0,0,0-1.189-.135,1.339,1.339,0,0,0-.5,1.319,1.159,1.159,0,0,0,.861.989c.068.012.136.023.206.029a1.315,1.315,0,0,0,.172.011,1.357,1.357,0,0,0,.444-.073,3.641,3.641,0,0,0,1.237-.79c.274-.246.545-.5.8-.751l.793.636a13.264,13.264,0,0,0,2.684,1.712,5.1,5.1,0,0,0,1.6.475,3.4,3.4,0,0,0,.372.02,3.22,3.22,0,0,0,.367-.02,2.593,2.593,0,0,0,1.7-.909,1.218,1.218,0,0,0,.288-.5,1.159,1.159,0,0,0-.091-.8.6.6,0,0,0-.534-.313.725.725,0,0,0-.135.012,1.121,1.121,0,0,0-.286.105l-.042.019-.111.031a2.682,2.682,0,0,1-.444.1,1.737,1.737,0,0,1-.8-.194,8.662,8.662,0,0,1-1.961-1.314c-.3-.252-.6-.514-.906-.782l-.389-.341c.1-.094.189-.192.286-.285.206-.2.435-.387.673-.582a1.033,1.033,0,0,0,.934.525,1.1,1.1,0,0,0,.955-1.078,1.257,1.257,0,0,0-.934-1.412,1.713,1.713,0,0,0-.949.077,5.625,5.625,0,0,0-1.622.98c-.178.15-.242.19-.427.355-1.291-1.2-2.632-2.387-3.883-3.421,6.268-4.558,14.093-9.133,20.148-9.133a13.683,13.683,0,0,1,3.37.407,1.074,1.074,0,0,0,.17.014c.181,0,.293-.063.327-.187.054-.2-.156-.32-.268-.386" transform="translate(-263.941 24.212)" fill="#003462"/>
            <path id="Path_72" data-name="Path 72" d="M307.124,45.652a21.03,21.03,0,0,0-1.29,3.411c.791-.644,3.174-1.124,4.194-1.345,7.3-1.578,7.752-8.208,7.97-9.509-.192.37-.707,1.152-5.171,1.356-2.336.107-6.216.393-8.228,4.234a10.988,10.988,0,0,1,.833,2.366c2.5-5.993,8.684-5.172,9.735-5.4-1.043.457-5.522.677-8.043,4.883" transform="translate(-254.374 20.945)" fill="#003462"/>
            <path id="Path_73" data-name="Path 73" d="M309.327,52.673l1.1-.543c-.269-11.757-6.615-12.426-9.685-12.565-4.465-.206-4.979-.986-5.172-1.356.218,1.3.675,7.931,7.971,9.509,1.04.224,2.585.438,3.329,1.1-.853-7.682-7.191-7.493-8.469-8.051,1.2.255,10.24-1.661,9.818,11.362Z" transform="translate(-259.324 20.945)" fill="#003462"/>
            <path id="Path_74" data-name="Path 74" d="M302.066,28.986c.135,2.318,1.629,4.2,3.64,4.2s3.612-1.883,3.64-4.2c.04-3.214-3.64-9.342-3.64-9.342s-3.839,5.978-3.64,9.342m5.22,2.756a2.546,2.546,0,0,1-1.605.584,3.054,3.054,0,0,1-2.813-3.25,8.3,8.3,0,0,1,.644-2.449,4.916,4.916,0,0,0-.194,1.184,3.744,3.744,0,0,0,3.449,3.98,2.874,2.874,0,0,0,.519-.05" transform="translate(-255.767 10.768)" fill="#003462"/>
            <path id="Path_75" data-name="Path 75" d="M297.949,34.443c0,6.7,9.5,8.842,9.5,8.842V41.2c0-6.954-9.5-8.84-9.5-8.84Z" transform="translate(-258.019 17.741)" fill="#003462"/>
            <path id="Path_76" data-name="Path 76" d="M304.719,41.2v2.079s9.5-2.14,9.5-8.84V32.363s-9.5,1.886-9.5,8.842" transform="translate(-254.308 17.741)" fill="#003462"/>
            <path id="Path_77" data-name="Path 77" d="M299.495,29.436c0,5.45,7.221,7.188,7.221,7.188V34.933c0-5.654-7.221-7.188-7.221-7.188Z" transform="translate(-257.172 15.209)" fill="#003462"/>
            <path id="Path_78" data-name="Path 78" d="M304.643,34.932v1.691s7.221-1.739,7.221-7.188V27.744s-7.221,1.534-7.221,7.188" transform="translate(-254.35 15.209)" fill="#003462"/>
            <path id="Path_79" data-name="Path 79" d="M288.09,28.871c6.276-6.32,10.3-7.444,15.321-8.23-5.138,3.271-9.938,10.878-8.444,16.23,2.714-5.679,7.451-11.23,11.817-13.252a9.992,9.992,0,0,0-.169,11.494c.55-4.793,3.9-9.4,6.7-12.486,2.8,3.087,6.148,7.693,6.7,12.486a9.987,9.987,0,0,0-.17-11.494c4.366,2.022,9.1,7.574,11.817,13.252,1.5-5.352-3.3-12.958-8.442-16.23,5.016.786,9.046,1.91,15.322,8.23-2.071-8.455-9.36-11.385-15.189-12.429,6.414-.551,7.685.1,13.35,2.454-6.149-6.061-10.461-7.156-16.621-6.564A8.151,8.151,0,0,1,323.7,10.5c-2.585-1.019-6.626-.485-8.2,1.025,0,0-.31-2.776-2.164-3.9V7.6l-.02.012L313.3,7.6v.025c-1.855,1.121-2.163,3.9-2.163,3.9-1.575-1.509-5.615-2.044-8.2-1.025a8.182,8.182,0,0,1,3.621,1.835c-6.162-.591-10.473.5-16.623,6.564,5.663-2.35,6.937-3.005,13.348-2.454-5.827,1.043-13.118,3.974-15.186,12.429" transform="translate(-263.423 4.167)" fill="#003462"/>
          </g>
        </g>
      </g>
    </g>
  </g>
</svg>
