<svg id="Nama2" xmlns="http://www.w3.org/2000/svg" width="159.616" height="93.82" viewBox="0 0 159.616 93.82">
  <g id="Group" transform="translate(-1044.454 25.82)">
    <g id="Group_57065" data-name="Group 57065">
      <g id="Group_57046" data-name="Group 57046" transform="translate(-14 -10)">
        <rect id="Rectangle_14178" data-name="Rectangle 14178" width="159.616" height="93.82" rx="8" transform="translate(1058.454 -15.82)" fill="#fff"/>
        <g id="Group_57041" data-name="Group 57041" transform="translate(12.072 -3)">
          <g id="Group_125024" data-name="Group 125024" transform="translate(8.385)">
            <g id="Layer_2" data-name="Layer 2" transform="translate(1063.005 3.221)">
              <g id="Layer_1" data-name="Layer 1" transform="translate(-0.008)">
                <g id="Group_57042" data-name="Group 57042" transform="translate(0 3.576)">
                  <g id="Group_57043" data-name="Group 57043" transform="translate(6.617 31.684)">
                    <path id="Path_125086" data-name="Path 125086" d="M17.674,93.947H16.29v-7.1h1.559l2.846,4.977V86.85h1.38v7.1H20.6l-2.927-5.115Z" transform="translate(-16.29 -86.85)" fill="#a7adae"/>
                    <path id="Path_125087" data-name="Path 125087" d="M48.669,88.425l-.946,2.842h1.892ZM45.32,93.947l2.513-7.1H49.55l2.509,7.1H50.492L50.013,92.5h-2.7l-.471,1.445Z" transform="translate(-33.534 -86.85)" fill="#a7adae"/>
                    <path id="Path_125088" data-name="Path 125088" d="M106.718,93.947H105.33v-7.1h2.176l1.291,5.631,1.275-5.631h2.14v7.1h-1.38V87.979L109.5,93.947h-1.453l-1.328-6.1Z" transform="translate(-69.18 -86.85)" fill="#a7adae"/>
                    <path id="Path_125089" data-name="Path 125089" d="M77.353,88.425l-.942,2.842H78.3ZM74,93.947l2.517-7.1h1.717l2.509,7.1H79.18L78.7,92.5H76l-.471,1.445Z" transform="translate(-50.57 -86.85)" fill="#a7adae"/>
                    <path id="Path_125090" data-name="Path 125090" d="M142.019,88.425l-.946,2.842h1.892Zm-3.349,5.521,2.513-7.1H142.9l2.509,7.1h-1.567l-.479-1.445h-2.7l-.471,1.445Z" transform="translate(-88.985 -86.85)" fill="#a7adae"/>
                  </g>
                  <path id="Path_125091" data-name="Path 125091" d="M146.121,20.782H148.7a.739.739,0,0,0,.544-.215.7.7,0,0,0,.215-.516V17.473a.735.735,0,0,0-.215-.548.7.7,0,0,0-.512-.215h-2.615a.812.812,0,0,0-.56.215.719.719,0,0,0-.231.548v2.578a.7.7,0,0,0,.215.516.779.779,0,0,0,.576.215" transform="translate(-86.324 -13.502)" fill="#193661"/>
                  <path id="Path_125092" data-name="Path 125092" d="M63.215,22.158c0-.54-.028-1.161-.049-1.868a.812.812,0,0,0-.2-.447.69.69,0,0,0-.532-.183H59.675a.654.654,0,0,0-.483.183.6.6,0,0,0-.179.447c.041,1.587.065,3.065.065,4.433v3.938c0,.532-.089.844-.264.942a2.436,2.436,0,0,1-1.06.15H48.011a3.816,3.816,0,0,1-.532-.049,2.927,2.927,0,0,1-.629-.166,2.2,2.2,0,0,1-.544-.313.877.877,0,0,1-.317-.532,3.4,3.4,0,0,0,.069-.678V25.385a7.251,7.251,0,0,0-1.953-5.509,7.348,7.348,0,0,0-5.327-1.835,7.676,7.676,0,0,0-5.428,1.868,7.176,7.176,0,0,0-2.03,5.509V28.2a2.635,2.635,0,0,1-.1.812.812.812,0,0,1-.264.43,1.173,1.173,0,0,1-.479.231,3.415,3.415,0,0,1-.6.081H6.15a2.732,2.732,0,0,1-1.388-.28c-.309-.187-.463-.658-.463-1.409V9.471A.715.715,0,0,0,4.132,9a.617.617,0,0,0-.483-.195H.69A.678.678,0,0,0,.194,9a.637.637,0,0,0-.2.467V29.323A6.865,6.865,0,0,0,.34,31.69a3.276,3.276,0,0,0,.995,1.421,3.548,3.548,0,0,0,1.555.7,10.417,10.417,0,0,0,2.03.179H29.226a10.064,10.064,0,0,0,2.152-.231,3.386,3.386,0,0,0,1.721-.893,4.665,4.665,0,0,0,2.363,1.425,11.485,11.485,0,0,0,3.248.463,9.248,9.248,0,0,0,3.029-.463,5.132,5.132,0,0,0,2.2-1.425,5.745,5.745,0,0,0,1.953.861,9.248,9.248,0,0,0,2.217.264H58.465c.528,0,1.043-.032,1.539-.065s.95-.073,1.356-.114a6.76,6.76,0,0,0,.978-.166,1.137,1.137,0,0,0,.544-.406,1.576,1.576,0,0,0,.215-.564c.069-.593.106-1.372.118-2.33s0-2.148,0-3.56V22.158m-21.326,5A4.311,4.311,0,0,1,41.126,30a3.032,3.032,0,0,1-2.436.877,3.727,3.727,0,0,1-2.03-.512,2.578,2.578,0,0,1-1.06-1.705,10.721,10.721,0,0,1-.1-1.5V25.734a4.554,4.554,0,0,1,.759-2.931,3,3,0,0,1,2.436-.909,3,3,0,0,1,2.436.909,4.6,4.6,0,0,1,.747,2.931Z" transform="translate(0.008 -8.808)" fill="#193661"/>
                </g>
                <path id="Path_125093" data-name="Path 125093" d="M194.238,33.483V20.41l-6.2,4.551a8.464,8.464,0,0,0-3.455,6.821V54.541l6.2-4.551a8.453,8.453,0,0,0,3.455-6.821V37.575l-4.06-.032Z" transform="translate(-109.64 -12.124)" fill="#0a8944"/>
                <path id="Path_125094" data-name="Path 125094" d="M250.035,35.621a8.461,8.461,0,0,0-3.455,6.821V43.66l3.93,3.926h-3.93v13.3l6.2-4.551a8.453,8.453,0,0,0,3.455-6.821V31.07Z" transform="translate(-146.469 -18.456)" fill="#4789c8"/>
                <path id="Path_125095" data-name="Path 125095" d="M224.958,25.147V0l-6.2,4.551a8.457,8.457,0,0,0-3.459,6.816v9.987l4.06,4.06H215.3V47.5l6.2-4.551a8.453,8.453,0,0,0,3.455-6.821V29.117h-3.97Z" transform="translate(-127.889)" fill="#63be6c"/>
              </g>
            </g>
            <path id="Path_126454" data-name="Path 126454" d="M-22.1-7.128a.679.679,0,0,1,.2-.51.711.711,0,0,1,.516-.2.67.67,0,0,1,.5.2.7.7,0,0,1,.192.51.723.723,0,0,1-.192.516.66.66,0,0,1-.5.2.7.7,0,0,1-.516-.2A.7.7,0,0,1-22.1-7.128Zm1.812,0a.679.679,0,0,1,.2-.51.711.711,0,0,1,.516-.2.67.67,0,0,1,.5.2.7.7,0,0,1,.192.51.723.723,0,0,1-.192.516.66.66,0,0,1-.5.2.7.7,0,0,1-.516-.2A.7.7,0,0,1-20.292-7.128ZM-21.96-2.76a1.319,1.319,0,0,0,.132.636,1.091,1.091,0,0,0,.33.378,1.153,1.153,0,0,0,.438.186,2.275,2.275,0,0,0,.444.048,2.916,2.916,0,0,0,.672-.06,2.758,2.758,0,0,0,.516-.192V-4.176h-1.008a2.6,2.6,0,0,0-.594.066,1.214,1.214,0,0,0-.486.228,1.12,1.12,0,0,0-.324.432A1.708,1.708,0,0,0-21.96-2.76Zm4.9,2.76A4.99,4.99,0,0,1-18.33-.144a1.266,1.266,0,0,1-.81-.6,3.508,3.508,0,0,1-.642.228,3.708,3.708,0,0,1-.954.108,3.724,3.724,0,0,1-.918-.114,2.2,2.2,0,0,1-.8-.384,2.023,2.023,0,0,1-.576-.708A2.387,2.387,0,0,1-23.256-2.7a2.8,2.8,0,0,1,.2-1.086,2.153,2.153,0,0,1,.576-.8,2.485,2.485,0,0,1,.876-.492,3.576,3.576,0,0,1,1.11-.162h2.388v3.252a.887.887,0,0,0,.246.738,1.418,1.418,0,0,0,.834.186h.1a.309.309,0,0,1,.258.114.723.723,0,0,1,.09.426,1.87,1.87,0,0,1-.03.432.122.122,0,0,1-.126.1Zm1.356,1.644a.679.679,0,0,1,.2-.51.711.711,0,0,1,.516-.2.67.67,0,0,1,.5.2.7.7,0,0,1,.192.51.723.723,0,0,1-.192.516.66.66,0,0,1-.5.2.7.7,0,0,1-.516-.2A.7.7,0,0,1-15.708,1.644Zm-1.224-2.712a1.5,1.5,0,0,0,1.05-.294,1.314,1.314,0,0,0,.306-.978v-2.9h1.308v3.132a2.037,2.037,0,0,1-.576,1.6A2.836,2.836,0,0,1-16.752,0a.726.726,0,0,1-.42-.108.464.464,0,0,1-.156-.408.913.913,0,0,1,.078-.378A.312.312,0,0,1-16.932-1.068ZM-11.2-8.82V0H-12.5V-8.82ZM-7.26,1.068a2.1,2.1,0,0,0,1.1-.234A.95.95,0,0,0-5.76,0h-.984a4.28,4.28,0,0,1-1.32-.18,2.339,2.339,0,0,1-.9-.51,2.04,2.04,0,0,1-.516-.786,2.9,2.9,0,0,1-.168-1.008,3.328,3.328,0,0,1,.18-1.1,2.6,2.6,0,0,1,.528-.9A2.539,2.539,0,0,1-8.082-5.1a2.809,2.809,0,0,1,1.158-.228,2.9,2.9,0,0,1,1.008.168,2.272,2.272,0,0,1,.786.48,2.145,2.145,0,0,1,.516.78,2.839,2.839,0,0,1,.186,1.056v1.776h.9a.309.309,0,0,1,.258.114.751.751,0,0,1,.09.438A1.3,1.3,0,0,1-3.222-.1q-.042.1-.114.1H-4.452Q-4.7,2.1-7.212,2.1a6,6,0,0,1-.774-.054,7.258,7.258,0,0,1-.762-.138l.192-1.02q.276.06.612.12A3.883,3.883,0,0,0-7.26,1.068Zm-1.032-3.66a1.881,1.881,0,0,0,.126.738,1.161,1.161,0,0,0,.348.468,1.341,1.341,0,0,0,.534.246,3.1,3.1,0,0,0,.7.072h.84V-2.6a2.954,2.954,0,0,0-.066-.636,1.5,1.5,0,0,0-.21-.516A1.038,1.038,0,0,0-6.4-4.1a1.188,1.188,0,0,0-.57-.126,1.494,1.494,0,0,0-.438.072,1.1,1.1,0,0,0-.432.258,1.379,1.379,0,0,0-.324.5A2.172,2.172,0,0,0-8.292-2.592ZM-2.3,1.644a.679.679,0,0,1,.2-.51.711.711,0,0,1,.516-.2.67.67,0,0,1,.5.2.7.7,0,0,1,.192.51.723.723,0,0,1-.192.516.66.66,0,0,1-.5.2.7.7,0,0,1-.516-.2A.7.7,0,0,1-2.3,1.644ZM-3.528-1.068a1.5,1.5,0,0,0,1.05-.294,1.314,1.314,0,0,0,.306-.978v-2.9H-.864v3.132a2.037,2.037,0,0,1-.576,1.6A2.836,2.836,0,0,1-3.348,0a.726.726,0,0,1-.42-.108.464.464,0,0,1-.156-.408.913.913,0,0,1,.078-.378A.312.312,0,0,1-3.528-1.068Z" transform="translate(1126.206 4)" fill="#989e9f"/>
          </g>
          <g id="Group_125025" data-name="Group 125025">
            <rect id="Rectangle_14288" data-name="Rectangle 14288" width="147.616" height="16" rx="6" transform="translate(1052.382 53)" fill="#63be6a"/>
            <path id="Path_126453" data-name="Path 126453" d="M2.817,9.466A.623.623,0,0,1,3,9a.651.651,0,0,1,.473-.182A.614.614,0,0,1,3.939,9a.644.644,0,0,1,.176.467.663.663,0,0,1-.176.473.605.605,0,0,1-.462.187.64.64,0,0,1-.66-.66Zm1.661,0A.623.623,0,0,1,4.665,9a.651.651,0,0,1,.473-.182A.614.614,0,0,1,5.6,9a.644.644,0,0,1,.176.467.663.663,0,0,1-.176.473.605.605,0,0,1-.462.187.64.64,0,0,1-.66-.66Zm-1.529,4a1.209,1.209,0,0,0,.121.583,1,1,0,0,0,.3.347,1.057,1.057,0,0,0,.4.17,2.085,2.085,0,0,0,.407.044,2.673,2.673,0,0,0,.616-.055,2.529,2.529,0,0,0,.473-.176V12.172H4.346a2.383,2.383,0,0,0-.545.061,1.113,1.113,0,0,0-.446.209,1.027,1.027,0,0,0-.3.4A1.566,1.566,0,0,0,2.949,13.47ZM7.437,16a4.574,4.574,0,0,1-1.16-.132,1.16,1.16,0,0,1-.743-.55,3.216,3.216,0,0,1-.589.209,3.4,3.4,0,0,1-.874.1,3.413,3.413,0,0,1-.842-.1,2.018,2.018,0,0,1-.737-.352,1.855,1.855,0,0,1-.528-.649,2.188,2.188,0,0,1-.2-1,2.564,2.564,0,0,1,.182-1,1.974,1.974,0,0,1,.528-.737,2.277,2.277,0,0,1,.8-.451,3.278,3.278,0,0,1,1.017-.148H6.48v2.981a.813.813,0,0,0,.226.677,1.3,1.3,0,0,0,.765.17h.088a.284.284,0,0,1,.237.1.662.662,0,0,1,.082.391,1.714,1.714,0,0,1-.028.4A.112.112,0,0,1,7.734,16Zm.682,1.54a.623.623,0,0,1,.187-.468.651.651,0,0,1,.473-.181.614.614,0,0,1,.462.181.644.644,0,0,1,.176.468.663.663,0,0,1-.176.473.605.605,0,0,1-.462.187.64.64,0,0,1-.66-.66Zm1.661,0a.623.623,0,0,1,.187-.468.651.651,0,0,1,.473-.181.614.614,0,0,1,.462.181.644.644,0,0,1,.176.468.663.663,0,0,1-.176.473.605.605,0,0,1-.462.187.64.64,0,0,1-.66-.66ZM7.558,15.021a2.521,2.521,0,0,0,.786-.1.939.939,0,0,0,.446-.292,1.033,1.033,0,0,0,.2-.479,3.906,3.906,0,0,0,.049-.66v-2.3h1.2v2.772a.979.979,0,0,0,.319.775,1.322,1.322,0,0,0,.9.281.281.281,0,0,1,.242.1.7.7,0,0,1,.077.391,1.449,1.449,0,0,1-.033.385q-.033.1-.11.1a3.22,3.22,0,0,1-.484-.038,2.246,2.246,0,0,1-.49-.132,1.985,1.985,0,0,1-.434-.236,1.259,1.259,0,0,1-.33-.352,1.558,1.558,0,0,1-.809.577A4.329,4.329,0,0,1,7.723,16a.61.61,0,0,1-.385-.1.461.461,0,0,1-.132-.38.694.694,0,0,1,.083-.352A.287.287,0,0,1,7.558,15.021Zm5.17-5.555A.623.623,0,0,1,12.915,9a.651.651,0,0,1,.473-.182A.614.614,0,0,1,13.85,9a.644.644,0,0,1,.176.467.663.663,0,0,1-.176.473.605.605,0,0,1-.462.187.64.64,0,0,1-.66-.66Zm-1.221,5.555a1.373,1.373,0,0,0,.963-.269,1.2,1.2,0,0,0,.28-.9V11.193h1.2v2.871a1.868,1.868,0,0,1-.528,1.463A2.6,2.6,0,0,1,11.672,16a.666.666,0,0,1-.385-.1.425.425,0,0,1-.143-.374.837.837,0,0,1,.071-.347A.286.286,0,0,1,11.507,15.021ZM17.6,16.979a1.664,1.664,0,0,0,1.017-.27,1.038,1.038,0,0,0,.358-.885,3.052,3.052,0,0,1-.457.126,3.321,3.321,0,0,1-.632.05,2.584,2.584,0,0,1-1.815-.6,2.155,2.155,0,0,1-.66-1.672,3.051,3.051,0,0,1,.165-1.012,2.338,2.338,0,0,1,.49-.825,2.4,2.4,0,0,1,.786-.561,2.537,2.537,0,0,1,1.056-.209,2.668,2.668,0,0,1,.919.154,2.073,2.073,0,0,1,.726.44,1.967,1.967,0,0,1,.473.715,2.6,2.6,0,0,1,.17.968v2.156a2.346,2.346,0,0,1-.627,1.777,2.7,2.7,0,0,1-1.925.6,5.5,5.5,0,0,1-.709-.049,6.653,6.653,0,0,1-.7-.126l.176-.935q.253.055.561.11A3.56,3.56,0,0,0,17.6,16.979Zm-.946-3.355a1.663,1.663,0,0,0,.121.671,1.156,1.156,0,0,0,.313.434,1.142,1.142,0,0,0,.44.226,1.977,1.977,0,0,0,.511.066,2.164,2.164,0,0,0,.561-.061,3.656,3.656,0,0,0,.385-.127V13.613a2.969,2.969,0,0,0-.055-.583,1.3,1.3,0,0,0-.187-.473.951.951,0,0,0-.347-.313,1.115,1.115,0,0,0-.533-.115,1.286,1.286,0,0,0-.385.066,1.085,1.085,0,0,0-.391.226,1.253,1.253,0,0,0-.308.451A1.91,1.91,0,0,0,16.655,13.624Zm4.928,4.3a4,4,0,0,1-.473-.027,2.514,2.514,0,0,1-.385-.072l.154-.968a2.549,2.549,0,0,0,.5.055.786.786,0,0,0,.688-.286,1.6,1.6,0,0,0,.2-.913V11.193h1.2v3.828h.99a.281.281,0,0,1,.242.1.728.728,0,0,1,.077.4,1.192,1.192,0,0,1-.038.379Q24.7,16,24.63,16H23.464a2.785,2.785,0,0,1-.17.9,1.6,1.6,0,0,1-.4.611,1.432,1.432,0,0,1-.583.325A2.657,2.657,0,0,1,21.583,17.925Zm3.454-8.459A.623.623,0,0,1,25.224,9a.651.651,0,0,1,.473-.182A.614.614,0,0,1,26.159,9a.644.644,0,0,1,.176.467.663.663,0,0,1-.176.473.605.605,0,0,1-.462.187.64.64,0,0,1-.66-.66Zm1.661,0A.623.623,0,0,1,26.885,9a.651.651,0,0,1,.473-.182A.614.614,0,0,1,27.82,9,.644.644,0,0,1,28,9.466a.663.663,0,0,1-.176.473.605.605,0,0,1-.462.187.64.64,0,0,1-.66-.66Zm-2.244,5.555a2.521,2.521,0,0,0,.787-.1.939.939,0,0,0,.445-.292,1.033,1.033,0,0,0,.2-.479,3.906,3.906,0,0,0,.05-.66v-2.3h1.2v2.772a.979.979,0,0,0,.319.775,1.322,1.322,0,0,0,.9.281.281.281,0,0,1,.242.1.7.7,0,0,1,.077.391,1.449,1.449,0,0,1-.033.385q-.033.1-.11.1a3.22,3.22,0,0,1-.484-.038,2.246,2.246,0,0,1-.49-.132,1.985,1.985,0,0,1-.434-.236,1.259,1.259,0,0,1-.33-.352,1.558,1.558,0,0,1-.809.577A4.329,4.329,0,0,1,24.619,16a.61.61,0,0,1-.385-.1.461.461,0,0,1-.132-.38.7.7,0,0,1,.082-.352A.287.287,0,0,1,24.454,15.021Zm4.07.979a.644.644,0,0,1-.374-.1.425.425,0,0,1-.143-.374q0-.506.352-.506h3.234a1.213,1.213,0,0,0,.9-.269,1.29,1.29,0,0,0,.258-.908V13.58a1.353,1.353,0,0,0-.38-1.05,1.828,1.828,0,0,0-1.248-.346H28.9v-1l3.047-3.245.814.737-2.376,2.519H31.45a3.614,3.614,0,0,1,1.139.16,2.071,2.071,0,0,1,.781.446,1.744,1.744,0,0,1,.445.676,2.5,2.5,0,0,1,.143.863q0,.286-.005.523t-.006.28a.886.886,0,0,0,.341.66,1.116,1.116,0,0,0,.682.22.284.284,0,0,1,.236.1.662.662,0,0,1,.083.391.988.988,0,0,1-.049.385q-.05.1-.126.1a1.985,1.985,0,0,1-.814-.176,1.45,1.45,0,0,1-.627-.517,1.254,1.254,0,0,1-.621.523,2.808,2.808,0,0,1-1.062.17Zm6.446-.979a1.351,1.351,0,0,0,.968-.275,1.223,1.223,0,0,0,.275-.891V7.915h1.2v6.149a1.841,1.841,0,0,1-.55,1.474A2.574,2.574,0,0,1,35.135,16a.666.666,0,0,1-.385-.1.425.425,0,0,1-.143-.374.837.837,0,0,1,.071-.347A.286.286,0,0,1,34.97,15.021Zm5.148,3.432a1.391,1.391,0,0,1-.176-.594,1.1,1.1,0,0,1,.313-.8,1.2,1.2,0,0,1,.9-.319,2.593,2.593,0,0,1,.319.022,1.355,1.355,0,0,1,.319.077l-.132.539a.973.973,0,0,0-.237-.06,1.913,1.913,0,0,0-.247-.017.675.675,0,0,0-.451.149.5.5,0,0,0-.176.4.629.629,0,0,0,.154.429.706.706,0,0,0,.55.176h.627v.561H39.667v-.561Zm1.947-3.432a1.25,1.25,0,0,0,.963-.3,1.551,1.551,0,0,0,.258-1.051V7.926h1.2v6.149A1.943,1.943,0,0,1,44,15.538a2.173,2.173,0,0,1-1.54.462H38.644v-.979ZM40.239,9.147h1.2V14.5h-1.2Zm7.095-1.232V16h-1.2V7.915ZM53.9,16a4,4,0,0,1-.985-.116,2.246,2.246,0,0,1-.792-.363,1.728,1.728,0,0,1-.528-.638,2.109,2.109,0,0,1-.193-.941,4.635,4.635,0,0,1,.088-.836,4.422,4.422,0,0,1,.286-.935l1.056.319a5.132,5.132,0,0,0-.192.748,3.4,3.4,0,0,0-.049.528,1.12,1.12,0,0,0,.429.951,1.938,1.938,0,0,0,1.155.3h3.63a2.163,2.163,0,0,0,.583-.066.8.8,0,0,0,.374-.22.849.849,0,0,0,.2-.407,3.014,3.014,0,0,0,.055-.627V11.193h1.2v2.915a1.938,1.938,0,0,1-.467,1.425,2.058,2.058,0,0,1-1.5.467Zm.4-5.885a.623.623,0,0,1,.187-.468.651.651,0,0,1,.473-.181.614.614,0,0,1,.462.181.644.644,0,0,1,.176.468.663.663,0,0,1-.176.473.605.605,0,0,1-.462.187.64.64,0,0,1-.66-.66Zm1.661,0a.623.623,0,0,1,.187-.468.651.651,0,0,1,.473-.181.614.614,0,0,1,.462.181.644.644,0,0,1,.176.468.663.663,0,0,1-.176.473.605.605,0,0,1-.462.187.64.64,0,0,1-.66-.66Zm8.382,5.412q0,.473-.11.473a5.8,5.8,0,0,1-.941-.071,2.294,2.294,0,0,1-.764-.259A1.375,1.375,0,0,1,62,15.148a1.647,1.647,0,0,1-.193-.831v-6.4h1.2v6.094a1.27,1.27,0,0,0,.088.495.744.744,0,0,0,.236.319.905.905,0,0,0,.336.154,1.675,1.675,0,0,0,.385.044.225.225,0,0,1,.231.127A1,1,0,0,1,64.34,15.527ZM64.219,16a.61.61,0,0,1-.385-.1.461.461,0,0,1-.132-.38.735.735,0,0,1,.077-.352.285.285,0,0,1,.275-.143h.286a.685.685,0,0,0,.572-.269,1.436,1.436,0,0,0,.231-.71,3.873,3.873,0,0,1,.721-2.134,2.152,2.152,0,0,1,1.743-.792,2.7,2.7,0,0,1,1.089.2,2.013,2.013,0,0,1,.737.534,2.179,2.179,0,0,1,.424.781,3.134,3.134,0,0,1,.138.929,2.982,2.982,0,0,1-.182,1.084,2.169,2.169,0,0,1-.5.775,2.111,2.111,0,0,1-.726.467,2.434,2.434,0,0,1-.885.16,2.749,2.749,0,0,1-.885-.143,3.018,3.018,0,0,1-.919-.55,1.158,1.158,0,0,1-.534.506,1.713,1.713,0,0,1-.7.143Zm3.41-3.861a1.128,1.128,0,0,0-.973.611,3.654,3.654,0,0,0-.412,1.611,3.328,3.328,0,0,0,.66.49,1.573,1.573,0,0,0,.77.181,1.012,1.012,0,0,0,.522-.126,1.03,1.03,0,0,0,.346-.33,1.458,1.458,0,0,0,.193-.451,2.1,2.1,0,0,0,.06-.5,1.666,1.666,0,0,0-.319-1.122A1.072,1.072,0,0,0,67.629,12.139Zm5.489,2.882a1.218,1.218,0,0,0,.913-.286,1.335,1.335,0,0,0,.242-.891V13.58A1.88,1.88,0,0,0,74.19,13a1.024,1.024,0,0,0-.275-.434,1.289,1.289,0,0,0-.517-.281,2.812,2.812,0,0,0-.809-.1h-.913v-.99H72.9a3.761,3.761,0,0,1,1.16.16,2.17,2.17,0,0,1,.8.446,1.744,1.744,0,0,1,.462.676,2.412,2.412,0,0,1,.148.863v.682a.952.952,0,0,0,.291.726,1.054,1.054,0,0,0,.754.275.252.252,0,0,1,.231.1.8.8,0,0,1,.066.391,1.25,1.25,0,0,1-.039.385q-.038.1-.093.1a2.225,2.225,0,0,1-.847-.17,1.312,1.312,0,0,1-.638-.523,1.328,1.328,0,0,1-.638.528A2.812,2.812,0,0,1,73.514,16h-2.53v-.979Zm4.851-5.555A.623.623,0,0,1,78.156,9a.651.651,0,0,1,.473-.182A.614.614,0,0,1,79.091,9a.644.644,0,0,1,.176.467.663.663,0,0,1-.176.473.605.605,0,0,1-.462.187.64.64,0,0,1-.66-.66Zm.836,5.555a2.6,2.6,0,0,0,.726-.083.9.9,0,0,0,.429-.258.951.951,0,0,0,.209-.446,3.263,3.263,0,0,0,.055-.644,1.358,1.358,0,0,0-.435-1.089,2.153,2.153,0,0,0-1.413-.374q-.33.011-.583.044a3.407,3.407,0,0,0-.616.154l-.253-.9a4.34,4.34,0,0,1,.93-.247,5.406,5.406,0,0,1,.72-.061,4.288,4.288,0,0,1,1.293.176,2.334,2.334,0,0,1,.908.506,2.029,2.029,0,0,1,.522.8,3.016,3.016,0,0,1,.17,1.04,3.965,3.965,0,0,1-.066.77.888.888,0,0,0,.418.457,1.227,1.227,0,0,0,.583.16.24.24,0,0,1,.22.1.8.8,0,0,1,.066.391,1.431,1.431,0,0,1-.033.4q-.033.083-.077.083a2.482,2.482,0,0,1-.385-.033,2.085,2.085,0,0,1-.424-.116,1.826,1.826,0,0,1-.407-.22,1.374,1.374,0,0,1-.335-.347,1.565,1.565,0,0,1-.731.545,3.207,3.207,0,0,1-1.117.17h-2.5a.644.644,0,0,1-.374-.1.425.425,0,0,1-.143-.374.768.768,0,0,1,.077-.358.282.282,0,0,1,.275-.149Zm3.6,0a1.351,1.351,0,0,0,.968-.275,1.223,1.223,0,0,0,.275-.891V7.915h1.2v6.149a1.841,1.841,0,0,1-.55,1.474A2.574,2.574,0,0,1,82.567,16a.666.666,0,0,1-.385-.1.425.425,0,0,1-.143-.374.837.837,0,0,1,.072-.347A.286.286,0,0,1,82.4,15.021Zm5.313-7.106V16h-1.2V7.915Zm10.538,8.811a.562.562,0,0,0-.236-.429,2.973,2.973,0,0,0-.885-.418L95.8,15.45l.264-.979,1.43.429a1.511,1.511,0,0,0,.236.055q.138.022.286.038t.291.022q.143.006.253.005h1.254a.284.284,0,0,1,.237.1.662.662,0,0,1,.082.391,1.443,1.443,0,0,1-.033.391q-.033.093-.11.094h-.88a1.06,1.06,0,0,1,.253.324.825.825,0,0,1,.1.38,1.478,1.478,0,0,1-.242.809,1.994,1.994,0,0,1-.715.649,4.3,4.3,0,0,1-1.177.429,7.361,7.361,0,0,1-1.617.16,8.437,8.437,0,0,1-1.633-.143,3.582,3.582,0,0,1-1.232-.468,2.243,2.243,0,0,1-.786-.83,2.549,2.549,0,0,1-.275-1.232,4.244,4.244,0,0,1,.143-.979,5.306,5.306,0,0,1,.451-1.177l1.078.4a6.029,6.029,0,0,0-.313.93,3.51,3.51,0,0,0-.116.83,1.361,1.361,0,0,0,.693,1.243,3.758,3.758,0,0,0,1.936.418,5,5,0,0,0,1.93-.292Q98.253,17.155,98.253,16.726Zm1.562-1.7a1.351,1.351,0,0,0,.968-.275,1.223,1.223,0,0,0,.275-.891V7.915h1.2v6.149a1.841,1.841,0,0,1-.55,1.474A2.574,2.574,0,0,1,99.98,16a.666.666,0,0,1-.385-.1.425.425,0,0,1-.143-.374.837.837,0,0,1,.072-.347A.286.286,0,0,1,99.815,15.021Zm5.313-7.106V16h-1.2V7.915Zm-1.353,10.538a1.391,1.391,0,0,1-.176-.594,1.1,1.1,0,0,1,.313-.8,1.2,1.2,0,0,1,.9-.319,2.593,2.593,0,0,1,.319.022,1.355,1.355,0,0,1,.319.077l-.132.539a.973.973,0,0,0-.236-.06,1.913,1.913,0,0,0-.248-.017.675.675,0,0,0-.451.149.5.5,0,0,0-.176.4.629.629,0,0,0,.154.429.706.706,0,0,0,.55.176h.627v.561h-2.211v-.561ZM114.984,15.2a3.2,3.2,0,0,1-.22,1.254,2.23,2.23,0,0,1-.61.847,2.416,2.416,0,0,1-.919.479,4.212,4.212,0,0,1-1.144.148,3.856,3.856,0,0,1-1.155-.165,2.555,2.555,0,0,1-.913-.5,2.286,2.286,0,0,1-.6-.83,2.891,2.891,0,0,1-.22-1.171,4.382,4.382,0,0,1,.148-1.029,5.3,5.3,0,0,1,.445-1.172l1.067.4a8.331,8.331,0,0,0-.335,1,3.419,3.419,0,0,0-.094.819,1.9,1.9,0,0,0,.138.764,1.351,1.351,0,0,0,.368.506,1.516,1.516,0,0,0,.545.286,2.435,2.435,0,0,0,1.336,0,1.246,1.246,0,0,0,.517-.3,1.4,1.4,0,0,0,.33-.545,2.557,2.557,0,0,0,.121-.847V7.915h1.2Zm3.608,1.782a1.929,1.929,0,0,0,1.007-.215.87.87,0,0,0,.368-.764h-.9a3.924,3.924,0,0,1-1.21-.165,2.144,2.144,0,0,1-.825-.467,1.87,1.87,0,0,1-.473-.72,2.655,2.655,0,0,1-.154-.924,3.051,3.051,0,0,1,.165-1.012,2.381,2.381,0,0,1,.484-.825,2.327,2.327,0,0,1,.786-.561,2.575,2.575,0,0,1,1.062-.209,2.655,2.655,0,0,1,.924.154,2.083,2.083,0,0,1,.72.44,1.967,1.967,0,0,1,.473.715,2.6,2.6,0,0,1,.17.968v1.628h.825a.284.284,0,0,1,.236.1.688.688,0,0,1,.083.4,1.192,1.192,0,0,1-.039.379q-.038.093-.1.094h-1.023q-.231,1.925-2.53,1.925a5.5,5.5,0,0,1-.71-.049,6.653,6.653,0,0,1-.7-.126l.176-.935q.253.055.561.11A3.56,3.56,0,0,0,118.592,16.979Zm-.946-3.355a1.724,1.724,0,0,0,.116.677,1.065,1.065,0,0,0,.319.429,1.23,1.23,0,0,0,.49.226,2.843,2.843,0,0,0,.638.066h.77V13.613a2.708,2.708,0,0,0-.061-.583,1.378,1.378,0,0,0-.192-.473.951.951,0,0,0-.346-.313,1.089,1.089,0,0,0-.523-.115,1.369,1.369,0,0,0-.4.066,1.01,1.01,0,0,0-.4.236,1.265,1.265,0,0,0-.3.457A1.991,1.991,0,0,0,117.646,13.624Zm5.819-4.158A.623.623,0,0,1,123.652,9a.651.651,0,0,1,.473-.182.614.614,0,0,1,.462.182.644.644,0,0,1,.176.467.663.663,0,0,1-.176.473.605.605,0,0,1-.462.187.64.64,0,0,1-.66-.66Zm.836,5.555a2.662,2.662,0,0,0,.731-.083.876.876,0,0,0,.435-.264.943.943,0,0,0,.2-.445,3.522,3.522,0,0,0,.049-.638,1.35,1.35,0,0,0-.44-1.089,2.136,2.136,0,0,0-1.4-.374,5.312,5.312,0,0,0-.627.049,3.309,3.309,0,0,0-.572.149l-.264-.9a4.34,4.34,0,0,1,.93-.247,5.406,5.406,0,0,1,.72-.061,4.262,4.262,0,0,1,1.3.176,2.393,2.393,0,0,1,.9.506,1.952,1.952,0,0,1,.523.8,3.107,3.107,0,0,1,.165,1.04,2.476,2.476,0,0,1-.561,1.8,2.338,2.338,0,0,1-1.727.566h-2.5a.644.644,0,0,1-.374-.1.425.425,0,0,1-.143-.374.837.837,0,0,1,.071-.347.277.277,0,0,1,.281-.16Zm5.786,0a1.218,1.218,0,0,0,.913-.286,1.335,1.335,0,0,0,.242-.891V13.58A1.88,1.88,0,0,0,131.16,13a1.024,1.024,0,0,0-.275-.434,1.289,1.289,0,0,0-.517-.281,2.812,2.812,0,0,0-.809-.1h-.913v-.99h1.221a3.761,3.761,0,0,1,1.16.16,2.17,2.17,0,0,1,.8.446,1.743,1.743,0,0,1,.462.676,2.412,2.412,0,0,1,.148.863v.682a.952.952,0,0,0,.292.726,1.054,1.054,0,0,0,.754.275.252.252,0,0,1,.231.1.8.8,0,0,1,.066.391,1.25,1.25,0,0,1-.038.385q-.038.1-.094.1a2.225,2.225,0,0,1-.847-.17,1.311,1.311,0,0,1-.638-.523,1.328,1.328,0,0,1-.638.528,2.812,2.812,0,0,1-1.045.165h-2.53v-.979Zm3.4,0a1.351,1.351,0,0,0,.968-.275,1.223,1.223,0,0,0,.275-.891V7.915h1.2v6.149a1.841,1.841,0,0,1-.55,1.474,2.574,2.574,0,0,1-1.727.462.666.666,0,0,1-.385-.1.425.425,0,0,1-.143-.374.837.837,0,0,1,.072-.347A.286.286,0,0,1,133.486,15.021ZM138.8,7.915V16h-1.2V7.915Z" transform="translate(1055.382 48)" fill="#fff"/>
          </g>
        </g>
      </g>
      <rect id="Rectangle_14185" data-name="Rectangle 14185" width="3" height="17" rx="1.5" transform="translate(1132.454 60) rotate(90)" fill="#63be6a"/>
    </g>
  </g>
</svg>
