<svg xmlns="http://www.w3.org/2000/svg" width="310.653" height="281.859" viewBox="0 0 310.653 281.859">
  <g id="under-construction-svg" transform="translate(-816.697 -439.343)">
    <path id="Path_130089" data-name="Path 130089" d="M-120.182-748.827C-126.125-812.55-152.529-879.245-231.12-880.9s-79.2,25.239-136.091,63.844-88.851,101.229-34.1,167.625,138.857,54.364,205.847,35.309S-114.239-685.1-120.182-748.827Z" transform="translate(1246.308 1320.311)" fill="#e6eff7"/>
    <path id="Rectangle_16257" data-name="Rectangle 16257" d="M16,0h0a0,0,0,0,1,0,0V54A16,16,0,0,1,0,70H0a0,0,0,0,1,0,0V16A16,16,0,0,1,16,0Z" transform="translate(971 531.368)" fill="#4789c8"/>
    <circle id="Ellipse_11768" data-name="Ellipse 11768" cx="8" cy="8" r="8" transform="translate(971 610.368)" fill="#4789c8"/>
    <g id="Polygon_51" data-name="Polygon 51" transform="translate(845 439.368)" fill="none">
      <path d="M104.558,50.974c13.088-22.66,45.8-22.66,58.884,0l75.1,130.021C251.632,203.661,235.274,232,209.1,232H58.9c-26.176,0-42.534-28.339-29.442-51.005Z" stroke="none"/>
      <path d="M 134 51.97917175292969 C 131.2230987548828 51.97917175292969 124.3141479492188 52.75846862792969 120.1450042724609 59.97671508789062 L 45.0467529296875 189.99755859375 C 40.87629699707031 197.2180786132812 43.65594482421875 203.5930786132812 45.04464721679688 205.9988250732422 C 46.43330383300781 208.4045104980469 50.56340026855469 214.0000152587891 58.90174865722656 214.0000152587891 L 209.0982513427734 214.0000152587891 C 217.4365997314453 214.0000152587891 221.5666961669922 208.4045104980469 222.9553527832031 205.9988250732422 C 224.3440551757812 203.5930786132812 227.1237030029297 197.2180786132812 222.9532470703125 189.99755859375 L 147.8550109863281 59.97671508789062 C 143.685791015625 52.75846862792969 136.7769012451172 51.97917175292969 134 51.97917175292969 M 133.9999847412109 33.97915649414062 C 145.4489135742188 33.97915649414062 156.8978729248047 39.64408874511719 163.4418487548828 50.97396850585938 L 238.5401000976562 180.9948120117188 C 251.6320495605469 203.6614685058594 235.2741546630859 232.0000152587891 209.0982513427734 232.0000152587891 L 58.90174865722656 232.0000152587891 C 32.72584533691406 232.0000152587891 16.36795043945312 203.6614685058594 29.45989990234375 180.9948120117188 L 104.5581512451172 50.97396850585938 C 111.1020965576172 39.64408874511719 122.5510406494141 33.97915649414062 133.9999847412109 33.97915649414062 Z" stroke="none" fill="#003462"/>
    </g>
  </g>
</svg>
