<svg xmlns="http://www.w3.org/2000/svg" width="15.127" height="13.302" viewBox="0 0 15.127 13.302">
  <path id="weather_icon" d="M88.54,49.009a.4.4,0,1,1-.8,0,2.909,2.909,0,1,1,2.909,2.909H86a.4.4,0,1,1,0-.8h4.655a2.113,2.113,0,1,0-2.113-2.113ZM85.2,53.51a.4.4,0,1,1,0-.8H96.471A1.867,1.867,0,1,0,94.6,50.846a.4.4,0,0,1-.8,0,2.664,2.664,0,1,1,2.664,2.664Zm6.186,3.344a.4.4,0,1,1,.8,0A1.752,1.752,0,1,0,93.936,55.1h-9.53a.4.4,0,1,1,0-.8h9.53a2.548,2.548,0,1,1-2.548,2.548Z" transform="translate(-84.008 -46.1)" fill="#4a6882"/>
</svg>
