<svg xmlns="http://www.w3.org/2000/svg" width="17.649" height="22.394" viewBox="0 0 17.649 22.394">
  <g id="weather_report" transform="translate(-160.333 -39.327)">
    <path id="Path_6047" data-name="Path 6047" d="M220.214,131.63a.52.52,0,0,1,0-1.04h1.1a2.256,2.256,0,0,0,.837-.755,2.147,2.147,0,0,0-1.645-3.283c-.7-.08-.206-.877-1.22-1.693a2.3,2.3,0,0,0-3.588.943c-.286.657-.992.069-1.056.044a.76.76,0,0,0-1.038.823.52.52,0,0,1-.456.673A1.725,1.725,0,0,0,211.881,130a1.7,1.7,0,0,0,.651.589c.474.113,1.873-.33,1.873.52a.52.52,0,0,1-.52.52,7.991,7.991,0,0,1-1.715-.062,2.769,2.769,0,0,1,.39-5.171,1.814,1.814,0,0,1,2.448-1.527,3.339,3.339,0,0,1,5.985.711,3.17,3.17,0,0,1,.7,5.985,5.9,5.9,0,0,1-1.477.064Z" transform="translate(-47.893 -80.08)" fill="#003462"/>
    <path id="Path_6048" data-name="Path 6048" d="M339,231.11c.666,0,.522.817.522,1.417a.522.522,0,0,1-1.045,0C338.482,231.931,338.339,231.11,339,231.11Z" transform="translate(-169.849 -182.86)" fill="#003462"/>
    <path id="Path_6049" data-name="Path 6049" d="M339,289.73c.666,0,.522.817.522,1.417a.522.522,0,0,1-1.045,0C338.482,290.551,338.339,289.73,339,289.73Z" transform="translate(-169.849 -238.753)" fill="#003462"/>
    <path id="Path_6050" data-name="Path 6050" d="M376.73,212.94c.668,0,.525.817.525,1.414a.522.522,0,0,1-1.045,0C376.21,213.761,376.066,212.94,376.73,212.94Z" transform="translate(-205.821 -165.536)" fill="#003462"/>
    <path id="Path_6051" data-name="Path 6051" d="M301.32,267.46c.666,0,.522.819.522,1.417a.521.521,0,0,1-1.043,0c0-.6-.144-1.417.52-1.417Z" transform="translate(-133.919 -217.519)" fill="#003462"/>
    <path id="Path_6052" data-name="Path 6052" d="M301.32,212.94c.666,0,.522.817.522,1.414a.521.521,0,0,1-1.043,0c0-.593-.144-1.414.52-1.414Z" transform="translate(-133.919 -165.536)" fill="#003462"/>
    <path id="Path_6053" data-name="Path 6053" d="M376.73,267.46c.668,0,.525.819.525,1.417a.522.522,0,0,1-1.045,0C376.21,268.281,376.066,267.46,376.73,267.46Z" transform="translate(-205.821 -217.519)" fill="#003462"/>
    <path id="Path_6054" data-name="Path 6054" d="M326.929,431.94a1.106,1.106,0,1,1,0,2.211A1.106,1.106,0,1,1,326.929,431.94Z" transform="translate(-157.773 -374.347)" fill="#003462"/>
    <path id="Path_6055" data-name="Path 6055" d="M216.413,437.594c3.092,0,2.995-.257,2.995,1.127a.52.52,0,0,1-.52.52c-3.092,0-2.995.259-2.995-1.124a.523.523,0,0,1,.52-.522Z" transform="translate(-52.975 -379.72)" fill="#003462"/>
    <path id="Path_6056" data-name="Path 6056" d="M407.253,437.594c3.092,0,2.995-.257,2.995,1.127a.52.52,0,0,1-.52.52c-3.092,0-2.995.259-2.995-1.124a.521.521,0,0,1,.52-.522Z" transform="translate(-234.936 -379.72)" fill="#003462"/>
    <path id="Path_6057" data-name="Path 6057" d="M177.982,56.2v3.192a2.4,2.4,0,0,1-2.441,2.333H162.772a2.4,2.4,0,0,1-2.439-2.333V41.66a2.4,2.4,0,0,1,2.439-2.333H175.54a2.4,2.4,0,0,1,2.441,2.333Zm-16.608-.522h15.565V41.66a1.352,1.352,0,0,0-1.4-1.29H162.772a1.352,1.352,0,0,0-1.4,1.29Zm15.565,3.714V56.717H161.374v2.672a1.352,1.352,0,0,0,1.4,1.291H175.54a1.352,1.352,0,0,0,1.4-1.291Z" transform="translate(0 0)" fill="#003462"/>
  </g>
</svg>
