<svg xmlns="http://www.w3.org/2000/svg" width="14.291" height="15.887" viewBox="0 0 14.291 15.887">
  <g id="weather_notif" transform="translate(0 0)">
    <path id="Path_6063" data-name="Path 6063" d="M212.3,115.306l-5.558-3.176h0a1.587,1.587,0,0,0-1.588,0l-5.558,3.176h0a1.587,1.587,0,0,0-.794,1.379v6.352a1.587,1.587,0,0,0,.794,1.379l5.558,3.176h0a1.588,1.588,0,0,0,1.588,0l5.558-3.176h0a1.588,1.588,0,0,0,.794-1.379v-6.352a1.588,1.588,0,0,0-.794-1.379Zm-.794,7.73-5.558,3.176-5.558-3.176v-6.352l5.558-3.176,5.558,3.176Z" transform="translate(-198.805 -111.917)" fill="#fff"/>
    <path id="Path_6064" data-name="Path 6064" d="M334.786,325.593a.794.794,0,1,1-.794-.794.794.794,0,0,1,.794.794" transform="translate(-326.847 -314.738)" fill="#fff"/>
    <path id="Path_6065" data-name="Path 6065" d="M333.2,201.6h1.588v3.97H333.2Z" transform="translate(-326.849 -197.362)" fill="#fff"/>
  </g>
</svg>
