<svg id="آبار_موارد_المياه_في_منطقة_الرياض" data-name="آبار موارد المياه في منطقة الرياض" xmlns="http://www.w3.org/2000/svg" xmlns:xlink="http://www.w3.org/1999/xlink" width="90.647" height="92.327" viewBox="0 0 90.647 92.327">
  <defs>
    <clipPath id="clip-path">
      <rect id="Rectangle_16246" data-name="Rectangle 16246" width="90.647" height="92.327" fill="none"/>
    </clipPath>
  </defs>
  <g id="Group_125361" data-name="Group 125361" clip-path="url(#clip-path)">
    <path id="Path_130028" data-name="Path 130028" d="M87.168,79.04H67.242v9.805H87.168Zm-23.406,0H43.837v9.805H63.762Zm-23.407,0H20.431v9.805H40.355ZM87.168,65.753h-8.22v9.805h8.22Zm-35.108,0H32.136v9.805H52.06Zm-23.41,0H20.431v9.805H28.65Zm26.892,9.805H75.467v-9.8H55.542ZM87.168,52.466H67.242v9.806H87.168Zm-23.406,0H43.836v9.806H63.762Zm-23.407,0H20.431v9.806H40.355Zm27.3-44.581h4.683V5.9a5.9,5.9,0,0,1,11.8,0v4.341a1.742,1.742,0,0,1-3.483,0V5.9a2.419,2.419,0,1,0-4.839,0V48.986h4.839V16.311a1.742,1.742,0,0,1,3.483,0V48.986h4.773a1.745,1.745,0,0,1,1.738,1.744V90.588a1.74,1.74,0,0,1-1.733,1.739H18.687v-.4l0,.4a1.739,1.739,0,0,1-1.736-1.733V50.729a1.744,1.744,0,0,1,1.737-1.743h4.781v-2.6a1.743,1.743,0,1,1,3.486,0v2.6h4.834V5.9a2.417,2.417,0,0,0-4.834,0V40.315a1.743,1.743,0,0,1-3.487,0V14.163H16.119V20.74a1.749,1.749,0,0,1-1.742,1.743H1.743a1.743,1.743,0,1,1,0-3.486h10.89V12.42a1.743,1.743,0,0,1,1.74-1.738h9.094V5.9a5.9,5.9,0,1,1,11.8,0V7.885h4.682v9.07H35.268V48.986H72.331V16.955H67.648Zm0,5.589h4.683V11.365H67.648m-27.7,0H35.268v2.109H39.95" transform="translate(0 0)" fill="#003462"/>
    <path id="Path_130029" data-name="Path 130029" d="M67.258,31.2H66.164a9.644,9.644,0,0,0-1.525-3.919,6.205,6.205,0,0,0-2.95-2.379V20.927H58.208V24.9a6.2,6.2,0,0,0-2.952,2.376A9.67,9.67,0,0,0,53.728,31.2h-1.1a1.615,1.615,0,0,0-.259.021,1.736,1.736,0,0,0-1.45,1.985l1.84,11.821A1.746,1.746,0,0,0,54.5,46.649h10.9a1.738,1.738,0,0,0,1.716-1.479l1.835-11.813A1.765,1.765,0,0,0,69,32.946,1.744,1.744,0,0,0,67.258,31.2m-9.119-2a2.015,2.015,0,0,1,.936-.937,1.992,1.992,0,0,1,.869-.2,2.05,2.05,0,0,1,1.838,1.185,5.927,5.927,0,0,1,.842,1.947H57.269a6.175,6.175,0,0,1,.87-2m5.773,13.96H55.988l-1.324-8.483H65.23Z" transform="translate(0 0)" fill="#4789c8"/>
    <path id="Path_130030" data-name="Path 130030" d="M65.909,3.912H41.691a1.746,1.746,0,0,0-1.742,1.743V19.19a1.746,1.746,0,0,0,1.744,1.737H65.91a1.745,1.745,0,0,0,1.738-1.737V16.955l0-9.07V5.653a1.746,1.746,0,0,0-1.743-1.741M47.029,17.447H43.436V7.393h3.593Zm5.589,0H50.51V7.393h2.108Zm5.591,0H56.1V7.393h2.108Zm5.958,0H61.689V7.393h2.478Z" transform="translate(0 0)" fill="#4789c8"/>
  </g>
</svg>
