<svg xmlns="http://www.w3.org/2000/svg" width="61.174" height="92.491" viewBox="0 0 61.174 92.491">
  <g id="البيانات_الجغرافية-الخريطة_التفاعلية" data-name="البيانات الجغرافية-الخريطة التفاعلية" transform="translate(0 0)">
    <path id="Path_130007" data-name="Path 130007" d="M30.588,75.963C15.387,75.963,0,71.75,0,63.7c0-5.311,7.053-9.573,18.87-11.4a2.3,2.3,0,1,1,.7,4.551C9.25,58.449,4.607,61.817,4.607,63.7c0,3.122,10.121,7.657,25.981,7.657s25.98-4.536,25.98-7.657c0-1.64-3.75-4.9-13.817-6.659a2.3,2.3,0,1,1,.795-4.537c11.2,1.958,17.629,6.04,17.629,11.2,0,8.051-15.386,12.264-30.587,12.264" transform="translate(0 16.527)" fill="#003462"/>
    <path id="Path_130008" data-name="Path 130008" d="M26.817,67.7c-6.869,0-14.89-1.674-14.89-6.394,0-1.615,1-3.834,5.792-5.244a2.3,2.3,0,1,1,1.3,4.42,9.407,9.407,0,0,0-2.061.832c1.312.767,4.743,1.779,9.858,1.779s8.545-1.012,9.858-1.779a9.425,9.425,0,0,0-2.057-.831,2.3,2.3,0,1,1,1.3-4.42c4.783,1.411,5.786,3.63,5.786,5.242,0,4.72-8.021,6.394-14.89,6.394" transform="translate(3.771 17.696)" fill="#4789c8"/>
    <path id="Path_130009" data-name="Path 130009" d="M30.506,77.4a2.931,2.931,0,0,1-2.752-1.879,36.323,36.323,0,0,0-5.644-8.949C18.316,61.806,9.531,52.1,8.542,51.01l-.891-.991a2.761,2.761,0,0,1-.3-.338,30.246,30.246,0,1,1,46.32-.009,2.789,2.789,0,0,1-.309.347l-1.137,1.248c-6.59,7.321-11.077,12.472-13.335,15.306a36.269,36.269,0,0,0-5.631,8.95A2.932,2.932,0,0,1,30.506,77.4M12.024,47.99C13.3,49.4,21.907,58.92,25.712,63.7A53.582,53.582,0,0,1,30.5,70.647,52.982,52.982,0,0,1,35.285,63.7C37.6,60.8,42.147,55.574,48.8,48.183l.334-.358c.174-.2.333-.37.47-.516l.093-.1c.049-.062.15-.172.237-.265l.19-.211A25.632,25.632,0,0,0,13,11.511a25.371,25.371,0,0,0-8.134,18.72,25.636,25.636,0,0,0,5.981,16.451l.187.212c.138.15.234.253.341.379l.454.5c.059.062.126.133.2.22m38.322-1.445c-.049.037-.093.075-.136.112Z" transform="translate(0.082 0)" fill="#003462"/>
    <path id="Path_130010" data-name="Path 130010" d="M26.727,40.976A14.517,14.517,0,1,1,41.243,26.459,14.533,14.533,0,0,1,26.727,40.976m0-24.427a9.91,9.91,0,1,0,9.909,9.909,9.922,9.922,0,0,0-9.909-9.909" transform="translate(3.861 3.777)" fill="#4789c8"/>
  </g>
</svg>
