<svg id="التطوير_المشترك_و_الافكار" data-name="التطوير المشترك و الافكار" xmlns="http://www.w3.org/2000/svg" width="92" height="92" viewBox="0 0 92 92">
  <g id="Group_125163" data-name="Group 125163" transform="translate(55.819 0)">
    <path id="Path_129868" data-name="Path 129868" d="M327.278,32.66a1.8,1.8,0,0,1-1.8-1.8v-15.2H312.443a1.8,1.8,0,0,1-1.8-1.8V1.8a1.8,1.8,0,0,1,1.8-1.8h14.835a1.8,1.8,0,0,1,1.8,1.8V30.863a1.8,1.8,0,0,1-1.8,1.8Zm-13.038-20.6h11.241V3.594H314.24Z" transform="translate(-310.646 0)" fill="#003462"/>
  </g>
  <path id="Path_129869" data-name="Path 129869" d="M354.706,166.665h17.43V226.92h-17.43Z" transform="translate(-290.97 -136.717)" fill="#4789c8" fill-rule="evenodd"/>
  <path id="Path_129870" data-name="Path 129870" d="M90.2,80.328a1.8,1.8,0,0,0-1.8,1.8V154.3H56.682V106.566a1.8,1.8,0,0,0-1.8-1.8H37.456a1.8,1.8,0,0,0-1.8,1.8V154.3H30.4V125.97a1.8,1.8,0,0,0-1.8-1.8H11.175a1.8,1.8,0,0,0-1.8,1.8V154.3H1.8a1.8,1.8,0,0,0,0,3.594H90.2a1.8,1.8,0,0,0,1.8-1.8V82.125A1.8,1.8,0,0,0,90.2,80.328ZM39.253,108.363H53.089V154.3H39.253Zm-26.28,19.4H26.808V154.3H12.972Z" transform="translate(0 -65.894)" fill="#003462"/>
</svg>
