<svg xmlns="http://www.w3.org/2000/svg" width="91.934" height="92" viewBox="0 0 91.934 92">
  <g id="البيانات_المفتوحة" data-name="البيانات المفتوحة" transform="translate(-0.001)">
    <path id="Subtraction_2" data-name="Subtraction 2" d="M1153.646,8067.09h0a6.162,6.162,0,0,1-6.188-5.393,6.175,6.175,0,0,1,4.392-6.925V8044.64l-3.774-2.181v2.183a4.545,4.545,0,0,1-4.539,4.541h-2.251a2.746,2.746,0,0,1-2.743-2.743v-.851h4.995a.959.959,0,0,0,.946-.947v-40.25a.957.957,0,0,0-.946-.944h-32.371a1.8,1.8,0,0,1-1.7-1.227l-1.377-4.114c-.508-1.516-1.286-1.516-1.66-1.516h-15.253a.958.958,0,0,0-.945.945v11.169h-5.891a2.717,2.717,0,0,0-1.549.483l-9.461-5.461a1.8,1.8,0,0,1-.9-1.555v-14.765a6.176,6.176,0,0,1-4.392-6.925,6.241,6.241,0,0,1,12.377,0,6.175,6.175,0,0,1-4.391,6.925v13.727l10.348,5.975a1.87,1.87,0,0,1,.263.184v-9.756a4.544,4.544,0,0,1,4.539-4.539h7.73v-5.59a6.176,6.176,0,0,1-4.392-6.924,6.241,6.241,0,0,1,12.378,0,6.175,6.175,0,0,1-4.392,6.925V7993h3.93a5.257,5.257,0,0,1,5.068,3.97l.966,2.887h12.917v-12.447a6.175,6.175,0,0,1-4.392-6.924,6.242,6.242,0,0,1,12.379,0,6.176,6.176,0,0,1-4.393,6.926v12.447h14.569a4.5,4.5,0,0,1,2.727.911l5.586-3.226v-10.133a6.176,6.176,0,0,1-4.393-6.924,6.242,6.242,0,0,1,12.379,0,6.174,6.174,0,0,1-4.392,6.924v11.169a1.8,1.8,0,0,1-.9,1.557l-6.5,3.751a4.672,4.672,0,0,1,.028.506v33.919l6.469,3.733a1.8,1.8,0,0,1,.9,1.557v11.172a6.174,6.174,0,0,1,4.392,6.923,6.163,6.163,0,0,1-6.19,5.395Zm0-8.967a2.638,2.638,0,0,0-2.695,2.677,2.695,2.695,0,1,0,5.389,0A2.638,2.638,0,0,0,1153.646,8058.123Zm0-79.44a2.695,2.695,0,1,0,0,5.389,2.695,2.695,0,0,0,0-5.389Zm-26.473,0a2.695,2.695,0,1,0,0,5.389,2.695,2.695,0,0,0,0-5.389Zm-26.473,0a2.695,2.695,0,1,0,0,5.389,2.695,2.695,0,0,0,0-5.389Zm-26.475,0a2.695,2.695,0,1,0,0,5.389,2.695,2.695,0,0,0,0-5.389Zm52.949,88.407h0a6.163,6.163,0,0,1-6.189-5.392,6.175,6.175,0,0,1,4.391-6.925v-5.59h3.594v5.59a6.174,6.174,0,0,1,4.393,6.922,6.163,6.163,0,0,1-6.189,5.4Zm0-8.967a2.641,2.641,0,0,0-2.7,2.677,2.7,2.7,0,1,0,5.391,0A2.638,2.638,0,0,0,1127.173,8058.123Zm-26.473,8.967h0a6.163,6.163,0,0,1-6.191-5.392,6.176,6.176,0,0,1,4.393-6.925v-5.59h3.594v5.59a6.175,6.175,0,0,1,4.392,6.923,6.162,6.162,0,0,1-6.188,5.394Zm0-8.967a2.642,2.642,0,0,0-2.7,2.677,2.7,2.7,0,1,0,5.391,0A2.638,2.638,0,0,0,1100.7,8058.123Zm-26.475,8.967h0a6.162,6.162,0,0,1-6.189-5.392,6.176,6.176,0,0,1,4.393-6.926v-14.765a1.807,1.807,0,0,1,.9-1.557l8.266-4.771v4.15l-5.57,3.216v13.727a6.174,6.174,0,0,1,4.392,6.923,6.163,6.163,0,0,1-6.19,5.395Zm0-8.985a2.7,2.7,0,0,0,0,5.391,2.7,2.7,0,0,0,0-5.391Z" transform="translate(-1067.968 -7975.089)" fill="#003462"/>
    <path id="Path_129875" data-name="Path 129875" d="M130.21,187.082H78.743A2.751,2.751,0,0,0,76,189.824v34.991a2.75,2.75,0,0,0,2.742,2.742h56.952a2.75,2.75,0,0,1-2.742-2.742V189.824A2.752,2.752,0,0,0,130.21,187.082Z" transform="translate(-62.376 -153.466)" fill="#4789c8" fill-rule="evenodd" opacity="0.2"/>
    <path id="Path_129876" data-name="Path 129876" d="M194.242,234.105H181.663v-4.492a3.594,3.594,0,0,1,7.188,0,1.8,1.8,0,0,0,3.594,0c-.362-9.522-14.015-9.519-14.375,0v4.492h-1.8a1.8,1.8,0,0,0-1.8,1.8v10.781a1.8,1.8,0,0,0,1.8,1.8h17.969a1.8,1.8,0,0,0,1.8-1.8V235.9A1.8,1.8,0,0,0,194.242,234.105Zm-1.8,10.781H178.07V237.7h14.375Z" transform="translate(-143.157 -182.497)" fill="#4789c8"/>
  </g>
</svg>
