<svg xmlns="http://www.w3.org/2000/svg" width="106.639" height="92" viewBox="0 0 106.639 92">
  <g id="الاستشارات" transform="translate(0 -35.143)">
    <g id="Group_125159" data-name="Group 125159" transform="translate(0 35.143)">
      <path id="Path_129860" data-name="Path 129860" d="M35.535,70.678,24.393,64.4H0V35.143H41.809V64.4H35.535Z" transform="translate(0 -35.143)" fill="#4789c8" opacity="0.2"/>
      <path id="Path_129861" data-name="Path 129861" d="M317.54,70.678V64.4h-6.274V35.143h41.809V64.4H328.682Z" transform="translate(-246.436 -35.143)" fill="#4789c8" opacity="0.2"/>
    </g>
    <g id="Group_125160" data-name="Group 125160" transform="translate(0 43.508)">
      <path id="Path_129862" data-name="Path 129862" d="M339.653,256.166a11.494,11.494,0,1,0-14.965,0,20.938,20.938,0,0,0-13.422,19.519v8.365a2.083,2.083,0,0,0,2.083,2.083h37.643a2.083,2.083,0,0,0,2.083-2.083v-8.365A20.938,20.938,0,0,0,339.653,256.166Zm-14.811-8.714a7.328,7.328,0,1,1,7.328,7.328A7.336,7.336,0,0,1,324.842,247.453Zm24.067,34.515H315.432v-6.283a16.739,16.739,0,1,1,33.478,0Z" transform="translate(-246.436 -202.498)" fill="#003462"/>
      <path id="Path_129863" data-name="Path 129863" d="M28.387,256.166a11.494,11.494,0,1,0-14.965,0A20.938,20.938,0,0,0,0,275.685v8.365a2.083,2.083,0,0,0,2.083,2.083H39.726a2.083,2.083,0,0,0,2.083-2.083v-8.365A20.938,20.938,0,0,0,28.387,256.166Zm-14.81-8.714a7.328,7.328,0,1,1,7.328,7.328A7.336,7.336,0,0,1,13.577,247.453Zm24.067,34.515H4.166v-6.283a16.739,16.739,0,0,1,33.478,0Z" transform="translate(0 -202.498)" fill="#003462"/>
      <path id="Path_129864" data-name="Path 129864" d="M42.246,79.472H63.159a2.083,2.083,0,0,0,0-4.166H42.246a2.083,2.083,0,1,0,0,4.166Z" transform="translate(-31.798 -75.306)" fill="#4789c8"/>
      <path id="Path_129865" data-name="Path 129865" d="M42.246,119.636H63.159a2.083,2.083,0,1,0,0-4.166H42.246a2.083,2.083,0,0,0,0,4.166Z" transform="translate(-31.798 -107.105)" fill="#4789c8"/>
      <path id="Path_129866" data-name="Path 129866" d="M353.512,79.472h20.913a2.083,2.083,0,0,0,0-4.166H353.512a2.083,2.083,0,1,0,0,4.166Z" transform="translate(-278.234 -75.306)" fill="#4789c8"/>
      <path id="Path_129867" data-name="Path 129867" d="M353.512,119.636h20.913a2.083,2.083,0,0,0,0-4.166H353.512a2.083,2.083,0,1,0,0,4.166Z" transform="translate(-278.234 -107.105)" fill="#4789c8"/>
    </g>
  </g>
</svg>
