<svg xmlns="http://www.w3.org/2000/svg" width="91.174" height="92.793" viewBox="0 0 91.174 92.793">
  <g id="توزيع_عدد_السدود_وسعتها_التخزينية_حتى_2019" data-name="توزيع عدد السدود وسعتها التخزينية حتى 2019" transform="translate(-58.147 -45.416)">
    <g id="Layer_26" transform="translate(58.147 45.416)">
      <g id="Group_125377" data-name="Group 125377" transform="translate(0)">
        <g id="Group_125374" data-name="Group 125374">
          <g id="Group_125362" data-name="Group 125362">
            <path id="Path_130031" data-name="Path 130031" d="M82.821,106.414a1.526,1.526,0,0,1-1.516-1.37L75.466,48.468H67.047l-5.856,56.577a1.526,1.526,0,0,1-3.036-.314l6-57.946a1.526,1.526,0,0,1,1.518-1.369H76.843a1.526,1.526,0,0,1,1.518,1.37l5.979,57.946a1.528,1.528,0,0,1-1.52,1.683Z" transform="translate(-58.147 -45.416)" fill="#003462"/>
          </g>
          <g id="Group_125363" data-name="Group 125363" transform="translate(17.774 5.85)">
            <path id="Path_130032" data-name="Path 130032" d="M391.814,140.466h-52.65a1.526,1.526,0,1,1,0-3.052h52.65a1.526,1.526,0,0,1,0,3.052Z" transform="translate(-337.637 -137.414)" fill="#003462"/>
          </g>
          <g id="Group_125364" data-name="Group 125364" transform="translate(67.198 0)">
            <path id="Path_130033" data-name="Path 130033" d="M1137.275,106.416h-17.061a1.526,1.526,0,1,1,0-3.052h15.369l-5.664-54.893H1121.5l-3.63,35.074a1.526,1.526,0,0,1-3.036-.314l3.772-36.443a1.526,1.526,0,0,1,1.518-1.369H1131.3a1.526,1.526,0,0,1,1.518,1.37l5.979,57.946a1.526,1.526,0,0,1-1.518,1.683Z" transform="translate(-1114.825 -45.418)" fill="#003462"/>
          </g>
          <g id="Group_125365" data-name="Group 125365" transform="translate(24.313 11.538)">
            <path id="Path_130034" data-name="Path 130034" d="M459.028,238.973H442a1.526,1.526,0,0,1-1.526-1.526v-9.066A1.526,1.526,0,0,1,442,226.855h17.033a1.526,1.526,0,0,1,1.526,1.526v9.066A1.526,1.526,0,0,1,459.028,238.973Zm-15.507-3.052H457.5v-6.013h-13.98Z" transform="translate(-440.469 -226.855)" fill="#003462"/>
          </g>
          <g id="Group_125366" data-name="Group 125366" transform="translate(46.978 11.538)">
            <path id="Path_130035" data-name="Path 130035" d="M815.429,238.973H798.4a1.526,1.526,0,0,1-1.526-1.526v-9.066a1.526,1.526,0,0,1,1.526-1.526h17.033a1.526,1.526,0,0,1,1.526,1.526v9.066A1.526,1.526,0,0,1,815.429,238.973Zm-15.507-3.052H813.9v-6.013h-13.98Z" transform="translate(-796.87 -226.855)" fill="#003462"/>
          </g>
          <g id="Group_125369" data-name="Group 125369" transform="translate(48.219 20.605)">
            <g id="Group_125367" data-name="Group 125367" transform="translate(0 0)">
              <path id="Path_130036" data-name="Path 130036" d="M827.537,409.7a1.526,1.526,0,0,1-1.52-1.411,112.721,112.721,0,0,0-9.225-36.115l-.126-.28-.139-.309a1.526,1.526,0,0,1,2.774-1.274l.148.327.12.265a107.658,107.658,0,0,1,6.645,19.587,112.4,112.4,0,0,1,2.849,17.568,1.526,1.526,0,0,1-1.406,1.637C827.615,409.7,827.576,409.7,827.537,409.7Z" transform="translate(-816.387 -369.427)" fill="#003462"/>
            </g>
            <g id="Group_125368" data-name="Group 125368" transform="translate(13.217)">
              <path id="Path_130037" data-name="Path 130037" d="M1035.376,409.7a1.526,1.526,0,0,1-1.52-1.411,112.744,112.744,0,0,0-9.208-36.078l-.132-.292-.15-.333a1.526,1.526,0,0,1,2.774-1.275l.16.356.124.275a107.716,107.716,0,0,1,6.632,19.568,112.42,112.42,0,0,1,2.844,17.548,1.526,1.526,0,0,1-1.407,1.637C1035.454,409.7,1035.415,409.7,1035.376,409.7Z" transform="translate(-1024.227 -369.427)" fill="#003462"/>
            </g>
          </g>
          <g id="Group_125372" data-name="Group 125372" transform="translate(25.569 20.604)">
            <g id="Group_125370" data-name="Group 125370" transform="translate(0 0)">
              <path id="Path_130038" data-name="Path 130038" d="M471.387,409.691a1.526,1.526,0,0,1-1.52-1.411A112.748,112.748,0,0,0,460.66,372.2l-.14-.285c-.127-.258-.151-.306-.167-.342a1.526,1.526,0,0,1,2.769-1.285c.018.038.077.157.136.277.133.269.157.319.174.357a107.707,107.707,0,0,1,6.634,19.572,112.417,112.417,0,0,1,2.845,17.552,1.526,1.526,0,0,1-1.407,1.637C471.465,409.69,471.426,409.691,471.387,409.691Zm-10.725-37.482h0Z" transform="translate(-460.213 -369.413)" fill="#003462"/>
            </g>
            <g id="Group_125371" data-name="Group 125371" transform="translate(13.21)">
              <path id="Path_130039" data-name="Path 130039" d="M679.114,409.69a1.526,1.526,0,0,1-1.52-1.411,112.747,112.747,0,0,0-9.2-36.063l-.141-.281c-.135-.269-.159-.316-.179-.359a1.526,1.526,0,0,1,2.767-1.289c.021.043.079.158.138.274.141.28.165.329.186.374a107.725,107.725,0,0,1,6.631,19.567,112.4,112.4,0,0,1,2.844,17.547,1.526,1.526,0,0,1-1.407,1.637C679.192,409.688,679.152,409.69,679.114,409.69ZM668.4,372.223h0Z" transform="translate(-667.933 -369.412)" fill="#003462"/>
            </g>
          </g>
          <g id="Group_125373" data-name="Group 125373" transform="translate(0 57.946)">
            <path id="Path_130040" data-name="Path 130040" d="M147.8,959.662H59.676a1.526,1.526,0,1,1,0-3.052H147.8a1.526,1.526,0,1,1,0,3.052Z" transform="translate(-58.15 -956.61)" fill="#003462"/>
          </g>
        </g>
        <g id="Group_125375" data-name="Group 125375" transform="translate(10.46 67.709)">
          <path id="Path_130041" data-name="Path 130041" d="M289.139,1120.868a1.523,1.523,0,0,1-1.15-.522c-3.442-3.939-6.907-6-10.3-6.134-2.807-.109-4.9,1.266-7.108,2.721-2.571,1.691-5.485,3.608-9.577,2.905a17.713,17.713,0,0,1-7.357-3.4c-1.888-1.3-3.38-2.327-5.338-2.141-1.86.175-3.089,1.323-4.511,2.651-1.513,1.414-3.229,3.016-5.853,3.287-1.834.19-8.331.2-14.956-7.579a1.526,1.526,0,0,1,2.324-1.979,19.6,19.6,0,0,0,7.379,5.654,10.547,10.547,0,0,0,4.938.868c1.6-.166,2.753-1.239,4.084-2.482,1.6-1.494,3.412-3.187,6.309-3.46,3.062-.289,5.244,1.213,7.355,2.666a15,15,0,0,0,6.144,2.909c2.9.5,4.98-.866,7.383-2.447s5.12-3.367,8.9-3.221c4.264.165,8.463,2.579,12.479,7.176a1.526,1.526,0,0,1-1.149,2.531Z" transform="translate(-222.625 -1110.138)" fill="#4789c8"/>
        </g>
        <g id="Group_125376" data-name="Group 125376" transform="translate(10.6 82.063)">
          <path id="Path_130042" data-name="Path 130042" d="M291.349,1346.577a1.522,1.522,0,0,1-1.15-.522c-3.442-3.939-6.907-6-10.3-6.134-2.806-.11-4.9,1.266-7.108,2.721-2.2,1.445-4.643,3.054-7.861,3.054a10.111,10.111,0,0,1-1.717-.149,17.715,17.715,0,0,1-7.357-3.4c-1.888-1.3-3.38-2.327-5.338-2.141-1.86.175-3.089,1.323-4.511,2.651-1.513,1.414-3.229,3.016-5.853,3.287-1.834.19-8.331.2-14.956-7.579a1.526,1.526,0,0,1,2.324-1.979,19.6,19.6,0,0,0,7.379,5.654,10.546,10.546,0,0,0,4.938.868c1.6-.166,2.753-1.239,4.084-2.482,1.6-1.494,3.412-3.187,6.309-3.46,3.062-.289,5.244,1.213,7.355,2.666a15,15,0,0,0,6.144,2.909c2.9.5,4.98-.866,7.383-2.447s5.121-3.367,8.9-3.221c4.264.165,8.463,2.579,12.479,7.176a1.526,1.526,0,0,1-1.149,2.531Z" transform="translate(-224.836 -1335.846)" fill="#4789c8"/>
        </g>
      </g>
    </g>
  </g>
</svg>
