<svg xmlns="http://www.w3.org/2000/svg" xmlns:xlink="http://www.w3.org/1999/xlink" width="88.606" height="88.604" viewBox="0 0 88.606 88.604">
  <defs>
    <clipPath id="clip-path">
      <rect id="Rectangle_16244" data-name="Rectangle 16244" width="88.606" height="88.604" transform="translate(0 0)" fill="none"/>
    </clipPath>
  </defs>
  <g id="سياسة_استخدام_البيانات_المفتوحة" data-name="سياسة استخدام البيانات المفتوحة" transform="translate(0 0)">
    <g id="Group_125358" data-name="Group 125358" clip-path="url(#clip-path)">
      <path id="Path_130017" data-name="Path 130017" d="M66.953,88.6a1.814,1.814,0,0,1-.717-.147C65.38,88.092,45.3,79.336,45.3,61.493V46.324a1.83,1.83,0,0,1,1.243-1.732l19.821-6.743a1.825,1.825,0,0,1,1.177,0l19.818,6.741a1.833,1.833,0,0,1,1.246,1.734V61.493c0,17.756-20.081,26.6-20.937,26.969a1.883,1.883,0,0,1-.717.142M48.965,47.636V61.49c0,13.143,13.423,20.953,17.537,23.034l.451.228.451-.228c4.115-2.081,17.538-9.893,17.538-23.034V47.636L66.953,41.515Z" fill="#003462"/>
      <path id="Path_130018" data-name="Path 130018" d="M65.867,71.611a1.8,1.8,0,0,1-1.148-.53l-7.553-7.553a1.831,1.831,0,1,1,2.573-2.607L65.816,67,75.87,53.586A1.831,1.831,0,0,1,78.784,55.8L67.47,70.886a1.831,1.831,0,0,1-1.335.728Z" fill="#4789c8"/>
      <path id="Path_130019" data-name="Path 130019" d="M9.379,77.279A9.4,9.4,0,0,1,0,67.9V9.382A9.4,9.4,0,0,1,9.383,0H52.8a9.4,9.4,0,0,1,9.378,9.383v20.5a1.832,1.832,0,0,1-3.663,0V9.382A5.738,5.738,0,0,0,52.8,3.663H9.382A5.737,5.737,0,0,0,3.663,9.381V67.9A5.737,5.737,0,0,0,9.38,73.619h29.6a1.831,1.831,0,0,1,.1,3.66Z" fill="#003462"/>
      <path id="Path_130020" data-name="Path 130020" d="M13.157,33.864a1.831,1.831,0,1,1,0-3.663H49.026a1.831,1.831,0,0,1,0,3.663Z" fill="#4789c8"/>
      <path id="Path_130021" data-name="Path 130021" d="M13.157,48.965a1.832,1.832,0,1,1,0-3.663H33.921a1.832,1.832,0,1,1,0,3.663Z" fill="#4789c8"/>
      <path id="Path_130022" data-name="Path 130022" d="M13.157,18.764a1.832,1.832,0,1,1,0-3.663H30.145a1.832,1.832,0,1,1,0,3.663Z" fill="#4789c8"/>
    </g>
  </g>
</svg>
