<svg xmlns="http://www.w3.org/2000/svg" xmlns:xlink="http://www.w3.org/1999/xlink" width="88.606" height="88.604" viewBox="0 0 88.606 88.604">
  <defs>
    <clipPath id="clip-path">
      <rect id="Rectangle_16244" data-name="Rectangle 16244" width="88.606" height="88.604" fill="none"/>
    </clipPath>
  </defs>
  <g id="شروط_وضوابط_المشاركة_الإلكترونية" data-name="شروط وضوابط المشاركة الإلكترونية" transform="translate(0)">
    <g id="Group_125358" data-name="Group 125358" transform="translate(0 0)" clip-path="url(#clip-path)">
      <path id="Path_130018" data-name="Path 130018" d="M65.867,71.611a1.8,1.8,0,0,1-1.148-.53l-7.553-7.553a1.831,1.831,0,1,1,2.573-2.607L65.816,67,75.87,53.586A1.831,1.831,0,0,1,78.784,55.8L67.47,70.886a1.831,1.831,0,0,1-1.335.728Z" transform="translate(-47.144 -0.001)" fill="#4789c8"/>
      <path id="Path_130019" data-name="Path 130019" d="M52.8,77.279a9.4,9.4,0,0,0,9.379-9.38V9.382A9.4,9.4,0,0,0,52.8,0H9.378A9.4,9.4,0,0,0,0,9.383v20.5a1.832,1.832,0,0,0,3.663,0V9.382A5.738,5.738,0,0,1,9.376,3.663H52.8a5.737,5.737,0,0,1,5.719,5.718V67.9A5.737,5.737,0,0,1,52.8,73.619H23.2a1.831,1.831,0,0,0-.1,3.66Z" transform="translate(26.428 0)" fill="#003462"/>
      <path id="Path_130020" data-name="Path 130020" d="M49.025,33.864a1.831,1.831,0,1,0,0-3.663H13.156a1.831,1.831,0,0,0,0,3.663Z" transform="translate(26.424 0)" fill="#4789c8"/>
      <path id="Path_130021" data-name="Path 130021" d="M33.921,48.965a1.831,1.831,0,1,0,0-3.663H13.157a1.831,1.831,0,1,0,0,3.663Z" transform="translate(41.528 0)" fill="#4789c8"/>
      <path id="Path_130022" data-name="Path 130022" d="M30.145,18.764a1.831,1.831,0,1,0,0-3.663H13.157a1.831,1.831,0,1,0,0,3.663Z" transform="translate(45.304 0)" fill="#4789c8"/>
      <path id="Path_130078" data-name="Path 130078" d="M21,4A17,17,0,0,0,8.979,33.021,17,17,0,1,0,33.021,8.979,16.889,16.889,0,0,0,21,4m0-4A21,21,0,1,1,0,21,21,21,0,0,1,21,0Z" transform="translate(0.606 41.594)" fill="#003462"/>
    </g>
  </g>
</svg>
