<svg xmlns="http://www.w3.org/2000/svg" width="82.039" height="91.999" viewBox="0 0 82.039 91.999">
  <g id="قنوات_التواصل_الاجتماعي" data-name="قنوات التواصل الاجتماعي" transform="translate(-46.593 -0.001)">
    <path id="Subtraction_4" data-name="Subtraction 4" d="M8725.112,12605h-37.9a9.042,9.042,0,0,1-9.031-9.031v-35.936a13.808,13.808,0,0,0,3.15.362c.168,0,.313,0,.443-.007v35.58a5.444,5.444,0,0,0,5.438,5.438h37.9a5.444,5.444,0,0,0,5.438-5.437V12578.9a23,23,0,0,0,3.594-.941v18.011A9.042,9.042,0,0,1,8725.112,12605Zm-16.422-7.076h-5.058a1.8,1.8,0,0,1,0-3.594h5.058a1.8,1.8,0,0,1,0,3.594Zm15.419-7.014h-35.893a1.8,1.8,0,1,1,0-3.594h35.893a1.8,1.8,0,1,1,0,3.594Zm10.034-56.658h0a22.956,22.956,0,0,0-3.593-.942v-11.276a5.444,5.444,0,0,0-5.437-5.438h-37.9a5.444,5.444,0,0,0-5.437,5.438v10.889c-.164,0-.3-.007-.443-.007a13.792,13.792,0,0,0-3.15.363v-11.245a9.042,9.042,0,0,1,9.031-9.032h37.9a9.042,9.042,0,0,1,9.031,9.032v12.218Zm-16.5-8.739h-1.787a1.8,1.8,0,0,1,0-3.594h1.787a1.8,1.8,0,0,1,0,3.594Zm-9.81,0h-13.16a1.8,1.8,0,0,1,0-3.594h13.16a1.8,1.8,0,0,1,0,3.594Z" transform="translate(-8620.999 -12513)" fill="#003462"/>
    <g id="Group_125166" data-name="Group 125166" transform="translate(82.331 19.954)">
      <path id="Path_129882" data-name="Path 129882" d="M220.291,111.049a23.153,23.153,0,0,0-19.085,36.259l-2.721,6.983,7.337-2.018a23.151,23.151,0,1,0,14.468-41.224Z" transform="translate(-197.14 -111.049)" fill="#4789c8" opacity="0.2"/>
      <path id="Path_129883" data-name="Path 129883" d="M258.6,181.3a5.634,5.634,0,0,0-3.873,1.539L250,180.229a6.552,6.552,0,0,0,0-1.762l4.725-2.611a5.635,5.635,0,1,0-1.7-3.166l-4.486,2.479a6.514,6.514,0,1,0,0,8.358l4.486,2.479a5.654,5.654,0,1,0,5.574-4.7Zm0-11.621a2.06,2.06,0,1,1-2.06,2.06A2.062,2.062,0,0,1,258.6,169.681Zm-15.053,12.587a2.92,2.92,0,1,1,2.92-2.92A2.924,2.924,0,0,1,243.545,182.268Zm15.053,6.747a2.06,2.06,0,1,1,2.06-2.06A2.062,2.062,0,0,1,258.6,189.015Z" transform="translate(-229.863 -156.197)" fill="#4789c8"/>
    </g>
    <g id="twitter-color" transform="translate(46.593 19.916)">
      <path id="Path_130086" data-name="Path 130086" d="M210.88,111.049a13.742,13.742,0,0,1,11.327,21.52l1.615,4.145-4.355-1.2a13.74,13.74,0,1,1-8.587-24.467Z" transform="translate(-197.14 -111.049)" fill="#4789c8" opacity="0.2"/>
      <g id="Group_125492" data-name="Group 125492" transform="translate(4.562 6.092)">
        <path id="Path_130085" data-name="Path 130085" d="M318.356,165.811a7.351,7.351,0,0,1-2.163.608,3.853,3.853,0,0,0,1.656-2.135,7.425,7.425,0,0,1-2.393.936A3.713,3.713,0,0,0,312.708,164a3.815,3.815,0,0,0-3.765,3.862,3.936,3.936,0,0,0,.1.879,10.6,10.6,0,0,1-7.763-4.036,3.933,3.933,0,0,0-.509,1.943,3.887,3.887,0,0,0,1.675,3.214,3.7,3.7,0,0,1-1.707-.482v.047a3.839,3.839,0,0,0,3.022,3.786,3.591,3.591,0,0,1-.992.136,3.673,3.673,0,0,1-.709-.068,3.78,3.78,0,0,0,3.518,2.68,7.436,7.436,0,0,1-4.677,1.654,7.578,7.578,0,0,1-.9-.053,10.487,10.487,0,0,0,5.773,1.734c6.928,0,10.715-5.884,10.715-10.987,0-.168,0-.336-.01-.5a7.727,7.727,0,0,0,1.878-2" transform="translate(-300 -164)" fill="#4789c8" fill-rule="evenodd"/>
      </g>
    </g>
    <g id="facebook" transform="translate(61.735 49.048)">
      <path id="Path_130086-2" data-name="Path 130086" d="M206.865,111.049a9.727,9.727,0,0,0-8.017,15.232l-1.143,2.934,3.082-.848a9.725,9.725,0,1,0,6.078-17.318Z" transform="translate(-197.14 -111.049)" fill="#4789c8" opacity="0.2"/>
      <path id="bxl-facebook" d="M11.264,14.667V9.354h1.793l.266-2.08H11.264V5.948c0-.6.167-1.011,1.029-1.011h1.092V3.082A14.48,14.48,0,0,0,11.785,3,2.5,2.5,0,0,0,9.113,5.743V7.27H7.332V9.35H9.117v5.317Z" transform="translate(-0.633 1.312)" fill="#4789c8"/>
    </g>
  </g>
</svg>
