<svg xmlns="http://www.w3.org/2000/svg" width="84.739" height="94.343" viewBox="0 0 84.739 94.343">
  <g id="مجتمع_سفراء_التجربة_الرقمية" data-name="مجتمع سفراء التجربة الرقمية" transform="translate(-915.721 -809)">
    <g id="Group_125489" data-name="Group 125489" transform="translate(928.536 811)">
      <circle id="Ellipse_11164" data-name="Ellipse 11164" cx="4.736" cy="4.736" r="4.736" transform="translate(24.386)" fill="none" stroke="#003462" stroke-width="4"/>
      <circle id="Ellipse_11165" data-name="Ellipse 11165" cx="4.736" cy="4.736" r="4.736" transform="translate(43.328)" fill="none" stroke="#003462" stroke-width="4"/>
      <circle id="Ellipse_11166" data-name="Ellipse 11166" cx="4.736" cy="4.736" r="4.736" transform="translate(5.444)" fill="none" stroke="#003462" stroke-width="4"/>
      <line id="Line_8614" data-name="Line 8614" y2="20.836" transform="translate(29.595 9.945)" fill="none" stroke="#003462" stroke-width="4"/>
      <path id="Path_130081" data-name="Path 130081" d="M0,0V13.674L10.179,21.06" transform="translate(48.064 9.945)" fill="none" stroke="#003462" stroke-width="4"/>
      <path id="Path_130082" data-name="Path 130082" d="M10.179,0V13.674L0,21.06" transform="translate(0 9.945)" fill="none" stroke="#003462" stroke-width="4"/>
    </g>
    <g id="Group_125491" data-name="Group 125491" transform="translate(915.721 839.736)">
      <path id="Path_130083" data-name="Path 130083" d="M62.781,28.6H77.762l3.665,4.362V45.389H72.981l-2.55-8.605Z" fill="#4789c8" opacity="0.2"/>
      <path id="Path_130084" data-name="Path 130084" d="M81.428,28.6H66.447l-3.665,4.362V45.389h8.447l2.55-8.605Z" transform="translate(-59.952)" fill="#4789c8" opacity="0.2"/>
      <circle id="Ellipse_11167" data-name="Ellipse 11167" cx="9" cy="9" r="9" transform="translate(61.369 2.106)" fill="#4789c8" opacity="0.2"/>
      <circle id="Ellipse_11168" data-name="Ellipse 11168" cx="9" cy="9" r="9" transform="translate(5.369 2.106)" fill="#4789c8" opacity="0.2"/>
      <g id="Ellipse_11161" data-name="Ellipse 11161" transform="translate(3.829 0)" fill="none" stroke="#4789c8" stroke-width="4">
        <circle cx="10.473" cy="10.473" r="10.473" stroke="none"/>
        <circle cx="10.473" cy="10.473" r="8.473" fill="none"/>
      </g>
      <g id="Path_130078" data-name="Path 130078" transform="translate(0 14.769)" fill="none">
        <path d="M25.739,13.778A24.684,24.684,0,0,0,14.123,34.715H7.062A7.083,7.083,0,0,1,0,27.654V20.592A10.624,10.624,0,0,1,10.592,10h7.062a10.592,10.592,0,0,1,8.085,3.778Z" stroke="none"/>
        <path d="M 10.59848785400391 14 C 8.838766098022461 14.00675392150879 7.184595108032227 14.69562721252441 5.940114974975586 15.94010925292969 C 4.695632934570312 17.18459129333496 4.006759643554688 18.83876037597656 4.000003814697266 20.59848403930664 L 4.000003814697266 27.64712524414062 C 4.00788688659668 29.33266258239746 5.382778167724609 30.70755577087402 7.068317413330078 30.71543884277344 L 10.39819717407227 30.71543502807617 C 11.27999401092529 24.35163879394531 14.24963760375977 18.53604316711426 18.83953094482422 14.11124610900879 C 18.45012855529785 14.03886985778809 18.05178833007812 14.00112533569336 17.64856719970703 14 L 10.59848785400391 14 M 10.59233379364014 10 L 17.65388488769531 10 C 20.77392387390137 10.00703811645508 23.73214340209961 11.3892707824707 25.73936462402344 13.77793884277344 C 18.51486396789551 18.28608894348145 14.12432384490967 26.19974899291992 14.12311458587646 34.71543121337891 L 7.061553955078125 34.71543884277344 C 3.166393280029297 34.70381164550781 0.01163482666015625 31.54903984069824 3.814697265625e-06 27.65388870239258 L 3.814697265625e-06 20.59232902526855 C 0.01745414733886719 14.74958992004395 4.749593734741211 10.01744842529297 10.59233379364014 10 Z M 25.73936462402344 13.77792930603027 L 25.73936462402344 13.77793884277344 C 25.73936462402344 13.77792930603027 25.73936462402344 13.77792930603027 25.73936462402344 13.77792930603027 Z" stroke="none" fill="#4789c8"/>
      </g>
      <g id="Ellipse_11162" data-name="Ellipse 11162" transform="translate(59.964 0)" fill="none" stroke="#4789c8" stroke-width="4">
        <circle cx="10.473" cy="10.473" r="10.473" stroke="none"/>
        <circle cx="10.473" cy="10.473" r="8.473" fill="none"/>
      </g>
      <g id="Path_130079" data-name="Path 130079" transform="translate(42.291 14.769)" fill="none">
        <path d="M42.447,20.592v7.062a7.083,7.083,0,0,1-7.062,7.062H28.324A24.682,24.682,0,0,0,16.711,13.78,10.592,10.592,0,0,1,24.793,10h7.062A10.624,10.624,0,0,1,42.447,20.592Z" stroke="none"/>
        <path d="M 24.80088043212891 14 C 24.39717102050781 14.00127601623535 23.9984130859375 14.03922653198242 23.60857772827148 14.1119270324707 C 28.19888114929199 18.53693199157715 31.1680736541748 24.3523063659668 32.04943466186523 30.71543884277344 L 35.37891387939453 30.71543884277344 C 37.064453125 30.70755577087402 38.43935394287109 29.3326530456543 38.44723892211914 27.64711380004883 L 38.44723892211914 20.59848403930664 C 38.44048309326172 18.83876037597656 37.75160980224609 17.18459129333496 36.50712585449219 15.94010925292969 C 35.26265716552734 14.69562721252441 33.60848617553711 14.00675392150879 31.84876441955566 14 L 24.80088043212891 14 M 24.79335784912109 10 L 31.85491943359375 10 C 37.69764709472656 10.01744842529297 42.42978668212891 14.74958992004395 42.44723892211914 20.59232902526855 L 42.44723892211914 27.65388870239258 C 42.43560028076172 31.54903984069824 39.28084945678711 34.70380020141602 35.38568878173828 34.71543884277344 L 28.32413864135742 34.71543884277344 C 28.32413864135742 26.20324897766113 23.93470764160156 18.28895950317383 16.71083831787109 13.7797794342041 C 18.71703720092773 11.39120864868164 21.67406845092773 10.00836944580078 24.79335784912109 10 Z" stroke="none" fill="#4789c8"/>
      </g>
      <g id="Ellipse_11163" data-name="Ellipse 11163" transform="translate(27.288 0)" fill="none" stroke="#003462" stroke-width="4">
        <ellipse cx="15.081" cy="14.298" rx="15.081" ry="14.298" stroke="none"/>
        <ellipse cx="15.081" cy="14.298" rx="13.081" ry="12.298" fill="none"/>
      </g>
      <g id="Path_130080" data-name="Path 130080" transform="translate(15.185 19.83)" fill="none">
        <path d="M48.369,29.654v3.531A10.624,10.624,0,0,1,37.777,43.777H16.592A10.624,10.624,0,0,1,6,33.185V29.654A17.654,17.654,0,0,1,23.654,12h7.062A17.654,17.654,0,0,1,48.369,29.654Z" stroke="none"/>
        <path d="M 37.77083587646484 39.77700042724609 C 39.53055953979492 39.77024459838867 41.18473052978516 39.08137130737305 42.4292106628418 37.83689880371094 C 43.67368316650391 36.5924186706543 44.36255645751953 34.9382209777832 44.36932373046875 33.17849731445312 L 44.36932373046875 29.65388107299805 C 44.36932373046875 26.00679969787598 42.94906997680664 22.57801055908203 40.37019348144531 19.99913024902344 C 37.79131317138672 17.42024993896484 34.36252212524414 16 30.7154426574707 16 L 23.65389251708984 16 C 20.00680160522461 16 16.57801246643066 17.42024993896484 13.99913215637207 19.99913024902344 C 11.42025184631348 22.57801055908203 10.00000190734863 26.00679969787598 10.00000190734863 29.65388107299805 L 10.00000190734863 33.17851638793945 C 10.00675678253174 34.93824005126953 10.69563102722168 36.5924186706543 11.94011211395264 37.83689880371094 C 13.18459320068359 39.08137130737305 14.83876323699951 39.77024459838867 16.59847640991211 39.77700042724609 L 37.77083587646484 39.77700042724609 M 37.77698135375977 43.77700042724609 L 16.59233093261719 43.77700042724609 C 10.74959182739258 43.75955963134766 6.017451763153076 39.02740859985352 6.000001907348633 33.18466949462891 L 6.000001907348633 29.65388107299805 C 6.000001907348633 19.90390968322754 13.90392208099365 12 23.65389251708984 12 L 30.7154426574707 12 C 40.46541213989258 12 48.36932373046875 19.90392112731934 48.36932373046875 29.65388107299805 L 48.36932373046875 33.18466949462891 C 48.35186004638672 39.02740859985352 43.61973190307617 43.75955963134766 37.77698135375977 43.77700042724609 Z" stroke="none" fill="#003462"/>
      </g>
    </g>
  </g>
</svg>
