<svg xmlns="http://www.w3.org/2000/svg" width="60" height="60" viewBox="0 0 60 60">
  <g id="News-article" transform="translate(-930 -983)">
    <circle id="Ellipse_11764" data-name="Ellipse 11764" cx="30" cy="30" r="30" transform="translate(930 983)" fill="rgba(99,190,106,0.2)"/>
    <g id="News_article" data-name="News article" transform="translate(-148.644 -1617.175)">
      <path id="Path_129909" data-name="Path 129909" d="M-14557.657-6106.079v-25.471h24.141v26.155s.072,2.656-1.251,3.979-4.045,1.315-4.045,1.315h-21.086s-2.791.008-4.114-1.315-1.181-3.979-1.181-3.979v-15.352h2.827" transform="translate(15658.001 8746)" fill="none" stroke="#60ac66" stroke-linecap="round" stroke-linejoin="round" stroke-width="2.5"/>
      <path id="Path_129910" data-name="Path 129910" d="M-14552.041-6125.351h4.89" transform="translate(15657.876 8745.941)" fill="none" stroke="#60ac66" stroke-linecap="round" stroke-linejoin="round" stroke-width="2.5"/>
      <path id="Path_129911" data-name="Path 129911" d="M-14552.041-6121.021h12.54" transform="translate(15657.876 8745.901)" fill="none" stroke="#60ac66" stroke-linecap="round" stroke-linejoin="round" stroke-width="2.5"/>
      <path id="Path_129911-2" data-name="Path 129911" d="M-14552.041-6121.021h12.54" transform="translate(15657.876 8750.38)" fill="none" stroke="#60ac66" stroke-linecap="round" stroke-linejoin="round" stroke-width="2.5"/>
      <path id="Path_129911-3" data-name="Path 129911" d="M-14552.041-6121.021h12.54" transform="translate(15657.876 8754.859)" fill="none" stroke="#60ac66" stroke-linecap="round" stroke-linejoin="round" stroke-width="2.5"/>
      <path id="Path_129911-4" data-name="Path 129911" d="M-14552.041-6121.021h12.54" transform="translate(15657.876 8759.339)" fill="none" stroke="#60ac66" stroke-linecap="round" stroke-linejoin="round" stroke-width="2.5"/>
    </g>
  </g>
</svg>
