<svg xmlns="http://www.w3.org/2000/svg" width="38.561" height="45.781" viewBox="0 0 38.561 45.781">
  <path id="file-pdf" d="M18.477,18.6a.809.809,0,0,0-1.607,0,14.154,14.154,0,0,0,.918,4.493A20.948,20.948,0,0,0,18.477,18.6ZM25.707,0V11.445H38.561ZM8.033,37.769a.833.833,0,0,0,1.444.57c.491-.615,1.448-1.858,2.583-3.592a16.831,16.831,0,0,0-3.818,2.531A.67.67,0,0,0,8.033,37.769Zm14.46-26.324V0H4.82A4.579,4.579,0,0,0,0,4.292v37.2a4.58,4.58,0,0,0,4.82,4.292H33.74a4.579,4.579,0,0,0,4.82-4.292V14.306H25.8A3.078,3.078,0,0,1,22.494,11.445ZM29.322,27.9a4.2,4.2,0,0,1,4.418,3.934,4.1,4.1,0,0,1-4.331,3.934,5.938,5.938,0,0,1-1.729-.251A22.281,22.281,0,0,1,22.2,33.066a43.36,43.36,0,0,0-6.458,1.708A52.469,52.469,0,0,1,12.092,40a4.31,4.31,0,0,1-3.262,1.492A3.813,3.813,0,0,1,4.82,37.921a3.436,3.436,0,0,1,1.123-2.639,21.98,21.98,0,0,1,6.328-3.849,50.575,50.575,0,0,0,3.046-6.182,17.8,17.8,0,0,1-1.66-6.652,3.821,3.821,0,0,1,4.017-3.577A3.82,3.82,0,0,1,21.69,18.6a25.014,25.014,0,0,1-.9,5.6q-.152.439-.309.869a13.407,13.407,0,0,0,2.956,3.4A54.392,54.392,0,0,1,28.88,27.9ZM15.715,31.707a48.077,48.077,0,0,1,5.314-1.358,16.421,16.421,0,0,1-2.992-3.412A52.231,52.231,0,0,1,15.715,31.707Zm13.7,1.2a1.063,1.063,0,0,0,1.115-.993,1.161,1.161,0,0,0-1.205-1.153h-.4c-.035,0-1.69.087-4.112.425a19.587,19.587,0,0,0,3.9,1.62A2.464,2.464,0,0,0,29.412,32.9Z" fill="#ee5151"/>
</svg>
