<svg xmlns="http://www.w3.org/2000/svg" width="86" height="86" viewBox="0 0 86 86">
  <g id="chal-icon" transform="translate(-3)">
    <g id="Rectangle_16254" data-name="Rectangle 16254" transform="translate(3)" fill="#fff" stroke="#4789c8" stroke-width="2">
      <rect width="86" height="86" rx="14" stroke="none"/>
      <rect x="1" y="1" width="84" height="84" rx="13" fill="none"/>
    </g>
    <path id="Path_130084" data-name="Path 130084" d="M52.768,42.711A22.535,22.535,0,0,1,50.9,44.174a22.874,22.874,0,0,1-3.406,1.99,23.477,23.477,0,0,1-9.62,2.213,29.6,29.6,0,0,1-5.581-.421,23.58,23.58,0,0,1-5.567-1.7,20.409,20.409,0,0,1-4.9-3.191,21.029,21.029,0,0,1-3.679-4.3,24.338,24.338,0,0,1-2.378-4.7c-.572-1.557-1.044-3.018-1.586-4.332a28.05,28.05,0,0,0-1.666-3.482,14.918,14.918,0,0,0-1.727-2.417A11.135,11.135,0,0,0,9.4,22.509c-.349-.276-.548-.408-.548-.408s.21.111.588.352a9.68,9.68,0,0,1,1.527,1.207A18.938,18.938,0,0,1,14.6,28.9a23.827,23.827,0,1,1,38.168,13.81ZM26.708,4.355H25.382l1.023-.739c-.553.318-1.094.656-1.619,1.017h.065l.551.3,1.039.216.082.4,1.653.059-.225-.513-1.468-.041.346-.315ZM58.991,14.6,58.9,13.79c-.04-.079-.082-.155-.12-.235l-.569.3-.353,1.34-.95-.977-.037-.923-.914-.763-.338-.325H54.557l.333.915,1.279.69.222.228-.278.135.013.725-.622.252-.532-.113-.332-.455.866.044.235-.3-1.916-1.25-.149-.532-.776.68-.789-.156-1.2,1.51-.236.591-.769.067-1.137.008-.678-.308-.2-1.3L48.133,13l1.155-.244L50.55,13l.154-.673-.536-.124.184-1.052,1.269-.192L52.51,9.75l.915-.148.827.119h.3l-.168-1.139-1,.392-.355-.851-.583-.079-.111-.583.476-.5.793-.3A23.135,23.135,0,0,0,26.947,3.309h1.27l.652.87,1.082.058.651-.612.49.237-.9.848s-1.242.021-1.181.021a3.944,3.944,0,0,1,.1.828l1.509-.042.163-.394,1.039-.059.123-.591-.612-.1.2-.532.469-.138,1.63.079-.9.789.146.61.937.138-.062-1.1.9-.455,1.59-.177,2.3.987v.848l.734.178-.368.671H37.879l-.308.769L35.2,6.493l1.869-.964-.711-.585-1.611.2-.141.142,0,0-.025.034-.466.466-.766.062.061.369.268.106-.011.122-.624.086-.046.35-.6.029-.106-.695-1.07.315L29.029,7.764l.245.87.612.387,1.223.163v1.345l.564-.087.522-1.051,1.3-.4V7.38l.723-.528,1.749.4-.123,1.066h.47l1.286-.61.059,1.4.935.553-.038.829-.9.3.06.275,1.08.477-.023.571-.311.027a.051.051,0,0,0,0-.016L37.1,11.708l-.058-.424h0l.4-.266v-.387l-.429-.1-.106.356-.753.112-.074-.023v.036l-.26.039-.214-.416-.245-.1h-.535l-.244.194v.43l.458.148.451.061-.1.045-.413.442-.182-.221-.4-.1-1.086.989.141.113-1.6.859-1.093,1.1a5.383,5.383,0,0,0-1.572-1.428,5.943,5.943,0,0,1-2.161,4.414v-.06h-2.9l-1.5.734-.651,1.161-.258.921.321.679c-.364.373-.7.757-1.007,1.143l-1.154-.278L19.014,20.6l.35-.618-1.356-1.915-.233-1.4h-.55l.183,1.36.937,1.4-.1.554-.794-.119-.979-1.612V16.368l-.5-.23A23.526,23.526,0,0,0,16.351,32.8l-.021.066c.113.281.227.561.343.845.005.013.012.027.018.04l.043-.064A23.46,23.46,0,0,0,30.681,46.236c.611.165,1.224.315,1.844.431a31.66,31.66,0,0,0,5.344.519,24.237,24.237,0,0,0,9.315-1.732c.16-.066.31-.133.465-.2A23.49,23.49,0,0,0,56.258,38.4V37.221L55.322,36V34.1l-.715-.692-.062-.789.909-1.677L53.732,28l.2-1.993-1.55-.155-.571-.553H50.773l-.53.474H48.407l-.062.157H47.323l-2.343-2.583L45,21.338l.388-.136.144-.771h-.55l-.225-.808,2.712-1.893V16.388l1.326-.714.539.052h1.09l.855-.444,2.753-.207v1.361l2.178.534.426.3h.4v-.741l1.252-.118,1.193.859h.76q-.326-1.088-.75-2.133Zm-10.5-5.377.66-.149.47.2-.042.513-1.01.691H48V9.985h0Zm1.823.631-.051-.385-.553-.334-.385-.257V8.506l.223-.335.807-.159.2.947.431.671.284.316.519.2-.49.563-.947.088h-.713l.079-.819Zm-9.1,21.734-.307,2.856-.947.726-1.407-.04-.469.786.347,1.482L36.9,39.292l-.488.873-1.458.676-.96.142-.04.394.674.186-.082.423-.6.563.366.447.726.019-.041.54-.193.533-.062.433,1.074.875-.144.454-1.459-.027L32.761,44.6l-1.131-1.924.159-1.858-.858-1.1.346-1.873-.509-.137V33.634s-1.428-1.048-1.51-1.048-.756-.176-.756-.176l-.143-.768-.707-.857c.448-.244.9-.508,1.333-.805a9.161,9.161,0,0,0,3.6-5.928l.462-.027.042-.414.8.374.9,1.361,1.549.02.572.968.081,1.183,1.714.628,2.162.025.632,1,.959.3-.183.831ZM36.109,12.329l-.071.325-.269.162-.431.035c-.013-.1-.022-.172-.022-.172h-.168v-.35h.7l.144-.364.281,0,.321.064-.137.274Zm-1.954.618.027-.344.229-.275.307.232-.051.344Zm-2.7,10.978a9.809,9.809,0,0,1-.986,2.714c-.053.1-.1.192-.16.287-.077.127-.159.25-.243.372s-.167.237-.254.352c-.077.1-.154.2-.237.292-.114.135-.236.259-.361.382-.07.07-.136.142-.21.208a6.047,6.047,0,0,1-.648.515c-.237.16-.477.311-.718.455-.214.128-.43.246-.645.361l-.074.042a20.064,20.064,0,0,1-7.286,2.121c.089-1.841,2.418-5.778,5.965-8.4-3.92.653-6.621,4.683-6.621,4.683a17.827,17.827,0,0,1,3.828-6.149,13.152,13.152,0,0,1,2.4-1.951l0,0a11.691,11.691,0,0,1,1.434-.783,10.591,10.591,0,0,0,1.253-.661l.144-.089c1.166-.758,1.856-1.651,1.8-2.623,1.671,1.7,2.232,4.934,1.62,7.868A.023.023,0,0,0,31.46,23.925ZM20.385,27.6A7.846,7.846,0,0,1,21.5,26.53l-.771,1.318c-.227.393-.485.852-.749,1.346s-.537,1.023-.75,1.572a8.07,8.07,0,0,0-.32.814c-.106.27-.166.543-.248.805-.066.264-.1.523-.159.768-.022.249-.043.485-.062.7.009.22.017.422.026.6a2.318,2.318,0,0,0,.07.466c.049.266.075.419.075.419s-.081-.128-.214-.369a1.842,1.842,0,0,1-.209-.452c-.054-.183-.127-.394-.174-.63-.024-.237-.058-.5-.066-.774a8.12,8.12,0,0,1,.073-.862,6.761,6.761,0,0,1,.206-.9,8.319,8.319,0,0,1,.32-.886c.122-.291.263-.571.41-.842s.313-.523.463-.773A10.867,10.867,0,0,1,20.385,27.6ZM5.934,20.721a11.171,11.171,0,0,1,6.222,8.259S6.334,27.937,2.675,24.1s-3.459-11.062.017-13.838c-.038,2.095,1.714,2.3,3.634,3.715,5.4,3.982,7.126,7.957,7.04,11.7C12.284,22.089,9.212,20.812,5.934,20.721Z" transform="translate(15.118 18.814)" fill="#003462" fill-rule="evenodd"/>
  </g>
</svg>
