<svg xmlns="http://www.w3.org/2000/svg" width="212.396" height="211.548" viewBox="0 0 212.396 211.548">
  <path id="golas-bg" d="M1547.124,875.413l-6.509,6.512-1.206-1.241a11.762,11.762,0,0,0-19.223,3.849l-8.707,21.167a9.1,9.1,0,0,0-.432,5.9l-68.314,68.586a4.651,4.651,0,0,0,3.276,7.936,4.589,4.589,0,0,0,3.277-1.363l68.314-68.586a9.053,9.053,0,0,0,5.906-.4l21.076-8.745a11.848,11.848,0,0,0,3.837-19.292l-1.25-1.242,6.508-6.517a4.642,4.642,0,1,0-6.551-6.572Zm-21.852,46.665a13.785,13.785,0,0,1-5.3,1.069h-.733l-3.922,3.935a89.773,89.773,0,1,1-13.017-13.236l3.837-3.849a14.628,14.628,0,0,1,1.034-6.035l.344-.775a101.977,101.977,0,1,0,18.4,18.658Zm-39.135,7.956a66.444,66.444,0,0,0-40.859-13.977,67.374,67.374,0,1,0,53.877,27.218l-8.276,8.332a55.6,55.6,0,1,1-12.973-13.276Zm-25.817,25.93a31.549,31.549,0,1,0,12.844,13.408l-20.6,20.688a9.111,9.111,0,0,1-6.552,2.724,9.3,9.3,0,0,1-6.552-15.874Z" transform="translate(-1342.74 -873.964)" fill="#fff" opacity="0.41"/>
</svg>
