<svg xmlns="http://www.w3.org/2000/svg" width="60" height="60" viewBox="0 0 60 60">
  <g id="hd-icon4" transform="translate(-930 -983)">
    <circle id="Ellipse_11764" data-name="Ellipse 11764" cx="30" cy="30" r="30" transform="translate(930 983)" fill="rgba(99,190,106,0.2)"/>
    <path id="Path_130088" data-name="Path 130088" d="M1349.537,3848.071l1.5,1.253c1.122.946.858,1.877-.594,2.082l-4.912.7a1.164,1.164,0,0,1-1.349-1.136l-.169-4.97c-.051-1.473.814-1.891,1.936-.953l1.6,1.349a18,18,0,1,1-3.372,16.928,1.3,1.3,0,1,1,2.485-.777,15.322,15.322,0,1,0,2.881-14.472Zm19.618,5.037.931.938a.68.68,0,0,1-.007.953l-8.424,8.453a.679.679,0,0,1-.953.008l-6.569-6.591a.663.663,0,0,1,.007-.946l.931-.931a.666.666,0,0,1,.931-.015l5.168,5.191,7.038-7.06a.66.66,0,0,1,.946,0Z" transform="translate(-401.678 -2844.942)" fill="#63be6a"/>
  </g>
</svg>
