<svg xmlns="http://www.w3.org/2000/svg" width="31.296" height="36" viewBox="0 0 31.296 36">
  <path id="icon1" d="M1358.412,431.707V447.35l11.539,10.326c2.081-2.668,4.529-6.657,4.529-10.326C1374.481,438.715,1366.908,431.707,1358.412,431.707Zm12.312,8.116-1.584.929a.609.609,0,0,0-.288.378.6.6,0,0,0,.052.458.612.612,0,0,0,.524.3.6.6,0,0,0,.308-.086l1.584-.929Zm-11.624-3.993a.612.612,0,0,0,.6-.625v-1.857H1358.5v1.859a.612.612,0,0,0,.6.628Zm0,23.039a.612.612,0,0,0-.6.624v1.86h1.191V459.5a.612.612,0,0,0-.6-.622Zm11.323-11.52a.612.612,0,0,0,.615.609h1.826v-1.217h-1.826a.611.611,0,0,0-.615.613Zm-22.646,0a.613.613,0,0,0-.615-.609h-1.833v1.217h1.833a.612.612,0,0,0,.615-.6Zm5.367-9.9a.58.58,0,0,0,.295-.081.589.589,0,0,0,.275-.37.635.635,0,0,0-.066-.475l-.916-1.61-1.034.609.916,1.611a.617.617,0,0,0,.53.319Zm11.912,19.793a.589.589,0,0,0-.569.451.631.631,0,0,0,.065.474l.91,1.611,1.041-.609-.916-1.611a.616.616,0,0,0-.53-.313Zm-16.284-4.437a.6.6,0,0,0-.308.086l-1.584.93.6,1.054,1.584-.931a.614.614,0,0,0,.229-.838.589.589,0,0,0-.517-.3Zm0-10.918a.593.593,0,0,0,.517-.3.616.616,0,0,0-.229-.839l-1.584-.93-.6,1.055,1.584.929a.6.6,0,0,0,.308.088Zm20.657,10.918a.61.61,0,0,0-.524.3.624.624,0,0,0,.236.839l1.584.93.6-1.054-1.584-.929a.6.6,0,0,0-.308-.084Zm-4.667-15.436a.589.589,0,0,0,.294.081h0a.617.617,0,0,0,.53-.316l.917-1.611-1.034-.609-.917,1.611a.632.632,0,0,0-.065.474.589.589,0,0,0,.275.373Zm-11.323,19.954a.585.585,0,0,0-.295-.08.617.617,0,0,0-.53.315l-.916,1.611,1.034.609.916-1.611a.63.63,0,0,0,.066-.473.588.588,0,0,0-.275-.368ZM1359.1,431.7a15.648,15.648,0,1,0,15.381,15.643A15.648,15.648,0,0,0,1359.1,431.7Zm0,29.481a13.838,13.838,0,1,1,13.6-13.837,13.838,13.838,0,0,1-13.6,13.837Zm0-33.329c-.844,0-1.531.45-1.531,1v3.432c0,.554.687,1,1.531,1s1.532-.448,1.532-1v-3.432c0-.551-.687-1-1.532-1Zm4.045.785A1.646,1.646,0,0,0,1361.5,427h-4.8a1.644,1.644,0,1,0,0,3.288h4.8a1.646,1.646,0,0,0,1.643-1.643Zm8.476,7.854,1.545-2a1.418,1.418,0,0,0-.235-1.972l-2.618-2.094a1.363,1.363,0,0,0-1.937.236l-1.486,1.923a15.547,15.547,0,0,1,4.732,3.9Z" transform="translate(-1343.185 -426.998)" fill="#63be6a"/>
</svg>
