<svg xmlns="http://www.w3.org/2000/svg" width="36" height="35.856" viewBox="0 0 36 35.856">
  <path id="icon2" d="M1377.382,874.209l-1.1,1.1-.2-.21a1.994,1.994,0,0,0-3.258.652l-1.476,3.588a1.543,1.543,0,0,0-.073,1l-11.579,11.625a.788.788,0,0,0,.555,1.345.778.778,0,0,0,.555-.231l11.579-11.625a1.534,1.534,0,0,0,1-.067l3.572-1.482a2.008,2.008,0,0,0,.65-3.27l-.212-.21,1.1-1.1a.787.787,0,1,0-1.11-1.114Zm-3.7,7.91a2.337,2.337,0,0,1-.9.181h-.124l-.665.667a15.216,15.216,0,1,1-2.206-2.243l.65-.652a2.482,2.482,0,0,1,.175-1.023l.058-.131a17.285,17.285,0,1,0,3.119,3.162Zm-6.633,1.349a11.262,11.262,0,0,0-6.925-2.369,11.42,11.42,0,1,0,9.132,4.613l-1.4,1.412a9.424,9.424,0,1,1-2.2-2.25Zm-4.376,4.395a5.347,5.347,0,1,0,2.177,2.273l-3.492,3.507a1.544,1.544,0,0,1-1.11.462,1.576,1.576,0,0,1-1.111-2.691Z" transform="translate(-1342.74 -873.964)" fill="#63be6a"/>
</svg>
