<svg xmlns="http://www.w3.org/2000/svg" width="59.999" height="60" viewBox="0 0 59.999 60">
  <g id="insta" transform="translate(0.25 0.25)">
    <g id="Group_23146" data-name="Group 23146" transform="translate(-0.25 -0.25)">
      <g id="Group_23145" data-name="Group 23145">
        <path id="Path_605" data-name="Path 605" d="M43.833,0H14.614A14.653,14.653,0,0,0,0,14.609v29.22A14.655,14.655,0,0,0,14.614,58.439H43.833A14.655,14.655,0,0,0,58.442,43.829V14.609A14.653,14.653,0,0,0,43.833,0Zm9.739,43.829a9.75,9.75,0,0,1-9.739,9.739H14.614a9.752,9.752,0,0,1-9.739-9.739V14.609A9.751,9.751,0,0,1,14.614,4.87H43.833a9.749,9.749,0,0,1,9.739,9.739Z" transform="translate(0.776 0.781)" fill="#008941"/>
        <path id="Path_605_-_Outline" data-name="Path 605 - Outline" d="M15.145-.25H44.364a15.407,15.407,0,0,1,15.39,15.39V44.36a15.407,15.407,0,0,1-15.39,15.39H15.145A15.407,15.407,0,0,1-.245,44.36V15.14A15.407,15.407,0,0,1,15.145-.25ZM44.364,58.189A13.844,13.844,0,0,0,58.192,44.36V15.14A13.844,13.844,0,0,0,44.364,1.311H15.145A13.844,13.844,0,0,0,1.316,15.14V44.36A13.844,13.844,0,0,0,15.145,58.189ZM15.145,4.62H44.364a10.532,10.532,0,0,1,10.52,10.52V44.36a10.532,10.532,0,0,1-10.52,10.52H15.145A10.532,10.532,0,0,1,4.625,44.36V15.14A10.532,10.532,0,0,1,15.145,4.62Zm29.219,48.7a8.969,8.969,0,0,0,8.959-8.959V15.14a8.969,8.969,0,0,0-8.959-8.959H15.145A8.969,8.969,0,0,0,6.186,15.14V44.36a8.969,8.969,0,0,0,8.959,8.959Z" transform="translate(0.245 0.25)" fill="#008941"/>
      </g>
    </g>
    <g id="Group_23148" data-name="Group 23148" transform="translate(41.145 9.49)">
      <g id="Group_23147" data-name="Group 23147" transform="translate(0 0)">
        <circle id="Ellipse_172" data-name="Ellipse 172" cx="3.652" cy="3.652" r="3.652" transform="translate(0.781 0.781)" fill="#008941"/>
        <path id="Ellipse_172_-_Outline" data-name="Ellipse 172 - Outline" d="M4.183-.25A4.433,4.433,0,1,1-.25,4.183,4.438,4.438,0,0,1,4.183-.25Zm0,7.3A2.872,2.872,0,1,0,1.311,4.183,2.875,2.875,0,0,0,4.183,7.055Z" transform="translate(0.25 0.25)" fill="#008941"/>
      </g>
    </g>
    <g id="Group_23150" data-name="Group 23150" transform="translate(14.359 14.36)">
      <g id="Group_23149" data-name="Group 23149" transform="translate(0 0)">
        <path id="Path_606" data-name="Path 606" d="M117.014,102.4a14.61,14.61,0,1,0,14.609,14.609A14.608,14.608,0,0,0,117.014,102.4Zm0,24.35a9.74,9.74,0,1,1,9.739-9.741A9.74,9.74,0,0,1,117.014,126.75Z" transform="translate(-101.624 -101.619)" fill="#008941"/>
        <path id="Path_606_-_Outline" data-name="Path 606 - Outline" d="M117.545,102.15a15.391,15.391,0,1,1-15.39,15.39A15.407,15.407,0,0,1,117.545,102.15Zm0,29.22a13.829,13.829,0,1,0-13.829-13.83A13.845,13.845,0,0,0,117.545,131.37Zm0-24.35a10.521,10.521,0,1,1-10.52,10.52A10.532,10.532,0,0,1,117.545,107.02Zm0,19.48a8.959,8.959,0,1,0-8.959-8.96A8.97,8.97,0,0,0,117.545,126.5Z" transform="translate(-102.155 -102.15)" fill="#008941"/>
      </g>
    </g>
  </g>
</svg>
