<svg xmlns="http://www.w3.org/2000/svg" width="64" height="60" viewBox="0 0 64 60">
  <g id="snapchat" transform="translate(0)">
    <g id="Group_57049" data-name="Group 57049" transform="translate(0)">
      <path id="Path_125112" data-name="Path 125112" d="M233.616,262h-.16l-1.1.012a18.585,18.585,0,0,0-7.317,1.544,16.3,16.3,0,0,0-4.667,3.085,17.417,17.417,0,0,0-3.9,5.59c-1.431,3.2-1.091,8.584-.819,12.912v.007c.029.464.06.948.088,1.42a2.508,2.508,0,0,1-1.051.2,6.961,6.961,0,0,1-2.851-.764,2.561,2.561,0,0,0-1.085-.223,3.865,3.865,0,0,0-1.917.535,2.653,2.653,0,0,0-1.353,1.732,2.385,2.385,0,0,0,.911,2.245,7.824,7.824,0,0,0,2.384,1.364c.272.107.593.208.936.316,1.184.376,2.979.944,3.445,2.041a2.644,2.644,0,0,1-.3,2.173.715.715,0,0,0-.033.073,21.049,21.049,0,0,1-3.221,4.985,18.061,18.061,0,0,1-3.889,3.432,14.31,14.31,0,0,1-5.46,2.127A1.5,1.5,0,0,0,201,308.363a1.917,1.917,0,0,0,.155.651s0,0,0,0a4.007,4.007,0,0,0,2.167,1.853,24.83,24.83,0,0,0,6.259,1.629,7.685,7.685,0,0,1,.383,1.376c.1.481.212.976.368,1.5a1.639,1.639,0,0,0,1.716,1.249,8.373,8.373,0,0,0,1.472-.2,16.619,16.619,0,0,1,3.357-.381,14.757,14.757,0,0,1,2.4.2,11.434,11.434,0,0,1,4.484,2.316c2.291,1.613,4.881,3.44,8.841,3.44.108,0,.216,0,.323-.011.131.005.293.011.464.011,3.961,0,6.552-1.827,8.839-3.44l0,0a11.447,11.447,0,0,1,4.483-2.313,14.757,14.757,0,0,1,2.4-.2,16.764,16.764,0,0,1,3.359.356,8.006,8.006,0,0,0,1.471.18h.075a1.618,1.618,0,0,0,1.643-1.227c.152-.515.26-1,.368-1.487a7.785,7.785,0,0,1,.38-1.369,24.884,24.884,0,0,0,6.26-1.629,4.016,4.016,0,0,0,2.165-1.847,1.913,1.913,0,0,0,.157-.657,1.493,1.493,0,0,0-1.253-1.559c-8.556-1.407-12.411-10.172-12.569-10.544-.011-.025-.023-.049-.035-.073a2.646,2.646,0,0,1-.3-2.175c.467-1.1,2.26-1.664,3.445-2.039.343-.108.667-.211.936-.317a7.179,7.179,0,0,0,2.553-1.524,2.419,2.419,0,0,0,.777-1.745A2.749,2.749,0,0,0,256.5,286a3.7,3.7,0,0,0-1.393-.265,3.107,3.107,0,0,0-1.295.264,7.346,7.346,0,0,1-2.668.759,2.416,2.416,0,0,1-.883-.195c.024-.4.049-.809.076-1.237l.012-.184c.273-4.331.615-9.721-.816-12.921a17.463,17.463,0,0,0-3.916-5.605,16.341,16.341,0,0,0-4.684-3.085A18.661,18.661,0,0,0,233.616,262" transform="translate(-201 -262)" fill="#008941" fill-rule="evenodd"/>
    </g>
  </g>
</svg>
