<svg xmlns="http://www.w3.org/2000/svg" width="73.875" height="60" viewBox="0 0 73.875 60">
  <path id="tw" d="M66.281.893a32.545,32.545,0,0,0,7.594-7.828,30.353,30.353,0,0,1-8.719,2.344,15.1,15.1,0,0,0,6.656-8.344A29.807,29.807,0,0,1,62.2-9.278,15.1,15.1,0,0,0,51.14-14.06,15.134,15.134,0,0,0,36,1.081a17.091,17.091,0,0,0,.375,3.469A43.036,43.036,0,0,1,5.156-11.294,15.026,15.026,0,0,0,3.094-3.653,15.13,15.13,0,0,0,9.844,8.956,15.247,15.247,0,0,1,3,7.034v.187A15.143,15.143,0,0,0,15.141,22.081a16.009,16.009,0,0,1-3.984.516,19.082,19.082,0,0,1-2.86-.234,15.168,15.168,0,0,0,14.156,10.5,30.323,30.323,0,0,1-18.8,6.469A31.334,31.334,0,0,1,0,39.144a42.786,42.786,0,0,0,23.25,6.8c27.844,0,43.078-23.063,43.078-43.078C66.328,2.206,66.328,1.55,66.281.893Z" transform="translate(0 14.06)" fill="#008941"/>
</svg>
