<svg xmlns="http://www.w3.org/2000/svg" width="80" height="56.25" viewBox="0 0 80 56.25">
  <path id="youtube" d="M78.853-4.7a10.052,10.052,0,0,0-7.073-7.119C65.542-13.5,40.525-13.5,40.525-13.5s-25.017,0-31.255,1.683A10.052,10.052,0,0,0,2.2-4.7C.525,1.581.525,14.682.525,14.682s0,13.1,1.672,19.381a9.9,9.9,0,0,0,7.073,7c6.239,1.683,31.255,1.683,31.255,1.683s25.017,0,31.255-1.683a9.9,9.9,0,0,0,7.073-7c1.672-6.279,1.672-19.381,1.672-19.381S80.525,1.581,78.853-4.7ZM32.343,26.577V2.787l20.909,11.9Z" transform="translate(-0.525 13.5)" fill="#008941"/>
</svg>
