<svg xmlns="http://www.w3.org/2000/svg" width="144.342" height="40.33" viewBox="0 0 144.342 40.33">
  <g id="estetla3" transform="translate(-9.698 24.656)">
    <circle id="Ellipse_11765" data-name="Ellipse 11765" cx="14.259" cy="14.259" r="14.259" transform="translate(113.709 -4.491) rotate(-45)" fill="#fff"/>
    <path id="Path_129942" data-name="Path 129942" d="M850.082,53.864a12.982,12.982,0,1,1,12.982-12.982,12.982,12.982,0,0,1-12.982,12.982Zm0-24.62A11.638,11.638,0,1,0,861.72,40.882,11.638,11.638,0,0,0,850.082,29.244Z" transform="translate(-716.208 -45.493)" fill="#1b3e6f"/>
    <path id="Path_129943" data-name="Path 129943" d="M886.077,134.2l-8.614,5.416a.122.122,0,0,1-.134,0l-8.614-5.416a.126.126,0,0,1,0-.215l1.868-1.183,6.8,4.287L884.2,132.8l1.868,1.183a.121.121,0,0,1,.013.215Z" transform="translate(-743.521 -136.295)" fill="#1b3e6f"/>
    <path id="Path_129944" data-name="Path 129944" d="M894.925,109.871l-6.988,4.395a.122.122,0,0,1-.134,0l-6.988-4.395a.126.126,0,0,1,0-.215l1.841-1.156,5.214,3.293,5.214-3.279,1.841,1.156a.114.114,0,0,1,0,.2Z" transform="translate(-753.995 -115.261)" fill="#00b189"/>
    <path id="Path_129945" data-name="Path 129945" d="M903.407,70.8l-5.429,3.414a.122.122,0,0,1-.134,0L892.414,70.8a.126.126,0,0,1,0-.215l5.429-3.414a.122.122,0,0,1,.134,0l5.429,3.414a.126.126,0,0,1,0,.215Z" transform="translate(-764.036 -79.468)" fill="#1b3e6f"/>
    <g id="Group_125339" data-name="Group 125339" transform="translate(9.698 -14.622)">
      <path id="Path_129946" data-name="Path 129946" d="M9.7,81.952a2.565,2.565,0,0,1,.121-.82,1.845,1.845,0,0,1,.323-.578,1.8,1.8,0,0,1,.457-.39,1.671,1.671,0,0,1,.538-.215,2.79,2.79,0,0,1-.5-.766,2.688,2.688,0,0,1-.2-1.1,3.62,3.62,0,0,1,.148-.981,2.575,2.575,0,0,1,.5-.9,2.411,2.411,0,0,1,.927-.659,3.36,3.36,0,0,1,1.411-.255,3.6,3.6,0,0,1,1.545.309,2.8,2.8,0,0,1,.994.779.134.134,0,0,1-.04.188l-.739.766a.113.113,0,0,1-.188-.013,1.881,1.881,0,0,0-1.451-.658,1.341,1.341,0,0,0-1.075.417,1.645,1.645,0,0,0-.376,1.115,1.583,1.583,0,0,0,.134.7,1.649,1.649,0,0,0,.309.5,1.613,1.613,0,0,0,.363.323,1.72,1.72,0,0,0,.3.161h2.957c.094,0,.134.04.134.134v1.1c0,.094-.04.134-.134.134h-4.22a.6.6,0,0,0-.524.2.827.827,0,0,0-.148.484.661.661,0,0,0,.2.538,1.251,1.251,0,0,0,.793.175h1.357c.094,0,.134.04.134.134v1.1c0,.094-.04.134-.134.134H12.13a2.9,2.9,0,0,1-1.8-.484A1.886,1.886,0,0,1,9.7,81.952Z" transform="translate(-9.698 -71.886)" fill="#1b3e6f"/>
      <path id="Path_129947" data-name="Path 129947" d="M72.422,50.134c0-.094.04-.134.134-.134H73.82c.094,0,.134.04.134.134v7.123c.081.47.457.712,1.129.712h.228a.56.56,0,0,1,.417.148.75.75,0,0,1,.134.511.8.8,0,0,1-.134.551.5.5,0,0,1-.417.148,3.074,3.074,0,0,1-.914-.121,1.11,1.11,0,0,1-.632-.564,1.1,1.1,0,0,1-.564.538,2.661,2.661,0,0,1-1.008.148H66.334c-.094,0-.134-.04-.134-.134v-1.1c0-.094.04-.134.134-.134H68.78V52.043c0-.094.04-.134.134-.134h1.263c.094,0,.134.04.134.134v5.913H71.75a.828.828,0,0,0,.363-.067.419.419,0,0,0,.2-.2,1.313,1.313,0,0,0,.081-.39c.013-.161.013-.349.013-.578V50.134Z" transform="translate(-58.607 -50)" fill="#1b3e6f"/>
      <path id="Path_129948" data-name="Path 129948" d="M131.066,110.75a.427.427,0,0,1-.376-.134.93.93,0,0,1-.107-.511,1.084,1.084,0,0,1,.094-.564.442.442,0,0,1,.39-.148h1.653a.56.56,0,0,1,.417.148.792.792,0,0,1,.134.524.822.822,0,0,1-.134.564.538.538,0,0,1-.417.134h-1.653Z" transform="translate(-114.335 -101.41)" fill="#1b3e6f"/>
      <path id="Path_129949" data-name="Path 129949" d="M143.366,110.75a.427.427,0,0,1-.376-.134.93.93,0,0,1-.108-.511,1.085,1.085,0,0,1,.094-.564.442.442,0,0,1,.39-.148h1.653a.56.56,0,0,1,.417.148.792.792,0,0,1,.134.524.822.822,0,0,1-.134.564.538.538,0,0,1-.417.134h-1.653Z" transform="translate(-124.981 -101.41)" fill="#1b3e6f"/>
      <path id="Path_129950" data-name="Path 129950" d="M155.666,110.75a.427.427,0,0,1-.376-.134.93.93,0,0,1-.108-.511,1.084,1.084,0,0,1,.094-.564.442.442,0,0,1,.39-.148h1.64a.56.56,0,0,1,.417.148.792.792,0,0,1,.134.524.822.822,0,0,1-.134.564.538.538,0,0,1-.417.134h-1.64Z" transform="translate(-135.629 -101.41)" fill="#1b3e6f"/>
      <path id="Path_129951" data-name="Path 129951" d="M170.408,54.166a9.1,9.1,0,0,1,1.438-.538,5.941,5.941,0,0,1,1.626-.228,4.744,4.744,0,0,1,1.545.228,2.8,2.8,0,0,1,1.035.659,2.553,2.553,0,0,1,.591,1.035,4.7,4.7,0,0,1,.188,1.344,1.544,1.544,0,0,1-.013.255c0,.081-.013.148-.013.2a.794.794,0,0,0,.323.632,1.344,1.344,0,0,0,.82.215h.228a.56.56,0,0,1,.417.148.75.75,0,0,1,.134.511.8.8,0,0,1-.134.551.5.5,0,0,1-.417.148,2.739,2.739,0,0,1-1.035-.175,1.21,1.21,0,0,1-.659-.7,1.9,1.9,0,0,1-.363.47,1.541,1.541,0,0,1-.511.269,4.5,4.5,0,0,1-.685.121c-.255.013-.538.027-.86.027h-3.655a.753.753,0,0,1-.618-.228,1.177,1.177,0,0,1-.551.2,5.667,5.667,0,0,1-.712.04h-1.075a.556.556,0,0,1-.417-.134.723.723,0,0,1-.134-.524c0-.3.04-.5.134-.578a.538.538,0,0,1,.417-.134h.685a.806.806,0,0,0,.39-.081.513.513,0,0,0,.215-.255,2.042,2.042,0,0,0,.094-.511c.013-.215.027-.484.027-.82V50.134c0-.094.04-.134.134-.134h1.263c.094,0,.134.04.134.134v4.032Zm2.836.6a5.332,5.332,0,0,0-1.519.228,10.63,10.63,0,0,0-1.33.511v1.868a2.283,2.283,0,0,1-.013.309c-.013.094-.027.2-.04.282h3.01c.39,0,.7-.013.941-.027a1.232,1.232,0,0,0,.564-.148.621.621,0,0,0,.269-.417,3.846,3.846,0,0,0,.067-.793,2.754,2.754,0,0,0-.094-.779,1.177,1.177,0,0,0-.323-.578,1.335,1.335,0,0,0-.6-.349A3.371,3.371,0,0,0,173.243,54.771Z" transform="translate(-145.774 -50)" fill="#1b3e6f"/>
      <path id="Path_129952" data-name="Path 129952" d="M247.766,110.75a.427.427,0,0,1-.376-.134.93.93,0,0,1-.108-.511,1.084,1.084,0,0,1,.094-.564.442.442,0,0,1,.39-.148h1.653a.56.56,0,0,1,.417.148.792.792,0,0,1,.134.524.822.822,0,0,1-.134.564.538.538,0,0,1-.417.134h-1.653Z" transform="translate(-215.351 -101.41)" fill="#1b3e6f"/>
      <path id="Path_129953" data-name="Path 129953" d="M260.066,110.75a.427.427,0,0,1-.376-.134.93.93,0,0,1-.107-.511,1.084,1.084,0,0,1,.094-.564.442.442,0,0,1,.39-.148h1.653a.56.56,0,0,1,.417.148.791.791,0,0,1,.134.524.822.822,0,0,1-.134.564.538.538,0,0,1-.417.134h-1.653Z" transform="translate(-225.999 -101.41)" fill="#1b3e6f"/>
      <path id="Path_129954" data-name="Path 129954" d="M275.354,63.748a1.011,1.011,0,0,1-.578.551,2.8,2.8,0,0,1-1.048.148h-1.277a.556.556,0,0,1-.417-.134.723.723,0,0,1-.134-.524.87.87,0,0,1,.134-.564.5.5,0,0,1,.417-.161h.9a.712.712,0,0,0,.376-.081.526.526,0,0,0,.188-.228,1.524,1.524,0,0,0,.081-.417c.013-.175.013-.376.013-.618V58.883a.1.1,0,0,1,.081-.108.672.672,0,0,1,.161-.027h1.169c.094,0,.134.04.134.134V62.23a.747.747,0,0,0,.309.632,1.394,1.394,0,0,0,.833.215h.228a.56.56,0,0,1,.417.148.75.75,0,0,1,.134.511.8.8,0,0,1-.134.551.5.5,0,0,1-.417.148,2.837,2.837,0,0,1-.941-.134A.976.976,0,0,1,275.354,63.748Zm-2.043-6.384c-.094,0-.134-.04-.134-.134v-1.2c0-.094.04-.134.134-.134h1.156c.094,0,.134.04.134.134v1.2c0,.094-.04.134-.134.134Zm1.787,0c-.094,0-.134-.04-.134-.134v-1.2c0-.094.04-.134.134-.134h1.156c.094,0,.134.04.134.134v1.2c0,.094-.04.134-.134.134Z" transform="translate(-236.663 -55.107)" fill="#1b3e6f"/>
      <path id="Path_129955" data-name="Path 129955" d="M306.166,110.75a.427.427,0,0,1-.376-.134.93.93,0,0,1-.107-.511,1.084,1.084,0,0,1,.094-.564.442.442,0,0,1,.39-.148h1.653a.56.56,0,0,1,.417.148.792.792,0,0,1,.134.524.822.822,0,0,1-.134.564.538.538,0,0,1-.417.134h-1.653Z" transform="translate(-265.903 -101.41)" fill="#1b3e6f"/>
      <path id="Path_129956" data-name="Path 129956" d="M318.466,110.75a.427.427,0,0,1-.376-.134.93.93,0,0,1-.108-.511,1.084,1.084,0,0,1,.094-.564.442.442,0,0,1,.39-.148h1.653a.56.56,0,0,1,.417.148.792.792,0,0,1,.134.524.822.822,0,0,1-.134.564.538.538,0,0,1-.417.134h-1.653Z" transform="translate(-276.55 -101.41)" fill="#1b3e6f"/>
      <path id="Path_129957" data-name="Path 129957" d="M333.544,80.581c0,.564.336.847.995.847a2.319,2.319,0,0,0,.484-.04.555.555,0,0,0,.282-.134.508.508,0,0,0,.134-.309,3.043,3.043,0,0,0,.04-.564V78.31c0-.094.04-.134.134-.134h1.263c.094,0,.134.04.134.134v2.258a.806.806,0,0,0,.269.659,1.075,1.075,0,0,0,.712.215,1.841,1.841,0,0,0,.524-.054.4.4,0,0,0,.282-.188,1.2,1.2,0,0,0,.121-.4c.013-.175.027-.4.027-.7V77.234c0-.094.04-.134.134-.134h1.263c.094,0,.134.04.134.134v3.844a1.911,1.911,0,0,1-.39,1.344,1.791,1.791,0,0,1-1.331.39h-.591a1.717,1.717,0,0,1-.82-.188,1.233,1.233,0,0,1-.511-.538,1.128,1.128,0,0,1-.551.564,2.443,2.443,0,0,1-.981.161h-.6a1.328,1.328,0,0,1-1.33-.739,1.075,1.075,0,0,1-.551.564,2.47,2.47,0,0,1-.995.161h-1.572a.556.556,0,0,1-.417-.134.689.689,0,0,1-.134-.5.889.889,0,0,1,.134-.578.5.5,0,0,1,.417-.161h1.1c.282,0,.457-.081.538-.228a2.242,2.242,0,0,0,.107-.82V78.31c0-.094.04-.134.134-.134H333.4c.094,0,.134.04.134.134v2.271Z" transform="translate(-286.695 -73.458)" fill="#1b3e6f"/>
      <path id="Path_129958" data-name="Path 129958" d="M424.546,59.206c0,.094-.04.134-.134.134h-1.277c-.094,0-.134-.04-.134-.134V50.134c0-.094.04-.134.134-.134H424.4c.094,0,.134.04.134.134v9.071Z" transform="translate(-367.456 -50)" fill="#1b3e6f"/>
      <path id="Path_129959" data-name="Path 129959" d="M473.736,54.945v-.591c0-.094.04-.134.134-.134h1.263c.094,0,.134.04.134.134V58.8a.765.765,0,0,0,.161.564.672.672,0,0,0,.5.161h.524c.363,0,.551.228.551.7a.781.781,0,0,1-.134.551.538.538,0,0,1-.417.134h-1.115a1.921,1.921,0,0,1-1.048-.242,1.235,1.235,0,0,1-.5-.833,1.7,1.7,0,0,1-.685.376,2.907,2.907,0,0,1-.833.121,3.446,3.446,0,0,1-1.008-.148,2.15,2.15,0,0,1-.82-.47,2.323,2.323,0,0,1-.551-.806,3.038,3.038,0,0,1-.2-1.169,3.429,3.429,0,0,1,.228-1.33,2.159,2.159,0,0,1,.6-.86,2.312,2.312,0,0,1,.86-.457,3.579,3.579,0,0,1,1.008-.134h1.344Zm-2.634-1.68c-.094,0-.134-.04-.134-.134v-1.2c0-.094.04-.134.134-.134h1.156c.094,0,.134.04.134.134v1.2c0,.094-.04.134-.134.134Zm1.344,5.7a1.2,1.2,0,0,0,.981-.376,1.659,1.659,0,0,0,.323-1.1V56.316h-1.223a1.447,1.447,0,0,0-.954.3,1.372,1.372,0,0,0-.363,1.1,1.171,1.171,0,0,0,.336.927A1.141,1.141,0,0,0,472.446,58.963Zm.443-5.7c-.094,0-.134-.04-.134-.134v-1.2c0-.094.04-.134.134-.134h1.156c.094,0,.134.04.134.134v1.2c0,.094-.04.134-.134.134Z" transform="translate(-407.872 -51.558)" fill="#1b3e6f"/>
      <path id="Path_129960" data-name="Path 129960" d="M518.166,110.75a.427.427,0,0,1-.376-.134.93.93,0,0,1-.108-.511,1.084,1.084,0,0,1,.094-.564.442.442,0,0,1,.39-.148h1.653a.561.561,0,0,1,.417.148.792.792,0,0,1,.134.524.823.823,0,0,1-.134.564.538.538,0,0,1-.417.134h-1.653Z" transform="translate(-449.412 -101.41)" fill="#1b3e6f"/>
      <path id="Path_129961" data-name="Path 129961" d="M530.466,110.75a.427.427,0,0,1-.376-.134.93.93,0,0,1-.107-.511,1.084,1.084,0,0,1,.094-.564.442.442,0,0,1,.39-.148h1.653a.56.56,0,0,1,.417.148.791.791,0,0,1,.134.524.822.822,0,0,1-.134.564.538.538,0,0,1-.417.134h-1.653Z" transform="translate(-460.059 -101.41)" fill="#1b3e6f"/>
      <path id="Path_129962" data-name="Path 129962" d="M542.666,110.75a.427.427,0,0,1-.376-.134.93.93,0,0,1-.108-.511,1.084,1.084,0,0,1,.094-.564.442.442,0,0,1,.39-.148h1.653a.561.561,0,0,1,.417.148.792.792,0,0,1,.134.524.822.822,0,0,1-.134.564.538.538,0,0,1-.417.134h-1.653Z" transform="translate(-470.62 -101.41)" fill="#1b3e6f"/>
      <path id="Path_129963" data-name="Path 129963" d="M554.966,110.75a.427.427,0,0,1-.376-.134.93.93,0,0,1-.108-.511,1.084,1.084,0,0,1,.094-.564.442.442,0,0,1,.39-.148h1.653a.56.56,0,0,1,.417.148.792.792,0,0,1,.134.524.822.822,0,0,1-.134.564.538.538,0,0,1-.417.134h-1.653Z" transform="translate(-481.267 -101.41)" fill="#1b3e6f"/>
      <path id="Path_129964" data-name="Path 129964" d="M569.54,76.061a8.194,8.194,0,0,1,1.438-.538,5.942,5.942,0,0,1,1.626-.228,4.657,4.657,0,0,1,1.532.228,2.744,2.744,0,0,1,1.048.659,2.553,2.553,0,0,1,.591,1.035,4.7,4.7,0,0,1,.188,1.344,1.533,1.533,0,0,1-.013.255c0,.081-.013.148-.013.2a.794.794,0,0,0,.323.632,1.344,1.344,0,0,0,.82.215h.228a.561.561,0,0,1,.417.148.75.75,0,0,1,.134.511.8.8,0,0,1-.134.551.5.5,0,0,1-.417.148,2.739,2.739,0,0,1-1.035-.175,1.23,1.23,0,0,1-.672-.7,1.309,1.309,0,0,1-.847.712,5.449,5.449,0,0,1-1.465.161h-2.715c-.148,0-.3,0-.457-.013a2.513,2.513,0,0,1-.457-.04,3.852,3.852,0,0,1-.417-.067,1.1,1.1,0,0,1-.336-.121,1.074,1.074,0,0,1-.484.188,4.272,4.272,0,0,1-.632.04h-1.142a.556.556,0,0,1-.417-.134.723.723,0,0,1-.134-.524c0-.3.04-.5.134-.578a.538.538,0,0,1,.417-.134h.632a.686.686,0,0,0,.4-.108.569.569,0,0,0,.2-.309,2.158,2.158,0,0,0,.081-.457c.013-.175.013-.363.013-.551V75.59c0-.094.04-.134.134-.134h1.263c.094,0,.134.04.134.134v.47Zm2.836.6a5.334,5.334,0,0,0-1.519.228,10.632,10.632,0,0,0-1.33.511v1.868a2.293,2.293,0,0,1-.013.309c-.013.094-.027.2-.04.282h3c.39,0,.712-.013.954-.027a1.232,1.232,0,0,0,.564-.148.621.621,0,0,0,.269-.417,3.848,3.848,0,0,0,.067-.793,2.753,2.753,0,0,0-.094-.779,1.177,1.177,0,0,0-.323-.578,1.335,1.335,0,0,0-.6-.349A3.3,3.3,0,0,0,572.376,76.665Z" transform="translate(-491.326 -71.895)" fill="#1b3e6f"/>
      <path id="Path_129965" data-name="Path 129965" d="M646.466,110.75a.427.427,0,0,1-.376-.134.93.93,0,0,1-.107-.511,1.084,1.084,0,0,1,.094-.564.442.442,0,0,1,.39-.148h1.653a.56.56,0,0,1,.417.148.792.792,0,0,1,.134.524.823.823,0,0,1-.134.564.537.537,0,0,1-.417.134h-1.653Z" transform="translate(-560.47 -101.41)" fill="#1b3e6f"/>
      <path id="Path_129966" data-name="Path 129966" d="M661.637,62.23a.747.747,0,0,0,.309.632,1.394,1.394,0,0,0,.833.215h.228a.56.56,0,0,1,.417.148.75.75,0,0,1,.134.511.8.8,0,0,1-.134.551.494.494,0,0,1-.417.148,2.837,2.837,0,0,1-.941-.134,1.142,1.142,0,0,1-.632-.578,1.028,1.028,0,0,1-.565.551,2.723,2.723,0,0,1-1.035.148h-1.089a.708.708,0,0,1-.417-.094c-.094-.054-.134-.188-.134-.39a1.308,1.308,0,0,1,.134-.618.443.443,0,0,1,.43-.269h.659a.941.941,0,0,0,.376-.067.4.4,0,0,0,.2-.215,1.318,1.318,0,0,0,.081-.4c.013-.161.013-.363.013-.6V58.883c0-.094.04-.134.134-.134h1.263c.094,0,.134.04.134.134V62.23Zm-1.424-4.865c-.094,0-.134-.04-.134-.134v-1.2c0-.094.04-.134.134-.134h1.317c.094,0,.134.04.134.134v1.2c0,.094-.04.134-.134.134Z" transform="translate(-571.044 -55.107)" fill="#1b3e6f"/>
      <path id="Path_129967" data-name="Path 129967" d="M690.466,110.75a.427.427,0,0,1-.376-.134.93.93,0,0,1-.108-.511,1.084,1.084,0,0,1,.094-.564.442.442,0,0,1,.39-.148h1.653a.56.56,0,0,1,.417.148.792.792,0,0,1,.134.524.823.823,0,0,1-.134.564.538.538,0,0,1-.417.134h-1.653Z" transform="translate(-598.557 -101.41)" fill="#1b3e6f"/>
      <path id="Path_129968" data-name="Path 129968" d="M702.766,110.75a.427.427,0,0,1-.376-.134.93.93,0,0,1-.107-.511,1.085,1.085,0,0,1,.094-.564.442.442,0,0,1,.39-.148h1.653a.56.56,0,0,1,.417.148.792.792,0,0,1,.134.524.822.822,0,0,1-.134.564.537.537,0,0,1-.417.134h-1.653Z" transform="translate(-609.204 -101.41)" fill="#1b3e6f"/>
      <path id="Path_129969" data-name="Path 129969" d="M718.784,81.346a3.916,3.916,0,0,1-1.236-.188,2.172,2.172,0,0,1-.927-.618,1.244,1.244,0,0,1-.336.363,1.962,1.962,0,0,1-.4.215,2.235,2.235,0,0,1-.43.108c-.148.013-.282.027-.417.027h-.484a.518.518,0,0,1-.417-.161.809.809,0,0,1-.134-.538.786.786,0,0,1,.134-.538.538.538,0,0,1,.417-.134h.538a.917.917,0,0,0,.309-.067.745.745,0,0,0,.269-.2,1.175,1.175,0,0,0,.2-.39,1.909,1.909,0,0,0,.081-.591,1.082,1.082,0,0,1-.013-.2v-.2a4.031,4.031,0,0,1,.228-1.357,2.286,2.286,0,0,1,.591-.9,2.434,2.434,0,0,1,.887-.511,3.668,3.668,0,0,1,1.115-.161,3.82,3.82,0,0,1,1.129.161,2.244,2.244,0,0,1,.9.524,2.268,2.268,0,0,1,.591.954,4.8,4.8,0,0,1,.013,2.8,2.477,2.477,0,0,1-.578.927,2.149,2.149,0,0,1-.9.524A4.082,4.082,0,0,1,718.784,81.346Zm-.013-4.677a1.111,1.111,0,0,0-.968.43,2.124,2.124,0,0,0-.309,1.236A2.047,2.047,0,0,0,717.8,79.6a1.179,1.179,0,0,0,.968.39,1.208,1.208,0,0,0,.981-.39,2.029,2.029,0,0,0,.309-1.25C720.074,77.22,719.644,76.669,718.771,76.669Z" transform="translate(-619.349 -71.898)" fill="#1b3e6f"/>
      <path id="Path_129970" data-name="Path 129970" d="M11.466,170.349a.063.063,0,0,1-.067-.067v-4.516a.063.063,0,0,1,.067-.067H13.2a1.867,1.867,0,0,1,.618.107,1.464,1.464,0,0,1,.484.3,1.2,1.2,0,0,1,.309.457,1.406,1.406,0,0,1,.108.591,1.654,1.654,0,0,1-.108.591,1.2,1.2,0,0,1-.309.457,1.464,1.464,0,0,1-.484.3,1.806,1.806,0,0,1-.618.108h-.954a.036.036,0,0,0-.04.04v1.64a.063.063,0,0,1-.067.067Zm1.68-2.486a.816.816,0,0,0,.564-.188.782.782,0,0,0,0-1.048.763.763,0,0,0-.564-.2h-.914a.036.036,0,0,0-.04.04v1.357a.036.036,0,0,0,.04.04Z" transform="translate(-11.171 -150.15)" fill="#1b3e6f"/>
      <path id="Path_129971" data-name="Path 129971" d="M42.992,169.69a.831.831,0,0,0,.645-.255,1.047,1.047,0,0,0,.255-.739v-2.93a.063.063,0,0,1,.067-.067h.659a.063.063,0,0,1,.067.067v2.943a1.792,1.792,0,0,1-.134.726,1.49,1.49,0,0,1-.349.538,1.583,1.583,0,0,1-.538.336,1.927,1.927,0,0,1-1.344,0,1.583,1.583,0,0,1-.538-.336,1.49,1.49,0,0,1-.349-.538,2.052,2.052,0,0,1-.134-.726v-2.943a.063.063,0,0,1,.067-.067h.659a.063.063,0,0,1,.067.067v2.93a.989.989,0,0,0,.255.739A.871.871,0,0,0,42.992,169.69Z" transform="translate(-37.053 -150.15)" fill="#1b3e6f"/>
      <path id="Path_129972" data-name="Path 129972" d="M73.9,165.866a.063.063,0,0,1,.067-.067h1.72a1.532,1.532,0,0,1,1.089.336,1.209,1.209,0,0,1,.349.9,1.1,1.1,0,0,1-.161.632,1.031,1.031,0,0,1-.376.349v.013a.631.631,0,0,1,.215.134,1.158,1.158,0,0,1,.2.228,1.651,1.651,0,0,1,.148.309,1.189,1.189,0,0,1,.054.39,1.237,1.237,0,0,1-.417,1.035,1.808,1.808,0,0,1-1.169.336H73.966a.063.063,0,0,1-.067-.067Zm1.761,1.855a.7.7,0,0,0,.484-.161.65.65,0,0,0,0-.887.7.7,0,0,0-.484-.161h-.927a.036.036,0,0,0-.04.04v1.142a.036.036,0,0,0,.04.04h.927Zm-.954,1.962a.036.036,0,0,0,.04.04h.968a.707.707,0,0,0,.524-.175.618.618,0,0,0,.175-.47.638.638,0,0,0-.175-.47.707.707,0,0,0-.524-.175h-.968a.036.036,0,0,0-.04.04Z" transform="translate(-65.272 -150.237)" fill="#1b3e6f"/>
      <path id="Path_129973" data-name="Path 129973" d="M104.5,165.866a.063.063,0,0,1,.067-.067h.659a.063.063,0,0,1,.067.067v3.8a.036.036,0,0,0,.04.04h2.11a.063.063,0,0,1,.067.067v.591a.063.063,0,0,1-.067.067h-2.876a.063.063,0,0,1-.067-.067Z" transform="translate(-91.759 -150.237)" fill="#1b3e6f"/>
      <path id="Path_129974" data-name="Path 129974" d="M132,165.866a.063.063,0,0,1,.067-.067h.659a.063.063,0,0,1,.067.067v4.5a.063.063,0,0,1-.067.067h-.659a.063.063,0,0,1-.067-.067Z" transform="translate(-115.563 -150.237)" fill="#1b3e6f"/>
      <path id="Path_129975" data-name="Path 129975" d="M144.534,168.851a1.26,1.26,0,0,1-.054-.215q-.02-.1-.04-.242c-.013-.094-.013-.2-.027-.323s-.013-.282-.013-.47,0-.336.013-.47.013-.242.027-.336.027-.175.04-.242.04-.148.054-.215a1.559,1.559,0,0,1,.591-.86,1.775,1.775,0,0,1,1.008-.282,1.7,1.7,0,0,1,.954.269,1.642,1.642,0,0,1,.6.739.056.056,0,0,1-.04.081l-.578.282c-.04.027-.067.013-.094-.04a1.4,1.4,0,0,0-.309-.417.777.777,0,0,0-.551-.175.853.853,0,0,0-.538.161.958.958,0,0,0-.3.443c-.013.054-.027.094-.04.148a.793.793,0,0,0-.027.188,1.9,1.9,0,0,0-.013.3v.847c0,.107.013.2.013.282a.813.813,0,0,0,.027.2c.013.054.027.108.04.148a.958.958,0,0,0,.3.443.828.828,0,0,0,.538.161.8.8,0,0,0,.551-.175,1.165,1.165,0,0,0,.309-.417.07.07,0,0,1,.094-.04l.578.282a.056.056,0,0,1,.04.081,1.613,1.613,0,0,1-1.559,1.008,1.776,1.776,0,0,1-1.008-.282A1.629,1.629,0,0,1,144.534,168.851Z" transform="translate(-126.298 -149.715)" fill="#1b3e6f"/>
      <path id="Path_129976" data-name="Path 129976" d="M185.434,168.851a1.258,1.258,0,0,1-.054-.215q-.02-.1-.04-.242c-.013-.094-.013-.2-.027-.323s-.013-.282-.013-.47,0-.336.013-.47.013-.242.027-.336.027-.175.04-.242.04-.148.054-.215a1.559,1.559,0,0,1,.591-.86,1.775,1.775,0,0,1,1.008-.282,1.7,1.7,0,0,1,.954.269,1.642,1.642,0,0,1,.6.739.056.056,0,0,1-.04.081l-.578.282c-.04.027-.067.013-.094-.04a1.4,1.4,0,0,0-.309-.417.777.777,0,0,0-.551-.175.853.853,0,0,0-.538.161.958.958,0,0,0-.3.443c-.013.054-.027.094-.04.148a.794.794,0,0,0-.027.188,1.9,1.9,0,0,0-.013.3v.847c0,.107.013.2.013.282a.813.813,0,0,0,.027.2c.013.054.027.108.04.148a.958.958,0,0,0,.3.443.828.828,0,0,0,.538.161.8.8,0,0,0,.551-.175,1.165,1.165,0,0,0,.309-.417.07.07,0,0,1,.094-.04l.578.282a.056.056,0,0,1,.04.081,1.613,1.613,0,0,1-1.559,1.008,1.775,1.775,0,0,1-1.008-.282A1.559,1.559,0,0,1,185.434,168.851Z" transform="translate(-161.701 -149.715)" fill="#1b3e6f"/>
      <path id="Path_129977" data-name="Path 129977" d="M216.061,170.08a1.789,1.789,0,0,1-1.021-.282,1.558,1.558,0,0,1-.6-.833,1.258,1.258,0,0,1-.054-.215c-.013-.067-.027-.161-.04-.255s-.013-.215-.027-.336-.013-.282-.013-.47,0-.336.013-.47.013-.242.027-.336.027-.175.04-.255.04-.148.054-.215a1.558,1.558,0,0,1,.6-.833,1.82,1.82,0,0,1,1.021-.282,1.864,1.864,0,0,1,1.035.282,1.558,1.558,0,0,1,.6.833,1.256,1.256,0,0,1,.054.215c.013.067.027.161.04.255s.013.215.027.336.013.282.013.47,0,.336-.013.47a2.267,2.267,0,0,1-.027.336c-.013.094-.027.175-.04.255s-.04.148-.054.215a1.558,1.558,0,0,1-.6.833A1.864,1.864,0,0,1,216.061,170.08Zm0-.739a.867.867,0,0,0,.551-.161.98.98,0,0,0,.309-.443c.013-.04.027-.094.04-.148s.013-.121.027-.2a1.9,1.9,0,0,0,.013-.3c0-.121.013-.255.013-.417a3.789,3.789,0,0,0-.013-.417c0-.121-.013-.215-.013-.3a.814.814,0,0,0-.027-.2c-.013-.054-.027-.107-.04-.148a.89.89,0,0,0-1.707,0c-.013.04-.027.094-.04.148a.814.814,0,0,0-.027.2,1.9,1.9,0,0,0-.013.3v.833c0,.121.013.215.013.3a.814.814,0,0,0,.027.2c.013.054.027.108.04.148a.958.958,0,0,0,.3.443A.867.867,0,0,0,216.061,169.341Z" transform="translate(-186.804 -149.8)" fill="#1b3e6f"/>
      <path id="Path_129978" data-name="Path 129978" d="M247,165.866a.063.063,0,0,1,.067-.067h.618a.141.141,0,0,1,.121.067l1.881,3.2h.027v-3.2a.063.063,0,0,1,.067-.067h.591a.063.063,0,0,1,.067.067v4.5a.063.063,0,0,1-.067.067h-.618a.141.141,0,0,1-.121-.067l-1.881-3.2h-.027v3.2a.063.063,0,0,1-.067.067h-.591a.063.063,0,0,1-.067-.067Z" transform="translate(-215.108 -150.237)" fill="#1b3e6f"/>
      <path id="Path_129979" data-name="Path 129979" d="M279.787,169.734a2.016,2.016,0,0,1-.5-.054,2.707,2.707,0,0,1-.47-.134,1.882,1.882,0,0,1-.4-.2,3.355,3.355,0,0,1-.323-.242.071.071,0,0,1-.013-.108l.417-.5a.058.058,0,0,1,.094-.013c.067.054.161.121.242.175a2.938,2.938,0,0,0,.3.161,2.459,2.459,0,0,0,.336.108,1.7,1.7,0,0,0,.376.04,1.051,1.051,0,0,0,.645-.188.6.6,0,0,0,.228-.484.537.537,0,0,0-.188-.417,1.235,1.235,0,0,0-.659-.228l-.242-.04a1.978,1.978,0,0,1-1.035-.417,1.154,1.154,0,0,1-.363-.9,1.581,1.581,0,0,1,.107-.578,1.151,1.151,0,0,1,.309-.443,1.376,1.376,0,0,1,.5-.282,1.917,1.917,0,0,1,.645-.094,2.687,2.687,0,0,1,.82.121,2.419,2.419,0,0,1,.672.336.064.064,0,0,1,.013.094l-.323.511c-.027.04-.054.04-.094.027a2.3,2.3,0,0,0-.551-.269,1.9,1.9,0,0,0-.551-.094.742.742,0,0,0-.538.175.609.609,0,0,0-.188.443.523.523,0,0,0,.188.4,1.282,1.282,0,0,0,.659.228l.242.04a1.884,1.884,0,0,1,1.021.417,1.215,1.215,0,0,1,.349.927,1.693,1.693,0,0,1-.108.578,1.126,1.126,0,0,1-.336.457,1.659,1.659,0,0,1-.551.3A1.489,1.489,0,0,1,279.787,169.734Z" transform="translate(-241.996 -149.455)" fill="#1b3e6f"/>
      <path id="Path_129980" data-name="Path 129980" d="M311.192,169.69a.831.831,0,0,0,.645-.255,1.047,1.047,0,0,0,.255-.739v-2.93a.063.063,0,0,1,.067-.067h.659a.063.063,0,0,1,.067.067v2.943a1.792,1.792,0,0,1-.134.726,1.491,1.491,0,0,1-.349.538,1.583,1.583,0,0,1-.538.336,1.927,1.927,0,0,1-1.344,0,1.583,1.583,0,0,1-.538-.336,1.49,1.49,0,0,1-.349-.538,2.052,2.052,0,0,1-.134-.726v-2.943a.063.063,0,0,1,.067-.067h.659a.063.063,0,0,1,.067.067v2.93a.989.989,0,0,0,.255.739A.831.831,0,0,0,311.192,169.69Z" transform="translate(-269.209 -150.15)" fill="#1b3e6f"/>
      <path id="Path_129981" data-name="Path 129981" d="M342.013,165.866a.063.063,0,0,1,.067-.067h.659a.063.063,0,0,1,.067.067v3.8a.036.036,0,0,0,.04.04h2.11a.063.063,0,0,1,.067.067v.591a.063.063,0,0,1-.067.067h-2.889a.063.063,0,0,1-.067-.067v-4.5Z" transform="translate(-297.342 -150.237)" fill="#1b3e6f"/>
      <path id="Path_129982" data-name="Path 129982" d="M363.683,170.436a.063.063,0,0,1-.067-.067v-3.8a.036.036,0,0,0-.04-.04h-1.21a.063.063,0,0,1-.067-.067v-.591a.063.063,0,0,1,.067-.067h3.293a.063.063,0,0,1,.067.067v.591a.063.063,0,0,1-.067.067h-1.21a.036.036,0,0,0-.04.04v3.8a.063.063,0,0,1-.067.067Z" transform="translate(-314.913 -150.237)" fill="#1b3e6f"/>
      <path id="Path_129983" data-name="Path 129983" d="M388.277,165.865a.09.09,0,0,1,.094-.067h.618a.1.1,0,0,1,.094.067l1.559,4.5c.013.04,0,.067-.054.067h-.659a.1.1,0,0,1-.094-.067l-.309-.9h-1.734l-.309.9a.09.09,0,0,1-.094.067h-.658c-.04,0-.067-.027-.054-.067Zm1.008,2.889-.6-1.8h-.027l-.618,1.8Z" transform="translate(-336.012 -150.236)" fill="#1b3e6f"/>
      <path id="Path_129984" data-name="Path 129984" d="M416.483,170.436a.063.063,0,0,1-.067-.067v-3.8a.036.036,0,0,0-.04-.04h-1.21a.063.063,0,0,1-.067-.067v-.591a.063.063,0,0,1,.067-.067h3.293a.063.063,0,0,1,.067.067v.591a.063.063,0,0,1-.067.067h-1.21a.036.036,0,0,0-.04.04v3.8a.063.063,0,0,1-.067.067Z" transform="translate(-360.617 -150.237)" fill="#1b3e6f"/>
      <path id="Path_129985" data-name="Path 129985" d="M445.5,165.866a.063.063,0,0,1,.067-.067h.658a.063.063,0,0,1,.067.067v4.5a.063.063,0,0,1-.067.067h-.658a.063.063,0,0,1-.067-.067Z" transform="translate(-386.932 -150.237)" fill="#1b3e6f"/>
      <path id="Path_129986" data-name="Path 129986" d="M459.661,170.08a1.789,1.789,0,0,1-1.021-.282,1.558,1.558,0,0,1-.6-.833,1.263,1.263,0,0,1-.054-.215c-.013-.067-.027-.161-.04-.255s-.013-.215-.027-.336-.013-.282-.013-.47,0-.336.013-.47.013-.242.027-.336.027-.175.04-.255.04-.148.054-.215a1.558,1.558,0,0,1,.6-.833,1.82,1.82,0,0,1,1.021-.282,1.864,1.864,0,0,1,1.035.282,1.558,1.558,0,0,1,.6.833,1.256,1.256,0,0,1,.054.215c.013.067.027.161.04.255s.013.215.027.336.013.282.013.47,0,.336-.013.47a2.265,2.265,0,0,1-.027.336c-.013.094-.027.175-.04.255s-.04.148-.054.215a1.558,1.558,0,0,1-.6.833A1.833,1.833,0,0,1,459.661,170.08Zm0-.739a.867.867,0,0,0,.551-.161.979.979,0,0,0,.309-.443c.013-.04.027-.094.04-.148s.013-.121.027-.2a1.9,1.9,0,0,0,.013-.3c0-.121.013-.255.013-.417a3.8,3.8,0,0,0-.013-.417c0-.121-.013-.215-.013-.3a.812.812,0,0,0-.027-.2c-.013-.054-.027-.108-.04-.148a.89.89,0,0,0-1.707,0c-.013.04-.027.094-.04.148a.813.813,0,0,0-.027.2,1.9,1.9,0,0,0-.013.3v.833c0,.121.013.215.013.3a.813.813,0,0,0,.027.2c.013.054.027.108.04.148a.958.958,0,0,0,.3.443A.867.867,0,0,0,459.661,169.341Z" transform="translate(-397.666 -149.8)" fill="#1b3e6f"/>
      <path id="Path_129987" data-name="Path 129987" d="M490.6,165.866a.063.063,0,0,1,.067-.067h.618a.141.141,0,0,1,.121.067l1.881,3.2h.027v-3.2a.063.063,0,0,1,.067-.067h.591a.063.063,0,0,1,.067.067v4.5a.063.063,0,0,1-.067.067h-.618a.141.141,0,0,1-.121-.067l-1.881-3.2h-.027v3.2a.063.063,0,0,1-.067.067h-.591a.063.063,0,0,1-.067-.067Z" transform="translate(-425.971 -150.237)" fill="#1b3e6f"/>
      <path id="Path_129988" data-name="Path 129988" d="M535.666,170.349a.063.063,0,0,1-.067-.067v-4.516a.063.063,0,0,1,.067-.067H537.4a1.867,1.867,0,0,1,.618.107,1.464,1.464,0,0,1,.484.3,1.2,1.2,0,0,1,.309.457,1.4,1.4,0,0,1,.108.591,1.652,1.652,0,0,1-.108.591,1.2,1.2,0,0,1-.309.457,1.464,1.464,0,0,1-.484.3,1.806,1.806,0,0,1-.618.108h-.954a.036.036,0,0,0-.04.04v1.64a.063.063,0,0,1-.067.067Zm1.68-2.486a.816.816,0,0,0,.564-.188.782.782,0,0,0,0-1.048.764.764,0,0,0-.565-.2h-.914a.036.036,0,0,0-.04.04v1.357a.036.036,0,0,0,.04.04Z" transform="translate(-464.923 -150.15)" fill="#1b3e6f"/>
      <path id="Path_129989" data-name="Path 129989" d="M565.713,165.866a.063.063,0,0,1,.067-.067h.659a.063.063,0,0,1,.067.067v3.8a.036.036,0,0,0,.04.04h2.11a.063.063,0,0,1,.067.067v.591a.063.063,0,0,1-.067.067h-2.889a.063.063,0,0,1-.067-.067v-4.5Z" transform="translate(-490.978 -150.237)" fill="#1b3e6f"/>
      <path id="Path_129990" data-name="Path 129990" d="M591.777,165.865a.09.09,0,0,1,.094-.067h.618a.1.1,0,0,1,.094.067l1.559,4.5c.013.04,0,.067-.054.067h-.659a.1.1,0,0,1-.094-.067l-.309-.9h-1.734l-.309.9a.09.09,0,0,1-.094.067h-.659c-.04,0-.067-.027-.054-.067Zm1.008,2.889-.6-1.8h-.013l-.618,1.8Z" transform="translate(-512.165 -150.236)" fill="#1b3e6f"/>
      <path id="Path_129991" data-name="Path 129991" d="M619.983,170.436a.063.063,0,0,1-.067-.067v-3.8a.036.036,0,0,0-.04-.04h-1.209a.063.063,0,0,1-.067-.067v-.591a.063.063,0,0,1,.067-.067h3.292a.063.063,0,0,1,.067.067v.591a.063.063,0,0,1-.067.067h-1.209a.036.036,0,0,0-.04.04v3.8a.063.063,0,0,1-.067.067Z" transform="translate(-536.769 -150.237)" fill="#1b3e6f"/>
      <path id="Path_129992" data-name="Path 129992" d="M649.1,165.766a.063.063,0,0,1,.067-.067h2.876a.063.063,0,0,1,.067.067v.591a.063.063,0,0,1-.067.067h-2.11a.036.036,0,0,0-.04.04v1.169a.036.036,0,0,0,.04.04h1.787a.063.063,0,0,1,.067.067v.591a.063.063,0,0,1-.067.067h-1.787a.036.036,0,0,0-.04.04v1.828a.063.063,0,0,1-.067.067h-.659a.063.063,0,0,1-.067-.067Z" transform="translate(-563.17 -150.15)" fill="#1b3e6f"/>
      <path id="Path_129993" data-name="Path 129993" d="M677.961,170.08a1.789,1.789,0,0,1-1.021-.282,1.558,1.558,0,0,1-.6-.833,1.248,1.248,0,0,1-.054-.215c-.013-.067-.027-.161-.04-.255s-.013-.215-.027-.336-.013-.282-.013-.47,0-.336.013-.47a2.269,2.269,0,0,1,.027-.336c.013-.094.027-.175.04-.255s.04-.148.054-.215a1.558,1.558,0,0,1,.6-.833,1.819,1.819,0,0,1,1.021-.282,1.864,1.864,0,0,1,1.035.282,1.558,1.558,0,0,1,.6.833,1.248,1.248,0,0,1,.054.215c.013.067.027.161.04.255s.013.215.027.336.013.282.013.47,0,.336-.013.47a2.277,2.277,0,0,1-.027.336c-.013.094-.027.175-.04.255s-.04.148-.054.215a1.558,1.558,0,0,1-.6.833A1.833,1.833,0,0,1,677.961,170.08Zm0-.739a.867.867,0,0,0,.551-.161.98.98,0,0,0,.309-.443c.013-.04.027-.094.04-.148s.013-.121.027-.2a1.9,1.9,0,0,0,.013-.3c0-.121.013-.255.013-.417a3.766,3.766,0,0,0-.013-.417c0-.121-.013-.215-.013-.3a.814.814,0,0,0-.027-.2c-.013-.054-.027-.107-.04-.148a.89.89,0,0,0-1.707,0c-.013.04-.027.094-.04.148a.812.812,0,0,0-.027.2,1.9,1.9,0,0,0-.013.3v.833c0,.121.013.215.013.3a.814.814,0,0,0,.027.2c.013.054.027.108.04.148a.958.958,0,0,0,.3.443A.866.866,0,0,0,677.961,169.341Z" transform="translate(-586.629 -149.8)" fill="#1b3e6f"/>
      <path id="Path_129994" data-name="Path 129994" d="M711.52,170.349a.12.12,0,0,1-.108-.067l-.887-1.814h-.793a.036.036,0,0,0-.04.04v1.774a.063.063,0,0,1-.067.067h-.659a.063.063,0,0,1-.067-.067v-4.516a.063.063,0,0,1,.067-.067h1.787a1.711,1.711,0,0,1,.591.107,1.513,1.513,0,0,1,.47.282,1.372,1.372,0,0,1-.457,2.285l.968,1.895a.061.061,0,0,1,0,.067.07.07,0,0,1-.054.027h-.753Zm-.793-2.607a.715.715,0,0,0,.511-.175.6.6,0,0,0,.188-.47.658.658,0,0,0-.188-.484.715.715,0,0,0-.511-.175h-.981a.036.036,0,0,0-.04.04V167.7a.036.036,0,0,0,.04.04Z" transform="translate(-614.933 -150.15)" fill="#1b3e6f"/>
      <path id="Path_129995" data-name="Path 129995" d="M740.012,165.866a.063.063,0,0,1,.067-.067h.6a.141.141,0,0,1,.121.067l1.263,2.863h.027l1.25-2.863c.013-.04.054-.067.121-.067h.591a.063.063,0,0,1,.067.067v4.5a.063.063,0,0,1-.067.067h-.591a.063.063,0,0,1-.067-.067v-2.836h-.027l-.981,2.191a.146.146,0,0,1-.134.094h-.39a.134.134,0,0,1-.134-.094l-.981-2.191h-.027v2.836a.063.063,0,0,1-.067.067h-.591a.063.063,0,0,1-.067-.067v-4.5Z" transform="translate(-641.854 -150.237)" fill="#1b3e6f"/>
    </g>
  </g>
</svg>
