<svg id="Logo1" xmlns="http://www.w3.org/2000/svg" xmlns:xlink="http://www.w3.org/1999/xlink" width="259.526" height="49.009" viewBox="0 0 259.526 49.009">
  <defs>
    <clipPath id="clip-path">
      <rect id="Rectangle_6" data-name="Rectangle 6" width="259.526" height="49.009" fill="none"/>
    </clipPath>
  </defs>
  <path id="Path_1" data-name="Path 1" d="M6.091,41.074,4.048,46.39H4.029L1.957,41.074H.452v6.918H1.39V42.208h.018L3.7,47.993h.616l2.3-5.785h.02v5.785H7.6V41.074Z" transform="translate(-0.104 -9.988)" fill="#002850"/>
  <rect id="Rectangle_1" data-name="Rectangle 1" width="0.919" height="4.632" transform="translate(9.133 33.362)" fill="#002850"/>
  <g id="Group_2" data-name="Group 2" transform="translate(0 0)">
    <g id="Group_1" data-name="Group 1" clip-path="url(#clip-path)">
      <path id="Path_2" data-name="Path 2" d="M12.262,41.1a.59.59,0,0,0-.426.168.558.558,0,0,0-.175.418.546.546,0,0,0,.175.409.588.588,0,0,0,.426.169.622.622,0,0,0,.432-.164.535.535,0,0,0,.18-.414.551.551,0,0,0-.18-.418.609.609,0,0,0-.432-.168" transform="translate(-2.674 -9.915)" fill="#002850"/>
      <path id="Path_3" data-name="Path 3" d="M18.824,44.425a1.567,1.567,0,0,0-.537-.4,1.827,1.827,0,0,0-.771-.149,1.768,1.768,0,0,0-.489.068,1.718,1.718,0,0,0-.777.467,1.321,1.321,0,0,0-.239.341h-.029c0-.1,0-.216-.01-.36s-.017-.274-.029-.39h-.87c.012.148.023.318.029.51s.011.35.011.472v3.579h.918V46.137a1.633,1.633,0,0,1,.347-1.092,1.117,1.117,0,0,1,.894-.409,1.074,1.074,0,0,1,.528.115.866.866,0,0,1,.322.308,1.271,1.271,0,0,1,.162.442,3.065,3.065,0,0,1,.044.53v2.53h.919V45.733a2.467,2.467,0,0,0-.1-.722,1.592,1.592,0,0,0-.318-.587" transform="translate(-3.456 -10.585)" fill="#002850"/>
      <rect id="Rectangle_2" data-name="Rectangle 2" width="0.919" height="4.56" transform="translate(17.352 33.416)" fill="#002850"/>
      <path id="Path_4" data-name="Path 4" d="M22.926,41.1a.59.59,0,0,0-.426.168.558.558,0,0,0-.175.418.546.546,0,0,0,.175.409.588.588,0,0,0,.426.169.625.625,0,0,0,.432-.164.537.537,0,0,0,.179-.414.553.553,0,0,0-.179-.418.613.613,0,0,0-.432-.168" transform="translate(-5.12 -9.915)" fill="#002850"/>
      <path id="Path_5" data-name="Path 5" d="M28.358,46.314a1.982,1.982,0,0,0-.494-.265,5.184,5.184,0,0,0-.615-.183,3.255,3.255,0,0,1-.792-.255.454.454,0,0,1-.264-.428.491.491,0,0,1,.073-.275.61.61,0,0,1,.195-.182.918.918,0,0,1,.279-.105,1.458,1.458,0,0,1,.313-.034,1.273,1.273,0,0,1,.635.159,1.2,1.2,0,0,1,.44.409l.635-.529a1.593,1.593,0,0,0-.718-.558,2.522,2.522,0,0,0-1.608-.11,1.741,1.741,0,0,0-.557.25,1.312,1.312,0,0,0-.4.432,1.259,1.259,0,0,0-.151.631,1.079,1.079,0,0,0,.122.534,1.157,1.157,0,0,0,.318.361,1.624,1.624,0,0,0,.435.226q.239.081.474.139a4.216,4.216,0,0,1,.9.289.5.5,0,0,1,.308.471.554.554,0,0,1-.288.52.973.973,0,0,1-.293.111,1.686,1.686,0,0,1-.338.033,1.447,1.447,0,0,1-.718-.183,1.5,1.5,0,0,1-.513-.452l-.654.549a2,2,0,0,0,.836.615,2.732,2.732,0,0,0,1.03.2,3.012,3.012,0,0,0,.684-.077,1.7,1.7,0,0,0,.59-.255,1.334,1.334,0,0,0,.416-.457,1.38,1.38,0,0,0,.156-.683,1.1,1.1,0,0,0-.117-.521,1.161,1.161,0,0,0-.328-.379" transform="translate(-5.753 -10.585)" fill="#002850"/>
      <path id="Path_6" data-name="Path 6" d="M32.225,42.316h-.909v1.309h-.889v.741h.889v2.472a1.474,1.474,0,0,0,.347,1.068,1.335,1.335,0,0,0,1,.356,2.55,2.55,0,0,0,.415-.033,2.3,2.3,0,0,0,.367-.092l-.029-.741a1.074,1.074,0,0,1-.264.079,1.494,1.494,0,0,1-.274.027.633.633,0,0,1-.5-.177.889.889,0,0,1-.156-.59v-2.37h1.232v-.741H32.225Z" transform="translate(-6.978 -10.209)" fill="#002850"/>
      <path id="Path_7" data-name="Path 7" d="M37.047,44.121a1.579,1.579,0,0,0-.571.649h-.029c0-.1,0-.219-.011-.37s-.015-.284-.029-.4h-.87c.013.147.022.317.029.51s.01.349.01.471v3.579h.919v-2.4a1.937,1.937,0,0,1,.078-.554,1.363,1.363,0,0,1,.24-.466,1.171,1.171,0,0,1,.405-.322,1.289,1.289,0,0,1,.577-.12,1.736,1.736,0,0,1,.42.048l.039-.838a1.439,1.439,0,0,0-.361-.039,1.517,1.517,0,0,0-.845.246" transform="translate(-8.149 -10.585)" fill="#002850"/>
      <path id="Path_8" data-name="Path 8" d="M41.747,47.62h-.019l-1.437-3.579H39.265L41.25,48.6l-.294.76a1.936,1.936,0,0,1-.322.563.688.688,0,0,1-.539.2,1.458,1.458,0,0,1-.459-.077l-.089.8a2.169,2.169,0,0,0,.308.053c.1.01.2.014.3.014a1.809,1.809,0,0,0,.591-.086,1.353,1.353,0,0,0,.435-.246,1.579,1.579,0,0,0,.322-.385,3.756,3.756,0,0,0,.254-.514L44,44.041h-.977Z" transform="translate(-9.004 -10.625)" fill="#002850"/>
      <path id="Path_9" data-name="Path 9" d="M53.622,44.549a2.437,2.437,0,0,0-.8-.5,2.82,2.82,0,0,0-1.974,0,2.372,2.372,0,0,0-.792.5,2.3,2.3,0,0,0-.523.755,2.4,2.4,0,0,0-.191.967,2.431,2.431,0,0,0,.191.972,2.3,2.3,0,0,0,1.315,1.266,2.831,2.831,0,0,0,1.974,0,2.4,2.4,0,0,0,.8-.5,2.345,2.345,0,0,0,.529-.765,2.444,2.444,0,0,0,.19-.972,2.414,2.414,0,0,0-.19-.967,2.3,2.3,0,0,0-.529-.755M53.28,46.9a1.629,1.629,0,0,1-.3.528,1.416,1.416,0,0,1-.485.364,1.7,1.7,0,0,1-1.323,0,1.4,1.4,0,0,1-.486-.364,1.63,1.63,0,0,1-.3-.528,1.935,1.935,0,0,1,0-1.247,1.574,1.574,0,0,1,.3-.523,1.434,1.434,0,0,1,.486-.36,1.706,1.706,0,0,1,1.323,0,1.454,1.454,0,0,1,.485.36,1.573,1.573,0,0,1,.3.523,1.935,1.935,0,0,1,0,1.247" transform="translate(-11.316 -10.585)" fill="#002850"/>
      <path id="Path_10" data-name="Path 10" d="M58.375,40.457a1.439,1.439,0,0,0-.536.395,1.52,1.52,0,0,0-.3.591,2.82,2.82,0,0,0-.093.746v.953h-.919v.741h.919V47.7h.919V43.883h1.075v-.741H58.36v-.953a2.707,2.707,0,0,1,.03-.408,1.008,1.008,0,0,1,.116-.351.652.652,0,0,1,.25-.245.854.854,0,0,1,.425-.092,1.453,1.453,0,0,1,.244.019c.072.013.144.029.216.049l.107-.78a2.192,2.192,0,0,0-.576-.067,1.969,1.969,0,0,0-.8.144" transform="translate(-12.962 -9.726)" fill="#002850"/>
      <path id="Path_11" data-name="Path 11" d="M65.911,44.768h3.263v-.817H65.911V41.91h3.47v-.837H64.943v6.812h4.583v-.847H65.911Z" transform="translate(-14.893 -9.909)" fill="#002850"/>
      <path id="Path_12" data-name="Path 12" d="M76.2,44.425a1.585,1.585,0,0,0-.538-.4,1.833,1.833,0,0,0-.772-.149,1.759,1.759,0,0,0-.919.255,1.7,1.7,0,0,0-.346.279,1.288,1.288,0,0,0-.24.341H73.36c0-.1,0-.216-.01-.36s-.017-.274-.029-.39h-.869q.017.222.029.51c.005.193.01.35.01.472v3.579h.918V46.137a1.629,1.629,0,0,1,.347-1.092,1.116,1.116,0,0,1,.893-.409,1.08,1.08,0,0,1,.529.115.884.884,0,0,1,.322.308,1.3,1.3,0,0,1,.161.442,3.064,3.064,0,0,1,.045.53v2.53h.919V45.733a2.442,2.442,0,0,0-.1-.722,1.6,1.6,0,0,0-.317-.587" transform="translate(-16.614 -10.585)" fill="#002850"/>
      <path id="Path_13" data-name="Path 13" d="M81.362,47.63h-.019l-1.358-3.589H78.968l1.886,4.56h1l1.856-4.56H82.73Z" transform="translate(-18.109 -10.625)" fill="#002850"/>
      <path id="Path_14" data-name="Path 14" d="M86.7,41.1a.593.593,0,0,0-.427.168.56.56,0,0,0-.174.418.548.548,0,0,0,.174.409.591.591,0,0,0,.427.169.622.622,0,0,0,.432-.164.535.535,0,0,0,.179-.414.551.551,0,0,0-.179-.418A.609.609,0,0,0,86.7,41.1" transform="translate(-19.743 -9.915)" fill="#002850"/>
      <rect id="Rectangle_3" data-name="Rectangle 3" width="0.918" height="4.56" transform="translate(66.498 33.416)" fill="#002850"/>
      <path id="Path_15" data-name="Path 15" d="M91.015,44.121a1.58,1.58,0,0,0-.572.649h-.029c0-.1,0-.219-.011-.37s-.015-.284-.029-.4H89.5c.013.147.022.317.029.51s.01.349.01.471v3.579h.919v-2.4a1.937,1.937,0,0,1,.078-.554,1.348,1.348,0,0,1,.239-.466,1.182,1.182,0,0,1,.406-.322,1.292,1.292,0,0,1,.577-.12,1.736,1.736,0,0,1,.42.048l.039-.838a1.44,1.44,0,0,0-.361-.039,1.517,1.517,0,0,0-.845.246" transform="translate(-20.525 -10.585)" fill="#002850"/>
      <path id="Path_16" data-name="Path 16" d="M97.8,44.549a2.421,2.421,0,0,0-.8-.5,2.82,2.82,0,0,0-1.974,0,2.373,2.373,0,0,0-.792.5,2.314,2.314,0,0,0-.523.755,2.414,2.414,0,0,0-.19.967,2.444,2.444,0,0,0,.19.972,2.364,2.364,0,0,0,.523.765,2.338,2.338,0,0,0,.792.5,2.831,2.831,0,0,0,1.974,0,2.385,2.385,0,0,0,.8-.5,2.32,2.32,0,0,0,.528-.765,2.431,2.431,0,0,0,.191-.972,2.4,2.4,0,0,0-.191-.967,2.271,2.271,0,0,0-.528-.755M97.459,46.9a1.645,1.645,0,0,1-.3.528,1.412,1.412,0,0,1-.486.364,1.7,1.7,0,0,1-1.322,0,1.4,1.4,0,0,1-.486-.364,1.629,1.629,0,0,1-.3-.528,1.935,1.935,0,0,1,0-1.247,1.574,1.574,0,0,1,.3-.523,1.442,1.442,0,0,1,.486-.36,1.7,1.7,0,0,1,1.322,0,1.449,1.449,0,0,1,.486.36,1.589,1.589,0,0,1,.3.523,1.949,1.949,0,0,1,0,1.247" transform="translate(-21.447 -10.585)" fill="#002850"/>
      <path id="Path_17" data-name="Path 17" d="M105.355,44.425a1.571,1.571,0,0,0-.536-.4,1.833,1.833,0,0,0-.772-.149,1.768,1.768,0,0,0-.489.068,1.718,1.718,0,0,0-.777.467,1.34,1.34,0,0,0-.239.341h-.029c0-.1,0-.216-.01-.36s-.017-.274-.029-.39H101.6c.012.148.022.318.029.51s.011.35.011.472v3.579h.918V46.137a1.633,1.633,0,0,1,.347-1.092,1.117,1.117,0,0,1,.894-.409,1.074,1.074,0,0,1,.528.115.866.866,0,0,1,.322.308,1.271,1.271,0,0,1,.162.442,3.064,3.064,0,0,1,.044.53v2.53h.919V45.733a2.467,2.467,0,0,0-.1-.722,1.6,1.6,0,0,0-.318-.587" transform="translate(-23.3 -10.585)" fill="#002850"/>
      <path id="Path_18" data-name="Path 18" d="M115.716,44.425a1.567,1.567,0,0,0-.537-.4,1.976,1.976,0,0,0-1.691.087,1.629,1.629,0,0,0-.654.678,1.432,1.432,0,0,0-.592-.7,1.7,1.7,0,0,0-.845-.212,1.623,1.623,0,0,0-.914.255,1.558,1.558,0,0,0-.563.621h-.029c0-.1,0-.216-.009-.36s-.016-.274-.029-.39h-.869q.018.222.029.51t.009.472v3.579h.919V46.137a1.667,1.667,0,0,1,.337-1.092,1.051,1.051,0,0,1,.845-.409,1.031,1.031,0,0,1,.46.092.811.811,0,0,1,.3.25.986.986,0,0,1,.166.38,2.3,2.3,0,0,1,.049.491v2.713h.918V46.1a2.18,2.18,0,0,1,.064-.53,1.423,1.423,0,0,1,.205-.467,1.114,1.114,0,0,1,.366-.337,1.062,1.062,0,0,1,.537-.13.974.974,0,0,1,.5.115.892.892,0,0,1,.312.308,1.341,1.341,0,0,1,.166.442,2.719,2.719,0,0,1,.049.53v2.53h.919V45.733a2.467,2.467,0,0,0-.1-.722,1.592,1.592,0,0,0-.318-.587" transform="translate(-24.992 -10.585)" fill="#002850"/>
      <path id="Path_19" data-name="Path 19" d="M123.919,44.511a1.93,1.93,0,0,0-.705-.471,2.657,2.657,0,0,0-1.876.014,2.3,2.3,0,0,0-.764.5,2.243,2.243,0,0,0-.5.765,2.573,2.573,0,0,0-.181.977,2.5,2.5,0,0,0,.186.981,2.2,2.2,0,0,0,1.281,1.241,2.839,2.839,0,0,0,2.1-.055,2.3,2.3,0,0,0,.875-.715l-.645-.509a1.668,1.668,0,0,1-.537.491,1.573,1.573,0,0,1-.812.2,1.556,1.556,0,0,1-.571-.1,1.53,1.53,0,0,1-.474-.292,1.4,1.4,0,0,1-.328-.439,1.314,1.314,0,0,1-.132-.539h3.683a1.158,1.158,0,0,0,.011-.154v-.155a2.921,2.921,0,0,0-.156-.986,2.133,2.133,0,0,0-.445-.746m-3.092,1.367a1.276,1.276,0,0,1,.142-.505,1.447,1.447,0,0,1,.312-.409,1.424,1.424,0,0,1,.45-.274,1.5,1.5,0,0,1,.552-.1,1.434,1.434,0,0,1,.562.1,1.14,1.14,0,0,1,.4.274,1.152,1.152,0,0,1,.244.409,1.736,1.736,0,0,1,.093.505Z" transform="translate(-27.493 -10.585)" fill="#002850"/>
      <path id="Path_20" data-name="Path 20" d="M131.248,44.425a1.574,1.574,0,0,0-.537-.4,1.833,1.833,0,0,0-.772-.149,1.768,1.768,0,0,0-.489.068,1.729,1.729,0,0,0-.429.187,1.756,1.756,0,0,0-.348.279,1.34,1.34,0,0,0-.239.341H128.4c0-.1,0-.216-.01-.36s-.016-.274-.029-.39H127.5c.012.148.022.318.029.51s.011.35.011.472v3.579h.918V46.137a1.633,1.633,0,0,1,.347-1.092,1.118,1.118,0,0,1,.894-.409,1.077,1.077,0,0,1,.529.115.878.878,0,0,1,.322.308,1.27,1.27,0,0,1,.161.442,3.061,3.061,0,0,1,.045.53v2.53h.919V45.733a2.467,2.467,0,0,0-.1-.722,1.614,1.614,0,0,0-.318-.587" transform="translate(-29.237 -10.585)" fill="#002850"/>
      <path id="Path_21" data-name="Path 21" d="M135.736,42.316h-.909v1.309h-.889v.741h.889v2.472a1.474,1.474,0,0,0,.347,1.068,1.335,1.335,0,0,0,1,.356,2.55,2.55,0,0,0,.415-.033,2.274,2.274,0,0,0,.366-.092l-.029-.741a1.078,1.078,0,0,1-.264.079,1.5,1.5,0,0,1-.274.027.633.633,0,0,1-.5-.177.889.889,0,0,1-.156-.59v-2.37h1.232v-.741h-1.232Z" transform="translate(-30.715 -10.209)" fill="#002850"/>
      <path id="Path_22" data-name="Path 22" d="M148.126,46.5h-.02l-1.612-5.427h-1.065L143.806,46.5h-.02l-1.524-5.427h-1.047l2.033,6.812h1.007l1.681-5.475h.02l1.68,5.475h1.007l2.032-6.812H149.65Z" transform="translate(-32.384 -9.909)" fill="#002850"/>
      <path id="Path_23" data-name="Path 23" d="M157.849,47.658V45.666a2.04,2.04,0,0,0-.118-.7,1.534,1.534,0,0,0-.351-.567,1.636,1.636,0,0,0-.6-.381,2.437,2.437,0,0,0-.865-.14,3.046,3.046,0,0,0-1.061.183,2.475,2.475,0,0,0-.835.5l.489.577a1.923,1.923,0,0,1,1.319-.53,1.306,1.306,0,0,1,.831.246.9.9,0,0,1,.313.755v.125q-.587,0-1.163.048a4.268,4.268,0,0,0-1.037.207,1.8,1.8,0,0,0-.742.462,1.156,1.156,0,0,0-.284.822,1.277,1.277,0,0,0,.161.664,1.347,1.347,0,0,0,.406.432,1.681,1.681,0,0,0,.542.236,2.457,2.457,0,0,0,.573.072,1.949,1.949,0,0,0,.913-.2,1.783,1.783,0,0,0,.64-.568h.029a2.793,2.793,0,0,0,.078.654h.83a2.561,2.561,0,0,1-.053-.419q-.015-.255-.015-.486m-.879-1.03a1.364,1.364,0,0,1-.347.958,1.275,1.275,0,0,1-.992.38,1.693,1.693,0,0,1-.342-.034.9.9,0,0,1-.3-.12.688.688,0,0,1-.22-.221.628.628,0,0,1-.083-.338.586.586,0,0,1,.195-.461,1.256,1.256,0,0,1,.494-.26,3.368,3.368,0,0,1,.664-.115c.244-.019.481-.029.708-.029h.225Z" transform="translate(-35.257 -10.585)" fill="#002850"/>
      <path id="Path_24" data-name="Path 24" d="M161.744,42.316h-.91v1.309h-.889v.741h.889v2.472a1.474,1.474,0,0,0,.348,1.068,1.334,1.334,0,0,0,1,.356,2.543,2.543,0,0,0,.415-.033,2.263,2.263,0,0,0,.367-.092l-.029-.741a1.1,1.1,0,0,1-.264.079,1.494,1.494,0,0,1-.274.027.633.633,0,0,1-.5-.177.885.885,0,0,1-.156-.59v-2.37h1.231v-.741h-1.231Z" transform="translate(-36.679 -10.209)" fill="#002850"/>
      <path id="Path_25" data-name="Path 25" d="M168.744,44.511a1.93,1.93,0,0,0-.705-.471,2.657,2.657,0,0,0-1.876.014,2.3,2.3,0,0,0-.764.5,2.23,2.23,0,0,0-.5.765,2.558,2.558,0,0,0-.182.977,2.5,2.5,0,0,0,.186.981,2.2,2.2,0,0,0,1.281,1.241,2.839,2.839,0,0,0,2.1-.055,2.3,2.3,0,0,0,.875-.715l-.645-.509a1.66,1.66,0,0,1-.537.491,1.573,1.573,0,0,1-.812.2,1.556,1.556,0,0,1-.571-.1,1.53,1.53,0,0,1-.474-.292,1.42,1.42,0,0,1-.328-.439,1.324,1.324,0,0,1-.131-.539h3.684a1.306,1.306,0,0,0,.01-.154v-.155a2.92,2.92,0,0,0-.156-.986,2.133,2.133,0,0,0-.445-.746m-3.092,1.367a1.277,1.277,0,0,1,.142-.505,1.447,1.447,0,0,1,.312-.409,1.432,1.432,0,0,1,.45-.274,1.5,1.5,0,0,1,.552-.1,1.434,1.434,0,0,1,.562.1,1.15,1.15,0,0,1,.4.274,1.173,1.173,0,0,1,.244.409,1.711,1.711,0,0,1,.093.505Z" transform="translate(-37.772 -10.585)" fill="#002850"/>
      <path id="Path_26" data-name="Path 26" d="M173.83,44.121a1.584,1.584,0,0,0-.571.649h-.029c0-.1,0-.219-.01-.37s-.015-.284-.029-.4h-.869c.013.147.022.317.029.51s.01.349.01.471v3.579h.918v-2.4a1.937,1.937,0,0,1,.079-.554,1.348,1.348,0,0,1,.239-.466,1.182,1.182,0,0,1,.406-.322,1.288,1.288,0,0,1,.576-.12,1.738,1.738,0,0,1,.421.048l.038-.838a1.433,1.433,0,0,0-.361-.039,1.521,1.521,0,0,0-.846.246" transform="translate(-39.517 -10.585)" fill="#002850"/>
      <path id="Path_27" data-name="Path 27" d="M185.949,44.193h-1.075L184,45.636l-1.378-1.4a4.61,4.61,0,0,0,.563-.307,2.493,2.493,0,0,0,.474-.4,1.833,1.833,0,0,0,.328-.49,1.461,1.461,0,0,0,.122-.606,1.549,1.549,0,0,0-.147-.693,1.494,1.494,0,0,0-.39-.5,1.653,1.653,0,0,0-.567-.3,2.266,2.266,0,0,0-.684-.1,2.367,2.367,0,0,0-.694.1,1.747,1.747,0,0,0-.59.308,1.49,1.49,0,0,0-.412.514,1.619,1.619,0,0,0-.151.722,1.583,1.583,0,0,0,.232.842,3.81,3.81,0,0,0,.568.716,4.726,4.726,0,0,0-.58.318,2.443,2.443,0,0,0-.5.423,1.988,1.988,0,0,0-.349.544,1.694,1.694,0,0,0-.133.687,1.839,1.839,0,0,0,.18.832,1.8,1.8,0,0,0,.489.606,2.137,2.137,0,0,0,.719.37,2.926,2.926,0,0,0,.859.125,2.509,2.509,0,0,0,1.217-.269,2.979,2.979,0,0,0,.884-.751l.861.9h1.28l-1.583-1.607Zm-4.272-2.338a.915.915,0,0,1,.66-.25.853.853,0,0,1,.637.25.887.887,0,0,1,.151,1.019,1.392,1.392,0,0,1-.253.338,1.73,1.73,0,0,1-.359.269q-.2.115-.418.211c-.078-.07-.156-.15-.238-.24a2.026,2.026,0,0,1-.218-.294,1.88,1.88,0,0,1-.16-.322.881.881,0,0,1-.063-.327.861.861,0,0,1,.262-.654m1.144,5.123a1.541,1.541,0,0,1-.84.216,1.462,1.462,0,0,1-.479-.081,1.307,1.307,0,0,1-.415-.236,1.159,1.159,0,0,1-.288-.376,1.106,1.106,0,0,1-.107-.49,1.163,1.163,0,0,1,.3-.838,2.359,2.359,0,0,1,.812-.529l1.642,1.694a2.167,2.167,0,0,1-.626.64" transform="translate(-41.212 -9.854)" fill="#002850"/>
      <path id="Path_28" data-name="Path 28" d="M194.28,41.074l-3,6.812h1.074l.7-1.674h3.283l.7,1.674h1.094l-2.971-6.812Zm-.889,4.3,1.3-3.194,1.289,3.194Z" transform="translate(-43.864 -9.909)" fill="#002850"/>
      <path id="Path_29" data-name="Path 29" d="M204.882,44.732h-.02a1.63,1.63,0,0,0-.717-.644,2.233,2.233,0,0,0-.953-.212,2.359,2.359,0,0,0-.958.189,2.186,2.186,0,0,0-.732.509,2.282,2.282,0,0,0-.469.756,2.549,2.549,0,0,0-.166.923,2.513,2.513,0,0,0,.166.919,2.245,2.245,0,0,0,.469.746,2.167,2.167,0,0,0,.738.5,2.456,2.456,0,0,0,.963.183,2.2,2.2,0,0,0,.938-.2,1.621,1.621,0,0,0,.694-.587h.019V48.4a2.533,2.533,0,0,1-.083.664,1.372,1.372,0,0,1-.273.535,1.293,1.293,0,0,1-.5.355,2,2,0,0,1-.772.131,2.278,2.278,0,0,1-.933-.2,2.191,2.191,0,0,1-.758-.539l-.586.7a3.087,3.087,0,0,0,1.051.611,3.6,3.6,0,0,0,1.216.216,3.051,3.051,0,0,0,1.211-.212,2.151,2.151,0,0,0,.792-.562,2.058,2.058,0,0,0,.43-.809,3.578,3.578,0,0,0,.127-.957V44h-.889Zm-.073,2.131a1.539,1.539,0,0,1-.318.51,1.5,1.5,0,0,1-.5.342,1.649,1.649,0,0,1-.647.125,1.483,1.483,0,0,1-.647-.136,1.524,1.524,0,0,1-.486-.355,1.5,1.5,0,0,1-.3-.511,1.8,1.8,0,0,1-.1-.605,1.881,1.881,0,0,1,.1-.621,1.437,1.437,0,0,1,.3-.51,1.513,1.513,0,0,1,.486-.347,1.664,1.664,0,0,1,1.289,0,1.557,1.557,0,0,1,.824.861,1.687,1.687,0,0,1,.113.616,1.748,1.748,0,0,1-.113.63" transform="translate(-46.062 -10.585)" fill="#002850"/>
      <path id="Path_30" data-name="Path 30" d="M210.732,44.121a1.581,1.581,0,0,0-.572.649h-.029c0-.1,0-.219-.01-.37s-.015-.284-.029-.4h-.869c.013.147.022.317.029.51s.01.349.01.471v3.579h.919v-2.4a1.937,1.937,0,0,1,.078-.554,1.348,1.348,0,0,1,.239-.466,1.182,1.182,0,0,1,.406-.322,1.288,1.288,0,0,1,.576-.12,1.738,1.738,0,0,1,.421.048l.039-.838a1.444,1.444,0,0,0-.361-.039,1.515,1.515,0,0,0-.845.246" transform="translate(-47.979 -10.585)" fill="#002850"/>
      <rect id="Rectangle_4" data-name="Rectangle 4" width="0.919" height="4.56" transform="translate(164.83 33.416)" fill="#002850"/>
      <path id="Path_31" data-name="Path 31" d="M214.286,41.1a.59.59,0,0,0-.426.168.558.558,0,0,0-.175.418.546.546,0,0,0,.175.409.588.588,0,0,0,.426.169.625.625,0,0,0,.432-.164.537.537,0,0,0,.179-.414.553.553,0,0,0-.179-.418.612.612,0,0,0-.432-.168" transform="translate(-49.002 -9.915)" fill="#002850"/>
      <path id="Path_32" data-name="Path 32" d="M219.886,47.792a1.6,1.6,0,0,1-1.285,0,1.44,1.44,0,0,1-.479-.361,1.578,1.578,0,0,1-.3-.524,1.958,1.958,0,0,1,0-1.25,1.57,1.57,0,0,1,.3-.524,1.466,1.466,0,0,1,.474-.361,1.45,1.45,0,0,1,.64-.134,1.364,1.364,0,0,1,.626.149,1.119,1.119,0,0,1,.439.37l.664-.529a1.777,1.777,0,0,0-.767-.558,2.615,2.615,0,0,0-.972-.193,2.749,2.749,0,0,0-.983.174,2.339,2.339,0,0,0-.786.49,2.238,2.238,0,0,0-.517.761,2.5,2.5,0,0,0-.186.981,2.476,2.476,0,0,0,.19.991,2.245,2.245,0,0,0,.522.756,2.372,2.372,0,0,0,.788.486,2.765,2.765,0,0,0,.992.173,2.529,2.529,0,0,0,1-.187,1.99,1.99,0,0,0,.733-.524l-.616-.549a1.309,1.309,0,0,1-.474.366" transform="translate(-49.706 -10.585)" fill="#002850"/>
      <path id="Path_33" data-name="Path 33" d="M227.494,47.62V44.041h-.918v2.425a1.644,1.644,0,0,1-.343,1.091,1.113,1.113,0,0,1-.9.41,1.063,1.063,0,0,1-.528-.116.86.86,0,0,1-.322-.308,1.253,1.253,0,0,1-.162-.447,3.222,3.222,0,0,1-.044-.534V44.041h-.918V46.87a2.458,2.458,0,0,0,.1.722,1.682,1.682,0,0,0,.312.592,1.428,1.428,0,0,0,.537.4,1.916,1.916,0,0,0,.778.144,1.737,1.737,0,0,0,.923-.254,1.509,1.509,0,0,0,.592-.621h.018c0,.1,0,.217.01.361s.016.274.029.389h.87q-.02-.221-.029-.51t-.01-.471" transform="translate(-51.221 -10.625)" fill="#002850"/>
      <rect id="Rectangle_5" data-name="Rectangle 5" width="0.918" height="7.273" transform="translate(177.886 30.703)" fill="#002850"/>
      <path id="Path_34" data-name="Path 34" d="M234.9,42.316h-.909v1.309H233.1v.741h.889v2.472a1.474,1.474,0,0,0,.348,1.068,1.335,1.335,0,0,0,1,.356,2.534,2.534,0,0,0,.415-.033,2.294,2.294,0,0,0,.368-.092l-.03-.741a1.067,1.067,0,0,1-.264.079,1.5,1.5,0,0,1-.274.027.633.633,0,0,1-.5-.177.884.884,0,0,1-.156-.59v-2.37h1.232v-.741H234.9Z" transform="translate(-53.454 -10.209)" fill="#002850"/>
      <path id="Path_35" data-name="Path 35" d="M242.342,47.62V44.041h-.918v2.425a1.644,1.644,0,0,1-.343,1.091,1.115,1.115,0,0,1-.9.41,1.062,1.062,0,0,1-.527-.116.854.854,0,0,1-.322-.308,1.253,1.253,0,0,1-.162-.447,3.14,3.14,0,0,1-.044-.534V44.041h-.919V46.87a2.458,2.458,0,0,0,.1.722,1.684,1.684,0,0,0,.313.592,1.428,1.428,0,0,0,.537.4,1.913,1.913,0,0,0,.778.144,1.736,1.736,0,0,0,.923-.254,1.507,1.507,0,0,0,.591-.621h.019c0,.1,0,.217.01.361s.015.274.029.389h.87q-.02-.221-.029-.51t-.01-.471" transform="translate(-54.626 -10.625)" fill="#002850"/>
      <path id="Path_36" data-name="Path 36" d="M247.1,44.121a1.584,1.584,0,0,0-.571.649H246.5c0-.1,0-.219-.01-.37s-.015-.284-.029-.4h-.869q.02.221.029.51c.007.193.01.349.01.471v3.579h.919v-2.4a1.938,1.938,0,0,1,.079-.554,1.348,1.348,0,0,1,.239-.466,1.181,1.181,0,0,1,.406-.322,1.286,1.286,0,0,1,.576-.12,1.727,1.727,0,0,1,.42.048l.039-.838a1.433,1.433,0,0,0-.361-.039,1.519,1.519,0,0,0-.846.246" transform="translate(-56.319 -10.585)" fill="#002850"/>
      <path id="Path_37" data-name="Path 37" d="M254.084,45.257a2.132,2.132,0,0,0-.445-.746,1.93,1.93,0,0,0-.705-.471,2.657,2.657,0,0,0-1.876.014,2.3,2.3,0,0,0-.764.5,2.242,2.242,0,0,0-.5.765,2.573,2.573,0,0,0-.181.977,2.5,2.5,0,0,0,.186.981,2.2,2.2,0,0,0,1.281,1.241,2.839,2.839,0,0,0,2.1-.055,2.3,2.3,0,0,0,.875-.715l-.645-.509a1.668,1.668,0,0,1-.537.491,1.575,1.575,0,0,1-.812.2,1.556,1.556,0,0,1-.571-.1,1.521,1.521,0,0,1-.474-.292,1.41,1.41,0,0,1-.328-.439,1.338,1.338,0,0,1-.132-.539h3.684a1.16,1.16,0,0,0,.011-.154v-.155a2.92,2.92,0,0,0-.156-.986m-3.538.621a1.29,1.29,0,0,1,.143-.505,1.407,1.407,0,0,1,.762-.683,1.5,1.5,0,0,1,.552-.1,1.436,1.436,0,0,1,.562.1,1.147,1.147,0,0,1,.4.274,1.163,1.163,0,0,1,.244.409,1.71,1.71,0,0,1,.092.505Z" transform="translate(-57.24 -10.585)" fill="#002850"/>
      <path id="Path_38" data-name="Path 38" d="M173.186,12.986h-1.545v-.5c0-.687.644-.945,1.3-.945V10.085c-.289.018-.7.069-.826.09a2.241,2.241,0,0,0-1.418.766,2.814,2.814,0,0,0-.6,1.842v1.606h3.093Z" transform="translate(-39.006 -2.433)" fill="#002850"/>
      <path id="Path_39" data-name="Path 39" d="M162.934,15.2a1.334,1.334,0,0,0,1.349-1.329,1.287,1.287,0,0,0-.389-.948,1.382,1.382,0,0,0-1.909,0,1.23,1.23,0,0,0-.4.944,1.256,1.256,0,0,0,.4.933,1.293,1.293,0,0,0,.949.4" transform="translate(-37.054 -3.025)" fill="#002850"/>
      <path id="Path_40" data-name="Path 40" d="M158.447,15.2a1.269,1.269,0,0,0,.936-.394,1.294,1.294,0,0,0,.388-.936,1.28,1.28,0,0,0-.388-.948,1.361,1.361,0,0,0-1.9,0,1.271,1.271,0,0,0-.386.945,1.338,1.338,0,0,0,1.35,1.329" transform="translate(-36.026 -3.024)" fill="#002850"/>
      <path id="Path_41" data-name="Path 41" d="M219.334,15.2a1.337,1.337,0,0,0,1.351-1.329,1.277,1.277,0,0,0-.388-.944,1.376,1.376,0,0,0-1.913,0,1.244,1.244,0,0,0-.4.944,1.272,1.272,0,0,0,.4.933,1.312,1.312,0,0,0,.95.4" transform="translate(-49.988 -3.025)" fill="#002850"/>
      <path id="Path_42" data-name="Path 42" d="M214.846,15.2a1.274,1.274,0,0,0,.936-.393,1.288,1.288,0,0,0,.39-.936,1.275,1.275,0,0,0-.388-.944,1.372,1.372,0,0,0-1.9,0,1.264,1.264,0,0,0-.39.947,1.342,1.342,0,0,0,1.351,1.329" transform="translate(-48.959 -3.026)" fill="#002850"/>
      <path id="Path_43" data-name="Path 43" d="M225.526,28.31a3.826,3.826,0,0,0,1.264-2.156c.027-.128.069-.913.069-.913l.042-7.43-2.254-.011c0,5.136-.015,7.56-.025,7.682a1.7,1.7,0,0,1-.57,1.148,2.059,2.059,0,0,1-1.292.436V29.3l.547-.049a4.087,4.087,0,0,0,2.22-.942" transform="translate(-51.083 -4.295)" fill="#002850"/>
      <path id="Path_44" data-name="Path 44" d="M212.605,25.437a4.253,4.253,0,0,0,4.243,0,4.3,4.3,0,0,0,1.544-1.523,3.958,3.958,0,0,0,.578-2.09c-.005-1.436,0-2.651,0-4.024l-4.393-.033a4.171,4.171,0,0,0-2.085.53,3.88,3.88,0,0,0-1.46,1.461,4.169,4.169,0,0,0-.527,2.066,4.05,4.05,0,0,0,.565,2.09,4.215,4.215,0,0,0,1.535,1.522m.664-4.944a1.723,1.723,0,0,1,1.306-.525l2.135.026v1.831a1.856,1.856,0,0,1-.579,1.385,1.969,1.969,0,0,1-2.787,0,1.978,1.978,0,0,1-.075-2.717" transform="translate(-48.273 -4.287)" fill="#002850"/>
      <path id="Path_45" data-name="Path 45" d="M234.016,12.68h-2.264c0,2.584,0,11.924,0,11.924h2.264c.034,0,0-11.924,0-11.924" transform="translate(-53.145 -3.059)" fill="#002850"/>
      <path id="Path_46" data-name="Path 46" d="M133.524,12.684h-2.237c0,2.6,0,11.931,0,11.931h2.24V12.684" transform="translate(-30.106 -3.06)" fill="#002850"/>
      <path id="Path_47" data-name="Path 47" d="M203.882,12.681H201.6c0,2.591,0,11.931,0,11.931h2.284Z" transform="translate(-46.231 -3.059)" fill="#002850"/>
      <path id="Path_48" data-name="Path 48" d="M57.006,12.682H54.769c0,2.584,0,11.931,0,11.931h2.24V12.682" transform="translate(-12.559 -3.06)" fill="#002850"/>
      <path id="Path_49" data-name="Path 49" d="M188.15,31.413a1.254,1.254,0,0,0-.4.945,1.267,1.267,0,0,0,.4.934,1.356,1.356,0,0,0,1.909,0,1.3,1.3,0,0,0,.388-.936,1.281,1.281,0,0,0-.387-.948,1.387,1.387,0,0,0-1.913,0" transform="translate(-43.055 -7.486)" fill="#002850"/>
      <path id="Path_50" data-name="Path 50" d="M187.651,12.683h-2.176l-.022,9.694-1.327,0a2.032,2.032,0,0,1-1.316-.4,1.918,1.918,0,0,1-.345-1.313l.016-4.056v-.025H180.2l-.018,4.228a2.3,2.3,0,0,1-.17,1.022.907.907,0,0,1-.641.446,10.44,10.44,0,0,1-1.59.1l-.45-.014a1.742,1.742,0,0,1-1.078-.385,1.918,1.918,0,0,1-.345-1.313l.017-4.078h-2.283l-.018,4.225a2.268,2.268,0,0,1-.17,1.021.906.906,0,0,1-.64.448,10.987,10.987,0,0,1-1.649.1c-.113,0-.382-.008-.447-.013a1.761,1.761,0,0,1-1.1-.386,1.908,1.908,0,0,1-.345-1.312l.016-4.052v-.027h-2.284l-.015,4.225a2.286,2.286,0,0,1-.171,1.022.906.906,0,0,1-.641.448c-.251.058-2.452.049-2.452.049-.844,0-1.151-.489-1.151-1.461,0-1.134,0-4.285,0-4.285l-4.4-.016a4.156,4.156,0,0,0-2.085.53,3.849,3.849,0,0,0-1.459,1.46,4.153,4.153,0,0,0-.525,2.066,4.042,4.042,0,0,0,.562,2.09,4.2,4.2,0,0,0,1.534,1.523,4.137,4.137,0,0,0,2.121.567,4.241,4.241,0,0,0,1.557-.294,4.632,4.632,0,0,0,1.36-.851l.028-.024a3.913,3.913,0,0,0,1.158.8,4.761,4.761,0,0,0,1.487.159c1.121.02,1.925,0,1.925,0a4.959,4.959,0,0,0,1.107-.132,4.146,4.146,0,0,0,1.25-.682l.087.074a3,3,0,0,0,1.175.633,5.815,5.815,0,0,0,1.3.121l1.38,0a5.219,5.219,0,0,0,1.324-.143,3.582,3.582,0,0,0,1.179-.635l.035.027a2.992,2.992,0,0,0,1.175.633,5.814,5.814,0,0,0,1.3.121l1.672,0a5.214,5.214,0,0,0,1.322-.143,3.582,3.582,0,0,0,1.178-.635h0s.091.076.119.1a2.9,2.9,0,0,0,1.086.563,5.839,5.839,0,0,0,1.305.121l3.89,0,.022-11.9v-.02Zm-27.343,7.938a1.855,1.855,0,0,1-.582,1.385,1.972,1.972,0,0,1-2.785,0,1.855,1.855,0,0,1-.58-1.385,1.83,1.83,0,0,1,.5-1.333,1.732,1.732,0,0,1,1.306-.524l2.138.024Z" transform="translate(-35.339 -3.06)" fill="#002850"/>
      <path id="Path_51" data-name="Path 51" d="M182.214,33.686a1.334,1.334,0,0,0,1.35-1.328,1.273,1.273,0,0,0-.388-.947,1.385,1.385,0,0,0-1.911,0,1.254,1.254,0,0,0-.4.945,1.279,1.279,0,0,0,.4.934,1.3,1.3,0,0,0,.949.394" transform="translate(-41.476 -7.486)" fill="#002850"/>
      <path id="Path_52" data-name="Path 52" d="M176.765,31.409a1.336,1.336,0,0,0,.963,2.276,1.267,1.267,0,0,0,.938-.4,1.337,1.337,0,0,0,0-1.881,1.357,1.357,0,0,0-1.9,0" transform="translate(-40.447 -7.484)" fill="#002850"/>
      <path id="Path_53" data-name="Path 53" d="M8.826,15.143a1.334,1.334,0,0,0,1.35-1.331,1.284,1.284,0,0,0-.389-.946,1.381,1.381,0,0,0-1.911,0,1.256,1.256,0,0,0-.4.944,1.274,1.274,0,0,0,.4.935,1.3,1.3,0,0,0,.949.4" transform="translate(-1.715 -3.012)" fill="#002850"/>
      <path id="Path_54" data-name="Path 54" d="M28.731,24.635V20.116c.015-1.2.023-4.73.022-7.4L26.5,12.7c0,2.568-.011,6.32-.025,7.42v4.517Z" transform="translate(-6.071 -3.063)" fill="#002850"/>
      <path id="Path_55" data-name="Path 55" d="M4.339,15.143a1.26,1.26,0,0,0,.935-.395,1.3,1.3,0,0,0,.39-.936,1.274,1.274,0,0,0-.388-.945,1.364,1.364,0,0,0-1.9,0,1.333,1.333,0,0,0,0,1.881,1.3,1.3,0,0,0,.961.4" transform="translate(-0.686 -3.012)" fill="#002850"/>
      <path id="Path_56" data-name="Path 56" d="M18.381,25.79V23.571l-3.164.016a1.725,1.725,0,0,1-1.308-.52,1.99,1.99,0,0,1-.193-2.4,1.963,1.963,0,0,1,2.216-.816l.421.126,1.336-1.788c-.2-.1-.446-.195-.52-.23a4.331,4.331,0,0,0-3.9.169,4.233,4.233,0,0,0-1.548,1.511,4,4,0,0,0-.573,2.087,4.408,4.408,0,0,0,.336,1.7l.055.131H9.624c-.844,0-1.151-.489-1.151-1.461,0-1.134,0-4.341,0-4.341l-4.4-.016a4.154,4.154,0,0,0-2.085.53,3.843,3.843,0,0,0-1.459,1.46A4.153,4.153,0,0,0,0,21.8a4.043,4.043,0,0,0,.563,2.09A4.2,4.2,0,0,0,2.1,25.415a4.135,4.135,0,0,0,2.121.567,4.241,4.241,0,0,0,1.557-.294,4.632,4.632,0,0,0,1.36-.851l.028-.024a3.9,3.9,0,0,0,1.158.8,4.1,4.1,0,0,0,1.392.178c1.121.02,2.021,0,2.021,0ZM6.2,21.8a1.857,1.857,0,0,1-.581,1.385,1.972,1.972,0,0,1-2.785,0,1.853,1.853,0,0,1-.58-1.385,1.833,1.833,0,0,1,.5-1.333,1.735,1.735,0,0,1,1.306-.524L6.2,19.97Z" transform="translate(0 -4.241)" fill="#002850"/>
      <path id="Path_57" data-name="Path 57" d="M41.9,15.2a1.258,1.258,0,0,0,.936-.4,1.318,1.318,0,0,0,0-1.87,1.333,1.333,0,0,0-1.9,0,1.3,1.3,0,0,0-.388.936,1.276,1.276,0,0,0,.39.936,1.29,1.29,0,0,0,.959.393" transform="translate(-9.3 -3.025)" fill="#002850"/>
      <path id="Path_58" data-name="Path 58" d="M86.424,17.822,82,17.805a4.164,4.164,0,0,0-2.085.53,3.852,3.852,0,0,0-1.46,1.461,4.15,4.15,0,0,0-.526,2.065,4.051,4.051,0,0,0,.563,2.09,4.2,4.2,0,0,0,1.536,1.523,4.249,4.249,0,0,0,4.24,0,4.316,4.316,0,0,0,1.549-1.523,4.034,4.034,0,0,0,.607-2.09Zm-2.29,4.04a1.854,1.854,0,0,1-.58,1.385,1.971,1.971,0,0,1-2.787,0,1.854,1.854,0,0,1-.58-1.385,1.831,1.831,0,0,1,.5-1.333A1.736,1.736,0,0,1,82,20l2.137.025Z" transform="translate(-17.871 -4.295)" fill="#002850"/>
      <path id="Path_59" data-name="Path 59" d="M98.767,33.636A1.335,1.335,0,0,0,99.7,31.36a1.359,1.359,0,0,0-1.9,0,1.336,1.336,0,0,0,.962,2.276" transform="translate(-22.34 -7.473)" fill="#002850"/>
      <path id="Path_60" data-name="Path 60" d="M117.2,12.682l-.025,9.707h-2.079a1.684,1.684,0,0,1-1.222-.476,2.351,2.351,0,0,1-.516-1.333,4.073,4.073,0,0,0-.563-2.09,4.124,4.124,0,0,0-1.534-1.511,4.349,4.349,0,0,0-4.245,0,4.215,4.215,0,0,0-1.546,1.511,3.992,3.992,0,0,0-.576,2.09l.024,1.809-2.386,0-.193-.015a1.777,1.777,0,0,1-1.139-.392,1.9,1.9,0,0,1-.344-1.31l.015-4.093H98.589l-.017,4.24a2.273,2.273,0,0,1-.171,1.021.913.913,0,0,1-.64.449,6.685,6.685,0,0,1-1.319.1H94.491l-.021-9.707H92.184l.02,11.93h5.009a5.238,5.238,0,0,0,1.325-.143,3.593,3.593,0,0,0,1.178-.637,5.965,5.965,0,0,0,1.211.66,5.73,5.73,0,0,0,1.306.123l7.052,0a4.139,4.139,0,0,0,2.941-1.148l.026-.024.072.064a3.9,3.9,0,0,0,2.848,1.108h4.24l.019-11.93ZM111,21.314a1.675,1.675,0,0,1-.38.587c-.019.018-.039.03-.058.047a1.693,1.693,0,0,1-.217.178,1.917,1.917,0,0,1-1.06.285H107.16c0-.428-.008-1.433-.008-1.8v-.033a1.918,1.918,0,0,1,.1-.6c.017-.052.027-.107.049-.158a1.9,1.9,0,0,1,.186-.331,2.165,2.165,0,0,1,.9-.727c.039-.017.082-.03.123-.045s.092-.027.14-.039c.033-.008.064-.017.1-.024a2.083,2.083,0,0,1,1.146.105,2.062,2.062,0,0,1,1.078,1.061,1.821,1.821,0,0,1,.088.289,2.059,2.059,0,0,1-.068,1.2" transform="translate(-21.14 -3.06)" fill="#002850"/>
      <path id="Path_61" data-name="Path 61" d="M62.238,27.415v2.244a7.009,7.009,0,0,0,6.346-4,6.8,6.8,0,0,0,.59-2.018c0-.029.044-.874.044-.874V21.7a4.032,4.032,0,0,0-.565-2.086,4.1,4.1,0,0,0-1.531-1.51,4.341,4.341,0,0,0-4.245,0,4.208,4.208,0,0,0-1.548,1.511,3.978,3.978,0,0,0-.575,2.087,4.207,4.207,0,0,0,.528,2.093,3.83,3.83,0,0,0,1.458,1.46,4.168,4.168,0,0,0,2.086.529c.379,0,.7,0,.98,0a4.717,4.717,0,0,1-3.568,1.642m2.589-3.863a1.724,1.724,0,0,1-1.309-.521,1.976,1.976,0,0,1,.073-2.717A1.915,1.915,0,0,1,65,19.741a1.886,1.886,0,0,1,1.38.571,1.855,1.855,0,0,1,.58,1.382v1.858Z" transform="translate(-13.932 -4.233)" fill="#002850"/>
      <path id="Path_62" data-name="Path 62" d="M138.768,27.415v2.244a7.009,7.009,0,0,0,6.346-4,6.774,6.774,0,0,0,.59-2.018c0-.029.044-.874.044-.874V21.7a4.032,4.032,0,0,0-.565-2.086,4.1,4.1,0,0,0-1.531-1.51,4.341,4.341,0,0,0-4.245,0,4.205,4.205,0,0,0-1.547,1.511,3.978,3.978,0,0,0-.576,2.087,4.207,4.207,0,0,0,.528,2.093,3.827,3.827,0,0,0,1.459,1.46,4.163,4.163,0,0,0,2.085.529c.379,0,.7,0,.98,0a4.717,4.717,0,0,1-3.568,1.642m2.589-3.863a1.724,1.724,0,0,1-1.309-.521,1.976,1.976,0,0,1,.073-2.717,1.916,1.916,0,0,1,1.408-.574,1.887,1.887,0,0,1,1.381.571,1.858,1.858,0,0,1,.579,1.382v1.858Z" transform="translate(-31.482 -4.233)" fill="#002850"/>
      <path id="Path_63" data-name="Path 63" d="M238.35,25.483a1.713,1.713,0,0,1-.571,1.148,2.06,2.06,0,0,1-1.291.436V29.3l.546-.049a4.087,4.087,0,0,0,2.22-.942,3.842,3.842,0,0,0,1.285-2.262c.018-.094.045-.508.045-.508l.045-7.729-2.254-.011c0,5.136-.015,7.56-.025,7.682" transform="translate(-54.232 -4.295)" fill="#002850"/>
      <path id="Path_64" data-name="Path 64" d="M238.906,12.705a1.284,1.284,0,0,0-.391.935,1.339,1.339,0,1,0,2.287-.934,1.332,1.332,0,0,0-1.9,0" transform="translate(-54.696 -2.97)" fill="#002850"/>
      <path id="Path_65" data-name="Path 65" d="M252.522,19.613a4.078,4.078,0,0,0-1.531-1.509,4.338,4.338,0,0,0-4.246,0,4.2,4.2,0,0,0-1.547,1.51,3.978,3.978,0,0,0-.575,2.087,4.2,4.2,0,0,0,.529,2.093,3.823,3.823,0,0,0,1.457,1.46,4.161,4.161,0,0,0,2.086.53c.379,0,.7,0,.98,0a4.718,4.718,0,0,1-3.568,1.642v2.243a7.005,7.005,0,0,0,6.345-4,6.724,6.724,0,0,0,.591-2.018c0-.029.044-.874.044-.874V21.7a4.025,4.025,0,0,0-.566-2.086m-1.668,3.942H248.7c-.035,0-.066-.007-.1-.008-.057,0-.116,0-.17-.011h-.008l-.022,0a1.656,1.656,0,0,1-1.007-.5,1.977,1.977,0,0,1,.074-2.717,1.908,1.908,0,0,1,.818-.483l.049-.014a2,2,0,0,1,.229-.049c.065-.01.132-.014.2-.017.038,0,.072-.01.112-.01l.012,0,.013,0a1.884,1.884,0,0,1,1.38.571,1.854,1.854,0,0,1,.58,1.382Z" transform="translate(-56.097 -4.234)" fill="#002850"/>
      <path id="Path_66" data-name="Path 66" d="M104.214,33.244a1.287,1.287,0,0,0,.39-.936,1.274,1.274,0,0,0-.388-.946,1.387,1.387,0,0,0-1.913,0,1.31,1.31,0,0,0,0,1.881,1.323,1.323,0,0,0,.951.4,1.285,1.285,0,0,0,.96-.4" transform="translate(-23.369 -7.474)" fill="#002850"/>
      <path id="Path_67" data-name="Path 67" d="M35.555,17.819H33.3c0,5.136-.015,7.61-.025,7.732A1.705,1.705,0,0,1,32.7,26.7a2.059,2.059,0,0,1-1.292.436v2.234l.547-.049a4.09,4.09,0,0,0,2.22-.942,3.879,3.879,0,0,0,1.329-2.549Z" transform="translate(-7.204 -4.299)" fill="#002850"/>
      <path id="Path_68" data-name="Path 68" d="M41.286,27.14a3.881,3.881,0,0,0,1.326-2.533h5.47L48.1,12.686H45.873l-.024,9.7H42.626l.033-5.8H40.405c0,5.136-.015,7.61-.025,7.732a1.705,1.705,0,0,1-.57,1.148,2.061,2.061,0,0,1-1.292.436V28.13l.547-.049a4.09,4.09,0,0,0,2.22-.942" transform="translate(-8.833 -3.061)" fill="#002850"/>
      <path id="Path_69" data-name="Path 69" d="M140.164,23.614a1.765,1.765,0,0,0,.473.949,1.737,1.737,0,0,0,.272.229,1.737,1.737,0,0,1-.272-.229,1.765,1.765,0,0,1-.473-.949" transform="translate(-32.142 -5.697)" fill="#002850"/>
      <path id="Path_70" data-name="Path 70" d="M297.048,2.14A22.569,22.569,0,0,1,319.765,24.5a22.72,22.72,0,0,1-45.434,0A22.568,22.568,0,0,1,297.048,2.14m0-2.14a24.728,24.728,0,0,0-24.89,24.5,24.893,24.893,0,0,0,49.78,0A24.728,24.728,0,0,0,297.048,0" transform="translate(-62.411 0)" fill="#61b254"/>
      <path id="Path_71" data-name="Path 71" d="M313.812,44.68a6.963,6.963,0,0,0-2.887-.512c-2.325,0-5.89.715-10.349,3.942l-.019.014-.091-.07c-4.46-3.228-7.969-3.886-10.294-3.886a6.962,6.962,0,0,0-2.887.512c-.056.032-.16.091-.133.189.016.061.072.092.163.092a.564.564,0,0,0,.086-.007,6.908,6.908,0,0,1,1.677-.2c3.016,0,6.915,2.245,10.035,4.48-.631.51-1.275,1.063-1.938,1.673-.092-.08-.124-.1-.214-.174a2.8,2.8,0,0,0-.807-.48.866.866,0,0,0-.472-.038.616.616,0,0,0-.465.692.543.543,0,0,0,.476.528.517.517,0,0,0,.465-.257c.119.1.233.189.335.285.049.046.095.093.143.14l-.193.167c-.152.131-.3.259-.451.383a4.333,4.333,0,0,1-.976.644.873.873,0,0,1-.4.095,1.38,1.38,0,0,1-.222-.047l-.054-.015-.022-.009a.552.552,0,0,0-.143-.052.366.366,0,0,0-.067-.006.3.3,0,0,0-.266.153.556.556,0,0,0-.045.392.594.594,0,0,0,.143.246,1.3,1.3,0,0,0,.847.445,1.58,1.58,0,0,0,.181.01,1.725,1.725,0,0,0,.186-.01,2.564,2.564,0,0,0,.8-.233,6.6,6.6,0,0,0,1.336-.839l.395-.312c.129.123.264.247.4.368a1.824,1.824,0,0,0,.616.387.688.688,0,0,0,.22.036A.659.659,0,0,0,299,53.4c.035,0,.068-.008.1-.014a.571.571,0,0,0,.429-.485.65.65,0,0,0-.248-.646.472.472,0,0,0-.591.066.483.483,0,0,0-.065.071c-.1-.1-.2-.209-.3-.319.654-.581,1.444-1.18,2.2-1.772.761.592,1.6,1.19,2.252,1.772-.1.11-.2.217-.3.319a.519.519,0,0,0-.064-.071.473.473,0,0,0-.592-.066.651.651,0,0,0-.248.646.571.571,0,0,0,.428.485c.034.006.068.011.1.014a.664.664,0,0,0,.086.005.685.685,0,0,0,.221-.036,1.816,1.816,0,0,0,.616-.387c.136-.121.271-.245.4-.368l.395.312a6.617,6.617,0,0,0,1.336.839,2.571,2.571,0,0,0,.8.233,1.72,1.72,0,0,0,.185.01,1.628,1.628,0,0,0,.183-.01,1.3,1.3,0,0,0,.846-.445.6.6,0,0,0,.143-.246.56.56,0,0,0-.045-.392.3.3,0,0,0-.266-.153.366.366,0,0,0-.067.006.563.563,0,0,0-.143.052l-.021.009-.055.015a1.353,1.353,0,0,1-.221.047.875.875,0,0,1-.4-.095,4.316,4.316,0,0,1-.976-.644c-.15-.124-.3-.252-.451-.383l-.193-.167c.049-.046.094-.094.143-.14.1-.1.217-.19.335-.285a.516.516,0,0,0,.465.257.542.542,0,0,0,.475-.528.616.616,0,0,0-.465-.692.865.865,0,0,0-.472.038,2.81,2.81,0,0,0-.808.48c-.089.074-.12.093-.213.174-.643-.59-1.31-1.17-1.933-1.677,3.12-2.234,7.016-4.476,10.03-4.476a6.914,6.914,0,0,1,1.678.2.542.542,0,0,0,.085.007c.09,0,.146-.031.163-.092.027-.1-.078-.157-.133-.189" transform="translate(-65.849 -10.656)" fill="#61b254"/>
      <path id="Path_72" data-name="Path 72" d="M305.856,41.856a10.207,10.207,0,0,0-.642,1.672,6.933,6.933,0,0,1,2.088-.659,4.968,4.968,0,0,0,3.967-4.66c-.1.181-.352.565-2.574.665a4.4,4.4,0,0,0-4.1,2.075,5.331,5.331,0,0,1,.415,1.159c1.247-2.937,4.323-2.535,4.846-2.644-.519.224-2.749.332-4,2.393" transform="translate(-69.851 -9.218)" fill="#61b254"/>
      <path id="Path_73" data-name="Path 73" d="M302.417,45.3l.547-.266c-.134-5.762-3.293-6.09-4.821-6.158-2.223-.1-2.479-.483-2.575-.665a4.969,4.969,0,0,0,3.968,4.66,4.092,4.092,0,0,1,1.657.539c-.425-3.765-3.58-3.672-4.216-3.945.6.125,5.1-.814,4.888,5.568Z" transform="translate(-67.78 -9.218)" fill="#61b254"/>
      <path id="Path_74" data-name="Path 74" d="M302.062,24.222a2,2,0,0,0,1.812,2.061,1.958,1.958,0,0,0,1.812-2.061c.02-1.575-1.812-4.578-1.812-4.578s-1.911,2.93-1.812,4.578m2.6,1.351a1.279,1.279,0,0,1-.8.286,1.505,1.505,0,0,1-1.4-1.593,4.016,4.016,0,0,1,.321-1.2,2.375,2.375,0,0,0-.1.58A1.845,1.845,0,0,0,304.4,25.6a1.452,1.452,0,0,0,.258-.024" transform="translate(-69.268 -4.739)" fill="#61b254"/>
      <path id="Path_75" data-name="Path 75" d="M297.949,33.383c0,3.285,4.728,4.333,4.728,4.333V36.7c0-3.408-4.728-4.332-4.728-4.332Z" transform="translate(-68.326 -7.808)" fill="#61b254"/>
      <path id="Path_76" data-name="Path 76" d="M304.719,36.7v1.019s4.729-1.049,4.729-4.332v-1.02s-4.729.924-4.729,4.333" transform="translate(-69.878 -7.808)" fill="#61b254"/>
      <path id="Path_77" data-name="Path 77" d="M299.5,28.574c0,2.671,3.594,3.523,3.594,3.523v-.829c0-2.771-3.594-3.523-3.594-3.523Z" transform="translate(-68.68 -6.694)" fill="#61b254"/>
      <path id="Path_78" data-name="Path 78" d="M304.643,31.267V32.1s3.594-.852,3.594-3.523v-.829s-3.594.752-3.594,3.523" transform="translate(-69.861 -6.693)" fill="#61b254"/>
      <path id="Path_79" data-name="Path 79" d="M288.09,18.025c3.124-3.1,5.129-3.648,7.627-4.034-2.558,1.6-4.947,5.331-4.2,7.954,1.351-2.783,3.709-5.5,5.883-6.495a4.835,4.835,0,0,0-.084,5.633c.274-2.349,1.94-4.606,3.334-6.119,1.393,1.513,3.06,3.77,3.334,6.119a4.833,4.833,0,0,0-.085-5.633c2.173.991,4.532,3.712,5.883,6.495.745-2.623-1.644-6.351-4.2-7.954,2.5.385,4.5.936,7.627,4.034-1.031-4.144-4.659-5.58-7.561-6.091,3.193-.27,3.826.051,6.646,1.2-3.061-2.97-5.207-3.507-8.274-3.217a4.081,4.081,0,0,1,1.8-.9,4.592,4.592,0,0,0-4.082.5,2.817,2.817,0,0,0-1.077-1.91V7.6l-.01.006-.01-.006v.012a2.815,2.815,0,0,0-1.077,1.91,4.594,4.594,0,0,0-4.082-.5,4.1,4.1,0,0,1,1.8.9c-3.067-.29-5.214.247-8.275,3.217,2.819-1.152,3.453-1.473,6.645-1.2-2.9.511-6.53,1.948-7.56,6.091" transform="translate(-66.065 -1.834)" fill="#61b254"/>
    </g>
  </g>
</svg>
