<svg xmlns="http://www.w3.org/2000/svg" width="22" height="22" viewBox="0 0 22 22">
  <metadata><?xpacket begin="﻿" id="W5M0MpCehiHzreSzNTczkc9d"?>
<x:xmpmeta xmlns:x="adobe:ns:meta/" x:xmptk="Adobe XMP Core 5.6-c138 79.159824, 2016/09/14-01:09:01        ">
   <rdf:RDF xmlns:rdf="http://www.w3.org/1999/02/22-rdf-syntax-ns#">
      <rdf:Description rdf:about=""/>
   </rdf:RDF>
</x:xmpmeta>
                                                                                                    
                                                                                                    
                                                                                                    
                                                                                                    
                                                                                                    
                                                                                                    
                                                                                                    
                                                                                                    
                                                                                                    
                                                                                                    
                                                                                                    
                                                                                                    
                                                                                                    
                                                                                                    
                                                                                                    
                                                                                                    
                                                                                                    
                                                                                                    
                                                                                                    
                                                                                                    
                           
<?xpacket end="w"?></metadata>
<defs>
    <style>
		.cls-1 {
		fill: #003462;
		fill-rule: evenodd;
		}
	</style>
  </defs>
  <path class="cls-1" d="M97.25,660.986a1.243,1.243,0,0,1-2.485,0A1.243,1.243,0,1,1,97.25,660.986ZM96.029,681.7a1.243,1.243,0,1,1,1.243-1.242A1.627,1.627,0,0,1,96.029,681.7Zm3.592-18.368a1.242,1.242,0,1,1-2.485,0A1.242,1.242,0,1,1,99.621,663.335Zm-1.219,16a1.242,1.242,0,1,1,1.242-1.242A1.625,1.625,0,0,1,98.4,679.33Zm2.372-2.394a1.243,1.243,0,1,1,1.242-1.242A1.628,1.628,0,0,1,100.774,676.936Zm1.22-11.206a1.22,1.22,0,1,1-1.22-1.242A1.632,1.632,0,0,1,101.994,665.73Zm2.394,2.35a1.243,1.243,0,1,1-1.242-1.243A1.655,1.655,0,0,1,104.388,668.08Zm-1.242,6.484a1.243,1.243,0,1,1,1.242-1.243A1.629,1.629,0,0,1,103.146,674.564Zm2.62-2.26a1.6,1.6,0,1,1,1.626-1.6A2.111,2.111,0,0,1,105.766,672.3Zm2.621-2.959a1.243,1.243,0,1,1,1.242-1.242A1.655,1.655,0,0,1,108.387,669.345Zm1.22,3.976a1.243,1.243,0,1,1-1.243-1.242A1.627,1.627,0,0,1,109.607,673.321Zm1.129-6.394a1.22,1.22,0,1,1,1.243-1.22A1.6,1.6,0,0,1,110.736,666.927Zm1.243,8.767a1.22,1.22,0,1,1-1.22-1.244A1.6,1.6,0,0,1,111.979,675.694Zm1.152-11.116a1.243,1.243,0,1,1,0-2.486A1.243,1.243,0,1,1,113.131,664.578Zm1.243,13.487a1.243,1.243,0,0,1-2.486,0A1.243,1.243,0,0,1,114.374,678.065Zm1.106-15.86a1.243,1.243,0,0,1,0-2.485A1.243,1.243,0,0,1,115.48,662.205Zm1.265,18.233A1.242,1.242,0,1,1,115.5,679.2,1.626,1.626,0,0,1,116.745,680.438Z" transform="translate(-94.75 -659.719)"/>
</svg>
