<svg xmlns="http://www.w3.org/2000/svg" width="36" height="36" viewBox="0 0 36 36">
  <g id="phone-circle" transform="translate(-0.164)">
    <g id="Rectangle_15548" data-name="Rectangle 15548" transform="translate(0.164)" fill="none" stroke="#239157" stroke-width="1.5">
      <rect width="36" height="36" rx="18" stroke="none"/>
      <rect x="0.75" y="0.75" width="34.5" height="34.5" rx="17.25" fill="none"/>
    </g>
    <path id="phone" d="M2.112,15.5v2.715a1.81,1.81,0,0,0,1.973,1.81A17.911,17.911,0,0,0,11.9,17.25a17.648,17.648,0,0,0,5.43-5.43A17.91,17.91,0,0,0,20.1,3.973,1.81,1.81,0,0,0,18.3,2H15.588a1.81,1.81,0,0,0-1.81,1.557A11.62,11.62,0,0,1,13.145,6.1a1.81,1.81,0,0,0,.407,1.91L14.7,9.159a14.48,14.48,0,0,1-5.43,5.43L8.122,13.439a1.81,1.81,0,0,0-1.91-.407,11.621,11.621,0,0,1-2.543.634A1.81,1.81,0,0,0,2.112,15.5Z" transform="translate(6.889 6.983)" fill="none" stroke="#239157" stroke-linecap="round" stroke-linejoin="round" stroke-width="1.5"/>
  </g>
</svg>
