<svg xmlns="http://www.w3.org/2000/svg" width="48.296" height="52.361" viewBox="0 0 48.296 52.361">
  <g id="icon-service" transform="translate(0.002 0.002)">
    <path id="Path_5608" data-name="Path 5608" d="M241.537,203.193a2.533,2.533,0,0,0-3.57-.755l-.622.327-3.221-2.57a19.169,19.169,0,0,0-11.047-4.142,7.043,7.043,0,0,1,2.021-3.72,15.451,15.451,0,0,0,2.273.144,15.013,15.013,0,0,0,6.935-1.532.767.767,0,0,0-.7-1.365,13.9,13.9,0,0,1-6.91,1.349,87.433,87.433,0,0,1,12.583-8.542A12.558,12.558,0,0,1,236.3,187.6a.767.767,0,1,0,1.1,1.075,14.435,14.435,0,0,0,3.666-7.111,1.334,1.334,0,0,0-1.388-1.528c-7.521.143-14.621,3.359-15.564,10.9a1.185,1.185,0,0,0-.006.222,9.623,9.623,0,0,0-1.171,1.374V186.15c3.32-3.024,4.37-7.014,3.548-11.487a24.473,24.473,0,0,0-3.32-8.191,1.176,1.176,0,0,0-1.99,0,24.505,24.505,0,0,0-3.32,8.191c-.817,4.462.22,8.455,3.548,11.485V192.4a9.685,9.685,0,0,0-1.079-1.245,1.18,1.18,0,0,0-.006-.222c-.941-7.532-8.046-10.76-15.564-10.9a1.333,1.333,0,0,0-1.388,1.528c1.2,6.1,5.806,10.915,13.658,10.915a16.05,16.05,0,0,0,2.3-.146,7.031,7.031,0,0,1,2.024,3.716,19.145,19.145,0,0,0-8.789,2.543c-.309-.11-.591-.2-.825-.273a9.069,9.069,0,0,0-7,.819l-5.512,3.091a2.193,2.193,0,0,0-2.664-.363l-1.787,1.033a2.2,2.2,0,0,0-.8,3l6.52,11.292a2.2,2.2,0,0,0,3,.8l1.787-1.031a2.2,2.2,0,0,0,.831-2.953l1.346-1.193a1.487,1.487,0,0,1,1.438-.3l6.2,1.994a5.382,5.382,0,0,0,2.481.335l12.386-1.27a5.466,5.466,0,0,0,2.519-.932c9.106-6.268,8.561-5.879,8.64-5.954a2.781,2.781,0,0,0,.417-3.5m-4.215-21.454a88.151,88.151,0,0,0-11.374,7.816c1.608-5.71,7.576-7.356,11.374-7.816m-18.846,7.819a88.08,88.08,0,0,0-11.366-7.813c5.116.634,9.967,2.826,11.366,7.813m-13.336-7.173a87.725,87.725,0,0,1,12.585,8.543c-8.827.309-11.692-5.479-12.585-8.543m19.83-7.442a10.432,10.432,0,0,1-2.039,9V169.168a21.381,21.381,0,0,1,2.039,5.775m-5.612,0a21.431,21.431,0,0,1,2.039-5.772v14.773a10.435,10.435,0,0,1-2.039-9M233.166,201.4l2.7,2.148-3.372,1.773A10.031,10.031,0,0,1,229,206.409l.019-.3a.763.763,0,0,0,0-.119,3.79,3.79,0,0,0-3.165-3.449h-.02l-6.157-.747c-1.951-.293-2.216-1.148-5.236-2.458a17.73,17.73,0,0,1,18.731,2.063m6.942,4.141-8.5,5.845a3.891,3.891,0,0,1-1.807.668l-12.385,1.272a3.956,3.956,0,0,1-1.835-.264l-6.22-2a3.03,3.03,0,0,0-2.926.616l-1.107.982-2.483-4.3a.767.767,0,1,0-1.329.766c.426.738,2.371,4.108,3.238,5.608a.666.666,0,0,1-.243.907l-1.787,1.033a.664.664,0,0,1-.909-.245l-6.52-11.292a.665.665,0,0,1,.243-.907l1.787-1.033a.665.665,0,0,1,.907.243l1.486,2.574a.767.767,0,0,0,1.329-.768l-.994-1.723,5.433-3.046a7.531,7.531,0,0,1,5.8-.689c4.763,1.427,5.335,3.1,8.16,3.523h.022l6.157.746a2.259,2.259,0,0,1,1.847,2.021l-.026.439-7.825.51a.768.768,0,0,0,.05,1.534h.05c8.283-.749,10.118-.121,13.477-1.887,5.857-3.081,5.527-2.9,5.606-2.953a1,1,0,0,1,1.439.3,1.23,1.23,0,0,1-.141,1.511" transform="translate(-193.674 -165.925)" fill="#4789c8"/>
  </g>
</svg>
