<svg xmlns="http://www.w3.org/2000/svg" width="73.769" height="31.922" viewBox="0 0 73.769 31.922">
  <g id="nama-logo" transform="translate(-208 -238.111)">
    <path id="Path_125086" data-name="Path 125086" d="M17.22,91.619h-.93V86.85h1.048L19.25,90.2V86.85h.928v4.769h-.99L17.22,88.181Z" transform="translate(196.157 174.958)" fill="#a7adae"/>
    <path id="Path_125087" data-name="Path 125087" d="M47.571,87.909l-.636,1.91h1.271ZM45.32,91.619l1.689-4.769h1.154l1.686,4.769H48.8l-.322-.971H46.662l-.316.971Z" transform="translate(175.048 174.958)" fill="#a7adae"/>
    <path id="Path_125089" data-name="Path 125089" d="M76.254,87.909l-.633,1.91h1.269ZM74,91.619l1.692-4.769h1.154l1.686,4.769h-1.05l-.325-.971H75.345l-.316.971Z" transform="translate(154.193 174.958)" fill="#a7adae"/>
    <path id="Path_125090" data-name="Path 125090" d="M140.921,87.909l-.636,1.91h1.271Zm-2.251,3.711,1.689-4.769h1.154l1.686,4.769h-1.053l-.322-.971h-1.812l-.317.971Z" transform="translate(107.167 174.958)" fill="#a7adae"/>
    <path id="Path_125091" data-name="Path 125091" d="M145.862,19.446H147.6a.5.5,0,0,0,.366-.145.469.469,0,0,0,.145-.347V17.223a.494.494,0,0,0-.145-.368.469.469,0,0,0-.344-.145h-1.757a.546.546,0,0,0-.376.145.483.483,0,0,0-.156.368v1.733a.469.469,0,0,0,.145.347.524.524,0,0,0,.387.145" transform="translate(102.325 225.961)" fill="#fff"/>
    <path id="Path_125092" data-name="Path 125092" d="M42.481,17.779c0-.363-.019-.78-.033-1.255a.546.546,0,0,0-.134-.3.464.464,0,0,0-.357-.123H40.1a.439.439,0,0,0-.325.123.406.406,0,0,0-.12.3c.027,1.067.044,2.06.044,2.979V22.15c0,.357-.06.567-.177.633a1.637,1.637,0,0,1-.712.1H32.263a2.565,2.565,0,0,1-.357-.033,1.967,1.967,0,0,1-.423-.112,1.479,1.479,0,0,1-.366-.21.589.589,0,0,1-.213-.357,2.283,2.283,0,0,0,.046-.456V19.948a4.873,4.873,0,0,0-1.312-3.7,4.938,4.938,0,0,0-3.58-1.233,5.159,5.159,0,0,0-3.648,1.255,4.823,4.823,0,0,0-1.364,3.7v1.869a1.771,1.771,0,0,1-.068.546.546.546,0,0,1-.177.289.789.789,0,0,1-.322.156,2.3,2.3,0,0,1-.4.055H4.131A1.836,1.836,0,0,1,3.2,22.7c-.207-.126-.311-.442-.311-.947V9.253a.48.48,0,0,0-.112-.314.415.415,0,0,0-.325-.131H.461a.456.456,0,0,0-.333.131.428.428,0,0,0-.134.314V22.595a4.614,4.614,0,0,0,.232,1.591,2.2,2.2,0,0,0,.668.955,2.385,2.385,0,0,0,1.045.469,7,7,0,0,0,1.364.12H19.639a6.764,6.764,0,0,0,1.446-.156,2.275,2.275,0,0,0,1.157-.6,3.135,3.135,0,0,0,1.588.958,7.719,7.719,0,0,0,2.183.311,6.215,6.215,0,0,0,2.035-.311,3.449,3.449,0,0,0,1.479-.958,3.861,3.861,0,0,0,1.312.578,6.215,6.215,0,0,0,1.49.177h6.96c.355,0,.7-.022,1.034-.044s.638-.049.911-.076a4.543,4.543,0,0,0,.658-.112.764.764,0,0,0,.366-.273,1.059,1.059,0,0,0,.145-.379c.046-.4.071-.922.079-1.566s0-1.443,0-2.393V17.779M28.148,21.138a2.9,2.9,0,0,1-.513,1.91A2.037,2.037,0,0,1,26,23.637a2.5,2.5,0,0,1-1.364-.344,1.733,1.733,0,0,1-.712-1.146,7.205,7.205,0,0,1-.065-1.009v-.955a3.06,3.06,0,0,1,.51-1.97A2.017,2.017,0,0,1,26,17.6a2.018,2.018,0,0,1,1.637.611,3.092,3.092,0,0,1,.5,1.97Z" transform="translate(208.008 231.707)" fill="#fff"/>
    <path id="Path_125093" data-name="Path 125093" d="M191.071,29.2V20.41L186.9,23.469a5.688,5.688,0,0,0-2.322,4.584v15.3l4.169-3.059a5.681,5.681,0,0,0,2.322-4.584v-3.76l-2.728-.022Z" transform="translate(73.783 223.27)" fill="#0a8944"/>
    <path id="Path_125094" data-name="Path 125094" d="M248.9,34.129a5.686,5.686,0,0,0-2.322,4.584v.819l2.641,2.638H246.58v8.938l4.169-3.059a5.68,5.68,0,0,0,2.322-4.584V31.07Z" transform="translate(28.699 215.519)" fill="#4789c8"/>
    <path id="Path_125095" data-name="Path 125095" d="M221.791,16.9V0l-4.166,3.059A5.683,5.683,0,0,0,215.3,7.639v6.712l2.728,2.728H215.3V31.922l4.169-3.059a5.68,5.68,0,0,0,2.322-4.584V19.568h-2.668Z" transform="translate(51.444 238.111)" fill="#63be6c"/>
    <path id="Path_129889" data-name="Path 129889" d="M106.263,91.619h-.933V86.85h1.462l.868,3.784.857-3.784h1.438v4.769h-.928V87.608l-.895,4.011h-.977l-.892-4.1Z" transform="translate(131.411 174.958)" fill="#a7adae"/>
  </g>
</svg>
