<svg xmlns="http://www.w3.org/2000/svg" width="24.704" height="24.703" viewBox="0 0 24.704 24.703">
  <g id="map-close" transform="translate(-831.994 -5318.999)">
    <path id="Path_125080" data-name="Path 125080" d="M21.079,3.615A12.352,12.352,0,1,0,24.7,12.35a12.315,12.315,0,0,0-3.619-8.735ZM19.492,19.492a10.089,10.089,0,1,1,2.191-3.279,10.075,10.075,0,0,1-2.191,3.279Z" transform="translate(832.001 5319)" fill="#325c81"/>
    <path id="Path_125081" data-name="Path 125081" d="M12.592,11.263l3.355-3.355A.95.95,0,0,0,14.6,6.567h0L11.251,9.921,7.9,6.566A.95.95,0,0,0,6.554,7.908h0l3.355,3.355L6.553,14.617A.95.95,0,1,0,7.894,15.96h0L11.251,12.6l3.355,3.355a.95.95,0,1,0,1.342-1.341h0Z" transform="translate(833.097 5320.098)" fill="#325c81"/>
  </g>
</svg>
