<svg xmlns="http://www.w3.org/2000/svg" width="17.118" height="18.874" viewBox="0 0 17.118 18.874">
  <g id="map-printer" transform="translate(-2.25 -1.25)">
    <path id="Path_126406" data-name="Path 126406" d="M15.5,6.956H7.158A.663.663,0,0,1,6.5,6.3V4.542C6.5,2.295,7.545,1.25,9.792,1.25h3.073c2.247,0,3.292,1.045,3.292,3.292V6.3A.663.663,0,0,1,15.5,6.956ZM7.817,5.639H14.84v-1.1c0-1.492-.483-1.975-1.975-1.975H9.792c-1.492,0-1.975.483-1.975,1.975Z" transform="translate(-0.519)" fill="#003462"/>
    <path id="Path_126407" data-name="Path 126407" d="M12.3,21.712H10.542A2.968,2.968,0,0,1,7.25,18.42V14.908a.663.663,0,0,1,.658-.658h7.023a.663.663,0,0,1,.658.658V18.42A2.968,2.968,0,0,1,12.3,21.712ZM8.567,15.567V18.42c0,1.387.588,1.975,1.975,1.975H12.3c1.387,0,1.975-.588,1.975-1.975V15.567Z" transform="translate(-0.611 -1.588)" fill="#003462"/>
    <path id="Path_126408" data-name="Path 126408" d="M16.076,17.223H14.321a.663.663,0,0,1-.658-.658V14.59H7.956v1.975a.663.663,0,0,1-.658.658H5.542A2.968,2.968,0,0,1,2.25,13.931V9.542A2.968,2.968,0,0,1,5.542,6.25H16.076a2.968,2.968,0,0,1,3.292,3.292v4.389A2.968,2.968,0,0,1,16.076,17.223Zm-1.1-1.317h1.1c1.387,0,1.975-.588,1.975-1.975V9.542c0-1.387-.588-1.975-1.975-1.975H5.542c-1.387,0-1.975.588-1.975,1.975v4.389c0,1.387.588,1.975,1.975,1.975h1.1V13.931a.663.663,0,0,1,.658-.658h7.023a.663.663,0,0,1,.658.658Z" transform="translate(0 -0.611)" fill="#003462"/>
    <path id="Path_126409" data-name="Path 126409" d="M15.687,15.567H6.908a.658.658,0,1,1,0-1.317h8.779a.658.658,0,0,1,0,1.317Z" transform="translate(-0.489 -1.588)" fill="#003462"/>
    <path id="Path_126410" data-name="Path 126410" d="M9.542,11.567H6.908a.658.658,0,1,1,0-1.317H9.542a.658.658,0,0,1,0,1.317Z" transform="translate(-0.489 -1.099)" fill="#003462"/>
  </g>
</svg>
