<svg xmlns="http://www.w3.org/2000/svg" width="14.257" height="19.107" viewBox="0 0 14.257 19.107">
  <path id="map-phone" d="M10.8,2.141a4.834,4.834,0,0,1,3.515.384A3.382,3.382,0,0,1,16.09,5.471,15.648,15.648,0,0,1,13.7,13.787a19.163,19.163,0,0,1-5.817,6.457,3.4,3.4,0,0,1-3.4.279,4.6,4.6,0,0,1-2.315-2.612,2.166,2.166,0,0,1,.141-1.81L3.438,14.1a2.945,2.945,0,0,1,3.621-1.312l.785.3a.868.868,0,0,0,.928-.118,5.088,5.088,0,0,0,1.357-2.5.918.918,0,0,0-.4-.908l-.708-.535A2.945,2.945,0,0,1,8.237,5.21l1.145-2A2.273,2.273,0,0,1,10.8,2.141ZM14.912,5.5a2.207,2.207,0,0,0-1.176-1.95,3.658,3.658,0,0,0-2.651-.271A1.1,1.1,0,0,0,10.4,3.8L9.26,5.8a1.767,1.767,0,0,0,.468,2.289l.708.535a2.089,2.089,0,0,1,.844,2.108A6.274,6.274,0,0,1,9.6,13.808a2.041,2.041,0,0,1-2.175.377l-.785-.3a1.767,1.767,0,0,0-2.174.787L3.342,16.678a.987.987,0,0,0-.065.825,3.427,3.427,0,0,0,1.7,1.95,2.226,2.226,0,0,0,2.251-.188,18.02,18.02,0,0,0,5.455-6.071A14.49,14.49,0,0,0,14.911,5.5Z" transform="translate(-1.937 -1.863)" fill="#003462" stroke="#003462" stroke-width="0.2"/>
</svg>
