<svg xmlns="http://www.w3.org/2000/svg" width="15.424" height="15.43" viewBox="0 0 15.424 15.43">
  <path id="map-location" d="M2.659,2.662a2.229,2.229,0,0,1,2.314-.548L15.885,5.762a2.237,2.237,0,0,1,.093,4.219l-4.041,1.542a.717.717,0,0,0-.409.4L9.985,15.974a2.213,2.213,0,0,1-2.09,1.45H7.841a2.221,2.221,0,0,1-2.075-1.542L2.119,4.952a2.229,2.229,0,0,1,.54-2.291Zm.887,1.8L7.232,15.4a.679.679,0,0,0,.648.478.71.71,0,0,0,.671-.447l1.542-4.049a2.244,2.244,0,0,1,1.288-1.3L15.43,8.546a.694.694,0,0,0,.455-.671.679.679,0,0,0-.478-.648L4.471,3.58a.7.7,0,0,0-.925.887Z" transform="translate(-2.002 -1.994)" fill="#63be6a"/>
</svg>
