<svg xmlns="http://www.w3.org/2000/svg" width="15.884" height="15.937" viewBox="0 0 15.884 15.937">
  <g id="map-call" transform="translate(1.25 -11.403)">
    <path id="Union_11" data-name="Union 11" d="M6.845,15.4A16.024,16.024,0,0,1,2,10.026,13.144,13.144,0,0,1,0,3.076a3,3,0,0,1,1.57-2.6A3.936,3.936,0,0,1,3.492,0,4.629,4.629,0,0,1,4.616.141a2.086,2.086,0,0,1,1.292.98L6.85,2.764a2.628,2.628,0,0,1-.7,3.406l-.583.44a.556.556,0,0,0-.254.536A3.983,3.983,0,0,0,6.375,9.1a.526.526,0,0,0,.545.05L7.565,8.9A2.615,2.615,0,0,1,8.5,8.729a2.583,2.583,0,0,1,.9.158,2.623,2.623,0,0,1,1.4,1.188l.924,1.649a1.983,1.983,0,0,1,.13,1.662A3.992,3.992,0,0,1,9.841,15.65a3.074,3.074,0,0,1-1.29.288A3.03,3.03,0,0,1,6.845,15.4ZM2.248,1.685a1.61,1.61,0,0,0-.859,1.373l0,.055a11.793,11.793,0,0,0,1.8,6.215,14.675,14.675,0,0,0,4.422,4.924,1.667,1.667,0,0,0,.94.3,1.716,1.716,0,0,0,.711-.162,2.61,2.61,0,0,0,1.292-1.487.6.6,0,0,0-.04-.505l-.923-1.65a1.249,1.249,0,0,0-1.532-.556l-.645.248a2.132,2.132,0,0,1-.756.141,1.752,1.752,0,0,1-1.254-.5A5.39,5.39,0,0,1,3.965,7.451a1.922,1.922,0,0,1,.771-1.945l.583-.438a1.25,1.25,0,0,0,.329-1.615L4.708,1.81A.687.687,0,0,0,4.525,1.6a.669.669,0,0,0-.25-.12,3.158,3.158,0,0,0-.781-.1A2.569,2.569,0,0,0,2.248,1.685ZM14.986,8.663a.7.7,0,0,1-.413-.353.683.683,0,0,1-.07-.264l-.031-.3a8.027,8.027,0,0,0-4.09-6.219l-.372-.207A.681.681,0,0,1,9.68.9a.691.691,0,0,1,.476-.855.71.71,0,0,1,.189-.026.679.679,0,0,1,.336.088l.371.207a9.416,9.416,0,0,1,4.8,7.292l.03.3a.7.7,0,0,1-.017.272.687.687,0,0,1-.124.248.658.658,0,0,1-.211.18.676.676,0,0,1-.265.083.591.591,0,0,1-.072,0A.7.7,0,0,1,14.986,8.663Zm-2.374-.481a.675.675,0,0,1-.249-.116.686.686,0,0,1-.185-.2.67.67,0,0,1-.091-.254l-.043-.256A5.129,5.129,0,0,0,9.626,3.8L9.5,3.73a.734.734,0,0,1-.2-.181A.721.721,0,0,1,9.19,3.3a.71.71,0,0,1-.02-.209H9.079l.188-.314a.686.686,0,0,1,.426-.315.734.734,0,0,1,.167-.02.7.7,0,0,1,.358.1l.118.071a6.5,6.5,0,0,1,3.073,4.509l.041.258a.693.693,0,0,1-.111.522.717.717,0,0,1-.2.189.693.693,0,0,1-.257.1.662.662,0,0,1-.116.01A.686.686,0,0,1,12.611,8.182Z" transform="translate(-1.25 11.403)" fill="#003462"/>
  </g>
</svg>
