<svg xmlns="http://www.w3.org/2000/svg" width="57.717" height="60.977" viewBox="0 0 57.717 60.977">
  <g id="pin1" transform="translate(14.09)">
    <path id="Path_124914" data-name="Path 124914" d="M14.78.25A14.53,14.53,0,0,1,29.31,14.78c0,6.14-4.314,12.831-12.831,20.145a2.608,2.608,0,0,1-3.4,0l-.563-.489C4.374,27.31.25,20.783.25,14.78A14.53,14.53,0,0,1,14.78.25Zm0,8.941a5.588,5.588,0,1,0,3.952,1.637A5.588,5.588,0,0,0,14.78,9.191Z" transform="translate(-0.25 -0.25)" fill="#003462"/>
    <ellipse id="Ellipse_178" data-name="Ellipse 178" cx="13.859" cy="4.301" rx="13.859" ry="4.301" transform="translate(0.91 37.374)" opacity="0.26" style="&#10;    filter: blur(5px);&#10;"/>
    <circle id="Ellipse_179" data-name="Ellipse 179" cx="5.735" cy="5.735" r="5.735" transform="translate(8.556 8.701)" fill="#fff"/>
  </g>
</svg>