<svg xmlns="http://www.w3.org/2000/svg" width="57.717" height="58.635" viewBox="0 0 57.717 58.635">
  <g id="pin2" transform="translate(14.166 -2.342)">
    <ellipse id="Ellipse_178" data-name="Ellipse 178" cx="13.859" cy="4.301" rx="13.859" ry="4.301" transform="translate(0.834 37.374)" opacity="0.26" style="&#10;    filter: blur(5px);&#10;"/>
    <g id="Group_125135" data-name="Group 125135" transform="translate(1.834 2.342)">
      <path id="Path_129942" data-name="Path 129942" d="M12.317,33.417h0c-4.209-3.118-7.328-3.742-9.51-3.742a5.3,5.3,0,0,0-2.65.468.156.156,0,1,0,0,.311H.312A5.3,5.3,0,0,1,1.871,30.3c2.806,0,6.236,2.183,9.2,4.209-.623.468-1.248,1.092-1.871,1.559a.152.152,0,0,1-.155-.155c-.312-.156-.468-.312-.78-.468H7.8c-.311,0-.467.312-.467.624a.414.414,0,0,0,.467.468c.156,0,.312-.156.468-.312l.311.312.156.155-.156.156c-.156.156-.311.312-.467.312-.312.156-.623.467-.936.623-.156,0-.156.156-.311.156H6.548c-.156,0-.156,0-.312.155v.468c0,.156.156.156.156.311a1.613,1.613,0,0,0,.623.156h.312a6.738,6.738,0,0,1,.78-.156,5.431,5.431,0,0,0,1.247-.78l.312-.311.311.311a.811.811,0,0,0,.623.312h.468c.156,0,.311-.156.467-.467v-.156c0-.156-.156-.467-.311-.467H11.07c-.156,0-.156,0-.312.155l-.311-.311c.623-.623,1.4-1.092,2.027-1.715A11.636,11.636,0,0,1,14.5,37.159l-.312.311c-.311-.155-.311-.155-.467-.155h-.156c-.156.155-.311.311-.311.467v.156a.413.413,0,0,0,.467.467h.467c.312-.156.468-.156.624-.312l.311-.311.312.311a5.431,5.431,0,0,0,1.247.78,1.4,1.4,0,0,0,.78.156h.311a.857.857,0,0,0,.78-.467.545.545,0,0,0,.156-.312v-.467c0-.156-.156-.156-.311-.156h-.312c-.156,0-.312,0-.312-.156a3.236,3.236,0,0,1-.935-.623c-.156-.156-.312-.311-.468-.311l-.155-.156.155-.156.312-.311c.156.155.311.311.467.311a.5.5,0,0,0,.468-.467c0-.312-.156-.468-.468-.623h-.467c-.312.155-.467.311-.78.467a.153.153,0,0,0-.156.156,16.492,16.492,0,0,0-1.87-1.559c2.962-2.183,6.392-4.209,9.2-4.209a5.3,5.3,0,0,1,1.559.156h.156c.155,0,.155,0,.155-.156l-.155-.156a5.312,5.312,0,0,0-2.651-.467,19.1,19.1,0,0,0-9.822,4.053" transform="translate(0 -3.172)" fill="#003462"/>
      <path id="Path_129943" data-name="Path 129943" d="M17.724,25.442a3.783,3.783,0,0,0-3.742,2.027,2.252,2.252,0,0,1,.312,1.092c1.091-2.806,4.053-2.495,4.521-2.495A5.352,5.352,0,0,0,15.074,28.4a7.617,7.617,0,0,0-.623,1.559,6.563,6.563,0,0,1,1.87-.623,4.887,4.887,0,0,0,3.742-4.521c0,.156-.312.623-2.339.623" transform="translate(-1.51 -2.681)" fill="#003462"/>
      <path id="Path_129944" data-name="Path 129944" d="M10.247,29.322c.467.156,1.247.156,1.559.467-.312-3.586-3.274-3.586-3.9-3.741h.623c1.248,0,4.054.155,4.054,4.833v.467l.467.156.467-.312C13.365,25.736,10.4,25.424,9,25.268c-2.027-.156-2.183-.468-2.183-.623a4.535,4.535,0,0,0,3.43,4.677" transform="translate(-0.736 -2.662)" fill="#003462"/>
      <path id="Path_129945" data-name="Path 129945" d="M8.564,21.036c0,3.118,4.365,4.209,4.365,4.209v-.936c0-3.274-4.365-4.209-4.365-4.209Z" transform="translate(-0.925 -2.171)" fill="#003462"/>
      <path id="Path_129946" data-name="Path 129946" d="M13.983,24.134v.936s4.365-.936,4.365-4.209v-.936c0,.156-4.365,1.091-4.365,4.209" transform="translate(-1.51 -2.152)" fill="#003462"/>
      <path id="Path_129947" data-name="Path 129947" d="M9.788,17.209c0,2.495,3.274,3.43,3.274,3.43v-.78c0-2.65-3.274-3.43-3.274-3.43Z" transform="translate(-1.057 -1.775)" fill="#003462"/>
      <path id="Path_129948" data-name="Path 129948" d="M13.808,19.7v.78s3.274-.78,3.274-3.43V16.43c.156,0-3.274.623-3.274,3.274" transform="translate(-1.491 -1.775)" fill="#003462"/>
      <path id="Path_129949" data-name="Path 129949" d="M12.2,14.153a3.959,3.959,0,0,1,.311-1.092c0,.156-.156.468-.156.623a1.755,1.755,0,0,0,1.559,1.871h.312a6.778,6.778,0,0,1-.78.156A1.427,1.427,0,0,1,12.2,14.153M11.885,14h0A1.821,1.821,0,0,0,13.6,16.024c.78.156,1.558-.78,1.558-1.87,0-1.559-1.714-4.365-1.714-4.365S11.885,12.438,11.885,14" transform="translate(-1.284 -1.057)" fill="#003462"/>
      <path id="Path_129950" data-name="Path 129950" d="M12.236,0h0c-.78.467-.936,1.87-.936,1.87a3.509,3.509,0,0,0-2.338-.78,2.313,2.313,0,0,0-1.4.312,2.971,2.971,0,0,1,1.558.78H7.871c-2.183,0-4.053.78-6.236,3.118A9.039,9.039,0,0,1,6.155,4.053a7.641,7.641,0,0,1,1.715.156C5.064,4.677,1.635,5.925.7,9.978c2.962-2.962,4.833-3.586,7.015-3.9-1.87,1.4-3.9,4.209-3.9,6.547a1.975,1.975,0,0,0,.156.936c1.247-2.65,3.274-5.3,5.3-6.236a5.132,5.132,0,0,0-.936,2.962,5.26,5.26,0,0,0,.78,2.65,12.229,12.229,0,0,1,3.118-5.768,12.229,12.229,0,0,1,3.118,5.768,5.26,5.26,0,0,0,.78-2.65A4.236,4.236,0,0,0,15.2,7.639c2.027.936,4.209,3.586,5.456,6.237a1.976,1.976,0,0,0,.156-.936c0-2.339-2.027-5.3-4.053-6.548,2.338.312,4.209.936,7.015,3.9-.936-3.9-4.365-5.3-6.86-5.768.624,0,1.248-.156,1.715-.156a9.038,9.038,0,0,1,4.521,1.247c-2.339-2.339-4.209-3.117-6.237-3.117H15.666A2.111,2.111,0,0,1,17.225,1.4a4.547,4.547,0,0,0-1.4-.312,3.512,3.512,0,0,0-2.339.78c-.156,0-.311-1.4-1.247-1.87" transform="translate(-0.076)" fill="#003462"/>
    </g>
  </g>
</svg>