<svg xmlns="http://www.w3.org/2000/svg" width="57.717" height="60.979" viewBox="0 0 57.717 60.979">
  <g id="pin3" transform="translate(14.247 0.002)">
    <ellipse id="Ellipse_178" data-name="Ellipse 178" cx="13.859" cy="4.301" rx="13.859" ry="4.301" transform="translate(0.753 37.374)" opacity="0.26" style="&#10;    filter: blur(5px);&#10;"/>
    <g id="Group_125136" data-name="Group 125136" transform="translate(0.361)">
      <path id="Path_129970" data-name="Path 129970" d="M1348.509,2804.006c-.016-.3-.032-.6-.064-.9a22.369,22.369,0,0,0-1.732-6.214,59.9,59.9,0,0,0-6.167-11.009c-1-1.483-1.971-2.824-2.94-4.086a1.577,1.577,0,0,0-1.224-.678,1.537,1.537,0,0,0-1.224.694,92.708,92.708,0,0,0-5.324,7.792,45.422,45.422,0,0,0-4.848,10.331,13.377,13.377,0,0,0,.111,8.959,12.021,12.021,0,0,0,11.333,7.744,12.62,12.62,0,0,0,2.034-.174,12.218,12.218,0,0,0,10.077-12.05Z" transform="translate(-1321.876 -2781.121)" fill="#003462"/>
      <path id="Path_129971" data-name="Path 129971" d="M1328.031,2796.383a8.323,8.323,0,0,0,.843,7.082,3.794,3.794,0,0,0,2.654,1.719,2.121,2.121,0,0,0,2.1-.867,1.539,1.539,0,0,0-.175-1.909c-.3-.426-.62-.852-.922-1.277a12.258,12.258,0,0,1-2.273-6.845,19.409,19.409,0,0,1,.524-4.385,1.825,1.825,0,0,0-.191.236c-.588.915-2.559,6.246-2.559,6.246Z" transform="translate(-1319.914 -2776.053)" fill="#fff"/>
    </g>
  </g>
</svg>