<svg xmlns="http://www.w3.org/2000/svg" xmlns:xlink="http://www.w3.org/1999/xlink" preserveAspectRatio="xMidYMid" width="69.687" height="54.594" viewBox="0 0 69.687 54.594">
  <defs>
    <style>
      .cls-1 {
        fill: #fff;
        fill-rule: evenodd;
      }
    </style>
  </defs>
  <path d="M59.556,48.207 C58.960,48.722 58.262,49.289 57.443,49.859 C56.359,50.617 55.082,51.410 53.599,52.105 C50.648,53.505 46.867,54.548 42.741,54.603 C40.710,54.623 38.565,54.515 36.442,54.128 C34.313,53.746 32.178,53.121 30.159,52.205 C28.147,51.275 26.267,50.048 24.626,48.603 C22.979,47.164 21.611,45.482 20.474,43.755 C19.338,42.018 18.466,40.231 17.790,38.451 C17.144,36.694 16.612,35.045 16.000,33.562 C15.393,32.080 14.775,30.752 14.120,29.632 C13.470,28.509 12.789,27.601 12.171,26.904 C11.546,26.212 11.003,25.712 10.605,25.406 C10.211,25.094 9.987,24.945 9.987,24.945 C9.987,24.945 10.224,25.070 10.651,25.342 C11.076,25.612 11.689,26.044 12.375,26.704 C13.658,27.922 15.165,29.954 16.477,32.620 C16.101,30.824 15.901,28.963 15.901,27.056 C15.901,12.133 27.967,-0.008 42.801,-0.008 C57.634,-0.008 69.702,12.133 69.702,27.056 C69.702,35.609 65.734,43.243 59.556,48.207 ZM30.144,4.916 L28.647,4.916 L29.802,4.082 C29.178,4.441 28.567,4.822 27.975,5.230 L28.048,5.230 L28.670,5.563 L29.843,5.807 L29.935,6.253 L31.801,6.320 L31.547,5.741 L29.890,5.695 L30.281,5.339 L30.144,4.916 ZM66.580,16.483 L66.476,15.565 C66.431,15.476 66.384,15.390 66.341,15.300 L65.699,15.639 L65.301,17.151 L64.229,16.048 L64.187,15.006 L63.155,14.145 L62.774,13.778 L61.576,13.778 L61.952,14.811 L63.395,15.590 L63.645,15.847 L63.331,15.999 L63.346,16.817 L62.644,17.101 L62.044,16.974 L61.669,16.461 L62.646,16.511 L62.911,16.167 L60.749,14.756 L60.581,14.155 L59.705,14.923 L58.814,14.747 L57.458,16.451 L57.192,17.118 L56.324,17.194 L55.041,17.203 L54.276,16.855 L54.049,15.383 L54.325,14.679 L55.629,14.404 L57.053,14.679 L57.227,13.919 L56.622,13.779 L56.830,12.592 L58.262,12.375 L59.265,11.005 L60.298,10.838 L61.231,10.972 L61.575,10.972 L61.385,9.687 L60.252,10.129 L59.851,9.168 L59.193,9.079 L59.068,8.421 L59.605,7.855 L60.500,7.515 C55.824,3.226 49.612,0.607 42.801,0.607 C38.326,0.607 34.107,1.742 30.413,3.736 L31.846,3.736 L32.582,4.718 L33.803,4.784 L34.538,4.093 L35.091,4.360 L34.077,5.317 C34.077,5.317 32.675,5.341 32.744,5.341 C32.811,5.341 32.859,6.275 32.859,6.275 L34.562,6.228 L34.746,5.783 L35.919,5.716 L36.058,5.049 L35.367,4.935 L35.597,4.334 L36.126,4.178 L37.966,4.267 L36.951,5.158 L37.116,5.847 L38.174,6.003 L38.104,4.757 L39.117,4.244 L40.912,4.044 L43.512,5.158 L43.512,6.115 L44.340,6.316 L43.925,7.073 L42.752,7.073 L42.404,7.941 L39.724,7.330 L41.833,6.242 L41.030,5.582 L39.212,5.805 L39.053,5.965 L39.048,5.962 L39.020,6.000 L38.494,6.526 L37.630,6.596 L37.699,7.012 L38.001,7.132 L37.989,7.270 L37.285,7.367 L37.233,7.762 L36.560,7.795 L36.440,7.011 L35.232,7.366 L32.763,8.764 L33.039,9.746 L33.730,10.183 L35.110,10.367 L35.110,11.885 L35.747,11.787 L36.336,10.601 L37.803,10.152 L37.803,8.331 L38.619,7.735 L40.593,8.186 L40.454,9.389 L40.984,9.389 L42.436,8.700 L42.503,10.275 L43.558,10.899 L43.515,11.835 L42.503,12.168 L42.571,12.478 L43.790,13.016 L43.764,13.661 L43.413,13.691 C43.412,13.681 43.408,13.673 43.408,13.673 L41.871,13.215 L41.806,12.737 L41.804,12.737 L42.255,12.437 L42.255,12.000 L41.771,11.882 L41.651,12.284 L40.801,12.410 L40.717,12.384 L40.717,12.425 L40.423,12.469 L40.182,12.000 L39.906,11.883 L39.302,11.883 L39.027,12.102 L39.027,12.587 L39.544,12.754 L40.053,12.823 L39.940,12.874 L39.474,13.373 L39.269,13.124 L38.818,13.009 L37.592,14.125 L37.751,14.252 L35.941,15.222 L34.707,16.463 C34.205,15.805 33.620,15.247 32.933,14.851 C32.931,15.826 32.500,18.280 30.494,19.833 L30.495,19.765 L27.226,19.766 L25.535,20.595 L24.800,21.905 L24.509,22.944 L24.871,23.710 C24.460,24.131 24.083,24.564 23.734,25.000 L22.432,24.686 L21.459,23.247 L21.854,22.550 L20.324,20.389 L20.061,18.809 L19.440,18.809 L19.647,20.344 L20.705,21.923 L20.589,22.548 L19.693,22.414 L18.588,20.595 L18.588,18.475 L18.028,18.215 C17.049,20.982 16.513,23.957 16.514,27.060 C16.514,30.582 17.207,33.941 18.454,37.016 L18.430,37.090 C18.558,37.407 18.686,37.723 18.817,38.044 C18.823,38.059 18.831,38.074 18.837,38.089 L18.885,38.017 C21.917,44.691 27.632,49.873 34.628,52.186 C35.318,52.372 36.010,52.542 36.709,52.673 C38.740,53.044 40.753,53.237 42.741,53.259 C44.703,53.273 46.601,53.097 48.372,52.747 C50.140,52.391 51.784,51.893 53.254,51.304 C53.435,51.230 53.604,51.154 53.779,51.078 C57.597,49.302 60.927,46.640 63.496,43.345 L63.496,42.011 L62.439,40.633 L62.439,38.492 L61.632,37.711 L61.562,36.820 L62.588,34.927 L60.645,31.607 L60.873,29.358 L59.124,29.183 L58.480,28.559 L57.305,28.559 L56.707,29.094 L54.634,29.094 L54.564,29.271 L53.411,29.271 L50.767,26.356 L50.788,24.085 L51.226,23.931 L51.388,23.061 L50.767,23.061 L50.513,22.149 L53.574,20.012 L53.574,18.498 L55.071,17.692 L55.679,17.751 L56.909,17.751 L57.874,17.250 L60.981,17.016 L60.981,18.552 L63.439,19.155 L63.920,19.489 L64.371,19.489 L64.371,18.653 L65.784,18.520 L67.131,19.489 L67.989,19.489 C67.744,18.670 67.462,17.866 67.143,17.082 L66.580,16.483 ZM54.726,10.414 L55.471,10.246 L56.001,10.469 L55.954,11.048 L54.814,11.828 L54.172,11.828 L54.172,11.271 L54.174,11.271 L54.726,10.414 ZM56.784,11.126 L56.727,10.692 L56.103,10.315 L55.668,10.025 L55.668,9.602 L55.920,9.224 L56.831,9.045 L57.058,10.114 L57.544,10.871 L57.865,11.228 L58.451,11.450 L57.898,12.086 L56.829,12.185 L56.024,12.185 L56.113,11.261 L56.784,11.126 ZM46.518,35.656 L46.172,38.879 L45.103,39.698 L43.515,39.653 L42.986,40.540 L43.378,42.213 L41.651,44.348 L41.100,45.333 L39.454,46.096 L38.371,46.256 L38.326,46.701 L39.087,46.911 L38.995,47.388 L38.315,48.023 L38.728,48.528 L39.547,48.549 L39.501,49.159 L39.283,49.761 L39.213,50.250 L40.425,51.238 L40.263,51.750 L38.616,51.719 L36.975,50.335 L35.698,48.163 L35.877,46.066 L34.909,44.819 L35.300,42.705 L34.726,42.550 L34.726,37.963 C34.726,37.963 33.114,36.780 33.022,36.780 C32.930,36.780 32.169,36.581 32.169,36.581 L32.008,35.714 L31.210,34.747 C31.716,34.472 32.221,34.174 32.715,33.838 C34.764,32.449 36.201,30.051 36.776,27.147 L37.298,27.117 L37.345,26.650 L38.243,27.072 L39.256,28.608 L41.004,28.631 L41.650,29.723 L41.741,31.058 L43.675,31.767 L46.115,31.795 L46.828,32.926 L47.910,33.262 L47.703,34.200 L46.518,35.656 ZM40.754,13.916 L40.674,14.283 L40.370,14.466 L39.883,14.505 C39.868,14.394 39.858,14.311 39.858,14.311 L39.668,14.311 L39.668,13.916 L40.461,13.916 L40.624,13.505 L40.941,13.501 L41.303,13.573 L41.148,13.882 L40.754,13.916 ZM38.549,14.614 L38.580,14.226 L38.838,13.916 L39.184,14.178 L39.126,14.566 L38.549,14.614 ZM35.507,27.004 C35.280,28.087 34.910,29.130 34.394,30.067 C34.334,30.176 34.276,30.284 34.213,30.391 C34.126,30.534 34.034,30.673 33.939,30.811 C33.847,30.947 33.751,31.078 33.652,31.208 C33.565,31.321 33.478,31.431 33.385,31.538 C33.256,31.690 33.119,31.830 32.978,31.969 C32.899,32.048 32.824,32.129 32.741,32.204 C32.510,32.413 32.268,32.609 32.010,32.785 C31.742,32.966 31.472,33.136 31.200,33.298 C30.958,33.443 30.715,33.576 30.472,33.706 C30.445,33.721 30.417,33.738 30.389,33.753 C26.330,35.895 22.165,36.147 22.165,36.147 C22.265,34.069 24.894,29.626 28.898,26.667 C24.474,27.404 21.425,31.952 21.425,31.952 C21.425,31.952 22.665,28.171 25.745,25.012 C26.525,24.212 27.425,23.458 28.453,22.810 C28.453,22.809 28.454,22.809 28.455,22.808 C28.966,22.486 29.498,22.183 30.073,21.924 C30.591,21.692 31.063,21.441 31.487,21.178 C31.541,21.144 31.596,21.111 31.649,21.077 C32.965,20.221 33.744,19.214 33.680,18.117 C35.566,20.035 36.199,23.686 35.509,26.997 C35.508,27.000 35.507,27.002 35.507,27.004 ZM23.007,31.150 C23.697,30.362 24.264,29.945 24.264,29.945 C24.264,29.945 23.916,30.541 23.394,31.433 C23.138,31.877 22.847,32.395 22.549,32.952 C22.265,33.516 21.943,34.107 21.702,34.726 C21.557,35.027 21.450,35.338 21.341,35.645 C21.221,35.950 21.154,36.258 21.061,36.554 C20.987,36.852 20.944,37.144 20.881,37.421 C20.856,37.702 20.833,37.968 20.811,38.214 C20.821,38.462 20.830,38.690 20.840,38.891 C20.834,39.102 20.898,39.268 20.919,39.417 C20.974,39.717 21.004,39.890 21.004,39.890 C21.004,39.890 20.913,39.745 20.762,39.474 C20.696,39.336 20.571,39.177 20.526,38.964 C20.465,38.757 20.383,38.519 20.330,38.253 C20.303,37.986 20.265,37.691 20.255,37.379 C20.278,37.072 20.277,36.739 20.337,36.406 C20.415,36.081 20.443,35.723 20.570,35.395 C20.678,35.059 20.785,34.718 20.931,34.395 C21.069,34.066 21.228,33.751 21.394,33.445 C21.545,33.131 21.747,32.855 21.917,32.573 C22.279,32.023 22.657,31.541 23.007,31.150 ZM6.697,23.388 C10.501,24.958 13.427,29.472 13.719,32.710 C13.719,32.710 7.148,31.532 3.018,27.207 C-1.112,22.892 -0.886,14.722 3.037,11.588 C2.994,13.952 4.971,14.189 7.139,15.781 C13.229,20.275 15.182,24.762 15.085,28.982 C13.864,24.932 10.396,23.491 6.697,23.388 Z" class="cls-1"/>
</svg>
