<svg xmlns="http://www.w3.org/2000/svg" width="49.97" height="56.008" viewBox="0 0 49.97 56.008">
  <path id="sector-2" d="M39.734,47.738a13.156,13.156,0,0,1-2.082.168c-.228,0-.452-.013-.676-.025a20.256,20.256,0,0,0,3.211-11.172l-.039-.714c-.028-.5-.057-1-.113-1.49a36.769,36.769,0,0,0-2.867-10.284A77.87,77.87,0,0,0,33.506,16.7c.857-1.237,1.8-2.537,2.858-3.941a1.546,1.546,0,0,1,1.251-.695,1.567,1.567,0,0,1,1.24.689c.992,1.273,1.974,2.624,3,4.121a61.537,61.537,0,0,1,6.275,11.1,22.443,22.443,0,0,1,1.756,6.282c.036.3.051.594.067.9l.025.415A12.366,12.366,0,0,1,39.734,47.738ZM38.451,34.69c.051.463.079.934.1,1.4l.036.645A19.32,19.32,0,0,1,22.584,55.755a20.343,20.343,0,0,1-3.251.263,19.127,19.127,0,0,1-18.019-12.2,20.944,20.944,0,0,1-.161-14.142,70.717,70.717,0,0,1,7.694-16.28A147.947,147.947,0,0,1,17.32,1.1,2.41,2.41,0,0,1,19.273.01a2.463,2.463,0,0,1,1.938,1.074c1.551,1.992,3.086,4.1,4.686,6.441A96.234,96.234,0,0,1,35.7,24.873,35.17,35.17,0,0,1,38.451,34.69Zm-3.826,1.637c-.023-.393-.044-.785-.087-1.177a31.2,31.2,0,0,0-2.449-8.667,92.415,92.415,0,0,0-9.41-16.616c-1.157-1.693-2.278-3.26-3.4-4.747-2.864,3.861-5.14,7.208-7.1,10.431A66.868,66.868,0,0,0,4.908,30.894,16.941,16.941,0,0,0,4.97,42.309a15.209,15.209,0,0,0,14.363,9.648,16.687,16.687,0,0,0,2.642-.212A15.235,15.235,0,0,0,34.657,36.852Zm-8.5,3.77a13.394,13.394,0,0,1-.1-9.048,39.392,39.392,0,0,1,3.1-7.236c.543,1.117,1.048,2.221,1.508,3.321a29.611,29.611,0,0,1,2.329,8.2c.036.323.055.648.072.97l.037.6A13.038,13.038,0,0,1,30,45.309,12.129,12.129,0,0,1,26.123,40.1ZM14.666,45.958a6.047,6.047,0,0,1-4.222-2.715c-2.317-3.5-2.385-7.136-1.353-11.164,0,0,3.146-8.417,4.085-9.867a3.949,3.949,0,0,1,.3-.368,31.131,31.131,0,0,0-.843,6.924,19.256,19.256,0,0,0,3.628,10.789c.475.679.979,1.339,1.46,2.014A2.431,2.431,0,0,1,18,44.583,3.381,3.381,0,0,1,14.666,45.958Z" transform="translate(-0.008 -0.01)" fill="#fff"/>
</svg>
