<svg xmlns="http://www.w3.org/2000/svg" width="73" height="57.287" viewBox="0 0 73 57.287">
  <path id="sector-3" d="M71.581-.007c-11.738,0-24.474,6.448-30.5,12.516a19.551,19.551,0,0,0-5.634,11.37,13.681,13.681,0,0,0,2.422,9.926,29.454,29.454,0,0,0-4.144,10.343,25.7,25.7,0,0,0-5.186-6.454c2.023-4.619.216-10.9-4.448-14.33-3.907-2.877-11.011-4.275-21.721-4.275H0V21C0,28.668,6.6,37.433,11.185,40.812a13.685,13.685,0,0,0,7.9,2.509,10.884,10.884,0,0,0,7.185-2.541c3.9,3.65,6.193,8.217,6.277,12.68h-9.79a1.91,1.91,0,0,0,0,3.82h23.7a1.91,1.91,0,0,0,0-3.82h-10.1c.051-4.922,1.641-12.929,4.27-16.973a13.263,13.263,0,0,0,7.705,2.346,18.317,18.317,0,0,0,12.9-5.8C67.741,26.482,73,12.225,73,1.9V-.007ZM25.37,35.329,16.5,28.8a1.887,1.887,0,0,0-2.65.414,1.919,1.919,0,0,0,.411,2.669l8.871,6.534c-2.532,1.642-6.552,1.468-9.471-.682-3.517-2.59-8.278-9.1-9.224-14.8,10.662.206,15.354,2,17.417,3.519C24.773,28.6,26.155,32.4,25.37,35.329Zm33.416-4.99c-4.618,4.649-11.3,5.917-15.6,3.278l15.152-15.26a1.921,1.921,0,0,0,0-2.7,1.886,1.886,0,0,0-2.681,0L40.5,30.923a10.167,10.167,0,0,1-1.287-6.593,15.936,15.936,0,0,1,4.549-9.121C48.975,9.959,59.777,4.54,69.616,3.878,68.963,13.8,63.615,25.474,58.785,30.339Z" transform="translate(-0.003 0.007)" fill="#fff"/>
</svg>
