<svg id="beer2" xmlns="http://www.w3.org/2000/svg" xmlns:xlink="http://www.w3.org/1999/xlink" width="103.348" height="105.263" viewBox="0 0 103.348 105.263">
  <defs>
    <clipPath id="clip-path">
      <rect id="Rectangle_16246" data-name="Rectangle 16246" width="103.348" height="105.263" fill="#fff"/>
    </clipPath>
  </defs>
  <g id="Group_125361" data-name="Group 125361" clip-path="url(#clip-path)">
    <path id="Path_130028" data-name="Path 130028" d="M99.382,90.115H76.664v11.179H99.382Zm-26.686,0H49.979v11.179H72.7Zm-26.687,0H23.294v11.179H46.009ZM99.382,74.966H90.01V86.145h9.372Zm-40.027,0H36.639V86.145H59.354Zm-26.69,0H23.294V86.145h9.371Zm30.66,11.179H86.041V74.966H63.324ZM99.382,59.817H76.664V71H99.382Zm-26.686,0H49.978V71H72.7Zm-26.687,0H23.294V71H46.009ZM77.131,8.99H82.47V6.727a6.727,6.727,0,0,1,13.455,0v4.949a1.986,1.986,0,0,1-3.971,0V6.727a2.759,2.759,0,1,0-5.517,0V55.85h5.517V18.6a1.986,1.986,0,0,1,3.971,0V55.85h5.442a1.989,1.989,0,0,1,1.982,1.988v45.443a1.984,1.984,0,0,1-1.976,1.983H21.305v-.456l0,.456a1.983,1.983,0,0,1-1.979-1.976V57.837A1.989,1.989,0,0,1,21.3,55.85h5.451V52.891a1.987,1.987,0,0,1,3.974,0V55.85h5.511V6.727a2.756,2.756,0,0,0-5.511,0V45.964a1.988,1.988,0,0,1-3.976,0V16.147H18.378v7.5a2,2,0,0,1-1.986,1.987H1.987a1.987,1.987,0,1,1,0-3.974H14.4v-7.5a1.988,1.988,0,0,1,1.984-1.982H26.755V6.727a6.727,6.727,0,1,1,13.453,0V8.99h5.338V19.331H40.21V55.85H82.466V19.331H77.127Zm0,6.372h5.339v-2.4H77.127m-31.579,0H40.21v2.4h5.338" transform="translate(0 0)" fill="#fff"/>
    <path id="Path_130029" data-name="Path 130029" d="M69.55,32.639H68.3a11,11,0,0,0-1.739-4.468A7.075,7.075,0,0,0,63.2,25.459V20.927H59.232v4.531a7.064,7.064,0,0,0-3.366,2.709,11.025,11.025,0,0,0-1.742,4.473H52.873a1.842,1.842,0,0,0-.3.024,1.979,1.979,0,0,0-1.653,2.263l2.1,13.477A1.991,1.991,0,0,0,55,50.253H67.426a1.982,1.982,0,0,0,1.956-1.686L71.474,35.1a2.013,2.013,0,0,0,.058-.469,1.989,1.989,0,0,0-1.983-1.991m-10.4-2.276A2.3,2.3,0,0,1,60.22,29.3a2.271,2.271,0,0,1,.991-.227,2.337,2.337,0,0,1,2.1,1.351,6.757,6.757,0,0,1,.96,2.22H58.161a7.04,7.04,0,0,1,.992-2.276M65.735,46.28H56.7l-1.51-9.672H67.238Z" transform="translate(7.132 2.933)" fill="#fff"/>
    <path id="Path_130030" data-name="Path 130030" d="M69.546,3.912H41.935A1.99,1.99,0,0,0,39.949,5.9V21.331a1.991,1.991,0,0,0,1.988,1.98H69.548a1.989,1.989,0,0,0,1.982-1.98V18.783l0-10.341V5.9a1.991,1.991,0,0,0-1.987-1.985M48.021,19.343h-4.1V7.881h4.1Zm6.372,0h-2.4V7.881h2.4Zm6.374,0h-2.4V7.881h2.4Zm6.793,0H64.735V7.881H67.56Z" transform="translate(5.597 0.548)" fill="#fff"/>
  </g>
</svg>
