<svg xmlns="http://www.w3.org/2000/svg" width="104.022" height="105.869" viewBox="0 0 104.022 105.869">
  <g id="block2" transform="translate(-58.147 -45.416)">
    <g id="Layer_26" transform="translate(58.147 45.416)">
      <g id="Group_125377" data-name="Group 125377" transform="translate(0)">
        <g id="Group_125374" data-name="Group 125374">
          <g id="Group_125362" data-name="Group 125362">
            <path id="Path_130031" data-name="Path 130031" d="M86.3,115.01a1.742,1.742,0,0,1-1.73-1.563L77.907,48.9H68.3L61.62,113.448a1.741,1.741,0,0,1-3.464-.359L65,46.978a1.741,1.741,0,0,1,1.732-1.562H79.478a1.741,1.741,0,0,1,1.732,1.563l6.822,66.111a1.743,1.743,0,0,1-1.734,1.92Z" transform="translate(-58.147 -45.416)" fill="#fff"/>
          </g>
          <g id="Group_125363" data-name="Group 125363" transform="translate(20.278 6.675)">
            <path id="Path_130032" data-name="Path 130032" d="M399.448,140.9h-60.07a1.741,1.741,0,1,1,0-3.483h60.07a1.741,1.741,0,0,1,0,3.483Z" transform="translate(-337.637 -137.414)" fill="#fff"/>
          </g>
          <g id="Group_125364" data-name="Group 125364" transform="translate(76.667 0)">
            <path id="Path_130033" data-name="Path 130033" d="M1140.439,115.012h-19.465a1.741,1.741,0,1,1,0-3.483h17.535L1132.046,48.9h-9.605L1118.3,88.917a1.741,1.741,0,0,1-3.464-.359l4.3-41.579a1.741,1.741,0,0,1,1.732-1.562h12.746a1.741,1.741,0,0,1,1.732,1.563l6.822,66.111a1.741,1.741,0,0,1-1.732,1.92Z" transform="translate(-1114.826 -45.418)" fill="#fff"/>
          </g>
          <g id="Group_125365" data-name="Group 125365" transform="translate(27.739 13.164)">
            <path id="Path_130034" data-name="Path 130034" d="M461.643,240.681H442.21a1.741,1.741,0,0,1-1.741-1.741V228.6a1.741,1.741,0,0,1,1.741-1.741h19.433a1.741,1.741,0,0,1,1.741,1.741V238.94A1.741,1.741,0,0,1,461.643,240.681ZM443.952,237.2H459.9v-6.861H443.952Z" transform="translate(-440.469 -226.855)" fill="#fff"/>
          </g>
          <g id="Group_125366" data-name="Group 125366" transform="translate(53.598 13.164)">
            <path id="Path_130035" data-name="Path 130035" d="M818.044,240.681H798.611a1.741,1.741,0,0,1-1.741-1.741V228.6a1.741,1.741,0,0,1,1.741-1.741h19.433a1.741,1.741,0,0,1,1.741,1.741V238.94A1.741,1.741,0,0,1,818.044,240.681ZM800.353,237.2H816.3v-6.861H800.353Z" transform="translate(-796.87 -226.855)" fill="#fff"/>
          </g>
          <g id="Group_125369" data-name="Group 125369" transform="translate(55.014 23.509)">
            <g id="Group_125367" data-name="Group 125367" transform="translate(0 0)">
              <path id="Path_130036" data-name="Path 130036" d="M829.108,415.38a1.741,1.741,0,0,1-1.734-1.61,128.607,128.607,0,0,0-10.525-41.2l-.144-.319-.159-.352a1.741,1.741,0,0,1,3.165-1.454l.169.374.136.3a122.832,122.832,0,0,1,7.581,22.347,128.241,128.241,0,0,1,3.25,20.044,1.741,1.741,0,0,1-1.6,1.868C829.2,415.378,829.152,415.38,829.108,415.38Z" transform="translate(-816.387 -369.427)" fill="#fff"/>
            </g>
            <g id="Group_125368" data-name="Group 125368" transform="translate(15.08)">
              <path id="Path_130037" data-name="Path 130037" d="M1036.947,415.379a1.741,1.741,0,0,1-1.735-1.61,128.632,128.632,0,0,0-10.506-41.162l-.15-.333-.171-.38a1.741,1.741,0,0,1,3.164-1.454l.183.406.141.313a122.884,122.884,0,0,1,7.566,22.326,128.275,128.275,0,0,1,3.245,20.021,1.742,1.742,0,0,1-1.6,1.868C1037.036,415.378,1036.991,415.379,1036.947,415.379Z" transform="translate(-1024.227 -369.427)" fill="#fff"/>
            </g>
          </g>
          <g id="Group_125372" data-name="Group 125372" transform="translate(29.172 23.508)">
            <g id="Group_125370" data-name="Group 125370" transform="translate(0 0)">
              <path id="Path_130038" data-name="Path 130038" d="M472.962,415.367a1.741,1.741,0,0,1-1.734-1.61,128.638,128.638,0,0,0-10.5-41.16c-.023-.049-.092-.188-.16-.325-.145-.294-.172-.349-.191-.39a1.741,1.741,0,0,1,3.159-1.466c.021.043.088.179.156.316.151.307.179.364.2.407a122.885,122.885,0,0,1,7.569,22.33,128.259,128.259,0,0,1,3.246,20.025,1.741,1.741,0,0,1-1.6,1.868C473.051,415.366,473.006,415.367,472.962,415.367ZM460.725,372.6h0Z" transform="translate(-460.212 -369.413)" fill="#fff"/>
            </g>
            <g id="Group_125371" data-name="Group 125371" transform="translate(15.071)">
              <path id="Path_130039" data-name="Path 130039" d="M680.689,415.366a1.741,1.741,0,0,1-1.734-1.61,128.635,128.635,0,0,0-10.5-41.145c-.026-.053-.094-.188-.161-.321-.154-.307-.181-.36-.2-.409a1.741,1.741,0,0,1,3.157-1.47c.024.049.09.18.157.313.161.319.189.375.212.426a122.908,122.908,0,0,1,7.565,22.324,128.238,128.238,0,0,1,3.245,20.02,1.741,1.741,0,0,1-1.6,1.868C680.778,415.364,680.733,415.366,680.689,415.366Zm-12.228-42.747h0Z" transform="translate(-667.933 -369.412)" fill="#fff"/>
            </g>
          </g>
          <g id="Group_125373" data-name="Group 125373" transform="translate(0 66.112)">
            <path id="Path_130040" data-name="Path 130040" d="M160.431,960.093H59.891a1.741,1.741,0,1,1,0-3.483H160.431a1.741,1.741,0,1,1,0,3.483Z" transform="translate(-58.15 -956.61)" fill="#fff"/>
          </g>
        </g>
        <g id="Group_125375" data-name="Group 125375" transform="translate(11.934 77.251)">
          <path id="Path_130041" data-name="Path 130041" d="M298.512,1122.38a1.738,1.738,0,0,1-1.312-.6c-3.927-4.494-7.88-6.849-11.75-7-3.2-.124-5.586,1.444-8.11,3.1-2.933,1.93-6.258,4.117-10.927,3.314a20.21,20.21,0,0,1-8.394-3.883c-2.154-1.483-3.856-2.654-6.09-2.443-2.123.2-3.524,1.509-5.147,3.025-1.727,1.613-3.684,3.441-6.678,3.751-2.092.217-9.505.233-17.064-8.647a1.741,1.741,0,0,1,2.652-2.257,22.362,22.362,0,0,0,8.419,6.45,12.032,12.032,0,0,0,5.634.99c1.83-.189,3.141-1.414,4.659-2.832,1.825-1.7,3.893-3.636,7.2-3.947,3.494-.329,5.983,1.384,8.391,3.042a17.111,17.111,0,0,0,7.009,3.319c3.314.57,5.682-.988,8.423-2.792s5.842-3.841,10.159-3.675c4.865.188,9.655,2.943,14.238,8.187a1.741,1.741,0,0,1-1.311,2.887Z" transform="translate(-222.625 -1110.138)" fill="#fff"/>
        </g>
        <g id="Group_125376" data-name="Group 125376" transform="translate(12.094 93.627)">
          <path id="Path_130042" data-name="Path 130042" d="M300.723,1348.089a1.736,1.736,0,0,1-1.312-.6c-3.927-4.494-7.88-6.849-11.75-7-3.2-.126-5.586,1.444-8.11,3.1-2.506,1.648-5.3,3.484-8.968,3.485a11.528,11.528,0,0,1-1.959-.171,20.211,20.211,0,0,1-8.394-3.883c-2.154-1.482-3.856-2.654-6.09-2.443-2.123.2-3.524,1.509-5.147,3.025-1.727,1.613-3.684,3.441-6.678,3.751-2.092.217-9.505.233-17.064-8.647a1.741,1.741,0,0,1,2.652-2.257,22.362,22.362,0,0,0,8.419,6.45,12.031,12.031,0,0,0,5.634.99c1.83-.189,3.141-1.414,4.659-2.832,1.825-1.7,3.893-3.636,7.2-3.947,3.494-.329,5.983,1.384,8.391,3.042a17.113,17.113,0,0,0,7.01,3.319c3.314.569,5.682-.988,8.423-2.792s5.842-3.842,10.159-3.675c4.865.188,9.655,2.943,14.238,8.187a1.741,1.741,0,0,1-1.311,2.887Z" transform="translate(-224.836 -1335.846)" fill="#fff"/>
        </g>
      </g>
    </g>
  </g>
</svg>
