<svg xmlns="http://www.w3.org/2000/svg" width="127.503" height="110" viewBox="0 0 127.503 110">
  <g id="consulting2" transform="translate(0 -35.143)">
    <g id="Group_125159" data-name="Group 125159" transform="translate(0 35.143)">
      <path id="Path_129860" data-name="Path 129860" d="M42.487,77.631l-13.322-7.5H0V35.143H49.989V70.129h-7.5Z" transform="translate(0 -35.143)" fill="#fff" opacity="0.2"/>
      <path id="Path_129861" data-name="Path 129861" d="M318.767,77.631v-7.5h-7.5V35.143h49.989V70.129H332.089Z" transform="translate(-233.751 -35.143)" fill="#fff" opacity="0.2"/>
    </g>
    <g id="Group_125160" data-name="Group 125160" transform="translate(0 45.145)">
      <path id="Path_129862" data-name="Path 129862" d="M345.207,260.12a13.742,13.742,0,1,0-17.893,0,25.035,25.035,0,0,0-16.048,23.338v10a2.49,2.49,0,0,0,2.49,2.49h45.008a2.49,2.49,0,0,0,2.49-2.49v-10A25.035,25.035,0,0,0,345.207,260.12ZM327.5,249.7a8.762,8.762,0,1,1,8.762,8.762A8.772,8.772,0,0,1,327.5,249.7Zm28.776,41.268H316.247v-7.512a20.014,20.014,0,0,1,40.028,0Z" transform="translate(-233.752 -195.952)" fill="#fff"/>
      <path id="Path_129863" data-name="Path 129863" d="M33.941,260.12a13.742,13.742,0,1,0-17.893,0A25.035,25.035,0,0,0,0,283.457v10a2.49,2.49,0,0,0,2.49,2.49H47.5a2.49,2.49,0,0,0,2.49-2.49v-10A25.035,25.035,0,0,0,33.941,260.12ZM16.233,249.7a8.762,8.762,0,1,1,8.762,8.762A8.772,8.772,0,0,1,16.233,249.7Zm28.775,41.268H4.981v-7.512a20.014,20.014,0,0,1,40.028,0Z" transform="translate(0 -195.952)" fill="#fff"/>
      <path id="Path_129864" data-name="Path 129864" d="M42.653,80.287h25a2.49,2.49,0,1,0,0-4.981h-25a2.49,2.49,0,0,0,0,4.981Z" transform="translate(-30.161 -75.306)" fill="#fff"/>
      <path id="Path_129865" data-name="Path 129865" d="M42.653,120.451h25a2.49,2.49,0,1,0,0-4.981h-25a2.49,2.49,0,0,0,0,4.981Z" transform="translate(-30.161 -105.468)" fill="#fff"/>
      <path id="Path_129866" data-name="Path 129866" d="M353.919,80.287h25a2.49,2.49,0,0,0,0-4.981h-25a2.49,2.49,0,1,0,0,4.981Z" transform="translate(-263.913 -75.306)" fill="#fff"/>
      <path id="Path_129867" data-name="Path 129867" d="M353.919,120.451h25a2.49,2.49,0,0,0,0-4.981h-25a2.49,2.49,0,1,0,0,4.981Z" transform="translate(-263.913 -105.468)" fill="#fff"/>
    </g>
  </g>
</svg>
