<svg id="goal2" xmlns="http://www.w3.org/2000/svg" width="110" height="110" viewBox="0 0 110 110">
  <g id="Group_125163" data-name="Group 125163" transform="translate(66.74 0)">
    <path id="Path_129868" data-name="Path 129868" d="M330.532,39.05a2.149,2.149,0,0,1-2.148-2.148V18.722H312.794a2.149,2.149,0,0,1-2.148-2.148V2.148A2.149,2.149,0,0,1,312.794,0h17.737a2.149,2.149,0,0,1,2.148,2.148V36.9a2.148,2.148,0,0,1-2.148,2.148ZM314.943,14.425h13.44V4.3h-13.44Z" transform="translate(-310.646 0)" fill="#fff"/>
  </g>
  <path id="Path_129869" data-name="Path 129869" d="M354.706,166.665h20.84v72.044h-20.84Z" transform="translate(-278.5 -130.858)" fill="#fff" fill-rule="evenodd"/>
  <path id="Path_129870" data-name="Path 129870" d="M107.852,80.328a2.149,2.149,0,0,0-2.148,2.148v86.3H67.772V111.7a2.149,2.149,0,0,0-2.148-2.148H44.784a2.149,2.149,0,0,0-2.148,2.148v57.074H36.35V134.9a2.149,2.149,0,0,0-2.148-2.148H13.362a2.149,2.149,0,0,0-2.148,2.148v33.874H2.148a2.148,2.148,0,0,0,0,4.3h105.7A2.149,2.149,0,0,0,110,170.922V82.476A2.149,2.149,0,0,0,107.852,80.328Zm-60.919,33.52H63.475v54.925H46.932Zm-31.422,23.2H32.053v31.725H15.51Z" transform="translate(0 -63.07)" fill="#fff"/>
</svg>
