<svg xmlns="http://www.w3.org/2000/svg" xmlns:xlink="http://www.w3.org/1999/xlink" width="90.603" height="90.495" viewBox="0 0 90.603 90.495">
  <defs>
    <clipPath id="clip-path">
      <rect id="Rectangle_16245" data-name="Rectangle 16245" width="90.603" height="90.495" transform="translate(0 0)" fill="none"/>
    </clipPath>
  </defs>
  <g id="help" transform="translate(0 0)">
    <g id="Group_125359" data-name="Group 125359" clip-path="url(#clip-path)">
      <path id="Path_130023" data-name="Path 130023" d="M49.221,62.288l-.094.874a1.77,1.77,0,0,0,2.8,1.618l11.3-8.254a1.768,1.768,0,0,0,.489-.544L77.506,32.1V66.4a7.2,7.2,0,0,1-7.191,7.191H29.307a1.768,1.768,0,0,0-1.532.885L21.586,85.189,15.4,74.472a1.768,1.768,0,0,0-1.532-.885H10.73A7.2,7.2,0,0,1,3.539,66.4V31.979a7.2,7.2,0,0,1,7.191-7.191H28.858a1.77,1.77,0,1,0,.084-3.539q-.042,0-.084,0H10.73A10.743,10.743,0,0,0,0,31.979V66.4a10.743,10.743,0,0,0,10.73,10.73h2.114l7.21,12.484a1.77,1.77,0,0,0,3.065,0l7.209-12.487H70.317a10.743,10.743,0,0,0,10.73-10.73V31.979a10.743,10.743,0,0,0-.937-4.389l9.5-16.449A7.43,7.43,0,0,0,76.742,3.71L66.617,21.249H44.784a1.77,1.77,0,1,0-.084,3.539H64.574L51.1,48.131l-.735,3.539L49.6,58.749Zm35.9-58.229a3.893,3.893,0,0,1,1.423,5.312L85.53,11.122,78.8,7.234l1.011-1.751A3.894,3.894,0,0,1,85.123,4.06ZM53.854,52.33l5.094,2.941-5.873,4.29Zm7.684.35L54.8,48.791,77.026,10.3l6.735,3.889Z" fill="#003462"/>
      <path id="Path_130024" data-name="Path 130024" d="M36.82,24.788a1.767,1.767,0,1,0-1.251-.518,1.788,1.788,0,0,0,1.251.518" fill="#4789c8"/>
      <path id="Path_130025" data-name="Path 130025" d="M44.9,60.683a1.77,1.77,0,0,0-1.762-1.934H15.7a1.792,1.792,0,0,0,0,3.539h27.44A1.769,1.769,0,0,0,44.9,60.683Z" fill="#4789c8"/>
      <path id="Path_130026" data-name="Path 130026" d="M46.009,50.216a1.77,1.77,0,0,0-1.741-2.085H15.7a1.656,1.656,0,0,0-1.581,1.727,1.682,1.682,0,0,0,1.507,1.812c.025,0,.049,0,.074,0H44.268a1.77,1.77,0,0,0,1.741-1.454" fill="#4789c8"/>
      <path id="Path_130027" data-name="Path 130027" d="M50.441,40.076a1.77,1.77,0,0,0-1.58-2.566H15.7a1.657,1.657,0,0,0-1.581,1.728,1.682,1.682,0,0,0,1.508,1.811H48.861A1.769,1.769,0,0,0,50.441,40.076Z" fill="#4789c8"/>
    </g>
  </g>
</svg>
