<svg xmlns="http://www.w3.org/2000/svg" xmlns:xlink="http://www.w3.org/1999/xlink" width="106.824" height="110.002" viewBox="0 0 106.824 110.002">
  <defs>
    <clipPath id="clip-path">
      <rect id="Rectangle_16245" data-name="Rectangle 16245" width="106.824" height="110.002" fill="#fff"/>
    </clipPath>
  </defs>
  <g id="help2" transform="translate(0 0)">
    <g id="Group_125359" data-name="Group 125359" transform="translate(0 0)" clip-path="url(#clip-path)">
      <path id="Path_130023" data-name="Path 130023" d="M58.033,75.714l-.111,1.062a2.136,2.136,0,0,0,1.857,2.365,2.038,2.038,0,0,0,1.444-.4L74.547,68.71a2.128,2.128,0,0,0,.577-.661L91.382,39.016V80.709A8.624,8.624,0,0,1,82.9,89.45H34.554a2.074,2.074,0,0,0-1.806,1.076l-7.3,13.026L18.157,90.525a2.074,2.074,0,0,0-1.806-1.076h-3.7a8.624,8.624,0,0,1-8.478-8.741V38.872a8.624,8.624,0,0,1,8.478-8.741H34.024a2.152,2.152,0,0,0,.1-4.3q-.05,0-.1,0H12.651A12.867,12.867,0,0,0,0,38.872V80.708A12.867,12.867,0,0,0,12.651,93.751h2.492l8.5,15.175a2.053,2.053,0,0,0,2.851.786,2.11,2.11,0,0,0,.763-.786l8.5-15.179H82.906A12.867,12.867,0,0,0,95.557,80.7V38.872a13.4,13.4,0,0,0-1.1-5.335l11.2-19.995a9.194,9.194,0,0,0-3.209-12.334,8.624,8.624,0,0,0-11.962,3.3L78.544,25.829H52.8a2.152,2.152,0,0,0-.1,4.3q.05,0,.1,0H76.135L60.248,58.506l-.867,4.3-.9,8.6Zm42.324-70.78a4.813,4.813,0,0,1,1.678,6.457l-1.192,2.128L92.908,8.793,94.1,6.665a4.517,4.517,0,0,1,6.263-1.73ZM63.5,63.61,69.5,67.185,62.577,72.4Zm9.06.425-7.944-4.727L90.816,12.519l7.941,4.727Z" transform="translate(0 0)" fill="#fff"/>
      <path id="Path_130024" data-name="Path 130024" d="M37.137,25.55A2.149,2.149,0,1,0,35.052,23.4a2.18,2.18,0,0,0,.61,1.517,2.076,2.076,0,0,0,1.475.63" transform="translate(6.275 4.582)" fill="#fff"/>
      <path id="Path_130025" data-name="Path 130025" d="M50.4,61.1a2.126,2.126,0,0,0-2.077-2.351H15.966a2.19,2.19,0,0,0,0,4.3H48.318A2.111,2.111,0,0,0,50.4,61.1Z" transform="translate(2.54 12.664)" fill="#fff"/>
      <path id="Path_130026" data-name="Path 130026" d="M51.719,50.666a2.132,2.132,0,0,0-2.053-2.534H15.979a1.988,1.988,0,0,0-1.864,2.1,2.027,2.027,0,0,0,1.777,2.2c.029,0,.058,0,.087,0H49.666a2.105,2.105,0,0,0,2.053-1.767" transform="translate(2.527 10.375)" fill="#fff"/>
      <path id="Path_130027" data-name="Path 130027" d="M56.945,40.629a2.15,2.15,0,0,0-1.863-3.119h-39.1a1.989,1.989,0,0,0-1.864,2.1,2.026,2.026,0,0,0,1.778,2.2c.028,0,.057,0,.086,0h39.1A2.08,2.08,0,0,0,56.945,40.629Z" transform="translate(2.527 8.086)" fill="#fff"/>
    </g>
  </g>
</svg>
