<svg xmlns="http://www.w3.org/2000/svg" xmlns:xlink="http://www.w3.org/1999/xlink" width="114.771" height="110.001" viewBox="0 0 114.771 110.001">
  <defs>
    <clipPath id="clip-path">
      <rect id="Rectangle_16244" data-name="Rectangle 16244" width="114.771" height="110.001" fill="#fff"/>
    </clipPath>
  </defs>
  <g id="icon-pr2" transform="translate(0 0)">
    <g id="Group_125358" data-name="Group 125358" transform="translate(0 0)" clip-path="url(#clip-path)">
      <path id="Path_130017" data-name="Path 130017" d="M73.346,100.885a2.438,2.438,0,0,1-.929-.182C71.309,100.249,45.3,89.378,45.3,67.226V48.394a2.282,2.282,0,0,1,1.61-2.15l25.674-8.371a2.461,2.461,0,0,1,1.525,0l25.67,8.369a2.286,2.286,0,0,1,1.614,2.153V67.226c0,22.044-26.011,33.026-27.12,33.482a2.531,2.531,0,0,1-.929.176m-23.3-50.862v17.2c0,16.317,17.387,26.013,22.716,28.6l.584.283.584-.283c5.33-2.584,22.717-12.282,22.717-28.6v-17.2l-23.3-7.6Z" transform="translate(13.377 9.117)" fill="#fff"/>
      <path id="Path_130018" data-name="Path 130018" d="M68.6,76.129a2.374,2.374,0,0,1-1.487-.658l-9.783-9.377a2.211,2.211,0,0,1-.022-3.22,2.442,2.442,0,0,1,3.355-.016L68.531,70.4l13.023-16.65a2.442,2.442,0,0,1,3.313-.365,2.205,2.205,0,0,1,.461,3.116L70.674,75.229a2.4,2.4,0,0,1-1.729.9Z" transform="translate(16.72 12.775)" fill="#fff"/>
      <path id="Path_130019" data-name="Path 130019" d="M12.149,95.942A11.935,11.935,0,0,1,0,84.3V11.648A11.935,11.935,0,0,1,12.154,0H68.391A11.936,11.936,0,0,1,80.539,11.649V37.1a2.374,2.374,0,0,1-4.745,0V11.648a7.283,7.283,0,0,0-7.4-7.1H12.152a7.282,7.282,0,0,0-7.408,7.1V84.3a7.281,7.281,0,0,0,7.405,7.1H50.494a2.273,2.273,0,1,1,.135,4.544Z" transform="translate(0 0)" fill="#fff"/>
      <path id="Path_130020" data-name="Path 130020" d="M13.7,34.749a2.276,2.276,0,1,1,0-4.548H60.159a2.276,2.276,0,1,1,0,4.548Z" transform="translate(3.344 7.293)" fill="#fff"/>
      <path id="Path_130021" data-name="Path 130021" d="M13.7,49.85a2.276,2.276,0,1,1,0-4.548h26.9a2.276,2.276,0,1,1,0,4.548Z" transform="translate(3.344 10.94)" fill="#fff"/>
      <path id="Path_130022" data-name="Path 130022" d="M13.7,19.649a2.276,2.276,0,1,1,0-4.548h22a2.276,2.276,0,1,1,0,4.548Z" transform="translate(3.344 3.647)" fill="#fff"/>
    </g>
  </g>
</svg>
