<svg xmlns="http://www.w3.org/2000/svg" width="71.449" height="91.999" viewBox="0 0 71.449 91.999">
  <g id="phone" transform="translate(-57.184 -0.001)">
    <path id="Subtraction_4" data-name="Subtraction 4" d="M8725.112,12605h-37.9a9.042,9.042,0,0,1-9.031-9.031v-73.936a9.042,9.042,0,0,1,9.031-9.032h37.9a9.042,9.042,0,0,1,9.031,9.032v12.219a22.985,22.985,0,0,0-3.594-.942v-11.276a5.444,5.444,0,0,0-5.437-5.438h-37.9a5.444,5.444,0,0,0-5.437,5.438v73.936a5.444,5.444,0,0,0,5.438,5.438h37.9a5.444,5.444,0,0,0,5.438-5.437V12578.9a23,23,0,0,0,3.594-.941v18.011A9.042,9.042,0,0,1,8725.112,12605Zm-16.422-7.076h-5.058a1.8,1.8,0,0,1,0-3.594h5.058a1.8,1.8,0,0,1,0,3.594Zm15.419-7.014h-35.893a1.8,1.8,0,1,1,0-3.594h35.893a1.8,1.8,0,1,1,0,3.594Zm-6.463-65.4h-1.787a1.8,1.8,0,0,1,0-3.594h1.787a1.8,1.8,0,0,1,0,3.594Zm-9.81,0h-13.16a1.8,1.8,0,0,1,0-3.594h13.16a1.8,1.8,0,0,1,0,3.594Z" transform="translate(-8620.999 -12513)" fill="#003462"/>
    <g id="Group_125166" data-name="Group 125166" transform="translate(82.331 19.954)">
      <path id="Path_129882" data-name="Path 129882" d="M220.291,111.049a23.153,23.153,0,0,0-19.085,36.259l-2.721,6.983,7.337-2.018a23.151,23.151,0,1,0,14.468-41.224Z" transform="translate(-197.14 -111.049)" fill="#4789c8" opacity="0.2"/>
      <path id="Path_129883" data-name="Path 129883" d="M258.6,181.3a5.634,5.634,0,0,0-3.873,1.539L250,180.229a6.552,6.552,0,0,0,0-1.762l4.725-2.611a5.635,5.635,0,1,0-1.7-3.166l-4.486,2.479a6.514,6.514,0,1,0,0,8.358l4.486,2.479a5.654,5.654,0,1,0,5.574-4.7Zm0-11.621a2.06,2.06,0,1,1-2.06,2.06A2.062,2.062,0,0,1,258.6,169.681Zm-15.053,12.587a2.92,2.92,0,1,1,2.92-2.92A2.924,2.924,0,0,1,243.545,182.268Zm15.053,6.747a2.06,2.06,0,1,1,2.06-2.06A2.062,2.062,0,0,1,258.6,189.015Z" transform="translate(-229.863 -156.197)" fill="#4789c8"/>
    </g>
  </g>
</svg>
