<svg xmlns="http://www.w3.org/2000/svg" width="85.429" height="110" viewBox="0 0 85.429 110">
  <g id="phone2" transform="translate(-57.183)">
    <g id="Group_125165" data-name="Group 125165" transform="translate(57.183 0)">
      <path id="Path_129877" data-name="Path 129877" d="M150.242,415.744a2.149,2.149,0,0,0-2.148-2.148H105.179a2.148,2.148,0,0,0,0,4.3h42.914A2.149,2.149,0,0,0,150.242,415.744Z" transform="translate(-93.181 -324.738)" fill="#fff"/>
      <path id="Path_129878" data-name="Path 129878" d="M121.946,36.42a2.149,2.149,0,0,0,2.148-2.148V10.8A10.811,10.811,0,0,0,113.3,0H67.982a10.811,10.811,0,0,0-10.8,10.8V99.2a10.811,10.811,0,0,0,10.8,10.8H113.3a10.811,10.811,0,0,0,10.8-10.8V73.258a2.148,2.148,0,1,0-4.3,0V99.2a6.51,6.51,0,0,1-6.5,6.5H67.982a6.51,6.51,0,0,1-6.5-6.5V10.8a6.51,6.51,0,0,1,6.5-6.5H113.3a6.51,6.51,0,0,1,6.5,6.5V34.272a2.149,2.149,0,0,0,2.148,2.148Z" transform="translate(-57.183 0)" fill="#fff"/>
      <path id="Path_129879" data-name="Path 129879" d="M156.871,53.936a2.148,2.148,0,0,0,0-4.3H141.137a2.148,2.148,0,1,0,0,4.3Z" transform="translate(-121.414 -38.974)" fill="#fff"/>
      <path id="Path_129880" data-name="Path 129880" d="M261.149,53.936a2.148,2.148,0,1,0,0-4.3h-2.139a2.148,2.148,0,1,0,0,4.3Z" transform="translate(-213.962 -38.974)" fill="#fff"/>
      <path id="Path_129881" data-name="Path 129881" d="M190.977,452.617a2.148,2.148,0,0,0,0,4.3h6.048a2.148,2.148,0,1,0,0-4.3Z" transform="translate(-160.546 -355.375)" fill="#fff"/>
    </g>
    <g id="Group_125166" data-name="Group 125166" transform="translate(87.252 23.858)">
      <path id="Path_129882" data-name="Path 129882" d="M224.82,111.049A27.683,27.683,0,0,0,202,154.4l-3.253,8.35,8.773-2.412a27.68,27.68,0,1,0,17.3-49.29Z" transform="translate(-197.14 -111.049)" fill="#335d81"/>
      <path id="Path_129883" data-name="Path 129883" d="M262.818,184.278a6.737,6.737,0,0,0-4.631,1.84L252.537,183a7.835,7.835,0,0,0,0-2.106l5.649-3.122a6.738,6.738,0,1,0-2.034-3.785l-5.363,2.964a7.789,7.789,0,1,0,0,9.993l5.363,2.964a6.76,6.76,0,1,0,6.665-5.625Zm0-13.894a2.463,2.463,0,1,1-2.463,2.463A2.466,2.466,0,0,1,262.818,170.384Zm-18,15.05a3.492,3.492,0,1,1,3.492-3.492A3.5,3.5,0,0,1,244.82,185.434Zm18,8.067a2.463,2.463,0,1,1,2.463-2.463A2.466,2.466,0,0,1,262.818,193.5Z" transform="translate(-228.461 -154.262)" fill="#fff"/>
    </g>
  </g>
</svg>
