<svg xmlns="http://www.w3.org/2000/svg" width="73.072" height="110.48" viewBox="0 0 73.072 110.48">
  <g id="pin-location2" transform="translate(0 0.001)">
    <g id="Group_125356" data-name="Group 125356" transform="translate(0 -0.001)">
      <path id="Path_130007" data-name="Path 130007" d="M36.537,80.571C18.38,80.571,0,75.538,0,65.921,0,59.578,8.425,54.487,22.54,52.3a2.751,2.751,0,1,1,.841,5.437C11.049,59.65,5.5,63.673,5.5,65.921c0,3.729,12.09,9.147,31.034,9.147S67.57,69.651,67.57,65.921c0-1.959-4.479-5.85-16.5-7.954a2.751,2.751,0,1,1,.95-5.419C65.4,54.888,73.072,59.763,73.072,65.921c0,9.617-18.379,14.649-36.535,14.649" transform="translate(0 29.909)" fill="#fff"/>
      <path id="Path_130008" data-name="Path 130008" d="M29.713,69.981c-8.205,0-17.786-2-17.786-7.638,0-1.929,1.2-4.58,6.919-6.263A2.752,2.752,0,0,1,20.4,61.36a11.236,11.236,0,0,0-2.462.994c1.567.917,5.666,2.126,11.775,2.126s10.206-1.209,11.775-2.126a11.258,11.258,0,0,0-2.457-.992,2.752,2.752,0,0,1,1.556-5.279C46.3,57.767,47.5,60.418,47.5,62.344c0,5.638-9.581,7.638-17.786,7.638" transform="translate(6.824 32.023)" fill="#fff"/>
      <path id="Path_130009" data-name="Path 130009" d="M36.389,92.456A3.5,3.5,0,0,1,33.1,90.211c-.778-2-2.58-5.474-6.741-10.689-4.533-5.694-15.025-17.289-16.207-18.591L9.088,59.747a3.3,3.3,0,0,1-.36-.4,36.129,36.129,0,1,1,55.329-.011,3.332,3.332,0,0,1-.369.415l-1.358,1.49C54.458,69.982,49.1,76.135,46.4,79.52c-4.154,5.215-5.949,8.692-6.726,10.691a3.5,3.5,0,0,1-3.286,2.245M14.313,57.325c1.527,1.685,11.805,13.055,16.35,18.767a64,64,0,0,1,5.72,8.3,63.286,63.286,0,0,1,5.715-8.3c2.765-3.471,8.2-9.708,16.143-18.537l.4-.428c.208-.234.4-.442.561-.616l.112-.123c.058-.074.179-.206.283-.316l.226-.252A30.618,30.618,0,0,0,15.478,13.751,30.306,30.306,0,0,0,5.762,36.111a30.623,30.623,0,0,0,7.144,19.65l.223.253c.165.179.28.3.407.453l.542.594c.071.074.151.159.234.263M60.088,55.6c-.058.044-.112.09-.162.134Z" transform="translate(0.148 0.001)" fill="#fff"/>
      <path id="Path_130010" data-name="Path 130010" d="M29.55,46.623A17.34,17.34,0,1,1,46.89,29.282,17.359,17.359,0,0,1,29.55,46.623m0-29.178A11.838,11.838,0,1,0,41.387,29.282,11.851,11.851,0,0,0,29.55,17.446" transform="translate(6.987 6.834)" fill="#fff"/>
    </g>
  </g>
</svg>
