<svg xmlns="http://www.w3.org/2000/svg" width="91.934" height="92" viewBox="0 0 91.934 92">
  <g id="public2" transform="translate(-0.001 0)">
    <path id="Subtraction_1" data-name="Subtraction 1" d="M1641.647,8067.09h0a6.163,6.163,0,0,1-6.19-5.393,6.175,6.175,0,0,1,4.392-6.924V8044.64l-3.774-2.181v2.183a4.545,4.545,0,0,1-4.539,4.541h-2.251a2.745,2.745,0,0,1-2.741-2.743v-.851h4.993a.959.959,0,0,0,.945-.947v-40.25a.957.957,0,0,0-.945-.944h-32.371a1.79,1.79,0,0,1-1.7-1.227l-1.379-4.114c-.508-1.516-1.285-1.516-1.658-1.516h-15.255a.958.958,0,0,0-.946.945v11.169h-5.891a2.712,2.712,0,0,0-1.548.483l-9.46-5.461a1.8,1.8,0,0,1-.9-1.555v-14.765a6.176,6.176,0,0,1-4.392-6.924,6.242,6.242,0,0,1,12.379,0,6.176,6.176,0,0,1-4.393,6.926v13.727l10.35,5.975a2.044,2.044,0,0,1,.261.184v-9.756a4.544,4.544,0,0,1,4.539-4.539h7.73v-5.59a6.176,6.176,0,0,1-4.392-6.924,6.242,6.242,0,0,1,12.379,0,6.176,6.176,0,0,1-4.393,6.926V7993h3.932a5.256,5.256,0,0,1,5.065,3.97l.966,2.887h12.919v-12.447a6.176,6.176,0,0,1-4.392-6.925,6.242,6.242,0,0,1,12.378,0,6.174,6.174,0,0,1-4.392,6.924v12.447h14.567a4.488,4.488,0,0,1,2.727.911l5.586-3.226v-10.133a6.175,6.175,0,0,1-4.392-6.924,6.242,6.242,0,0,1,12.379,0,6.176,6.176,0,0,1-4.393,6.926v11.169a1.8,1.8,0,0,1-.9,1.557l-6.5,3.751a4.151,4.151,0,0,1,.028.506v33.919l6.469,3.733a1.8,1.8,0,0,1,.9,1.557v11.172a6.175,6.175,0,0,1,4.392,6.923,6.162,6.162,0,0,1-6.188,5.394Zm0-8.967a2.642,2.642,0,0,0-2.7,2.677,2.7,2.7,0,1,0,5.391,0A2.638,2.638,0,0,0,1641.647,8058.123Zm0-79.44a2.695,2.695,0,1,0,0,5.389,2.695,2.695,0,0,0,0-5.389Zm-26.475,0a2.695,2.695,0,1,0,0,5.389,2.695,2.695,0,0,0,0-5.389Zm-26.473,0a2.695,2.695,0,1,0,0,5.389,2.695,2.695,0,0,0,0-5.389Zm-26.473,0a2.695,2.695,0,1,0,0,5.389,2.695,2.695,0,0,0,0-5.389Zm52.947,88.407h0a6.162,6.162,0,0,1-6.189-5.392,6.176,6.176,0,0,1,4.393-6.926v-5.59h3.594v5.59a6.174,6.174,0,0,1,4.392,6.923,6.163,6.163,0,0,1-6.19,5.395Zm0-8.967a2.638,2.638,0,0,0-2.695,2.677,2.7,2.7,0,1,0,5.391,0A2.641,2.641,0,0,0,1615.172,8058.123Zm-26.473,8.967h0a6.163,6.163,0,0,1-6.189-5.392,6.175,6.175,0,0,1,4.391-6.925v-5.59h3.594v5.59a6.174,6.174,0,0,1,4.394,6.923,6.163,6.163,0,0,1-6.19,5.395Zm0-8.967A2.638,2.638,0,0,0,1586,8060.8a2.7,2.7,0,1,0,5.391,0A2.642,2.642,0,0,0,1588.7,8058.123Zm-26.473,8.967h0a6.162,6.162,0,0,1-6.189-5.392,6.175,6.175,0,0,1,4.391-6.925v-14.765a1.8,1.8,0,0,1,.9-1.557l8.266-4.772v4.15l-5.572,3.217v13.727a6.175,6.175,0,0,1,4.392,6.923,6.162,6.162,0,0,1-6.188,5.394Zm0-8.985a2.7,2.7,0,0,0,0,5.391,2.7,2.7,0,0,0,0-5.391Z" transform="translate(-1555.968 -7975.089)" fill="#003462"/>
    <path id="Path_129875" data-name="Path 129875" d="M130.21,187.082H78.743A2.751,2.751,0,0,0,76,189.824v34.991a2.75,2.75,0,0,0,2.742,2.742h56.952a2.75,2.75,0,0,1-2.742-2.742V189.824A2.752,2.752,0,0,0,130.21,187.082Z" transform="translate(-62.376 -153.466)" fill="#4789c8" fill-rule="evenodd" opacity="0.2"/>
    <g id="Group_125355" data-name="Group 125355" transform="translate(-13.649 -13.965)">
      <g id="Share" transform="translate(43.402 54.696)">
        <path id="Path_129997" data-name="Path 129997" d="M253.016,231.285a5.71,5.71,0,0,0-3.975,1.608l-5.623-2.812a5.555,5.555,0,0,0,0-1.414l5.623-2.812a5.746,5.746,0,1,0-1.712-3.416l-5.623,2.812a5.732,5.732,0,1,0,0,8.247l5.623,2.812a5.731,5.731,0,1,0,5.687-5.025Zm0-11.463a1.911,1.911,0,1,1-1.911,1.911A1.913,1.913,0,0,1,253.016,219.821Zm-15.285,11.463a1.911,1.911,0,1,1,1.911-1.911A1.913,1.913,0,0,1,237.732,231.285Zm15.285,7.642a1.911,1.911,0,1,1,1.911-1.911A1.913,1.913,0,0,1,253.016,238.927Z" transform="translate(-232 -216)" fill="#4789c8"/>
      </g>
    </g>
  </g>
</svg>
