<svg xmlns="http://www.w3.org/2000/svg" width="88.406" height="92" viewBox="0 0 88.406 92">
  <g id="rating_1_2" data-name="rating (1)2" transform="translate(-10)">
    <g id="Group_125268" data-name="Group 125268" transform="translate(24.354)">
      <path id="Path_129893" data-name="Path 129893" d="M147.786,307.439a1.8,1.8,0,0,0-1.8,1.8v20.37H93.479v-20.37a1.8,1.8,0,0,0-3.594,0v28.926A6.041,6.041,0,0,0,95.92,344.2h47.628a6.041,6.041,0,0,0,6.035-6.035V309.236A1.8,1.8,0,0,0,147.786,307.439ZM143.548,340.6H95.92a2.444,2.444,0,0,1-2.441-2.441V333.2h52.51v4.962A2.444,2.444,0,0,1,143.548,340.6Z" transform="translate(-89.885 -252.196)" fill="#fff"/>
      <path id="Path_129894" data-name="Path 129894" d="M143.548,0H95.92a6.041,6.041,0,0,0-6.035,6.035V21.57a1.8,1.8,0,1,0,3.594,0V6.035A2.444,2.444,0,0,1,95.92,3.594h17.263V6.62a6.552,6.552,0,1,0,13.1,0V3.594h17.263a2.444,2.444,0,0,1,2.441,2.441V21.57a1.8,1.8,0,1,0,3.594,0V6.035A6.041,6.041,0,0,0,143.548,0ZM122.692,6.62a2.958,2.958,0,1,1-5.916,0V3.594h5.916Z" transform="translate(-89.885)" fill="#fff"/>
    </g>
    <g id="Group_125269" data-name="Group 125269" transform="translate(10 19.771)">
      <path id="Path_129895" data-name="Path 129895" d="M10,115.767v27.6a5.745,5.745,0,0,0,5.73,5.73H44.411l10.951,10.951L66.313,149.1H92.676a5.745,5.745,0,0,0,5.73-5.73v-27.6a5.75,5.75,0,0,0-5.73-5.735H15.73A5.75,5.75,0,0,0,10,115.767Z" transform="translate(-10 -110.032)" fill="#335d81" fill-rule="evenodd"/>
    </g>
    <g id="Group_125270" data-name="Group 125270" transform="translate(42.38 26.99)">
      <path id="Path_129896" data-name="Path 129896" d="M195.828,172.873a1.8,1.8,0,0,1-1.8-1.757l-.131-5.928-3.38-4.874a1.8,1.8,0,0,1,.884-2.72l5.6-1.956,3.584-4.723a1.8,1.8,0,0,1,1.431-.711h0a1.8,1.8,0,0,1,1.431.71l3.59,4.724,5.6,1.956a1.8,1.8,0,0,1,.884,2.72l-3.38,4.874-.131,5.928A1.8,1.8,0,0,1,207.7,172.8l-5.681-1.709-5.676,1.708A1.787,1.787,0,0,1,195.828,172.873Zm6.193-5.458a1.8,1.8,0,0,1,.518.076l3.937,1.184.091-4.107a1.8,1.8,0,0,1,.32-.984l2.341-3.376-3.882-1.355a1.8,1.8,0,0,1-.838-.609l-2.485-3.27-2.481,3.269a1.8,1.8,0,0,1-.839.61l-3.882,1.355,2.341,3.376a1.8,1.8,0,0,1,.32.984l.091,4.107,3.931-1.183A1.806,1.806,0,0,1,202.021,167.415Zm-3.912-10.259h0Z" transform="translate(-190.201 -150.205)" fill="#fff"/>
    </g>
    <g id="Group_125271" data-name="Group 125271" transform="translate(15.237 26.99)">
      <path id="Path_129897" data-name="Path 129897" d="M57.164,172.873a1.8,1.8,0,0,1-.517-.076l-5.681-1.709L45.29,172.8a1.8,1.8,0,0,1-2.314-1.681l-.131-5.928-3.38-4.874a1.8,1.8,0,0,1,.884-2.72l5.6-1.956,3.584-4.723a1.8,1.8,0,0,1,1.431-.711h0a1.8,1.8,0,0,1,1.431.71l3.589,4.723,5.6,1.956a1.8,1.8,0,0,1,.884,2.72l-3.38,4.874-.131,5.928a1.8,1.8,0,0,1-1.8,1.757Zm-6.2-5.458a1.8,1.8,0,0,1,.517.076l3.937,1.184.09-4.107a1.8,1.8,0,0,1,.32-.984l2.341-3.376-3.882-1.355a1.8,1.8,0,0,1-.838-.609l-2.485-3.27-2.481,3.269a1.8,1.8,0,0,1-.839.61l-3.882,1.355,2.341,3.376a1.8,1.8,0,0,1,.32.984l.091,4.107,3.931-1.183A1.806,1.806,0,0,1,50.966,167.415Zm-3.912-10.259h0Z" transform="translate(-39.145 -150.205)" fill="#fff"/>
    </g>
    <g id="Group_125272" data-name="Group 125272" transform="translate(69.523 26.99)">
      <path id="Path_129898" data-name="Path 129898" d="M346.883,172.873a1.8,1.8,0,0,1-1.8-1.757l-.131-5.928-3.38-4.874a1.8,1.8,0,0,1,.884-2.72l5.6-1.956,3.589-4.723a1.8,1.8,0,0,1,1.431-.71h0a1.8,1.8,0,0,1,1.431.711l3.584,4.723,5.6,1.956a1.8,1.8,0,0,1,.884,2.72l-3.38,4.874-.131,5.928a1.8,1.8,0,0,1-2.314,1.681l-5.676-1.708L347.4,172.8a1.788,1.788,0,0,1-.517.076Zm-1.007-12.665,2.341,3.376a1.8,1.8,0,0,1,.32.984l.09,4.107,3.937-1.184a1.8,1.8,0,0,1,1.035,0l3.931,1.183.091-4.107a1.8,1.8,0,0,1,.32-.984l2.341-3.376-3.882-1.355a1.8,1.8,0,0,1-.839-.61l-2.481-3.269-2.485,3.27a1.8,1.8,0,0,1-.838.609Z" transform="translate(-341.256 -150.205)" fill="#fff"/>
    </g>
  </g>
</svg>
