<svg id="water2" xmlns="http://www.w3.org/2000/svg" width="90.519" height="105.329" viewBox="0 0 90.519 105.329">
  <path id="Path_130045" data-name="Path 130045" d="M11.11,93.57a9.136,9.136,0,0,1-9.125-9.125c0-2.573,1.286-5.658,3.929-9.434a47.582,47.582,0,0,1,3.755-4.684l1.444-1.541,1.448,1.552a47.273,47.273,0,0,1,3.745,4.676c2.643,3.775,3.929,6.859,3.929,9.432A9.135,9.135,0,0,1,11.11,93.57m-.933-17.678c-1.577,2.069-4.221,5.93-4.221,8.556a5.156,5.156,0,1,0,10.311,0c0-2.585-2.649-6.47-4.226-8.554l-.931-1.23Z" transform="translate(0.339 11.76)" fill="#fff"/>
  <path id="Path_130046" data-name="Path 130046" d="M0,74.28V52.734A18.509,18.509,0,0,1,18.46,34.275H29.595l.35-.413a18.664,18.664,0,0,1,11.2-6.333l.982-.162V19.934l-.841-.247a10.121,10.121,0,0,1-4.026-2.3l-.492-.46-.643.194c-.615.184-1.256.365-1.93.543A71.979,71.979,0,0,1,19.849,20.1,10.048,10.048,0,0,1,19.927,0,72.031,72.031,0,0,1,34.192,2.429c.686.181,1.33.363,1.945.546l.644.193.491-.459a10.016,10.016,0,0,1,13.692,0l.492.46.644-.194q.922-.276,1.932-.542A72.124,72.124,0,0,1,68.382,0a10.048,10.048,0,0,1-.08,20.1A72.022,72.022,0,0,1,54.04,17.67c-.685-.181-1.326-.363-1.943-.548l-.643-.192-.491.459a10.119,10.119,0,0,1-4.025,2.3l-.841.247v7.432l.982.16a18.657,18.657,0,0,1,11.2,6.333l.35.413H72.019l.178-.954a7.406,7.406,0,0,1,7.262-6.034h7.093V20.664h3.967V72.157H86.551V65.532H79.458a7.422,7.422,0,0,1-7.365-6.857l-.08-1.087h-13.5l-.35.407a18.556,18.556,0,0,1-28.1,0l-.35-.406h-6.4V74.28ZM18.458,38.241A14.532,14.532,0,0,0,3.965,52.733V70.307H19.348V53.621H31.706l.595.819a14.6,14.6,0,0,0,23.631,0l.593-.817H72.07V38.241H56.615l-.593-.834a14.591,14.591,0,0,0-23.814,0l-.593.833Zm61-6.986a3.425,3.425,0,0,0-3.417,3.417V58.148a3.428,3.428,0,0,0,3.416,3.418h7.1V31.255ZM19.927,3.97a6.08,6.08,0,1,0,0,12.159A67.209,67.209,0,0,0,31.738,14.2q.933-.228,1.768-.453l1.1-.3-.263-1.107a10.056,10.056,0,0,1,0-4.6L34.6,6.644l-1.1-.3c-.56-.151-1.151-.3-1.783-.457A67.089,67.089,0,0,0,20.013,3.973Zm24.191,0a6.08,6.08,0,1,0,6.081,6.08,6.088,6.088,0,0,0-6.081-6.08m24.1.006A67.317,67.317,0,0,0,56.494,5.9c-.619.15-1.214.3-1.769.452l-1.1.3.262,1.105a10.061,10.061,0,0,1,0,4.6l-.262,1.105,1.1.3q.833.225,1.786.456a67.205,67.205,0,0,0,11.706,1.92h.007A6.078,6.078,0,1,0,68.3,3.97H68.26Z" fill="#fff"/>
</svg>
