<svg width="48" height="48" viewBox="0 0 48 48" fill="none" xmlns="http://www.w3.org/2000/svg">
<path d="M0 24C0 10.7452 10.7452 0 24 0C37.2548 0 48 10.7452 48 24C48 37.2548 37.2548 48 24 48C10.7452 48 0 37.2548 0 24Z" fill="#F3FCF6"/>
<path fill-rule="evenodd" clip-rule="evenodd" d="M19.558 20.1633C19.4176 19.8265 19.083 19.6121 18.7183 19.6254C18.3537 19.6387 18.0356 19.877 17.9202 20.2231L15.5868 27.2231C15.434 27.6816 15.6818 28.1771 16.1402 28.3299C16.5987 28.4828 17.0942 28.235 17.247 27.7765L17.6309 26.6248H20.3544L20.8593 27.8364C21.0451 28.2825 21.5574 28.4934 22.0035 28.3075C22.4496 28.1217 22.6605 27.6094 22.4746 27.1633L19.558 20.1633ZM19.6253 24.8748H18.2143L18.8414 22.9935L19.6253 24.8748Z" fill="#1B8354"/>
<path fill-rule="evenodd" clip-rule="evenodd" d="M25.3534 19.6245L25.4002 19.6247H26.9169C28.3666 19.6247 29.5419 20.8 29.5419 22.2497C29.5419 23.6995 28.3666 24.8747 26.9169 24.8747H25.4586V27.4997C25.4586 27.983 25.0668 28.3747 24.5836 28.3747C24.1003 28.3747 23.7086 27.983 23.7086 27.4997V21.3164L23.7083 21.2696C23.7073 21.1131 23.7057 20.8608 23.7799 20.6324C23.9242 20.1884 24.2723 19.8404 24.7162 19.6961C24.9447 19.6219 25.1969 19.6235 25.3534 19.6245ZM25.4586 23.1247H26.9169C27.4001 23.1247 27.7919 22.733 27.7919 22.2497C27.7919 21.7665 27.4001 21.3747 26.9169 21.3747H25.4586V23.1247Z" fill="#1B8354"/>
<path d="M32.4587 20.4998C32.4587 20.0166 32.0669 19.6248 31.5837 19.6248C31.1004 19.6248 30.7087 20.0166 30.7087 20.4998V27.4998C30.7087 27.9831 31.1004 28.3748 31.5837 28.3748C32.0669 28.3748 32.4587 27.9831 32.4587 27.4998V20.4998Z" fill="#1B8354"/>
<path fill-rule="evenodd" clip-rule="evenodd" d="M24.067 12.0415H23.9336C21.3778 12.0415 19.3703 12.0415 17.803 12.2522C16.1969 12.4681 14.9226 12.9197 13.9214 13.9209C12.9202 14.9221 12.4686 16.1964 12.2527 17.8025C12.042 19.3699 12.042 21.3773 12.042 23.9331V24.0665C12.042 26.6224 12.042 28.6298 12.2527 30.1971C12.4686 31.8032 12.9202 33.0775 13.9214 34.0788C14.9226 35.08 16.1969 35.5315 17.803 35.7475C19.3703 35.9582 21.3778 35.9582 23.9336 35.9582H24.067C26.6228 35.9582 28.6303 35.9582 30.1976 35.7475C31.8037 35.5315 33.078 35.08 34.0793 34.0788C35.0805 33.0775 35.532 31.8032 35.748 30.1971C35.9587 28.6298 35.9587 26.6224 35.9587 24.0666V23.9331C35.9587 21.3773 35.9587 19.3698 35.748 17.8025C35.532 16.1964 35.0805 14.9221 34.0793 13.9209C33.078 12.9197 31.8037 12.4681 30.1976 12.2522C28.6303 12.0415 26.6229 12.0415 24.067 12.0415ZM15.1588 15.1583C15.7807 14.5365 16.6242 14.1764 18.0362 13.9866C19.4734 13.7934 21.3632 13.7915 24.0003 13.7915C26.6374 13.7915 28.5272 13.7934 29.9644 13.9866C31.3765 14.1764 32.2199 14.5365 32.8418 15.1583C33.4637 15.7802 33.8237 16.6237 34.0136 18.0357C34.2068 19.4729 34.2087 21.3627 34.2087 23.9998C34.2087 26.6369 34.2068 28.5267 34.0136 29.964C33.8237 31.376 33.4637 32.2194 32.8418 32.8413C32.2199 33.4632 31.3765 33.8232 29.9644 34.0131C28.5272 34.2063 26.6374 34.2082 24.0003 34.2082C21.3632 34.2082 19.4734 34.2063 18.0362 34.0131C16.6242 33.8232 15.7807 33.4632 15.1588 32.8413C14.5369 32.2194 14.1769 31.376 13.9871 29.964C13.7939 28.5267 13.792 26.6369 13.792 23.9998C13.792 21.3627 13.7939 19.4729 13.9871 18.0357C14.1769 16.6237 14.5369 15.7802 15.1588 15.1583Z" fill="#1B8354"/>
</svg>
