<svg xmlns="http://www.w3.org/2000/svg" width="58" height="58" viewBox="0 0 58 58">
  <g id="Api" transform="translate(-1119 -6634)">
    <circle id="Ellipse_181" data-name="Ellipse 181" cx="29" cy="29" r="29" transform="translate(1119 6634)" fill="#63be6a" opacity="0.25"/>
    <path id="Path_125050" data-name="Path 125050" d="M20.219,2A18.221,18.221,0,1,1,2,20.221,18.222,18.222,0,0,1,20.219,2Zm0,2.733a15.493,15.493,0,1,0,10.8,4.621,15.489,15.489,0,0,0-10.8-4.621Zm-.007,12.753a1.366,1.366,0,0,1,1.355,1.181l.013.186.007,10.024a1.366,1.366,0,0,1-2.722.186l-.011-.184-.007-10.024a1.367,1.367,0,0,1,1.366-1.366Zm.009-6.371a1.82,1.82,0,1,1-1.25.553,1.82,1.82,0,0,1,1.25-.553Z" transform="translate(1127.778 6642.779)" fill="#008941"/>
  </g>
</svg>
