<svg id="app-gallery" xmlns="http://www.w3.org/2000/svg" width="209.081" height="70.779" viewBox="0 0 209.081 70.779">
  <g id="available-on-the-app-store-1">
    <path id="Path_5691" data-name="Path 5691" d="M8.493,0H200.587a8.5,8.5,0,0,1,8.493,8.493V62.285a8.5,8.5,0,0,1-8.493,8.493H8.493A8.5,8.5,0,0,1,0,62.285V8.493A8.5,8.5,0,0,1,8.493,0Z" fill="#fff"/>
  </g>
  <g id="huawei-logo" transform="translate(28.294 18.708)">
    <path id="Path_5702" data-name="Path 5702" d="M246.631,252.4l-2.425-5.633-2.412,5.633-.168.383h5.161Zm-.8-9.788,7.338,16.7H249.59l-1.511-3.494h-7.721l-.109.24-1.419,3.254h-3.482l7.41-16.8h2.976Zm23.807,11.472-3.818-11.565h-2.787l-3.818,11.565-3.7-11.565h-3.625l5.86,16.8h2.816l3.818-11.034,3.818,11.034h2.846l5.848-16.8h-3.541Zm13.375-1.983h6.21v-3.069h-6.21v-3.452h9.005v-3.048H279.654v16.785h12.693v-3.061h-9.334v-4.168Zm13.388-9.569v16.773h3.368V242.524Zm-85.4,6.757h-7.7v-6.77H199.9v16.81h3.41V252.5h7.7v6.833h3.41v-16.81h-3.41V249.3Zm19.21-6.774h3.406v9.485c0,4.816-2.652,7.578-7.275,7.578s-7.2-2.716-7.2-7.443v-9.607h3.41v9.5c0,2.808,1.381,4.311,3.844,4.311s3.818-1.465,3.818-4.21v-9.607Z" transform="translate(-147.276 -231.502)" fill="#24272a"/>
    <path id="Path_5703" data-name="Path 5703" d="M100.115,242.393a.164.164,0,0,0,.181,0c1.945-.973,10.049-5.09,13.4-8.369a6.534,6.534,0,0,0,2.231-4.454c.24-3.789-3.591-7.338-3.591-7.338a101.222,101.222,0,0,0-12.285,19.93.227.227,0,0,0,.059.215m18.625-8.841s-11.552,6.21-17.53,10.243a.177.177,0,0,0-.072.194s.059.109.143.109c2.139,0,10.23,0,10.445-.025a7.824,7.824,0,0,0,2.341-.539,7.932,7.932,0,0,0,4.37-4.21,8.214,8.214,0,0,0,.3-5.789m-17.223,11.573a.232.232,0,0,0-.156.109.194.194,0,0,0,.046.181c1.3.935,5.246,3.7,7.157,4.21,0,0,3.52,1.2,6.568-4.046l-13.6-.467ZM98.292,241.3a.156.156,0,0,0,.194-.072c1.3-1.873,7.191-10.618,8.378-15.926a9.073,9.073,0,0,0,.025-4.324,6.315,6.315,0,0,0-4.492-4.21s-1.031-.265-2.139-.421c0,0-4.033,5.187-2.067,24.784a.147.147,0,0,0,.1.156m-4.5-24.927c-.589.046-2.185.421-2.185.421a6.315,6.315,0,0,0-4.454,4.21,8.389,8.389,0,0,0,0,4.324c1.2,5.33,7.106,14.108,8.382,15.947.084.1.156.059.156.059a.181.181,0,0,0,.131-.168c1.97-19.6-2.042-24.784-2.042-24.784m-.884,27.617c.072-.109-.046-.2-.046-.2-5.966-4.033-17.543-10.23-17.543-10.23a8.045,8.045,0,0,0,7.254,10.525c.2.038,8.079,0,10.192,0a.223.223,0,0,0,.143-.084m-.2,1.212a.185.185,0,0,0-.181-.122l-13.594.467c1.478,2.631,3.962,4.669,6.542,4.046,1.789-.446,5.822-3.267,7.157-4.21.109-.084.072-.156.072-.168m1.263-2.808a.143.143,0,0,0,.038-.168,100.493,100.493,0,0,0-12.3-20s-3.865,3.675-3.591,7.359a6.483,6.483,0,0,0,2.244,4.429c3.368,3.288,11.54,7.443,13.434,8.395a.168.168,0,0,0,.181-.038" transform="translate(-74.902 -216.35)" fill="#ce0e2d"/>
  </g>
</svg>
