<svg id="app-store" xmlns="http://www.w3.org/2000/svg" width="209.081" height="70.779" viewBox="0 0 209.081 70.779">
  <path id="Path_5691" data-name="Path 5691" d="M8.493,0H200.587a8.5,8.5,0,0,1,8.493,8.493V62.285a8.5,8.5,0,0,1-8.493,8.493H8.493A8.5,8.5,0,0,1,0,62.285V8.493A8.5,8.5,0,0,1,8.493,0Z" fill="#fff"/>
  <path id="Path_5692" data-name="Path 5692" d="M158.2,109.319a9.128,9.128,0,0,1,4.332-7.644,9.389,9.389,0,0,0-7.347-3.978c-3.086-.326-6.087,1.854-7.658,1.854-1.6,0-4.034-1.812-6.639-1.769a9.762,9.762,0,0,0-8.225,5.025c-3.553,6.158-.906,15.217,2.506,20.2,1.713,2.435,3.695,5.167,6.313,5.068,2.548-.1,3.511-1.628,6.582-1.628s3.949,1.628,6.611,1.571c2.746-.042,4.459-2.449,6.115-4.912a19.968,19.968,0,0,0,2.789-5.691,8.829,8.829,0,0,1-5.379-8.1m-5.025-14.892A8.981,8.981,0,0,0,155.229,88a9.106,9.106,0,0,0-5.9,3.058,8.612,8.612,0,0,0-2.109,6.186,7.544,7.544,0,0,0,5.96-2.817m42,25.721h-3.567L189.656,114h-6.795l-1.854,6.144h-3.468l6.724-20.908h4.162Zm-6.1-8.72-1.769-5.45c-.184-.566-.538-1.869-1.048-3.935h-.071c-.212.892-.538,2.208-.991,3.935l-1.741,5.45Zm23.385,1.005a8.491,8.491,0,0,1-2.1,6.073,6.1,6.1,0,0,1-4.643,1.982,4.65,4.65,0,0,1-4.3-2.138v7.913h-3.355V110.027c0-1.614-.042-3.256-.127-4.955h2.944l.184,2.392h.057a5.945,5.945,0,0,1,9.527-.595,8.2,8.2,0,0,1,1.812,5.563Zm-3.412.113a6.154,6.154,0,0,0-.991-3.624,3.431,3.431,0,0,0-2.916-1.486,3.558,3.558,0,0,0-2.251.821,3.791,3.791,0,0,0-1.316,2.152,4.584,4.584,0,0,0-.156,1.019v2.52a4.053,4.053,0,0,0,1.005,2.775,3.345,3.345,0,0,0,2.619,1.132,3.456,3.456,0,0,0,2.944-1.458A6.4,6.4,0,0,0,209.049,112.546Zm20.738-.113a8.491,8.491,0,0,1-2.1,6.073,6.1,6.1,0,0,1-4.643,1.982,4.65,4.65,0,0,1-4.3-2.138v7.913h-3.355V110.027c0-1.614-.042-3.256-.127-4.955h2.944l.184,2.392h.057a5.945,5.945,0,0,1,9.527-.595,8.2,8.2,0,0,1,1.812,5.563Zm-3.411.113a6.154,6.154,0,0,0-.991-3.624,3.431,3.431,0,0,0-2.916-1.486,3.557,3.557,0,0,0-2.251.821,3.867,3.867,0,0,0-1.317,2.152,4.582,4.582,0,0,0-.156,1.019v2.52a4.053,4.053,0,0,0,1.005,2.775,3.345,3.345,0,0,0,2.619,1.132,3.438,3.438,0,0,0,2.944-1.458A6.3,6.3,0,0,0,226.376,112.546Zm22.8,1.741a5.6,5.6,0,0,1-1.854,4.346,8.231,8.231,0,0,1-5.691,1.826,9.958,9.958,0,0,1-5.408-1.3l.779-2.789a9.4,9.4,0,0,0,4.841,1.3,4.559,4.559,0,0,0,2.944-.849,2.774,2.774,0,0,0,1.062-2.279,2.948,2.948,0,0,0-.864-2.138,8.083,8.083,0,0,0-2.888-1.614c-3.695-1.373-5.521-3.369-5.521-5.988a5.311,5.311,0,0,1,1.939-4.218,7.693,7.693,0,0,1,5.139-1.642,10.1,10.1,0,0,1,4.742.991l-.849,2.718a8.355,8.355,0,0,0-4.02-.963,4.171,4.171,0,0,0-2.775.863,2.512,2.512,0,0,0-.835,1.9,2.542,2.542,0,0,0,.963,2.038,10.8,10.8,0,0,0,3.044,1.614,10.2,10.2,0,0,1,3.964,2.548,5.3,5.3,0,0,1,1.288,3.638m11.1-6.7h-3.695v7.319c0,1.854.651,2.789,1.953,2.789a6.214,6.214,0,0,0,1.486-.156l.1,2.548a7.769,7.769,0,0,1-2.6.368,4.009,4.009,0,0,1-3.1-1.217,5.909,5.909,0,0,1-1.118-4.063v-7.6h-2.194v-2.506H253.3v-2.76l3.284-.991v3.751h3.695Zm16.619,4.9a8.281,8.281,0,0,1-1.982,5.7,7.1,7.1,0,0,1-5.521,2.293,6.793,6.793,0,0,1-5.294-2.194,7.969,7.969,0,0,1-1.968-5.549,8.222,8.222,0,0,1,2.024-5.733,7.065,7.065,0,0,1,5.478-2.237,6.889,6.889,0,0,1,5.337,2.208,7.869,7.869,0,0,1,1.925,5.507Zm-3.468.071a6.756,6.756,0,0,0-.892-3.553,3.475,3.475,0,0,0-6.087,0,7.665,7.665,0,0,0,0,7.177,3.438,3.438,0,0,0,6.059-.028A6.859,6.859,0,0,0,273.43,112.561Zm14.368-4.544a6.208,6.208,0,0,0-1.062-.085A3.161,3.161,0,0,0,284,109.262a5.05,5.05,0,0,0-.835,2.973v7.913h-3.355V109.814c0-1.741-.028-3.327-.1-4.742h2.916l.127,2.888h.1a5.138,5.138,0,0,1,1.67-2.392,4.075,4.075,0,0,1,2.421-.807,7.051,7.051,0,0,1,.835.057Zm14.977,3.879a7.658,7.658,0,0,1-.127,1.515H292.6a4.37,4.37,0,0,0,1.458,3.412,5.019,5.019,0,0,0,3.284,1.048,11.277,11.277,0,0,0,4.063-.708l.524,2.322a12.579,12.579,0,0,1-5.054.934,7.322,7.322,0,0,1-5.507-2.067,7.63,7.63,0,0,1-2-5.535,8.649,8.649,0,0,1,1.868-5.676,6.414,6.414,0,0,1,5.266-2.421,5.594,5.594,0,0,1,4.926,2.421,8.188,8.188,0,0,1,1.345,4.756Zm-3.2-.864a4.513,4.513,0,0,0-.651-2.576,2.923,2.923,0,0,0-2.661-1.4,3.182,3.182,0,0,0-2.661,1.359,5.034,5.034,0,0,0-.991,2.6Z" transform="translate(-112.436 -75.543)" fill="#4b545d"/>
</svg>
