<svg width="48" height="48" viewBox="0 0 48 48" fill="none" xmlns="http://www.w3.org/2000/svg">
<path d="M21 10.5C20.1716 10.5 19.5 11.1716 19.5 12C19.5 12.8284 20.1716 13.5 21 13.5L27 13.5C27.8284 13.5 28.5 12.8284 28.5 12C28.5 11.1716 27.8284 10.5 27 10.5L21 10.5Z" fill="#1B8354"/>
<path d="M21 17.5C20.1716 17.5 19.5 18.1716 19.5 19C19.5 19.8284 20.1716 20.5 21 20.5L27 20.5C27.8284 20.5 28.5 19.8284 28.5 19C28.5 18.1716 27.8284 17.5 27 17.5L21 17.5Z" fill="#1B8354"/>
<path d="M21 24.5C20.1716 24.5 19.5 25.1716 19.5 26C19.5 26.8284 20.1716 27.5 21 27.5L27 27.5C27.8284 27.5 28.5 26.8284 28.5 26C28.5 25.1716 27.8284 24.5 27 24.5L21 24.5Z" fill="#1B8354"/>
<path fill-rule="evenodd" clip-rule="evenodd" d="M6 42.5C5.17157 42.5 4.5 43.1716 4.5 44C4.5 44.8284 5.17157 45.5 6 45.5L42 45.5C42.8284 45.5 43.5 44.8284 43.5 44C43.5 43.1716 42.8284 42.5 42 42.5H39.5L39.5 12C39.5 10.3129 39.4139 8.85647 39.1458 7.6359C38.8739 6.39835 38.3949 5.30953 37.5427 4.45734C36.6905 3.60515 35.6016 3.12605 34.3641 2.85419C33.1435 2.58605 31.6871 2.5 30 2.5L18 2.5C16.3129 2.5 14.8565 2.58605 13.6359 2.85419C12.3984 3.12605 11.3095 3.60515 10.4573 4.45734C9.60515 5.30953 9.12605 6.39835 8.85419 7.6359C8.58605 8.85647 8.5 10.3129 8.5 12L8.5 42.5H6ZM11.5 42.5L11.5 12C11.5 10.3778 11.5866 9.17953 11.7843 8.27959C11.9783 7.39665 12.2582 6.89914 12.5787 6.57866C12.8991 6.25818 13.3966 5.97828 14.2796 5.78431C15.1795 5.58662 16.3778 5.5 18 5.5L30 5.5C31.6222 5.5 32.8205 5.58662 33.7204 5.78431C34.6034 5.97828 35.1009 6.25818 35.4213 6.57866C35.7418 6.89914 36.0217 7.39665 36.2157 8.2796C36.4134 9.17953 36.5 10.3778 36.5 12L36.5 42.5H31.5L31.5 38C31.5 37.1402 31.4571 36.3475 31.3054 35.657C31.15 34.9496 30.8607 34.2574 30.3017 33.6983C29.7426 33.1393 29.0504 32.85 28.343 32.6946C27.6525 32.5429 26.8598 32.5 26 32.5H22C21.1402 32.5 20.3475 32.5429 19.657 32.6946C18.9496 32.85 18.2574 33.1393 17.6983 33.6983C17.1393 34.2574 16.85 34.9496 16.6946 35.657C16.5429 36.3475 16.5 37.1402 16.5 38L16.5 42.5H11.5ZM19.5 42.5H28.5L28.5 38C28.5 37.2051 28.4566 36.6705 28.3753 36.3007C28.2978 35.9479 28.2076 35.847 28.1803 35.8197C28.153 35.7924 28.0521 35.7022 27.6993 35.6247C27.3295 35.5434 26.7949 35.5 26 35.5H22C21.2051 35.5 20.6705 35.5434 20.3007 35.6247C19.9479 35.7022 19.847 35.7924 19.8197 35.8197C19.7924 35.847 19.7022 35.9479 19.6247 36.3007C19.5434 36.6705 19.5 37.2051 19.5 38L19.5 42.5Z" fill="#1B8354"/>
</svg>
