<svg xmlns="http://www.w3.org/2000/svg" width="20.5" height="22.5" viewBox="0 0 20.5 22.5">
  <g id="calendarAdd2" transform="translate(-2.25 -1.25)">
    <path id="Path_126395" data-name="Path 126395" d="M3,13.01V8.5c0-3,1.5-5,5-5h8c3.5,0,5,2,5,5v7.86A4,4,0,0,0,14,19a3.921,3.921,0,0,0,.58,2.06,3.593,3.593,0,0,0,.79.94H8c-3.5,0-5-2-5-5" fill="none" stroke="#63be6a" stroke-linecap="round" stroke-linejoin="round" stroke-miterlimit="10" stroke-width="1.5"/>
    <path id="Path_126396" data-name="Path 126396" d="M8,2V5" fill="none" stroke="#63be6a" stroke-linecap="round" stroke-linejoin="round" stroke-miterlimit="10" stroke-width="1.5"/>
    <path id="Path_126397" data-name="Path 126397" d="M16,2V5" fill="none" stroke="#63be6a" stroke-linecap="round" stroke-linejoin="round" stroke-miterlimit="10" stroke-width="1.5"/>
    <path id="Path_126398" data-name="Path 126398" d="M3.5,9.09h17" fill="none" stroke="#63be6a" stroke-linecap="round" stroke-linejoin="round" stroke-miterlimit="10" stroke-width="1.5"/>
    <path id="Path_126399" data-name="Path 126399" d="M18,23a4,4,0,1,0-4-4A4,4,0,0,0,18,23Z" fill="none" stroke="#63be6a" stroke-linecap="round" stroke-linejoin="round" stroke-miterlimit="10" stroke-width="1.5"/>
    <path id="Path_126400" data-name="Path 126400" d="M19.49,19.05H16.51" fill="none" stroke="#63be6a" stroke-linecap="round" stroke-linejoin="round" stroke-miterlimit="10" stroke-width="1.5"/>
    <path id="Path_126401" data-name="Path 126401" d="M18,17.59v2.99" fill="none" stroke="#63be6a" stroke-linecap="round" stroke-linejoin="round" stroke-miterlimit="10" stroke-width="1.5"/>
    <path id="Path_126402" data-name="Path 126402" d="M11.995,13.7H12" fill="none" stroke="#63be6a" stroke-linecap="round" stroke-linejoin="round" stroke-width="2"/>
    <path id="Path_126403" data-name="Path 126403" d="M8.3,13.7H8.3" fill="none" stroke="#63be6a" stroke-linecap="round" stroke-linejoin="round" stroke-width="2"/>
    <path id="Path_126404" data-name="Path 126404" d="M8.3,16.7H8.3" fill="none" stroke="#63be6a" stroke-linecap="round" stroke-linejoin="round" stroke-width="2"/>
  </g>
</svg>
