<svg width="24" height="24" viewBox="0 0 24 24" fill="none" xmlns="http://www.w3.org/2000/svg">
<path fill-rule="evenodd" clip-rule="evenodd" d="M5.31629 1.28632C5.88297 1.40345 6.33427 1.78419 6.61466 2.28722L7.50787 3.88966C7.83688 4.47986 8.11375 4.97655 8.29457 5.40832C8.48637 5.86634 8.60029 6.318 8.54821 6.81736C8.49614 7.31672 8.29148 7.73516 8.00931 8.14375C7.7433 8.52892 7.36991 8.9578 6.92621 9.46742L4.69835 12.0265C6.46519 14.9224 9.07413 17.5325 11.9731 19.3012L14.5321 17.0733C15.0417 16.6296 15.4706 16.2562 15.8558 15.9902C16.2644 15.708 16.6828 15.5034 17.1822 15.4513C17.6815 15.3992 18.1332 15.5132 18.5912 15.705C19.023 15.8858 19.5197 16.1627 20.1099 16.4917L21.7123 17.3849C22.2153 17.6653 22.5961 18.1166 22.7132 18.6832C22.8316 19.2558 22.657 19.8314 22.2714 20.3044C20.8725 22.0208 18.6313 23.1136 16.28 22.6393C14.8348 22.3478 13.4088 21.8621 11.6841 20.873C8.21872 18.8856 5.11165 15.7768 3.12658 12.3155C2.13746 10.5907 1.65174 9.16476 1.3602 7.7195C0.885904 5.36827 1.97874 3.12699 3.6951 1.72809C4.16814 1.34255 4.74368 1.16798 5.31629 1.28632ZM13.3702 20.0737C14.5366 20.6484 15.5511 20.9621 16.5766 21.1689C18.2727 21.5111 19.985 20.7355 21.1087 19.3568C21.2563 19.1757 21.2572 19.0494 21.2443 18.9869C21.2301 18.9184 21.1728 18.8015 20.982 18.6951L19.4155 17.8219C18.7798 17.4676 18.3567 17.233 18.0118 17.0885C17.6844 16.9515 17.4966 16.9267 17.3378 16.9432C17.1789 16.9598 17.0002 17.0228 16.7082 17.2245C16.4005 17.437 16.0349 17.7538 15.486 18.2317L13.3702 20.0737ZM3.92588 10.6293L5.76786 8.51352C6.24569 7.96466 6.56257 7.599 6.77504 7.29135C6.97672 6.99931 7.03974 6.82062 7.0563 6.66178C7.07287 6.50294 7.04808 6.31509 6.91099 5.98773C6.76657 5.64285 6.53194 5.21968 6.17763 4.58404L5.30445 3.01753C5.19807 2.82669 5.08109 2.76942 5.01268 2.75528C4.95018 2.74236 4.8238 2.74326 4.64277 2.89081C3.26399 4.01457 2.48845 5.72684 2.83058 7.42289C3.03747 8.44847 3.35115 9.46294 3.92588 10.6293Z" fill="#161616"/>
</svg>
