<svg xmlns="http://www.w3.org/2000/svg" xmlns:xlink="http://www.w3.org/1999/xlink" width="151" height="151" viewBox="0 0 151 151">
  <defs>
    <filter id="chatIcon" x="0" y="0" width="151" height="151" filterUnits="userSpaceOnUse">
      <feOffset input="SourceAlpha"/>
      <feGaussianBlur stdDeviation="12.5" result="blur"/>
      <feFlood flood-color="#003462" flood-opacity="0.302"/>
      <feComposite operator="in" in2="blur"/>
      <feComposite in="SourceGraphic"/>
    </filter>
  </defs>
  <g transform="matrix(1, 0, 0, 1, 0, 0)" filter="url(#chatIcon)">
    <g id="chatIcon-2" data-name="chatIcon" transform="translate(37.5 37.5)" fill="#fff">
      <path d="M 37.99979782104492 74.00050354003906 C 33.13889694213867 74.00050354003906 28.42448425292969 73.04892730712891 23.98751831054688 71.17221069335938 C 19.70091819763184 69.35908508300781 15.85075187683105 66.76301574707031 12.54397392272949 63.45613098144531 C 9.23719596862793 60.14924240112305 6.641229629516602 56.29897308349609 4.828174114227295 52.01226425170898 C 2.951529502868652 47.5752067565918 1.999996185302734 42.86074066162109 1.999996185302734 37.99979782104492 C 1.999996185302734 33.13886260986328 2.951529502868652 28.42444038391113 4.828174114227295 23.98748588562012 C 6.641218662261963 19.70088577270508 9.237174034118652 15.85071849822998 12.54395198822021 12.54395198822021 C 15.85071849822998 9.237174034118652 19.70088577270508 6.641218662261963 23.98748588562012 4.828174114227295 C 28.42444038391113 2.951529502868652 33.13886260986328 1.999996185302734 37.99979782104492 1.999996185302734 C 42.86074066162109 1.999996185302734 47.5752067565918 2.951529502868652 52.01226425170898 4.828174114227295 C 56.29897308349609 6.641229629516602 60.14924240112305 9.23719596862793 63.45613098144531 12.54397392272949 C 66.76301574707031 15.85075187683105 69.35908508300781 19.70091819763184 71.17221069335938 23.98751831054688 C 73.04892730712891 28.42448425292969 74.00050354003906 33.13889694213867 74.00050354003906 37.99979782104492 C 74.00050354003906 41.8879280090332 73.38455963134766 45.71197509765625 72.16978454589844 49.36569595336914 C 70.99508666992188 52.89890670776367 69.27983856201172 56.22038650512695 67.07169342041016 59.23786163330078 L 66.55281066894531 59.94694137573242 L 66.72405242919922 60.80874252319336 L 68.89806365966797 71.74987030029297 C 68.97426605224609 72.13367462158203 68.82997131347656 72.40955352783203 68.69551086425781 72.57334899902344 C 68.50289916992188 72.80797576904297 68.21598815917969 72.94805145263672 67.92800903320312 72.94805908203125 C 67.82789611816406 72.94805908203125 67.72470855712891 72.93179321289062 67.62131500244141 72.89969635009766 L 56.69537353515625 69.50950622558594 L 55.88977432250977 69.25954437255859 L 55.14847564697266 69.66196441650391 C 52.57119750976562 71.06108856201172 49.82725143432617 72.14000701904297 46.99287414550781 72.8687744140625 C 44.07210922241211 73.61974334716797 41.04640579223633 74.00050354003906 37.99979782104492 74.00050354003906 Z" stroke="none"/>
      <path d="M 37.99979782104492 4 C 33.40798568725586 4 28.95569229125977 4.898384094238281 24.76658630371094 6.670188903808594 C 20.7183837890625 8.382400512695312 17.08190536499023 10.83442687988281 13.95817184448242 13.95817184448242 C 10.83442687988281 17.08190536499023 8.382400512695312 20.7183837890625 6.670188903808594 24.76658630371094 C 4.898384094238281 28.95569229125977 4 33.40798568725586 4 37.99979782104492 C 4 42.59163665771484 4.898384094238281 47.04398345947266 6.670196533203125 51.23318481445312 C 8.382423400878906 55.281494140625 10.83446502685547 58.9180908203125 13.95820999145508 62.04193115234375 C 17.08197021484375 65.16580200195312 20.71845245361328 67.617919921875 24.76663970947266 69.3302001953125 C 28.95574569702148 71.10208892822266 33.40802383422852 72.00050354003906 37.99979782104492 72.00050354003906 C 40.87851715087891 72.00050354003906 43.73666381835938 71.64093017578125 46.49483871459961 70.93177032470703 C 49.1705322265625 70.24381256103516 51.7609977722168 69.22521209716797 54.19429016113281 67.90426635742188 L 55.6768913269043 67.09941101074219 L 66.60892486572266 70.49150848388672 L 64.41990661621094 59.47490692138672 L 65.45769500732422 58.05675888061523 C 67.54306793212891 55.20703887939453 69.16281127929688 52.07065200805664 70.27193450927734 48.73470306396484 C 71.41893005371094 45.28483581542969 72.00050354003906 41.67309188842773 72.00050354003906 37.99979782104492 C 72.00050354003906 33.40802383422852 71.10208892822266 28.95574569702148 69.3302001953125 24.76663970947266 C 67.617919921875 20.71845245361328 65.16580200195312 17.08197021484375 62.04193115234375 13.95820999145508 C 58.9180908203125 10.83446502685547 55.281494140625 8.382423400878906 51.23318481445312 6.670196533203125 C 47.04398345947266 4.898384094238281 42.59163665771484 4 37.99979782104492 4 M 37.99979782104492 0 C 58.98690795898438 0 76.00050354003906 17.0127067565918 76.00050354003906 37.99979782104492 C 76.00050354003906 46.38362503051758 73.28447723388672 54.13461303710938 68.68569183349609 60.41896057128906 L 70.85970306396484 71.36009216308594 C 71.30250549316406 73.59030151367188 69.20010375976562 75.48390197753906 67.02839660644531 74.80979919433594 L 56.10267639160156 71.41966247558594 C 50.72046661376953 74.34147644042969 44.55442428588867 76.00050354003906 37.99979782104492 76.00050354003906 C 17.0127067565918 76.00050354003906 0 58.98690795898438 0 37.99979782104492 C 0 17.0127067565918 17.0127067565918 0 37.99979782104492 0 Z" stroke="none" fill="#4789c8"/>
    </g>
  </g>
</svg>
