<svg width="102" height="102" viewBox="0 0 102 102" fill="none" xmlns="http://www.w3.org/2000/svg">
<g filter="url(#filter0_d_40_6072)">
<path d="M13 50.9998C13 30.0127 30.0127 13 50.9998 13C71.9869 13 89.0005 30.0127 89.0005 50.9998C89.0005 59.3836 86.2845 67.1346 81.6857 73.419L83.8597 84.3601C84.3025 86.5903 82.2001 88.4839 80.0284 87.8098L69.1027 84.4197C63.7205 87.3415 57.5544 89.0005 50.9998 89.0005C30.0127 89.0005 13 71.9869 13 50.9998Z" fill="white"/>
<path d="M80.0717 72.2379L79.5528 72.9469L79.724 73.8087L81.898 84.7496C82.0457 85.4937 81.3442 86.1241 80.6213 85.8997L80.6211 85.8996L69.6954 82.5095L68.8898 82.2595L68.1485 82.662C63.0519 85.4287 57.213 87.0005 50.9998 87.0005C31.1173 87.0005 15 70.8824 15 50.9998C15 31.1173 31.1173 15 50.9998 15C70.8824 15 87.0005 31.1173 87.0005 50.9998C87.0005 58.9447 84.4282 66.2846 80.0717 72.2379Z" stroke="#25935F" stroke-width="4"/>
</g>
<path d="M52.5 30.5C52.5 31.3284 51.8284 32 51 32C50.1716 32 49.5 31.3284 49.5 30.5C49.5 29.6716 50.1716 29 51 29C51.8284 29 52.5 29.6716 52.5 30.5Z" stroke="#1B8354" stroke-width="1.5"/>
<path d="M51 32V35" stroke="#1B8354" stroke-width="1.5" stroke-linejoin="round"/>
<path d="M58 35H44V47H48V49L51 47H58V35Z" stroke="#1B8354" stroke-width="1.5" stroke-linejoin="round"/>
<path d="M58 38.5H61V43.5H58" stroke="#1B8354" stroke-width="1.5" stroke-linejoin="round"/>
<path d="M44 43.5L41 43.5L41 38.5L44 38.5" stroke="#1B8354" stroke-width="1.5" stroke-linejoin="round"/>
<path d="M48 38V40M54 38V40M48.5 43C48.5 43 49.3333 44 51 44C52.6667 44 53.5 43 53.5 43" stroke="#1B8354" stroke-width="1.5"/>
<path d="M34.026 69.36C31.198 69.36 29.532 68.002 29.532 65.72C29.532 64.88 29.784 63.816 30.19 62.85L31.254 63.172C30.904 63.928 30.652 64.796 30.652 65.44C30.652 66.854 31.744 67.666 33.55 67.666H34.516C36.602 67.666 37.876 66.882 37.932 66L34.712 65.37V63.872H35.398C36.532 63.872 36.994 63.606 36.994 62.78V55.64H38.268V62.78C38.268 63.494 37.988 64.026 37.386 64.376V64.446L37.946 64.6C38.674 64.782 39.066 65.23 39.066 65.944C39.066 67.946 37.19 69.36 34.026 69.36ZM34.908 72.272C34.488 72.272 34.208 72.02 34.208 71.474C34.208 70.914 34.488 70.676 34.908 70.676H35.118C35.538 70.676 35.832 70.914 35.832 71.474C35.832 72.02 35.538 72.272 35.118 72.272H34.908ZM32.934 72.272C32.514 72.272 32.234 72.02 32.234 71.474C32.234 70.914 32.514 70.676 32.934 70.676H33.144C33.564 70.676 33.858 70.914 33.858 71.474C33.858 72.02 33.564 72.272 33.144 72.272H32.934ZM39.5283 56.914V56.438C39.5283 55.766 39.8783 55.332 40.7323 55.5L41.5583 55.668C41.9923 55.766 42.1743 55.78 42.3003 55.78C42.6783 55.78 42.8323 55.64 42.9723 55.192L43.6723 55.528C43.5043 56.396 43.0703 56.802 42.3003 56.802C42.0903 56.802 41.8943 56.774 41.3903 56.69L40.3543 56.494V56.914H39.5283ZM40.2563 66V64.446L42.8043 62.052L39.3463 58.412L40.2983 57.46L43.7843 61.128C44.3863 60.554 44.5543 60.12 44.5543 59.196V55.64H45.8703V59.196C45.8703 60.414 45.5623 61.016 44.5683 61.94L45.2683 62.682C45.9683 63.41 46.2063 63.872 46.2063 64.474C46.2063 65.3 45.6043 66 44.6103 66H40.2563ZM45.0723 64.418L43.5603 62.85L41.8803 64.362L41.8943 64.418H45.0723ZM47.7531 66V55.64H49.0551V66H47.7531ZM55.2819 66C54.3439 66 53.7559 65.496 53.7559 64.446V63.424H55.0019V64.418H57.2419C58.1099 64.418 58.3899 64.012 58.3899 63.48C58.3899 62.92 58.0119 62.36 56.9619 61.352L55.5339 59.882L56.6679 58.734L57.9559 60.134C59.1739 61.45 59.6219 62.318 59.6219 63.536C59.6219 65.076 58.6979 66 57.1019 66H55.2819ZM59.3045 69.36V67.778H59.8365C61.7265 67.778 62.3425 66.77 62.3425 65.258C62.3425 64.754 62.2725 64.208 62.1885 63.662L61.8945 61.968L63.0985 61.744L63.2945 62.92C63.3785 63.466 63.4485 63.97 63.4905 64.418H64.7925V65.664L64.4565 66H63.4905C63.2665 67.932 62.1885 69.36 59.8505 69.36H59.3045ZM64.457 66V64.754L64.793 64.418H65.283C66.095 64.418 66.389 64.068 66.389 63.312V55.64H67.705V63.312C67.705 65.146 67.005 66 65.283 66H64.457ZM69.6418 66V55.64H70.9438V66H69.6418Z" fill="#1B8354"/>
<defs>
<filter id="filter0_d_40_6072" x="0.5" y="0.5" width="101.001" height="101" filterUnits="userSpaceOnUse" color-interpolation-filters="sRGB">
<feFlood flood-opacity="0" result="BackgroundImageFix"/>
<feColorMatrix in="SourceAlpha" type="matrix" values="0 0 0 0 0 0 0 0 0 0 0 0 0 0 0 0 0 0 127 0" result="hardAlpha"/>
<feOffset/>
<feGaussianBlur stdDeviation="6.25"/>
<feComposite in2="hardAlpha" operator="out"/>
<feColorMatrix type="matrix" values="0 0 0 0 0.721569 0 0 0 0 0.917647 0 0 0 0 0.796078 0 0 0 1 0"/>
<feBlend mode="normal" in2="BackgroundImageFix" result="effect1_dropShadow_40_6072"/>
<feBlend mode="normal" in="SourceGraphic" in2="effect1_dropShadow_40_6072" result="shape"/>
</filter>
</defs>
</svg>
