<svg width="48" height="48" viewBox="0 0 48 48" fill="none" xmlns="http://www.w3.org/2000/svg">
<path d="M20.5 24C20.5 23.1716 21.1716 22.5 22 22.5L26 22.5C26.8284 22.5 27.5 23.1716 27.5 24C27.5 24.8284 26.8284 25.5 26 25.5L22 25.5C21.1716 25.5 20.5 24.8284 20.5 24Z" fill="#1B8354"/>
<path d="M20.5 30C20.5 29.1716 21.1716 28.5 22 28.5L26 28.5C26.8284 28.5 27.5 29.1716 27.5 30C27.5 30.8284 26.8284 31.5 26 31.5L22 31.5C21.1716 31.5 20.5 30.8284 20.5 30Z" fill="#1B8354"/>
<path d="M20.5 36C20.5 35.1716 21.1716 34.5 22 34.5L26 34.5C26.8284 34.5 27.5 35.1716 27.5 36C27.5 36.8284 26.8284 37.5 26 37.5H22C21.1716 37.5 20.5 36.8284 20.5 36Z" fill="#1B8354"/>
<path fill-rule="evenodd" clip-rule="evenodd" d="M4 42.5C3.17157 42.5 2.5 43.1716 2.5 44C2.5 44.8284 3.17157 45.5 4 45.5L44 45.5C44.8284 45.5 45.5 44.8284 45.5 44C45.5 43.1716 44.8284 42.5 44 42.5H43.5L43.5 16.2984C43.5 15.1322 43.5001 14.1466 43.4177 13.3331C43.3303 12.4695 43.1409 11.6744 42.6859 10.9226C42.2297 10.1689 41.614 9.636 40.8903 9.16578C40.2116 8.72478 39.3455 8.2826 38.326 7.76211L29.5765 3.29473C28.966 2.98299 28.3623 2.71831 27.7975 2.58912C27.2378 2.46108 26.4677 2.41079 25.7619 2.86756C25.0689 3.31605 24.792 4.02669 24.6652 4.56974C24.535 5.12704 24.5 5.77872 24.5 6.45741L24.5 14.5L20 14.5C18.7265 14.5 17.602 14.5645 16.6465 14.7744C15.674 14.988 14.7834 15.3722 14.0778 16.0778C13.3722 16.7834 12.988 17.674 12.7744 18.6465C12.5645 19.602 12.5 20.7265 12.5 22V22.5L8 22.5C7.55387 22.5 7.09297 22.5213 6.66759 22.6147C6.22523 22.7119 5.73128 22.9064 5.31884 23.3188C4.9064 23.7313 4.71193 24.2252 4.61475 24.6676C4.5213 25.093 4.5 25.5539 4.5 26L4.5 42.5H4ZM7.5 42.5L7.5 26C7.5 25.7886 7.50673 25.632 7.51665 25.5166C7.63202 25.5067 7.78856 25.5 8 25.5L12.5 25.5L12.5 42.5H7.5ZM15.5 42.5L15.5 22C15.5 20.7915 15.565 19.925 15.7045 19.2902C15.8402 18.6723 16.0253 18.3731 16.1992 18.1992C16.3731 18.0253 16.6723 17.8402 17.2902 17.7045C17.925 17.565 18.7915 17.5 20 17.5L28 17.5C29.2085 17.5 30.075 17.565 30.7098 17.7045C31.3277 17.8402 31.6269 18.0253 31.8008 18.1992C31.9747 18.3731 32.1598 18.6723 32.2955 19.2902C32.435 19.925 32.5 20.7915 32.5 22L32.5 42.5L15.5 42.5ZM35.5 42.5V22C35.5 20.7265 35.4355 19.602 35.2256 18.6465C35.012 17.674 34.6278 16.7834 33.9222 16.0778C33.2166 15.3722 32.326 14.988 31.3535 14.7744C30.398 14.5645 29.2735 14.5 28 14.5L27.5 14.5L27.5 6.45741C27.5 6.11887 27.511 5.85379 27.5291 5.64814C27.7083 5.72091 27.933 5.82398 28.2123 5.9666L36.8956 10.4002C37.9991 10.9636 38.7239 11.3358 39.2557 11.6814C39.7572 12.0072 39.9781 12.2425 40.1193 12.4759C40.2617 12.7112 40.371 13.0237 40.433 13.6353C40.4982 14.2799 40.5 15.1128 40.5 16.3712L40.5 42.5H35.5Z" fill="#1B8354"/>
</svg>
