<svg xmlns="http://www.w3.org/2000/svg" width="110" height="110" viewBox="0 0 110 110">
  <g id="countIcon4" transform="translate(-1453 -6238)">
    <g id="Ellipse_180" data-name="Ellipse 180" transform="translate(1453 6238)" fill="none" stroke="#63be6a" stroke-width="3">
      <circle cx="55" cy="55" r="55" stroke="none"/>
      <circle cx="55" cy="55" r="53.5" fill="none"/>
    </g>
    <g id="Group_56996" data-name="Group 56996" transform="translate(1431.801 6264.866)">
      <g id="XMLID_1088_" transform="translate(54)">
        <g id="XMLID_747_" transform="translate(0)">
          <path id="XMLID_824_" d="M97.3,4.4H94.882V1.1a1.1,1.1,0,0,0-1.1-1.1H88.947a1.1,1.1,0,0,0-1.1,1.1V4.4H64.578V1.1a1.1,1.1,0,0,0-1.1-1.1H58.644a1.1,1.1,0,0,0-1.1,1.1V4.4H55.1a1.1,1.1,0,0,0-1.1,1.1V10.33a1.1,1.1,0,0,0,1.1,1.1h2.446v21.76H55.978a1.1,1.1,0,0,0-1.1,1.1V40a1.1,1.1,0,0,0,1.1,1.1h1.539V55.168a1.1,1.1,0,0,0,1.1,1.1H93.783a1.1,1.1,0,0,0,1.1-1.1V41.1H96.42a1.1,1.1,0,0,0,1.1-1.1V34.288a1.1,1.1,0,0,0-1.1-1.1H94.882V11.429H97.3a1.1,1.1,0,0,0,1.1-1.1V5.495A1.1,1.1,0,0,0,97.3,4.4ZM90.046,2.2h2.638V4.4H90.046ZM81.677,33.189a4.04,4.04,0,0,0,.456-1.868v-7.18a5.943,5.943,0,0,0-4.822-5.828V11.429H87.848v21.76Zm-6.563-26.6V9.231H63.906L61.269,6.594Zm2.2,2.638V6.594H79.95V9.231Zm-12.734,2.2H75.114v6.878a5.943,5.943,0,0,0-4.849,5.833v7.18a4.04,4.04,0,0,0,.456,1.868H64.578ZM79.936,24.361H72.463v-.22a3.737,3.737,0,1,1,7.473,0Zm-7.473,6.96V26.559h7.473v4.762a1.87,1.87,0,0,1-1.868,1.868H74.331A1.87,1.87,0,0,1,72.463,31.321ZM82.148,9.231V6.594h6.326l2.638,2.638ZM59.743,2.2H62.38V4.4H59.743ZM56.2,6.594H58.16L60.8,9.231H56.2Zm3.545,4.835H62.38v21.76H59.743ZM95.321,38.9H81.152a1.1,1.1,0,0,0,0,2.2H92.684v3.517H88.961a1.1,1.1,0,1,0,0,2.2h3.723v7.253H59.715V46.816h3.737a1.1,1.1,0,1,0,0-2.2H59.715V41.1H71.261a1.1,1.1,0,1,0,0-2.2H57.077V35.387H95.321Zm-5.275-5.715V11.429h2.638v21.76ZM96.2,9.231H94.22L91.582,6.594H96.2Z" transform="translate(-54)" fill="#63be6a" stroke="#63be6a" stroke-width="0.5"/>
          <path id="XMLID_838_" d="M247.159,356.138a1.1,1.1,0,1,0-.777-.322A1.109,1.109,0,0,0,247.159,356.138Z" transform="translate(-224.953 -315.043)" fill="#63be6a" stroke="#63be6a" stroke-width="0.5"/>
          <path id="XMLID_839_" d="M173.6,447.5H169.1a1.1,1.1,0,1,0,0,2.2H173.6a1.1,1.1,0,1,0,0-2.2Z" transform="translate(-155.472 -398.321)" fill="#63be6a" stroke="#63be6a" stroke-width="0.5"/>
          <path id="XMLID_840_" d="M284.5,448.6a1.1,1.1,0,0,0,1.1,1.1H290.1a1.1,1.1,0,0,0,0-2.2H285.6A1.1,1.1,0,0,0,284.5,448.6Z" transform="translate(-259.169 -398.321)" fill="#63be6a" stroke="#63be6a" stroke-width="0.5"/>
          <path id="XMLID_841_" d="M233.2,407.1a1.1,1.1,0,0,0-1.1-1.1H227.6a1.1,1.1,0,1,0,0,2.2H232.1A1.1,1.1,0,0,0,233.2,407.1Z" transform="translate(-207.543 -361.382)" fill="#63be6a" stroke="#63be6a" stroke-width="0.5"/>
        </g>
      </g>
    </g>
  </g>
</svg>
