<svg xmlns="http://www.w3.org/2000/svg" width="110" height="110" viewBox="0 0 110 110">
  <g id="countIcon2" transform="translate(-1453 -6238)">
    <g id="Ellipse_180" data-name="Ellipse 180" transform="translate(1453 6238)" fill="none" stroke="#63be6a" stroke-width="3">
      <circle cx="55" cy="55" r="55" stroke="none"/>
      <circle cx="55" cy="55" r="53.5" fill="none"/>
    </g>
    <path id="Path_125044" data-name="Path 125044" d="M26.941,15.47a10.1,10.1,0,0,0-10.1,10.1v13.47a10.1,10.1,0,0,0,20.206,0V25.573a10.1,10.1,0,0,0-10.1-10.1ZM19.785,28.722H34.1v7.156H19.785ZM26.941,46.2a7.19,7.19,0,0,1-7.156-7.156v-.219H34.1v.219A7.19,7.19,0,0,1,26.941,46.2ZM34.1,25.775H19.785v-.2a7.156,7.156,0,0,1,14.312,0Zm17.528,5.2L40.411,20.522V35.844a6.735,6.735,0,0,0,13.47,0,6.449,6.449,0,0,0-2.256-4.866Zm-4.479,8.655a3.788,3.788,0,0,1-3.789-3.789V27.257L49.621,33.1a3.451,3.451,0,0,1,1.229,2.576,3.788,3.788,0,0,1-3.7,3.957ZM0,35.844a6.735,6.735,0,0,0,13.47,0V20.522L2.256,30.978A6.533,6.533,0,0,0,0,35.844Zm4.176-2.627,6.348-5.961v8.587a3.789,3.789,0,1,1-7.577,0,3.452,3.452,0,0,1,1.229-2.627ZM25.257,7.893a5.893,5.893,0,1,0-1.726,4.167,5.893,5.893,0,0,0,1.726-4.167Zm-8.84,0a2.947,2.947,0,1,1,2.947,2.947,2.98,2.98,0,0,1-2.947-2.947ZM34.518,2a5.893,5.893,0,1,0,4.167,1.726A5.894,5.894,0,0,0,34.518,2Zm0,8.84a2.947,2.947,0,1,1,2.947-2.947,2.98,2.98,0,0,1-2.947,2.947Z" transform="translate(1481.059 6267.427)" fill="#63be6a"/>
  </g>
</svg>
