<svg xmlns="http://www.w3.org/2000/svg" width="110" height="110" viewBox="0 0 110 110">
  <g id="countIcon1" transform="translate(-1453 -6238)">
    <g id="Ellipse_180" data-name="Ellipse 180" transform="translate(1453 6238)" fill="none" stroke="#63be6a" stroke-width="3">
      <circle cx="55" cy="55" r="55" stroke="none"/>
      <circle cx="55" cy="55" r="53.5" fill="none"/>
    </g>
    <g id="Group_56994" data-name="Group 56994" transform="translate(1462.596 6259.152)">
      <path id="Path_125041" data-name="Path 125041" d="M64.735,44.668c.518.77,1.7,5.151,1.481,6.053L63.684,61.249a2.231,2.231,0,0,1-2.168,1.709H58.784m1.584-26.391c-1.152,2.078-2.385,4.748-2.091,6.218.529,2.64,1.915,6.952,1.915,6.952L54.506,62.125A2.152,2.152,0,0,1,52.55,63.38h-.013a2.145,2.145,0,0,1-1.863-3.223,20.964,20.964,0,0,0,1.606-18.2,9.052,9.052,0,0,1-.045-6.126l2.786-7.922Z" transform="translate(5.248 1.462)" fill="none" stroke="#63be6a" stroke-linecap="round" stroke-linejoin="round" stroke-miterlimit="10" stroke-width="2.5"/>
      <path id="Path_125042" data-name="Path 125042" d="M42.238,33.307l.781,7.6L41.749,51.57l7.808,6.209a2.231,2.231,0,0,1,.877,1.365l0,.018A2.231,2.231,0,0,1,46.925,61.4l-8.659-6.94L36.477,41.786l-3.229-2.908C21.016,42.75,14.493,28.264,14.493,28.264L8.638,27.149,6.5,27.706c-.524.1-1.179-.814-1.394-1.3-.99-2.251,1.754-3.558,1.754-3.558l9.32-1.615A1.469,1.469,0,0,1,17.747,22c1.516,2.95,6.61,11.4,13.566,7.368,0,0,1.614-5.4,8.976-7.75a7.8,7.8,0,0,0,4.252-3.171c.738-1.154,1.691-2.324,2.614-2.544a37.377,37.377,0,0,1,6.039-.666,2.712,2.712,0,0,1,2.539,1.517c.877,1.8,12.729,10.155,12.729,10.155a6.416,6.416,0,0,1,2.189,5.067A29.01,29.01,0,0,0,72.841,42.02" fill="none" stroke="#63be6a" stroke-linecap="round" stroke-linejoin="round" stroke-miterlimit="10" stroke-width="2.5"/>
      <path id="Path_125043" data-name="Path 125043" d="M44.577,40.159c3.139-.315,7.417-.971,8.968-2.148M30.133,41.555,28.862,60.1a1.115,1.115,0,0,0,1.1,1.318h1.708A2.231,2.231,0,0,0,33.9,59.191V56.332Z" transform="translate(2.763 2.627)" fill="none" stroke="#63be6a" stroke-linecap="round" stroke-linejoin="round" stroke-miterlimit="10" stroke-width="2.5"/>
    </g>
  </g>
</svg>
