<svg width="20" height="20" viewBox="0 0 20 20" fill="none" xmlns="http://www.w3.org/2000/svg">
<path d="M11.3537 4.51344C11.5452 4.22623 11.4676 3.83819 11.1803 3.64672C10.8931 3.45525 10.5051 3.53286 10.3136 3.82006L9.48029 5.07006C9.28882 5.35727 9.36643 5.74531 9.65364 5.93678C9.94084 6.12825 10.3289 6.05064 10.5204 5.76344L11.3537 4.51344Z" fill="white"/>
<path fill-rule="evenodd" clip-rule="evenodd" d="M10.0003 1.04175C7.58408 1.04175 5.62533 3.0005 5.62533 5.41675C5.62533 7.83299 7.58408 9.79175 10.0003 9.79175C12.4166 9.79175 14.3753 7.83299 14.3753 5.41675C14.3753 3.0005 12.4166 1.04175 10.0003 1.04175ZM6.87533 5.41675C6.87533 3.69086 8.27444 2.29175 10.0003 2.29175C11.7262 2.29175 13.1253 3.69086 13.1253 5.41675C13.1253 7.14264 11.7262 8.54175 10.0003 8.54175C8.27444 8.54175 6.87533 7.14264 6.87533 5.41675Z" fill="white"/>
<path fill-rule="evenodd" clip-rule="evenodd" d="M4.24147 11.6336C4.9629 11.1424 6.00656 11.0417 7.31115 11.0417H12.6896C13.9941 11.0417 15.0378 11.1424 15.7592 11.6336C16.4167 12.0812 16.7011 12.7665 16.8203 13.6018C18.0424 13.8636 18.9587 14.9498 18.9587 16.2501C18.9587 17.7459 17.7461 18.9584 16.2503 18.9584C14.7546 18.9584 13.542 17.7459 13.542 16.2501C13.542 14.9931 14.3983 13.9362 15.5593 13.6307C15.4599 13.0768 15.2836 12.8219 15.0558 12.6668C14.6918 12.419 14.025 12.2917 12.6896 12.2917H7.31115C5.97572 12.2917 5.30893 12.419 4.94493 12.6668C4.71713 12.8219 4.54077 13.0768 4.44141 13.6307C5.60242 13.9362 6.45866 14.9932 6.45866 16.2501C6.45866 17.7459 5.2461 18.9584 3.75033 18.9584C2.25455 18.9584 1.04199 17.7459 1.04199 16.2501C1.04199 14.9498 1.9583 13.8636 3.18041 13.6018C3.2996 12.7665 3.58401 12.0812 4.24147 11.6336ZM16.2545 14.7918L16.2453 14.7918C15.4422 14.7945 14.792 15.4464 14.792 16.2501C14.792 17.0555 15.4449 17.7084 16.2503 17.7084C17.0557 17.7084 17.7087 17.0555 17.7087 16.2501C17.7087 15.4461 17.058 14.794 16.2545 14.7918ZM3.75542 14.7918L3.74616 14.7918C2.94266 14.794 2.29199 15.4461 2.29199 16.2501C2.29199 17.0555 2.94491 17.7084 3.75033 17.7084C4.55574 17.7084 5.20866 17.0555 5.20866 16.2501C5.20866 15.4464 4.55849 14.7945 3.75542 14.7918Z" fill="white"/>
</svg>
