<svg xmlns="http://www.w3.org/2000/svg" width="25.98" height="25.98" viewBox="0 0 25.98 25.98">
  <g id="dateHN" transform="translate(-65.521)">
    <rect id="Rectangle_11331" data-name="Rectangle 11331" width="25.98" height="25.98" rx="6" transform="translate(65.521)" fill="#63be6a"/>
    <path id="calendar-dates" d="M12.782,5.594V3.8h-1.2v.6h-1.2V3.8H5.594v.6H4.4V3.8H3.2v1.8Zm0,1.2H3.2v5.99h9.584ZM11.584,2.6h1.2a1.2,1.2,0,0,1,1.2,1.2v8.985a1.2,1.2,0,0,1-1.2,1.2H3.2a1.2,1.2,0,0,1-1.2-1.2V3.8A1.2,1.2,0,0,1,3.2,2.6H4.4V2h1.2v.6h4.792V2h1.2ZM6.193,9.188h-1.2V7.99h1.2Zm2.4,0h-1.2V7.99h1.2Zm2.4,0h-1.2V7.99h1.2Zm-4.792,2.4h-1.2v-1.2h1.2Zm2.4,0h-1.2v-1.2h1.2Z" transform="translate(70.521 5)" fill="#fff" fill-rule="evenodd"/>
  </g>
</svg>
