<svg width="24" height="24" viewBox="0 0 24 24" fill="none" xmlns="http://www.w3.org/2000/svg">
<path fill-rule="evenodd" clip-rule="evenodd" d="M17.5878 3.85735C16.3023 4.09128 14.5757 4.67771 12.164 5.49989L8.91281 6.60823C7.06043 7.23971 5.73482 7.69286 4.84683 8.11167C4.40444 8.32032 4.12118 8.49792 3.94931 8.65092C3.78661 8.79576 3.76603 8.8797 3.76116 8.9128C3.73756 9.07304 3.75107 9.24401 3.805 9.41198C3.82326 9.46884 3.87888 9.57499 4.0857 9.72648C4.29788 9.88189 4.62278 10.0507 5.10183 10.2394C6.06411 10.6184 7.46782 11.0107 9.41843 11.5544C9.46171 11.5665 9.50449 11.5784 9.54675 11.5901C10.2776 11.793 10.8564 11.9537 11.3101 12.3308C11.4406 12.4392 11.5608 12.5594 11.6692 12.6899C12.0463 13.1436 12.207 13.7223 12.4099 14.4532C12.4216 14.4955 12.4335 14.5383 12.4455 14.5815C12.9892 16.5322 13.3816 17.9359 13.7606 18.8981C13.9493 19.3772 14.1181 19.7021 14.2735 19.9143C14.425 20.1211 14.5311 20.1767 14.588 20.195C14.756 20.2489 14.9269 20.2624 15.0872 20.2388C15.1203 20.2339 15.2042 20.2134 15.3491 20.0507C15.5021 19.8788 15.6797 19.5955 15.8883 19.1531C16.3071 18.2651 16.7603 16.9395 17.3917 15.0872L18.5001 11.836C19.3223 9.42422 19.9087 7.69768 20.1426 6.41212C20.3768 5.12509 20.2087 4.53458 19.8371 4.16291C19.4654 3.79123 18.8749 3.62315 17.5878 3.85735ZM17.3193 2.38159C18.7404 2.12298 19.9855 2.18998 20.8977 3.10225C21.81 4.01452 21.877 5.25956 21.6184 6.68067C21.362 8.08987 20.7372 9.92259 19.9425 12.2534L18.7938 15.623C18.1838 17.4126 17.7043 18.8191 17.245 19.793C17.0124 20.2862 16.7624 20.7189 16.4694 21.048C16.1683 21.3863 15.7878 21.6518 15.3057 21.7228C14.912 21.7808 14.5096 21.7452 14.1295 21.6232C13.6767 21.4778 13.3333 21.1691 13.0634 20.8006C12.7974 20.4375 12.5731 19.9762 12.365 19.4479C11.9539 18.4042 11.5415 16.9248 11.0141 15.0326L11.0006 14.9843C10.7433 14.0612 10.661 13.8236 10.5156 13.6486C10.466 13.5889 10.411 13.5339 10.3514 13.4844C10.1764 13.3389 9.93879 13.2567 9.01567 12.9994L8.96735 12.9859C7.07517 12.4585 5.59573 12.0461 4.5521 11.635C4.02376 11.4269 3.56244 11.2025 3.19934 10.9366C2.83088 10.6667 2.52217 10.3233 2.3768 9.87051C2.25477 9.49041 2.21918 9.08796 2.27716 8.69424C2.34815 8.21222 2.61364 7.8317 2.95193 7.53055C3.28106 7.23755 3.71374 6.98762 4.20697 6.75499C5.18083 6.29568 6.58741 5.81618 8.37695 5.20614L11.7465 4.05744C14.0774 3.26282 15.9101 2.63802 17.3193 2.38159Z" fill="white"/>
</svg>
