<svg width="21" height="20" viewBox="0 0 21 20" fill="none" xmlns="http://www.w3.org/2000/svg">
<path fill-rule="evenodd" clip-rule="evenodd" d="M18.1237 13.5955L16.8065 12.2783C17.3972 11.6813 17.94 11.0514 18.4256 10.4216C18.5472 10.264 18.6596 10.1135 18.7623 9.97173C18.6596 9.82998 18.5472 9.67948 18.4256 9.52181C17.8625 8.79147 17.2223 8.06085 16.5199 7.38159C14.5701 5.49617 12.5423 4.38382 10.5818 4.38382C10.0954 4.38382 9.60473 4.4523 9.11225 4.58407L7.63895 3.11074C8.60049 2.72736 9.58257 2.52118 10.5818 2.52118C13.122 2.52118 15.551 3.85354 17.8147 6.04264C18.5869 6.78946 19.2856 7.58677 19.9006 8.38439C20.2718 8.8657 20.5352 9.24437 20.6795 9.46993L21.0004 9.97173L20.6795 10.4735C20.5352 10.6991 20.2718 11.0778 19.9006 11.5591C19.3687 12.2489 18.7742 12.9385 18.1237 13.5955ZM15.2435 15.9506C13.743 16.8919 12.1845 17.4223 10.5818 17.4223C8.04156 17.4223 5.61256 16.0899 3.34889 13.9009C2.57662 13.154 1.87796 12.3566 1.26292 11.5591C0.891791 11.0778 0.628284 10.6991 0.484014 10.4735L0.163086 9.97173L0.484014 9.46993C0.628284 9.24437 0.891791 8.8657 1.26292 8.38439C1.87796 7.58677 2.57662 6.78946 3.34889 6.04264C3.69405 5.70885 4.04305 5.39499 4.39569 5.10273L0.610049 1.31709L1.92714 0L20.5535 18.6264L19.2364 19.9434L15.2435 15.9506ZM5.72004 6.42707C5.35924 6.71802 5.00018 7.03688 4.64373 7.38159C3.94133 8.06085 3.30109 8.79147 2.73798 9.52181C2.61636 9.67948 2.50398 9.82998 2.40124 9.97173C2.50398 10.1135 2.61636 10.264 2.73798 10.4216C3.30109 11.152 3.94133 11.8826 4.64373 12.5618C6.5934 14.4473 8.62128 15.5596 10.5818 15.5596C11.6697 15.5596 12.7784 15.2171 13.8829 14.59L12.4742 13.1812C11.9196 13.509 11.2726 13.697 10.5818 13.697C8.52437 13.697 6.8565 12.0291 6.8565 9.97173C6.8565 9.28088 7.04457 8.63389 7.37229 8.07932L5.72004 6.42707ZM8.78219 9.48931C8.74112 9.64316 8.71914 9.80484 8.71914 9.97173C8.71914 11.0005 9.55304 11.8344 10.5818 11.8344C10.7487 11.8344 10.9103 11.8124 11.0642 11.7713L8.78219 9.48931Z" fill="white"/>
</svg>
