<svg xmlns="http://www.w3.org/2000/svg" width="19.214" height="19.214" viewBox="0 0 19.214 19.214">
  <g id="Finsta" transform="translate(0.25 0.25)">
    <g id="Group_23146" data-name="Group 23146">
      <g id="Group_23145" data-name="Group 23145" transform="translate(0)">
        <path id="Path_605" data-name="Path 605" d="M14.04,0H4.683A4.693,4.693,0,0,0,0,4.678v9.357a4.693,4.693,0,0,0,4.678,4.678H14.04a4.693,4.693,0,0,0,4.678-4.678V4.678A4.693,4.693,0,0,0,14.04,0Zm3.119,14.036a3.122,3.122,0,0,1-3.119,3.119H4.683a3.123,3.123,0,0,1-3.119-3.119V4.678A3.123,3.123,0,0,1,4.683,1.56H14.04a3.122,3.122,0,0,1,3.119,3.119Z" transform="translate(-0.005)" fill="#008941"/>
        <path id="Path_605_-_Outline" data-name="Path 605 - Outline" d="M4.683-.25H14.04a4.934,4.934,0,0,1,4.928,4.928v9.357a4.934,4.934,0,0,1-4.928,4.928H4.683A4.934,4.934,0,0,1-.245,14.036V4.678A4.934,4.934,0,0,1,4.683-.25ZM14.04,18.464a4.433,4.433,0,0,0,4.428-4.428V4.678A4.433,4.433,0,0,0,14.04.25H4.683A4.433,4.433,0,0,0,.255,4.678v9.357a4.433,4.433,0,0,0,4.428,4.428ZM4.683,1.31H14.04a3.373,3.373,0,0,1,3.369,3.369v9.357A3.373,3.373,0,0,1,14.04,17.4H4.683a3.373,3.373,0,0,1-3.369-3.369V4.678A3.373,3.373,0,0,1,4.683,1.31ZM14.04,16.9a2.872,2.872,0,0,0,2.869-2.869V4.678A2.872,2.872,0,0,0,14.04,1.81H4.683A2.872,2.872,0,0,0,1.815,4.678v9.357A2.872,2.872,0,0,0,4.683,16.9Z" transform="translate(-0.005)" fill="#008941"/>
      </g>
    </g>
    <g id="Group_23148" data-name="Group 23148" transform="translate(13.256 3.119)">
      <g id="Group_23147" data-name="Group 23147">
        <circle id="Ellipse_172" data-name="Ellipse 172" cx="1.17" cy="1.17" r="1.17" fill="#008941"/>
        <path id="Ellipse_172_-_Outline" data-name="Ellipse 172 - Outline" d="M1.17-.25A1.42,1.42,0,1,1-.25,1.17,1.421,1.421,0,0,1,1.17-.25Zm0,2.339a.92.92,0,1,0-.92-.92A.921.921,0,0,0,1.17,2.089Z" fill="#008941"/>
      </g>
    </g>
    <g id="Group_23150" data-name="Group 23150" transform="translate(4.678 4.679)">
      <g id="Group_23149" data-name="Group 23149">
        <path id="Path_606" data-name="Path 606" d="M107.083,102.4a4.679,4.679,0,1,0,4.678,4.678A4.678,4.678,0,0,0,107.083,102.4Zm0,7.8a3.119,3.119,0,1,1,3.119-3.119A3.119,3.119,0,0,1,107.083,110.2Z" transform="translate(-102.405 -102.4)" fill="#008941"/>
        <path id="Path_606_-_Outline" data-name="Path 606 - Outline" d="M107.083,102.15a4.929,4.929,0,1,1-4.928,4.928A4.934,4.934,0,0,1,107.083,102.15Zm0,9.357a4.429,4.429,0,1,0-4.428-4.429A4.434,4.434,0,0,0,107.083,111.507Zm0-7.8a3.369,3.369,0,1,1-3.369,3.369A3.373,3.373,0,0,1,107.083,103.71Zm0,6.238a2.869,2.869,0,1,0-2.869-2.869A2.872,2.872,0,0,0,107.083,109.948Z" transform="translate(-102.405 -102.4)" fill="#008941"/>
      </g>
    </g>
  </g>
</svg>
