<svg width="22" height="18" viewBox="0 0 22 18" fill="none" xmlns="http://www.w3.org/2000/svg">
<path d="M19.7521 10.2188C19.7521 9.86493 19.4107 9.77687 19.1681 9.77687H7.17862C6.59466 9.77687 5.8231 10.1938 5.44861 10.7109L2.20862 15.2936C2.10918 15.4447 2.01044 15.6096 2.01044 15.7986C2.01044 16.1525 2.35179 16.2406 2.5944 16.2406H14.5839C15.1679 16.2406 15.9394 15.8237 16.3139 15.2936L19.5539 10.7109C19.6533 10.5719 19.7521 10.4079 19.7521 10.2188ZM7.17862 8.16094H15.6418V6.14103C15.6418 5.47203 15.1679 4.92908 14.5839 4.92908H8.23652C7.65256 4.92908 7.17862 4.38613 7.17862 3.71714V2.90917C7.17862 2.24018 6.70468 1.69723 6.12072 1.69723H2.5944C2.01044 1.69723 1.53651 2.24018 1.53651 2.90917V13.6777L4.35756 9.70092C4.99653 8.80488 6.17573 8.16094 7.17862 8.16094ZM21.1626 10.2188C21.1626 10.7747 20.9531 11.3047 20.6555 11.7338L17.4049 16.3165C16.7766 17.2004 15.5755 17.8565 14.5839 17.8565H2.5944C1.23888 17.8565 0.125977 16.5815 0.125977 15.0286V2.90917C0.125977 1.35627 1.23888 0.0812988 2.5944 0.0812988H6.12072C7.47624 0.0812988 8.58915 1.35627 8.58915 2.90917V3.31315H14.5839C15.9394 3.31315 17.0523 4.58812 17.0523 6.14103V8.16094H19.1681C19.9171 8.16094 20.6668 8.55199 20.9976 9.35996C21.1076 9.62497 21.1626 9.91664 21.1626 10.2188Z" fill="white"/>
</svg>
