<svg xmlns="http://www.w3.org/2000/svg" width="24.578" height="17.282" viewBox="0 0 24.578 17.282">
  <path id="footerYout" d="M24.59-10.8a3.088,3.088,0,0,0-2.173-2.187c-1.917-.517-9.6-.517-9.6-.517s-7.686,0-9.6.517A3.088,3.088,0,0,0,1.039-10.8,32.4,32.4,0,0,0,.525-4.842a32.4,32.4,0,0,0,.514,5.954A3.042,3.042,0,0,0,3.212,3.265c1.917.517,9.6.517,9.6.517s7.686,0,9.6-.517A3.042,3.042,0,0,0,24.59,1.113,32.4,32.4,0,0,0,25.1-4.842,32.4,32.4,0,0,0,24.59-10.8ZM10.3-1.187V-8.5l6.424,3.655Z" transform="translate(-0.525 13.5)" fill="#008941"/>
</svg>
