<svg xmlns="http://www.w3.org/2000/svg" width="17.547" height="23.56" viewBox="0 0 17.547 23.56">
  <path id="footerPhone" d="M8.651,2.182a6.034,6.034,0,0,0-4.388.479A4.222,4.222,0,0,0,2.043,6.339,19.532,19.532,0,0,0,5.023,16.718a23.92,23.92,0,0,0,7.262,8.06,4.25,4.25,0,0,0,4.241.349,5.743,5.743,0,0,0,2.89-3.26,2.7,2.7,0,0,0-.176-2.259l-1.4-2.5a3.676,3.676,0,0,0-4.521-1.638l-.979.375a1.084,1.084,0,0,1-1.159-.147,6.351,6.351,0,0,1-1.694-3.118,1.146,1.146,0,0,1,.5-1.134l.884-.668a3.676,3.676,0,0,0,.975-4.763L10.416,3.52A2.837,2.837,0,0,0,8.651,2.182Zm-5.138,4.2A2.755,2.755,0,0,1,4.981,3.945,4.567,4.567,0,0,1,8.29,3.607a1.368,1.368,0,0,1,.851.646l1.428,2.493A2.206,2.206,0,0,1,9.985,9.6L9.1,10.27A2.607,2.607,0,0,0,8.048,12.9a7.831,7.831,0,0,0,2.1,3.844,2.548,2.548,0,0,0,2.715.471l.979-.375a2.206,2.206,0,0,1,2.713.982l1.4,2.5a1.232,1.232,0,0,1,.081,1.029,4.278,4.278,0,0,1-2.125,2.434,2.778,2.778,0,0,1-2.81-.235,22.494,22.494,0,0,1-6.809-7.578,18.086,18.086,0,0,1-2.778-9.6Z" transform="translate(-2.038 -1.977)" fill="#63be6a"/>
</svg>
