<svg xmlns="http://www.w3.org/2000/svg" width="23.758" height="23.758" viewBox="0 0 23.758 23.758">
  <path id="FSlogo03" d="M32.775,12.774l-1.791-1.79L27.568,16.19ZM31.879,0A11.879,11.879,0,1,0,43.758,11.879,11.877,11.877,0,0,0,31.879,0Zm7.465,8.372.708-.294a.383.383,0,0,1,.418.083.379.379,0,0,1,.083.124.383.383,0,0,1-.207.5l-.707.293a.383.383,0,0,1-.295-.708ZM34.678,4.119l.293-.708a.383.383,0,0,1,.708.295l-.294.708a.383.383,0,0,1-.737-.148.39.39,0,0,1,.03-.147Zm-2.8-1.629a.383.383,0,0,1,.383.383V3.64a.383.383,0,1,1-.766,0V2.874a.383.383,0,0,1,.383-.383Zm-3.593.715a.383.383,0,0,1,.5.207l.293.707a.383.383,0,0,1-.626.42.379.379,0,0,1-.082-.127L28.079,3.7a.383.383,0,0,1,.208-.5ZM25.241,5.241a.383.383,0,0,1,.542,0l.54.542a.383.383,0,0,1-.542.54l-.542-.542a.383.383,0,0,1,0-.54Zm-2.75,6.638a.383.383,0,0,1,.383-.383h.767a.383.383,0,0,1,0,.766h-.767a.383.383,0,0,1-.383-.383Zm1.923,3.507-.708.294a.383.383,0,0,1-.418-.083.379.379,0,0,1-.083-.124.383.383,0,0,1,.207-.5l.707-.293a.383.383,0,0,1,.295.708Zm.207-6.514a.383.383,0,0,1-.5.209l-.708-.293a.383.383,0,0,1,.295-.708l.708.294a.383.383,0,0,1,.207.5ZM29.08,19.639l-.293.708a.383.383,0,0,1-.709-.293l.294-.708a.384.384,0,0,1,.207-.213.383.383,0,0,1,.5.506Zm3.182,1.245a.383.383,0,1,1-.766,0v-.766a.383.383,0,1,1,.766,0Zm3.209-.331a.383.383,0,0,1-.418-.083.388.388,0,0,1-.083-.124l-.293-.707a.383.383,0,0,1,.708-.293l.294.708a.383.383,0,0,1-.208.5Zm3.046-2.035a.383.383,0,0,1-.542,0l-.54-.542a.383.383,0,0,1,.542-.54l.542.542a.383.383,0,0,1,0,.54Zm-5.189-5.189L24.9,18.856,30.43,10.43,38.856,4.9Zm7.225,2.144a.383.383,0,0,1-.5.207l-.708-.294a.383.383,0,1,1,.295-.707l.708.293a.383.383,0,0,1,.206.5Zm.332-3.209h-.767a.383.383,0,0,1,0-.766h.767a.383.383,0,0,1,0,.766Z" transform="translate(-20)" fill="#fff"/>
</svg>
