<svg xmlns="http://www.w3.org/2000/svg" width="23.751" height="23.764" viewBox="0 0 23.751 23.764">
  <path id="FSlogo01" d="M51.837,0h.13a11.5,11.5,0,0,1,5.9,1.621l-.053-.03A11.724,11.724,0,0,1,62.45,6.453l.031.066L52.645,6a6.477,6.477,0,0,0-3.924,1.006l.026-.016A5.746,5.746,0,0,0,46.3,10l-.012.04L42.633,4.413A11.648,11.648,0,0,1,46.689,1.19l.069-.03A11.707,11.707,0,0,1,51.833,0h0Zm-9.9,5.368L46.4,14.161a6.517,6.517,0,0,0,2.763,2.859l.035.017a5.774,5.774,0,0,0,3.917.59l-.037.006-3.049,5.978A11.874,11.874,0,0,1,41.35,17.4l-.031-.065A11.511,11.511,0,0,1,40,11.946v-.137a11.628,11.628,0,0,1,1.962-6.482l-.027.043Zm21.023,2.24a11.406,11.406,0,0,1,.792,4.113V11.9a12.016,12.016,0,0,1-.67,3.971l.026-.084a11.761,11.761,0,0,1-2.044,3.625l.016-.02a11.917,11.917,0,0,1-3.2,2.744l-.056.031a11.567,11.567,0,0,1-5.9,1.6c-.246,0-.49-.008-.732-.023l.034,0,5.368-8.258a6.287,6.287,0,0,0,1.093-3.864v.014A5.772,5.772,0,0,0,56.262,7.95l.006.007Zm-11.079.265a4.005,4.005,0,1,1-2.83,1.173,4.006,4.006,0,0,1,2.83-1.173Z" transform="translate(-40)" fill="#fff"/>
</svg>
