<svg xmlns="http://www.w3.org/2000/svg" width="23.761" height="23.759" viewBox="0 0 23.761 23.759">
  <path id="FSlogo05" d="M19.8,3.021a8.335,8.335,0,0,0-4.734-1.459h-.045a8.151,8.151,0,0,0-3.909.992l.043-.022A10.214,10.214,0,0,0,7.985,5.164l-.016.021A9.717,9.717,0,0,0,6.406,8.007l-.021.068a11.135,11.135,0,0,0-.642,3.513v.568a11.393,11.393,0,0,0,.668,3.6l-.025-.079a9.8,9.8,0,0,0,1.6,2.91l-.015-.02A10.2,10.2,0,0,0,11.1,21.2l.053.027a8.083,8.083,0,0,0,3.862.968h.049a8.375,8.375,0,0,0,4.763-1.477l-.029.019a11.926,11.926,0,0,1-3.558,2.2l-.081.029a11.444,11.444,0,0,1-4.221.792H11.88q-.384,0-.57-.014a11.507,11.507,0,0,1-4.484-1.118l.069.03A11.751,11.751,0,0,1,.917,16.452l-.029-.078A11.6,11.6,0,0,1,0,11.883,11.769,11.769,0,0,1,.97,7.19l-.03.076A11.747,11.747,0,0,1,7.188.97L7.264.941A11.427,11.427,0,0,1,11.845,0h.072A11.833,11.833,0,0,1,19.8,3.033l-.011-.01Zm3.965,8.856v.06a11.5,11.5,0,0,1-1.05,4.818l.03-.071a12.145,12.145,0,0,1-2.816,3.924l-.008.007a5.526,5.526,0,0,1-2.938.835h0a5.692,5.692,0,0,1-3.4-1.125l.015.011a6.464,6.464,0,0,0,3.344-3.052l.017-.037a10.64,10.64,0,0,0,1.32-5.381v.011l0-.2a10.732,10.732,0,0,0-1.342-5.214l.028.055a6.5,6.5,0,0,0-3.311-3.087l-.043-.016a5.736,5.736,0,0,1,3.366-1.1h0a5.651,5.651,0,0,1,3.019.875l-.024-.014a11.843,11.843,0,0,1,2.761,3.837l.03.074a11.475,11.475,0,0,1,1,4.727v.059Z" transform="translate(0)" fill="#fff"/>
</svg>
