<svg xmlns="http://www.w3.org/2000/svg" width="23.758" height="23.448" viewBox="0 0 23.758 23.448">
  <path id="FSlogo02" d="M41.97,23.448a11.474,11.474,0,0,1-6.689-2.032,12.27,12.27,0,0,1-4.369-5.379,11.65,11.65,0,0,1-.888-4.063,17.258,17.258,0,0,1,.345-4.488,17.5,17.5,0,0,1,1.472-4.212A11.151,11.151,0,0,1,34.214,0l-.146,3.793q.146-.189.9-.209t.928.209A4.46,4.46,0,0,1,38.026,1.93a7.324,7.324,0,0,1,3.109-.8,8.7,8.7,0,0,0-1.584,2,3.806,3.806,0,0,0-.776,2.207,5.217,5.217,0,0,0,.829.182q.5.074.835.1t.9.054q.564.027.669.04.2.068.126.614a2.276,2.276,0,0,1-.4,1.019,2.187,2.187,0,0,1-.219.25,3.8,3.8,0,0,1-.749.479,4.455,4.455,0,0,1-1.339.459l.2,2.551-1.843-.9a1.691,1.691,0,0,0-.1,1.1,2.166,2.166,0,0,0,.478.9,2.016,2.016,0,0,0,.868.56,2.131,2.131,0,0,0,1.074.088,4.214,4.214,0,0,0,1.3-.466q.623-.344,1.107-.607a1.807,1.807,0,0,1,.975-.236,1.756,1.756,0,0,1,1.186.445.893.893,0,0,1,.259.877c-.009.018-.02.043-.033.074a1.007,1.007,0,0,1-.113.169.846.846,0,0,1-.239.209,1.331,1.331,0,0,1-.418.142,1.985,1.985,0,0,1-.617.013,4.721,4.721,0,0,1-1.916,1.829,5.216,5.216,0,0,1-2.778.4A5.3,5.3,0,0,0,40.969,16.8a5.1,5.1,0,0,0,2.234.081,8.067,8.067,0,0,0,2.048-.7A6.722,6.722,0,0,0,46.948,15a5.279,5.279,0,0,0,1.067-1.4,5.577,5.577,0,0,0,.517-2.6,8.024,8.024,0,0,0-.5-2.545,4.121,4.121,0,0,0-1.041-1.687,7.638,7.638,0,0,1,1.816,1.073,3.578,3.578,0,0,1,1.021,1.519,9.815,9.815,0,0,0-.762-4.63A9.615,9.615,0,0,0,46.292.891a9.932,9.932,0,0,1,5.462,3.773,12.016,12.016,0,0,1,2,6.986,10.521,10.521,0,0,1-.537,3.442A11.574,11.574,0,0,1,51.582,18.3a13.812,13.812,0,0,1-2.506,2.646,11.436,11.436,0,0,1-7.106,2.5Z" transform="translate(-30)" fill="#fff"/>
</svg>
