<svg xmlns="http://www.w3.org/2000/svg" width="33" height="16.569" viewBox="0 0 33 16.569">
  <g id="FSlogo4" transform="translate(0 -0.1)">
    <path id="Path_125075" data-name="Path 125075" d="M8.818.188l3.157,10.029L15.133.188h2.285L12.192,16.665h-.217L8.709,6.454,5.443,16.665H5.225L0,.188H2.286L5.443,10.217,7.577,3.464,6.532.188H8.818Z" transform="translate(0 0.004)" fill="#fff"/>
    <path id="Path_125076" data-name="Path 125076" d="M23.293,11.376a5.683,5.683,0,0,1-1.273,3.764,4.339,4.339,0,0,1-5.955.62,5.309,5.309,0,0,1-1.676-2.451l1.785-.692a3.79,3.79,0,0,0,1.035,1.474,2.279,2.279,0,0,0,1.513.54,1.832,1.832,0,0,0,1.546-.956,4.074,4.074,0,0,0,.631-2.3,3.5,3.5,0,0,0-.675-2.3,3,3,0,0,0-2.459-.956h-.871V7.145l3.048-4.923h-3.68L15.237,3.85h-.652V.188h8.49v1L19.853,6.372a4.463,4.463,0,0,1,2.569,1.851,5.656,5.656,0,0,1,.871,3.152Z" transform="translate(0.615 0.004)" fill="#fff"/>
    <path id="Path_125077" data-name="Path 125077" d="M31.778.1l.37,2.1L30.837,4.546A4.564,4.564,0,0,0,29.5,3a2.209,2.209,0,0,0-1.881-.427,3.822,3.822,0,0,0-2.423,2.477,7.969,7.969,0,0,0-.57,2.929A6.272,6.272,0,0,0,24.776,9.7a7.281,7.281,0,0,1-.788-3.39,8.048,8.048,0,0,1,.959-4.029A3.386,3.386,0,0,1,27.332.393a2.8,2.8,0,0,1,2.052.718,6.165,6.165,0,0,1,1.1,1.393L31.778.1Zm.16,11.9A10.283,10.283,0,0,1,31,13.341a5.716,5.716,0,0,1-1.8,1.358,3.564,3.564,0,0,1-2,.319,4.071,4.071,0,0,1-1.776-.676,6.674,6.674,0,0,1-1.282-1.187c-.372-.489-.951-1.466-.951-1.466s.323.978.525,1.394a8.918,8.918,0,0,0,.981,1.607,4.665,4.665,0,0,0,2.788,1.845,3.738,3.738,0,0,0,2.593-.5,7,7,0,0,0,1.055-.85,7.51,7.51,0,0,0,.816-1c.127-.185.334-.559.334-.559Z" transform="translate(0.728)" fill="#fff"/>
  </g>
</svg>
