<svg xmlns="http://www.w3.org/2000/svg" width="23.758" height="23.758" viewBox="0 0 23.758 23.758">
  <path id="FSlogo04" d="M18.448,22.169c-3.26,1.8-6.074,2.173-7.629.592-1.6-1.618-.746-5.859,1.56-10.112a28,28,0,0,1,4.305-5.938c.222-.226,1.336-1.357,1.41-1.357a5.392,5.392,0,0,1-.668.378,19.982,19.982,0,0,0-4.8,4.257A10.891,10.891,0,0,1,16.7,3.626a10.571,10.571,0,0,1,7.174-2.1c3.677-1.693,7.1-2.085,8.544-.616,1.336,1.356,1.262,3.617.148,6.331-.012.025-.021.052-.032.077a11.08,11.08,0,0,1,1.138,6.4h-.955l-.169,0H18.54v.226a4.748,4.748,0,0,0,4.677,4.522,4.821,4.821,0,0,0,4.231-2.412h5.678a10.9,10.9,0,0,1-2.338,3.831,10.692,10.692,0,0,1-3.666,2.538,10.535,10.535,0,0,1-8.674-.254Zm-.721-.388a10.863,10.863,0,0,1-4.718-5.727c-1.379,2.756-1.734,5.06-.557,6.256.966.981,2.9.754,5.272-.527Zm14.453-15.1.018-.041c.891-1.959.966-3.616.148-4.6-1.032-1.048-3.017-.906-5.372.2A10.775,10.775,0,0,1,32.181,6.677Zm-4.287,4.179v-.074A4.517,4.517,0,0,0,23.439,6.41a4.869,4.869,0,0,0-4.824,4.372v.075h9.279Z" transform="translate(-10)" fill="#fff"/>
</svg>
