<svg xmlns="http://www.w3.org/2000/svg" width="23.042" height="18.714" viewBox="0 0 23.042 18.714">
  <path id="FTwetter" d="M20.674-9.4a10.151,10.151,0,0,0,2.368-2.442,9.467,9.467,0,0,1-2.719.731,4.71,4.71,0,0,0,2.076-2.6,9.3,9.3,0,0,1-3,1.14,4.711,4.711,0,0,0-3.451-1.491,4.72,4.72,0,0,0-4.722,4.722,5.331,5.331,0,0,0,.117,1.082A13.423,13.423,0,0,1,1.608-13.2a4.687,4.687,0,0,0-.643,2.383A4.719,4.719,0,0,0,3.07-6.881a4.756,4.756,0,0,1-2.135-.6v.058A4.723,4.723,0,0,0,4.722-2.787a4.993,4.993,0,0,1-1.243.161A5.952,5.952,0,0,1,2.588-2.7,4.731,4.731,0,0,0,7,.576,9.458,9.458,0,0,1,1.14,2.593,9.773,9.773,0,0,1,0,2.535a13.345,13.345,0,0,0,7.252,2.12A13.344,13.344,0,0,0,20.688-8.782C20.688-8.986,20.688-9.191,20.674-9.4Z" transform="translate(0 14.06)" fill="#008941"/>
</svg>
