<svg id="google-play" xmlns="http://www.w3.org/2000/svg" xmlns:xlink="http://www.w3.org/1999/xlink" width="209.081" height="70.779" viewBox="0 0 209.081 70.779">
  <defs>
    <linearGradient id="linear-gradient" x1="3.021" y1="0.798" x2="2.909" y2="0.769" gradientUnits="objectBoundingBox">
      <stop offset="0" stop-color="#00a0ff"/>
      <stop offset="0.007" stop-color="#00a1ff"/>
      <stop offset="0.26" stop-color="#00beff"/>
      <stop offset="0.512" stop-color="#00d2ff"/>
      <stop offset="0.76" stop-color="#00dfff"/>
      <stop offset="1" stop-color="#00e3ff"/>
    </linearGradient>
    <linearGradient id="linear-gradient-2" x1="2.632" y1="1.244" x2="2.371" y2="1.244" gradientUnits="objectBoundingBox">
      <stop offset="0" stop-color="#ffe000"/>
      <stop offset="0.409" stop-color="#ffbd00"/>
      <stop offset="0.775" stop-color="orange"/>
      <stop offset="1" stop-color="#ff9c00"/>
    </linearGradient>
    <linearGradient id="linear-gradient-3" x1="2.36" y1="0.504" x2="2.27" y2="0.351" gradientUnits="objectBoundingBox">
      <stop offset="0" stop-color="#ff3a44"/>
      <stop offset="1" stop-color="#c31162"/>
    </linearGradient>
    <linearGradient id="linear-gradient-4" x1="2.29" y1="1.652" x2="2.331" y2="1.583" gradientUnits="objectBoundingBox">
      <stop offset="0" stop-color="#32a071"/>
      <stop offset="0.069" stop-color="#2da771"/>
      <stop offset="0.476" stop-color="#15cf74"/>
      <stop offset="0.801" stop-color="#06e775"/>
      <stop offset="1" stop-color="#00f076"/>
    </linearGradient>
  </defs>
  <g id="available-on-the-app-store-1" transform="translate(0)">
    <path id="Path_5691" data-name="Path 5691" d="M8.493,0H200.587a8.5,8.5,0,0,1,8.493,8.493V62.285a8.5,8.5,0,0,1-8.493,8.493H8.493A8.5,8.5,0,0,1,0,62.285V8.493A8.5,8.5,0,0,1,8.493,0Z" fill="#fff"/>
  </g>
  <g id="Google_Play_2016_logo" transform="translate(16.801 14.863)">
    <path id="Path_5694" data-name="Path 5694" d="M.727,24.406A3.232,3.232,0,0,0,0,26.657V61.941a3.082,3.082,0,0,0,.744,2.234l.125.106,19.77-19.77v-.444L.852,24.3Z" transform="translate(0 -23.776)" fill-rule="evenodd" fill="url(#linear-gradient)"/>
    <path id="Path_5695" data-name="Path 5695" d="M962.895,648.755l-6.594-6.6V641.7l6.6-6.6.142.088,7.8,4.434c2.234,1.259,2.234,3.334,0,4.611l-7.8,4.434S962.895,648.755,962.895,648.755Z" transform="translate(-935.678 -621.404)" fill-rule="evenodd" fill="url(#linear-gradient-2)"/>
    <path id="Path_5696" data-name="Path 5696" d="M60.332,958.439,53.6,951.7,33.7,971.6c.727.781,1.949.869,3.317.106l23.315-13.262" transform="translate(-32.973 -931.177)" fill-rule="evenodd" fill="url(#linear-gradient-3)"/>
    <path id="Path_5697" data-name="Path 5697" d="M60.332,14.056,37.017.811C35.652.031,34.427.136,33.7.917L53.593,20.793l6.739-6.737Z" transform="translate(-32.973 -0.27)" fill-rule="evenodd" fill="url(#linear-gradient-4)"/>
    <path id="Path_5698" data-name="Path 5698" d="M60.972,1257.6l-23.156,13.156c-1.294.744-2.448.692-3.192.017l-.125.125.125.106c.744.673,1.9.727,3.192-.017l23.315-13.245Z" transform="translate(-33.756 -1230.481)" fill-rule="evenodd" opacity="0.2"/>
    <path id="Path_5699" data-name="Path 5699" d="M1269.262,953.774,1261.3,958.3l.142.142,7.8-4.434a2.8,2.8,0,0,0,1.667-2.305A2.885,2.885,0,0,1,1269.262,953.774Z" transform="translate(-1234.101 -931.177)" fill-rule="evenodd" opacity="0.12"/>
    <path id="Path_5700" data-name="Path 5700" d="M4.043.78,35.161,18.459a2.925,2.925,0,0,1,1.667,2.074,2.8,2.8,0,0,0-1.667-2.305L4.043.549C1.809-.727,0,.336,0,2.889V3.12C0,.567,1.809-.479,4.043.78Z" transform="translate(0 -0.008)" fill="#fff" fill-rule="evenodd" opacity="0.25"/>
    <path id="Path_5701" data-name="Path 5701" d="M2059.8,434.554a10.4,10.4,0,0,1,10.4-10.254,9.782,9.782,0,0,1,7.025,2.825l-1.975,1.975a7.137,7.137,0,0,0-5.053-2,7.453,7.453,0,0,0,0,14.905,6.847,6.847,0,0,0,5.175-2.053,5.86,5.86,0,0,0,1.527-3.526h-6.7v-2.795h9.428a9.136,9.136,0,0,1,.151,1.749,9.259,9.259,0,0,1-2.428,6.553,9.376,9.376,0,0,1-7.153,2.877,10.394,10.394,0,0,1-10.4-10.254Zm27.6-2.95a6.6,6.6,0,1,0,6.626,6.6A6.512,6.512,0,0,0,2087.407,431.6Zm0,10.605a4.013,4.013,0,1,1,3.724-4A3.82,3.82,0,0,1,2087.407,442.209Zm14.458-10.605a6.6,6.6,0,1,0,6.627,6.6A6.508,6.508,0,0,0,2101.865,431.6Zm0,10.605a4.013,4.013,0,1,1,3.727-4A3.82,3.82,0,0,1,2101.865,442.209Zm17.745-10.2v1.074h-.1a4.561,4.561,0,0,0-3.475-1.477,6.61,6.61,0,0,0,0,13.208,4.5,4.5,0,0,0,3.475-1.5h.1v.949c0,2.525-1.35,3.877-3.526,3.877a3.658,3.658,0,0,1-3.327-2.348l-2.527,1.05a6.3,6.3,0,0,0,5.853,3.9c3.4,0,6.275-2,6.275-6.879V432Zm-3.325,10.2a4.015,4.015,0,0,1,0-8c1.976,0,3.526,1.7,3.526,4.026A3.688,3.688,0,0,1,2116.285,442.209ZM2124.361,425h2.9v19.408h-2.9Zm10.858,17.208a3.355,3.355,0,0,1-3.2-2l8.829-3.655-.3-.75a6.137,6.137,0,0,0-5.652-4.2,6.276,6.276,0,0,0-6.228,6.6,6.462,6.462,0,0,0,6.553,6.6,6.559,6.559,0,0,0,5.5-2.926l-2.251-1.5A3.771,3.771,0,0,1,2135.219,442.209Zm-.227-8.054a2.559,2.559,0,0,1,2.45,1.4l-5.9,2.452A3.624,3.624,0,0,1,2134.992,434.155ZM2153.585,425h-6.94v19.408h2.9v-7.351h4.045a6.036,6.036,0,1,0,0-12.054Zm.075,9.355h-4.118V427.7h4.118a3.328,3.328,0,1,1,0,6.655Zm10.787,10.053V425h-2.9v19.408Zm13.01-.035v-7.44c0-3.446-2.575-5.367-5.9-5.367a5.438,5.438,0,0,0-5.164,2.972l2.57,1.072a2.749,2.749,0,0,1,2.648-1.423,2.786,2.786,0,0,1,3.042,2.5v.2a6.4,6.4,0,0,0-3.021-.75c-2.771,0-5.592,1.522-5.592,4.369,0,2.6,2.273,4.27,4.82,4.27a4.081,4.081,0,0,0,3.694-1.9h.1v1.5h2.8Zm-6.243-2.169c-.949,0-2.273-.474-2.273-1.645,0-1.5,1.65-2.077,3.073-2.077a5.159,5.159,0,0,1,2.648.649A3.519,3.519,0,0,1,2171.214,442.2Zm16.427-10.213-3.321,8.412h-.1l-3.446-8.412h-3.121l5.167,11.761-2.948,6.541h3.021l7.964-18.3Z" transform="translate(-2015.381 -415.15)" fill="#808285" fill-rule="evenodd"/>
  </g>
</svg>
