<svg width="16" height="16" viewBox="0 0 16 16" fill="none" xmlns="http://www.w3.org/2000/svg">
<path fill-rule="evenodd" clip-rule="evenodd" d="M8.00033 8.16671C6.80566 8.16671 5.83366 7.19471 5.83366 6.00004C5.83366 4.80537 6.80566 3.83337 8.00033 3.83337C9.19499 3.83337 10.167 4.80537 10.167 6.00004C10.167 7.19471 9.19499 8.16671 8.00033 8.16671ZM8.00033 4.83337C7.35699 4.83337 6.83366 5.35671 6.83366 6.00004C6.83366 6.64337 7.35699 7.16671 8.00033 7.16671C8.64366 7.16671 9.16699 6.64337 9.16699 6.00004C9.16699 5.35671 8.64366 4.83337 8.00033 4.83337Z" fill="#384250"/>
<path fill-rule="evenodd" clip-rule="evenodd" d="M6.81563 12.0234C7.13563 12.3307 7.5563 12.5 8.0003 12.5C8.4443 12.5 8.86428 12.3307 9.18428 12.0227C9.34028 11.8727 9.50031 11.7207 9.66231 11.5674C11.6603 9.67272 14.1469 7.31468 12.773 4.0107C11.983 2.11003 10.0643 0.833374 8.0003 0.833374C5.9363 0.833374 4.01829 2.11003 3.22829 4.0107C1.85896 7.30204 4.32495 9.64938 6.30629 11.5354L6.32546 11.5537C6.49092 11.7114 6.65452 11.8674 6.81563 12.0234ZM4.15163 4.3947C4.7883 2.8627 6.33497 1.83337 8.0003 1.83337V1.83271C9.66563 1.83271 11.213 2.86204 11.8503 4.39404C12.9596 7.06204 10.9343 8.98338 8.97497 10.8414C8.81097 10.9967 8.64964 11.15 8.49164 11.302C8.35897 11.43 8.1843 11.5 8.0003 11.5C7.8163 11.5 7.64163 11.4294 7.51029 11.3034C7.34229 11.1407 7.17031 10.9767 6.99564 10.8107C5.05438 8.96277 3.04634 7.05127 4.15163 4.3947Z" fill="#384250"/>
<path d="M8.00033 15.1667C5.83366 15.1667 2.16699 14.746 2.16699 13.1694C2.16699 12.4274 2.971 11.8694 4.557 11.512C4.82633 11.4514 5.09365 11.6207 5.15498 11.89C5.21565 12.1594 5.04632 12.4267 4.77699 12.488C3.63032 12.7467 3.23898 13.058 3.17298 13.17C3.33298 13.4694 4.92431 14.1667 8.00098 14.1667C11.0776 14.1667 12.6683 13.4694 12.829 13.17C12.763 13.058 12.3717 12.746 11.225 12.488C10.9557 12.4274 10.7863 12.16 10.847 11.89C10.9077 11.6207 11.175 11.4514 11.445 11.512C13.031 11.8694 13.835 12.4267 13.835 13.1694C13.835 13.832 13.1863 14.3507 11.9083 14.7094C10.8583 15.004 9.47099 15.1667 8.00166 15.1667H8.00033Z" fill="#384250"/>
</svg>
