<svg width="16" height="16" viewBox="0 0 16 16" fill="none" xmlns="http://www.w3.org/2000/svg">
<path d="M4.83333 3.99992C4.83333 3.72378 5.05719 3.49992 5.33333 3.49992L6.66667 3.49992C6.94281 3.49992 7.16667 3.72378 7.16667 3.99992C7.16667 4.27606 6.94281 4.49992 6.66667 4.49992L5.33333 4.49992C5.05719 4.49992 4.83333 4.27606 4.83333 3.99992Z" fill="#1B8354"/>
<path d="M4.83333 5.99992C4.83333 5.72378 5.05719 5.49992 5.33333 5.49992H6.66667C6.94281 5.49992 7.16667 5.72378 7.16667 5.99992C7.16667 6.27606 6.94281 6.49992 6.66667 6.49992H5.33333C5.05719 6.49992 4.83333 6.27606 4.83333 5.99992Z" fill="#1B8354"/>
<path d="M4.83333 7.99992C4.83333 7.72378 5.05719 7.49992 5.33333 7.49992H6.66667C6.94281 7.49992 7.16667 7.72378 7.16667 7.99992C7.16667 8.27606 6.94281 8.49992 6.66667 8.49992H5.33333C5.05719 8.49992 4.83333 8.27606 4.83333 7.99992Z" fill="#1B8354"/>
<path fill-rule="evenodd" clip-rule="evenodd" d="M4 0.833252C3.57551 0.833252 3.20066 0.854741 2.88216 0.924709C2.55799 0.995922 2.26115 1.124 2.02595 1.3592C1.79074 1.5944 1.66267 1.89124 1.59146 2.21541C1.52149 2.53391 1.5 2.90876 1.5 3.33325L1.5 14.6666C1.5 14.9427 1.72386 15.1666 2 15.1666L14 15.1666C14.2761 15.1666 14.5 14.9427 14.5 14.6666L14.5 7.33325C14.5 6.90876 14.4785 6.53391 14.4085 6.21541C14.3373 5.89124 14.2093 5.5944 13.9741 5.3592C13.7389 5.124 13.442 4.99592 13.1178 4.92471C12.7993 4.85474 12.4245 4.83325 12 4.83325L10.5 4.83325L10.5 3.33325C10.5 2.90877 10.4785 2.53391 10.4085 2.21541C10.3373 1.89124 10.2093 1.5944 9.97405 1.3592C9.73885 1.124 9.44201 0.995922 9.11785 0.924709C8.79934 0.854741 8.42449 0.833252 8 0.833252L4 0.833252ZM9.5 14.1666H8.16667L8.16667 11.9701C8.16671 11.6816 8.16674 11.417 8.1378 11.2018C8.10594 10.9648 8.03098 10.7143 7.82496 10.5083C7.61895 10.3023 7.36846 10.2273 7.13148 10.1955C6.91627 10.1665 6.65171 10.1666 6.36317 10.1666H5.63684C5.34829 10.1666 5.08374 10.1665 4.86853 10.1955C4.63155 10.2273 4.38106 10.3023 4.17505 10.5083C3.96903 10.7143 3.89407 10.9648 3.8622 11.2018C3.83327 11.417 3.8333 11.6815 3.83334 11.9701L3.83334 14.1666H2.5L2.5 3.33325C2.5 2.93041 2.52168 2.6416 2.56817 2.42997C2.61341 2.22401 2.67509 2.12427 2.73305 2.06631C2.79102 2.00834 2.89076 1.94667 3.09672 1.90142C3.30834 1.85493 3.59715 1.83325 4 1.83325L8 1.83325C8.40285 1.83325 8.69166 1.85493 8.90328 1.90142C9.10924 1.94667 9.20898 2.00834 9.26695 2.06631C9.32491 2.12427 9.38659 2.22401 9.43183 2.42997C9.47832 2.6416 9.5 2.93041 9.5 3.33325L9.5 14.1666ZM4.83334 14.1666L4.83334 11.9999C4.83334 11.6715 4.8344 11.4755 4.85329 11.335C4.86194 11.2707 4.87214 11.2384 4.87811 11.2239C4.87949 11.2205 4.88057 11.2183 4.88125 11.217L4.88216 11.2154L4.88379 11.2145C4.88507 11.2138 4.88728 11.2127 4.89065 11.2114C4.90517 11.2054 4.93741 11.1952 5.00178 11.1865C5.14226 11.1677 5.33827 11.1666 5.66667 11.1666H6.33334C6.66174 11.1666 6.85775 11.1677 6.99823 11.1865C7.0626 11.1952 7.09484 11.2054 7.10936 11.2114C7.11273 11.2127 7.11493 11.2138 7.11622 11.2145L7.11785 11.2154L7.11876 11.217C7.11944 11.2183 7.12052 11.2205 7.1219 11.2239C7.12787 11.2384 7.13807 11.2707 7.14672 11.335C7.16561 11.4755 7.16667 11.6715 7.16667 11.9999L7.16667 14.1666L4.83334 14.1666ZM10.5 5.83325L12 5.83325C12.4028 5.83325 12.6917 5.85493 12.9033 5.90142C13.1092 5.94667 13.209 6.00834 13.2669 6.06631C13.3249 6.12427 13.3866 6.22401 13.4318 6.42997C13.4783 6.6416 13.5 6.93041 13.5 7.33325L13.5 14.1666L10.5 14.1666L10.5 5.83325Z" fill="#1B8354"/>
</svg>
