<svg width="16" height="16" viewBox="0 0 16 16" fill="none" xmlns="http://www.w3.org/2000/svg">
<path d="M6.70356 2.31117C7.12014 2.21664 7.55409 2.16663 8.00033 2.16663C11.222 2.16663 13.8337 4.7783 13.8337 7.99996C13.8337 9.67196 13.1305 11.1799 12.0024 12.244V11.3333C12.0024 11.0571 11.7786 10.8333 11.5024 10.8333C11.2263 10.8333 11.0024 11.0571 11.0024 11.3333V13.2777C11.0024 13.5539 11.2263 13.7777 11.5024 13.7777H13.667C13.9431 13.7777 14.167 13.5539 14.167 13.2777C14.167 13.0016 13.9431 12.7777 13.667 12.7777H12.8857C14.0903 11.546 14.8337 9.85987 14.8337 7.99996C14.8337 4.22601 11.7743 1.16663 8.00033 1.16663C7.47913 1.16663 6.97097 1.22507 6.48227 1.33596C6.21298 1.39707 6.04421 1.66491 6.10531 1.93421C6.16642 2.2035 6.43426 2.37227 6.70356 2.31117Z" fill="#384250"/>
<path d="M2.33366 2.23312C2.05752 2.23312 1.83366 2.45698 1.83366 2.73312C1.83366 3.00927 2.05752 3.23312 2.33366 3.23312H3.1043C1.90593 4.46385 1.16699 6.14555 1.16699 7.99996C1.16699 11.7739 4.22638 14.8333 8.00033 14.8333C8.52152 14.8333 9.02968 14.7748 9.51838 14.664C9.78767 14.6029 9.95644 14.335 9.89534 14.0657C9.83423 13.7964 9.56639 13.6276 9.29709 13.6887C8.88051 13.7833 8.44656 13.8333 8.00033 13.8333C4.77866 13.8333 2.16699 11.2216 2.16699 7.99996C2.16699 6.33607 2.86334 4.83469 3.98181 3.7715V4.66663C3.98181 4.94277 4.20566 5.16663 4.48181 5.16663C4.75795 5.16663 4.98181 4.94277 4.98181 4.66663V2.73312C4.98181 2.45698 4.75795 2.23312 4.48181 2.23312H2.33366Z" fill="#384250"/>
<path fill-rule="evenodd" clip-rule="evenodd" d="M7.67493 4.287C7.67493 4.287 7.67493 4.287 8.00033 4.66663C8.32572 4.287 8.32572 4.287 8.32572 4.287C8.13848 4.1265 7.86217 4.1265 7.67493 4.287ZM8.00033 4.66663L8.32572 4.287L8.32676 4.28789L8.32865 4.28952L8.33491 4.29494L8.35705 4.31431C8.37592 4.33094 8.40287 4.35492 8.43673 4.38568C8.50443 4.44716 8.6 4.53592 8.71418 4.64738C8.94191 4.86969 9.24674 5.18527 9.55296 5.55711C9.85796 5.92746 10.1726 6.36357 10.413 6.82709C10.651 7.28627 10.8337 7.80556 10.8337 8.33329C10.8337 9.8981 9.56513 11.1666 8.00033 11.1666C6.43552 11.1666 5.16699 9.8981 5.16699 8.33329C5.16699 7.80556 5.3496 7.28627 5.5877 6.82709C5.82804 6.36357 6.14269 5.92746 6.44769 5.55711C6.75391 5.18527 7.05874 4.86969 7.28647 4.64738C7.40065 4.53592 7.49622 4.44716 7.56392 4.38568C7.59778 4.35492 7.62473 4.33094 7.64361 4.31431L7.66574 4.29494L7.672 4.28952L7.67389 4.28789L7.67493 4.287L8.00033 4.66663Z" fill="#384250"/>
<path d="M7.21962 6.19281C7.49674 5.85632 7.77524 5.56773 7.98501 5.36295L8.00033 5.34803L8.01564 5.36295C8.22541 5.56773 8.50391 5.85632 8.78103 6.19281C9.05936 6.53079 9.32804 6.90718 9.5252 7.28741C9.7246 7.67198 9.83366 8.02769 9.83366 8.33329C9.83366 9.34581 9.01285 10.1666 8.00033 10.1666C6.9878 10.1666 6.16699 9.34581 6.16699 8.33329C6.16699 8.02769 6.27605 7.67198 6.47545 7.28741C6.67261 6.90718 6.94129 6.53079 7.21962 6.19281Z" fill="#384250"/>
</svg>
