<svg xmlns="http://www.w3.org/2000/svg" width="20.82" height="24.592" viewBox="0 0 20.82 24.592">
  <path id="locationGreen" d="M1028.15,2532.69a9.247,9.247,0,0,0-9.41,9.06,8.92,8.92,0,0,0,.17,1.7c.01.03.03.13.07.3a8.481,8.481,0,0,0,.63,1.79c1.01,2.29,3.24,5.82,8.12,9.6a.665.665,0,0,0,.42.14.646.646,0,0,0,.42-.14c4.88-3.78,7.11-7.31,8.13-9.6a8.871,8.871,0,0,0,.63-1.79,2.322,2.322,0,0,0,.06-.3,8.912,8.912,0,0,0,.17-1.7,9.26,9.26,0,0,0-9.41-9.06Zm0,3.76a4.957,4.957,0,1,1-5.1,4.95A5.036,5.036,0,0,1,1028.15,2536.45Z" transform="translate(-1017.74 -2531.688)" fill="none" stroke="#63be6a" stroke-width="2"/>
</svg>
