<svg width="230" height="57" viewBox="0 0 230 57" fill="none" xmlns="http://www.w3.org/2000/svg">
<g clip-path="url(#clip0_1_47086)">
<mask id="mask0_1_47086" style="mask-type:luminance" maskUnits="userSpaceOnUse" x="0" y="0" width="230" height="57">
<path d="M229.5 0.5H0.5V56.5H229.5V0.5Z" fill="white"/>
</mask>
<g mask="url(#mask0_1_47086)">
<path d="M5.35453 17.8036C5.85054 17.8036 6.19831 17.4188 6.19831 16.9508C6.19831 16.4827 5.85054 16.1008 5.35453 16.1008C4.85852 16.1008 4.51074 16.4856 4.51074 16.9508C4.51074 17.416 4.85852 17.8036 5.35453 17.8036Z" fill="#005D45"/>
<path d="M2.96879 17.8036C3.45055 17.8036 3.81258 17.4188 3.81258 16.9508C3.81258 16.4827 3.4477 16.1008 2.96879 16.1008C2.45567 16.1008 2.125 16.4856 2.125 16.9508C2.125 17.416 2.45567 17.8036 2.96879 17.8036Z" fill="#005D45"/>
<path d="M15.1979 21.0914C15.1979 21.5595 15.5457 21.927 16.1443 21.927C16.743 21.927 17.105 21.459 17.105 20.942C17.105 19.825 15.9619 19.0555 14.719 19.0555C12.6638 19.0555 10.8593 20.6578 10.8593 22.8774C10.8593 24.2644 11.4893 25.3986 12.4842 26.0649H8.0115C7.23327 25.9988 7.1506 25.1804 7.1506 24.7296V20.4051C7.1506 20.0548 7.16771 19.6212 7.26748 19.1876H6.43795C6.32107 19.3053 6.35528 19.3714 6.32107 19.4374C6.25551 19.6384 6.17284 19.8538 6.13864 19.8538C6.13864 19.8538 6.03886 19.7877 5.85642 19.67C5.47443 19.4202 4.84445 19.001 3.90088 19.001C1.81422 19.001 0.50293 20.8875 0.50293 22.8086C0.50293 24.8789 1.81137 26.6822 3.55311 26.6822C4.96132 26.6822 5.70819 25.6628 5.95619 24.9449C5.95619 26.464 6.8855 26.665 8.0115 26.6822H14.5737C15.5999 26.6822 16.3639 26.3491 16.9768 25.7461L16.5634 25.4618C16.133 25.8466 15.5856 26.0619 14.8729 26.0619C13.231 26.0619 12.5212 24.6262 12.5212 22.6908C12.5212 20.6377 13.2995 19.5868 14.7761 19.5868C15.6198 19.5868 16.0845 19.937 16.3182 20.3879C16.2014 20.3707 16.1016 20.3534 15.9876 20.3534C15.4916 20.3534 15.2094 20.6205 15.2094 21.0885M5.55425 24.6147C5.28914 25.4992 4.57649 26.1165 3.76406 26.1165C3.0685 26.1165 2.00807 25.3671 2.00807 22.9119C2.00807 21.1919 2.60384 19.5896 3.89803 19.5896C5.55425 19.5896 5.73669 21.1746 5.73669 22.5932C5.73669 23.4776 5.70248 24.1122 5.55425 24.6119" fill="#005D45"/>
<path d="M20.5658 26.6823V16.0146L18.3965 16.431C19.0921 16.6636 19.1091 16.7814 19.1091 17.1661V26.6794H20.5687L20.5658 26.6823Z" fill="#005D45"/>
<path d="M25.7536 19.2395L23.5501 19.6559C24.2798 19.8913 24.297 20.0061 24.297 20.4082V24.6494C24.1658 27.7879 22.9714 28.971 20.5684 29.6228C21.1812 29.6717 21.5461 29.6889 21.7627 29.6889C25.4742 29.6889 25.7565 26.3837 25.7565 23.3945V19.2366L25.7536 19.2395Z" fill="#005D45"/>
<path d="M29.6304 17.9214C30.0951 17.9214 30.4914 17.5366 30.4914 17.0542C30.4914 16.5718 30.0951 16.187 29.6304 16.187C29.1658 16.187 28.7695 16.5546 28.7695 17.0542C28.7695 17.5539 29.1658 17.9214 29.6304 17.9214Z" fill="#005D45"/>
<path d="M34.2687 17.169V24.4626C34.2687 25.4476 33.8868 26.0649 32.9603 26.0649H30.4917C30.6257 25.2121 30.657 24.2961 30.657 23.3944V19.2365L28.4706 19.6528C29.1832 19.8883 29.2004 20.0032 29.2004 20.4052V24.6464C29.0834 27.7849 27.8919 28.9708 25.4717 29.6198C26.0845 29.6686 26.4665 29.6859 26.6661 29.6859C28.9866 29.6859 29.9643 28.3822 30.3606 26.6823H33.311C34.7192 26.6823 35.7311 25.9156 35.7311 24.5114V16.0146L33.5447 16.431C34.2745 16.6636 34.2745 16.7814 34.2745 17.1661" fill="#005D45"/>
<path d="M37.9314 17.169V26.6823H39.3909V16.0146L37.2188 16.431C37.9143 16.6636 37.9314 16.7814 37.9314 17.1661" fill="#005D45"/>
<path d="M41.2129 24.0807C41.2129 25.683 42.6382 26.6506 43.7499 26.6851H43.8326C45.0413 26.6851 45.5401 26.0505 45.8879 25.4992C45.5744 28.6205 43.7186 29.2896 42.3246 29.6055L41.9284 29.6715C42.5242 29.7203 43.0543 29.7548 43.2881 29.7548C45.0612 29.7548 47.3161 29.0542 47.3161 23.3944V19.3054H46.056C43.2397 19.3054 41.2157 21.1747 41.2157 24.0778M45.8537 23.6614C45.8537 24.9594 45.0954 26.1567 44.1062 26.1654C43.1655 26.1252 42.6553 24.9622 42.6553 23.9802C42.6553 21.4934 44.2117 19.8223 45.6712 19.8223H45.8537V23.6614Z" fill="#005D45"/>
<path d="M55.3151 19.0039C53.1116 19.0039 51.8174 20.8905 51.8174 22.8603C51.8174 24.8302 53.1116 26.6823 55.3151 26.6823C57.5187 26.6823 58.8129 24.7957 58.8129 22.8603C58.8129 20.9249 57.5045 19.0039 55.3151 19.0039ZM55.3151 26.1166C53.9896 26.1166 53.3938 24.948 53.3938 22.8603C53.3938 20.7728 53.9896 19.5869 55.3151 19.5869C56.6407 19.5869 57.2222 20.7383 57.2222 22.8603C57.2222 24.9824 56.6265 26.1166 55.3151 26.1166Z" fill="#005D45"/>
<path d="M67.3927 28.2185C66.8967 28.2185 66.5488 28.5861 66.5488 29.0541C66.5488 29.5221 66.8967 29.9069 67.3927 29.9069C67.8887 29.9069 68.2364 29.5221 68.2364 29.0541C68.2364 28.5861 67.8887 28.2185 67.3927 28.2185Z" fill="#005D45"/>
<path d="M65.0068 28.2185C64.4938 28.2185 64.1631 28.5861 64.1631 29.0541C64.1631 29.5221 64.4938 29.9069 65.0068 29.9069C65.4886 29.9069 65.8507 29.5221 65.8507 29.0541C65.8507 28.5861 65.4858 28.2185 65.0068 28.2185Z" fill="#005D45"/>
<path d="M83.2339 17.1517V24.4626C83.2339 25.4303 82.8514 26.0649 81.9905 26.0649H80.7133C79.9665 26.0649 79.3881 25.3642 79.1058 24.5803C79.14 24.3966 79.1543 24.1956 79.1543 23.9802C79.1543 22.444 78.0767 20.408 76.0727 20.408C73.6354 20.408 73.2221 21.9443 72.823 23.4949C72.6064 24.3305 72.3413 25.3298 71.8453 25.8151C71.6457 25.9817 71.3635 26.0333 71.2152 26.0649H69.9068C68.7466 26.0649 68.051 24.5459 68.051 23.4949V19.2393L65.8646 19.6557C66.5289 19.8883 66.5944 19.9572 66.5944 20.3248V24.5143C66.5944 25.482 66.2295 26.0678 65.3515 26.0678H64.0601C63.3646 26.019 62.9655 25.5509 62.9655 24.6665V16.052L60.3145 16.1697V16.721C61.258 16.721 61.5089 16.8704 61.5089 17.2724V24.6004C61.5089 26.1855 62.5522 26.688 63.9604 26.688H65.6509C66.677 26.688 67.7061 26.3865 68.1023 25.3844C68.6155 26.1683 69.3282 26.688 70.1748 26.688H71.201C72.079 26.688 72.5608 26.4037 72.9399 25.9873C73.4359 26.622 74.1315 27.4059 75.6394 27.4059C77.2472 27.4059 78.2734 26.5875 78.7552 25.571C79.3196 26.3061 79.95 26.688 81.0415 26.688H82.2502C83.6581 26.688 84.6701 25.9213 84.6701 24.5171V16.0032L82.4666 16.4195C83.2111 16.655 83.2276 16.7698 83.2276 17.1546M75.6936 26.8172C74.6674 26.8172 73.9205 25.9672 73.4901 25.4332C73.473 25.3987 73.4416 25.3499 73.4074 25.3327C73.7238 24.7325 73.872 24.1151 74.0203 23.5466L74.0545 23.4461C74.3851 22.1424 74.7187 20.9421 75.7791 20.9421H75.8447C77.0533 20.991 77.6349 22.4784 77.6349 24.0635C77.6349 25.6485 76.7398 26.8172 75.6965 26.8172" fill="#005D45"/>
<path d="M86.8792 17.169V26.6823H88.339V16.0146L86.167 16.431C86.8626 16.6636 86.8792 16.7814 86.8792 17.1661" fill="#005D45"/>
<path d="M90.1582 24.0807C90.1582 25.683 91.5834 26.6506 92.6953 26.6851H92.7779C93.9867 26.6851 94.4848 26.0505 94.8326 25.4992C94.5194 28.6205 92.6607 29.2896 91.2694 29.6055L90.8735 29.6715C91.4693 29.7203 91.9996 29.7548 92.2334 29.7548C94.0063 29.7548 96.2609 29.0542 96.2609 23.3944V19.3054H95.001C92.1846 19.3054 90.1606 21.1747 90.1606 24.0778M94.7988 23.6614C94.7988 24.9594 94.0402 26.1567 93.051 26.1654C92.1106 26.1252 91.6007 24.9622 91.6007 23.9802C91.6007 21.4934 93.1565 19.8223 94.6162 19.8223H94.7988V23.6614Z" fill="#005D45"/>
<path d="M103.251 17.8036C103.732 17.8036 104.095 17.4188 104.095 16.9508C104.095 16.4827 103.73 16.1008 103.251 16.1008C102.738 16.1008 102.407 16.4856 102.407 16.9508C102.407 17.416 102.738 17.8036 103.251 17.8036Z" fill="#005D45"/>
<path d="M105.637 17.8036C106.132 17.8036 106.48 17.4188 106.48 16.9508C106.48 16.4827 106.132 16.1008 105.637 16.1008C105.141 16.1008 104.793 16.4856 104.793 16.9508C104.793 17.416 105.141 17.8036 105.637 17.8036Z" fill="#005D45"/>
<path d="M113.705 16.9365H112.927C112.314 16.9365 111.901 16.1698 111.901 15.6673C111.901 15.3342 112.1 14.9493 112.382 14.9493C112.465 14.9493 112.599 14.9666 112.664 15.0643C112.533 15.1819 112.416 15.3657 112.416 15.4663C112.416 15.7161 112.648 15.8826 112.964 15.8826C113.28 15.8826 113.511 15.7821 113.511 15.3973C113.511 14.8977 113.029 14.5129 112.416 14.5129C111.538 14.5129 111.04 15.1303 111.04 15.8654C111.04 16.2818 111.37 16.6838 111.669 16.9336H110.923L110.723 17.4677H113.705V16.9336V16.9365Z" fill="#005D45"/>
<path d="M118.129 28.2185C117.632 28.2185 117.284 28.5861 117.284 29.0541C117.284 29.5221 117.632 29.9069 118.129 29.9069C118.624 29.9069 118.972 29.5221 118.972 29.0541C118.972 28.5861 118.624 28.2185 118.129 28.2185Z" fill="#005D45"/>
<path d="M115.743 28.2185C115.23 28.2185 114.899 28.5861 114.899 29.0541C114.899 29.5221 115.23 29.9069 115.743 29.9069C116.225 29.9069 116.587 29.5221 116.587 29.0541C116.587 28.5861 116.221 28.2185 115.743 28.2185Z" fill="#005D45"/>
<path d="M123.499 28.0205C123.034 28.0205 122.638 28.4053 122.638 28.8876C122.638 29.3701 123.034 29.7549 123.499 29.7549C123.963 29.7549 124.36 29.3873 124.36 28.8876C124.36 28.3881 123.963 28.0205 123.499 28.0205Z" fill="#005D45"/>
<path d="M128.436 17.1692V24.4628C128.436 25.4477 128.054 26.0651 127.128 26.0651H126.598C125.437 26.0651 124.742 24.5461 124.742 23.4951V19.2395L122.555 19.6559C123.22 19.8885 123.286 19.9574 123.286 20.3249V24.5145C123.286 25.4822 122.92 26.0679 122.042 26.0679H120.651C119.491 26.0679 118.795 24.5489 118.795 23.4979V19.2424L116.609 19.6588C117.273 19.8914 117.339 19.9602 117.339 20.3278V24.5173C117.339 25.485 116.974 26.0708 116.096 26.0708H115.167C114.007 26.0708 113.311 24.5518 113.311 23.5009V19.2453L111.124 19.6616C111.788 19.8942 111.855 19.9632 111.855 20.3307V24.5202C111.855 25.4879 111.489 26.0737 110.611 26.0737H108.291C107.513 26.0076 107.43 25.1893 107.43 24.7385V20.414C107.43 20.0636 107.447 19.6301 107.547 19.1964H106.717C106.6 19.3142 106.635 19.3802 106.6 19.4463C106.535 19.6473 106.452 19.8626 106.418 19.8626C106.418 19.8626 106.318 19.7966 106.136 19.6788C105.754 19.429 105.124 19.0098 104.18 19.0098C102.093 19.0098 100.782 20.8964 100.782 22.8174C100.782 24.8878 102.091 26.691 103.832 26.691C105.241 26.691 105.988 25.6717 106.236 24.9538C106.236 26.4728 107.165 26.6739 108.291 26.691H110.908C111.934 26.691 112.963 26.3895 113.359 25.3874C113.853 26.1397 114.531 26.6422 115.332 26.6824V26.691H116.392C117.419 26.691 118.447 26.3895 118.844 25.3874C119.357 26.1713 120.069 26.691 120.916 26.691H122.341C123.368 26.691 124.397 26.3895 124.793 25.3874C125.286 26.1397 125.965 26.6422 126.765 26.6824V26.691H127.478C128.887 26.691 129.899 25.9244 129.899 24.5202V16.0234L127.712 16.4398C128.442 16.6724 128.442 16.7901 128.442 17.1749M105.834 24.6149C105.568 25.4993 104.856 26.1168 104.043 26.1168C103.348 26.1168 102.288 25.3673 102.288 22.9121C102.288 21.1922 102.883 19.5898 104.177 19.5898C105.834 19.5898 106.016 21.1749 106.016 22.5934C106.016 23.4778 105.982 24.1124 105.834 24.6121" fill="#005D45"/>
<path d="M132.1 17.169V26.6823H133.559V16.0146L131.387 16.431C132.082 16.6636 132.1 16.7814 132.1 17.1661" fill="#005D45"/>
<path d="M142.787 17.4706C143.268 17.4706 143.63 17.0859 143.63 16.6178C143.63 16.1497 143.265 15.7678 142.787 15.7678C142.308 15.7678 141.942 16.1354 141.942 16.6178C141.942 17.1002 142.29 17.4706 142.787 17.4706Z" fill="#005D45"/>
<path d="M141.56 19.0039C139.357 19.0039 138.062 20.8905 138.062 22.8603C138.062 24.8302 139.354 26.6823 141.56 26.6823C143.767 26.6823 145.058 24.7957 145.058 22.8603C145.058 20.9249 143.75 19.0039 141.56 19.0039ZM141.56 26.1166C140.234 26.1166 139.639 24.948 139.639 22.8603C139.639 20.7728 140.234 19.5869 141.56 19.5869C142.886 19.5869 143.467 20.7383 143.467 22.8603C143.467 24.9824 142.871 26.1166 141.56 26.1166Z" fill="#005D45"/>
<path d="M140.383 17.4706C140.879 17.4706 141.227 17.0859 141.227 16.6178C141.227 16.1497 140.879 15.7678 140.383 15.7678C139.887 15.7678 139.554 16.1354 139.554 16.6178C139.554 17.1002 139.884 17.4706 140.383 17.4706Z" fill="#005D45"/>
<path d="M148.784 20.4082V24.6494C148.653 27.7879 147.459 28.9739 145.056 29.6228C145.669 29.6717 146.033 29.6889 146.25 29.6889C149.961 29.6889 150.244 26.3837 150.244 23.3945V19.2366L148.041 19.6529C148.77 19.8885 148.787 20.0033 148.787 20.4053" fill="#005D45"/>
<path d="M153.904 26.6823V16.0146L151.734 16.431C152.43 16.6636 152.447 16.7814 152.447 17.1661V26.6794H153.906L153.904 26.6823Z" fill="#005D45"/>
<path d="M157.633 20.3248V24.566C157.501 27.7045 156.308 28.8876 153.904 29.5394C154.517 29.5882 154.882 29.6227 155.099 29.6227C158.81 29.6227 159.093 26.3004 159.093 23.314V19.1733L156.889 19.5897C157.619 19.808 157.636 19.94 157.636 20.3248" fill="#005D45"/>
<path d="M158.263 15.7678C157.798 15.7678 157.402 16.1354 157.402 16.635C157.402 17.1347 157.798 17.5022 158.263 17.5022C158.728 17.5022 159.107 17.1174 159.107 16.635C159.107 16.1526 158.711 15.7678 158.263 15.7678Z" fill="#005D45"/>
<path d="M165.752 19.3053C162.935 19.3053 160.911 21.1747 160.911 24.0778C160.911 25.6801 162.336 26.6478 163.448 26.6823H163.531C164.74 26.6823 165.239 26.0477 165.586 25.4963C165.272 28.6177 163.414 29.2867 162.023 29.6025L161.626 29.6686C162.222 29.7174 162.753 29.7519 162.986 29.7519C164.759 29.7519 167.014 29.0512 167.014 23.3915V19.3025H165.754L165.752 19.3053ZM165.552 23.6614C165.552 24.9594 164.794 26.1567 163.805 26.1653C162.864 26.1252 162.354 24.9622 162.354 23.9801C162.354 21.4934 163.91 19.8222 165.369 19.8222H165.552V23.6614Z" fill="#005D45"/>
<path d="M1.38085 35.6901C1.38085 34.8574 1.25542 34.8947 0.5 34.7426V34.5444H2.51825L4.27709 39.4862H4.29419L6.01883 34.5444H7.21895V40.5689H6.32955V35.2422H6.31244L4.44528 40.5689H3.81529L1.95668 35.2967H1.93957V40.5689H1.38085V35.6901Z" fill="#005D45"/>
<path d="M8.64706 37.5683C8.64706 36.9423 8.50454 36.7901 7.96289 36.7729V36.5949L9.53646 36.3078V40.569H8.64706V37.5711V37.5683ZM8.55011 35.0356C8.55011 34.7312 8.79815 34.4814 9.10883 34.4814C9.4196 34.4814 9.67614 34.7226 9.67614 35.0356C9.67614 35.3487 9.41102 35.5984 9.10026 35.5984C8.78957 35.5984 8.55011 35.3487 8.55011 35.0356Z" fill="#005D45"/>
<path d="M10.8963 37.5682C10.8963 36.9422 10.7453 36.7901 10.1865 36.7728V36.5948L11.7857 36.3076V37.4533H11.8028C11.9368 37.1404 12.4071 36.3076 13.2852 36.3076C14.0947 36.3076 14.3598 36.882 14.3598 37.5682V40.5661H13.4704V38.2488C13.4704 37.5424 13.4704 36.9164 12.8746 36.9164C12.2788 36.9164 11.7828 37.7491 11.7828 38.3837V40.569H10.8934V37.5711L10.8963 37.5682Z" fill="#005D45"/>
<path d="M15.7027 37.5683C15.7027 36.9423 15.5602 36.7901 15.0186 36.7729V36.5949L16.5921 36.3078V40.569H15.7027V37.5711V37.5683ZM15.6058 35.0356C15.6058 34.7312 15.8538 34.4814 16.1645 34.4814C16.4753 34.4814 16.7318 34.7226 16.7318 35.0356C16.7318 35.3487 16.4667 35.5984 16.156 35.5984C15.8452 35.5984 15.6058 35.3487 15.6058 35.0356Z" fill="#005D45"/>
<path d="M19.9411 37.1317C19.8071 37.0426 19.3824 36.7009 18.8835 36.7009C18.5985 36.7009 18.2621 36.8072 18.2621 37.1919C18.2621 38.0419 20.209 38.0591 20.209 39.4289C20.209 40.3075 19.4907 40.6636 18.6098 40.6636C18.0682 40.6636 17.6777 40.5574 17.4724 40.5028V39.805C17.729 39.9859 18.148 40.2702 18.644 40.2702C19.2028 40.2702 19.408 39.983 19.408 39.6701C19.408 38.7914 17.4639 38.7397 17.4639 37.505C17.4639 36.8617 17.9001 36.3047 18.9462 36.3047C19.3995 36.3047 19.79 36.4224 19.9411 36.4568V37.1288V37.1317Z" fill="#005D45"/>
<path d="M23.2647 40.5948C23.068 40.6322 22.8656 40.6666 22.6689 40.6666C21.8166 40.6666 21.3177 40.5316 21.3177 39.5123V36.7643H20.625V36.4053H21.3177V35.6989L22.2071 34.9036V36.4082H23.3702V36.7671H22.2071V39.3716C22.2071 39.9976 22.2527 40.2761 22.9369 40.2761C23.0423 40.2761 23.1593 40.2675 23.2647 40.2416V40.6006V40.5948Z" fill="#005D45"/>
<path d="M24.1007 37.5682C24.1007 36.9422 23.9581 36.7901 23.3994 36.7728V36.5948L24.9901 36.3076V37.4878H25.0072C25.1327 37.0772 25.4063 36.3076 26.1189 36.3076C26.2786 36.3076 26.4468 36.3249 26.5979 36.3536V37.2035C26.4553 37.1576 26.2957 37.0973 26.1446 37.0973C25.2466 37.0973 24.9901 37.8037 24.9901 38.4325V40.5718H24.1007V37.574V37.5682Z" fill="#005D45"/>
<path d="M29.1464 40.9078C28.8699 41.6228 28.5592 42.3924 27.5928 42.3924C26.6265 42.3924 26.3928 41.6486 26.3585 41.2466H27.379C27.379 41.5137 27.4247 41.9099 27.8494 41.9099C28.2399 41.9099 28.4366 41.4534 28.5592 41.1318L28.6761 40.8274L27.2451 37.3902C27.0313 36.8619 26.9087 36.612 26.293 36.5833V36.4053H27.8038L29.1179 39.6989L30.3979 36.4053H30.9053L29.1464 40.9078Z" fill="#005D45"/>
<path d="M33.918 38.4899C33.918 36.9938 34.5394 36.3047 35.8365 36.3047C37.1335 36.3047 37.7549 37.2005 37.7549 38.4899C37.7549 39.9486 37.1506 40.6636 35.8365 40.6636C34.4055 40.6636 33.918 39.7418 33.918 38.4899ZM35.8365 40.3621C36.7088 40.3621 36.7772 39.3858 36.7772 38.4927C36.7772 37.6686 36.6974 36.6119 35.8365 36.6119C34.9755 36.6119 34.8957 37.7031 34.8957 38.4927C34.8957 39.2336 34.9585 40.3621 35.8365 40.3621Z" fill="#005D45"/>
<path d="M38.8921 36.7641H38.1709V36.4051H38.8921V35.805C38.8921 35.09 39.2028 34.3003 40.269 34.3003C41.4064 34.3003 41.7969 34.7023 41.8938 35.357H40.899C40.8904 35.0354 40.7736 34.6047 40.3317 34.6047C39.8158 34.6047 39.7815 35.1761 39.7815 35.5982V36.4051H40.9645V36.7641H39.7815V40.5688H38.8921V36.7641Z" fill="#005D45"/>
<path d="M44.3115 35.7619C44.3115 34.8747 44.2859 34.8747 43.4678 34.7426V34.5444H47.7238L47.7494 35.8682H47.5014C47.5014 35.1532 47.128 34.9636 46.5408 34.9636H45.848C45.4033 34.9636 45.2893 34.9981 45.2893 35.4288V37.2092H46.364C46.9769 37.2092 47.0396 36.8157 47.0938 36.52H47.3418V38.4009H47.0938C47.0938 37.9184 46.8971 37.6313 46.364 37.6313H45.2893V39.6269C45.2893 40.1294 45.4033 40.1467 45.848 40.1467H46.8344C47.3418 40.1467 47.5812 39.9687 47.6354 39.268H47.8834L47.8549 40.5659H44.3115V35.7591V35.7619Z" fill="#005D45"/>
<path d="M48.9324 37.5682C48.9324 36.9422 48.7814 36.7901 48.2227 36.7728V36.5948L49.8218 36.3076V37.4533H49.839C49.9729 37.1404 50.4432 36.3076 51.3241 36.3076C52.1337 36.3076 52.3988 36.882 52.3988 37.5682V40.5661H51.5094V38.2488C51.5094 37.5424 51.5094 36.9164 50.9136 36.9164C50.3178 36.9164 49.8218 37.7491 49.8218 38.3837V40.569H48.9324V37.5711V37.5682Z" fill="#005D45"/>
<path d="M53.6413 37.3902C53.419 36.7901 53.3221 36.6379 52.7178 36.5833V36.4053H54.203L55.4458 39.5553L56.6545 36.4053H57.1619L55.5712 40.5661H54.9213L53.6413 37.3873V37.3902Z" fill="#005D45"/>
<path d="M58.0054 37.5683C58.0054 36.9423 57.8629 36.7901 57.3213 36.7729V36.5949L58.8948 36.3078V40.569H58.0054V37.5711V37.5683ZM57.9057 35.0356C57.9057 34.7312 58.1536 34.4814 58.4644 34.4814C58.7751 34.4814 59.0316 34.7226 59.0316 35.0356C59.0316 35.3487 58.7665 35.5984 58.4558 35.5984C58.1451 35.5984 57.9057 35.3487 57.9057 35.0356Z" fill="#005D45"/>
<path d="M60.1983 37.5682C60.1983 36.9422 60.0558 36.7901 59.4971 36.7728V36.5948L61.0877 36.3076V37.4878H61.1049C61.2303 37.0772 61.5039 36.3076 62.2166 36.3076C62.3762 36.3076 62.5444 36.3249 62.6955 36.3536V37.2035C62.553 37.1576 62.3933 37.0973 62.2422 37.0973C61.3443 37.0973 61.0877 37.8037 61.0877 38.4325V40.5718H60.1983V37.574V37.5682Z" fill="#005D45"/>
<path d="M62.7949 38.4899C62.7949 36.9938 63.4164 36.3047 64.7134 36.3047C66.0104 36.3047 66.6319 37.2005 66.6319 38.4899C66.6319 39.9486 66.0276 40.6636 64.7134 40.6636C63.2824 40.6636 62.7949 39.7418 62.7949 38.4899ZM64.7134 40.3621C65.5857 40.3621 65.6541 39.3858 65.6541 38.4927C65.6541 37.6686 65.5743 36.6119 64.7134 36.6119C63.8526 36.6119 63.7727 37.7031 63.7727 38.4927C63.7727 39.2336 63.8354 40.3621 64.7134 40.3621Z" fill="#005D45"/>
<path d="M67.6376 37.5682C67.6376 36.9422 67.4865 36.7901 66.9277 36.7728V36.5948L68.527 36.3076V37.4533H68.544C68.6781 37.1404 69.1484 36.3076 70.0292 36.3076C70.8388 36.3076 71.1039 36.882 71.1039 37.5682V40.5661H70.2145V38.2488C70.2145 37.5424 70.2145 36.9164 69.6188 36.9164C69.023 36.9164 68.527 37.7491 68.527 38.3837V40.569H67.6376V37.5711V37.5682Z" fill="#005D45"/>
<path d="M72.356 37.5682C72.356 36.9422 72.2135 36.7901 71.6719 36.7728V36.5948L73.2625 36.3076V37.373H73.2797C73.4308 37.06 73.8412 36.3076 74.6394 36.3076C75.4375 36.3076 75.6713 36.9078 75.7312 37.3098H75.7483C75.9336 36.9595 76.2728 36.3076 77.0738 36.3076C78.2027 36.3076 78.2027 37.3471 78.2027 37.9817V40.569H77.3133V38.1253C77.3133 37.5711 77.3133 36.9164 76.7175 36.9164C76.0419 36.9164 75.7227 37.8553 75.7227 38.4986V40.5661H74.8333V38.2488C74.8333 37.5424 74.8333 36.9164 74.2375 36.9164C73.6417 36.9164 73.2426 37.7491 73.2426 38.3837V40.569H72.3532V37.5711L72.356 37.5682Z" fill="#005D45"/>
<path d="M82.4471 40.4254C82.2787 40.4885 81.8081 40.6665 81.1951 40.6665C79.8361 40.6665 79.0176 39.8338 79.0176 38.3407C79.0176 36.9279 79.6929 36.3076 80.8851 36.3076C82.4039 36.3076 82.5298 37.4189 82.5298 38.0162H79.9982C79.9982 38.9121 80.3633 40.1813 81.6146 40.1813C81.9876 40.1813 82.2984 40.0923 82.4495 40.0291V40.4225L82.4471 40.4254ZM81.6405 37.6572C81.6405 37.4505 81.6232 36.6092 80.8504 36.6092C80.1831 36.6092 79.9982 37.3155 79.9982 37.6572H81.6429H81.6405Z" fill="#005D45"/>
<path d="M83.4081 37.5682C83.4081 36.9422 83.257 36.7901 82.6982 36.7728V36.5948L84.2973 36.3076V37.4533H84.3146C84.4484 37.1404 84.919 36.3076 85.7964 36.3076C86.6062 36.3076 86.8714 36.882 86.8714 37.5682V40.5661H85.9821V38.2488C85.9821 37.5424 85.9821 36.9164 85.3864 36.9164C84.7899 36.9164 84.2942 37.7491 84.2942 38.3837V40.569H83.4049V37.5711L83.4081 37.5682Z" fill="#005D45"/>
<path d="M90.233 40.5948C90.0362 40.6322 89.834 40.6666 89.6372 40.6666C88.785 40.6666 88.2861 40.5316 88.2861 39.5123V36.7643H87.5928V36.4053H88.2861V35.6989L89.1753 34.9036V36.4082H90.3384V36.7671H89.1753V39.3716C89.1753 39.9976 89.221 40.2761 89.9048 40.2761C90.0103 40.2761 90.1275 40.2675 90.233 40.2416V40.6006V40.5948Z" fill="#005D45"/>
<path d="M94.2426 35.6901C94.0577 34.8747 93.975 34.8833 93.2393 34.7426V34.5444H94.847L96.0219 39.4231H96.0384L97.4415 34.5444H98.0538L99.6536 39.4231H99.6701L100.648 34.5444H101.227L99.9755 40.5689H99.1319L97.5863 35.7992H97.5698L96.2013 40.5689H95.3742L94.2458 35.6901H94.2426Z" fill="#005D45"/>
<path d="M103.901 40.0377C103.741 40.2272 103.439 40.6637 102.755 40.6637C102.071 40.6637 101.563 40.1612 101.563 39.6357C101.563 38.3751 103.331 38.2746 103.901 38.2574V37.8008C103.901 37.238 103.901 36.612 103.34 36.612C102.778 36.612 102.718 37.1318 102.718 37.5252H101.66C101.757 36.9336 102.051 36.3076 103.331 36.3076C104.611 36.3076 104.788 36.9623 104.788 37.8468V40.5661H103.898V40.0377H103.901ZM103.901 38.579C103.581 38.5876 102.541 38.6336 102.541 39.4835C102.541 39.8941 102.746 40.1813 103.074 40.1813C103.59 40.1813 103.901 39.7075 103.901 39.0987V38.579Z" fill="#005D45"/>
<path d="M108.086 40.5948C107.889 40.6322 107.687 40.6666 107.49 40.6666C106.638 40.6666 106.139 40.5316 106.139 39.5123V36.7643H105.445V36.4053H106.139V35.6989L107.028 34.9036V36.4082H108.191V36.7671H107.028V39.3716C107.028 39.9976 107.073 40.2761 107.757 40.2761C107.863 40.2761 107.98 40.2675 108.086 40.2416V40.6006V40.5948Z" fill="#005D45"/>
<path d="M111.951 40.4254C111.783 40.4885 111.312 40.6665 110.7 40.6665C109.34 40.6665 108.521 39.8338 108.521 38.3407C108.521 36.9279 109.197 36.3076 110.389 36.3076C111.908 36.3076 112.034 37.4189 112.034 38.0162H109.502C109.502 38.9121 109.867 40.1813 111.118 40.1813C111.492 40.1813 111.802 40.0923 111.953 40.0291V40.4225L111.951 40.4254ZM111.141 37.6572C111.141 37.4505 111.124 36.6092 110.352 36.6092C109.685 36.6092 109.5 37.3155 109.5 37.6572H111.144H111.141Z" fill="#005D45"/>
<path d="M112.858 37.5682C112.858 36.9422 112.716 36.7901 112.157 36.7728V36.5948L113.748 36.3076V37.4878H113.765C113.89 37.0772 114.164 36.3076 114.877 36.3076C115.036 36.3076 115.204 36.3249 115.355 36.3536V37.2035C115.213 37.1576 115.053 37.0973 114.902 37.0973C114.004 37.0973 113.748 37.8037 113.748 38.4325V40.5718H112.858V37.574V37.5682Z" fill="#005D45"/>
<path d="M128.759 35.6901C128.813 35.5379 128.91 35.225 128.91 35.1618C128.91 34.8028 128.582 34.7942 128.225 34.7426V34.5444H129.896L132.065 40.5689H131.142L130.474 38.7081H128.209L127.541 40.5689H126.991L128.759 35.6901ZM128.36 38.2859H130.323L129.311 35.6729L128.362 38.2859H128.36Z" fill="#005D45"/>
<path d="M135.964 40.7009C135.964 41.6227 135.796 42.4727 134.24 42.4727C133.148 42.4727 132.384 42.2199 132.384 41.2207H133.388C133.388 41.5968 133.501 42.1683 134.214 42.1683C135.075 42.1683 135.075 41.4791 135.075 40.9881V39.94H135.058C134.898 40.207 134.659 40.566 133.938 40.566C132.817 40.566 132.376 39.627 132.376 38.5789C132.376 37.4245 132.724 36.3047 133.949 36.3047C134.588 36.3047 134.907 36.6808 135.061 36.922H135.078V36.4023H136.669V36.5803C136.384 36.5803 135.968 36.6263 135.968 37.2149V40.6952L135.964 40.7009ZM135.075 37.9184C135.075 37.3528 134.79 36.7899 134.24 36.7899C133.43 36.7899 133.35 37.8007 133.35 38.4554C133.35 39.1101 133.439 40.0836 134.169 40.0836C134.933 40.0836 135.075 39.2967 135.075 38.8028V37.9156V37.9184Z" fill="#005D45"/>
<path d="M137.325 37.5682C137.325 36.9422 137.183 36.7901 136.624 36.7728V36.5948L138.214 36.3076V37.4878H138.232C138.357 37.0772 138.631 36.3076 139.344 36.3076C139.503 36.3076 139.671 36.3249 139.822 36.3536V37.2035C139.68 37.1576 139.52 37.0973 139.369 37.0973C138.471 37.0973 138.214 37.8037 138.214 38.4325V40.5718H137.325V37.574V37.5682Z" fill="#005D45"/>
<path d="M140.54 37.5683C140.54 36.9423 140.398 36.7901 139.856 36.7729V36.5949L141.43 36.3078V40.569H140.54V37.5711V37.5683ZM140.444 35.0356C140.444 34.7312 140.691 34.4814 141.002 34.4814C141.313 34.4814 141.57 34.7226 141.57 35.0356C141.57 35.3487 141.304 35.5984 140.994 35.5984C140.683 35.5984 140.444 35.3487 140.444 35.0356Z" fill="#005D45"/>
<path d="M145.579 40.4512C145.261 40.5661 145.055 40.6665 144.32 40.6665C143.077 40.6665 142.339 39.7793 142.339 38.4297C142.339 37.2035 142.835 36.3076 144.106 36.3076C145.092 36.3076 145.742 36.8101 145.742 37.5338H144.693C144.693 37.1662 144.605 36.612 144.054 36.612C143.45 36.612 143.316 37.2753 143.316 38.1339C143.316 39.4577 143.921 40.1842 144.73 40.1842C145.007 40.1842 145.369 40.1296 145.583 40.0578V40.4512H145.579Z" fill="#005D45"/>
<path d="M148.981 39.5552H148.964C148.813 39.9485 148.448 40.6636 147.587 40.6636C146.396 40.6636 146.396 39.5006 146.396 38.8373V37.5652C146.396 36.9392 146.253 36.7871 145.711 36.7698V36.5918L147.285 36.3047V38.9981C147.285 39.8136 147.587 40.0549 148.014 40.0549C148.594 40.0549 148.984 39.2939 148.984 38.5502V37.5652C148.984 36.9392 148.833 36.7871 148.3 36.7698V36.5918L149.873 36.3047V40.566H148.984V39.5552H148.981Z" fill="#005D45"/>
<path d="M151.042 35.5179C151.042 34.8832 150.891 34.731 150.366 34.7023V34.5243L151.929 34.3003V40.5659H151.039V35.5179H151.042Z" fill="#005D45"/>
<path d="M155.352 40.5948C155.156 40.6322 154.953 40.6666 154.757 40.6666C153.904 40.6666 153.405 40.5316 153.405 39.5123V36.7643H152.713V36.4053H153.405V35.6989L154.295 34.9036V36.4082H155.458V36.7671H154.295V39.3716C154.295 39.9976 154.34 40.2761 155.025 40.2761C155.13 40.2761 155.247 40.2675 155.352 40.2416V40.6006V40.5948Z" fill="#005D45"/>
<path d="M158.827 39.5552H158.81C158.659 39.9485 158.295 40.6636 157.434 40.6636C156.241 40.6636 156.241 39.5006 156.241 38.8373V37.5652C156.241 36.9392 156.099 36.7871 155.558 36.7698V36.5918L157.132 36.3047V38.9981C157.132 39.8136 157.434 40.0549 157.861 40.0549C158.439 40.0549 158.831 39.2939 158.831 38.5502V37.5652C158.831 36.9392 158.679 36.7871 158.146 36.7698V36.5918L159.72 36.3047V40.566H158.831V39.5552H158.827Z" fill="#005D45"/>
<path d="M160.948 37.5682C160.948 36.9422 160.806 36.7901 160.247 36.7728V36.5948L161.837 36.3076V37.4878H161.855C161.981 37.0772 162.254 36.3076 162.967 36.3076C163.126 36.3076 163.294 36.3249 163.445 36.3536V37.2035C163.303 37.1576 163.143 37.0973 162.992 37.0973C162.094 37.0973 161.837 37.8037 161.837 38.4325V40.5718H160.948V37.574V37.5682Z" fill="#005D45"/>
<path d="M166.931 40.4254C166.763 40.4885 166.292 40.6665 165.679 40.6665C164.32 40.6665 163.502 39.8338 163.502 38.3407C163.502 36.9279 164.177 36.3076 165.369 36.3076C166.888 36.3076 167.014 37.4189 167.014 38.0162H164.482C164.482 38.9121 164.848 40.1813 166.099 40.1813C166.472 40.1813 166.783 40.0923 166.934 40.0291V40.4225L166.931 40.4254ZM166.122 37.6572C166.122 37.4505 166.104 36.6092 165.332 36.6092C164.665 36.6092 164.479 37.3155 164.479 37.6572H166.124H166.122Z" fill="#005D45"/>
<path d="M123.935 39.5639C123.935 39.5639 123.901 39.5695 123.813 39.6643C123.681 39.7993 123.567 39.8969 123.465 39.9572C123.314 40.0376 123.071 40.0233 122.817 39.8595C122.675 39.7677 122.521 39.627 122.361 39.4461L122.247 39.3169C122.176 39.248 122.136 39.1876 122.122 39.1302L122.114 39.0901L122.139 39.0584C122.501 38.5932 122.76 38.2774 122.912 38.1224C123.157 37.8611 123.325 37.6973 123.428 37.6255C123.519 37.5624 123.662 37.482 123.858 37.3872L123.864 37.3528C123.872 37.3126 123.878 37.2723 123.878 37.2321C123.878 37.2235 123.878 37.2121 123.878 37.2034C123.781 37.2121 123.716 37.2178 123.687 37.2178H123.467L123.151 37.235C122.866 37.2522 122.632 37.2695 122.439 37.2925C122.418 37.2925 122.367 37.3011 122.247 37.3269L122.239 37.4762C122.341 37.5222 122.418 37.5739 122.469 37.6341C122.532 37.7117 122.564 37.7921 122.564 37.8697C122.564 37.9586 122.521 38.0821 122.43 38.2486C122.316 38.4554 122.17 38.6478 121.994 38.823L121.931 38.8833L121.871 38.8201C121.826 38.7713 121.777 38.711 121.722 38.6392L121.221 38.0218C121.107 37.8811 121.01 37.772 120.939 37.7002C120.736 37.5049 120.608 37.3672 120.548 37.2867L120.511 37.235L120.552 37.1834C120.58 37.146 120.622 37.1173 120.677 37.1001C120.782 37.0628 120.925 36.9823 121.095 36.8646C121.264 36.7497 121.375 36.6406 121.423 36.543C121.486 36.4081 121.52 36.2616 121.52 36.1123C121.52 35.8625 121.409 35.6413 121.184 35.4404C120.959 35.2393 120.645 35.136 120.255 35.136C119.967 35.136 119.865 35.1532 119.83 35.1647C119.805 35.1733 119.761 35.1876 119.707 35.202C119.394 35.2853 119.148 35.4288 118.981 35.6327C118.812 35.8366 118.733 36.0577 118.733 36.3076C118.733 36.4252 118.753 36.5402 118.793 36.6578C118.832 36.7756 118.881 36.8732 118.935 36.9508C118.995 37.034 119.129 37.1977 119.334 37.436L119.399 37.5135L119.314 37.5681C119.266 37.5968 119.192 37.6313 119.072 37.6801C118.881 37.7605 118.67 37.8811 118.447 38.0419C118.228 38.197 118.06 38.3836 117.946 38.599C117.832 38.8115 117.774 39.0412 117.774 39.2795C117.774 39.6701 117.914 39.9946 118.185 40.2444C118.461 40.4971 118.895 40.6263 119.473 40.6263C120.146 40.6263 120.777 40.3908 121.346 39.9227L121.404 39.8768L121.458 39.9256C121.752 40.1927 122.022 40.3851 122.267 40.4971C122.45 40.5803 122.652 40.6234 122.866 40.6234C123.105 40.6234 123.296 40.586 123.433 40.5085C123.641 40.3937 123.801 40.2472 123.906 40.0807C124.009 39.9141 124.063 39.7792 124.063 39.6815C124.063 39.65 124.052 39.6241 124.029 39.6012C124.003 39.5753 123.975 39.5639 123.941 39.5639M119.713 35.5265C119.839 35.4231 119.987 35.3686 120.152 35.3686C120.309 35.3686 120.443 35.4031 120.557 35.4719C120.677 35.5437 120.751 35.6212 120.777 35.7074C120.833 35.9056 120.862 36.0549 120.862 36.1582C120.862 36.3678 120.828 36.5257 120.762 36.6377C120.666 36.7928 120.52 36.9134 120.326 36.9996L120.278 37.0226L120.238 36.9881C119.947 36.7469 119.753 36.5458 119.645 36.3736C119.556 36.2357 119.514 36.1008 119.514 35.9687C119.514 35.782 119.579 35.6356 119.71 35.5265M121.135 39.693C120.845 39.9687 120.517 40.1094 120.158 40.1094C119.961 40.1094 119.773 40.0606 119.599 39.9629C119.428 39.8682 119.283 39.7591 119.171 39.6356C119.057 39.5121 118.952 39.3399 118.855 39.1216C118.801 38.9953 118.772 38.8603 118.772 38.7168C118.772 38.4956 118.844 38.2946 118.981 38.1224C119.118 37.9558 119.3 37.8237 119.525 37.7318L119.579 37.7088L119.619 37.7548C119.895 38.0563 120.172 38.3722 120.434 38.6937L120.953 39.3226C120.984 39.3657 121.016 39.403 121.05 39.4403C121.093 39.4863 121.127 39.5351 121.153 39.5868L121.184 39.6442L121.135 39.6901V39.693Z" fill="#005D45"/>
<path d="M227.499 28.4971C227.499 42.8488 215.948 54.4842 201.7 54.4842C187.453 54.4842 175.905 42.8488 175.905 28.4971C175.905 14.1453 187.456 2.51001 201.704 2.51001C215.951 2.51001 227.502 14.1453 227.502 28.4971" fill="#008034"/>
<path d="M227.499 28.4971C227.499 42.8488 215.948 54.4842 201.7 54.4842C187.453 54.4842 175.905 42.8488 175.905 28.4971C175.905 14.1453 187.456 2.51001 201.704 2.51001C215.951 2.51001 227.502 14.1453 227.502 28.4971" fill="url(#paint0_radial_1_47086)"/>
<path d="M201.704 56.5C186.376 56.5 173.904 43.9401 173.904 28.5C173.904 13.0599 186.376 0.5 201.704 0.5C217.032 0.5 229.5 13.0599 229.5 28.5C229.5 43.9401 217.032 56.5 201.704 56.5ZM201.704 2.11666C187.263 2.11666 175.518 13.953 175.518 28.5C175.518 43.047 187.263 54.8833 201.704 54.8833C216.145 54.8833 227.887 43.047 227.887 28.5C227.887 13.953 216.142 2.11666 201.704 2.11666Z" fill="url(#paint1_linear_1_47086)"/>
<path d="M217.039 39.5726C217.105 39.6099 217.225 39.6817 217.193 39.7965C217.174 39.8683 217.111 39.9057 217.002 39.9057C216.96 39.9057 216.92 39.8999 216.905 39.897C216.292 39.7391 215.637 39.6616 214.955 39.6616C211.453 39.6616 206.925 42.3206 203.299 44.9681C204.021 45.5683 204.796 46.2546 205.543 46.9581C205.651 46.8633 205.688 46.8375 205.791 46.7514C206.113 46.4814 206.421 46.2948 206.729 46.1828C206.914 46.1139 207.099 46.0995 207.279 46.1369C207.627 46.2086 207.855 46.5532 207.818 46.9581C207.786 47.3055 207.549 47.5726 207.265 47.5841C207.039 47.5899 206.84 47.4779 206.726 47.2797C206.586 47.3946 206.455 47.5036 206.335 47.6186C206.278 47.6731 206.224 47.7276 206.17 47.7822L206.395 47.9804C206.572 48.1354 206.743 48.2876 206.917 48.434C207.259 48.7212 207.632 49.0112 208.051 49.1978C208.183 49.2553 208.354 49.3242 208.516 49.3098C208.596 49.3041 208.682 49.2783 208.772 49.2524L208.835 49.2351C208.835 49.2351 208.853 49.2295 208.861 49.2237C208.912 49.2008 208.964 49.1749 209.026 49.1634C209.049 49.1605 209.074 49.1548 209.104 49.1548C209.234 49.1548 209.346 49.2208 209.411 49.3357C209.482 49.4563 209.503 49.6458 209.466 49.8009C209.434 49.9272 209.366 50.0162 209.3 50.0938C209.026 50.4039 208.696 50.5819 208.317 50.6221C208.248 50.6307 208.177 50.6336 208.106 50.6336C208.034 50.6336 207.963 50.6307 207.889 50.6221C207.601 50.5934 207.299 50.5015 206.965 50.3465C206.467 50.1139 205.973 49.798 205.412 49.3501L204.952 48.9796C204.801 49.1261 204.645 49.2725 204.485 49.4161C204.297 49.5855 204.063 49.775 203.77 49.8755C203.69 49.9042 203.604 49.9186 203.513 49.9186C203.479 49.9186 203.448 49.9186 203.413 49.9128C203.374 49.91 203.334 49.9042 203.294 49.8928C203.043 49.844 202.843 49.6114 202.795 49.3184C202.747 49.0083 202.861 48.7011 203.083 48.5518C203.299 48.4082 203.567 48.4369 203.77 48.6293C203.798 48.6551 203.821 48.6838 203.844 48.7125C203.963 48.5919 204.081 48.4657 204.197 48.3335C203.439 47.6444 202.464 46.9351 201.58 46.2316C200.705 46.9351 199.785 47.6444 199.026 48.3335C199.143 48.4657 199.26 48.5919 199.38 48.7125C199.403 48.681 199.428 48.6523 199.454 48.6293C199.656 48.4398 199.927 48.4082 200.141 48.5518C200.361 48.6982 200.477 49.0055 200.429 49.3184C200.384 49.6114 200.18 49.8411 199.93 49.8928C199.89 49.9014 199.85 49.9072 199.811 49.9128C199.776 49.9157 199.742 49.9186 199.711 49.9186C199.619 49.9186 199.537 49.9042 199.454 49.8755C199.161 49.775 198.927 49.5884 198.739 49.4161C198.579 49.2725 198.422 49.1261 198.271 48.9796L197.812 49.3501C197.253 49.7951 196.757 50.1139 196.258 50.3465C195.922 50.5015 195.62 50.5934 195.334 50.6221C195.261 50.6307 195.19 50.6336 195.118 50.6336C195.046 50.6336 194.976 50.6307 194.907 50.6221C194.528 50.5819 194.194 50.4039 193.924 50.0938C193.858 50.0162 193.79 49.9301 193.758 49.8009C193.718 49.6458 193.741 49.4591 193.809 49.3357C193.875 49.218 193.986 49.1548 194.118 49.1548C194.146 49.1548 194.171 49.1577 194.194 49.1634C194.257 49.1749 194.311 49.2008 194.359 49.2237C194.368 49.2266 194.377 49.2323 194.385 49.2351L194.448 49.2524C194.54 49.2783 194.628 49.3012 194.705 49.3098C194.867 49.3242 195.041 49.2553 195.169 49.1978C195.589 49.0112 195.965 48.7212 196.304 48.434C196.478 48.2876 196.652 48.1354 196.826 47.9804L197.051 47.7822C196.997 47.7276 196.942 47.6731 196.886 47.6186C196.766 47.5036 196.635 47.3917 196.495 47.2797C196.378 47.4807 196.181 47.5899 195.956 47.5841C195.674 47.5726 195.434 47.3055 195.403 46.9581C195.366 46.5532 195.594 46.2086 195.942 46.1369C196.121 46.0995 196.307 46.1139 196.492 46.1828C196.8 46.2977 197.108 46.4814 197.43 46.7514C197.532 46.8375 197.569 46.8633 197.678 46.9581C198.448 46.2345 199.198 45.5769 199.93 44.9739C196.304 42.3235 191.774 39.6616 188.268 39.6616C187.587 39.6616 186.931 39.742 186.318 39.897C186.304 39.8999 186.264 39.9057 186.221 39.9057C186.115 39.9057 186.05 39.8683 186.03 39.7965C185.999 39.6817 186.122 39.6099 186.184 39.5726C186.403 39.4434 187.621 38.9638 189.539 38.9638C192.242 38.9638 196.321 39.7477 201.503 43.5726L201.609 43.6559L201.632 43.6386C206.814 39.8109 210.959 38.9638 213.662 38.9638C215.58 38.9638 216.798 39.4434 217.016 39.5726M203.14 37.9301C202.826 38.4555 202.393 39.8913 202.393 39.9114C202.852 39.5382 204.228 39.2567 204.819 39.1304C209.041 38.2143 209.303 34.3608 209.431 33.6056C209.32 33.821 209.021 34.2746 206.438 34.3924C205.087 34.4556 202.843 34.6221 201.677 36.8533C201.879 37.2639 202.039 37.7234 202.159 38.2287C203.608 34.7456 207.185 35.2223 207.792 35.093C207.187 35.3572 204.597 35.4864 203.137 37.9301M201.549 42.0105L202.185 41.6946C202.031 34.8633 198.356 34.4757 196.58 34.3924C193.997 34.2746 193.698 33.8181 193.59 33.6056C193.716 34.3608 193.981 38.2143 198.203 39.1304C198.804 39.2625 199.699 39.3859 200.129 39.7708C199.637 35.3055 195.968 35.4175 195.229 35.093C195.925 35.2395 201.153 34.1282 200.911 41.6946L201.549 42.0105ZM199.405 22.3321C199.291 20.3766 201.512 16.9021 201.512 16.9021C201.512 16.9021 203.641 20.4627 203.619 22.3321C203.601 23.6817 202.675 24.7758 201.512 24.7758C200.349 24.7758 199.486 23.6788 199.405 22.3321ZM202.427 23.9344C202.33 23.9516 202.227 23.9631 202.128 23.9631C201.025 23.9631 200.132 22.9265 200.132 21.6487C200.132 21.4649 200.175 21.2295 200.243 20.9595C200.027 21.5338 199.87 22.0593 199.87 22.3838C199.87 23.4262 200.6 24.2733 201.498 24.2733C201.842 24.2733 202.165 24.1469 202.427 23.9344ZM195.722 29.5539C195.722 33.4476 201.218 34.691 201.218 34.691V33.4821C201.218 29.4419 195.722 28.345 195.722 28.345V29.5539ZM201.786 33.485V34.6939C201.786 34.6939 207.282 33.4506 207.282 29.5568V28.3479C207.282 28.3479 201.786 29.4448 201.786 33.485ZM197.108 25.172C197.108 28.3393 201.287 29.35 201.287 29.35V28.368C201.287 25.083 197.108 24.19 197.108 24.19V25.172ZM201.717 28.368V29.35C201.717 29.35 205.896 28.3393 205.896 25.172V24.19C205.896 24.19 201.717 25.0801 201.717 28.3651M186.891 18.4297C190.52 14.7571 192.852 14.1052 195.756 13.6458C192.783 15.5467 190.007 19.966 190.871 23.0787C192.442 19.7765 195.181 16.5517 197.709 15.3745C196.281 17.3932 196.232 19.9086 197.61 22.0535C197.929 19.2682 199.867 16.592 201.487 14.7973C203.106 16.5891 205.044 19.2682 205.36 22.0535C206.737 19.9057 206.692 17.3932 205.261 15.3745C207.789 16.5489 210.529 19.7765 212.099 23.0787C212.966 19.966 210.186 15.5467 207.217 13.6458C210.118 14.1024 212.45 14.7571 216.079 18.4297C214.881 13.5166 210.663 11.8138 207.29 11.2079C211.002 10.8863 211.737 11.2682 215.016 12.635C211.458 9.1117 208.964 8.47709 205.4 8.81885C206.01 8.28185 206.595 7.99183 207.493 7.7535C205.999 7.16196 203.659 7.47209 202.749 8.35077C202.749 8.35077 202.57 6.73699 201.498 6.08516V6.0708C201.498 6.0708 201.489 6.07654 201.487 6.07941C201.484 6.07654 201.478 6.07367 201.475 6.0708V6.08516C200.403 6.73699 200.224 8.35077 200.224 8.35077C199.314 7.47209 196.974 7.16196 195.48 7.7535C196.378 7.99183 196.963 8.28185 197.573 8.81885C194.009 8.47709 191.515 9.1117 187.958 12.635C191.235 11.2682 191.971 10.8892 195.682 11.2079C192.31 11.8138 188.094 13.5166 186.894 18.4297" fill="url(#paint2_linear_1_47086)"/>
</g>
</g>
<defs>
<radialGradient id="paint0_radial_1_47086" cx="0" cy="0" r="1" gradientUnits="userSpaceOnUse" gradientTransform="translate(200.363 26.9483) scale(28.2184 27.288)">
<stop stop-opacity="0"/>
<stop offset="0.12" stop-opacity="0"/>
<stop offset="0.15" stop-opacity="0"/>
<stop offset="0.87" stop-opacity="0.2916"/>
<stop offset="1"/>
</radialGradient>
<linearGradient id="paint1_linear_1_47086" x1="180.027" y1="40.1038" x2="229.27" y2="14.1243" gradientUnits="userSpaceOnUse">
<stop stop-color="#C68D00"/>
<stop offset="0.25" stop-color="#FFD740"/>
<stop offset="0.34" stop-color="#F4C833"/>
<stop offset="0.51" stop-color="#D7A313"/>
<stop offset="0.6" stop-color="#C68D00"/>
<stop offset="1" stop-color="#FFD740"/>
</linearGradient>
<linearGradient id="paint2_linear_1_47086" x1="193.955" y1="7.79083" x2="209.626" y2="51.0576" gradientUnits="userSpaceOnUse">
<stop stop-color="#C68D00"/>
<stop offset="0.05" stop-color="#D2A32A"/>
<stop offset="0.1" stop-color="#DFB955"/>
<stop offset="0.16" stop-color="#EACC78"/>
<stop offset="0.22" stop-color="#F2DA94"/>
<stop offset="0.27" stop-color="#F8E4A8"/>
<stop offset="0.33" stop-color="#FBEAB4"/>
<stop offset="0.39" stop-color="#FDEDB8"/>
<stop offset="0.58" stop-color="#FDEDB8"/>
<stop offset="0.65" stop-color="#F5E09F"/>
<stop offset="0.79" stop-color="#E3C061"/>
<stop offset="1" stop-color="#C68D00"/>
</linearGradient>
<clipPath id="clip0_1_47086">
<rect width="229" height="56" fill="white" transform="translate(0.5 0.5)"/>
</clipPath>
</defs>
</svg>
