<svg width="48" height="48" viewBox="0 0 48 48" fill="none" xmlns="http://www.w3.org/2000/svg">
<path d="M0 24C0 10.7452 10.7452 0 24 0C37.2548 0 48 10.7452 48 24C48 37.2548 37.2548 48 24 48C10.7452 48 0 37.2548 0 24Z" fill="#F3FCF6"/>
<path d="M19.547 23.2943V18.2681L15.9843 20.0183C14.7369 20.6312 14 21.6054 14 22.6415V31.3945L17.5617 29.6443C18.8089 29.0313 19.5457 28.0572 19.5457 27.0211L19.5457 24.8692L17.2138 24.8562L19.547 23.2943Z" fill="#247732"/>
<path d="M30.4401 22.1598C29.1929 22.7426 28.4561 23.6688 28.4561 24.6539V25.095L30.711 26.5309H28.4561V31.3943L32.0162 29.7302C33.2635 29.1475 34.0003 28.2213 34.0002 27.2362V20.4957L30.4401 22.1598Z" fill="#2578BE"/>
<path d="M26.7098 24.593V14L23.1483 15.917C21.9009 16.5882 21.164 17.6553 21.1641 18.7902L21.1641 22.996L23.4962 24.7067H21.1641V34L24.7258 32.083C25.973 31.4117 26.7098 30.3448 26.7098 29.21V26.2661H24.4292L26.7098 24.593Z" fill="#61B256"/>
</svg>
