<svg xmlns="http://www.w3.org/2000/svg" width="32.249" height="43.959" viewBox="0 0 32.249 43.959">
  <g id="mewa_icon" transform="translate(132.68 -59.483)">
    <path id="Path_5188" data-name="Path 5188" d="M-123.736,89.763v-12.1l-5.745,4.213a7.832,7.832,0,0,0-3.2,6.315v21.072l5.743-4.213a7.833,7.833,0,0,0,3.2-6.315v-5.18l-3.76-.031Z" transform="translate(0 -10.506)" fill="#247732"/>
    <path id="Path_5189" data-name="Path 5189" d="M-74.259,91.364a7.833,7.833,0,0,0-3.2,6.315V98.8l3.636,3.636h-3.636v12.314l5.741-4.213a7.831,7.831,0,0,0,3.2-6.315V87.151Z" transform="translate(-31.913 -15.989)" fill="#2578be"/>
    <path id="Path_5190" data-name="Path 5190" d="M-96.37,82.766V59.483l-5.743,4.213a7.831,7.831,0,0,0-3.2,6.315v9.244l3.761,3.76h-3.761v20.426l5.743-4.213a7.832,7.832,0,0,0,3.2-6.315v-6.47h-3.677Z" transform="translate(-15.816)" fill="#61b256"/>
  </g>
</svg>
