<svg id="Nama" xmlns="http://www.w3.org/2000/svg" width="150" height="95" viewBox="0 0 150 95">
  <g id="Group_57064" data-name="Group 57064" transform="translate(-1035.07 32)">
    <g id="Group_57065" data-name="Group 57065">
      <g id="Group_57046" data-name="Group 57046" transform="translate(-14 -10)">
        <rect id="Rectangle_14178" data-name="Rectangle 14178" width="150" height="95" rx="8" transform="translate(1049.07 -22)" fill="#fff"/>
        <g id="Group_57041" data-name="Group 57041" transform="translate(12.072 -3)">
          <g id="Layer_2" data-name="Layer 2" transform="translate(1057.005 3.221)">
            <g id="Layer_1" data-name="Layer 1" transform="translate(-0.008)">
              <g id="Group_57042" data-name="Group 57042" transform="translate(0 3.576)">
                <g id="Group_57043" data-name="Group 57043" transform="translate(6.617 31.684)">
                  <path id="Path_125086" data-name="Path 125086" d="M17.674,93.947H16.29v-7.1h1.559l2.846,4.977V86.85h1.38v7.1H20.6l-2.927-5.115Z" transform="translate(-16.29 -86.85)" fill="#a7adae"/>
                  <path id="Path_125087" data-name="Path 125087" d="M48.669,88.425l-.946,2.842h1.892ZM45.32,93.947l2.513-7.1H49.55l2.509,7.1H50.492L50.013,92.5h-2.7l-.471,1.445Z" transform="translate(-33.534 -86.85)" fill="#a7adae"/>
                  <path id="Path_125088" data-name="Path 125088" d="M106.718,93.947H105.33v-7.1h2.176l1.291,5.631,1.275-5.631h2.14v7.1h-1.38V87.979L109.5,93.947h-1.453l-1.328-6.1Z" transform="translate(-69.18 -86.85)" fill="#a7adae"/>
                  <path id="Path_125089" data-name="Path 125089" d="M77.353,88.425l-.942,2.842H78.3ZM74,93.947l2.517-7.1h1.717l2.509,7.1H79.18L78.7,92.5H76l-.471,1.445Z" transform="translate(-50.57 -86.85)" fill="#a7adae"/>
                  <path id="Path_125090" data-name="Path 125090" d="M142.019,88.425l-.946,2.842h1.892Zm-3.349,5.521,2.513-7.1H142.9l2.509,7.1h-1.567l-.479-1.445h-2.7l-.471,1.445Z" transform="translate(-88.985 -86.85)" fill="#a7adae"/>
                </g>
                <path id="Path_125091" data-name="Path 125091" d="M146.121,20.782H148.7a.739.739,0,0,0,.544-.215.7.7,0,0,0,.215-.516V17.473a.735.735,0,0,0-.215-.548.7.7,0,0,0-.512-.215h-2.615a.812.812,0,0,0-.56.215.719.719,0,0,0-.231.548v2.578a.7.7,0,0,0,.215.516.779.779,0,0,0,.576.215" transform="translate(-86.324 -13.502)" fill="#193661"/>
                <path id="Path_125092" data-name="Path 125092" d="M63.215,22.158c0-.54-.028-1.161-.049-1.868a.812.812,0,0,0-.2-.447.69.69,0,0,0-.532-.183H59.675a.654.654,0,0,0-.483.183.6.6,0,0,0-.179.447c.041,1.587.065,3.065.065,4.433v3.938c0,.532-.089.844-.264.942a2.436,2.436,0,0,1-1.06.15H48.011a3.816,3.816,0,0,1-.532-.049,2.927,2.927,0,0,1-.629-.166,2.2,2.2,0,0,1-.544-.313.877.877,0,0,1-.317-.532,3.4,3.4,0,0,0,.069-.678V25.385a7.251,7.251,0,0,0-1.953-5.509,7.348,7.348,0,0,0-5.327-1.835,7.676,7.676,0,0,0-5.428,1.868,7.176,7.176,0,0,0-2.03,5.509V28.2a2.635,2.635,0,0,1-.1.812.812.812,0,0,1-.264.43,1.173,1.173,0,0,1-.479.231,3.415,3.415,0,0,1-.6.081H6.15a2.732,2.732,0,0,1-1.388-.28c-.309-.187-.463-.658-.463-1.409V9.471A.715.715,0,0,0,4.132,9a.617.617,0,0,0-.483-.195H.69A.678.678,0,0,0,.194,9a.637.637,0,0,0-.2.467V29.323A6.865,6.865,0,0,0,.34,31.69a3.276,3.276,0,0,0,.995,1.421,3.548,3.548,0,0,0,1.555.7,10.417,10.417,0,0,0,2.03.179H29.226a10.064,10.064,0,0,0,2.152-.231,3.386,3.386,0,0,0,1.721-.893,4.665,4.665,0,0,0,2.363,1.425,11.485,11.485,0,0,0,3.248.463,9.248,9.248,0,0,0,3.029-.463,5.132,5.132,0,0,0,2.2-1.425,5.745,5.745,0,0,0,1.953.861,9.248,9.248,0,0,0,2.217.264H58.465c.528,0,1.043-.032,1.539-.065s.95-.073,1.356-.114a6.76,6.76,0,0,0,.978-.166,1.137,1.137,0,0,0,.544-.406,1.576,1.576,0,0,0,.215-.564c.069-.593.106-1.372.118-2.33s0-2.148,0-3.56V22.158m-21.326,5A4.311,4.311,0,0,1,41.126,30a3.032,3.032,0,0,1-2.436.877,3.727,3.727,0,0,1-2.03-.512,2.578,2.578,0,0,1-1.06-1.705,10.721,10.721,0,0,1-.1-1.5V25.734a4.554,4.554,0,0,1,.759-2.931,3,3,0,0,1,2.436-.909,3,3,0,0,1,2.436.909,4.6,4.6,0,0,1,.747,2.931Z" transform="translate(0.008 -8.808)" fill="#193661"/>
              </g>
              <path id="Path_125093" data-name="Path 125093" d="M194.238,33.483V20.41l-6.2,4.551a8.464,8.464,0,0,0-3.455,6.821V54.541l6.2-4.551a8.453,8.453,0,0,0,3.455-6.821V37.575l-4.06-.032Z" transform="translate(-109.64 -12.124)" fill="#0a8944"/>
              <path id="Path_125094" data-name="Path 125094" d="M250.035,35.621a8.461,8.461,0,0,0-3.455,6.821V43.66l3.93,3.926h-3.93v13.3l6.2-4.551a8.453,8.453,0,0,0,3.455-6.821V31.07Z" transform="translate(-146.469 -18.456)" fill="#4789c8"/>
              <path id="Path_125095" data-name="Path 125095" d="M224.958,25.147V0l-6.2,4.551a8.457,8.457,0,0,0-3.459,6.816v9.987l4.06,4.06H215.3V47.5l6.2-4.551a8.453,8.453,0,0,0,3.455-6.821V29.117h-3.97Z" transform="translate(-127.889)" fill="#63be6c"/>
            </g>
          </g>
          <text id="بوابة" transform="translate(1120.206 4)" fill="#989e9f" font-size="12" font-family="SSTArabic-Medium, SST Arabic" font-weight="500"><tspan x="-23.676" y="0">بوابة</tspan></text>
          <rect id="Rectangle_14288" data-name="Rectangle 14288" width="110" height="16" rx="6" transform="translate(1056.998 53)" fill="#63be6a"/>
          <text id="للخدمات_الإلكترونية" data-name="للخدمات الإلكترونية" transform="translate(1161.382 64)" fill="#fff" font-size="12" font-family="SSTArabic-Medium, SST Arabic" font-weight="500"><tspan x="-95.964" y="0">للخدمات الإلكترونية</tspan></text>
        </g>
      </g>
      <rect id="Rectangle_14185" data-name="Rectangle 14185" width="3" height="17" rx="1.5" transform="translate(1118.454 60) rotate(90)" fill="#63be6a"/>
    </g>
  </g>
</svg>
