<svg xmlns="http://www.w3.org/2000/svg" width="46" height="46" viewBox="0 0 46 46">
  <g id="Newsnotificationsoutline" transform="translate(-69.839 -37.718)">
    <g id="Group_124926" data-name="Group 124926" transform="translate(5.272 3.092)">
      <path id="Path_125116" data-name="Path 125116" d="M95.1,61.312c-1.127-1.379-1.922-2.081-1.922-5.882,0-3.481-1.778-4.722-3.241-5.324a.781.781,0,0,1-.437-.463,1.957,1.957,0,0,0-3.863,0,.774.774,0,0,1-.437.462c-1.465.6-3.241,1.839-3.241,5.324,0,3.8-.8,4.5-1.924,5.882a.885.885,0,0,0,.759,1.429H94.345A.885.885,0,0,0,95.1,61.312Z" fill="none" stroke="#fff" stroke-linecap="round" stroke-linejoin="round" stroke-width="2"/>
      <path id="Path_125117" data-name="Path 125117" d="M197.616,384v.7a2.808,2.808,0,1,1-5.616,0V384" transform="translate(-107.24 -321.259)" fill="none" stroke="#fff" stroke-linecap="round" stroke-linejoin="round" stroke-width="2"/>
    </g>
    <g id="Ellipse_201" data-name="Ellipse 201" transform="translate(76.839 44.718)" fill="none" stroke="#f05349" stroke-width="2">
      <circle cx="16" cy="16" r="16" stroke="none"/>
      <circle cx="16" cy="16" r="15" fill="none"/>
    </g>
    <g id="Ellipse_202" data-name="Ellipse 202" transform="translate(69.839 37.718)" fill="none" stroke="#f05349" stroke-width="1.5" opacity="0.65">
      <circle cx="23" cy="23" r="23" stroke="none"/>
      <circle cx="23" cy="23" r="22.25" fill="none"/>
    </g>
  </g>
</svg>
