<svg xmlns="http://www.w3.org/2000/svg" width="24.158" height="28.094" viewBox="0 0 24.158 28.094">
  <g id="notifications-outline" transform="translate(-78.809 -47)">
    <path id="Path_125116" data-name="Path 125116" d="M101.658,67.033c-1.611-1.972-2.748-2.975-2.748-8.41,0-4.977-2.542-6.751-4.634-7.612a1.117,1.117,0,0,1-.624-.662,2.8,2.8,0,0,0-5.523,0,1.107,1.107,0,0,1-.624.661c-2.094.862-4.634,2.63-4.634,7.612,0,5.435-1.14,6.439-2.751,8.41A1.265,1.265,0,0,0,81.2,69.076h19.375A1.266,1.266,0,0,0,101.658,67.033Z" transform="translate(0)" fill="none" stroke="#003462" stroke-linecap="round" stroke-linejoin="round" stroke-width="2"/>
    <path id="Path_125117" data-name="Path 125117" d="M200.029,384v1A4.015,4.015,0,1,1,192,385v-1" transform="translate(-105.126 -314.924)" fill="none" stroke="#003462" stroke-linecap="round" stroke-linejoin="round" stroke-width="2"/>
  </g>
</svg>
