<svg width="20" height="20" viewBox="0 0 20 20" fill="none" xmlns="http://www.w3.org/2000/svg">
<path fill-rule="evenodd" clip-rule="evenodd" d="M9.87823 1.45825C9.40302 1.45822 8.98777 1.4582 8.64568 1.50283C8.27292 1.55147 7.92556 1.65923 7.61452 1.91544C7.31059 2.1658 7.12548 2.48896 6.97852 2.85C6.83835 3.19435 6.71046 3.63288 6.55775 4.15651L6.49404 4.37496L4.44119 4.37494C3.92947 4.37475 3.56615 4.37461 3.25945 4.44536C2.40105 4.64338 1.66914 5.26085 1.49155 6.12305C1.42896 6.42696 1.47066 6.77112 1.51934 7.17282L1.5301 7.26189C1.60807 7.91232 1.83365 8.46803 2.24507 8.91572L2.09642 10.6395C1.95326 12.2995 1.84043 13.6078 1.88653 14.6345C1.93372 15.6853 2.1496 16.5456 2.75137 17.2403C3.358 17.9406 4.1656 18.2523 5.17028 18.3993C6.14254 18.5417 7.39426 18.5416 8.96954 18.5416H11.0324C12.6077 18.5416 13.8594 18.5417 14.8317 18.3993C15.8364 18.2523 16.644 17.9406 17.2506 17.2403C17.8524 16.5456 18.0683 15.6853 18.1155 14.6345C18.1616 13.6078 18.0487 12.2995 17.9056 10.6395L17.7569 8.91576C18.1684 8.46807 18.394 7.91234 18.4719 7.26189L18.4827 7.17281C18.5314 6.77111 18.5731 6.42696 18.5105 6.12305C18.3329 5.26085 17.601 4.64338 16.7426 4.44536C16.4359 4.37461 16.0726 4.37475 15.5608 4.37494L13.5079 4.37496L13.4442 4.15653C13.2915 3.63289 13.1636 3.19435 13.0235 2.85C12.8765 2.48896 12.6914 2.1658 12.3875 1.91544C12.0764 1.65923 11.7291 1.55147 11.3563 1.50283C11.0142 1.4582 10.599 1.45822 10.1238 1.45825H9.87823ZM12.2058 4.37496C12.0671 3.90094 11.9674 3.57119 11.8657 3.32127C11.7568 3.05365 11.6707 2.94451 11.5927 2.88026C11.5218 2.82188 11.4246 2.77234 11.1946 2.74233C10.9429 2.70948 10.61 2.70826 10.0863 2.70826H9.9157C9.39201 2.70826 9.05912 2.70948 8.80741 2.74233C8.57739 2.77234 8.48015 2.82188 8.40927 2.88026C8.33128 2.94451 8.24522 3.05365 8.13628 3.32127C8.03455 3.5712 7.93484 3.90094 7.79617 4.37496H12.2058ZM16.0535 9.88478C16.2328 9.83199 16.4054 9.7726 16.5704 9.70525L16.6561 10.7001C16.8042 12.4173 16.9087 13.6436 16.8667 14.5784C16.8254 15.4987 16.6444 16.031 16.3058 16.4219C15.9721 16.8071 15.5 17.0382 14.6507 17.1625C13.7794 17.29 12.6194 17.2916 10.981 17.2916H9.02101C7.38259 17.2916 6.22255 17.29 5.35132 17.1625C4.50196 17.0382 4.02991 16.8071 3.69618 16.4219C3.3576 16.031 3.1766 15.4987 3.13527 14.5784C3.09329 13.6436 3.19776 12.4173 3.34584 10.7001L3.43163 9.70523C3.59656 9.77259 3.7692 9.83198 3.94852 9.88478L7.5169 10.9353C8.61688 11.2593 9.29242 11.4583 10.001 11.4583C10.7096 11.4583 11.3851 11.2593 12.4851 10.9353L16.0535 9.88478ZM4.52399 5.62496C3.89549 5.62496 3.68912 5.62907 3.54043 5.66337C3.05282 5.77586 2.77474 6.08932 2.71586 6.37521C2.70017 6.45138 2.70614 6.57038 2.77121 7.1131C2.82576 7.56815 2.97195 7.86898 3.18673 8.09255C3.41071 8.32569 3.75833 8.52574 4.30154 8.68566L7.77749 9.70899C8.99905 10.0686 9.49402 10.2083 10.001 10.2083C10.508 10.2083 11.003 10.0686 12.2245 9.70899L15.7005 8.68566C16.2437 8.52574 16.5913 8.32569 16.8153 8.09255C17.0301 7.86898 17.1763 7.56815 17.2308 7.1131C17.2959 6.57037 17.3019 6.45138 17.2862 6.37521C17.2273 6.08932 16.9492 5.77586 16.4616 5.66337C16.3129 5.62907 16.1065 5.62496 15.478 5.62496H4.52399Z" fill="white"/>
</svg>
