<svg xmlns="http://www.w3.org/2000/svg" xmlns:xlink="http://www.w3.org/1999/xlink" width="1802.158" height="272.786" viewBox="0 0 1802.158 272.786">
  <defs>
    <clipPath id="clip-path">
      <rect id="Rectangle_14190" data-name="Rectangle 14190" width="1802.158" height="272.786" fill="#041a2d"/>
    </clipPath>
  </defs>
  <g id="patternHN" opacity="0.06">
    <g id="Group_124853" data-name="Group 124853" clip-path="url(#clip-path)">
      <path id="Path_125122" data-name="Path 125122" d="M37.681,6.112a2.246,2.246,0,0,1-2.238-2.286,2.238,2.238,0,1,1,4.476,0,2.246,2.246,0,0,1-2.238,2.286" transform="translate(74.328 74.028)" fill="#041a2d"/>
      <path id="Path_125123" data-name="Path 125123" d="M38.186,6.761a2.429,2.429,0,1,1,2.429-2.429,2.439,2.439,0,0,1-2.429,2.429" transform="translate(58.68 88.715)" fill="#041a2d"/>
      <path id="Path_125124" data-name="Path 125124" d="M39.857,9.812A3.81,3.81,0,1,1,43.667,6a3.821,3.821,0,0,1-3.81,3.81" transform="translate(41.817 102.189)" fill="#041a2d"/>
      <path id="Path_125125" data-name="Path 125125" d="M43.112,16.115a6.834,6.834,0,1,1,6.81-6.81,6.809,6.809,0,0,1-6.81,6.81" transform="translate(23.417 114.078)" fill="#041a2d"/>
      <path id="Path_125126" data-name="Path 125126" d="M45.248,20.062a8.667,8.667,0,1,1,8.667-8.667,8.668,8.668,0,0,1-8.667,8.667" transform="translate(6.137 127.132)" fill="#041a2d"/>
      <path id="Path_125127" data-name="Path 125127" d="M46.732,22.736a9.858,9.858,0,1,1,9.858-9.858,9.878,9.878,0,0,1-9.858,9.858" transform="translate(-10.491 140.793)" fill="#041a2d"/>
      <path id="Path_125128" data-name="Path 125128" d="M47.7,24.468A10.572,10.572,0,1,1,58.275,13.9,10.538,10.538,0,0,1,47.7,24.468" transform="translate(-26.653 154.92)" fill="#041a2d"/>
      <path id="Path_125129" data-name="Path 125129" d="M43.546,15.644A5.953,5.953,0,1,1,49.5,9.691a5.955,5.955,0,0,1-5.953,5.953" transform="translate(-37.641 174.269)" fill="#041a2d"/>
      <path id="Path_125130" data-name="Path 125130" d="M36.522,5.494A2.216,2.216,0,0,1,34.331,3.3a2.191,2.191,0,1,1,4.381,0,2.216,2.216,0,0,1-2.191,2.191" transform="translate(128.493 51.882)" fill="#041a2d"/>
      <path id="Path_125131" data-name="Path 125131" d="M37.026,6.189a2.358,2.358,0,0,1-2.381-2.381,2.388,2.388,0,0,1,2.381-2.381,2.42,2.42,0,0,1,2.381,2.381,2.388,2.388,0,0,1-2.381,2.381" transform="translate(112.844 66.522)" fill="#041a2d"/>
      <path id="Path_125132" data-name="Path 125132" d="M38.37,8.627A3.415,3.415,0,0,1,34.941,5.2a3.429,3.429,0,1,1,6.858,0A3.415,3.415,0,0,1,38.37,8.627" transform="translate(96.356 80.276)" fill="#041a2d"/>
      <path id="Path_125133" data-name="Path 125133" d="M40.46,12.48A5.239,5.239,0,1,1,45.7,7.242,5.224,5.224,0,0,1,40.46,12.48" transform="translate(79.122 93.377)" fill="#041a2d"/>
      <path id="Path_125134" data-name="Path 125134" d="M43.529,18.312a8.025,8.025,0,1,1,8-8.048,8.038,8.038,0,0,1-8,8.048" transform="translate(60.908 105.499)" fill="#041a2d"/>
      <path id="Path_125135" data-name="Path 125135" d="M45.852,22.73a10.1,10.1,0,1,1,10.1-10.1,10.1,10.1,0,0,1-10.1,10.1" transform="translate(43.394 118.321)" fill="#041a2d"/>
      <path id="Path_125136" data-name="Path 125136" d="M46.356,23.425A10.287,10.287,0,1,1,56.643,13.139,10.3,10.3,0,0,1,46.356,23.425" transform="translate(27.745 132.96)" fill="#041a2d"/>
      <path id="Path_125137" data-name="Path 125137" d="M46.3,23.036a9.929,9.929,0,1,1,9.906-9.906A9.9,9.9,0,0,1,46.3,23.036" transform="translate(12.656 148.113)" fill="#041a2d"/>
      <path id="Path_125138" data-name="Path 125138" d="M42.8,15.579a6,6,0,1,1,6-6,6.006,6.006,0,0,1-6,6" transform="translate(1.017 166.809)" fill="#041a2d"/>
      <path id="Path_125139" data-name="Path 125139" d="M35.361,4.922A2.143,2.143,0,1,1,37.5,2.779a2.134,2.134,0,0,1-2.143,2.143" transform="translate(182.706 29.643)" fill="#041a2d"/>
      <path id="Path_125140" data-name="Path 125140" d="M35.865,5.57a2.337,2.337,0,0,1-2.333-2.334,2.334,2.334,0,0,1,4.667,0A2.337,2.337,0,0,1,35.865,5.57" transform="translate(167.057 44.329)" fill="#041a2d"/>
      <path id="Path_125141" data-name="Path 125141" d="M37.163,7.915A3.334,3.334,0,1,1,40.5,4.582a3.313,3.313,0,0,1-3.334,3.334" transform="translate(150.615 58.177)" fill="#041a2d"/>
      <path id="Path_125142" data-name="Path 125142" d="M39.3,11.861a5.167,5.167,0,1,1,0-10.334,5.167,5.167,0,0,1,0,10.334" transform="translate(133.334 71.184)" fill="#041a2d"/>
      <path id="Path_125143" data-name="Path 125143" d="M41.2,15.479a6.834,6.834,0,1,1,6.858-6.81,6.809,6.809,0,0,1-6.858,6.81" transform="translate(116.24 84.425)" fill="#041a2d"/>
      <path id="Path_125144" data-name="Path 125144" d="M42.78,18.247a8.072,8.072,0,1,1,8.1-8.1,8.089,8.089,0,0,1-8.1,8.1" transform="translate(99.518 98.039)" fill="#041a2d"/>
      <path id="Path_125145" data-name="Path 125145" d="M45.056,22.571a10.1,10.1,0,1,1,10.1-10.1,10.1,10.1,0,0,1-10.1,10.1" transform="translate(82.098 110.907)" fill="#041a2d"/>
      <path id="Path_125146" data-name="Path 125146" d="M45.421,23.03A10.168,10.168,0,1,1,55.564,12.886,10.152,10.152,0,0,1,45.421,23.03" transform="translate(66.589 125.64)" fill="#041a2d"/>
      <path id="Path_125147" data-name="Path 125147" d="M44.527,20.851a8.906,8.906,0,1,1,8.905-8.906,8.923,8.923,0,0,1-8.905,8.906" transform="translate(52.339 141.725)" fill="#041a2d"/>
      <path id="Path_125148" data-name="Path 125148" d="M36.491,4l-.048-.048.048-.1.048.1L36.491,4" transform="translate(30.043 180.031)" fill="#041a2d"/>
      <path id="Path_125149" data-name="Path 125149" d="M34.565,4.763A2.143,2.143,0,1,1,36.708,2.62a2.134,2.134,0,0,1-2.143,2.143" transform="translate(221.41 22.23)" fill="#041a2d"/>
      <path id="Path_125150" data-name="Path 125150" d="M35.3,5.883a2.548,2.548,0,1,1,2.572-2.572A2.561,2.561,0,0,1,35.3,5.883" transform="translate(205.479 36.683)" fill="#041a2d"/>
      <path id="Path_125151" data-name="Path 125151" d="M37.3,9.64a4.286,4.286,0,1,1,4.286-4.286A4.268,4.268,0,0,1,37.3,9.64" transform="translate(188.339 49.784)" fill="#041a2d"/>
      <path id="Path_125152" data-name="Path 125152" d="M39.343,13.493a6.072,6.072,0,1,1,6.048-6.048,6.057,6.057,0,0,1-6.048,6.048" transform="translate(171.151 62.886)" fill="#041a2d"/>
      <path id="Path_125153" data-name="Path 125153" d="M40.406,15.319a6.834,6.834,0,1,1,6.858-6.81,6.809,6.809,0,0,1-6.858,6.81" transform="translate(154.944 76.966)" fill="#041a2d"/>
      <path id="Path_125154" data-name="Path 125154" d="M41.378,16.91a7.477,7.477,0,1,1,7.477-7.477,7.459,7.459,0,0,1-7.477,7.477" transform="translate(138.828 91.186)" fill="#041a2d"/>
      <path id="Path_125155" data-name="Path 125155" d="M43.515,20.9a9.334,9.334,0,1,1,9.334-9.334A9.349,9.349,0,0,1,43.515,20.9" transform="translate(121.499 104.194)" fill="#041a2d"/>
      <path id="Path_125156" data-name="Path 125156" d="M44.766,23.106A10.287,10.287,0,1,1,55.052,12.82,10.3,10.3,0,0,1,44.766,23.106" transform="translate(105.105 118.087)" fill="#041a2d"/>
      <path id="Path_125157" data-name="Path 125157" d="M34.834,6.43a2.886,2.886,0,0,1-2.9-2.905,2.9,2.9,0,1,1,5.81,0,2.886,2.886,0,0,1-2.9,2.905" transform="translate(243.857 28.897)" fill="#041a2d"/>
      <path id="Path_125158" data-name="Path 125158" d="M37.157,10.754A4.929,4.929,0,1,1,42.11,5.8a4.949,4.949,0,0,1-4.953,4.953" transform="translate(226.39 41.765)" fill="#041a2d"/>
      <path id="Path_125159" data-name="Path 125159" d="M38.641,13.428a6.12,6.12,0,1,1,6.1-6.143,6.159,6.159,0,0,1-6.1,6.143" transform="translate(209.761 55.426)" fill="#041a2d"/>
      <path id="Path_125160" data-name="Path 125160" d="M39.332,14.594A6.548,6.548,0,1,1,45.857,8.07a6.5,6.5,0,0,1-6.524,6.524" transform="translate(193.879 69.832)" fill="#041a2d"/>
      <path id="Path_125161" data-name="Path 125161" d="M40.256,16.044A7.12,7.12,0,1,1,47.4,8.9a7.134,7.134,0,0,1-7.143,7.143" transform="translate(177.81 84.146)" fill="#041a2d"/>
      <path id="Path_125162" data-name="Path 125162" d="M41.553,18.388A8.144,8.144,0,1,1,49.7,10.245a8.171,8.171,0,0,1-8.144,8.144" transform="translate(161.369 97.946)" fill="#041a2d"/>
      <path id="Path_125163" data-name="Path 125163" d="M43.97,22.947A10.287,10.287,0,1,1,54.256,12.661,10.3,10.3,0,0,1,43.97,22.947" transform="translate(143.808 110.674)" fill="#041a2d"/>
      <path id="Path_125164" data-name="Path 125164" d="M32.974,4.445A2.143,2.143,0,1,1,35.117,2.3a2.134,2.134,0,0,1-2.143,2.143" transform="translate(298.769 7.404)" fill="#041a2d"/>
      <path id="Path_125165" data-name="Path 125165" d="M33.992,6.177A2.857,2.857,0,1,1,36.85,3.319a2.866,2.866,0,0,1-2.857,2.857" transform="translate(282.559 21.531)" fill="#041a2d"/>
      <path id="Path_125166" data-name="Path 125166" d="M36.455,10.83A5.048,5.048,0,1,1,41.5,5.782a5.02,5.02,0,0,1-5.048,5.048" transform="translate(264.952 34.212)" fill="#041a2d"/>
      <path id="Path_125167" data-name="Path 125167" d="M37.706,13.034a6,6,0,1,1,6-6,6.006,6.006,0,0,1-6,6" transform="translate(248.557 48.153)" fill="#041a2d"/>
      <path id="Path_125168" data-name="Path 125168" d="M38.257,13.823A6.239,6.239,0,1,1,44.5,7.585a6.26,6.26,0,0,1-6.239,6.239" transform="translate(232.862 62.746)" fill="#041a2d"/>
      <path id="Path_125169" data-name="Path 125169" d="M39.088,15.225A6.786,6.786,0,1,1,45.85,8.462a6.758,6.758,0,0,1-6.762,6.763" transform="translate(216.887 77.012)" fill="#041a2d"/>
      <path id="Path_125170" data-name="Path 125170" d="M40.059,16.815a7.429,7.429,0,1,1,7.429-7.429,7.439,7.439,0,0,1-7.429,7.429" transform="translate(200.724 91.232)" fill="#041a2d"/>
      <path id="Path_125171" data-name="Path 125171" d="M42.009,20.432a9.1,9.1,0,1,1,9.1-9.1,9.1,9.1,0,0,1-9.1,9.1" transform="translate(183.63 104.427)" fill="#041a2d"/>
      <path id="Path_125172" data-name="Path 125172" d="M34.105,3.527l-.048-.048.048-.1.048.1-.048.048" transform="translate(146.082 157.778)" fill="#041a2d"/>
      <path id="Path_125173" data-name="Path 125173" d="M32.179,4.286a2.143,2.143,0,1,1,2.143-2.143,2.134,2.134,0,0,1-2.143,2.143" transform="translate(337.425 -0.009)" fill="#041a2d"/>
      <path id="Path_125174" data-name="Path 125174" d="M33.057,5.782a2.713,2.713,0,0,1-2.715-2.715,2.715,2.715,0,1,1,5.429,0,2.713,2.713,0,0,1-2.715,2.715" transform="translate(321.403 14.211)" fill="#041a2d"/>
      <path id="Path_125175" data-name="Path 125175" d="M35.566,10.436a4.929,4.929,0,1,1,4.953-4.953,4.949,4.949,0,0,1-4.953,4.953" transform="translate(303.75 26.939)" fill="#041a2d"/>
      <path id="Path_125176" data-name="Path 125176" d="M36.676,12.4a5.762,5.762,0,1,1,5.762-5.762A5.752,5.752,0,0,1,36.676,12.4" transform="translate(287.495 40.973)" fill="#041a2d"/>
      <path id="Path_125177" data-name="Path 125177" d="M37.228,13.193a6,6,0,1,1,6-6,6.006,6.006,0,0,1-6,6" transform="translate(271.751 55.566)" fill="#041a2d"/>
      <path id="Path_125178" data-name="Path 125178" d="M37.966,14.359A6.429,6.429,0,1,1,44.4,7.93a6.433,6.433,0,0,1-6.429,6.429" transform="translate(255.869 69.972)" fill="#041a2d"/>
      <path id="Path_125179" data-name="Path 125179" d="M38.75,15.573a6.882,6.882,0,1,1,6.905-6.905,6.91,6.91,0,0,1-6.905,6.905" transform="translate(239.941 84.379)" fill="#041a2d"/>
      <path id="Path_125180" data-name="Path 125180" d="M39.908,17.682A7.786,7.786,0,1,1,47.67,9.919a7.764,7.764,0,0,1-7.762,7.763" transform="translate(223.639 98.319)" fill="#041a2d"/>
      <path id="Path_125181" data-name="Path 125181" d="M31.655,4.3a2.114,2.114,0,0,1-2.1-2.1,2.1,2.1,0,0,1,4.191,0,2.114,2.114,0,0,1-2.1,2.1" transform="translate(360.664 7.497)" fill="#041a2d"/>
      <path id="Path_125182" data-name="Path 125182" d="M34.3,9.335a4.453,4.453,0,1,1,4.477-4.477A4.471,4.471,0,0,1,34.3,9.335" transform="translate(342.871 19.992)" fill="#041a2d"/>
      <path id="Path_125183" data-name="Path 125183" d="M35.788,12.009a5.681,5.681,0,0,1-5.667-5.667,5.667,5.667,0,0,1,11.334,0,5.681,5.681,0,0,1-5.667,5.667" transform="translate(326.243 33.653)" fill="#041a2d"/>
      <path id="Path_125184" data-name="Path 125184" d="M36.2,12.563A5.762,5.762,0,1,1,41.962,6.8,5.752,5.752,0,0,1,36.2,12.563" transform="translate(310.688 48.386)" fill="#041a2d"/>
      <path id="Path_125185" data-name="Path 125185" d="M36.89,13.587a6.12,6.12,0,1,1,6.143-6.143,6.158,6.158,0,0,1-6.143,6.143" transform="translate(294.853 62.839)" fill="#041a2d"/>
      <path id="Path_125186" data-name="Path 125186" d="M37.582,14.753a6.548,6.548,0,1,1,6.524-6.524,6.534,6.534,0,0,1-6.524,6.524" transform="translate(278.969 77.245)" fill="#041a2d"/>
      <path id="Path_125187" data-name="Path 125187" d="M38.413,16.109a7.072,7.072,0,1,1,7.048-7.048,7.032,7.032,0,0,1-7.048,7.048" transform="translate(262.994 91.605)" fill="#041a2d"/>
      <path id="Path_125188" data-name="Path 125188" d="M39.9,18.783a8.263,8.263,0,1,1,8.239-8.239A8.242,8.242,0,0,1,39.9,18.783" transform="translate(246.366 105.266)" fill="#041a2d"/>
      <path id="Path_125189" data-name="Path 125189" d="M28.855.139,28.807.092l.048-.048H28.9l-.048.1" transform="translate(401.364 2.051)" fill="#041a2d"/>
      <path id="Path_125190" data-name="Path 125190" d="M31.271,4.7A2.216,2.216,0,0,1,29.08,2.508a2.191,2.191,0,0,1,4.381,0A2.216,2.216,0,0,1,31.271,4.7" transform="translate(383.813 14.77)" fill="#041a2d"/>
      <path id="Path_125191" data-name="Path 125191" d="M34.76,11.378a5.405,5.405,0,1,1,5.429-5.429,5.427,5.427,0,0,1-5.429,5.429" transform="translate(365.132 26.473)" fill="#041a2d"/>
      <path id="Path_125192" data-name="Path 125192" d="M35.312,12.168A5.643,5.643,0,1,1,40.932,6.5a5.65,5.65,0,0,1-5.62,5.667" transform="translate(349.436 41.066)" fill="#041a2d"/>
      <path id="Path_125193" data-name="Path 125193" d="M35.862,12.957a5.882,5.882,0,1,1,5.905-5.905,5.9,5.9,0,0,1-5.905,5.905" transform="translate(333.742 55.659)" fill="#041a2d"/>
      <path id="Path_125194" data-name="Path 125194" d="M36.46,13.888A6.191,6.191,0,1,1,42.651,7.7a6.179,6.179,0,0,1-6.191,6.191" transform="translate(317.999 70.205)" fill="#041a2d"/>
      <path id="Path_125195" data-name="Path 125195" d="M37.244,15.149a6.667,6.667,0,1,1,6.667-6.667,6.687,6.687,0,0,1-6.667,6.667" transform="translate(302.071 84.565)" fill="#041a2d"/>
      <path id="Path_125196" data-name="Path 125196" d="M38.216,16.739A7.31,7.31,0,1,1,45.5,9.405a7.337,7.337,0,0,1-7.286,7.334" transform="translate(285.955 98.785)" fill="#041a2d"/>
      <path id="Path_125197" data-name="Path 125197" d="M40.259,20.591a9.1,9.1,0,1,1,9.1-9.1,9.1,9.1,0,0,1-9.1,9.1" transform="translate(268.72 111.84)" fill="#041a2d"/>
      <path id="Path_125198" data-name="Path 125198" d="M28.891,1.382A.579.579,0,0,1,28.319.81a.573.573,0,1,1,1.143,0,.579.579,0,0,1-.571.571" transform="translate(424.054 8.896)" fill="#041a2d"/>
      <path id="Path_125199" data-name="Path 125199" d="M32.146,7.59a3.572,3.572,0,1,1,3.572-3.572A3.567,3.567,0,0,1,32.146,7.59" transform="translate(405.654 20.831)" fill="#041a2d"/>
      <path id="Path_125200" data-name="Path 125200" d="M33.723,10.5a4.847,4.847,0,0,1-4.858-4.858,4.858,4.858,0,1,1,9.715,0A4.847,4.847,0,0,1,33.723,10.5" transform="translate(388.934 34.399)" fill="#041a2d"/>
      <path id="Path_125201" data-name="Path 125201" d="M34.833,12.327A5.643,5.643,0,1,1,40.5,6.66a5.681,5.681,0,0,1-5.667,5.667" transform="translate(372.679 48.479)" fill="#041a2d"/>
      <path id="Path_125202" data-name="Path 125202" d="M35.478,13.352a6,6,0,1,1,6-6,5.976,5.976,0,0,1-6,6" transform="translate(356.842 62.979)" fill="#041a2d"/>
      <path id="Path_125203" data-name="Path 125203" d="M36.03,14.141A6.239,6.239,0,1,1,42.268,7.9a6.26,6.26,0,0,1-6.239,6.239" transform="translate(341.146 77.572)" fill="#041a2d"/>
      <path id="Path_125204" data-name="Path 125204" d="M36.861,15.543A6.786,6.786,0,1,1,43.623,8.78a6.758,6.758,0,0,1-6.762,6.763" transform="translate(325.171 91.839)" fill="#041a2d"/>
      <path id="Path_125205" data-name="Path 125205" d="M37.972,17.37A7.548,7.548,0,1,1,45.5,9.845a7.551,7.551,0,0,1-7.525,7.524" transform="translate(308.915 105.965)" fill="#041a2d"/>
      <path id="Path_125206" data-name="Path 125206" d="M29.719,4.133a1.9,1.9,0,1,1,1.905-1.9,1.911,1.911,0,0,1-1.905,1.9" transform="translate(445.942 15.05)" fill="#041a2d"/>
      <path id="Path_125207" data-name="Path 125207" d="M32.321,9.022a4.248,4.248,0,0,1-4.238-4.238,4.239,4.239,0,0,1,8.477,0,4.248,4.248,0,0,1-4.238,4.238" transform="translate(428.195 27.638)" fill="#041a2d"/>
      <path id="Path_125208" data-name="Path 125208" d="M32.733,9.576a4.334,4.334,0,1,1,4.334-4.334,4.349,4.349,0,0,1-4.334,4.334" transform="translate(412.64 42.371)" fill="#041a2d"/>
      <path id="Path_125209" data-name="Path 125209" d="M34.123,12.014a5.405,5.405,0,1,1,5.429-5.429,5.427,5.427,0,0,1-5.429,5.429" transform="translate(396.105 56.125)" fill="#041a2d"/>
      <path id="Path_125210" data-name="Path 125210" d="M35,13.511a6,6,0,1,1,6-6,6.006,6.006,0,0,1-6,6" transform="translate(380.083 70.392)" fill="#041a2d"/>
      <path id="Path_125211" data-name="Path 125211" d="M35.553,14.3a6.239,6.239,0,1,1,6.239-6.239A6.26,6.26,0,0,1,35.553,14.3" transform="translate(364.339 84.985)" fill="#041a2d"/>
      <path id="Path_125212" data-name="Path 125212" d="M36.617,16.174a7.024,7.024,0,1,1,7-7,7.012,7.012,0,0,1-7,7" transform="translate(348.132 99.065)" fill="#041a2d"/>
      <path id="Path_125213" data-name="Path 125213" d="M37.821,18.235a7.905,7.905,0,1,1,7.905-7.905,7.886,7.886,0,0,1-7.905,7.905" transform="translate(331.783 113.006)" fill="#041a2d"/>
      <path id="Path_125214" data-name="Path 125214" d="M27.245.534l-.19-.19L27.245.2l.191.143-.191.19" transform="translate(486.319 9.352)" fill="#041a2d"/>
      <path id="Path_125215" data-name="Path 125215" d="M30.686,7.214a3.381,3.381,0,1,1,3.381-3.381,3.394,3.394,0,0,1-3.381,3.381" transform="translate(467.738 21.018)" fill="#041a2d"/>
      <path id="Path_125216" data-name="Path 125216" d="M31.983,9.558a4.405,4.405,0,1,1,4.381-4.381,4.37,4.37,0,0,1-4.381,4.381" transform="translate(451.297 34.865)" fill="#041a2d"/>
      <path id="Path_125217" data-name="Path 125217" d="M32.256,9.735A4.334,4.334,0,1,1,36.589,5.4a4.35,4.35,0,0,1-4.334,4.334" transform="translate(435.833 49.784)" fill="#041a2d"/>
      <path id="Path_125218" data-name="Path 125218" d="M32.76,10.43a4.524,4.524,0,1,1,4.524-4.524A4.553,4.553,0,0,1,32.76,10.43" transform="translate(420.184 64.424)" fill="#041a2d"/>
      <path id="Path_125219" data-name="Path 125219" d="M34.524,13.67a6,6,0,1,1,6-6,6.006,6.006,0,0,1-6,6" transform="translate(403.277 77.805)" fill="#041a2d"/>
      <path id="Path_125220" data-name="Path 125220" d="M35.261,14.836A6.429,6.429,0,1,1,41.69,8.407a6.433,6.433,0,0,1-6.429,6.429" transform="translate(387.395 92.212)" fill="#041a2d"/>
      <path id="Path_125221" data-name="Path 125221" d="M36.185,16.427a7.072,7.072,0,1,1,7.048-7.048,7.032,7.032,0,0,1-7.048,7.048" transform="translate(371.327 106.432)" fill="#041a2d"/>
      <path id="Path_125222" data-name="Path 125222" d="M37.9,19.572a8.5,8.5,0,1,1,8.477-8.525A8.476,8.476,0,0,1,37.9,19.572" transform="translate(354.417 119.859)" fill="#041a2d"/>
      <path id="Path_125223" data-name="Path 125223" d="M27.234,1.636a.651.651,0,0,1-.667-.667.669.669,0,0,1,1.333,0,.651.651,0,0,1-.667.667" transform="translate(509.052 16.309)" fill="#041a2d"/>
      <path id="Path_125224" data-name="Path 125224" d="M31.142,9.257a4.334,4.334,0,1,1,4.334-4.334,4.35,4.35,0,0,1-4.334,4.334" transform="translate(489.999 27.498)" fill="#041a2d"/>
      <path id="Path_125225" data-name="Path 125225" d="M31.6,9.812a4.453,4.453,0,1,1,4.477-4.477A4.471,4.471,0,0,1,31.6,9.812" transform="translate(474.397 42.231)" fill="#041a2d"/>
      <path id="Path_125226" data-name="Path 125226" d="M31.918,10.13a4.453,4.453,0,1,1,4.477-4.477,4.471,4.471,0,0,1-4.477,4.477" transform="translate(458.935 57.058)" fill="#041a2d"/>
      <path id="Path_125227" data-name="Path 125227" d="M32.283,10.589a4.524,4.524,0,1,1,4.524-4.524,4.522,4.522,0,0,1-4.524,4.524" transform="translate(443.378 71.837)" fill="#041a2d"/>
      <path id="Path_125228" data-name="Path 125228" d="M33.254,12.18a5.167,5.167,0,1,1,5.191-5.191,5.2,5.2,0,0,1-5.191,5.191" transform="translate(427.263 86.057)" fill="#041a2d"/>
      <path id="Path_125229" data-name="Path 125229" d="M34.923,15.326a6.6,6.6,0,1,1,6.62-6.62,6.6,6.6,0,0,1-6.62,6.62" transform="translate(410.45 99.485)" fill="#041a2d"/>
      <path id="Path_125230" data-name="Path 125230" d="M35.94,17.057a7.31,7.31,0,1,1,7.334-7.286,7.286,7.286,0,0,1-7.334,7.286" transform="translate(394.288 113.612)" fill="#041a2d"/>
      <path id="Path_125231" data-name="Path 125231" d="M37.89,20.674a8.977,8.977,0,1,1,9-9,8.953,8.953,0,0,1-9,9" transform="translate(377.194 126.806)" fill="#041a2d"/>
      <path id="Path_125232" data-name="Path 125232" d="M27.407,3.209a1.373,1.373,0,0,1-1.333-1.381A1.363,1.363,0,0,1,27.407.494a1.385,1.385,0,0,1,1.429,1.333,1.393,1.393,0,0,1-1.429,1.381" transform="translate(531.594 23.023)" fill="#041a2d"/>
      <path id="Path_125233" data-name="Path 125233" d="M31.131,10.359a4.81,4.81,0,1,1,4.81-4.81,4.8,4.8,0,0,1-4.81,4.81" transform="translate(512.726 34.445)" fill="#041a2d"/>
      <path id="Path_125234" data-name="Path 125234" d="M31.216,10.207a4.572,4.572,0,1,1,4.572-4.572,4.573,4.573,0,0,1-4.572,4.572" transform="translate(497.497 49.551)" fill="#041a2d"/>
      <path id="Path_125235" data-name="Path 125235" d="M31.487,10.43a4.524,4.524,0,1,1,4.524-4.524,4.553,4.553,0,0,1-4.524,4.524" transform="translate(482.082 64.424)" fill="#041a2d"/>
      <path id="Path_125236" data-name="Path 125236" d="M31.9,10.984a4.643,4.643,0,1,1,4.619-4.619A4.624,4.624,0,0,1,31.9,10.984" transform="translate(466.526 79.11)" fill="#041a2d"/>
      <path id="Path_125237" data-name="Path 125237" d="M32.543,11.868A4.929,4.929,0,1,1,37.5,6.915a4.949,4.949,0,0,1-4.953,4.953" transform="translate(450.738 93.703)" fill="#041a2d"/>
      <path id="Path_125238" data-name="Path 125238" d="M33.794,14.071A5.882,5.882,0,1,1,39.7,8.166a5.9,5.9,0,0,1-5.905,5.905" transform="translate(434.294 107.597)" fill="#041a2d"/>
      <path id="Path_125239" data-name="Path 125239" d="M35.6,17.452a7.429,7.429,0,1,1,7.429-7.429A7.439,7.439,0,0,1,35.6,17.452" transform="translate(417.34 120.931)" fill="#041a2d"/>
      <path id="Path_125240" data-name="Path 125240" d="M37.508,20.927a9.025,9.025,0,1,1,9.048-9.048,9.044,9.044,0,0,1-9.048,9.048" transform="translate(400.293 134.173)" fill="#041a2d"/>
      <path id="Path_125241" data-name="Path 125241" d="M27.678,4.781a2.114,2.114,0,0,1-2.1-2.1,2.1,2.1,0,0,1,4.191,0,2.114,2.114,0,0,1-2.1,2.1" transform="translate(554.088 29.736)" fill="#041a2d"/>
      <path id="Path_125242" data-name="Path 125242" d="M30.933,11.131a5.12,5.12,0,1,1,5.1-5.1,5.1,5.1,0,0,1-5.1,5.1" transform="translate(535.688 41.579)" fill="#041a2d"/>
      <path id="Path_125243" data-name="Path 125243" d="M30.785,10.507A4.643,4.643,0,1,1,35.4,5.887a4.624,4.624,0,0,1-4.619,4.619" transform="translate(520.644 56.871)" fill="#041a2d"/>
      <path id="Path_125244" data-name="Path 125244" d="M31.057,10.684a4.572,4.572,0,1,1,4.572-4.572,4.573,4.573,0,0,1-4.572,4.572" transform="translate(505.228 71.791)" fill="#041a2d"/>
      <path id="Path_125245" data-name="Path 125245" d="M31.421,11.143a4.643,4.643,0,1,1,4.619-4.619,4.624,4.624,0,0,1-4.619,4.619" transform="translate(489.719 86.524)" fill="#041a2d"/>
      <path id="Path_125246" data-name="Path 125246" d="M32.159,12.262a5.048,5.048,0,1,1,5.048-5.048,5.02,5.02,0,0,1-5.048,5.048" transform="translate(473.838 100.977)" fill="#041a2d"/>
      <path id="Path_125247" data-name="Path 125247" d="M33.036,13.759A5.643,5.643,0,1,1,38.7,8.092a5.64,5.64,0,0,1-5.667,5.667" transform="translate(457.817 115.243)" fill="#041a2d"/>
      <path id="Path_125248" data-name="Path 125248" d="M34.986,17.375a7.31,7.31,0,1,1,7.334-7.334,7.3,7.3,0,0,1-7.334,7.334" transform="translate(440.674 128.438)" fill="#041a2d"/>
      <path id="Path_125249" data-name="Path 125249" d="M36.471,20.049a8.5,8.5,0,1,1,8.477-8.477,8.5,8.5,0,0,1-8.477,8.477" transform="translate(424.046 142.098)" fill="#041a2d"/>
      <path id="Path_125250" data-name="Path 125250" d="M27.76,6.119a2.667,2.667,0,1,1,2.667-2.667A2.662,2.662,0,0,1,27.76,6.119" transform="translate(576.722 36.59)" fill="#041a2d"/>
      <path id="Path_125251" data-name="Path 125251" d="M30.689,11.761a5.358,5.358,0,1,1,5.334-5.334,5.325,5.325,0,0,1-5.334,5.334" transform="translate(558.648 48.759)" fill="#041a2d"/>
      <path id="Path_125252" data-name="Path 125252" d="M30.4,10.76a4.691,4.691,0,1,1,4.715-4.715A4.725,4.725,0,0,1,30.4,10.76" transform="translate(543.792 64.238)" fill="#041a2d"/>
      <path id="Path_125253" data-name="Path 125253" d="M30.531,10.843a4.572,4.572,0,1,1,4.62-4.572,4.563,4.563,0,0,1-4.62,4.572" transform="translate(528.47 79.204)" fill="#041a2d"/>
      <path id="Path_125254" data-name="Path 125254" d="M31.084,11.538a4.762,4.762,0,1,1,4.762-4.762,4.776,4.776,0,0,1-4.762,4.762" transform="translate(512.773 93.843)" fill="#041a2d"/>
      <path id="Path_125255" data-name="Path 125255" d="M31.729,12.563a5.12,5.12,0,1,1,5.1-5.1,5.1,5.1,0,0,1-5.1,5.1" transform="translate(496.984 108.343)" fill="#041a2d"/>
      <path id="Path_125256" data-name="Path 125256" d="M32.7,14.154a5.762,5.762,0,1,1,5.762-5.762A5.752,5.752,0,0,1,32.7,14.154" transform="translate(480.869 122.563)" fill="#041a2d"/>
      <path id="Path_125257" data-name="Path 125257" d="M34.183,16.828a6.953,6.953,0,1,1,6.953-6.953,6.931,6.931,0,0,1-6.953,6.953" transform="translate(464.242 136.224)" fill="#041a2d"/>
      <path id="Path_125258" data-name="Path 125258" d="M35.2,18.56a7.667,7.667,0,1,1,7.667-7.667A7.662,7.662,0,0,1,35.2,18.56" transform="translate(448.08 150.351)" fill="#041a2d"/>
      <path id="Path_125259" data-name="Path 125259" d="M27.656,6.984a3.069,3.069,0,0,1-3.048-3.048,3.048,3.048,0,0,1,6.1,0,3.069,3.069,0,0,1-3.048,3.048" transform="translate(599.542 43.63)" fill="#041a2d"/>
      <path id="Path_125260" data-name="Path 125260" d="M30.445,12.391A5.6,5.6,0,1,1,36.017,6.82a5.579,5.579,0,0,1-5.572,5.572" transform="translate(581.609 55.939)" fill="#041a2d"/>
      <path id="Path_125261" data-name="Path 125261" d="M30.017,11.155a4.81,4.81,0,1,1,4.81-4.81,4.8,4.8,0,0,1-4.81,4.81" transform="translate(566.893 71.557)" fill="#041a2d"/>
      <path id="Path_125262" data-name="Path 125262" d="M30.242,11.238a4.691,4.691,0,1,1,4.715-4.715,4.725,4.725,0,0,1-4.715,4.715" transform="translate(551.523 86.524)" fill="#041a2d"/>
      <path id="Path_125263" data-name="Path 125263" d="M30.653,11.791a4.81,4.81,0,1,1,4.81-4.81,4.8,4.8,0,0,1-4.81,4.81" transform="translate(535.968 101.21)" fill="#041a2d"/>
      <path id="Path_125264" data-name="Path 125264" d="M31.3,12.816a5.167,5.167,0,1,1,5.191-5.191A5.163,5.163,0,0,1,31.3,12.816" transform="translate(520.132 115.71)" fill="#041a2d"/>
      <path id="Path_125265" data-name="Path 125265" d="M32.269,14.454a5.834,5.834,0,1,1,5.81-5.81,5.8,5.8,0,0,1-5.81,5.81" transform="translate(504.016 129.883)" fill="#041a2d"/>
      <path id="Path_125266" data-name="Path 125266" d="M34.031,17.693a7.31,7.31,0,1,1,7.334-7.334,7.3,7.3,0,0,1-7.334,7.334" transform="translate(487.11 143.264)" fill="#041a2d"/>
      <path id="Path_125267" data-name="Path 125267" d="M32.718,14.714a5.643,5.643,0,1,1,5.667-5.667,5.64,5.64,0,0,1-5.667,5.667" transform="translate(473.279 159.769)" fill="#041a2d"/>
      <path id="Path_125268" data-name="Path 125268" d="M27.178,7.143A3.024,3.024,0,1,1,30.226,4.1a3.038,3.038,0,0,1-3.048,3.048" transform="translate(622.784 51.043)" fill="#041a2d"/>
      <path id="Path_125269" data-name="Path 125269" d="M30.247,13.116a5.882,5.882,0,1,1,5.905-5.905,5.894,5.894,0,0,1-5.905,5.905" transform="translate(604.523 63.072)" fill="#041a2d"/>
      <path id="Path_125270" data-name="Path 125270" d="M29.68,11.55A4.929,4.929,0,1,1,34.633,6.6,4.949,4.949,0,0,1,29.68,11.55" transform="translate(589.946 78.877)" fill="#041a2d"/>
      <path id="Path_125271" data-name="Path 125271" d="M29.811,11.538a4.762,4.762,0,1,1,4.762-4.762,4.776,4.776,0,0,1-4.762,4.762" transform="translate(574.67 93.843)" fill="#041a2d"/>
      <path id="Path_125272" data-name="Path 125272" d="M30.223,12.092A4.881,4.881,0,1,1,35.08,7.234a4.847,4.847,0,0,1-4.857,4.858" transform="translate(559.115 108.576)" fill="#041a2d"/>
      <path id="Path_125273" data-name="Path 125273" d="M30.867,12.975a5.167,5.167,0,1,1,5.191-5.191,5.2,5.2,0,0,1-5.191,5.191" transform="translate(543.326 123.123)" fill="#041a2d"/>
      <path id="Path_125274" data-name="Path 125274" d="M31.837,14.707A5.882,5.882,0,1,1,37.789,8.8a5.894,5.894,0,0,1-5.953,5.905" transform="translate(527.165 137.25)" fill="#041a2d"/>
      <path id="Path_125275" data-name="Path 125275" d="M33.742,18.183a7.477,7.477,0,1,1,7.477-7.477,7.459,7.459,0,0,1-7.477,7.477" transform="translate(510.115 150.537)" fill="#041a2d"/>
      <path id="Path_125276" data-name="Path 125276" d="M31.029,12.422a4.405,4.405,0,1,1,4.381-4.381,4.37,4.37,0,0,1-4.381,4.381" transform="translate(497.684 168.394)" fill="#041a2d"/>
      <path id="Path_125277" data-name="Path 125277" d="M26.514,6.973a2.857,2.857,0,1,1,2.857-2.857,2.866,2.866,0,0,1-2.857,2.857" transform="translate(646.164 58.643)" fill="#041a2d"/>
      <path id="Path_125278" data-name="Path 125278" d="M30.189,14.077A6.286,6.286,0,1,1,36.476,7.79a6.28,6.28,0,0,1-6.286,6.286" transform="translate(627.345 70.112)" fill="#041a2d"/>
      <path id="Path_125279" data-name="Path 125279" d="M29.248,11.85a5,5,0,1,1,5-5,5,5,0,0,1-5,5" transform="translate(613.141 86.197)" fill="#041a2d"/>
      <path id="Path_125280" data-name="Path 125280" d="M29.334,11.7A4.762,4.762,0,1,1,34.1,6.934,4.776,4.776,0,0,1,29.334,11.7" transform="translate(597.864 101.256)" fill="#041a2d"/>
      <path id="Path_125281" data-name="Path 125281" d="M29.745,12.251A4.881,4.881,0,1,1,34.6,7.393a4.878,4.878,0,0,1-4.858,4.858" transform="translate(582.308 115.989)" fill="#041a2d"/>
      <path id="Path_125282" data-name="Path 125282" d="M30.342,13.134a5.167,5.167,0,1,1,5.191-5.191,5.163,5.163,0,0,1-5.191,5.191" transform="translate(566.567 130.536)" fill="#041a2d"/>
      <path id="Path_125283" data-name="Path 125283" d="M31.454,15.008a5.953,5.953,0,1,1,5.953-5.953,5.955,5.955,0,0,1-5.953,5.953" transform="translate(550.311 144.616)" fill="#041a2d"/>
      <path id="Path_125284" data-name="Path 125284" d="M33.31,18.484a7.548,7.548,0,1,1,7.524-7.572,7.52,7.52,0,0,1-7.524,7.572" transform="translate(533.311 157.904)" fill="#041a2d"/>
      <path id="Path_125285" data-name="Path 125285" d="M29.76,10.931A3.572,3.572,0,1,1,33.331,7.36a3.6,3.6,0,0,1-3.572,3.572" transform="translate(521.669 176.6)" fill="#041a2d"/>
      <path id="Path_125286" data-name="Path 125286" d="M25.618,6.284a2.429,2.429,0,1,1,2.429-2.429,2.439,2.439,0,0,1-2.429,2.429" transform="translate(669.776 66.476)" fill="#041a2d"/>
      <path id="Path_125287" data-name="Path 125287" d="M30.224,15.319a6.834,6.834,0,1,1,6.858-6.81,6.809,6.809,0,0,1-6.858,6.81" transform="translate(650.026 76.966)" fill="#041a2d"/>
      <path id="Path_125288" data-name="Path 125288" d="M28.865,12.244a5.12,5.12,0,1,1,5.1-5.1,5.1,5.1,0,0,1-5.1,5.1" transform="translate(636.241 93.47)" fill="#041a2d"/>
      <path id="Path_125289" data-name="Path 125289" d="M28.9,11.95a4.81,4.81,0,1,1,4.81-4.81,4.8,4.8,0,0,1-4.81,4.81" transform="translate(621.059 108.623)" fill="#041a2d"/>
      <path id="Path_125290" data-name="Path 125290" d="M29.267,12.41a4.881,4.881,0,1,1,4.905-4.858,4.878,4.878,0,0,1-4.905,4.858" transform="translate(605.502 123.403)" fill="#041a2d"/>
      <path id="Path_125291" data-name="Path 125291" d="M29.96,13.435A5.239,5.239,0,1,1,35.2,8.2a5.223,5.223,0,0,1-5.239,5.239" transform="translate(589.666 137.902)" fill="#041a2d"/>
      <path id="Path_125292" data-name="Path 125292" d="M31.023,15.261a6,6,0,1,1,6-6,6.006,6.006,0,0,1-6,6" transform="translate(573.458 151.983)" fill="#041a2d"/>
      <path id="Path_125293" data-name="Path 125293" d="M32.787,18.5a7.477,7.477,0,1,1,7.477-7.477A7.459,7.459,0,0,1,32.787,18.5" transform="translate(556.55 165.363)" fill="#041a2d"/>
      <path id="Path_125294" data-name="Path 125294" d="M28.816,10.148a3.1,3.1,0,1,1,3.1-3.1,3.089,3.089,0,0,1-3.1,3.1" transform="translate(545.378 184.479)" fill="#041a2d"/>
      <path id="Path_125295" data-name="Path 125295" d="M24.86,5.877A2.143,2.143,0,1,1,27,3.734,2.134,2.134,0,0,1,24.86,5.877" transform="translate(693.298 74.168)" fill="#041a2d"/>
      <path id="Path_125296" data-name="Path 125296" d="M30.354,16.656a7.429,7.429,0,1,1,7.429-7.429,7.439,7.439,0,0,1-7.429,7.429" transform="translate(672.612 83.819)" fill="#041a2d"/>
      <path id="Path_125297" data-name="Path 125297" d="M28.574,12.733A5.286,5.286,0,1,1,33.86,7.447a5.3,5.3,0,0,1-5.286,5.286" transform="translate(659.248 100.744)" fill="#041a2d"/>
      <path id="Path_125298" data-name="Path 125298" d="M28.473,12.251A4.881,4.881,0,1,1,33.33,7.393a4.878,4.878,0,0,1-4.857,4.858" transform="translate(644.206 115.989)" fill="#041a2d"/>
      <path id="Path_125299" data-name="Path 125299" d="M28.791,12.569a4.881,4.881,0,1,1,4.857-4.858,4.847,4.847,0,0,1-4.857,4.858" transform="translate(628.743 130.816)" fill="#041a2d"/>
      <path id="Path_125300" data-name="Path 125300" d="M29.435,13.452a5.167,5.167,0,1,1,5.191-5.191,5.2,5.2,0,0,1-5.191,5.191" transform="translate(612.955 145.362)" fill="#041a2d"/>
      <path id="Path_125301" data-name="Path 125301" d="M30.5,15.326a5.953,5.953,0,1,1,5.953-5.953A5.955,5.955,0,0,1,30.5,15.326" transform="translate(596.698 159.442)" fill="#041a2d"/>
      <path id="Path_125302" data-name="Path 125302" d="M32.122,18.33A7.31,7.31,0,1,1,39.456,11a7.3,7.3,0,0,1-7.334,7.334" transform="translate(579.931 172.963)" fill="#041a2d"/>
      <path id="Path_125303" data-name="Path 125303" d="M27.872,9.365a2.619,2.619,0,1,1,2.619-2.619,2.643,2.643,0,0,1-2.619,2.619" transform="translate(569.037 192.358)" fill="#041a2d"/>
      <path id="Path_125304" data-name="Path 125304" d="M24.336,5.9a2.114,2.114,0,0,1-2.1-2.1,2.1,2.1,0,0,1,4.191,0,2.114,2.114,0,0,1-2.1,2.1" transform="translate(716.538 81.675)" fill="#041a2d"/>
      <path id="Path_125305" data-name="Path 125305" d="M30.3,17.617a7.834,7.834,0,1,1,7.858-7.858A7.866,7.866,0,0,1,30.3,17.617" transform="translate(695.434 90.859)" fill="#041a2d"/>
      <path id="Path_125306" data-name="Path 125306" d="M28.329,13.364a5.524,5.524,0,1,1,5.524-5.524,5.528,5.528,0,0,1-5.524,5.524" transform="translate(682.257 107.924)" fill="#041a2d"/>
      <path id="Path_125307" data-name="Path 125307" d="M28,12.41a4.881,4.881,0,1,1,4.858-4.858A4.847,4.847,0,0,1,28,12.41" transform="translate(667.399 123.403)" fill="#041a2d"/>
      <path id="Path_125308" data-name="Path 125308" d="M28.313,12.728A4.881,4.881,0,1,1,33.171,7.87a4.878,4.878,0,0,1-4.858,4.858" transform="translate(651.937 138.229)" fill="#041a2d"/>
      <path id="Path_125309" data-name="Path 125309" d="M28.958,13.612a5.167,5.167,0,1,1,5.191-5.191,5.2,5.2,0,0,1-5.191,5.191" transform="translate(636.148 152.822)" fill="#041a2d"/>
      <path id="Path_125310" data-name="Path 125310" d="M29.928,15.344a5.882,5.882,0,1,1,5.905-5.905,5.864,5.864,0,0,1-5.905,5.905" transform="translate(620.034 166.949)" fill="#041a2d"/>
      <path id="Path_125311" data-name="Path 125311" d="M31.366,17.877a7,7,0,1,1,7.048-7,7.012,7.012,0,0,1-7.048,7" transform="translate(603.404 180.703)" fill="#041a2d"/>
      <path id="Path_125312" data-name="Path 125312" d="M27.116,8.911a2.337,2.337,0,0,1-2.334-2.334,2.334,2.334,0,0,1,4.667,0,2.337,2.337,0,0,1-2.334,2.334" transform="translate(592.51 200.098)" fill="#041a2d"/>
      <path id="Path_125313" data-name="Path 125313" d="M23.859,6.054a2.072,2.072,0,1,1,2.1-2.1,2.083,2.083,0,0,1-2.1,2.1" transform="translate(739.731 89.088)" fill="#041a2d"/>
      <path id="Path_125314" data-name="Path 125314" d="M29.586,17.351a7.62,7.62,0,1,1,7.62-7.62,7.642,7.642,0,0,1-7.62,7.62" transform="translate(718.861 98.459)" fill="#041a2d"/>
      <path id="Path_125315" data-name="Path 125315" d="M28.552,14.937A6.239,6.239,0,1,1,34.79,8.7a6.26,6.26,0,0,1-6.239,6.239" transform="translate(704.751 114.684)" fill="#041a2d"/>
      <path id="Path_125316" data-name="Path 125316" d="M27.658,12.8a5,5,0,1,1,5-5,5,5,0,0,1-5,5" transform="translate(690.501 130.676)" fill="#041a2d"/>
      <path id="Path_125317" data-name="Path 125317" d="M27.79,12.746a4.81,4.81,0,1,1,4.81-4.81,4.8,4.8,0,0,1-4.81,4.81" transform="translate(675.176 145.735)" fill="#041a2d"/>
      <path id="Path_125318" data-name="Path 125318" d="M28.388,13.676a5.12,5.12,0,1,1,5.1-5.1,5.1,5.1,0,0,1-5.1,5.1" transform="translate(659.435 160.235)" fill="#041a2d"/>
      <path id="Path_125319" data-name="Path 125319" d="M29.405,15.409a5.834,5.834,0,1,1,5.81-5.81,5.833,5.833,0,0,1-5.81,5.81" transform="translate(643.273 174.408)" fill="#041a2d"/>
      <path id="Path_125320" data-name="Path 125320" d="M30.7,17.706a6.834,6.834,0,1,1,6.858-6.858A6.819,6.819,0,0,1,30.7,17.706" transform="translate(626.833 188.256)" fill="#041a2d"/>
      <path id="Path_125321" data-name="Path 125321" d="M26.5,8.835a2.185,2.185,0,0,1-2.191-2.191A2.155,2.155,0,0,1,26.5,4.454a2.185,2.185,0,0,1,2.191,2.191A2.216,2.216,0,0,1,26.5,8.835" transform="translate(615.892 207.651)" fill="#041a2d"/>
      <path id="Path_125322" data-name="Path 125322" d="M23.754,7.061a2.46,2.46,0,0,1-2.476-2.476,2.477,2.477,0,1,1,4.953,0,2.459,2.459,0,0,1-2.476,2.476" transform="translate(762.6 96.081)" fill="#041a2d"/>
      <path id="Path_125323" data-name="Path 125323" d="M28.642,16.521a7.12,7.12,0,1,1,7.143-7.143,7.134,7.134,0,0,1-7.143,7.143" transform="translate(742.52 106.385)" fill="#041a2d"/>
      <path id="Path_125324" data-name="Path 125324" d="M28.867,16.745a7.072,7.072,0,1,1,7.048-7.1,7.073,7.073,0,0,1-7.048,7.1" transform="translate(727.151 121.258)" fill="#041a2d"/>
      <path id="Path_125325" data-name="Path 125325" d="M27.227,13.058A5.048,5.048,0,1,1,32.275,8.01a5.051,5.051,0,0,1-5.048,5.048" transform="translate(713.647 138.089)" fill="#041a2d"/>
      <path id="Path_125326" data-name="Path 125326" d="M27.359,13.046a4.881,4.881,0,1,1,4.858-4.858,4.847,4.847,0,0,1-4.858,4.858" transform="translate(698.372 153.055)" fill="#041a2d"/>
      <path id="Path_125327" data-name="Path 125327" d="M27.91,13.835a5.12,5.12,0,1,1,5.1-5.1,5.1,5.1,0,0,1-5.1,5.1" transform="translate(682.676 167.648)" fill="#041a2d"/>
      <path id="Path_125328" data-name="Path 125328" d="M28.881,15.426a5.762,5.762,0,1,1,5.762-5.762,5.752,5.752,0,0,1-5.762,5.762" transform="translate(666.513 181.868)" fill="#041a2d"/>
      <path id="Path_125329" data-name="Path 125329" d="M29.945,17.253a6.524,6.524,0,1,1,6.524-6.524,6.5,6.5,0,0,1-6.524,6.524" transform="translate(650.305 195.995)" fill="#041a2d"/>
      <path id="Path_125330" data-name="Path 125330" d="M25.928,8.758a2.114,2.114,0,0,1-2.1-2.1,2.1,2.1,0,0,1,4.191,0,2.114,2.114,0,0,1-2.1,2.1" transform="translate(639.178 215.157)" fill="#041a2d"/>
      <path id="Path_125331" data-name="Path 125331" d="M23.744,8.163A2.937,2.937,0,0,1,20.791,5.21a2.953,2.953,0,1,1,5.905,0,2.937,2.937,0,0,1-2.953,2.953" transform="translate(785.327 103.028)" fill="#041a2d"/>
      <path id="Path_125332" data-name="Path 125332" d="M27.931,16.209A6.882,6.882,0,1,1,34.837,9.3a6.91,6.91,0,0,1-6.905,6.905" transform="translate(765.995 114.031)" fill="#041a2d"/>
      <path id="Path_125333" data-name="Path 125333" d="M28.53,17.14a7.191,7.191,0,1,1,7.191-7.191A7.215,7.215,0,0,1,28.53,17.14" transform="translate(750.205 128.578)" fill="#041a2d"/>
      <path id="Path_125334" data-name="Path 125334" d="M26.936,13.594a5.239,5.239,0,1,1,5.239-5.239,5.223,5.223,0,0,1-5.239,5.239" transform="translate(736.654 145.315)" fill="#041a2d"/>
      <path id="Path_125335" data-name="Path 125335" d="M26.835,13.064a4.81,4.81,0,1,1,4.81-4.81,4.8,4.8,0,0,1-4.81,4.81" transform="translate(721.612 160.561)" fill="#041a2d"/>
      <path id="Path_125336" data-name="Path 125336" d="M27.386,13.853a5.048,5.048,0,1,1,5.048-5.048,5.051,5.051,0,0,1-5.048,5.048" transform="translate(705.916 175.154)" fill="#041a2d"/>
      <path id="Path_125337" data-name="Path 125337" d="M28.217,15.255a5.6,5.6,0,1,1,5.572-5.572,5.579,5.579,0,0,1-5.572,5.572" transform="translate(689.941 189.468)" fill="#041a2d"/>
      <path id="Path_125338" data-name="Path 125338" d="M29.189,16.846a6.239,6.239,0,1,1,6.239-6.239,6.26,6.26,0,0,1-6.239,6.239" transform="translate(673.778 203.688)" fill="#041a2d"/>
      <path id="Path_125339" data-name="Path 125339" d="M25.311,8.682A1.953,1.953,0,1,1,27.263,6.73a1.931,1.931,0,0,1-1.953,1.953" transform="translate(662.512 222.71)" fill="#041a2d"/>
      <path id="Path_125340" data-name="Path 125340" d="M24.153,10.065A3.857,3.857,0,1,1,28.01,6.207a3.841,3.841,0,0,1-3.857,3.857" transform="translate(807.635 109.555)" fill="#041a2d"/>
      <path id="Path_125341" data-name="Path 125341" d="M27.127,15.8a6.6,6.6,0,1,1,6.62-6.62,6.6,6.6,0,0,1-6.62,6.62" transform="translate(789.516 121.724)" fill="#041a2d"/>
      <path id="Path_125342" data-name="Path 125342" d="M27.353,15.886A6.477,6.477,0,1,1,33.83,9.409a6.484,6.484,0,0,1-6.477,6.477" transform="translate(774.146 136.69)" fill="#041a2d"/>
      <path id="Path_125343" data-name="Path 125343" d="M27.671,16.2a6.477,6.477,0,1,1,6.477-6.477A6.484,6.484,0,0,1,27.671,16.2" transform="translate(758.684 151.516)" fill="#041a2d"/>
      <path id="Path_125344" data-name="Path 125344" d="M26.4,13.364a4.881,4.881,0,1,1,4.858-4.858A4.847,4.847,0,0,1,26.4,13.364" transform="translate(744.758 167.881)" fill="#041a2d"/>
      <path id="Path_125345" data-name="Path 125345" d="M26.862,13.918a5,5,0,1,1,5-5,5,5,0,0,1-5,5" transform="translate(729.156 182.614)" fill="#041a2d"/>
      <path id="Path_125346" data-name="Path 125346" d="M27.693,15.274a5.524,5.524,0,1,1,5.524-5.524,5.528,5.528,0,0,1-5.524,5.524" transform="translate(713.181 196.974)" fill="#041a2d"/>
      <path id="Path_125347" data-name="Path 125347" d="M28.384,16.3a5.882,5.882,0,1,1,5.905-5.905A5.9,5.9,0,0,1,28.384,16.3" transform="translate(697.346 211.427)" fill="#041a2d"/>
      <path id="Path_125348" data-name="Path 125348" d="M24.786,8.747a1.9,1.9,0,1,1,1.9-1.9,1.911,1.911,0,0,1-1.9,1.9" transform="translate(685.8 230.17)" fill="#041a2d"/>
      <path id="Path_125349" data-name="Path 125349" d="M24.608,12.11a4.81,4.81,0,1,1,4.81-4.81,4.8,4.8,0,0,1-4.81,4.81" transform="translate(829.896 116.083)" fill="#041a2d"/>
      <path id="Path_125350" data-name="Path 125350" d="M26.325,15.255a6.239,6.239,0,1,1,6.239-6.239,6.26,6.26,0,0,1-6.239,6.239" transform="translate(813.035 129.51)" fill="#041a2d"/>
      <path id="Path_125351" data-name="Path 125351" d="M25.943,14.16a5.524,5.524,0,1,1,5.524-5.524,5.528,5.528,0,0,1-5.524,5.524" transform="translate(798.272 145.036)" fill="#041a2d"/>
      <path id="Path_125352" data-name="Path 125352" d="M28.546,19.049A7.834,7.834,0,1,1,36.4,11.191a7.866,7.866,0,0,1-7.858,7.858" transform="translate(780.525 157.624)" fill="#041a2d"/>
      <path id="Path_125353" data-name="Path 125353" d="M25.927,13.524a4.881,4.881,0,1,1,4.857-4.858,4.847,4.847,0,0,1-4.857,4.858" transform="translate(768 175.341)" fill="#041a2d"/>
      <path id="Path_125354" data-name="Path 125354" d="M26.245,13.842A4.881,4.881,0,1,1,31.1,8.984a4.847,4.847,0,0,1-4.858,4.858" transform="translate(752.489 190.167)" fill="#041a2d"/>
      <path id="Path_125355" data-name="Path 125355" d="M27.03,15.1a5.358,5.358,0,1,1,5.334-5.334A5.325,5.325,0,0,1,27.03,15.1" transform="translate(736.561 204.527)" fill="#041a2d"/>
      <path id="Path_125356" data-name="Path 125356" d="M27.581,15.891a5.6,5.6,0,1,1,5.572-5.572,5.579,5.579,0,0,1-5.572,5.572" transform="translate(720.866 219.12)" fill="#041a2d"/>
      <path id="Path_125357" data-name="Path 125357" d="M24.262,8.765a1.834,1.834,0,1,1,1.857-1.857,1.86,1.86,0,0,1-1.857,1.857" transform="translate(709.04 237.676)" fill="#041a2d"/>
      <path id="Path_125358" data-name="Path 125358" d="M19.29,2.808l-.19-.19.19-.19.191.19-.191.19" transform="translate(873.117 113.155)" fill="#041a2d"/>
      <path id="Path_125359" data-name="Path 125359" d="M25.109,14.295a5.834,5.834,0,1,1,5.81-5.81,5.8,5.8,0,0,1-5.81,5.81" transform="translate(852.158 122.47)" fill="#041a2d"/>
      <path id="Path_125360" data-name="Path 125360" d="M25.474,14.707A5.882,5.882,0,1,1,31.379,8.8a5.894,5.894,0,0,1-5.905,5.905" transform="translate(836.602 137.25)" fill="#041a2d"/>
      <path id="Path_125361" data-name="Path 125361" d="M25,13.376a5.048,5.048,0,1,1,5.048-5.048A5.051,5.051,0,0,1,25,13.376" transform="translate(821.931 152.915)" fill="#041a2d"/>
      <path id="Path_125362" data-name="Path 125362" d="M28.255,19.585A8.025,8.025,0,1,1,36.3,11.537a8.038,8.038,0,0,1-8.048,8.048" transform="translate(803.532 164.851)" fill="#041a2d"/>
      <path id="Path_125363" data-name="Path 125363" d="M26.149,15.1a5.6,5.6,0,1,1,5.572-5.572A5.579,5.579,0,0,1,26.149,15.1" transform="translate(790.494 182.055)" fill="#041a2d"/>
      <path id="Path_125364" data-name="Path 125364" d="M25.721,13.86a4.81,4.81,0,1,1,4.81-4.81,4.8,4.8,0,0,1-4.81,4.81" transform="translate(775.778 197.673)" fill="#041a2d"/>
      <path id="Path_125365" data-name="Path 125365" d="M26.459,15.026A5.239,5.239,0,1,1,31.7,9.788a5.223,5.223,0,0,1-5.239,5.239" transform="translate(759.896 212.08)" fill="#041a2d"/>
      <path id="Path_125366" data-name="Path 125366" d="M26.778,15.344a5.239,5.239,0,1,1,5.239-5.239,5.224,5.224,0,0,1-5.239,5.239" transform="translate(744.385 226.906)" fill="#041a2d"/>
      <path id="Path_125367" data-name="Path 125367" d="M23.645,8.688A1.714,1.714,0,1,1,25.36,6.973a1.707,1.707,0,0,1-1.714,1.714" transform="translate(732.373 245.183)" fill="#041a2d"/>
      <path id="Path_125368" data-name="Path 125368" d="M19.325,4a.732.732,0,0,1-.714-.714.714.714,0,0,1,1.429,0A.732.732,0,0,1,19.325,4" transform="translate(895.803 120.046)" fill="#041a2d"/>
      <path id="Path_125369" data-name="Path 125369" d="M25.518,16.2a6.715,6.715,0,1,1,6.715-6.715A6.707,6.707,0,0,1,25.518,16.2" transform="translate(874.466 129.044)" fill="#041a2d"/>
      <path id="Path_125370" data-name="Path 125370" d="M24.717,14.3a5.6,5.6,0,1,1,5.572-5.572A5.549,5.549,0,0,1,24.717,14.3" transform="translate(860.123 144.942)" fill="#041a2d"/>
      <path id="Path_125371" data-name="Path 125371" d="M24.429,13.3a4.929,4.929,0,1,1,4.953-4.953A4.949,4.949,0,0,1,24.429,13.3" transform="translate(845.266 160.468)" fill="#041a2d"/>
      <path id="Path_125372" data-name="Path 125372" d="M27.219,18.66A7.477,7.477,0,1,1,34.7,11.183a7.459,7.459,0,0,1-7.477,7.477" transform="translate(827.285 172.777)" fill="#041a2d"/>
      <path id="Path_125373" data-name="Path 125373" d="M26.977,17.847a6.905,6.905,0,1,1,6.905-6.905,6.91,6.91,0,0,1-6.905,6.905" transform="translate(812.382 188.162)" fill="#041a2d"/>
      <path id="Path_125374" data-name="Path 125374" d="M25.2,13.924A4.762,4.762,0,1,1,29.96,9.161,4.776,4.776,0,0,1,25.2,13.924" transform="translate(799.018 205.087)" fill="#041a2d"/>
      <path id="Path_125375" data-name="Path 125375" d="M25.935,15.043a5.167,5.167,0,1,1,5.191-5.191,5.2,5.2,0,0,1-5.191,5.191" transform="translate(783.136 219.54)" fill="#041a2d"/>
      <path id="Path_125376" data-name="Path 125376" d="M25.833,14.561A4.762,4.762,0,1,1,30.6,9.8a4.776,4.776,0,0,1-4.762,4.762" transform="translate(768.093 234.786)" fill="#041a2d"/>
      <path id="Path_125377" data-name="Path 125377" d="M23.168,8.847a1.714,1.714,0,1,1,1.714-1.714,1.707,1.707,0,0,1-1.714,1.714" transform="translate(755.567 252.596)" fill="#041a2d"/>
      <path id="Path_125378" data-name="Path 125378" d="M20.2,6.991a2.094,2.094,0,0,1-2.1-2.143,2.119,2.119,0,1,1,4.238,0A2.1,2.1,0,0,1,20.2,6.991" transform="translate(917.645 126.107)" fill="#041a2d"/>
      <path id="Path_125379" data-name="Path 125379" d="M25.274,16.828a6.953,6.953,0,1,1,6.953-6.953,6.931,6.931,0,0,1-6.953,6.953" transform="translate(897.426 136.224)" fill="#041a2d"/>
      <path id="Path_125380" data-name="Path 125380" d="M24.007,13.988a5.358,5.358,0,1,1,5.334-5.334,5.325,5.325,0,0,1-5.334,5.334" transform="translate(883.549 152.589)" fill="#041a2d"/>
      <path id="Path_125381" data-name="Path 125381" d="M23.812,13.223a4.81,4.81,0,1,1,4.81-4.81,4.8,4.8,0,0,1-4.81,4.81" transform="translate(868.6 167.974)" fill="#041a2d"/>
      <path id="Path_125382" data-name="Path 125382" d="M26.228,17.782a6.953,6.953,0,1,1,6.953-6.953,6.931,6.931,0,0,1-6.953,6.953" transform="translate(851.039 180.703)" fill="#041a2d"/>
      <path id="Path_125383" data-name="Path 125383" d="M26.918,18.9a7.358,7.358,0,1,1,7.429-7.382A7.347,7.347,0,0,1,26.918,18.9" transform="translate(835.158 195.156)" fill="#041a2d"/>
      <path id="Path_125384" data-name="Path 125384" d="M25.28,15.261a5.358,5.358,0,1,1,5.334-5.334,5.325,5.325,0,0,1-5.334,5.334" transform="translate(821.652 211.94)" fill="#041a2d"/>
      <path id="Path_125385" data-name="Path 125385" d="M25.272,14.873a5,5,0,1,1,5-5,5,5,0,0,1-5,5" transform="translate(806.516 227.139)" fill="#041a2d"/>
      <path id="Path_125386" data-name="Path 125386" d="M24.937,13.871A4.334,4.334,0,1,1,29.27,9.538a4.35,4.35,0,0,1-4.334,4.334" transform="translate(791.706 242.618)" fill="#041a2d"/>
      <path id="Path_125387" data-name="Path 125387" d="M21.867,11.391a4.286,4.286,0,1,1,4.286-4.286,4.268,4.268,0,0,1-4.286,4.286" transform="translate(938.741 131.422)" fill="#041a2d"/>
      <path id="Path_125388" data-name="Path 125388" d="M24.283,15.95a6.429,6.429,0,1,1,6.429-6.429,6.433,6.433,0,0,1-6.429,6.429" transform="translate(921.181 144.15)" fill="#041a2d"/>
      <path id="Path_125389" data-name="Path 125389" d="M23.3,13.676a5.12,5.12,0,1,1,5.1-5.1,5.1,5.1,0,0,1-5.1,5.1" transform="translate(906.975 160.235)" fill="#041a2d"/>
      <path id="Path_125390" data-name="Path 125390" d="M23.242,13.147a4.691,4.691,0,1,1,4.715-4.715,4.7,4.7,0,0,1-4.715,4.715" transform="translate(891.886 175.527)" fill="#041a2d"/>
      <path id="Path_125391" data-name="Path 125391" d="M25.285,17a6.477,6.477,0,1,1,6.477-6.477A6.484,6.484,0,0,1,25.285,17" transform="translate(874.699 188.582)" fill="#041a2d"/>
      <path id="Path_125392" data-name="Path 125392" d="M26.582,19.3a7.477,7.477,0,1,1,7.477-7.477A7.459,7.459,0,0,1,26.582,19.3" transform="translate(858.258 202.476)" fill="#041a2d"/>
      <path id="Path_125393" data-name="Path 125393" d="M25.781,17.4a6.358,6.358,0,1,1,6.334-6.334A6.331,6.331,0,0,1,25.781,17.4" transform="translate(843.914 218.374)" fill="#041a2d"/>
      <path id="Path_125394" data-name="Path 125394" d="M24.655,14.8a4.881,4.881,0,1,1,4.858-4.858A4.878,4.878,0,0,1,24.655,14.8" transform="translate(829.849 234.646)" fill="#041a2d"/>
      <path id="Path_125395" data-name="Path 125395" d="M23.9,12.853a3.738,3.738,0,1,1,3.762-3.762A3.77,3.77,0,0,1,23.9,12.853" transform="translate(815.459 250.637)" fill="#041a2d"/>
      <path id="Path_125396" data-name="Path 125396" d="M17.389,3.833a.528.528,0,0,1-.524-.524.526.526,0,1,1,1.048,0,.529.529,0,0,1-.524.524" transform="translate(981.08 127.645)" fill="#041a2d"/>
      <path id="Path_125397" data-name="Path 125397" d="M23.3,15.414A6.239,6.239,0,1,1,29.54,9.176,6.26,6.26,0,0,1,23.3,15.414" transform="translate(960.023 136.923)" fill="#041a2d"/>
      <path id="Path_125398" data-name="Path 125398" d="M23.153,14.79a5.762,5.762,0,1,1,5.762-5.762,5.752,5.752,0,0,1-5.762,5.762" transform="translate(945.027 152.216)" fill="#041a2d"/>
      <path id="Path_125399" data-name="Path 125399" d="M22.679,13.459a4.929,4.929,0,1,1,4.953-4.953,4.949,4.949,0,0,1-4.953,4.953" transform="translate(930.357 167.881)" fill="#041a2d"/>
      <path id="Path_125400" data-name="Path 125400" d="M22.576,13.07A4.572,4.572,0,1,1,27.2,8.5a4.563,4.563,0,0,1-4.619,4.572" transform="translate(915.268 183.034)" fill="#041a2d"/>
      <path id="Path_125401" data-name="Path 125401" d="M24.621,16.828a6.31,6.31,0,1,1,6.286-6.286,6.28,6.28,0,0,1-6.286,6.286" transform="translate(898.079 196.181)" fill="#041a2d"/>
      <path id="Path_125402" data-name="Path 125402" d="M26.2,19.6a7.548,7.548,0,1,1,7.524-7.524A7.551,7.551,0,0,1,26.2,19.6" transform="translate(881.357 209.795)" fill="#041a2d"/>
      <path id="Path_125403" data-name="Path 125403" d="M25.677,18.266a6.715,6.715,0,1,1,6.715-6.715,6.707,6.707,0,0,1-6.715,6.715" transform="translate(866.735 225.461)" fill="#041a2d"/>
      <path id="Path_125404" data-name="Path 125404" d="M24.829,16.228A5.524,5.524,0,1,1,30.354,10.7a5.528,5.528,0,0,1-5.524,5.524" transform="translate(852.438 241.453)" fill="#041a2d"/>
      <path id="Path_125405" data-name="Path 125405" d="M18.682,7.479a2.337,2.337,0,0,1-2.333-2.334,2.334,2.334,0,0,1,4.667,0,2.337,2.337,0,0,1-2.334,2.334" transform="translate(1002.55 133.333)" fill="#041a2d"/>
      <path id="Path_125406" data-name="Path 125406" d="M23.432,16.751a6.834,6.834,0,1,1,6.81-6.81,6.85,6.85,0,0,1-6.81,6.81" transform="translate(982.609 143.73)" fill="#041a2d"/>
      <path id="Path_125407" data-name="Path 125407" d="M22.257,14.147a5.358,5.358,0,1,1,5.334-5.334,5.325,5.325,0,0,1-5.334,5.334" transform="translate(968.64 160.002)" fill="#041a2d"/>
      <path id="Path_125408" data-name="Path 125408" d="M22.015,13.288a4.762,4.762,0,1,1,4.762-4.762,4.776,4.776,0,0,1-4.762,4.762" transform="translate(953.737 175.434)" fill="#041a2d"/>
      <path id="Path_125409" data-name="Path 125409" d="M21.96,12.9a4.405,4.405,0,1,1,4.381-4.381A4.37,4.37,0,0,1,21.96,12.9" transform="translate(938.648 190.633)" fill="#041a2d"/>
      <path id="Path_125410" data-name="Path 125410" d="M24.143,16.987A6.31,6.31,0,1,1,30.429,10.7a6.28,6.28,0,0,1-6.286,6.286" transform="translate(921.321 203.595)" fill="#041a2d"/>
      <path id="Path_125411" data-name="Path 125411" d="M25.628,19.615A7.477,7.477,0,1,1,33.1,12.138a7.459,7.459,0,0,1-7.477,7.477" transform="translate(904.644 217.302)" fill="#041a2d"/>
      <path id="Path_125412" data-name="Path 125412" d="M25.153,18.284a6.643,6.643,0,1,1,6.667-6.667,6.687,6.687,0,0,1-6.667,6.667" transform="translate(889.975 232.967)" fill="#041a2d"/>
      <path id="Path_125413" data-name="Path 125413" d="M25.1,17.942a6.31,6.31,0,1,1,6.286-6.286A6.28,6.28,0,0,1,25.1,17.942" transform="translate(874.885 248.12)" fill="#041a2d"/>
      <path id="Path_125414" data-name="Path 125414" d="M15.789,3.08l-.19-.19.19-.143.191.143-.191.19" transform="translate(1043.308 128.037)" fill="#041a2d"/>
      <path id="Path_125415" data-name="Path 125415" d="M21.237,13.764a5.405,5.405,0,1,1,5.381-5.429,5.427,5.427,0,0,1-5.381,5.429" transform="translate(1022.712 137.716)" fill="#041a2d"/>
      <path id="Path_125416" data-name="Path 125416" d="M22.253,15.5A6.12,6.12,0,1,1,28.4,9.354,6.158,6.158,0,0,1,22.253,15.5" transform="translate(1006.551 151.889)" fill="#041a2d"/>
      <path id="Path_125417" data-name="Path 125417" d="M21.452,13.6a5,5,0,1,1,5.048-5,5.031,5.031,0,0,1-5.048,5" transform="translate(992.16 167.788)" fill="#041a2d"/>
      <path id="Path_125418" data-name="Path 125418" d="M21.352,13.07A4.572,4.572,0,1,1,25.924,8.5a4.573,4.573,0,0,1-4.572,4.572" transform="translate(977.117 183.034)" fill="#041a2d"/>
      <path id="Path_125419" data-name="Path 125419" d="M21.437,12.917A4.334,4.334,0,1,1,25.77,8.584a4.35,4.35,0,0,1-4.334,4.334" transform="translate(961.888 198.14)" fill="#041a2d"/>
      <path id="Path_125420" data-name="Path 125420" d="M23.9,17.617a6.548,6.548,0,1,1,6.524-6.524A6.534,6.534,0,0,1,23.9,17.617" transform="translate(944.281 210.775)" fill="#041a2d"/>
      <path id="Path_125421" data-name="Path 125421" d="M24.962,19.443A7.31,7.31,0,1,1,32.3,12.109a7.3,7.3,0,0,1-7.334,7.334" transform="translate(928.074 224.855)" fill="#041a2d"/>
      <path id="Path_125422" data-name="Path 125422" d="M24.63,18.349a6.6,6.6,0,1,1,6.62-6.62,6.606,6.606,0,0,1-6.62,6.62" transform="translate(913.215 240.427)" fill="#041a2d"/>
      <path id="Path_125423" data-name="Path 125423" d="M17.038,6.773A1.953,1.953,0,1,1,18.99,4.821a1.931,1.931,0,0,1-1.953,1.953" transform="translate(1064.772 133.706)" fill="#041a2d"/>
      <path id="Path_125424" data-name="Path 125424" d="M22.11,16.751a6.834,6.834,0,1,1,6.858-6.81,6.809,6.809,0,0,1-6.858,6.81" transform="translate(1044.555 143.73)" fill="#041a2d"/>
      <path id="Path_125425" data-name="Path 125425" d="M21.124,14.383A5.477,5.477,0,1,1,26.6,8.907a5.477,5.477,0,0,1-5.477,5.477" transform="translate(1030.397 159.909)" fill="#041a2d"/>
      <path id="Path_125426" data-name="Path 125426" d="M20.789,13.382a4.81,4.81,0,1,1,4.81-4.81,4.8,4.8,0,0,1-4.81,4.81" transform="translate(1015.588 175.387)" fill="#041a2d"/>
      <path id="Path_125427" data-name="Path 125427" d="M20.687,12.9a4.405,4.405,0,1,1,4.381-4.381A4.37,4.37,0,0,1,20.687,12.9" transform="translate(1000.545 190.633)" fill="#041a2d"/>
      <path id="Path_125428" data-name="Path 125428" d="M20.866,12.84A4.215,4.215,0,1,1,25.1,8.6a4.248,4.248,0,0,1-4.238,4.238" transform="translate(985.174 205.646)" fill="#041a2d"/>
      <path id="Path_125429" data-name="Path 125429" d="M24.028,18.908a7.12,7.12,0,1,1,7.143-7.143,7.134,7.134,0,0,1-7.143,7.143" transform="translate(966.868 217.675)" fill="#041a2d"/>
      <path id="Path_125430" data-name="Path 125430" d="M24.346,19.226a7.12,7.12,0,1,1,7.144-7.143,7.134,7.134,0,0,1-7.144,7.143" transform="translate(951.406 232.501)" fill="#041a2d"/>
      <path id="Path_125431" data-name="Path 125431" d="M24.058,18.413a6.548,6.548,0,1,1,6.524-6.524,6.534,6.534,0,0,1-6.524,6.524" transform="translate(936.55 247.887)" fill="#041a2d"/>
      <path id="Path_125432" data-name="Path 125432" d="M14.517,3.08l-.19-.19.19-.143.191.143-.191.19" transform="translate(1105.196 128.037)" fill="#041a2d"/>
      <path id="Path_125433" data-name="Path 125433" d="M19.87,13.67A5.358,5.358,0,1,1,25.2,8.336,5.325,5.325,0,0,1,19.87,13.67" transform="translate(1084.703 137.762)" fill="#041a2d"/>
      <path id="Path_125434" data-name="Path 125434" d="M21.026,15.732a6.239,6.239,0,1,1,6.286-6.239,6.25,6.25,0,0,1-6.286,6.239" transform="translate(1068.355 151.749)" fill="#041a2d"/>
      <path id="Path_125435" data-name="Path 125435" d="M20.18,13.6a5,5,0,1,1,5-5,5,5,0,0,1-5,5" transform="translate(1054.057 167.788)" fill="#041a2d"/>
      <path id="Path_125436" data-name="Path 125436" d="M20.079,13.07A4.572,4.572,0,1,1,24.651,8.5a4.573,4.573,0,0,1-4.572,4.572" transform="translate(1039.014 183.034)" fill="#041a2d"/>
      <path id="Path_125437" data-name="Path 125437" d="M20.117,12.822A4.286,4.286,0,1,1,24.4,8.536a4.268,4.268,0,0,1-4.286,4.286" transform="translate(1023.832 198.14)" fill="#041a2d"/>
      <path id="Path_125438" data-name="Path 125438" d="M20.668,13.612a4.524,4.524,0,1,1,4.524-4.524,4.522,4.522,0,0,1-4.524,4.524" transform="translate(1008.136 212.779)" fill="#041a2d"/>
      <path id="Path_125439" data-name="Path 125439" d="M24.063,20.151a7.667,7.667,0,1,1,7.715-7.667,7.693,7.693,0,0,1-7.715,7.667" transform="translate(989.549 224.528)" fill="#041a2d"/>
      <path id="Path_125440" data-name="Path 125440" d="M23.636,18.961a6.905,6.905,0,1,1,6.905-6.905,6.91,6.91,0,0,1-6.905,6.905" transform="translate(974.832 240.101)" fill="#041a2d"/>
      <path id="Path_125441" data-name="Path 125441" d="M16.231,7.716A2.429,2.429,0,1,1,18.66,5.287a2.439,2.439,0,0,1-2.429,2.429" transform="translate(1126.203 133.24)" fill="#041a2d"/>
      <path id="Path_125442" data-name="Path 125442" d="M20.792,16.657a6.786,6.786,0,1,1,6.762-6.763,6.758,6.758,0,0,1-6.762,6.763" transform="translate(1106.498 143.777)" fill="#041a2d"/>
      <path id="Path_125443" data-name="Path 125443" d="M19.805,14.242a5.405,5.405,0,1,1,5.381-5.429,5.427,5.427,0,0,1-5.381,5.429" transform="translate(1092.34 160.002)" fill="#041a2d"/>
      <path id="Path_125444" data-name="Path 125444" d="M19.469,13.288a4.762,4.762,0,1,1,4.762-4.762,4.776,4.776,0,0,1-4.762,4.762" transform="translate(1077.532 175.434)" fill="#041a2d"/>
      <path id="Path_125445" data-name="Path 125445" d="M19.415,12.9A4.405,4.405,0,1,1,23.8,8.518,4.37,4.37,0,0,1,19.415,12.9" transform="translate(1062.394 190.633)" fill="#041a2d"/>
      <path id="Path_125446" data-name="Path 125446" d="M19.5,12.746A4.167,4.167,0,1,1,23.643,8.6,4.146,4.146,0,0,1,19.5,12.746" transform="translate(1047.165 205.693)" fill="#041a2d"/>
      <path id="Path_125447" data-name="Path 125447" d="M21.31,15.986a5.643,5.643,0,1,1,5.667-5.667,5.681,5.681,0,0,1-5.667,5.667" transform="translate(1030.211 219.073)" fill="#041a2d"/>
      <path id="Path_125448" data-name="Path 125448" d="M23.586,20.31a7.667,7.667,0,1,1,7.667-7.667,7.662,7.662,0,0,1-7.667,7.667" transform="translate(1012.79 231.942)" fill="#041a2d"/>
      <path id="Path_125449" data-name="Path 125449" d="M22.739,18.272a6.477,6.477,0,1,1,6.477-6.477,6.484,6.484,0,0,1-6.477,6.477" transform="translate(998.494 247.933)" fill="#041a2d"/>
      <path id="Path_125450" data-name="Path 125450" d="M13.71,4.022a.681.681,0,0,1-.667-.667.674.674,0,0,1,.667-.619.642.642,0,0,1,.667.619.651.651,0,0,1-.667.667" transform="translate(1166.632 127.552)" fill="#041a2d"/>
      <path id="Path_125451" data-name="Path 125451" d="M19.157,14.707A5.882,5.882,0,1,1,25.015,8.8a5.9,5.9,0,0,1-5.858,5.905" transform="translate(1146.04 137.25)" fill="#041a2d"/>
      <path id="Path_125452" data-name="Path 125452" d="M19.522,15.167a5.953,5.953,0,1,1,5.953-5.953,5.955,5.955,0,0,1-5.953,5.953" transform="translate(1130.484 152.029)" fill="#041a2d"/>
      <path id="Path_125453" data-name="Path 125453" d="M18.861,13.459a4.929,4.929,0,1,1,4.953-4.953,4.949,4.949,0,0,1-4.953,4.953" transform="translate(1116.001 167.881)" fill="#041a2d"/>
      <path id="Path_125454" data-name="Path 125454" d="M18.759,12.975a4.524,4.524,0,1,1,4.524-4.524,4.522,4.522,0,0,1-4.524,4.524" transform="translate(1100.958 183.08)" fill="#041a2d"/>
      <path id="Path_125455" data-name="Path 125455" d="M18.658,12.446a4.1,4.1,0,1,1,4.1-4.1,4.065,4.065,0,0,1-4.1,4.1" transform="translate(1085.916 198.373)" fill="#041a2d"/>
      <path id="Path_125456" data-name="Path 125456" d="M19.161,13.235a4.334,4.334,0,0,1,0-8.667A4.391,4.391,0,0,1,23.542,8.9a4.391,4.391,0,0,1-4.381,4.334" transform="translate(1070.22 212.966)" fill="#041a2d"/>
      <path id="Path_125457" data-name="Path 125457" d="M22.466,19.443a7.31,7.31,0,1,1,7.286-7.334,7.337,7.337,0,0,1-7.286,7.334" transform="translate(1051.771 224.855)" fill="#041a2d"/>
      <path id="Path_125458" data-name="Path 125458" d="M22.269,18.82a6.834,6.834,0,1,1,6.858-6.81,6.809,6.809,0,0,1-6.858,6.81" transform="translate(1036.824 240.194)" fill="#041a2d"/>
      <path id="Path_125459" data-name="Path 125459" d="M21.283,16.451a5.477,5.477,0,1,1,5.477-5.477,5.477,5.477,0,0,1-5.477,5.477" transform="translate(1022.666 256.326)" fill="#041a2d"/>
      <path id="Path_125460" data-name="Path 125460" d="M16.31,10.449a3.81,3.81,0,1,1,3.81-3.81,3.821,3.821,0,0,1-3.81,3.81" transform="translate(1186.748 131.888)" fill="#041a2d"/>
      <path id="Path_125461" data-name="Path 125461" d="M19.379,16.28A6.6,6.6,0,1,1,26,9.66a6.636,6.636,0,0,1-6.62,6.62" transform="translate(1168.535 143.963)" fill="#041a2d"/>
      <path id="Path_125462" data-name="Path 125462" d="M18.3,13.771A5.167,5.167,0,1,1,23.489,8.58,5.2,5.2,0,0,1,18.3,13.771" transform="translate(1154.472 160.235)" fill="#041a2d"/>
      <path id="Path_125463" data-name="Path 125463" d="M18.057,13.053a4.643,4.643,0,1,1,4.619-4.619,4.624,4.624,0,0,1-4.619,4.619" transform="translate(1139.52 175.574)" fill="#041a2d"/>
      <path id="Path_125464" data-name="Path 125464" d="M18.1,12.758a4.334,4.334,0,1,1,4.334-4.334A4.35,4.35,0,0,1,18.1,12.758" transform="translate(1124.338 190.727)" fill="#041a2d"/>
      <path id="Path_125465" data-name="Path 125465" d="M17.994,12.275A3.929,3.929,0,1,1,21.9,8.37a3.923,3.923,0,0,1-3.905,3.905" transform="translate(1109.295 205.926)" fill="#041a2d"/>
      <path id="Path_125466" data-name="Path 125466" d="M20.13,16.222a5.762,5.762,0,1,1,5.762-5.762,5.752,5.752,0,0,1-5.762,5.762" transform="translate(1092.015 218.98)" fill="#041a2d"/>
      <path id="Path_125467" data-name="Path 125467" d="M21.661,19.037a7.024,7.024,0,1,1,7-7,7.012,7.012,0,0,1-7,7" transform="translate(1075.34 232.548)" fill="#041a2d"/>
      <path id="Path_125468" data-name="Path 125468" d="M20.581,16.528a5.6,5.6,0,1,1,5.572-5.572,5.579,5.579,0,0,1-5.572,5.572" transform="translate(1061.228 248.819)" fill="#041a2d"/>
      <path id="Path_125469" data-name="Path 125469" d="M13.6,6.378a1.834,1.834,0,1,1,1.857-1.857A1.86,1.86,0,0,1,13.6,6.378" transform="translate(1227.315 126.386)" fill="#041a2d"/>
      <path id="Path_125470" data-name="Path 125470" d="M18.584,16.121A6.6,6.6,0,1,1,25.2,9.5a6.605,6.605,0,0,1-6.62,6.62" transform="translate(1207.191 136.55)" fill="#041a2d"/>
      <path id="Path_125471" data-name="Path 125471" d="M17.876,14.459a5.6,5.6,0,1,1,5.572-5.572,5.579,5.579,0,0,1-5.572,5.572" transform="translate(1192.754 152.356)" fill="#041a2d"/>
      <path id="Path_125472" data-name="Path 125472" d="M17.261,12.894a4.643,4.643,0,1,1,4.619-4.619,4.624,4.624,0,0,1-4.619,4.619" transform="translate(1178.224 168.161)" fill="#041a2d"/>
      <path id="Path_125473" data-name="Path 125473" d="M16.6,11.185A3.619,3.619,0,1,1,20.22,7.565,3.618,3.618,0,0,1,16.6,11.185" transform="translate(1163.741 183.966)" fill="#041a2d"/>
      <path id="Path_125474" data-name="Path 125474" d="M16.219,10.09a2.905,2.905,0,1,1,2.9-2.905,2.886,2.886,0,0,1-2.9,2.905" transform="translate(1148.978 199.538)" fill="#041a2d"/>
      <path id="Path_125475" data-name="Path 125475" d="M17.7,12.764a4.1,4.1,0,1,1,4.1-4.1,4.065,4.065,0,0,1-4.1,4.1" transform="translate(1132.302 213.199)" fill="#041a2d"/>
      <path id="Path_125476" data-name="Path 125476" d="M20.772,18.643a6.905,6.905,0,1,1,6.905-6.905,6.91,6.91,0,0,1-6.905,6.905" transform="translate(1114.089 225.274)" fill="#041a2d"/>
      <path id="Path_125477" data-name="Path 125477" d="M20.158,17.076a5.953,5.953,0,1,1,5.953-5.953,5.955,5.955,0,0,1-5.953,5.953" transform="translate(1099.559 241.033)" fill="#041a2d"/>
      <path id="Path_125478" data-name="Path 125478" d="M19.777,15.98a5.239,5.239,0,1,1,5.238-5.239,5.224,5.224,0,0,1-5.238,5.239" transform="translate(1084.797 256.559)" fill="#041a2d"/>
      <path id="Path_125479" data-name="Path 125479" d="M11.547,3.769a.579.579,0,0,1-.571-.571.591.591,0,0,1,.571-.619.63.63,0,0,1,.619.619.624.624,0,0,1-.619.571" transform="translate(1267.279 120.186)" fill="#041a2d"/>
      <path id="Path_125480" data-name="Path 125480" d="M16.669,13.746A5.477,5.477,0,1,1,22.145,8.27a5.477,5.477,0,0,1-5.477,5.477" transform="translate(1247.014 130.21)" fill="#041a2d"/>
      <path id="Path_125481" data-name="Path 125481" d="M16.94,13.923a5.405,5.405,0,1,1,5.429-5.429,5.427,5.427,0,0,1-5.429,5.429" transform="translate(1231.598 145.129)" fill="#041a2d"/>
      <path id="Path_125482" data-name="Path 125482" d="M15.441,10.613a3.572,3.572,0,1,1,3.572-3.572,3.567,3.567,0,0,1-3.572,3.572" transform="translate(1217.906 161.773)" fill="#041a2d"/>
      <path id="Path_125483" data-name="Path 125483" d="M14.826,9.047a2.619,2.619,0,1,1,2.619-2.619,2.643,2.643,0,0,1-2.619,2.619" transform="translate(1203.376 177.532)" fill="#041a2d"/>
      <path id="Path_125484" data-name="Path 125484" d="M14.77,8.658a2.262,2.262,0,0,1,0-4.524,2.262,2.262,0,1,1,0,4.524" transform="translate(1188.288 192.731)" fill="#041a2d"/>
      <path id="Path_125485" data-name="Path 125485" d="M16.441,11.663a3.619,3.619,0,1,1,3.619-3.619,3.618,3.618,0,0,1-3.619,3.619" transform="translate(1171.472 206.252)" fill="#041a2d"/>
      <path id="Path_125486" data-name="Path 125486" d="M19.837,18.248A6.786,6.786,0,1,1,26.6,11.485a6.758,6.758,0,0,1-6.762,6.763" transform="translate(1152.933 217.955)" fill="#041a2d"/>
      <path id="Path_125487" data-name="Path 125487" d="M19.6,17.388A6.191,6.191,0,1,1,25.787,11.2,6.179,6.179,0,0,1,19.6,17.388" transform="translate(1137.982 233.387)" fill="#041a2d"/>
      <path id="Path_125488" data-name="Path 125488" d="M19.075,16.057a5.358,5.358,0,1,1,5.334-5.334,5.325,5.325,0,0,1-5.334,5.334" transform="translate(1123.359 249.052)" fill="#041a2d"/>
      <path id="Path_125489" data-name="Path 125489" d="M10.333,2.667l-.143-.143.143-.1.143.1-.143.143" transform="translate(1306.373 113.234)" fill="#041a2d"/>
      <path id="Path_125490" data-name="Path 125490" d="M13.962,9.677a3.5,3.5,0,1,1,3.524-3.524,3.516,3.516,0,0,1-3.524,3.524" transform="translate(1287.581 124.755)" fill="#041a2d"/>
      <path id="Path_125491" data-name="Path 125491" d="M15.725,12.964a5,5,0,1,1,5-5,5,5,0,0,1-5,5" transform="translate(1270.673 138.135)" fill="#041a2d"/>
      <path id="Path_125492" data-name="Path 125492" d="M14.039,9.276a2.977,2.977,0,1,1,2.953-2.953,2.937,2.937,0,0,1-2.953,2.953" transform="translate(1257.216 154.92)" fill="#041a2d"/>
      <path id="Path_125493" data-name="Path 125493" d="M13.89,8.652a2.459,2.459,0,0,1-2.476-2.476,2.477,2.477,0,1,1,4.953,0A2.459,2.459,0,0,1,13.89,8.652" transform="translate(1242.22 170.259)" fill="#041a2d"/>
      <path id="Path_125494" data-name="Path 125494" d="M14.069,8.593A2.337,2.337,0,0,1,11.736,6.26a2.334,2.334,0,0,1,4.667,0,2.337,2.337,0,0,1-2.334,2.334" transform="translate(1226.849 185.272)" fill="#041a2d"/>
      <path id="Path_125495" data-name="Path 125495" d="M16.066,12.351A4.048,4.048,0,1,1,20.114,8.3a4.045,4.045,0,0,1-4.048,4.048" transform="translate(1209.708 198.373)" fill="#041a2d"/>
      <path id="Path_125496" data-name="Path 125496" d="M19.181,18.278a6.882,6.882,0,1,1,6.905-6.905,6.91,6.91,0,0,1-6.905,6.905" transform="translate(1191.449 210.495)" fill="#041a2d"/>
      <path id="Path_125497" data-name="Path 125497" d="M18.893,17.464a6.31,6.31,0,1,1,6.286-6.286,6.28,6.28,0,0,1-6.286,6.286" transform="translate(1176.593 225.834)" fill="#041a2d"/>
      <path id="Path_125498" data-name="Path 125498" d="M18.419,16.133A5.477,5.477,0,1,1,23.9,10.657a5.477,5.477,0,0,1-5.477,5.477" transform="translate(1161.923 241.499)" fill="#041a2d"/>
      <path id="Path_125499" data-name="Path 125499" d="M18.364,15.745a5.12,5.12,0,1,1,5.1-5.1,5.1,5.1,0,0,1-5.1,5.1" transform="translate(1146.834 256.698)" fill="#041a2d"/>
      <path id="Path_125500" data-name="Path 125500" d="M11.115,5.417A1.4,1.4,0,0,1,9.686,3.989a1.429,1.429,0,0,1,2.857,0,1.4,1.4,0,0,1-1.429,1.429" transform="translate(1328.336 119.346)" fill="#041a2d"/>
      <path id="Path_125501" data-name="Path 125501" d="M14.416,11.862a4.524,4.524,0,0,1,0-9.048,4.594,4.594,0,0,1,4.572,4.524,4.594,4.594,0,0,1-4.572,4.524" transform="translate(1309.844 131.189)" fill="#041a2d"/>
      <path id="Path_125502" data-name="Path 125502" d="M13.384,9.353a3.1,3.1,0,1,1,3.1-3.1,3.089,3.089,0,0,1-3.1,3.1" transform="translate(1295.731 147.414)" fill="#041a2d"/>
      <path id="Path_125503" data-name="Path 125503" d="M13.189,8.588A2.548,2.548,0,1,1,15.76,6.016a2.561,2.561,0,0,1-2.572,2.572" transform="translate(1280.782 162.799)" fill="#041a2d"/>
      <path id="Path_125504" data-name="Path 125504" d="M13.507,8.906a2.548,2.548,0,1,1,2.572-2.572,2.561,2.561,0,0,1-2.572,2.572" transform="translate(1265.32 177.625)" fill="#041a2d"/>
      <path id="Path_125505" data-name="Path 125505" d="M16.156,13.936a4.929,4.929,0,1,1,4.953-4.953,4.949,4.949,0,0,1-4.953,4.953" transform="translate(1247.526 190.12)" fill="#041a2d"/>
      <path id="Path_125506" data-name="Path 125506" d="M18.573,18.5a7.072,7.072,0,1,1,7.048-7.048A7.073,7.073,0,0,1,18.573,18.5" transform="translate(1229.965 202.849)" fill="#041a2d"/>
      <path id="Path_125507" data-name="Path 125507" d="M18.052,17.164a6.239,6.239,0,1,1,6.239-6.239,6.26,6.26,0,0,1-6.239,6.239" transform="translate(1215.295 218.514)" fill="#041a2d"/>
      <path id="Path_125508" data-name="Path 125508" d="M17.67,16.069a5.524,5.524,0,1,1,5.524-5.524,5.528,5.528,0,0,1-5.524,5.524" transform="translate(1200.532 234.04)" fill="#041a2d"/>
      <path id="Path_125509" data-name="Path 125509" d="M17.662,15.68a5.167,5.167,0,1,1,5.191-5.191,5.2,5.2,0,0,1-5.191,5.191" transform="translate(1185.396 249.239)" fill="#041a2d"/>
      <path id="Path_125510" data-name="Path 125510" d="M9.013,2.667l-.1-.143.1-.1.143.1-.143.143" transform="translate(1368.308 113.234)" fill="#041a2d"/>
      <path id="Path_125511" data-name="Path 125511" d="M12.036,8.4a2.857,2.857,0,1,1,2.857-2.857A2.866,2.866,0,0,1,12.036,8.4" transform="translate(1350.131 125.361)" fill="#041a2d"/>
      <path id="Path_125512" data-name="Path 125512" d="M12.867,9.76a3.381,3.381,0,1,1,3.381-3.381A3.394,3.394,0,0,1,12.867,9.76" transform="translate(1334.156 139.721)" fill="#041a2d"/>
      <path id="Path_125513" data-name="Path 125513" d="M12.486,8.664A2.667,2.667,0,1,1,15.153,6a2.663,2.663,0,0,1-2.667,2.667" transform="translate(1319.393 155.246)" fill="#041a2d"/>
      <path id="Path_125514" data-name="Path 125514" d="M13.411,10.16a3.293,3.293,0,0,1-3.286-3.286,3.286,3.286,0,0,1,6.572,0,3.293,3.293,0,0,1-3.286,3.286" transform="translate(1303.276 169.513)" fill="#041a2d"/>
      <path id="Path_125515" data-name="Path 125515" d="M16.34,15.8A5.953,5.953,0,1,1,22.293,9.85,5.955,5.955,0,0,1,16.34,15.8" transform="translate(1285.203 181.682)" fill="#041a2d"/>
      <path id="Path_125516" data-name="Path 125516" d="M17.729,18.336a7.072,7.072,0,0,1,0-14.144,7.072,7.072,0,1,1,0,14.144" transform="translate(1268.669 195.436)" fill="#041a2d"/>
      <path id="Path_125517" data-name="Path 125517" d="M17.069,16.675a6.072,6.072,0,1,1,6.048-6.048,6.057,6.057,0,0,1-6.048,6.048" transform="translate(1254.185 211.241)" fill="#041a2d"/>
      <path id="Path_125518" data-name="Path 125518" d="M16.828,15.815A5.477,5.477,0,1,1,22.3,10.339a5.477,5.477,0,0,1-5.477,5.477" transform="translate(1239.283 226.673)" fill="#041a2d"/>
      <path id="Path_125519" data-name="Path 125519" d="M16.819,15.521A5.167,5.167,0,1,1,22.01,10.33a5.163,5.163,0,0,1-5.191,5.191" transform="translate(1224.099 241.826)" fill="#041a2d"/>
      <path id="Path_125520" data-name="Path 125520" d="M16.952,15.368A4.929,4.929,0,1,1,21.9,10.415a4.949,4.949,0,0,1-4.953,4.953" transform="translate(1208.822 256.885)" fill="#041a2d"/>
      <path id="Path_125521" data-name="Path 125521" d="M8.723,3.2l-.286-.286a.289.289,0,1,1,.571,0L8.723,3.2" transform="translate(1391.353 120.465)" fill="#041a2d"/>
      <path id="Path_125522" data-name="Path 125522" d="M11.653,8.8a2.977,2.977,0,1,1,2.953-2.953A2.937,2.937,0,0,1,11.653,8.8" transform="translate(1373.231 132.681)" fill="#041a2d"/>
      <path id="Path_125523" data-name="Path 125523" d="M11.971,9.117a2.977,2.977,0,1,1,2.953-2.953,2.937,2.937,0,0,1-2.953,2.953" transform="translate(1357.769 147.507)" fill="#041a2d"/>
      <path id="Path_125524" data-name="Path 125524" d="M14.06,12.97a4.762,4.762,0,1,1,4.762-4.762A4.776,4.776,0,0,1,14.06,12.97" transform="translate(1340.535 160.608)" fill="#041a2d"/>
      <path id="Path_125525" data-name="Path 125525" d="M16.57,17.718a7,7,0,1,1,7-7,7.012,7.012,0,0,1-7,7" transform="translate(1322.881 173.289)" fill="#041a2d"/>
      <path id="Path_125526" data-name="Path 125526" d="M16.56,17.47a6.715,6.715,0,1,1,6.763-6.715A6.7,6.7,0,0,1,16.56,17.47" transform="translate(1307.699 188.349)" fill="#041a2d"/>
      <path id="Path_125527" data-name="Path 125527" d="M16.087,16.139a5.882,5.882,0,1,1,5.905-5.905,5.864,5.864,0,0,1-5.905,5.905" transform="translate(1293.028 204.014)" fill="#041a2d"/>
      <path id="Path_125528" data-name="Path 125528" d="M15.938,15.514a5.405,5.405,0,1,1,5.429-5.429,5.386,5.386,0,0,1-5.429,5.429" transform="translate(1278.032 219.307)" fill="#041a2d"/>
      <path id="Path_125529" data-name="Path 125529" d="M15.978,15.267a5.12,5.12,0,1,1,5.1-5.1,5.1,5.1,0,0,1-5.1,5.1" transform="translate(1262.849 234.413)" fill="#041a2d"/>
      <path id="Path_125530" data-name="Path 125530" d="M16.2,15.35a5,5,0,1,1,5-5,5,5,0,0,1-5,5" transform="translate(1247.48 249.379)" fill="#041a2d"/>
      <path id="Path_125531" data-name="Path 125531" d="M8.386,3.6a.429.429,0,1,1,.429-.429.427.427,0,0,1-.429.429" transform="translate(1414.406 127.738)" fill="#041a2d"/>
      <path id="Path_125532" data-name="Path 125532" d="M12.2,10.937a3.977,3.977,0,1,1,4-4,3.994,3.994,0,0,1-4,4" transform="translate(1395.447 139.115)" fill="#041a2d"/>
      <path id="Path_125533" data-name="Path 125533" d="M14.757,15.827A6.286,6.286,0,1,1,21.044,9.54a6.28,6.28,0,0,1-6.286,6.286" transform="translate(1377.698 151.703)" fill="#041a2d"/>
      <path id="Path_125534" data-name="Path 125534" d="M16.053,18.171a7.31,7.31,0,1,1,7.334-7.334,7.3,7.3,0,0,1-7.334,7.334" transform="translate(1361.258 165.55)" fill="#041a2d"/>
      <path id="Path_125535" data-name="Path 125535" d="M15.393,16.464a6.286,6.286,0,1,1,6.286-6.286,6.28,6.28,0,0,1-6.286,6.286" transform="translate(1346.774 181.402)" fill="#041a2d"/>
      <path id="Path_125536" data-name="Path 125536" d="M15.058,15.509a5.643,5.643,0,1,1,5.667-5.667,5.64,5.64,0,0,1-5.667,5.667" transform="translate(1331.965 196.834)" fill="#041a2d"/>
      <path id="Path_125537" data-name="Path 125537" d="M15.1,15.261a5.358,5.358,0,1,1,5.334-5.334A5.325,5.325,0,0,1,15.1,15.261" transform="translate(1316.782 211.94)" fill="#041a2d"/>
      <path id="Path_125538" data-name="Path 125538" d="M15.136,14.967a5.048,5.048,0,1,1,5.048-5.048,5.051,5.051,0,0,1-5.048,5.048" transform="translate(1301.551 227.093)" fill="#041a2d"/>
      <path id="Path_125539" data-name="Path 125539" d="M15.361,15.05A4.929,4.929,0,1,1,20.314,10.1a4.949,4.949,0,0,1-4.953,4.953" transform="translate(1286.182 242.059)" fill="#041a2d"/>
      <path id="Path_125540" data-name="Path 125540" d="M8.057,4.334a.9.9,0,0,1-.9-.9.906.906,0,0,1,1.81,0,.9.9,0,0,1-.9.9" transform="translate(1452.595 119.906)" fill="#041a2d"/>
      <path id="Path_125541" data-name="Path 125541" d="M11.639,11.249a4.215,4.215,0,1,1,4.238-4.238,4.248,4.248,0,0,1-4.238,4.238" transform="translate(1433.869 131.468)" fill="#041a2d"/>
      <path id="Path_125542" data-name="Path 125542" d="M14.987,17.693a7.31,7.31,0,1,1,7.334-7.334,7.337,7.337,0,0,1-7.334,7.334" transform="translate(1415.377 143.264)" fill="#041a2d"/>
      <path id="Path_125543" data-name="Path 125543" d="M14.7,16.834a6.715,6.715,0,1,1,6.715-6.715A6.707,6.707,0,0,1,14.7,16.834" transform="translate(1400.521 158.696)" fill="#041a2d"/>
      <path id="Path_125544" data-name="Path 125544" d="M14.271,15.644a5.953,5.953,0,1,1,5.953-5.953,5.955,5.955,0,0,1-5.953,5.953" transform="translate(1385.804 174.269)" fill="#041a2d"/>
      <path id="Path_125545" data-name="Path 125545" d="M14.124,15.019A5.477,5.477,0,1,1,19.6,9.543a5.477,5.477,0,0,1-5.477,5.477" transform="translate(1370.76 189.561)" fill="#041a2d"/>
      <path id="Path_125546" data-name="Path 125546" d="M14.209,14.866a5.239,5.239,0,1,1,5.239-5.239,5.223,5.223,0,0,1-5.239,5.239" transform="translate(1355.531 204.62)" fill="#041a2d"/>
      <path id="Path_125547" data-name="Path 125547" d="M9.685,9.124a3.381,3.381,0,1,1,3.381-3.381A3.394,3.394,0,0,1,9.685,9.124" transform="translate(1488.875 110.068)" fill="#041a2d"/>
      <path id="Path_125548" data-name="Path 125548" d="M12.568,14.625a6,6,0,1,1,6-6,6.006,6.006,0,0,1-6,6" transform="translate(1470.848 122.33)" fill="#041a2d"/>
      <path id="Path_125549" data-name="Path 125549" d="M12.933,15.084a6.072,6.072,0,1,1,6.048-6.048,6.057,6.057,0,0,1-6.048,6.048" transform="translate(1455.291 137.063)" fill="#041a2d"/>
      <path id="Path_125550" data-name="Path 125550" d="M13.064,15.026a5.882,5.882,0,1,1,5.905-5.905,5.864,5.864,0,0,1-5.905,5.905" transform="translate(1440.016 152.122)" fill="#041a2d"/>
      <path id="Path_125551" data-name="Path 125551" d="M13.056,14.637a5.524,5.524,0,1,1,5.524-5.524,5.528,5.528,0,0,1-5.524,5.524" transform="translate(1424.879 167.275)" fill="#041a2d"/>
      <path id="Path_125552" data-name="Path 125552" d="M13.095,14.389a5.239,5.239,0,1,1,5.239-5.239,5.223,5.223,0,0,1-5.239,5.239" transform="translate(1409.697 182.381)" fill="#041a2d"/>
      <path id="Path_125553" data-name="Path 125553" d="M5.176,2.107l-.238-.238.238-.238.238.238-.238.238" transform="translate(1561.566 76.028)" fill="#041a2d"/>
      <path id="Path_125554" data-name="Path 125554" d="M7.639,6.761a2.429,2.429,0,1,1,2.429-2.429A2.439,2.439,0,0,1,7.639,6.761" transform="translate(1543.974 88.715)" fill="#041a2d"/>
      <path id="Path_125555" data-name="Path 125555" d="M10.056,11.32a4.572,4.572,0,1,1,4.572-4.572,4.573,4.573,0,0,1-4.572,4.572" transform="translate(1526.365 101.443)" fill="#041a2d"/>
      <path id="Path_125556" data-name="Path 125556" d="M10.42,11.78A4.643,4.643,0,1,1,15.04,7.16,4.624,4.624,0,0,1,10.42,11.78" transform="translate(1510.856 116.223)" fill="#041a2d"/>
      <path id="Path_125557" data-name="Path 125557" d="M9.34,9.27a3.215,3.215,0,1,1,3.191-3.191A3.191,3.191,0,0,1,9.34,9.27" transform="translate(1496.792 132.447)" fill="#041a2d"/>
      <path id="Path_125558" data-name="Path 125558" d="M9.052,8.27A2.548,2.548,0,1,1,11.623,5.7,2.561,2.561,0,0,1,9.052,8.27" transform="translate(1481.936 147.973)" fill="#041a2d"/>
      <path id="Path_125559" data-name="Path 125559" d="M10.069,10A3.293,3.293,0,0,1,6.783,6.715a3.286,3.286,0,0,1,6.572,0A3.293,3.293,0,0,1,10.069,10" transform="translate(1465.775 162.1)" fill="#041a2d"/>
      <path id="Path_125560" data-name="Path 125560" d="M10.761,11.168A3.691,3.691,0,1,1,14.428,7.5a3.669,3.669,0,0,1-3.667,3.667" transform="translate(1449.891 176.506)" fill="#041a2d"/>
      <path id="Path_125561" data-name="Path 125561" d="M7.31,7.544a2.905,2.905,0,1,1,2.905-2.905A2.886,2.886,0,0,1,7.31,7.544" transform="translate(1582.163 80.835)" fill="#041a2d"/>
      <path id="Path_125562" data-name="Path 125562" d="M8.607,9.889A3.892,3.892,0,0,1,4.7,5.984a3.905,3.905,0,1,1,7.81,0A3.892,3.892,0,0,1,8.607,9.889" transform="translate(1565.722 94.683)" fill="#041a2d"/>
      <path id="Path_125563" data-name="Path 125563" d="M7.946,8.181a2.905,2.905,0,1,1,2.905-2.905A2.886,2.886,0,0,1,7.946,8.181" transform="translate(1551.238 110.535)" fill="#041a2d"/>
      <path id="Path_125564" data-name="Path 125564" d="M7.939,7.792A2.548,2.548,0,1,1,10.51,5.22,2.561,2.561,0,0,1,7.939,7.792" transform="translate(1536.054 125.687)" fill="#041a2d"/>
      <path id="Path_125565" data-name="Path 125565" d="M7.884,7.4A2.216,2.216,0,0,1,5.693,5.213a2.191,2.191,0,1,1,4.381,0A2.216,2.216,0,0,1,7.884,7.4" transform="translate(1520.965 140.886)" fill="#041a2d"/>
      <path id="Path_125566" data-name="Path 125566" d="M8.015,7.391a2.024,2.024,0,1,1,2-2,2.012,2.012,0,0,1-2,2" transform="translate(1505.689 155.852)" fill="#041a2d"/>
      <path id="Path_125567" data-name="Path 125567" d="M8.753,8.511a2.429,2.429,0,1,1,2.429-2.429A2.439,2.439,0,0,1,8.753,8.511" transform="translate(1489.807 170.306)" fill="#041a2d"/>
      <path id="Path_125568" data-name="Path 125568" d="M5.814,6.112A2.237,2.237,0,0,1,3.623,3.826,2.226,2.226,0,0,1,5.814,1.588,2.277,2.277,0,0,1,8.1,3.826,2.286,2.286,0,0,1,5.814,6.112" transform="translate(1621.52 74.028)" fill="#041a2d"/>
      <path id="Path_125569" data-name="Path 125569" d="M6.74,7.468a2.815,2.815,0,0,1-2.81-2.81,2.81,2.81,0,0,1,5.62,0,2.815,2.815,0,0,1-2.81,2.81" transform="translate(1605.449 88.388)" fill="#041a2d"/>
      <path id="Path_125570" data-name="Path 125570" d="M6.685,7.079A2.429,2.429,0,1,1,9.114,4.65,2.439,2.439,0,0,1,6.685,7.079" transform="translate(1590.36 103.541)" fill="#041a2d"/>
      <path id="Path_125571" data-name="Path 125571" d="M6.723,6.831A2.143,2.143,0,1,1,8.866,4.688,2.134,2.134,0,0,1,6.723,6.831" transform="translate(1575.178 118.647)" fill="#041a2d"/>
      <path id="Path_125572" data-name="Path 125572" d="M6.9,6.914a2.024,2.024,0,1,1,2-2.048,2.023,2.023,0,0,1-2,2.048" transform="translate(1559.855 133.613)" fill="#041a2d"/>
      <path id="Path_125573" data-name="Path 125573" d="M7.126,7a1.9,1.9,0,1,1,1.9-1.9A1.911,1.911,0,0,1,7.126,7" transform="translate(1544.486 148.579)" fill="#041a2d"/>
      <path id="Path_125574" data-name="Path 125574" d="M7.4,7.174A1.834,1.834,0,1,1,9.256,5.317,1.86,1.86,0,0,1,7.4,7.174" transform="translate(1529.022 163.499)" fill="#041a2d"/>
      <path id="Path_125575" data-name="Path 125575" d="M7.623,7.4a1.786,1.786,0,1,1,1.762-1.81A1.769,1.769,0,0,1,7.623,7.4" transform="translate(1513.653 178.371)" fill="#041a2d"/>
      <path id="Path_125576" data-name="Path 125576" d="M4.274,4.3A1.4,1.4,0,0,1,2.845,2.876a1.429,1.429,0,1,1,2.857,0A1.4,1.4,0,0,1,4.274,4.3" transform="translate(1660.968 67.455)" fill="#041a2d"/>
      <path id="Path_125577" data-name="Path 125577" d="M5.524,6.507A2.358,2.358,0,0,1,3.143,4.126a2.381,2.381,0,0,1,4.762,0A2.358,2.358,0,0,1,5.524,6.507" transform="translate(1644.573 81.348)" fill="#041a2d"/>
      <path id="Path_125578" data-name="Path 125578" d="M5.609,6.354A2.143,2.143,0,1,1,7.752,4.211,2.134,2.134,0,0,1,5.609,6.354" transform="translate(1629.344 96.408)" fill="#041a2d"/>
      <path id="Path_125579" data-name="Path 125579" d="M5.788,6.437a2.024,2.024,0,1,1,2-2,2.012,2.012,0,0,1-2,2" transform="translate(1613.973 111.374)" fill="#041a2d"/>
      <path id="Path_125580" data-name="Path 125580" d="M6.013,6.52a1.9,1.9,0,1,1,1.9-1.9,1.911,1.911,0,0,1-1.9,1.9" transform="translate(1598.604 126.34)" fill="#041a2d"/>
      <path id="Path_125581" data-name="Path 125581" d="M6.284,6.7A1.834,1.834,0,1,1,8.142,4.839,1.86,1.86,0,0,1,6.284,6.7" transform="translate(1583.189 141.213)" fill="#041a2d"/>
      <path id="Path_125582" data-name="Path 125582" d="M6.509,6.92A1.786,1.786,0,1,1,8.271,5.158,1.758,1.758,0,0,1,6.509,6.92" transform="translate(1567.82 156.085)" fill="#041a2d"/>
      <path id="Path_125583" data-name="Path 125583" d="M2.266,1.648l-.19-.19.19-.143.191.143-.191.19" transform="translate(1700.86 61.277)" fill="#041a2d"/>
      <path id="Path_125584" data-name="Path 125584" d="M4.123,5.17A1.769,1.769,0,0,1,2.361,3.36a1.762,1.762,0,1,1,3.524,0A1.769,1.769,0,0,1,4.123,5.17" transform="translate(1683.835 74.495)" fill="#041a2d"/>
      <path id="Path_125585" data-name="Path 125585" d="M4.628,5.818A1.931,1.931,0,0,1,2.675,3.866a1.953,1.953,0,1,1,3.905,0A1.931,1.931,0,0,1,4.628,5.818" transform="translate(1668.186 89.181)" fill="#041a2d"/>
      <path id="Path_125586" data-name="Path 125586" d="M4.9,6.042a1.9,1.9,0,1,1,1.9-1.9,1.911,1.911,0,0,1-1.9,1.9" transform="translate(1652.77 104.054)" fill="#041a2d"/>
      <path id="Path_125587" data-name="Path 125587" d="M5.077,6.125A1.758,1.758,0,0,1,3.315,4.363a1.763,1.763,0,1,1,3.524,0A1.758,1.758,0,0,1,5.077,6.125" transform="translate(1637.448 119.02)" fill="#041a2d"/>
      <path id="Path_125588" data-name="Path 125588" d="M5.3,6.3A1.668,1.668,0,0,1,3.635,4.587a1.691,1.691,0,1,1,3.381,0A1.678,1.678,0,0,1,5.3,6.3" transform="translate(1622.031 133.939)" fill="#041a2d"/>
      <path id="Path_125589" data-name="Path 125589" d="M5.667,6.62A1.714,1.714,0,1,1,7.382,4.905,1.707,1.707,0,0,1,5.667,6.62" transform="translate(1606.522 148.766)" fill="#041a2d"/>
      <path id="Path_125590" data-name="Path 125590" d="M1.882,2.042,1.6,1.757a.275.275,0,0,1,.286-.286.274.274,0,0,1,.286.286l-.286.286" transform="translate(1723.984 68.574)" fill="#041a2d"/>
      <path id="Path_125591" data-name="Path 125591" d="M3.693,5.329a1.8,1.8,0,0,1-1.81-1.762,1.809,1.809,0,0,1,1.81-1.81,1.769,1.769,0,0,1,1.762,1.81A1.758,1.758,0,0,1,3.693,5.329" transform="translate(1707.029 81.908)" fill="#041a2d"/>
      <path id="Path_125592" data-name="Path 125592" d="M3.964,5.648A1.769,1.769,0,0,1,2.2,3.838a1.762,1.762,0,0,1,3.524,0,1.769,1.769,0,0,1-1.762,1.81" transform="translate(1691.566 96.781)" fill="#041a2d"/>
      <path id="Path_125593" data-name="Path 125593" d="M4.235,5.825A1.714,1.714,0,1,1,5.95,4.11,1.707,1.707,0,0,1,4.235,5.825" transform="translate(1676.15 111.7)" fill="#041a2d"/>
      <path id="Path_125594" data-name="Path 125594" d="M4.553,6.143A1.714,1.714,0,1,1,6.268,4.428,1.707,1.707,0,0,1,4.553,6.143" transform="translate(1660.688 126.526)" fill="#041a2d"/>
      <path id="Path_125595" data-name="Path 125595" d="M4.825,6.367A1.667,1.667,0,1,1,6.492,4.7,1.687,1.687,0,0,1,4.825,6.367" transform="translate(1645.272 141.399)" fill="#041a2d"/>
      <path id="Path_125596" data-name="Path 125596" d="M1.4,2.2a.275.275,0,0,1-.286-.286A.253.253,0,0,1,1.4,1.63a.275.275,0,0,1,.286.286L1.4,2.2" transform="translate(1747.177 75.987)" fill="#041a2d"/>
      <path id="Path_125597" data-name="Path 125597" d="M3.075,5.253A1.687,1.687,0,0,1,1.408,3.586,1.687,1.687,0,0,1,3.075,1.919,1.687,1.687,0,0,1,4.742,3.586,1.687,1.687,0,0,1,3.075,5.253" transform="translate(1730.363 89.461)" fill="#041a2d"/>
      <path id="Path_125598" data-name="Path 125598" d="M3.393,5.571A1.687,1.687,0,0,1,1.726,3.9,1.687,1.687,0,0,1,3.393,2.237,1.687,1.687,0,0,1,5.06,3.9,1.687,1.687,0,0,1,3.393,5.571" transform="translate(1714.901 104.287)" fill="#041a2d"/>
      <path id="Path_125599" data-name="Path 125599" d="M3.711,5.889a1.667,1.667,0,1,1,0-3.334,1.667,1.667,0,1,1,0,3.334" transform="translate(1699.439 119.113)" fill="#041a2d"/>
      <path id="Path_125600" data-name="Path 125600" d="M3.983,6.066A1.6,1.6,0,1,1,5.6,4.447,1.606,1.606,0,0,1,3.983,6.066" transform="translate(1683.974 134.033)" fill="#041a2d"/>
      <path id="Path_125601" data-name="Path 125601" d="M4.256,6.29A1.586,1.586,0,0,1,2.684,4.718,1.577,1.577,0,0,1,4.256,3.194a1.548,1.548,0,0,1,0,3.1" transform="translate(1668.558 148.905)" fill="#041a2d"/>
      <path id="Path_125602" data-name="Path 125602" d="M.787,2.031.645,1.888l.143-.1.143.1-.143.143" transform="translate(1770.53 83.563)" fill="#041a2d"/>
      <path id="Path_125603" data-name="Path 125603" d="M2.506,5.177A1.555,1.555,0,0,1,.934,3.6,1.577,1.577,0,0,1,2.506,2.081,1.534,1.534,0,0,1,4.03,3.6,1.516,1.516,0,0,1,2.506,5.177" transform="translate(1753.649 97.014)" fill="#041a2d"/>
      <path id="Path_125604" data-name="Path 125604" d="M2.869,5.589a1.6,1.6,0,1,1,0-3.191,1.6,1.6,0,1,1,0,3.191" transform="translate(1738.141 111.793)" fill="#041a2d"/>
      <path id="Path_125605" data-name="Path 125605" d="M3.142,5.813A1.586,1.586,0,0,1,1.57,4.241,1.577,1.577,0,0,1,3.142,2.717a1.548,1.548,0,0,1,0,3.1" transform="translate(1722.724 126.666)" fill="#041a2d"/>
      <path id="Path_125606" data-name="Path 125606" d="M1.607,4.487A1.159,1.159,0,0,1,.464,3.344a1.118,1.118,0,0,1,1.143-1.1,1.118,1.118,0,0,1,1.143,1.1A1.159,1.159,0,0,1,1.607,4.487" transform="translate(1777.311 104.846)" fill="#041a2d"/>
      <path id="Path_125607" data-name="Path 125607" d="M2.347,5.653A1.586,1.586,0,0,1,.775,4.082,1.577,1.577,0,0,1,2.347,2.558a1.548,1.548,0,0,1,0,3.1" transform="translate(1761.38 119.253)" fill="#041a2d"/>
      <path id="Path_125608" data-name="Path 125608" d="M.524,3.469a.524.524,0,0,1,0-1.048.524.524,0,0,1,0,1.048" transform="translate(1801.11 112.866)" fill="#041a2d"/>
    </g>
  </g>
</svg>
