<svg width="20" height="20" viewBox="0 0 20 20" fill="none" xmlns="http://www.w3.org/2000/svg">
<path fill-rule="evenodd" clip-rule="evenodd" d="M4.4304 1.07198C4.90264 1.16958 5.27872 1.48686 5.51238 1.90606L6.25672 3.24142C6.53089 3.73326 6.76162 4.14717 6.9123 4.50698C7.07214 4.88866 7.16707 5.26504 7.12367 5.68117C7.08028 6.09731 6.90973 6.44601 6.67459 6.7865C6.45291 7.10748 6.14175 7.46487 5.772 7.88956L3.91545 10.0221C5.38782 12.4354 7.56193 14.6105 9.97773 16.0844L12.1103 14.2278C12.5349 13.8581 12.8923 13.5469 13.2133 13.3252C13.5538 13.0901 13.9025 12.9195 14.3186 12.8761C14.7348 12.8327 15.1112 12.9277 15.4928 13.0875C15.8526 13.2382 16.2666 13.4689 16.7584 13.7431L18.0938 14.4874C18.513 14.7211 18.8302 15.0972 18.9278 15.5694C19.0265 16.0466 18.881 16.5262 18.5597 16.9204C17.3939 18.3507 15.5262 19.2614 13.5669 18.8661C12.3625 18.6232 11.1741 18.2184 9.73689 17.3942C6.8491 15.738 4.25987 13.1474 2.60564 10.2629C1.78138 8.82566 1.37662 7.63734 1.13366 6.43295C0.738416 4.4736 1.64911 2.60587 3.07941 1.44012C3.47361 1.11883 3.95323 0.973354 4.4304 1.07198ZM11.142 16.7281C12.114 17.207 12.9594 17.4684 13.814 17.6408C15.2274 17.9259 16.6543 17.2797 17.5908 16.1307C17.7137 15.9798 17.7145 15.8745 17.7037 15.8224C17.6919 15.7654 17.6442 15.6679 17.4852 15.5793L16.1797 14.8516C15.65 14.5564 15.2974 14.3608 15.01 14.2405C14.7372 14.1263 14.5807 14.1056 14.4483 14.1194C14.3159 14.1332 14.167 14.1857 13.9236 14.3538C13.6673 14.5308 13.3626 14.7949 12.9052 15.1931L11.142 16.7281ZM3.27173 8.8578L4.80671 7.09464C5.20491 6.63726 5.46897 6.33254 5.64603 6.07616C5.8141 5.8328 5.86661 5.68389 5.88041 5.55152C5.89422 5.41916 5.87356 5.26261 5.75932 4.98981C5.63897 4.70242 5.44345 4.34978 5.14819 3.82008L4.42054 2.51465C4.33189 2.35561 4.23441 2.30789 4.17739 2.2961C4.12531 2.28534 4.02 2.28609 3.86914 2.40905C2.72015 3.34552 2.07387 4.7724 2.35898 6.18578C2.53138 7.04043 2.79279 7.88583 3.27173 8.8578Z" fill="white"/>
</svg>
