<svg xmlns="http://www.w3.org/2000/svg" width="19.149" height="19.213" viewBox="0 0 19.149 19.213">
  <g id="PHONEGreen" transform="translate(1.25 -11.403)">
    <path id="Union_11" data-name="Union 11" d="M-4481.747-6822.431a19.316,19.316,0,0,1-5.846-6.482,15.846,15.846,0,0,1-2.4-8.378,3.622,3.622,0,0,1,1.892-3.133,4.747,4.747,0,0,1,2.314-.575,5.581,5.581,0,0,1,1.355.17,2.489,2.489,0,0,1,.9.433,2.5,2.5,0,0,1,.66.749l1.136,1.981a3.173,3.173,0,0,1,.355,2.211,3.175,3.175,0,0,1-1.2,1.9l-.7.531a.669.669,0,0,0-.306.646,4.8,4.8,0,0,0,1.276,2.354.634.634,0,0,0,.658.061l.777-.3a3.147,3.147,0,0,1,1.132-.209,3.12,3.12,0,0,1,1.08.191,3.163,3.163,0,0,1,1.686,1.432l1.114,1.988a2.415,2.415,0,0,1,.3.983,2.428,2.428,0,0,1-.143,1.02,4.814,4.814,0,0,1-2.424,2.73,3.709,3.709,0,0,1-1.555.347A3.655,3.655,0,0,1-4481.747-6822.431Zm-5.542-16.539a1.942,1.942,0,0,0-1.035,1.655l0,.067a14.218,14.218,0,0,0,2.174,7.493,17.69,17.69,0,0,0,5.331,5.937,2.012,2.012,0,0,0,1.133.364,2.06,2.06,0,0,0,.857-.2,3.144,3.144,0,0,0,1.557-1.792.729.729,0,0,0-.048-.609l-1.112-1.99a1.506,1.506,0,0,0-.8-.678,1.514,1.514,0,0,0-1.047.008l-.778.3a2.571,2.571,0,0,1-.912.17,2.113,2.113,0,0,1-1.511-.6,6.5,6.5,0,0,1-1.735-3.176,2.318,2.318,0,0,1,.93-2.345l.7-.529a1.5,1.5,0,0,0,.564-.9,1.5,1.5,0,0,0-.168-1.049l-1.133-1.979a.83.83,0,0,0-.221-.25.811.811,0,0,0-.3-.145,3.825,3.825,0,0,0-.941-.12A3.1,3.1,0,0,0-4487.289-6838.969Zm15.356,8.413a.836.836,0,0,1-.292-.163.834.834,0,0,1-.206-.263.824.824,0,0,1-.084-.318l-.038-.364a9.7,9.7,0,0,0-1.543-4.354,9.734,9.734,0,0,0-3.387-3.144l-.448-.249a.822.822,0,0,1-.4-.5.822.822,0,0,1,.072-.633.829.829,0,0,1,.5-.4.861.861,0,0,1,.229-.032.817.817,0,0,1,.405.106l.448.249a11.376,11.376,0,0,1,3.97,3.685,11.37,11.37,0,0,1,1.811,5.106l.036.362a.846.846,0,0,1-.021.328.829.829,0,0,1-.149.3.79.79,0,0,1-.254.216.8.8,0,0,1-.319.1.739.739,0,0,1-.086,0A.852.852,0,0,1-4471.933-6830.556Zm-2.862-.581a.816.816,0,0,1-.3-.139.832.832,0,0,1-.223-.244.808.808,0,0,1-.11-.307l-.052-.309a6.208,6.208,0,0,0-.987-2.46,6.227,6.227,0,0,0-1.926-1.82l-.146-.087a.868.868,0,0,1-.24-.218.86.86,0,0,1-.139-.3.845.845,0,0,1-.024-.252h-.11l.227-.379a.83.83,0,0,1,.514-.379.9.9,0,0,1,.2-.024.847.847,0,0,1,.431.119l.142.086a7.91,7.91,0,0,1,2.45,2.311,7.905,7.905,0,0,1,1.255,3.125l.05.311a.833.833,0,0,1,0,.326.824.824,0,0,1-.13.3.858.858,0,0,1-.239.229.829.829,0,0,1-.309.117.794.794,0,0,1-.14.012A.8.8,0,0,1-4474.795-6831.137Z" transform="translate(4488.748 6852.403)" fill="#63be6a"/>
  </g>
</svg>
