<svg xmlns="http://www.w3.org/2000/svg" xmlns:xlink="http://www.w3.org/1999/xlink" width="434.062" height="432.989" viewBox="0 0 434.062 432.989">
  <defs>
    <linearGradient id="linear-gradient" x1="0.5" y1="0.74" x2="0.297" y2="0.078" gradientUnits="objectBoundingBox">
      <stop offset="0" stop-color="#fff" stop-opacity="0"/>
      <stop offset="1" stop-color="#63be6a" stop-opacity="0.122"/>
    </linearGradient>
    <linearGradient id="linear-gradient-2" x1="0.5" x2="0.5" y2="1" gradientUnits="objectBoundingBox">
      <stop offset="0" stop-color="#63be6a"/>
      <stop offset="1" stop-color="#63be6a" stop-opacity="0"/>
    </linearGradient>
  </defs>
  <g id="rlceServBlue" transform="translate(124.061 -62.866)">
    <path id="Subtraction_2" data-name="Subtraction 2" d="M199,398a200.38,200.38,0,0,1-40.1-4.044,197.926,197.926,0,0,1-71.161-29.944,199.629,199.629,0,0,1-72.1-87.554A197.678,197.678,0,0,1,4.044,239.1a200.873,200.873,0,0,1,0-80.21A197.819,197.819,0,0,1,33.987,87.736a199.532,199.532,0,0,1,87.554-72.1A197.839,197.839,0,0,1,158.9,4.043a200.93,200.93,0,0,1,80.211,0,197.861,197.861,0,0,1,71.156,29.941,199.576,199.576,0,0,1,72.1,87.555,197.665,197.665,0,0,1,11.593,37.355,200.771,200.771,0,0,1,0,80.21,197.855,197.855,0,0,1-29.94,71.156,199.595,199.595,0,0,1-87.552,72.1,198,198,0,0,1-37.355,11.6A200.416,200.416,0,0,1,199,398Zm.672-310.308A111.981,111.981,0,1,0,311.654,199.673,112.1,112.1,0,0,0,199.672,87.692Z" transform="translate(-106.032 80.36)" fill="url(#linear-gradient)"/>
    <path id="Ellipse_212" data-name="Ellipse 212" d="M217.031,1.074a218.08,218.08,0,0,0-43.524,4.377,215.407,215.407,0,0,0,0,422.087,218.6,218.6,0,0,0,87.049,0,215.407,215.407,0,0,0,0-422.087,218.08,218.08,0,0,0-43.524-4.377m0-1.074C336.894,0,434.062,96.928,434.062,216.494S336.894,432.989,217.031,432.989,0,336.061,0,216.494,97.168,0,217.031,0Z" transform="translate(-124.061 62.866)" opacity="0.17" fill="url(#linear-gradient-2)"/>
  </g>
</svg>
