<svg width="41" height="68" viewBox="0 0 41 68" fill="none" xmlns="http://www.w3.org/2000/svg">
<g clip-path="url(#clip0_808_548)">
<path d="M25.5961 60.261C19.1333 52.5303 9.99062 47.5239 -0.00390625 46.243C-0.00390625 46.243 11.7811 43.475 27.1381 58.474C27.1381 58.474 29.8621 55.709 32.2271 57.267C32.5411 57.58 31.1091 58.116 30.1751 59.457C29.2411 60.798 29.0151 61.064 30.6641 62.224C32.0961 63.208 31.8511 63.208 32.6541 63.117C33.156 62.9642 33.6962 62.9975 34.1756 63.2107C34.655 63.424 35.0415 63.8029 35.2641 64.278C35.3868 64.5822 35.4372 64.9107 35.4113 65.2376C35.3855 65.5646 35.2841 65.8811 35.1151 66.1623C34.9462 66.4434 34.7142 66.6814 34.4376 66.8577C34.161 67.034 33.8473 67.1436 33.5211 67.178C32.2471 67.426 30.7751 66.039 30.1311 65.278C29.355 64.356 28.4699 63.5316 27.4951 62.823C27.2511 62.823 26.4681 63.515 25.8881 63.716C25.3081 63.917 24.1281 63.894 23.9271 62.845C23.7261 61.796 25.5961 60.261 25.5961 60.261Z" fill="#46C752"/>
<path d="M15.2843 60.261C21.747 52.5303 30.8897 47.5239 40.8842 46.243C40.8842 46.243 29.0972 43.475 13.7402 58.474C13.7402 58.474 11.0163 55.709 8.65025 57.267C8.33825 57.58 9.76825 58.116 10.7043 59.457C11.6403 60.798 11.8663 61.064 10.2153 62.224C8.78725 63.208 9.03225 63.208 8.23025 63.117C7.72775 62.964 7.18695 62.9971 6.70689 63.2103C6.22683 63.4236 5.83965 63.8026 5.61625 64.278C5.49356 64.5822 5.44314 64.9107 5.46899 65.2376C5.49484 65.5646 5.59623 65.8811 5.7652 66.1623C5.93416 66.4434 6.16609 66.6814 6.4427 66.8577C6.71931 67.034 7.03306 67.1436 7.35925 67.178C8.63225 67.426 10.1052 66.039 10.7502 65.278C11.5257 64.3557 12.4105 63.5313 13.3853 62.823C13.6323 62.823 14.4122 63.515 14.9922 63.716C15.5722 63.917 16.7563 63.894 16.9583 62.845C17.1603 61.796 15.2843 60.261 15.2843 60.261Z" fill="#46C752"/>
<path d="M34.0399 17.414C33.5005 16.5769 32.7767 15.8742 31.9239 15.36L32.4519 14.96C31.7596 14.2729 30.8729 13.8153 29.9119 13.649L31.0989 13.205C29.7316 12.3844 28.1409 12.0146 26.5519 12.148L26.4869 11.534L25.5539 11.301C26.5181 11.1329 27.5016 11.1049 28.4739 11.218V10.772C29.1853 10.7685 29.8906 10.9044 30.5499 11.172L30.5279 10.683C30.5279 10.683 32.4529 11.147 32.8529 11.72V11.214C32.8529 11.214 35.5429 11.255 36.7279 12.144C36.1597 11.2759 35.3711 10.5743 34.4429 10.111L34.8429 9.604C33.8338 9.1605 32.7249 8.99312 31.6299 9.119L32.0779 8.249C31.0299 8.15423 29.9735 8.25597 28.9629 8.549L29.0729 7.849C27.6451 7.98039 26.2423 8.3078 24.9039 8.822L25.0039 8.249L24.2219 8.271C24.98 7.60328 25.8764 7.11153 26.8469 6.831L26.7179 6.556C27.5092 6.27613 28.3367 6.11145 29.1749 6.067L28.9409 5.623C29.8166 5.49522 30.7062 5.49522 31.5819 5.623L31.3719 5.179C32.1147 4.84799 32.909 4.64739 33.7199 4.586C32.9999 4.2572 32.2258 4.06332 31.4359 4.014L31.6459 3.652C30.6135 3.62047 29.5832 3.76417 28.5989 4.077L28.4699 3.506C27.6608 3.81704 26.8879 4.21505 26.1649 4.693L26.0649 4.015C25.1972 4.5807 24.4373 5.29657 23.8209 6.129L23.2279 5.854C23.2279 5.854 21.8949 6.554 21.6629 7.187C21.6629 7.187 21.4529 6.973 22.2339 6C23.0149 5.027 23.2509 4.941 23.2509 4.941L23.0929 4.402C23.0929 4.402 24.1709 3.702 24.6459 3.482L24.4519 3.23C25.0207 2.84126 25.6563 2.56058 26.3269 2.402L26.1659 2.053C26.6181 1.35832 27.3059 0.850194 28.1029 0.622002C27.3747 0.457252 26.6129 0.530871 25.9299 0.832001L25.9139 0.5C25.9139 0.5 24.2139 0.832001 23.7739 1.707L23.5019 1.326C22.9059 1.75955 22.4089 2.31482 22.0439 2.955L21.5839 2.555C21.0508 3.20536 20.6616 3.96129 20.4419 4.773C20.2235 3.96118 19.8349 3.20512 19.3019 2.555L18.8409 2.955C18.4752 2.31741 17.9778 1.76513 17.3819 1.335L17.1139 1.716C16.6689 0.841 14.9709 0.508999 14.9709 0.508999L14.9559 0.841C14.2719 0.541647 13.5104 0.468088 12.7819 0.631001C13.5781 0.859015 14.265 1.36727 14.7159 2.062L14.5579 2.411C15.2278 2.56953 15.8627 2.85022 16.4309 3.239L16.2409 3.491C16.7159 3.715 17.7939 4.411 17.7939 4.411L17.6349 4.95C17.6349 4.95 17.8689 5.035 18.6519 6.009C19.4349 6.983 19.2229 7.196 19.2229 7.196C18.9899 6.56 17.6569 5.863 17.6569 5.863L17.0649 6.138C16.4486 5.30652 15.6898 4.5908 14.8239 4.024L14.7159 4.702C13.9932 4.22331 13.2203 3.82527 12.4109 3.515L12.2849 4.086C11.3008 3.77336 10.2709 3.62966 9.23886 3.661L9.44885 4.023C8.65869 4.07208 7.88423 4.26562 7.16386 4.594C7.97506 4.65563 8.76962 4.85622 9.51286 5.187L9.30286 5.631C10.1796 5.50315 11.0702 5.50315 11.9469 5.631L11.7139 6.075C12.551 6.11983 13.3775 6.2845 14.1679 6.564L14.0419 6.839C15.0111 7.12043 15.9063 7.6121 16.6639 8.279L15.8819 8.257L15.9819 8.83C14.6439 8.31278 13.241 7.98266 11.8129 7.849L11.9129 8.549C10.9044 8.25572 9.84984 8.15397 8.80386 8.249L9.24786 9.119C8.15282 8.9937 7.04413 9.16105 6.03487 9.604L6.43486 10.111C5.50679 10.5739 4.71877 11.2756 4.15186 12.144C5.33486 11.255 8.02386 11.214 8.02386 11.214V11.714C8.42386 11.141 10.3489 10.677 10.3489 10.677L10.3289 11.166C10.9867 10.8983 11.6907 10.7624 12.4009 10.766V11.214C13.3734 11.1008 14.3573 11.1287 15.3219 11.297L14.3889 11.53L14.3249 12.144C12.7358 12.0101 11.1449 12.3799 9.77786 13.201L10.9649 13.645C10.004 13.8117 9.11738 14.2693 8.42487 14.956L8.95287 15.356C8.10309 15.8724 7.38272 16.5764 6.84686 17.414L7.52486 17.582C7.08377 18.3016 6.81034 19.1113 6.72485 19.951C7.25306 19.2386 8.0059 18.725 8.86186 18.493L9.16187 18.912C9.39471 17.958 9.919 17.1003 10.6619 16.458L11.3399 16.584C11.6413 16.0834 12.0365 15.6458 12.5039 15.295L12.8209 15.57C13.1156 15.2454 13.5037 15.0202 13.9317 14.9255C14.3598 14.8307 14.8067 14.8711 15.2109 15.041C14.0764 15.2807 13.0469 15.8733 12.2699 16.734L13.1779 17.051C12.2799 17.5295 11.5551 18.2781 11.1059 19.191L11.5949 19.614C11.072 20.3576 10.7512 21.2242 10.6639 22.129L11.1529 22.256C11.0135 23.0707 11.0356 23.9048 11.2179 24.711C11.4287 23.8972 11.8266 23.1439 12.3799 22.511L13.1199 22.763C13.0197 22.1903 12.9982 21.6066 13.0559 21.028L13.5629 21.197C13.5199 20.86 13.5199 20.119 13.5199 20.119L14.1769 20.098C14.2014 19.7126 14.3231 19.3398 14.5306 19.0142C14.7382 18.6886 15.0249 18.4209 15.3639 18.236C14.928 18.7638 14.6237 19.3876 14.4759 20.056L15.0659 20.224C14.7081 20.9256 14.5203 21.7015 14.5179 22.489L14.9619 22.448C14.8857 23.3724 14.9192 24.3025 15.0619 25.219L15.6339 24.919C15.9421 25.7298 16.4193 26.4658 17.0339 27.078C16.8092 26.2432 16.7592 25.371 16.8869 24.516L17.4359 24.686C17.1688 23.9242 17.0273 23.1241 17.0169 22.317L17.4359 22.445C17.2786 21.5498 17.3293 20.6305 17.5839 19.758L18.0499 20.01C18.0592 19.2591 18.1658 18.5126 18.3669 17.789H19.0009C18.9885 17.579 19.0593 17.3726 19.198 17.2145C19.3367 17.0563 19.5321 16.9591 19.7419 16.944L18.9969 44.455C16.3969 45.788 16.1109 46.963 16.1109 46.963H24.7729C24.7729 46.963 24.4939 45.788 21.8879 44.455L21.1569 16.943C21.3665 16.9584 21.5616 17.0557 21.7001 17.2138C21.8386 17.3719 21.9093 17.5782 21.8969 17.788H22.5319C22.7317 18.5134 22.8372 19.2616 22.8459 20.014L23.3109 19.762C23.5669 20.6342 23.6182 21.5537 23.4609 22.449L23.8799 22.321C23.8677 23.128 23.7262 23.9278 23.4609 24.69L24.0089 24.52C24.1373 25.3749 24.088 26.2471 23.8639 27.082C24.4775 26.469 24.9546 25.7333 25.2639 24.923L25.8349 25.223C25.9775 24.3065 26.011 23.3764 25.9349 22.452L26.3769 22.493C26.3735 21.7057 26.1862 20.9301 25.8299 20.228L26.4229 20.06C26.2746 19.3916 25.9699 18.7679 25.5339 18.24C25.8721 18.4253 26.1579 18.6932 26.3646 19.0188C26.5713 19.3444 26.6922 19.7171 26.7159 20.102L27.3709 20.123C27.3709 20.123 27.3709 20.864 27.3299 21.201L27.8369 21.032C27.8955 21.6103 27.8756 22.194 27.7779 22.767L28.5149 22.515C29.069 23.1479 29.4682 23.9011 29.6809 24.715C29.8618 23.9086 29.8836 23.0747 29.7449 22.26L30.2299 22.133C30.1436 21.2264 29.822 20.3581 29.2969 19.614L29.7859 19.191C29.3367 18.2783 28.6123 17.5298 27.7149 17.051L28.6229 16.734C27.8464 15.8721 26.8162 15.2793 25.6809 15.041C26.0856 14.8709 26.5332 14.8305 26.9619 14.9252C27.3906 15.0199 27.7794 15.2452 28.0749 15.57L28.3879 15.295C28.8557 15.6446 29.2504 16.0826 29.5499 16.584L30.2299 16.458C30.9723 17.1006 31.4965 17.9582 31.7299 18.912L32.0249 18.493C32.8809 18.7254 33.6339 19.2389 34.1629 19.951C34.0768 19.1114 33.8034 18.3019 33.3629 17.582L34.0399 17.414Z" fill="#005D45"/>
</g>
<defs>
<clipPath id="clip0_808_548">
<rect width="40.88" height="66.709" fill="white" transform="translate(0 0.5)"/>
</clipPath>
</defs>
</svg>
