<svg width="73" height="67" viewBox="0 0 73 67" fill="none" xmlns="http://www.w3.org/2000/svg">
<g clip-path="url(#clip0_808_567)">
<path opacity="0.2" d="M51.1973 1.83704H21.1973V64.837H51.1973V1.83704Z" fill="#46C752"/>
<path fill-rule="evenodd" clip-rule="evenodd" d="M70.307 60.049H68.393V24.4611C68.3919 24.2453 68.3482 24.0318 68.2645 23.8329C68.1807 23.6341 68.0586 23.4537 67.905 23.3021L56.676 12.002C56.5616 11.8805 56.4242 11.783 56.2719 11.7149C56.1195 11.6469 55.9551 11.6097 55.7882 11.6056C55.6214 11.6015 55.4554 11.6305 55.2998 11.691C55.1443 11.7515 55.0023 11.8423 54.882 11.9581C54.7598 12.0755 54.6621 12.2161 54.5946 12.3716C54.5271 12.5272 54.4913 12.6945 54.489 12.864V60.053H51.171V2.89807C51.1719 2.78055 51.1497 2.66395 51.1055 2.55505C51.0613 2.44616 50.996 2.3471 50.9134 2.26349C50.8308 2.17988 50.7325 2.11336 50.6241 2.06781C50.5158 2.02226 50.3996 1.99857 50.282 1.99805H22.412C22.1756 2.00042 21.9497 2.09653 21.7839 2.26526C21.6182 2.43399 21.5261 2.66157 21.528 2.89807V60.049H18.211V12.86C18.2136 12.6927 18.1833 12.5264 18.1216 12.3707C18.06 12.2151 17.9683 12.0731 17.8517 11.9529C17.7352 11.8328 17.5961 11.7367 17.4424 11.6703C17.2887 11.604 17.1234 11.5685 16.9561 11.566C16.7801 11.5631 16.6055 11.5972 16.4435 11.6661C16.2816 11.735 16.136 11.8373 16.0161 11.9661L4.78705 23.2661C4.48173 23.5737 4.31058 23.9896 4.31104 24.423V60.041H2.39801C2.15932 60.041 1.93044 60.1358 1.76166 60.3046C1.59287 60.4734 1.49805 60.7023 1.49805 60.941V63.765C1.49805 64.0037 1.59287 64.2326 1.76166 64.4014C1.93044 64.5702 2.15932 64.665 2.39801 64.665H70.307C70.4247 64.6646 70.5411 64.6411 70.6496 64.5956C70.7581 64.5501 70.8566 64.4836 70.9394 64.4C71.0222 64.3164 71.0876 64.2173 71.132 64.1083C71.1764 63.9994 71.1988 63.8827 71.198 63.765V60.965C71.2 60.8463 71.1785 60.7284 71.1347 60.6181C71.0909 60.5078 71.0257 60.4072 70.9429 60.3221C70.8601 60.2371 70.7613 60.1693 70.6522 60.1226C70.543 60.0759 70.4257 60.0512 70.307 60.05V60.049Z" stroke="#005D45" stroke-width="3" stroke-linejoin="round"/>
<path fill-rule="evenodd" clip-rule="evenodd" d="M45.6354 57.0397L42.8307 57.0397C42.346 57.0303 41.9586 56.6333 41.9613 56.1487L41.9616 53.3242C41.9546 52.8365 42.3429 52.435 42.8307 52.4257L45.6305 52.4259C45.8659 52.4263 46.0914 52.5206 46.2573 52.6879C46.4231 52.855 46.5155 53.0814 46.5142 53.3168V56.1485L46.5191 56.1487C46.5205 56.6384 46.1251 57.0371 45.6354 57.0397ZM37.7529 57.0397L34.9482 57.0397C34.4584 57.0371 34.0631 56.6385 34.0644 56.1487L34.0646 53.3242C34.0593 52.8345 34.4512 52.4328 34.9409 52.426L37.7531 52.4259C37.9885 52.4263 38.2141 52.5206 38.3799 52.6879C38.5457 52.855 38.6381 53.0814 38.6367 53.3168V56.1487C38.6381 56.6385 38.2428 57.0371 37.7529 57.0397ZM29.856 57.0397L27.0538 57.0397C26.5638 57.0371 26.1686 56.6384 26.1699 56.1487L26.17 53.3242C26.1661 52.835 26.5573 52.4339 27.0465 52.4259H29.8732C30.1086 52.4299 30.3326 52.5274 30.4958 52.697C30.6589 52.8665 30.7477 53.0941 30.7426 53.3292L30.7423 56.1487H30.7398C30.741 56.6384 30.3457 57.0371 29.856 57.0397ZM42.8307 49.4283C42.3437 49.4203 41.955 49.0195 41.9619 48.5324L41.9616 45.7055C41.96 45.216 42.3558 44.8181 42.8452 44.8168L45.65 44.817C46.137 44.825 46.5258 45.2258 46.5189 45.7128L46.5191 48.5397C46.5205 49.029 46.1247 49.4269 45.6354 49.4282L42.8307 49.4283ZM34.9482 49.4283C34.4587 49.4269 34.063 49.029 34.0644 48.5395L34.0646 45.7128C34.063 45.2234 34.4587 44.8255 34.9482 44.8243H37.7531C38.2425 44.8255 38.6382 45.2234 38.6367 45.7128V48.5397C38.6382 49.029 38.2425 49.4269 37.7531 49.4282L34.9482 49.4283ZM27.0538 49.4283C26.5643 49.4269 26.1686 49.029 26.17 48.5395V45.7128C26.1686 45.2235 26.5642 44.8256 27.0535 44.8243H29.8585C30.348 44.8256 30.7435 45.2235 30.742 45.7128L30.7398 48.5397C30.7412 49.029 30.3455 49.4269 29.8562 49.4282L27.0538 49.4283ZM45.6428 41.8266H42.8307C42.5955 41.8229 42.3714 41.7253 42.2082 41.5558C42.0451 41.3864 41.9563 41.1588 41.9616 40.9235V38.0966C41.96 37.6067 42.3554 37.208 42.8451 37.2054L45.65 37.2057C46.1398 37.208 46.535 37.6067 46.5337 38.0964L46.5191 40.9307C46.5224 41.1661 46.4318 41.3928 46.2673 41.5611C46.1028 41.7291 45.878 41.8248 45.6428 41.8266ZM37.7606 41.8266H34.9482C34.7128 41.8261 34.4872 41.7318 34.3214 41.5646C34.1556 41.3974 34.0631 41.1713 34.0644 40.9357L34.0646 38.1114C34.0594 37.8763 34.1482 37.6487 34.3113 37.479C34.4745 37.3094 34.6984 37.212 34.9337 37.2082H37.7532C38.2429 37.2108 38.6384 37.6094 38.6371 38.0992L38.6368 40.9333L38.6367 40.9307C38.64 41.1661 38.5494 41.3928 38.385 41.5611C38.2204 41.7291 37.9956 41.8248 37.7606 41.8266ZM29.8707 41.8266H27.0781C26.8427 41.8261 26.6173 41.7318 26.4513 41.5646C26.2857 41.3974 26.1932 41.1713 26.1945 40.9357V38.1114C26.1932 37.8758 26.2857 37.6497 26.4513 37.4825C26.6173 37.3152 26.8427 37.221 27.0781 37.2205H29.8829C30.3647 37.2299 30.7507 37.6222 30.7518 38.1041L30.7521 40.931L30.7398 40.9307C30.7467 41.418 30.3579 41.8188 29.8707 41.8266ZM45.6354 34.2031H42.8307C42.3437 34.1953 41.955 33.7945 41.9619 33.3074L41.9616 30.5244C41.9603 30.2888 42.0526 30.0625 42.2184 29.8953C42.3842 29.7281 42.6098 29.6339 42.8452 29.6332L45.65 29.6333C46.1345 29.6426 46.5217 30.0397 46.5189 30.5244L46.5191 33.3146C46.5205 33.8038 46.1249 34.2018 45.6354 34.2031ZM37.7531 34.2031H34.9482C34.4587 34.2019 34.063 33.804 34.0644 33.3146L34.0646 30.5244C34.0425 30.0344 34.4216 29.6191 34.9117 29.5966L37.7531 29.5967C37.9885 29.5973 38.2141 29.6917 38.3799 29.8588C38.5455 30.0259 38.6381 30.2521 38.6367 30.4877V33.3146C38.6382 33.804 38.2425 34.2019 37.7531 34.2031ZM29.8562 34.2031H27.0538C26.5642 34.2018 26.1686 33.8038 26.17 33.3146V30.5244C26.1687 30.2888 26.2611 30.0625 26.4269 29.8953C26.5928 29.7281 26.8181 29.6339 27.0535 29.6332L29.8585 29.6333C30.0939 29.6339 30.3193 29.7281 30.4852 29.8953C30.651 30.0625 30.7434 30.2888 30.742 30.5242L30.7423 33.3146H30.7398C30.7412 33.8038 30.3456 34.2018 29.8562 34.2031ZM45.6354 26.5942H42.8307C42.3437 26.5862 41.955 26.1855 41.9619 25.6983L41.9616 22.8836C41.9587 22.3929 42.3543 21.9927 42.8451 21.9901L45.65 21.9902C46.1408 21.9927 46.5364 22.3929 46.5337 22.8835L46.5191 25.7056C46.5205 26.195 46.1247 26.5928 45.6354 26.5942ZM29.8562 26.5942H27.0538C26.5643 26.5928 26.1686 26.195 26.17 25.7056V22.8836C26.1679 22.6478 26.2603 22.4208 26.4261 22.253C26.5919 22.0854 26.8177 21.9906 27.0535 21.9901L29.8585 21.9902C30.0944 21.9906 30.3203 22.0854 30.4861 22.253C30.6519 22.4208 30.7442 22.6478 30.742 22.8836L30.7423 25.708L30.7398 25.7056C30.7412 26.195 30.3455 26.5928 29.8562 26.5942ZM34.9482 26.587C34.4587 26.5855 34.063 26.1876 34.0644 25.6982L34.0646 22.8836C34.0618 22.3927 34.4575 21.9927 34.9482 21.9901L37.7531 21.9902C38.2437 21.9927 38.6395 22.3927 38.6367 22.8835V25.7153V25.7056C38.6341 26.1921 38.2396 26.5855 37.7531 26.5867L34.9482 26.587ZM45.6354 18.9853H42.8307C42.5955 18.9817 42.3714 18.8842 42.2082 18.7145C42.0451 18.545 41.9563 18.3173 41.9616 18.0822V15.2552C41.96 14.7655 42.3554 14.3669 42.8451 14.3643H45.65C46.1369 14.3749 46.5246 14.7753 46.5191 15.2625V18.0944C46.5202 18.3297 46.4279 18.556 46.2621 18.7233C46.0963 18.8904 45.8708 18.9847 45.6354 18.9853ZM29.8562 18.9853H27.0538C26.8181 18.9847 26.5928 18.8904 26.4269 18.7233C26.2611 18.556 26.1687 18.3297 26.17 18.0944V15.27C26.1687 15.0345 26.2611 14.8082 26.4269 14.6411C26.5928 14.4739 26.8181 14.3796 27.0535 14.379H29.8585C30.3459 14.3803 30.7407 14.7752 30.742 15.2625L30.7423 18.0944H30.7398C30.741 18.3297 30.6486 18.556 30.4828 18.7233C30.317 18.8904 30.0916 18.9847 29.8562 18.9853ZM37.7529 18.9804H34.9482C34.4575 18.9777 34.0618 18.5776 34.0644 18.0868L34.0646 15.2625C34.0631 15.0271 34.1555 14.8008 34.3214 14.6337C34.4872 14.4665 34.7128 14.3721 34.9482 14.3716H37.7531C37.9885 14.3721 38.2141 14.4665 38.3799 14.6337C38.5457 14.8008 38.6381 15.0271 38.6367 15.2625V18.0944C38.6354 18.5821 38.2408 18.9777 37.7529 18.9804ZM45.6354 11.374H42.8307C42.5953 11.3708 42.371 11.2736 42.2076 11.1038C42.0444 10.9341 41.9559 10.7062 41.9617 10.4708L41.9616 7.64648C41.9603 7.41083 42.0528 7.18469 42.2184 7.01758C42.3842 6.85034 42.6098 6.75604 42.8452 6.75549H45.65C45.8854 6.75604 46.111 6.85034 46.2769 7.01758C46.4424 7.18469 46.535 7.41083 46.5337 7.64648L46.5191 10.4854C46.5205 10.9748 46.1247 11.3726 45.6354 11.374ZM29.8562 11.374H27.0538C26.5643 11.3726 26.1686 10.9748 26.17 10.4854V7.65851C26.1686 7.16876 26.5638 6.77026 27.0535 6.76752H29.8585C30.3463 6.77026 30.7407 7.16559 30.7423 7.65356L30.7398 10.4854C30.7412 10.9748 30.3455 11.3726 29.8562 11.374ZM34.9482 11.3617C34.7128 11.361 34.4872 11.2667 34.3214 11.0995C34.1556 10.9324 34.0631 10.7062 34.0644 10.4706L34.0646 7.64648C34.0631 7.41083 34.1556 7.18469 34.3214 7.01758C34.4872 6.85034 34.7128 6.75604 34.9482 6.75549H37.7531C37.9885 6.75604 38.2141 6.85034 38.3799 7.01758C38.5455 7.18469 38.6381 7.41083 38.6367 7.64648V10.4855C38.6314 10.9699 38.2378 11.3604 37.7531 11.3616L34.9482 11.3617Z" fill="#46C752"/>
<path d="M58.5142 36.978H64.1142" stroke="#46C752" stroke-width="3" stroke-miterlimit="10" stroke-linecap="round" stroke-linejoin="round"/>
<path d="M8.51416 36.978H14.1142" stroke="#46C752" stroke-width="3" stroke-miterlimit="10" stroke-linecap="round" stroke-linejoin="round"/>
<path d="M58.5142 46.359H64.1142" stroke="#46C752" stroke-width="3" stroke-miterlimit="10" stroke-linecap="round" stroke-linejoin="round"/>
<path d="M8.51416 46.359H14.1142" stroke="#46C752" stroke-width="3" stroke-miterlimit="10" stroke-linecap="round" stroke-linejoin="round"/>
</g>
<defs>
<clipPath id="clip0_808_567">
<rect width="72.699" height="65.675" fill="white" transform="translate(0 0.5)"/>
</clipPath>
</defs>
</svg>
