<svg width="92" height="93" viewBox="0 0 92 93" fill="none" xmlns="http://www.w3.org/2000/svg">
<g clip-path="url(#clip0_808_528)">
<path opacity="0.2" d="M46.3659 52.5C51.1901 52.5 55.1009 48.2467 55.1009 43C55.1009 37.7533 51.1901 33.5 46.3659 33.5C41.5417 33.5 37.6309 37.7533 37.6309 43C37.6309 48.2467 41.5417 52.5 46.3659 52.5Z" fill="#46C752"/>
<path d="M46.3659 51C50.3616 51 53.6009 47.4183 53.6009 43C53.6009 38.5817 50.3616 35 46.3659 35C42.3701 35 39.1309 38.5817 39.1309 43C39.1309 47.4183 42.3701 51 46.3659 51Z" stroke="#46C752" stroke-width="3"/>
<path opacity="0.2" d="M56.9402 59.819C54.6932 59.684 35.2682 59.819 35.2682 59.819C34.4786 60.0359 33.7728 60.486 33.2431 61.1104C32.7134 61.7349 32.3845 62.5046 32.2992 63.319C32.0522 66.145 32.2992 72.066 32.9182 72.873C33.5372 73.68 37.8672 78.525 46.4042 78.121C54.9412 77.717 59.1482 74.757 60.0142 72.873C60.8802 70.989 60.8802 63.184 60.0142 61.973C59.1482 60.762 59.1872 59.954 56.9402 59.819Z" fill="#46C752"/>
<path d="M63.8351 32C67.8309 32 71.0701 28.4183 71.0701 24C71.0701 19.5817 67.8309 16 63.8351 16C59.8393 16 56.6001 19.5817 56.6001 24C56.6001 28.4183 59.8393 32 63.8351 32Z" stroke="#005D45" stroke-width="3"/>
<path d="M59.7261 41.4H75.334C75.334 41.4 80.734 41.552 80.797 49.447C80.86 57.342 75.334 57.494 75.334 57.494L63.701 57.5439" stroke="#005D45" stroke-width="3" stroke-linecap="round"/>
<path d="M28.9621 32C32.9578 32 36.1971 28.4183 36.1971 24C36.1971 19.5817 32.9578 16 28.9621 16C24.9663 16 21.7271 19.5817 21.7271 24C21.7271 28.4183 24.9663 32 28.9621 32Z" stroke="#005D45" stroke-width="3"/>
<path d="M33.0701 41.4H17.4621C17.4621 41.4 12.0621 41.552 11.9991 49.447C11.9361 57.342 17.4621 57.494 17.4621 57.494L29.0951 57.5439" stroke="#005D45" stroke-width="3" stroke-linecap="round"/>
<path d="M58.0743 60.131H34.3193C34.3193 60.131 31.3773 60.37 31.5923 67.855C31.5817 69.8556 32.2668 71.7978 33.5303 73.349C37.0629 76.4972 41.65 78.2024 46.3813 78.126C51.0641 77.9552 55.5673 76.2801 59.2233 73.349C60.544 71.8346 61.2145 69.8605 61.0893 67.855C61.0893 59.733 58.0743 60.131 58.0743 60.131Z" stroke="#46C752" stroke-width="3"/>
</g>
<defs>
<clipPath id="clip0_808_528">
<rect width="92" height="92" fill="white" transform="translate(0 0.5)"/>
</clipPath>
</defs>
</svg>
