<svg width="18" height="12" viewBox="0 0 18 12" fill="none" xmlns="http://www.w3.org/2000/svg">
<path d="M0.25 5.99975C0.250003 6.37331 0.415654 6.71987 0.572519 6.9801C0.741796 7.26092 0.969444 7.55085 1.21918 7.83352C1.72018 8.40059 2.37387 9.00958 3.00824 9.56044C3.64633 10.1145 4.28222 10.6248 4.75725 10.9955C4.99516 11.1812 5.19364 11.3327 5.33304 11.438C5.40276 11.4906 5.45776 11.5318 5.49558 11.56L5.53915 11.5924L5.55071 11.601L5.55472 11.6039C5.88822 11.8496 6.35816 11.7787 6.60382 11.4452C6.84947 11.1117 6.77828 10.6422 6.44482 10.3965L6.43209 10.3871L6.39204 10.3574C6.35662 10.331 6.3042 10.2917 6.2372 10.2411C6.10317 10.1399 5.91103 9.99326 5.68019 9.81309C5.21772 9.45212 4.60363 8.95922 3.99173 8.42787C3.37611 7.89328 2.77981 7.33445 2.34331 6.84038C2.3157 6.80913 2.28899 6.77842 2.26316 6.74826L17 6.74826C17.4142 6.74826 17.75 6.41247 17.75 5.99826C17.75 5.58405 17.4142 5.24826 17 5.24826L2.2657 5.24826C2.29073 5.21906 2.31661 5.18933 2.34331 5.1591C2.77981 4.66503 3.37611 4.10621 3.99173 3.57162C4.60363 3.04026 5.21772 2.54737 5.68019 2.1864C5.91102 2.00622 6.10317 1.85963 6.2372 1.75838C6.30419 1.70776 6.35662 1.66852 6.39203 1.64212L6.43208 1.61235L6.44481 1.60294C6.77828 1.35727 6.84947 0.887789 6.60382 0.554302C6.35815 0.2208 5.88822 0.14991 5.55472 0.395572L5.55071 0.398532L5.53915 0.407085L5.49558 0.43947C5.45776 0.467665 5.40276 0.508837 5.33304 0.561506C5.19363 0.666818 4.99516 0.818254 4.75725 1.00395C4.28222 1.37472 3.64633 1.88494 3.00823 2.43904C2.37387 2.98991 1.72018 3.59889 1.21918 4.16596C0.969444 4.44864 0.741796 4.73857 0.572519 5.01938C0.416597 5.27805 0.251992 5.62203 0.250017 5.99302" fill="#54C08A"/>
</svg>
