<svg width="82" height="61" viewBox="0 0 82 61" fill="none" xmlns="http://www.w3.org/2000/svg">
<g clip-path="url(#clip0_808_556)">
<path d="M70.7969 29.553C70.9371 29.6231 71.0897 29.6648 71.2461 29.6759C71.4024 29.687 71.5594 29.6672 71.708 29.6176C71.8567 29.568 71.9941 29.4896 72.1125 29.3869C72.2309 29.2842 72.3279 29.1592 72.3979 29.019C72.468 28.8788 72.5098 28.7262 72.5208 28.5699C72.5319 28.4135 72.5121 28.2566 72.4625 28.1079C72.4129 27.9592 72.3345 27.8218 72.2318 27.7034C72.1291 27.5851 72.0041 27.4881 71.8639 27.418C69.0919 26.033 63.8949 26.018 63.6749 26.018C63.3585 26.018 63.0551 26.1437 62.8314 26.3674C62.6076 26.5912 62.4819 26.8946 62.4819 27.211C62.4819 27.5274 62.6076 27.8308 62.8314 28.0546C63.0551 28.2783 63.3585 28.404 63.6749 28.404C65.0169 28.402 68.9109 28.609 70.7969 29.553Z" fill="#46C752"/>
<path d="M77.813 44.408L72.885 42.995C72.7811 42.9649 72.6898 42.902 72.6247 42.8156C72.5596 42.7293 72.5243 42.6241 72.524 42.516V40.867C72.9294 40.5869 73.311 40.2738 73.665 39.931C74.5182 39.1087 75.196 38.1221 75.6576 37.0308C76.1193 35.9394 76.3551 34.7659 76.351 33.581V31.312L76.828 30.359C77.3526 29.3069 77.6264 28.1476 77.628 26.972V20.832C77.6289 20.6747 77.5987 20.5187 77.5391 20.3731C77.4795 20.2275 77.3917 20.0951 77.2807 19.9835C77.1697 19.872 77.0378 19.7835 76.8925 19.7232C76.7472 19.6629 76.5914 19.6319 76.434 19.632H64.952C62.9445 19.6344 61.0199 20.4329 59.6004 21.8524C58.1809 23.2719 57.3824 25.1965 57.38 27.204V27.275C57.3813 28.2524 57.6089 29.2163 58.045 30.091L58.656 31.313V33.262C58.6555 34.7297 59.002 36.1767 59.6673 37.485C60.3326 38.7933 61.2977 39.9258 62.484 40.79V42.517C62.484 42.783 62.484 42.893 61.499 43.175L59.099 43.862L52.144 41.333C52.1573 41.1656 52.135 40.9973 52.0786 40.8391C52.0223 40.6809 51.9331 40.5363 51.817 40.415L49.595 38.08V34.16C49.831 33.966 50.061 33.767 50.286 33.56C51.6763 32.2533 52.7848 30.6763 53.5435 28.9257C54.3022 27.1751 54.6951 25.2879 54.698 23.38V20.25C55.5409 18.4326 55.9777 16.4533 55.978 14.45V1.693C55.978 1.3766 55.8523 1.07315 55.6286 0.849419C55.4049 0.625688 55.1014 0.5 54.785 0.5H36.915C33.8926 0.503441 30.995 1.70561 28.8578 3.84278C26.7206 5.97995 25.5185 8.87759 25.515 11.9V14.451C25.5141 16.4541 25.9496 18.4333 26.791 20.251V22.944C26.7836 25.0577 27.2359 27.1477 28.1165 29.0692C28.9971 30.9907 30.2851 32.6977 31.891 34.072V38.084L29.673 40.42C29.5578 40.5411 29.4693 40.685 29.4133 40.8424C29.3573 40.9999 29.3351 41.1674 29.348 41.334L22.006 44.003C21.4821 44.1938 20.986 44.4538 20.531 44.776L19.379 44.2C21.2699 43.5061 22.8774 42.2049 23.95 40.5C24.0329 40.3344 24.0761 40.1517 24.0761 39.9665C24.0761 39.7813 24.0329 39.5986 23.95 39.433C23.086 37.712 22.985 34.56 22.902 32.025C22.875 31.182 22.848 30.384 22.802 29.675C22.395 23.952 18.045 19.636 12.681 19.636C7.31701 19.636 2.96401 23.956 2.55801 29.677C2.50801 30.384 2.47901 31.183 2.45801 32.027C2.37401 34.56 2.27001 37.714 1.41001 39.434C1.32719 39.5996 1.28408 39.7823 1.28408 39.9675C1.28408 40.1527 1.32719 40.3354 1.41001 40.501C1.46201 40.601 2.54701 42.701 5.98501 44.201L2.78001 45.801C1.94363 46.2147 1.23986 46.8544 0.748502 47.6476C0.257144 48.4409 -0.00215097 49.3559 1.34401e-05 50.289V59.104C1.34401e-05 59.4204 0.125704 59.7238 0.349435 59.9476C0.573166 60.1713 0.87661 60.297 1.19301 60.297C1.50942 60.297 1.81286 60.1713 2.03659 59.9476C2.26032 59.7238 2.38601 59.4204 2.38601 59.104V50.289C2.38428 49.7992 2.51988 49.3187 2.77742 48.9021C3.03495 48.4855 3.40412 48.1494 3.84301 47.932L7.83001 45.938L9.21701 47.256C10.1498 48.1433 11.3881 48.6382 12.6755 48.6382C13.963 48.6382 15.2012 48.1433 16.134 47.256L17.521 45.938L18.821 46.588C18.195 47.5867 17.8627 48.7413 17.862 49.92V59.105C17.862 59.2617 17.8929 59.4168 17.9528 59.5615C18.0128 59.7063 18.1007 59.8378 18.2114 59.9486C18.3222 60.0594 18.4537 60.1472 18.5985 60.2072C18.7432 60.2671 18.8983 60.298 19.055 60.298C19.2117 60.298 19.3668 60.2671 19.5116 60.2072C19.6563 60.1472 19.7878 60.0594 19.8986 59.9486C20.0094 59.8378 20.0972 59.7063 20.1572 59.5615C20.2172 59.4168 20.248 59.2617 20.248 59.105V49.92C20.2501 49.1178 20.4979 48.3355 20.9581 47.6784C21.4183 47.0214 22.0688 46.5211 22.822 46.245L30.563 43.432L33.782 48.265C33.9842 48.5693 34.2516 48.8248 34.5649 49.0128C34.8781 49.2009 35.2294 49.3167 35.593 49.352C35.6747 49.3604 35.7569 49.3644 35.839 49.364C36.163 49.3643 36.4838 49.3005 36.7831 49.1765C37.0824 49.0524 37.3543 48.8704 37.583 48.641L39.546 46.678V59.103C39.546 59.4194 39.6717 59.7228 39.8954 59.9466C40.1192 60.1703 40.4226 60.296 40.739 60.296C41.0554 60.296 41.3589 60.1703 41.5826 59.9466C41.8063 59.7228 41.932 59.4194 41.932 59.103V46.675L43.895 48.638C44.1237 48.8675 44.3955 49.0495 44.6948 49.1736C44.9941 49.2977 45.315 49.3614 45.639 49.361C45.7203 49.361 45.8023 49.357 45.885 49.349C46.2487 49.3137 46.5999 49.1978 46.9131 49.0098C47.2264 48.8217 47.4938 48.5663 47.696 48.262L50.913 43.432L58.653 46.246C59.4062 46.5221 60.0567 47.0224 60.5169 47.6794C60.9771 48.3365 61.2249 49.1188 61.227 49.921V59.106C61.227 59.4224 61.3527 59.7258 61.5764 59.9496C61.8002 60.1733 62.1036 60.299 62.42 60.299C62.7364 60.299 63.0399 60.1733 63.2636 59.9496C63.4873 59.7258 63.613 59.4224 63.613 59.106V49.921C63.6104 48.2924 62.9779 46.7279 61.848 45.555L62.148 45.471C62.5293 45.3714 62.9008 45.2375 63.258 45.071L66.305 48.118V59.108C66.305 59.4244 66.4307 59.7278 66.6544 59.9516C66.8782 60.1753 67.1816 60.301 67.498 60.301C67.8144 60.301 68.1179 60.1753 68.3416 59.9516C68.5653 59.7278 68.691 59.4244 68.691 59.108V48.118L71.716 45.093C71.8785 45.1758 72.0486 45.2428 72.224 45.293L77.152 46.701C77.7016 46.8599 78.1848 47.1926 78.5293 47.6493C78.8738 48.1059 79.0611 48.662 79.063 49.234V59.106C79.063 59.4224 79.1887 59.7258 79.4124 59.9496C79.6362 60.1733 79.9396 60.299 80.256 60.299C80.5724 60.299 80.8759 60.1733 81.0996 59.9496C81.3233 59.7258 81.449 59.4224 81.449 59.106V49.232C81.4451 48.1431 81.0888 47.0847 80.4334 46.2152C79.778 45.3456 78.8587 44.7116 77.813 44.408ZM17.695 42.308V40.879C19.0984 39.9135 20.1924 38.5625 20.845 36.989C20.9644 37.9613 21.1921 38.9173 21.524 39.839C20.4929 40.9876 19.1722 41.8382 17.7 42.302L17.695 42.308ZM4.93501 29.845C5.05956 27.7647 5.91363 25.7949 7.34701 24.282C8.03828 23.568 8.86603 23.0003 9.78106 22.6126C10.6961 22.2249 11.6797 22.0251 12.6735 22.0251C13.6673 22.0251 14.6509 22.2249 15.566 22.6126C16.481 23.0003 17.3087 23.568 18 24.282C19.4334 25.7949 20.2875 27.7647 20.412 29.845C20.459 30.51 20.485 31.284 20.512 32.104L20.519 32.317C19.1189 30.2363 17.0336 28.7122 14.626 28.01C13.1593 27.5383 11.6287 27.2958 10.088 27.291C9.77563 27.2995 9.47905 27.4302 9.26201 27.655L7.11201 29.889C7.00328 30.0018 6.91783 30.1349 6.86054 30.2808C6.80325 30.4266 6.77525 30.5823 6.77812 30.7389C6.781 30.8956 6.81471 31.0501 6.87732 31.1937C6.93992 31.3374 7.03021 31.4673 7.14301 31.576C7.25582 31.6847 7.38894 31.7702 7.53477 31.8275C7.6806 31.8848 7.83628 31.9128 7.99293 31.9099C8.14959 31.907 8.30414 31.8733 8.44776 31.8107C8.59139 31.7481 8.72128 31.6578 8.83001 31.545L10.621 29.688C12.164 29.767 17.127 30.34 19.057 34.588C18.805 36.195 17.9562 37.6477 16.68 38.6563C15.4038 39.6648 13.7942 40.1548 12.1725 40.0286C10.5508 39.9023 9.03642 39.169 7.93171 37.9751C6.82699 36.7812 6.21324 35.2146 6.21301 33.588C6.21441 33.4143 6.17761 33.2424 6.10523 33.0844C6.03286 32.9265 5.92666 32.7864 5.79416 32.674C5.66166 32.5616 5.50609 32.4797 5.33844 32.4341C5.1708 32.3885 4.99519 32.3803 4.82401 32.41C4.82401 32.31 4.83101 32.204 4.83401 32.103C4.86201 31.285 4.88801 30.513 4.93501 29.845ZM3.82601 39.839C4.15863 38.915 4.38672 37.9567 4.50601 36.982C5.16307 38.5515 6.25624 39.8997 7.65601 40.867V42.297C6.18169 41.8373 4.85781 40.9881 3.82601 39.839ZM10.861 45.527L9.75101 44.473C9.94206 44.1144 10.0417 43.7143 10.041 43.308V42.032C11.7565 42.5654 13.5935 42.5654 15.309 42.032V43.305C15.3082 43.7116 15.4078 44.1121 15.599 44.471L14.491 45.532C14.0015 45.9978 13.3517 46.2575 12.676 46.2575C12.0003 46.2575 11.3505 45.9978 10.861 45.532V45.527ZM29.178 22.945V19.985C29.178 19.8052 29.1373 19.6278 29.059 19.466C28.2969 17.904 27.9006 16.189 27.9 14.451V11.9C27.9024 9.51024 28.8527 7.21903 30.5424 5.52912C32.2322 3.83921 34.5233 2.88865 36.913 2.886H53.583V14.451C53.5828 16.1882 53.1872 17.9025 52.426 19.464C52.3476 19.6261 52.3069 19.8039 52.307 19.984V23.384C52.3136 24.967 51.9921 26.5342 51.3627 27.9866C50.7332 29.4391 49.8096 30.7454 48.65 31.823C48.358 32.0969 48.0522 32.3559 47.734 32.599L47.714 32.614C45.4985 34.2975 42.7467 35.1184 39.971 34.924C36.9895 34.6651 34.2173 33.2846 32.214 31.0613C30.2108 28.8379 29.1258 25.9373 29.178 22.945ZM39.816 37.303C40.13 37.3237 40.444 37.334 40.758 37.334C43.0041 37.3392 45.2177 36.7969 47.207 35.754V37.932L40.743 42.348L34.281 37.932V35.705C35.9883 36.6322 37.8764 37.1781 39.815 37.305L39.816 37.303ZM35.896 46.953C35.8873 46.9615 35.8768 46.968 35.8653 46.9721C35.8538 46.9761 35.8416 46.9775 35.8295 46.9763C35.8173 46.9751 35.8056 46.9712 35.7952 46.9649C35.7847 46.9586 35.7758 46.9501 35.769 46.94L32.058 41.373L33.252 40.117L38.881 43.964L35.896 46.953ZM45.716 46.94C45.7095 46.9502 45.7006 46.9588 45.6902 46.965C45.6798 46.9712 45.6681 46.975 45.656 46.976C45.6437 46.978 45.6312 46.9768 45.6194 46.9726C45.6077 46.9684 45.5973 46.9613 45.589 46.952L42.606 43.969L48.235 40.122L49.429 41.378L45.716 46.94ZM61.042 33.266V31.032C61.0421 30.8466 60.999 30.6638 60.916 30.498L60.179 29.032C59.9083 28.489 59.7669 27.8907 59.766 27.284V27.213C59.7673 25.838 60.3141 24.5197 61.2864 23.5474C62.2587 22.5751 63.577 22.0283 64.952 22.027H75.241V26.984C75.2392 27.7891 75.0509 28.5828 74.691 29.303L74.091 30.508C74.0081 30.6738 73.965 30.8566 73.965 31.042V33.593C73.9649 34.4583 73.791 35.3147 73.4536 36.1115C73.1163 36.9083 72.6223 37.6292 72.0011 38.2315C71.3799 38.8338 70.644 39.3052 69.8371 39.6178C69.0303 39.9303 68.1689 40.0776 67.304 40.051C65.5885 39.9434 63.9805 39.1786 62.8145 37.9156C61.6485 36.6526 61.0144 34.9887 61.044 33.27L61.042 33.266ZM67.232 42.432C67.324 42.432 67.415 42.432 67.507 42.432C68.3992 42.4318 69.2861 42.297 70.138 42.032V42.512C70.1376 42.748 70.1665 42.9831 70.224 43.212L67.5 45.932L64.8 43.226C64.8503 42.9937 64.8751 42.7567 64.874 42.519V42.019C65.6377 42.2701 66.4335 42.4099 67.237 42.434L67.232 42.432Z" fill="#005D45"/>
<path d="M75.1578 50.256C74.8414 50.256 74.538 50.3817 74.3143 50.6054C74.0905 50.8292 73.9648 51.1326 73.9648 51.449V59.104C73.9648 59.4205 74.0906 59.7241 74.3144 59.9479C74.5382 60.1718 74.8418 60.2975 75.1583 60.2975C75.4749 60.2975 75.7784 60.1718 76.0023 59.9479C76.2261 59.7241 76.3518 59.4205 76.3518 59.104V51.449C76.3518 51.2923 76.3209 51.137 76.2609 50.9922C76.2009 50.8474 76.113 50.7159 76.0021 50.6051C75.8912 50.4943 75.7595 50.4064 75.6147 50.3465C75.4698 50.2866 75.3146 50.2559 75.1578 50.256Z" fill="#46C752"/>
<path d="M6.29895 51.833C5.98255 51.833 5.67911 51.9587 5.45538 52.1824C5.23164 52.4061 5.10596 52.7096 5.10596 53.026V59.103C5.10596 59.4194 5.23164 59.7228 5.45538 59.9466C5.67911 60.1703 5.98255 60.296 6.29895 60.296C6.61536 60.296 6.9188 60.1703 7.14253 59.9466C7.36626 59.7228 7.49195 59.4194 7.49195 59.103V53.025C7.49169 52.7088 7.36588 52.4056 7.14218 52.1821C6.91848 51.9586 6.61518 51.833 6.29895 51.833Z" fill="#46C752"/>
<path d="M33.0039 14.254C33.0032 14.2356 33.0091 14.2176 33.0205 14.2032C33.0318 14.1887 33.0479 14.1787 33.0659 14.175C35.6296 13.7827 38.2271 13.656 40.8169 13.797C44.5379 14.045 47.2329 14.979 48.8239 16.573C49.0486 16.7917 49.3504 16.9131 49.664 16.911C49.9776 16.9088 50.2777 16.7833 50.4994 16.5616C50.7212 16.3398 50.8467 16.0397 50.8488 15.7261C50.851 15.4125 50.7296 15.1107 50.5109 14.886C45.9979 10.373 36.5559 11.236 32.7059 11.817C32.1212 11.9029 31.5873 12.1973 31.2026 12.6459C30.818 13.0945 30.6085 13.6671 30.6129 14.258V17.006C30.6129 17.3224 30.7386 17.6258 30.9623 17.8496C31.186 18.0733 31.4895 18.199 31.8059 18.199C32.1223 18.199 32.4257 18.0733 32.6494 17.8496C32.8732 17.6258 32.9989 17.3224 32.9989 17.006V14.258L33.0039 14.254Z" fill="#46C752"/>
<path d="M26.7062 52.807C26.3898 52.807 26.0863 52.9327 25.8626 53.1564C25.6389 53.3801 25.5132 53.6836 25.5132 54V59.1C25.5132 59.4164 25.6389 59.7198 25.8626 59.9436C26.0863 60.1673 26.3898 60.293 26.7062 60.293C27.0226 60.293 27.326 60.1673 27.5498 59.9436C27.7735 59.7198 27.8992 59.4164 27.8992 59.1V54C27.8992 53.6836 27.7735 53.3801 27.5498 53.1564C27.326 52.9327 27.0226 52.807 26.7062 52.807Z" fill="#46C752"/>
<path d="M54.777 52.807C54.4606 52.807 54.1571 52.9327 53.9334 53.1564C53.7097 53.3801 53.584 53.6836 53.584 54V59.1C53.584 59.4164 53.7097 59.7198 53.9334 59.9436C54.1571 60.1673 54.4606 60.293 54.777 60.293C55.0934 60.293 55.3968 60.1673 55.6205 59.9436C55.8443 59.7198 55.97 59.4164 55.97 59.1V54C55.97 53.6836 55.8443 53.3801 55.6205 53.1564C55.3968 52.9327 55.0934 52.807 54.777 52.807Z" fill="#46C752"/>
</g>
<defs>
<clipPath id="clip0_808_556">
<rect width="81.446" height="59.799" fill="white" transform="translate(0 0.5)"/>
</clipPath>
</defs>
</svg>
