<svg width="48" height="48" viewBox="0 0 48 48" fill="none" xmlns="http://www.w3.org/2000/svg">
<path fill-rule="evenodd" clip-rule="evenodd" d="M24 6.5C19.3056 6.5 15.5 10.3056 15.5 15C15.5 19.6944 19.3056 23.5 24 23.5C28.6944 23.5 32.5 19.6944 32.5 15C32.5 10.3056 28.6944 6.5 24 6.5ZM18.5 15C18.5 11.9624 20.9624 9.5 24 9.5C27.0376 9.5 29.5 11.9624 29.5 15C29.5 18.0376 27.0376 20.5 24 20.5C20.9624 20.5 18.5 18.0376 18.5 15Z" fill="#1B8354"/>
<path d="M11.0001 10.5C7.41024 10.5 4.50009 13.4101 4.50009 17C4.50009 20.5899 7.41024 23.5 11.0001 23.5C11.8285 23.5 12.5001 22.8284 12.5001 22C12.5001 21.1716 11.8285 20.5 11.0001 20.5C9.06709 20.5 7.50009 18.933 7.50009 17C7.50009 15.067 9.06709 13.5 11.0001 13.5C11.8285 13.5 12.5001 12.8284 12.5001 12C12.5001 11.1716 11.8285 10.5 11.0001 10.5Z" fill="#1B8354"/>
<path d="M11.494 25.8648C11.4193 25.0398 10.69 24.4315 9.86493 24.5061C7.98788 24.6759 6.16278 25.398 4.55419 26.6367C4.46151 26.7081 4.33942 26.7969 4.19596 26.9013C3.51459 27.397 2.35119 28.2434 1.56717 29.2358C1.0662 29.87 0.597725 30.6999 0.513379 31.6978C0.425046 32.7429 0.775397 33.7581 1.52651 34.6836C2.67622 36.1001 4.25381 37.5 6.452 37.5C7.28043 37.5 7.952 36.8284 7.952 36C7.952 35.1716 7.28043 34.5 6.452 34.5C5.65298 34.5 4.84663 34.0138 3.85585 32.793C3.5115 32.3688 3.48991 32.1021 3.50272 31.9505C3.51952 31.7517 3.62528 31.4701 3.92124 31.0955C4.41973 30.4645 5.1185 29.9509 5.79771 29.4517C5.99685 29.3053 6.19432 29.1602 6.38456 29.0137C7.56529 28.1044 8.85462 27.6098 10.1352 27.4939C10.9603 27.4193 11.5686 26.6899 11.494 25.8648Z" fill="#1B8354"/>
<path d="M36 10.5C35.1716 10.5 34.5 11.1716 34.5 12C34.5 12.8284 35.1716 13.5 36 13.5C37.933 13.5 39.5 15.067 39.5 17C39.5 18.933 37.933 20.5 36 20.5C35.1716 20.5 34.5 21.1716 34.5 22C34.5 22.8284 35.1716 23.5 36 23.5C39.5898 23.5 42.5 20.5899 42.5 17C42.5 13.4101 39.5898 10.5 36 10.5Z" fill="#1B8354"/>
<path d="M38.1351 24.5061C37.3101 24.4315 36.5807 25.0398 36.5061 25.8648C36.4315 26.6899 37.0398 27.4193 37.8648 27.4939C39.1455 27.6098 40.4348 28.1044 41.6155 29.0137C41.8057 29.1601 42.0031 29.3052 42.2022 29.4516C42.8815 29.9508 43.5804 30.4645 44.0788 31.0955C44.3748 31.4701 44.4806 31.7517 44.4974 31.9505C44.5102 32.1021 44.4886 32.3688 44.1442 32.793C43.1535 34.0138 42.3471 34.5 41.5481 34.5C40.7197 34.5 40.0481 35.1716 40.0481 36C40.0481 36.8284 40.7197 37.5 41.5481 37.5C43.7463 37.5 45.3239 36.1001 46.4736 34.6836C47.2247 33.7581 47.575 32.7429 47.4867 31.6978C47.4024 30.6999 46.9339 29.87 46.4329 29.2358C45.6489 28.2434 44.4857 27.3971 43.8043 26.9014C43.6609 26.7971 43.5386 26.7081 43.4459 26.6367C41.8373 25.398 40.0122 24.6759 38.1351 24.5061Z" fill="#1B8354"/>
<path fill-rule="evenodd" clip-rule="evenodd" d="M15.379 28.9466C20.6546 25.6845 27.346 25.6845 32.6216 28.9466C32.7771 29.0427 32.974 29.1579 33.2002 29.2904C34.2248 29.8899 35.8514 30.8417 36.9612 31.9698C37.6582 32.6783 38.3534 33.6442 38.4802 34.8484C38.6158 36.1367 38.069 37.3291 37.0259 38.3612C35.3026 40.0661 33.168 41.5 30.369 41.5H17.6315C14.8326 41.5 12.698 40.0661 10.9747 38.3612C9.93159 37.3291 9.38479 36.1367 9.5204 34.8484C9.64715 33.6442 10.3423 32.6783 11.0394 31.9698C12.1492 30.8417 13.7756 29.89 14.8001 29.2905C15.0265 29.158 15.2235 29.0428 15.379 28.9466ZM31.0438 31.4982C26.7351 28.8339 21.2654 28.8339 16.9568 31.4982C16.6981 31.6581 16.4208 31.8216 16.1347 31.9903C15.1109 32.594 13.9744 33.2641 13.178 34.0737C12.688 34.5717 12.5278 34.9352 12.5039 35.1624C12.4889 35.3054 12.4961 35.6462 13.0847 36.2285C14.5497 37.678 15.966 38.5 17.6315 38.5H30.369C32.0345 38.5 33.4509 37.678 34.9159 36.2285C35.5045 35.6462 35.5117 35.3054 35.4967 35.1624C35.4728 34.9352 35.3126 34.5717 34.8226 34.0737C34.0262 33.2641 32.8897 32.594 31.866 31.9904C31.5798 31.8217 31.3025 31.6581 31.0438 31.4982Z" fill="#1B8354"/>
</svg>
