<svg width="48" height="48" viewBox="0 0 48 48" fill="none" xmlns="http://www.w3.org/2000/svg">
<path fill-rule="evenodd" clip-rule="evenodd" d="M24 2.5C18.201 2.5 13.5 7.20101 13.5 13C13.5 18.799 18.201 23.5 24 23.5C29.799 23.5 34.5 18.799 34.5 13C34.5 7.20101 29.799 2.5 24 2.5ZM16.5 13C16.5 8.85786 19.8579 5.5 24 5.5C28.1421 5.5 31.5 8.85786 31.5 13C31.5 17.1421 28.1421 20.5 24 20.5C19.8579 20.5 16.5 17.1421 16.5 13Z" fill="#1B8354"/>
<path fill-rule="evenodd" clip-rule="evenodd" d="M36.4577 30.1584C36.1325 29.9749 35.8452 29.8128 35.6126 29.6743C28.5045 25.4419 19.4962 25.4419 12.3881 29.6743C12.1555 29.8129 11.8681 29.975 11.5428 30.1585C10.1171 30.9628 7.96213 32.1786 6.48579 33.6237C5.56246 34.5275 4.68515 35.7184 4.52566 37.1775C4.35604 38.7292 5.03297 40.1853 6.39101 41.4792C8.7339 43.7113 11.5455 45.5 15.1821 45.5H32.8186C36.4552 45.5 39.2668 43.7113 41.6097 41.4792C42.9677 40.1853 43.6447 38.7292 43.475 37.1775C43.3156 35.7184 42.4382 34.5275 41.5149 33.6237C40.0386 32.1786 37.8833 30.9627 36.4577 30.1584ZM13.9229 32.252C20.0853 28.5827 27.9154 28.5827 34.0778 32.252C34.4136 32.4519 34.7815 32.6607 35.1669 32.8793C36.5921 33.6879 38.2562 34.632 39.4164 35.7676C40.1367 36.4726 40.4437 37.0541 40.4928 37.5035C40.5318 37.8602 40.4416 38.4485 39.5404 39.3071C37.4687 41.2808 35.3635 42.5 32.8186 42.5H15.1821C12.6372 42.5 10.532 41.2808 8.46034 39.3071C7.55908 38.4485 7.4689 37.8602 7.50789 37.5035C7.55701 37.0541 7.86403 36.4726 8.58428 35.7676C9.74447 34.632 11.4085 33.6879 12.8337 32.8794C13.2191 32.6608 13.5872 32.4519 13.9229 32.252Z" fill="#1B8354"/>
</svg>
