<svg width="14" height="20" viewBox="0 0 14 20" fill="none" xmlns="http://www.w3.org/2000/svg">
<path d="M13.25 9C13.4312 9 13.6063 9.0656 13.7429 9.1848C13.8795 9.3039 13.9684 9.4684 13.993 9.648L14 9.75V10.25C14.0002 11.9536 13.3561 13.5942 12.1971 14.8428C11.0381 16.0914 9.4499 16.8556 7.751 16.982L7.75 19.25C7.7499 19.44 7.6778 19.6229 7.548 19.7618C7.4183 19.9006 7.2407 19.9851 7.0511 19.998C6.8615 20.011 6.6741 19.9515 6.5267 19.8316C6.3793 19.7117 6.2829 19.5402 6.257 19.352L6.25 19.25V16.982C4.59151 16.8588 3.03687 16.1278 1.88421 14.929C0.73155 13.7302 0.0620098 12.148 0.00400019 10.486L0 10.25V9.75C6.00815e-05 9.56 0.0722399 9.3771 0.20197 9.2382C0.3317 9.0994 0.5093 9.0149 0.69888 9.002C0.88846 8.989 1.07589 9.0485 1.2233 9.1684C1.37071 9.2883 1.4671 9.4597 1.493 9.648L1.5 9.75V10.25C1.49989 11.6051 2.02372 12.9077 2.96194 13.8854C3.90015 14.8632 5.1801 15.4402 6.534 15.496L6.75 15.5H7.25C8.6051 15.5001 9.9077 14.9763 10.8854 14.0381C11.8632 13.0998 12.4402 11.8199 12.496 10.466L12.5 10.25V9.75C12.5 9.5511 12.579 9.3603 12.7197 9.2197C12.8603 9.079 13.0511 9 13.25 9ZM7 0C8.0609 0 9.0783 0.42143 9.8284 1.17157C10.5786 1.92172 11 2.93913 11 4V10C11 11.0609 10.5786 12.0783 9.8284 12.8284C9.0783 13.5786 8.0609 14 7 14C5.9391 14 4.92172 13.5786 4.17157 12.8284C3.42143 12.0783 3 11.0609 3 10V4C3 2.93913 3.42143 1.92172 4.17157 1.17157C4.92172 0.42143 5.9391 0 7 0ZM7 1.5C6.337 1.5 5.7011 1.76339 5.2322 2.23223C4.76339 2.70107 4.5 3.33696 4.5 4V10C4.5 10.663 4.76339 11.2989 5.2322 11.7678C5.7011 12.2366 6.337 12.5 7 12.5C7.663 12.5 8.2989 12.2366 8.7678 11.7678C9.2366 11.2989 9.5 10.663 9.5 10V4C9.5 3.33696 9.2366 2.70107 8.7678 2.23223C8.2989 1.76339 7.663 1.5 7 1.5Z" fill="white"/>
</svg>
