<svg xmlns="http://www.w3.org/2000/svg" xmlns:xlink="http://www.w3.org/1999/xlink" width="58.606" height="58.605" viewBox="0 0 58.606 58.605">
  <defs>
    <clipPath id="clip-path">
      <rect id="Rectangle_16244" data-name="Rectangle 16244" width="58.606" height="58.605" fill="none"/>
    </clipPath>
  </defs>
  <g id="icon-3" transform="translate(0 0)">
    <g id="Group_125358" data-name="Group 125358" transform="translate(0 0)" clip-path="url(#clip-path)">
      <path id="Path_130017" data-name="Path 130017" d="M59.622,71.387a1.2,1.2,0,0,1-.474-.1C58.582,71.048,45.3,65.257,45.3,53.455V43.422a1.211,1.211,0,0,1,.822-1.146l13.11-4.46a1.207,1.207,0,0,1,.778,0l13.108,4.459a1.212,1.212,0,0,1,.824,1.147V53.455c0,11.744-13.282,17.6-13.848,17.838a1.245,1.245,0,0,1-.474.094m-11.9-27.1v9.163c0,8.693,8.878,13.859,11.6,15.235l.3.151.3-.151c2.722-1.376,11.6-6.543,11.6-15.235V44.289l-11.9-4.049Z" transform="translate(-15.338 -12.782)" fill="#003462"/>
      <path id="Path_130018" data-name="Path 130018" d="M62.736,65.276a1.189,1.189,0,0,1-.759-.351l-5-5a1.211,1.211,0,1,1,1.7-1.724L62.7,62.224l6.65-8.87A1.211,1.211,0,0,1,71.28,54.82L63.8,64.8a1.211,1.211,0,0,1-.883.482Z" transform="translate(-19.17 -17.911)" fill="#4789c8"/>
      <path id="Path_130019" data-name="Path 130019" d="M6.2,51.114A6.22,6.22,0,0,1,0,44.91V6.205A6.22,6.22,0,0,1,6.206,0H34.923a6.22,6.22,0,0,1,6.2,6.206V19.765a1.211,1.211,0,0,1-2.423,0V6.205a3.8,3.8,0,0,0-3.779-3.783H6.205A3.8,3.8,0,0,0,2.423,6.2V44.911A3.794,3.794,0,0,0,6.2,48.693h19.58a1.211,1.211,0,0,1,.069,2.421Z" transform="translate(0 0)" fill="#003462"/>
      <path id="Path_130020" data-name="Path 130020" d="M12.537,32.624a1.211,1.211,0,1,1,0-2.423H36.261a1.211,1.211,0,0,1,0,2.423Z" transform="translate(-3.834 -10.225)" fill="#4789c8"/>
      <path id="Path_130021" data-name="Path 130021" d="M12.537,47.725a1.211,1.211,0,1,1,0-2.423H26.271a1.211,1.211,0,1,1,0,2.423Z" transform="translate(-3.834 -15.338)" fill="#4789c8"/>
      <path id="Path_130022" data-name="Path 130022" d="M12.537,17.524a1.211,1.211,0,1,1,0-2.423H23.773a1.211,1.211,0,1,1,0,2.423Z" transform="translate(-3.834 -5.113)" fill="#4789c8"/>
    </g>
  </g>
</svg>
