<svg xmlns="http://www.w3.org/2000/svg" xmlns:xlink="http://www.w3.org/1999/xlink" width="58.902" height="58.832" viewBox="0 0 58.902 58.832">
  <defs>
    <clipPath id="clip-path">
      <rect id="Rectangle_16245" data-name="Rectangle 16245" width="58.902" height="58.832" fill="none"/>
    </clipPath>
  </defs>
  <g id="icon-1" transform="translate(0 0)">
    <g id="Group_125359" data-name="Group 125359" transform="translate(0 0)" clip-path="url(#clip-path)">
      <path id="Path_130023" data-name="Path 130023" d="M32,40.494l-.061.568a1.151,1.151,0,0,0,1.82,1.052L41.1,36.748a1.149,1.149,0,0,0,.318-.354l8.965-15.528v22.3a4.681,4.681,0,0,1-4.675,4.675H19.053a1.149,1.149,0,0,0-1,.575l-4.024,6.967-4.022-6.967a1.149,1.149,0,0,0-1-.575H6.976A4.681,4.681,0,0,1,2.3,43.165V20.79a4.681,4.681,0,0,1,4.675-4.675H18.761a1.151,1.151,0,1,0,.055-2.3H6.976A6.984,6.984,0,0,0,0,20.79V43.165a6.984,6.984,0,0,0,6.976,6.976H8.35l4.687,8.116a1.151,1.151,0,0,0,1.993,0l4.687-8.118h26a6.984,6.984,0,0,0,6.976-6.976V20.79a6.984,6.984,0,0,0-.609-2.853L58.257,7.243a4.83,4.83,0,0,0-8.366-4.831l-6.582,11.4H29.115a1.151,1.151,0,1,0-.055,2.3H41.98l-8.76,15.176-.478,2.3-.5,4.6ZM55.336,2.639a2.531,2.531,0,0,1,.925,3.453L55.6,7.23,51.229,4.7l.657-1.138a2.532,2.532,0,0,1,3.453-.925ZM35.011,34.02l3.312,1.912L34.5,38.721Zm5,.228-4.38-2.528L50.076,6.7l4.379,2.528Z" transform="translate(0 0)" fill="#003462"/>
      <path id="Path_130024" data-name="Path 130024" d="M36.2,23.552a1.149,1.149,0,1,0-.813-.337,1.162,1.162,0,0,0,.813.337" transform="translate(-12.264 -7.436)" fill="#4789c8"/>
      <path id="Path_130025" data-name="Path 130025" d="M34.153,60.006a1.15,1.15,0,0,0-1.146-1.257H15.169a1.165,1.165,0,0,0,0,2.3H33.008A1.15,1.15,0,0,0,34.153,60.006Z" transform="translate(-4.964 -20.555)" fill="#4789c8"/>
      <path id="Path_130026" data-name="Path 130026" d="M34.85,49.486a1.15,1.15,0,0,0-1.132-1.355H15.143a1.076,1.076,0,0,0-1.028,1.123,1.094,1.094,0,0,0,.98,1.178H33.718a1.151,1.151,0,0,0,1.132-.945" transform="translate(-4.938 -16.84)" fill="#4789c8"/>
      <path id="Path_130027" data-name="Path 130027" d="M37.731,39.178A1.151,1.151,0,0,0,36.7,37.51H15.143a1.077,1.077,0,0,0-1.028,1.123,1.093,1.093,0,0,0,.98,1.177H36.7A1.15,1.15,0,0,0,37.731,39.178Z" transform="translate(-4.938 -13.124)" fill="#4789c8"/>
    </g>
  </g>
</svg>
