<svg xmlns="http://www.w3.org/2000/svg" width="54.601" height="57.447" viewBox="0 0 54.601 57.447">
  <g id="icon-2" transform="translate(-334.399 31.213)">
    <path id="Path_130048" data-name="Path 130048" d="M7.6,16a1.5,1.5,0,0,1-1.5-1.49,19.635,19.635,0,0,0-1.76-7.648A18.267,18.267,0,0,0-.841,1.242a1.5,1.5,0,0,1-.4-2.083,1.5,1.5,0,0,1,2.081-.4A21.08,21.08,0,0,1,7,5.474a22.422,22.422,0,0,1,2.1,9.02A1.5,1.5,0,0,1,7.608,16Z" transform="translate(370.919 -20.91)" fill="#4789c8"/>
    <path id="Path_130049" data-name="Path 130049" d="M11,22.5a1.5,1.5,0,0,1-1.5-1.49c0-.064-.083-6.527-2.625-11.38S-.789,1.277-.841,1.242a1.5,1.5,0,0,1-.4-2.083,1.5,1.5,0,0,1,2.081-.4c.236.159,5.8,3.959,8.693,9.481S12.5,20.7,12.5,20.99a1.5,1.5,0,0,1-1.49,1.51Z" transform="translate(376.5 -27.405)" fill="#4789c8"/>
    <path id="Path_130048-2" data-name="Path 130048" d="M30.939,57.447A9.87,9.87,0,0,1,25.29,55.68c-6.865-4.573-12.9-11.269-17.929-19.9C2.274,27.059-.2,18.463.012,10.226A9.851,9.851,0,0,1,5.193,1.641,14.375,14.375,0,0,1,15.632.5a6.431,6.431,0,0,1,3.983,3.014l3.568,6.225A8.5,8.5,0,0,1,20.934,20.73L18.726,22.4a3.535,3.535,0,0,0-1.525,3.5,16.588,16.588,0,0,0,4.423,8.171,3.43,3.43,0,0,0,2.232.836,3.378,3.378,0,0,0,1.461-.33l2.4-.914a8.474,8.474,0,0,1,10.432,3.779l3.5,6.25a6.045,6.045,0,0,1,.4,5.057A13.573,13.573,0,0,1,35.173,56.5a9.832,9.832,0,0,1-4.234.95M11.861,2.269A12.147,12.147,0,0,0,6.329,3.608a7.57,7.57,0,0,0-4.045,6.7v.168c-.161,7.737,2.207,15.866,7.038,24.156,4.863,8.336,10.656,14.78,17.216,19.153a7.57,7.57,0,0,0,4.4,1.392,7.661,7.661,0,0,0,3.314-.757,11.333,11.333,0,0,0,5.665-6.481,3.762,3.762,0,0,0-.251-3.14l-3.5-6.254a6.207,6.207,0,0,0-7.637-2.764l-2.446.936a5.67,5.67,0,0,1-6.055-1.037,18.78,18.78,0,0,1-5.03-9.235A5.806,5.806,0,0,1,17.343,20.6l2.225-1.68a6.223,6.223,0,0,0,1.644-8.043L17.645,4.649a4.134,4.134,0,0,0-2.562-1.943,12.033,12.033,0,0,0-3.222-.437" transform="translate(334.4 -31.213)" fill="#003462"/>
  </g>
</svg>
