<svg xmlns="http://www.w3.org/2000/svg" width="25.43" height="21.797" viewBox="0 0 25.43 21.797">
  <path id="Fax" d="M1362,583.967h6.709V602.8H1362Zm23.807,2.853V581h-10.16l-3.827,3.713v2.107h-1.5V602.8h17.111V586.82Zm-11.673-1.115v-.044l2.47-2.378h6.89v8.786h-9.36Zm1.393,15.152h-2.664v-2.4h2.664v2.4Zm0-4.336h-2.664v-2.4h2.664Zm4.626,4.336h-2.664v-2.4h2.664v2.4Zm0-4.336h-2.664v-2.4h2.664Zm4.614,4.336h-2.652v-2.4h2.652v2.4Zm0-4.336h-2.652v-2.4h2.652Z" transform="translate(-1362 -581)" fill="#63be6a"/>
</svg>
