<svg width="16" height="16" viewBox="0 0 16 16" fill="none" xmlns="http://www.w3.org/2000/svg">
<g id="vuesax/outline/arrow-down">
<g id="arrow-down">
<g id="Vector">
<mask id="path-1-inside-1_85_5433" fill="white">
<path d="M8.00001 11.2C7.53335 11.2 7.06668 11.0201 6.71335 10.6667L2.36668 6.32005C2.17335 6.12672 2.17335 5.80672 2.36668 5.61338C2.56001 5.42005 2.88001 5.42005 3.07335 5.61338L7.42001 9.96005C7.74001 10.2801 8.26001 10.2801 8.58001 9.96005L12.9267 5.61338C13.12 5.42005 13.44 5.42005 13.6333 5.61338C13.8267 5.80672 13.8267 6.12672 13.6333 6.32005L9.28668 10.6667C8.93335 11.0201 8.46668 11.2 8.00001 11.2Z"/>
</mask>
<path d="M8.00001 11.2C7.53335 11.2 7.06668 11.0201 6.71335 10.6667L2.36668 6.32005C2.17335 6.12672 2.17335 5.80672 2.36668 5.61338C2.56001 5.42005 2.88001 5.42005 3.07335 5.61338L7.42001 9.96005C7.74001 10.2801 8.26001 10.2801 8.58001 9.96005L12.9267 5.61338C13.12 5.42005 13.44 5.42005 13.6333 5.61338C13.8267 5.80672 13.8267 6.12672 13.6333 6.32005L9.28668 10.6667C8.93335 11.0201 8.46668 11.2 8.00001 11.2Z" fill="black"/>
<path d="M6.71335 10.6667L6.00624 11.3738L6.71335 10.6667ZM2.36668 6.32005L3.07379 5.61294V5.61294L2.36668 6.32005ZM3.07335 5.61338L2.36624 6.32049L3.07335 5.61338ZM7.42001 9.96005L8.12712 9.25294L7.42001 9.96005ZM8.58001 9.96005L9.28712 10.6672L8.58001 9.96005ZM12.9267 5.61338L12.2196 4.90628V4.90628L12.9267 5.61338ZM13.6333 6.32005L12.9262 5.61294V5.61294L13.6333 6.32005ZM9.28668 10.6667L9.99379 11.3738L9.28668 10.6667ZM8.00001 10.2C7.78939 10.2 7.57986 10.119 7.42045 9.95961L6.00624 11.3738C6.5535 11.9211 7.2773 12.2 8.00001 12.2V10.2ZM7.42045 9.95961L3.07379 5.61294L1.65957 7.02716L6.00624 11.3738L7.42045 9.95961ZM3.07379 5.61294C3.27098 5.81013 3.27098 6.1233 3.07379 6.32049L1.65957 4.90628C1.07572 5.49013 1.07572 6.4433 1.65957 7.02716L3.07379 5.61294ZM3.07379 6.32049C2.8766 6.51768 2.56343 6.51768 2.36624 6.32049L3.78045 4.90628C3.1966 4.32242 2.24343 4.32242 1.65957 4.90628L3.07379 6.32049ZM2.36624 6.32049L6.71291 10.6672L8.12712 9.25294L3.78045 4.90628L2.36624 6.32049ZM6.71291 10.6672C7.42343 11.3777 8.5766 11.3777 9.28712 10.6672L7.87291 9.25294C7.94343 9.18242 8.0566 9.18242 8.12712 9.25294L6.71291 10.6672ZM9.28712 10.6672L13.6338 6.32049L12.2196 4.90628L7.87291 9.25294L9.28712 10.6672ZM13.6338 6.32049C13.4366 6.51768 13.1234 6.51768 12.9262 6.32049L14.3405 4.90628C13.7566 4.32242 12.8034 4.32242 12.2196 4.90628L13.6338 6.32049ZM12.9262 6.32049C12.729 6.1233 12.729 5.81013 12.9262 5.61294L14.3405 7.02716C14.9243 6.4433 14.9243 5.49013 14.3405 4.90628L12.9262 6.32049ZM12.9262 5.61294L8.57957 9.95961L9.99379 11.3738L14.3405 7.02716L12.9262 5.61294ZM8.57957 9.95961C8.42016 10.119 8.21064 10.2 8.00001 10.2V12.2C8.72272 12.2 9.44653 11.9211 9.99379 11.3738L8.57957 9.95961Z" fill="#161616" mask="url(#path-1-inside-1_85_5433)"/>
</g>
</g>
</g>
</svg>
