<svg width="18" height="18" viewBox="0 0 18 18" fill="none" xmlns="http://www.w3.org/2000/svg">
<g id="elements">
<g id="Icon">
<path d="M8.16048 12.3333C8.16048 11.873 8.53358 11.4999 8.99382 11.4999H9.0013C9.46154 11.4999 9.83463 11.873 9.83463 12.3333C9.83463 12.7935 9.46154 13.1666 9.0013 13.1666H8.99382C8.53358 13.1666 8.16048 12.7935 8.16048 12.3333Z" fill="#B54708"/>
<path d="M8.37533 9.83325C8.37533 10.1784 8.65515 10.4583 9.00033 10.4583C9.3455 10.4583 9.62533 10.1784 9.62533 9.83325V6.49992C9.62533 6.15474 9.3455 5.87492 9.00033 5.87492C8.65515 5.87492 8.37533 6.15474 8.37533 6.49992V9.83325Z" fill="#B54708"/>
<path fill-rule="evenodd" clip-rule="evenodd" d="M7.63531 0.679086C8.52236 0.384641 9.4783 0.384641 10.3653 0.679086C11.2487 0.972313 11.9423 1.66776 12.6391 2.64488C13.3336 3.61875 14.101 4.97663 15.0902 6.727L15.129 6.79572C16.1184 8.54635 16.8857 9.90417 17.364 11.0053C17.8445 12.1118 18.0838 13.0672 17.8929 13.985C17.7006 14.9091 17.2265 15.7495 16.536 16.3847C15.8472 17.0183 14.9093 17.2855 13.7283 17.4139C12.554 17.5416 11.018 17.5416 9.04095 17.5416H8.95971C6.98268 17.5416 5.44661 17.5416 4.27234 17.4139C3.09138 17.2855 2.15348 17.0183 1.46467 16.3847C0.774178 15.7495 0.300058 14.9091 0.107786 13.985C-0.0831758 13.0672 0.156159 12.1118 0.636705 11.0053C1.11492 9.90417 1.88228 8.54635 2.87164 6.79571L2.91048 6.727C3.89967 4.97664 4.66706 3.61875 5.36155 2.64488C6.05835 1.66776 6.75194 0.972313 7.63531 0.679086ZM9.97155 1.86544C9.34017 1.65586 8.66049 1.65586 8.02911 1.86544C7.53246 2.03029 7.03318 2.45367 6.37928 3.37064C5.72762 4.28445 4.99198 5.58445 3.97921 7.37653C2.9665 9.16848 2.2322 10.4695 1.78325 11.5033C1.33352 12.5388 1.22085 13.1982 1.33158 13.7304C1.47125 14.4017 1.81495 15.0084 2.31092 15.4647C2.70045 15.823 3.30742 16.0517 4.40744 16.1713C5.50613 16.2907 6.97416 16.2916 9.00033 16.2916C11.0265 16.2916 12.4945 16.2907 13.5932 16.1713C14.6932 16.0517 15.3002 15.823 15.6897 15.4647C16.1857 15.0084 16.5294 14.4017 16.6691 13.7304C16.7798 13.1982 16.6671 12.5388 16.2174 11.5033C15.7685 10.4695 15.0342 9.16848 14.0215 7.37653C13.0087 5.58445 12.273 4.28445 11.6214 3.37064C10.9675 2.45367 10.4682 2.0303 9.97155 1.86544Z" fill="#B54708"/>
</g>
</g>
</svg>
