<svg width="38" height="44" viewBox="0 0 38 44" fill="none" xmlns="http://www.w3.org/2000/svg">
<g id="elements">
<g id="Icon">
<path fill-rule="evenodd" clip-rule="evenodd" d="M36.0007 25.5C35.1732 25.4995 34.5017 24.8277 34.5017 24V13.66C34.5017 10.458 34.5017 8.85008 34.0697 7.78008C33.3657 5.99408 31.8757 4.58791 29.9777 3.91191C28.7879 3.5 27.0685 3.5 23.6439 3.5H23.6417C23.035 3.5 22.4583 3.5 21.9093 3.50078C19.1049 3.54917 16.8398 5.84416 16.8398 8.65996C16.8398 8.97938 16.8541 9.32383 16.8692 9.68651L16.8718 9.75C16.9198 10.842 16.9737 12.082 16.6697 13.24C16.2357 14.92 14.9177 16.2381 13.2337 16.6721C12.0797 16.9741 10.8398 16.9201 9.7478 16.8721L9.67948 16.8692C9.3188 16.8542 8.97763 16.84 8.65776 16.84C5.85994 16.84 3.5763 19.0763 3.49978 21.8559L3.49976 24C3.49976 24.828 2.82776 25.5 1.99976 25.5C1.17176 25.5 0.499756 24.828 0.499756 24L0.499768 21.9836C0.500303 16.1433 0.523665 13.1532 1.5437 10.568C3.2097 6.34997 6.72179 3.03206 11.1818 1.46406C13.6811 0.591764 16.5717 0.508734 21.8823 0.500831C21.9214 0.500278 21.9606 0.5 21.9998 0.5C22.0143 0.5 22.0287 0.500206 22.0431 0.500615C22.5527 0.5 23.0843 0.5 23.6398 0.5C27.4036 0.5 29.2917 0.5 30.9716 1.08398C33.6976 2.05598 35.8376 4.08992 36.8556 6.66992C37.4996 8.26992 37.4998 10.072 37.4998 13.66V24C37.4998 24.8277 36.8283 25.4995 36.0007 25.5ZM12.1757 4.29609C13.115 3.96819 14.1883 3.77534 15.5533 3.66193C14.4797 5.04364 13.8398 6.77837 13.8398 8.65996C13.8398 9.06396 13.8577 9.48008 13.8757 9.88008L13.8761 9.88769C13.916 10.8093 13.9572 11.762 13.7677 12.484C13.6037 13.112 13.1118 13.604 12.4798 13.768C11.7617 13.9555 10.8087 13.9142 9.8869 13.8743L9.87983 13.874C9.47783 13.856 9.06372 13.8381 8.65972 13.8381C6.75436 13.8381 4.99961 14.4942 3.60951 15.5925C3.71569 13.9341 3.92462 12.7094 4.33569 11.6699C5.68169 8.26192 8.53973 5.57409 12.1757 4.29609Z" fill="#6C737F"/>
<path d="M27.4998 42.002C27.4998 42.83 28.1718 43.502 28.9998 43.502C29.8278 43.502 30.4998 42.83 30.4998 42.002V37.502H33.9998C34.8278 37.502 35.4998 36.83 35.4998 36.002C35.4998 35.174 34.8278 34.502 33.9998 34.502H30.4998V34.002C30.4998 33.048 30.4998 31.8699 30.6417 31.6439C30.8697 31.502 32.0476 31.502 32.9996 31.502H35.9998C36.8278 31.502 37.4998 30.83 37.4998 30.002C37.4998 29.174 36.8278 28.502 35.9998 28.502H32.9998C30.8639 28.502 29.5738 28.502 28.5378 29.5039L28.5017 29.54C27.4998 30.576 27.4998 31.8658 27.4998 34.0017V42.002Z" fill="#6C737F"/>
<path fill-rule="evenodd" clip-rule="evenodd" d="M14.8558 43.1439C15.4818 43.5019 16.1178 43.502 16.9998 43.502C21.1358 43.502 24.4998 40.136 24.4998 36C24.4998 31.864 21.1358 28.5 16.9998 28.5C16.1199 28.5 15.4816 28.5 14.8517 28.86C13.4857 29.646 13.4938 31.082 13.4998 31.852V40.148C13.4938 40.92 13.4838 42.3539 14.8558 43.1439ZM16.9886 40.502C16.8219 40.502 16.6465 40.502 16.4998 40.5V31.834C16.4978 31.736 16.4958 31.6139 16.4998 31.5039C16.6463 31.502 16.8235 31.502 16.9883 31.502H16.9998C19.4818 31.502 21.4998 33.52 21.4998 36.002C21.4998 38.484 19.4818 40.502 16.9998 40.502H16.9886Z" fill="#6C737F"/>
<path fill-rule="evenodd" clip-rule="evenodd" d="M0.499756 42.002C0.499756 42.83 1.17176 43.502 1.99976 43.502C2.82776 43.502 3.49976 42.83 3.49976 42.002V37.502H5.99976C8.48176 37.502 10.4998 35.484 10.4998 33.002C10.4998 30.52 8.48176 28.502 5.99976 28.502H4.39976C3.05576 28.502 2.07976 28.502 1.29976 29.302C0.499756 30.08 0.499756 31.056 0.499756 32.402V42.002ZM5.99976 34.502H3.49976V32.3954C3.49976 32.0872 3.49975 31.7542 3.51167 31.5139C3.74998 31.502 4.085 31.502 4.3932 31.502H5.99976C6.82776 31.502 7.49976 32.174 7.49976 33.002C7.49976 33.83 6.82776 34.502 5.99976 34.502Z" fill="#6C737F"/>
</g>
</g>
</svg>
