<svg width="20" height="20" viewBox="0 0 20 20" fill="none" xmlns="http://www.w3.org/2000/svg">
<g id="elements">
<g id="Icon">
<path d="M1.78994 18.212C3.32693 19.75 5.55792 19.75 10.002 19.75L10.001 19.749C14.445 19.749 16.675 19.749 18.213 18.212C19.669 16.757 19.744 14.596 19.751 10.901C19.751 10.487 19.416 10.15 19.002 10.15C18.588 10.15 18.251 10.485 18.251 10.899C18.244 14.49 18.1379 16.167 17.1529 17.152C16.0539 18.25 14.032 18.25 10.001 18.25C5.96998 18.25 3.94697 18.25 2.84897 17.152C1.75098 16.053 1.75098 14.031 1.75098 10C1.75098 5.96921 1.75098 3.94702 2.84995 2.84805C3.83495 1.86305 5.51093 1.757 9.10293 1.75C9.51793 1.75 9.85195 1.41302 9.85195 0.999023C9.85095 0.585023 9.51595 0.25 9.10195 0.25C5.40695 0.257 3.24494 0.331988 1.78994 1.78799C0.251953 3.32498 0.251953 5.55597 0.251953 9.9999C0.251953 14.4438 0.251953 16.674 1.78994 18.212Z" fill="#161616"/>
<path d="M8.25195 13C8.25195 13.414 8.58795 13.75 9.00195 13.75C9.41595 13.75 9.75195 13.415 9.75195 13.001C9.75195 9.43019 9.75195 7.63805 10.5569 6.52407C10.8249 6.15207 11.15 5.82906 11.522 5.56206C12.58 4.80006 14.2459 4.76502 17.4659 4.77202C16.6794 5.51691 15.7196 6.31817 15.6051 6.41374C15.5985 6.41927 15.5947 6.42244 15.5939 6.4231C15.2749 6.6871 15.2309 7.16005 15.4949 7.47905C15.7589 7.79805 16.232 7.84208 16.551 7.57808L16.5545 7.57511C16.6787 7.47197 18.6101 5.86722 19.401 4.93003C19.615 4.67603 19.736 4.37601 19.75 4.06401V4.05308C19.764 3.70408 19.64 3.35507 19.4 3.07007C18.6103 2.13408 16.6796 0.529935 16.5546 0.426132L16.551 0.423095C16.232 0.158095 15.7589 0.203021 15.4949 0.522021C15.2309 0.841021 15.2749 1.31408 15.5939 1.57808C15.6089 1.59008 16.6729 2.47202 17.5119 3.27202C13.9449 3.26502 12.091 3.30402 10.647 4.34302C10.144 4.70402 9.70492 5.14207 9.34092 5.64507C8.25195 7.15202 8.25195 9.1073 8.25195 13Z" fill="#161616"/>
</g>
</g>
</svg>
