<svg width="48" height="49" viewBox="0 0 48 49" fill="none" xmlns="http://www.w3.org/2000/svg">
<g id="Social icon">
<path id="Vector" d="M44.5949 35.8593C37.1618 32.26 35.9771 26.7028 35.9244 26.2906C35.8606 25.7914 35.7882 25.3988 36.3389 24.8909C36.8699 24.4002 39.2258 22.9416 39.8794 22.4853C40.9599 21.7296 41.4357 20.9751 41.085 20.0477C40.8397 19.4061 40.2425 19.1645 39.6133 19.1645C39.4149 19.1651 39.2171 19.1873 39.0234 19.2307C37.8363 19.4883 36.6835 20.0833 36.0163 20.244C35.9362 20.2647 35.8538 20.2758 35.7711 20.2771C35.4154 20.2771 35.2805 20.1189 35.3148 19.6907C35.3982 18.3928 35.5748 15.8596 35.37 13.4932C35.0892 10.2374 34.0394 8.62422 32.7946 7.19751C32.1925 6.50562 29.3963 3.5332 24.0002 3.5332C18.6041 3.5332 15.8117 6.50562 15.2132 7.18892C13.9647 8.61563 12.9162 10.2288 12.6378 13.4846C12.433 15.851 12.6169 18.383 12.693 19.6821C12.7175 20.0894 12.5924 20.2685 12.2367 20.2685C12.154 20.2671 12.0717 20.256 11.9915 20.2354C11.3255 20.0747 10.1727 19.4797 8.9856 19.2221C8.79196 19.1787 8.59416 19.1565 8.39571 19.1559C7.76413 19.1559 7.16933 19.4012 6.92405 20.0391C6.57331 20.9666 7.04669 21.721 8.13081 22.4767C8.78448 22.933 11.1404 24.3904 11.6714 24.8823C12.2208 25.3902 12.1497 25.7828 12.0859 26.2821C12.0332 26.7004 10.8473 32.2576 3.41537 35.8507C2.98 36.0617 2.23927 36.5083 3.54537 37.2296C5.59588 38.3631 6.96084 38.2416 8.02167 38.9249C8.92183 39.5052 8.38958 40.7565 9.04447 41.2079C9.84898 41.7636 12.2269 41.1687 15.299 42.1832C17.8744 43.0321 19.4393 45.4304 24.0064 45.4304C28.5734 45.4304 30.1836 43.0211 32.7137 42.1832C35.7796 41.1687 38.1625 41.7636 38.9682 41.2079C39.6219 40.7565 39.0909 39.5052 39.991 38.9249C41.0519 38.2416 42.4156 38.3631 44.4673 37.2296C45.771 36.5168 45.0303 36.0703 44.5949 35.8593Z" fill="white"/>
<path id="Vector_2" d="M47.8282 35.4361C47.4946 34.5283 46.8594 34.0425 46.1358 33.6402C45.9997 33.5604 45.8746 33.4966 45.7679 33.4476C45.552 33.3359 45.3313 33.228 45.1118 33.1139C42.8565 31.9178 41.0954 30.4089 39.8739 28.6203C39.527 28.1168 39.2261 27.583 38.9749 27.0255C38.8707 26.7274 38.8756 26.5581 38.9504 26.4036C39.0246 26.2845 39.1228 26.1821 39.2386 26.103C39.6262 25.8466 40.026 25.5865 40.297 25.4111C40.7802 25.0983 41.1628 24.8505 41.4093 24.6751C42.3352 24.0273 42.9828 23.3391 43.3875 22.57C43.6698 22.0385 43.8345 21.4525 43.8703 20.8518C43.906 20.251 43.8121 19.6496 43.5947 19.0884C42.9815 17.474 41.4572 16.4718 39.6102 16.4718C39.2206 16.4714 38.8321 16.5125 38.4513 16.5945C38.3495 16.6165 38.2477 16.6399 38.1484 16.6656C38.1655 15.5615 38.141 14.3961 38.0429 13.2491C37.6946 9.21679 36.283 7.1031 34.8114 5.41754C33.869 4.3613 32.7589 3.46769 31.5259 2.77267C29.2926 1.49685 26.7602 0.849121 23.9996 0.849121C21.239 0.849121 18.7188 1.49685 16.4831 2.77267C15.247 3.4679 14.1347 4.3633 13.1915 5.42245C11.7198 7.108 10.3082 9.22537 9.95994 13.254C9.86182 14.401 9.8373 15.5726 9.85324 16.6705C9.7539 16.6448 9.65334 16.6215 9.55155 16.5994C9.17069 16.5175 8.78218 16.4763 8.39262 16.4767C6.54446 16.4767 5.01761 17.479 4.40687 19.0934C4.18856 19.6548 4.09365 20.2566 4.12856 20.858C4.16348 21.4594 4.32741 22.0462 4.60922 22.5786C5.01515 23.3477 5.66268 24.0359 6.5886 24.6837C6.83388 24.8554 7.21774 25.1032 7.70093 25.4197C7.96215 25.589 8.34356 25.8368 8.71761 26.0846C8.84848 26.1692 8.95971 26.2809 9.04383 26.4121C9.12231 26.5729 9.12477 26.7458 9.00826 27.0648C8.76046 27.6106 8.46455 28.1332 8.12404 28.6264C6.92954 30.3746 5.21996 31.8565 3.037 33.0427C1.88052 33.6561 0.678661 34.0658 0.170938 35.4459C-0.211693 36.4874 0.0384885 37.6725 1.01101 38.6711C1.36793 39.0438 1.78191 39.3572 2.2374 39.5997C3.18513 40.1207 4.19291 40.524 5.23836 40.8007C5.4541 40.8564 5.65892 40.948 5.84419 41.0718C6.19861 41.3822 6.14833 41.8496 6.62049 42.5341C6.8575 42.8879 7.15866 43.1941 7.50839 43.437C8.49931 44.1215 9.61287 44.1645 10.7926 44.2098C11.8584 44.2503 13.0664 44.2969 14.446 44.7521C15.0175 44.941 15.6111 45.3066 16.2991 45.7335C17.9511 46.7492 20.2125 48.1391 23.9971 48.1391C27.7817 48.1391 30.0591 46.7419 31.7233 45.7224C32.4064 45.3029 32.9963 44.941 33.5519 44.757C34.9316 44.3006 36.1395 44.2552 37.2053 44.2148C38.3851 44.1694 39.4986 44.1264 40.4895 43.4419C40.9037 43.153 41.2488 42.7759 41.5001 42.3378C41.8398 41.76 41.8312 41.3564 42.1501 41.0743C42.3239 40.9564 42.5162 40.8685 42.7191 40.8142C43.7788 40.5367 44.8003 40.1296 45.7605 39.6022C46.2445 39.3425 46.6801 39.0014 47.0482 38.5938L47.0605 38.5791C47.9729 37.6026 48.2023 36.4519 47.8282 35.4361ZM44.4642 37.2444C42.4125 38.3779 41.0488 38.2564 39.9879 38.9397C39.0865 39.52 39.62 40.7713 38.9651 41.2227C38.1606 41.7784 35.7827 41.1835 32.7106 42.198C30.1769 43.0358 28.5605 45.4452 24.0033 45.4452C19.446 45.4452 17.8677 43.0407 15.2923 42.1918C12.2263 41.1773 9.84343 41.7723 9.03769 41.2166C8.38403 40.7651 8.91506 39.5138 8.01489 38.9336C6.95284 38.2503 5.5891 38.3717 3.53859 37.2444C2.23249 36.523 2.97323 36.0765 3.40859 35.8655C10.8405 32.2662 12.0264 26.709 12.0791 26.2968C12.1429 25.7975 12.214 25.405 11.6646 24.8971C11.1336 24.4064 8.7777 22.9478 8.12404 22.4915C7.04237 21.7358 6.56653 20.9813 6.91728 20.0539C7.16255 19.4123 7.76103 19.1706 8.38894 19.1706C8.58739 19.1712 8.78518 19.1935 8.97883 19.2369C10.166 19.4945 11.3188 20.0895 11.9847 20.2502C12.0649 20.2708 12.1472 20.2819 12.23 20.2833C12.5856 20.2833 12.7107 20.1042 12.6862 19.6969C12.6102 18.3978 12.4262 15.8658 12.631 13.4994C12.9118 10.2436 13.9604 8.6304 15.2064 7.20369C15.8049 6.51794 18.617 3.54552 23.9947 3.54552C29.3724 3.54552 32.1918 6.50567 32.7903 7.18897C34.0375 8.61568 35.0873 10.2289 35.3657 13.4847C35.5705 15.8511 35.3939 18.3843 35.3105 19.6822C35.2823 20.1103 35.4111 20.2686 35.7667 20.2686C35.8495 20.2673 35.9318 20.2561 36.012 20.2355C36.6792 20.0748 37.832 19.4798 39.0191 19.2222C39.2127 19.1787 39.4105 19.1565 39.609 19.1559C40.2406 19.1559 40.8354 19.4013 41.0807 20.0392C41.4314 20.9666 40.958 21.7211 39.8751 22.4767C39.2215 22.9331 36.8656 24.3905 36.3345 24.8824C35.7839 25.3903 35.8563 25.7828 35.92 26.2821C35.9728 26.7004 37.1574 32.2576 44.5906 35.8508C45.0296 36.0704 45.7703 36.5169 44.4642 37.2444Z" fill="black"/>
</g>
</svg>
