<svg width="48" height="49" viewBox="0 0 48 49" fill="none" xmlns="http://www.w3.org/2000/svg">
<g id="Social icon" clip-path="url(#clip0_1_49244)">
<path id="Vector" d="M47.044 12.8708C46.7726 11.8496 46.2378 10.9177 45.493 10.1681C44.7483 9.4186 43.8197 8.87782 42.8003 8.59991C39.0476 7.59082 24.0476 7.59082 24.0476 7.59082C24.0476 7.59082 9.04761 7.59082 5.29488 8.59991C4.27547 8.87782 3.34693 9.4186 2.60218 10.1681C1.85744 10.9177 1.32262 11.8496 1.05124 12.8708C0.0476075 16.6399 0.0476074 24.4999 0.0476074 24.4999C0.0476074 24.4999 0.0476075 32.3599 1.05124 36.129C1.32262 37.1502 1.85744 38.0822 2.60218 38.8317C3.34693 39.5812 4.27547 40.122 5.29488 40.3999C9.04761 41.409 24.0476 41.409 24.0476 41.409C24.0476 41.409 39.0476 41.409 42.8003 40.3999C43.8197 40.122 44.7483 39.5812 45.493 38.8317C46.2378 38.0822 46.7726 37.1502 47.044 36.129C48.0476 32.3599 48.0476 24.4999 48.0476 24.4999C48.0476 24.4999 48.0476 16.6399 47.044 12.8708Z" fill="#FF0302"/>
<path id="Vector_2" d="M19.1387 31.6378V17.3633L31.6841 24.5006L19.1387 31.6378Z" fill="#FEFEFE"/>
</g>
<defs>
<clipPath id="clip0_1_49244">
<rect width="48" height="48" fill="white" transform="translate(0 0.5)"/>
</clipPath>
</defs>
</svg>
