<svg xmlns="http://www.w3.org/2000/svg" width="50.922" height="50.134" viewBox="0 0 50.922 50.134">
  <g id="ksa" transform="translate(-1734.408 -80)">
    <path id="Path_124829" data-name="Path 124829" d="M297.619,2.189a23.087,23.087,0,0,1,23.239,22.878,23.241,23.241,0,0,1-46.477,0A23.086,23.086,0,0,1,297.619,2.189m0-2.189a25.3,25.3,0,0,0-25.461,25.067,25.464,25.464,0,0,0,50.922,0A25.3,25.3,0,0,0,297.619,0" transform="translate(1462.25 80)" fill="#63be6a"/>
    <path id="Path_124830" data-name="Path 124830" d="M314.424,44.692a7.122,7.122,0,0,0-2.953-.524c-2.379,0-6.025.731-10.587,4.032l-.02.015-.093-.071c-4.562-3.3-8.152-3.975-10.53-3.975a7.122,7.122,0,0,0-2.953.524c-.057.033-.163.093-.136.193.017.062.073.094.166.094a.577.577,0,0,0,.087-.007,7.066,7.066,0,0,1,1.715-.2c3.085,0,7.073,2.3,10.265,4.582-.646.522-1.3,1.087-1.983,1.711-.095-.082-.127-.1-.218-.178a2.86,2.86,0,0,0-.825-.491.886.886,0,0,0-.483-.039.63.63,0,0,0-.475.708.555.555,0,0,0,.486.54.529.529,0,0,0,.475-.263c.121.1.238.193.343.292.05.047.1.1.146.143l-.2.171c-.155.134-.307.265-.461.392a4.432,4.432,0,0,1-1,.659.893.893,0,0,1-.41.1,1.409,1.409,0,0,1-.227-.048l-.055-.016a.184.184,0,0,1-.022-.009.565.565,0,0,0-.146-.053.374.374,0,0,0-.069-.006.3.3,0,0,0-.272.157.569.569,0,0,0-.047.4.608.608,0,0,0,.147.251,1.327,1.327,0,0,0,.866.456,1.617,1.617,0,0,0,.185.01,1.763,1.763,0,0,0,.19-.01,2.623,2.623,0,0,0,.814-.238,6.748,6.748,0,0,0,1.367-.858l.4-.319c.132.126.27.253.41.376a1.865,1.865,0,0,0,.63.4.7.7,0,0,0,.225.036.674.674,0,0,0,.088-.005c.035,0,.069-.009.1-.015a.584.584,0,0,0,.438-.5.665.665,0,0,0-.254-.661.483.483,0,0,0-.6.068.492.492,0,0,0-.066.073c-.106-.1-.207-.213-.311-.326.669-.595,1.477-1.207,2.248-1.812.778.605,1.635,1.218,2.3,1.812-.1.113-.206.222-.311.326a.535.535,0,0,0-.065-.073.484.484,0,0,0-.605-.068.666.666,0,0,0-.254.661.585.585,0,0,0,.438.5c.035.006.069.012.1.015a.678.678,0,0,0,.087.005.7.7,0,0,0,.226-.036,1.857,1.857,0,0,0,.63-.4c.14-.123.277-.251.41-.376l.4.319a6.77,6.77,0,0,0,1.367.858,2.629,2.629,0,0,0,.814.238,1.759,1.759,0,0,0,.189.01,1.665,1.665,0,0,0,.187-.01,1.327,1.327,0,0,0,.866-.456.608.608,0,0,0,.147-.251.573.573,0,0,0-.047-.4.3.3,0,0,0-.272-.157.375.375,0,0,0-.069.006.576.576,0,0,0-.146.053l-.021.009-.057.016a1.384,1.384,0,0,1-.226.048.9.9,0,0,1-.41-.1,4.416,4.416,0,0,1-1-.659c-.154-.127-.306-.258-.461-.392l-.2-.171c.05-.047.1-.1.146-.143.1-.1.222-.194.343-.292a.528.528,0,0,0,.475.263.555.555,0,0,0,.486-.54.63.63,0,0,0-.475-.708.885.885,0,0,0-.483.039,2.874,2.874,0,0,0-.826.491c-.091.075-.123.1-.218.178-.658-.6-1.34-1.2-1.977-1.715,3.192-2.285,7.176-4.579,10.26-4.579a7.072,7.072,0,0,1,1.716.2.554.554,0,0,0,.087.007c.092,0,.149-.032.166-.094.028-.1-.08-.161-.136-.193" transform="translate(1459.078 70.113)" fill="#63be6a"/>
    <path id="Path_124831" data-name="Path 124831" d="M305.885,41.94a10.438,10.438,0,0,0-.657,1.71,7.092,7.092,0,0,1,2.136-.674,5.082,5.082,0,0,0,4.059-4.767c-.1.186-.36.577-2.633.68-1.19.054-3.165.2-4.19,2.123a5.451,5.451,0,0,1,.424,1.186c1.276-3,4.422-2.593,4.957-2.7-.531.229-2.812.339-4.1,2.448" transform="translate(1455.384 71.448)" fill="#63be6a"/>
    <path id="Path_124832" data-name="Path 124832" d="M302.574,45.46l.56-.272c-.137-5.894-3.369-6.229-4.932-6.3-2.274-.1-2.535-.494-2.634-.68a5.083,5.083,0,0,0,4.059,4.767,4.185,4.185,0,0,1,1.695.552c-.434-3.851-3.662-3.757-4.312-4.036.613.128,5.214-.833,5,5.7Z" transform="translate(1457.296 71.448)" fill="#63be6a"/>
    <path id="Path_124833" data-name="Path 124833" d="M302.062,24.327a2.042,2.042,0,0,0,1.853,2.108,2,2,0,0,0,1.853-2.108c.02-1.611-1.853-4.683-1.853-4.683s-1.955,3-1.853,4.683m2.658,1.382A1.309,1.309,0,0,1,303.9,26a1.54,1.54,0,0,1-1.432-1.629,4.109,4.109,0,0,1,.328-1.228,2.429,2.429,0,0,0-.1.594,1.888,1.888,0,0,0,1.756,2,1.485,1.485,0,0,0,.264-.025" transform="translate(1455.922 75.603)" fill="#63be6a"/>
    <path id="Path_124834" data-name="Path 124834" d="M297.949,33.406c0,3.36,4.837,4.433,4.837,4.433V36.8c0-3.487-4.837-4.432-4.837-4.432Z" transform="translate(1456.792 72.756)" fill="#63be6a"/>
    <path id="Path_124835" data-name="Path 124835" d="M304.719,36.8v1.042s4.837-1.073,4.837-4.432V32.363s-4.837.945-4.837,4.433" transform="translate(1455.359 72.756)" fill="#63be6a"/>
    <path id="Path_124836" data-name="Path 124836" d="M299.495,28.593c0,2.732,3.677,3.6,3.677,3.6v-.848c0-2.835-3.677-3.6-3.677-3.6Z" transform="translate(1456.464 73.79)" fill="#63be6a"/>
    <path id="Path_124837" data-name="Path 124837" d="M304.643,31.348V32.2s3.677-.872,3.677-3.6v-.848s-3.677.769-3.677,3.6" transform="translate(1455.375 73.79)" fill="#63be6a"/>
    <path id="Path_124838" data-name="Path 124838" d="M288.09,18.265c3.2-3.168,5.247-3.732,7.8-4.126-2.617,1.64-5.061,5.453-4.3,8.136,1.382-2.847,3.794-5.63,6.018-6.644a4.946,4.946,0,0,0-.086,5.762c.28-2.4,1.984-4.712,3.41-6.26,1.425,1.548,3.131,3.857,3.41,6.26a4.944,4.944,0,0,0-.087-5.762c2.223,1.014,4.636,3.8,6.018,6.644.762-2.683-1.682-6.5-4.3-8.136,2.554.394,4.606.958,7.8,4.126-1.055-4.239-4.766-5.708-7.735-6.231,3.266-.276,3.913.052,6.8,1.23-3.131-3.039-5.327-3.587-8.464-3.291a4.175,4.175,0,0,1,1.843-.92,4.7,4.7,0,0,0-4.175.514,2.882,2.882,0,0,0-1.1-1.954V7.6l-.01.006-.01-.006v.012a2.879,2.879,0,0,0-1.1,1.954,4.7,4.7,0,0,0-4.176-.514,4.191,4.191,0,0,1,1.844.92c-3.138-.3-5.333.252-8.465,3.291,2.884-1.178,3.533-1.507,6.8-1.23-2.967.523-6.68,1.992-7.733,6.231" transform="translate(1458.878 78.299)" fill="#63be6a"/>
  </g>
</svg>
